<?xml version="1.0" encoding="UTF-8" standalone="no"?>
<!DOCTYPE svg PUBLIC "-//W3C//DTD SVG 1.1//EN" "http://www.w3.org/Graphics/SVG/1.1/DTD/svg11.dtd">
<svg width="100%" height="100%" viewBox="0 0 454 253" version="1.1" xmlns="http://www.w3.org/2000/svg" xmlns:xlink="http://www.w3.org/1999/xlink" xml:space="preserve" xmlns:serif="http://www.serif.com/" style="fill-rule:evenodd;clip-rule:evenodd;stroke-linecap:round;stroke-linejoin:round;stroke-miterlimit:1.5;">
    <g transform="matrix(1,0,0,1,-100.999194,-382.553052)">
        <g>
            <path d="M170.329,555.973L138.721,581.969L111.148,610.824L103.744,621.297C103.744,621.297 101.856,624.833 103.083,628.622C104.309,632.411 107.087,633.215 107.087,633.215C107.087,633.215 104.095,634.66 111.362,633.215C118.629,631.77 130.171,628.622 130.171,628.622C130.171,628.622 137.438,621.938 145.347,615.74C153.255,609.541 166.721,598.614 166.721,598.614L170.329,594.431L173.347,579.404C173.347,579.404 182.324,575.769 190.018,573.846C197.713,571.923 213.743,568.607 213.743,568.607L236.4,570.317L259.27,576.839L285.774,587.098L318.476,600.992L340.064,609.541L362.079,618.091L378.537,624.669L388.582,628.622L395.422,628.622L404.185,624.669L415.086,620.442L436.033,605.908C436.033,605.908 450.287,595.139 451.282,594.218C452.277,593.297 464.337,579.831 464.337,579.831L472.155,580.472L498.872,589.236L518.964,598.614L534.78,606.976L545.467,613.823L550.17,619.328L552.426,619.328L552.426,613.823L545.04,532.381L534.139,496.473L521.529,475.099L501.223,448.809L480.063,432.351L455.483,416.534L423.422,402.214L384.949,391.313L347.972,384.636L315.911,384.636L289.572,388.107L260.125,397.725L236.186,409.053L208.614,427.862L201.133,434.274L193.866,449.236L182.11,484.717L174.843,514.213L172.064,536.442L170.329,555.973Z" style="fill:rgb(51,51,51);"/>
            <g>
                <path d="M170.329,555.593C170.329,555.593 171.855,527.348 175.29,513.608C178.726,499.868 187.504,459.791 199.336,438.036C211.168,416.28 270.948,393.308 270.948,393.308C270.948,393.308 336.74,365.867 436.931,408.615C537.121,451.363 541.091,527.451 543.762,530.886C546.434,534.321 553.207,614.308 552.352,618.369C551.497,622.43 543.418,612.277 543.418,612.277C543.418,612.277 503.9,586.542 464.417,579.121" style="fill:none;stroke:black;stroke-width:4.17px;"/>
                <path d="M416.72,404.059C416.72,404.059 456.415,434.211 459.85,455.967C463.285,477.723 464.43,568.944 463.667,574.669" style="fill:none;stroke:black;stroke-width:4.17px;"/>
                <path d="M103.744,624.669C103.744,624.669 109.851,600.241 180.462,549.097C251.072,497.952 425.569,529.651 463.893,578.888" style="fill:none;stroke:black;stroke-width:4.17px;"/>
                <path d="M174.576,578.744C174.576,578.744 171.225,582.87 170.329,594.431" style="fill:none;stroke:black;stroke-width:4.17px;"/>
                <path d="M103.744,624.669C103.744,624.669 99.334,636.289 113.286,632.43C127.239,628.57 127.626,633.023 170.329,594.431" style="fill:none;stroke:black;stroke-width:4.17px;"/>
                <path d="M114.808,627.624C114.808,627.624 173.92,548.108 247.727,573.672C321.534,599.237 371.295,624.618 386.992,628.292C402.506,631.923 442.664,604.885 463.179,581.038C463.42,580.759 465.128,578.939 463.893,580.201" style="fill:none;stroke:black;stroke-width:4.17px;"/>
            </g>
        </g>
    </g>
</svg>
