<?xml version="1.0" encoding="UTF-8" standalone="no"?>
<!DOCTYPE svg PUBLIC "-//W3C//DTD SVG 1.1//EN" "http://www.w3.org/Graphics/SVG/1.1/DTD/svg11.dtd">
<svg width="100%" height="100%" viewBox="0 0 425 384" version="1.1" xmlns="http://www.w3.org/2000/svg" xmlns:xlink="http://www.w3.org/1999/xlink" xml:space="preserve" xmlns:serif="http://www.serif.com/" style="fill-rule:evenodd;clip-rule:evenodd;stroke-linecap:round;stroke-linejoin:round;stroke-miterlimit:1.5;">
    <g transform="matrix(1,0,0,1,-645.365192,-417.101234)">
        <g>
            <path d="M666.828,566.362L661.082,593.355L654.351,587.714L647.449,579.859L647.449,569.605L650.788,562.48L658.21,550.903C658.21,550.903 660.708,544.857 662.279,539.865C663.85,534.872 666.828,515.28 666.828,515.28L671.272,505.186L679.287,498.358L690.793,491.376L700.839,486.247L705.114,482.613L713.663,474.918L742.091,455.682L763.679,444.781L793.602,432.812L823.739,424.262C823.739,424.262 847.892,420.733 853.877,420.253C859.861,419.774 881.022,419.185 881.022,419.185L921.419,422.552L936.942,426.189L953.052,432.17L972.716,443.071L985.754,453.698L1003.495,471.712L1018.67,491.376L1033.204,517.239L1043.678,546.307L1052.014,579.651L1056.075,608.813L1058.462,635.651L1058.462,642.704L1063.342,659.376L1067.798,675.62L1067.798,705.544L1065.052,723.925L1064.41,742.948L1063.769,761.116L1061.632,782.704L1058.462,789.971L1053.937,794.246L1048.594,796.597L1041.754,798.441L1045.815,782.704L1037.479,750.856L1029.998,727.559L1016.96,697.849L1000.075,668.567L989.174,651.254L971.861,631.162L958.395,616.628L933.815,597.819L909.022,582.002L885.083,570.46L857.623,561.91L834.938,556.139L813.052,552.933L788.045,551.223L761.755,550.796L736.534,554.002L712.809,556.567L692.717,560.414L678.183,563.62L666.828,566.362Z" style="fill:rgb(102,117,139);"/>
            <g>
                <path d="M660.236,593.355C660.236,593.355 645.523,583.41 647.661,571.013C649.798,558.617 656.351,568.781 669.71,512.34C683.069,455.9 951.818,457.214 1022.428,587.412" style="fill:none;stroke:black;stroke-width:4.17px;"/>
                <path d="M698.244,488.211C698.244,488.211 793.736,393.059 936.942,426.189" style="fill:none;stroke:black;stroke-width:4.17px;"/>
                <path d="M936.942,426.189C936.942,426.189 986.916,438.418 1022.428,498.104C1043.026,532.722 1056.419,578.656 1058.462,645.829" style="fill:none;stroke:black;stroke-width:4.17px;"/>
                <path d="M666.828,567.097C666.828,567.097 971.185,464.123 1046.216,782.84" style="fill:none;stroke:black;stroke-width:4.17px;"/>
                <path d="M1046.216,782.84L1040.937,798.441C1040.937,798.441 1058.494,797.01 1061.547,782.84C1064.601,768.671 1061.929,758.077 1067.272,702.64C1072.616,647.203 1035.593,607.509 1030.25,600.257" style="fill:none;stroke:black;stroke-width:4.17px;"/>
                <path d="M666.828,566.362L661.082,593.355" style="fill:none;stroke:black;stroke-width:4.17px;"/>
            </g>
        </g>
    </g>
</svg>
