<?xml version="1.0" encoding="UTF-8" standalone="no"?>
<svg width="100%" height="100%" viewBox="0 0 591 351" version="1.1" xmlns="http://www.w3.org/2000/svg" xmlns:xlink="http://www.w3.org/1999/xlink" xml:space="preserve" xmlns:serif="http://www.serif.com/" style="fill-rule:evenodd;clip-rule:evenodd;stroke-linecap:round;stroke-linejoin:round;stroke-miterlimit:1.5;">
    <g transform="matrix(1,0,0,1,-633.907855,-401.533518)">
        <g transform="matrix(1,0,0,1,-491.601411,10.686987)">
            <path d="M1127.593,629.813L1150.712,614.781L1181.17,595.277L1205.483,579.781L1235.673,558.407L1251.17,545.316L1262.124,501.499C1262.124,501.499 1280.826,445.927 1282.162,443.522C1283.498,441.118 1292.314,423.484 1292.314,423.484L1307.276,414.667L1324.108,407.186L1345.215,401.041L1369.984,395.698L1387.429,392.93L1412.543,392.93L1452.085,397.301L1478.535,403.713L1520.749,421.881L1551.741,439.782L1578.726,460.087L1606.765,483.866L1606.765,491.881L1609.451,504.438L1615.061,552.529L1617.987,607.567L1629.489,623.064L1648.458,645.239L1665.29,662.605L1685.061,682.109L1700.825,696.537L1712.046,707.224L1714.414,713.636L1714.414,717.911L1706.97,722.72L1687.573,730.975L1670.474,734.182L1624.947,739.141L1617.987,735.25L1612.376,730.12L1603.573,727.128L1606.765,707.464L1609.985,691.647C1609.985,691.647 1612.416,667.795 1612.376,667.324C1612.336,666.854 1581.985,655.525 1581.985,655.525L1553.344,644.411L1529.619,633.724L1512.947,627.739L1475.543,615.983L1446.688,609.963L1338.536,609.963L1299.421,614.06L1257.528,615.128L1234.017,615.128L1233.803,629.813L1235.086,643.983L1236.368,652.319L1231.238,660.441L1223.116,674.976L1208.582,670.915L1179.3,660.228L1160.063,651.678L1143.819,643.128L1134.414,639.281L1129.712,634.579L1127.593,629.813Z" style="fill:rgb(224,206,170);"/>
            <g>
                <path d="M1250.632,546.61C1250.632,546.61 1278.034,430.421 1297.27,419.734C1316.507,409.047 1455.01,336.91 1606.765,485.994" style="fill:none;stroke:black;stroke-width:4.17px;"/>
                <path d="M1606.765,485.994C1606.765,485.994 1617.452,566.146 1617.987,609.963" style="fill:none;stroke:black;stroke-width:4.17px;"/>
                <path d="M1617.987,609.963C1617.987,609.963 1673.203,675.91 1707.936,703.518C1742.668,731.126 1626.575,740.191 1623.521,739.046C1620.468,737.901 1617.319,731.961 1602.958,727.954" style="fill:none;stroke:black;stroke-width:4.17px;"/>
                <path d="M1602.958,727.954C1602.958,727.954 1612.809,685.08 1612.376,670.195C1611.944,655.309 1731.943,702.408 1711.958,717.828" style="fill:none;stroke:black;stroke-width:4.17px;"/>
                <path d="M1612.376,666.988L1556.982,646.378L1525.684,632.637L1479.883,617.37L1446.295,609.963L1345.532,609.963C1345.532,609.963 1255.074,617.752 1234.082,615.08C1213.09,612.408 1180.647,615.462 1180.647,615.462L1158.128,618.134L1134.083,626.531L1127.594,630.729C1127.594,630.729 1127.212,637.218 1139.044,641.034C1150.876,644.851 1184.464,668.375 1223.014,674.552" style="fill:none;stroke:black;stroke-width:4.17px;"/>
                <path d="M1223.014,674.552L1235.991,654.393L1233.701,635.691L1232.937,614.699" style="fill:none;stroke:black;stroke-width:4.17px;"/>
                <path d="M1127.593,629.813C1127.593,629.813 1235.227,562.555 1248.968,547.978" style="fill:none;stroke:black;stroke-width:4.17px;"/>
                <path d="M1252.625,546.203C1252.625,546.203 1492.196,512.544 1616.432,608.361" style="fill:none;stroke:black;stroke-width:4.17px;"/>
                <path d="M1614.551,557.542C1614.551,557.542 1443.853,466.051 1266.046,503.455" style="fill:none;stroke:black;stroke-width:4.17px;"/>
            </g>
        </g>
    </g>
</svg>
