<?xml version="1.0" encoding="UTF-8" standalone="no"?>
<!DOCTYPE svg PUBLIC "-//W3C//DTD SVG 1.1//EN" "http://www.w3.org/Graphics/SVG/1.1/DTD/svg11.dtd">
<svg width="100%" height="100%" viewBox="0 0 638 356" version="1.1" xmlns="http://www.w3.org/2000/svg" xmlns:xlink="http://www.w3.org/1999/xlink" xml:space="preserve" xmlns:serif="http://www.serif.com/" style="fill-rule:evenodd;clip-rule:evenodd;stroke-linecap:round;stroke-linejoin:round;stroke-miterlimit:1.5;">
    <g transform="matrix(1,0,0,1,-752.505494,-623.719812)">
        <g>
            <g id="buttom">
                <path d="M915.462,789.24C915.462,789.24 551.77,860.876 923.143,961.234C923.143,961.234 1019.983,974.919 1055.013,975.035C1055.013,975.035 1138.134,979.191 1165.445,976.875C1165.445,976.875 1228.676,976.339 1237.879,973.073C1237.879,973.073 1308.829,956.152 1322.781,949.325C1322.781,949.325 1363.451,933.591 1370.873,924.685C1370.873,924.685 1399.371,900.639 1383.341,880.453C1383.341,880.453 1366.716,854.626 1343.858,845.72C1343.858,845.72 1297.251,820.487 1289.83,819.3C1289.83,819.3 1232.832,800.894 1228.379,798.816C1228.379,798.816 1188.897,784.567 1177.022,783.676C1177.022,783.676 1109.041,774.074 1077.574,776.5C1077.574,776.5 998.906,779.817 989.11,781.598C989.11,781.598 918.701,787.976 915.462,789.24Z" style="fill:rgb(151,80,23);"/>
                <path d="M923.511,961.455C923.511,961.455 549.657,872.563 914.294,789.595C914.294,789.595 1131.984,754.719 1230.171,798.802C1230.171,798.802 1580.17,898.436 1237.518,973.134C1237.518,973.134 1083.739,986.958 923.511,961.455Z" style="fill:none;stroke:black;stroke-width:4.17px;"/>
            </g>
            <g id="top">
                <path d="M768.186,843.62C768.186,843.62 801.641,819.574 862.023,803.009C862.023,803.009 942.977,784.04 956.336,783.238C956.336,783.238 1041.831,776.025 1067.213,776.025C1067.213,776.025 1144.961,779.498 1170.075,782.704C1170.075,782.704 1218.701,789.143 1229.602,798.975C1229.602,798.975 1286.457,817.784 1296.075,822.059C1296.075,822.059 1349.51,847.494 1353.998,850.486C1353.998,850.486 1312.747,816.288 1305.052,812.654C1305.052,812.654 1242.017,774.493 1237.092,772.307C1237.092,772.307 1216.777,710.059 1214.64,705.785C1214.64,705.785 1201.388,661.54 1199.678,659.83C1199.678,659.83 1152.014,639.311 1141.114,636.533C1141.114,636.533 1075.068,618.707 1056.9,625.803C1056.9,625.803 1005.389,629.693 997.053,633.754C997.053,633.754 957.084,646.579 954.946,649.143C954.946,649.143 946.397,662.823 944.687,669.876C944.687,669.876 932.076,714.334 929.297,721.388C929.297,721.388 920.971,751.739 919.042,753.235C919.042,753.235 894.458,766.487 878.855,775.677C878.855,775.677 831.832,801.112 825.206,804.96C825.206,804.96 771.013,836.967 768.186,843.62Z" style="fill:rgb(210,142,88);"/>
                <clipPath id="_clip1">
                    <path d="M768.186,843.62C768.186,843.62 801.641,819.574 862.023,803.009C862.023,803.009 942.977,784.04 956.336,783.238C956.336,783.238 1041.831,776.025 1067.213,776.025C1067.213,776.025 1144.961,779.498 1170.075,782.704C1170.075,782.704 1218.701,789.143 1229.602,798.975C1229.602,798.975 1286.457,817.784 1296.075,822.059C1296.075,822.059 1349.51,847.494 1353.998,850.486C1353.998,850.486 1312.747,816.288 1305.052,812.654C1305.052,812.654 1242.017,774.493 1237.092,772.307C1237.092,772.307 1216.777,710.059 1214.64,705.785C1214.64,705.785 1201.388,661.54 1199.678,659.83C1199.678,659.83 1152.014,639.311 1141.114,636.533C1141.114,636.533 1075.068,618.707 1056.9,625.803C1056.9,625.803 1005.389,629.693 997.053,633.754C997.053,633.754 957.084,646.579 954.946,649.143C954.946,649.143 946.397,662.823 944.687,669.876C944.687,669.876 932.076,714.334 929.297,721.388C929.297,721.388 920.971,751.739 919.042,753.235C919.042,753.235 894.458,766.487 878.855,775.677C878.855,775.677 831.832,801.112 825.206,804.96C825.206,804.96 771.013,836.967 768.186,843.62Z"/>
                </clipPath>
                <g clip-path="url(#_clip1)">
                    <g transform="matrix(0.240851,0,0,0.240851,1061.092099,789.227195)">
                        <g transform="matrix(1,0,0,1,-3643.75,-5168.75)">
                            <g id="eab5623f19d2809f7b075b81745b89f5.jpg" transform="matrix(4.903158,0,0,4.903158,2354.166667,2383.333333)">
                                <path d="M30.5,0L577.999,0C579.156,2.148 577.999,2.338 577.999,30.5L577.999,1023.999C575.851,1025.156 575.661,1023.999 547.5,1023.999L0,1023.999C-0.487,1021.888 0,1019.666 0,1017.5L0,0C2.148,-1.157 2.338,0 30.5,0Z" style="fill:rgb(60,33,4);fill-opacity:0.07;"/>
                                <path d="M17.514,2.645L19.5,2.502C31.833,2.504 44.167,2.506 56.5,2.508L58.494,2.606C59.586,3.456 62.737,7.254 68.522,6.162C72.405,5.429 68.362,8.89 70.928,14.292C71.369,15.22 73.321,20.748 75.138,17.284C79.698,8.594 75.932,6.518 78.491,5.88C79.482,5.633 80.439,7.898 85.741,4.979C87.698,3.902 87.385,3.571 89.508,2.604L91.5,2.501C103.833,2.503 116.167,2.505 128.5,2.507L129.497,2.563C131.468,3.413 135.531,7.286 139.479,6.282C141.536,5.758 142.016,6.36 141.552,8.507C140.89,11.567 144.153,18.316 145.49,18.306C148.28,18.283 147.078,16.839 148.299,14.4C151.107,8.794 148.737,5.829 150.47,5.959C156.362,6.4 156.035,4.988 161.506,2.586L162.5,2.513C174.833,2.509 187.167,2.505 199.5,2.5L201.494,2.594C205.104,4.211 205.564,6.945 211.482,6.233C215.098,5.798 212.161,9.396 213.996,13.279C216.795,19.202 217.867,18.605 218.169,18.188C218.904,17.173 221.725,11.268 221.287,8.519C220.947,6.388 221.394,5.866 223.513,6.322C226.674,7.002 231.885,3.073 232.506,2.604L234.5,2.503C246.833,2.504 259.167,2.505 271.5,2.506L273.495,2.59C276.171,4.527 277.647,6.839 283.513,6.193C284.684,7.049 285.284,6.84 284.914,8.534C284.18,11.893 288.639,20.672 290.006,18.114C294.298,10.077 292.412,9.618 292.759,7.48C292.827,7.06 293.379,6.825 293.447,6.406L294.495,6.192C300.155,6.817 301.5,4.666 304.509,2.613L306.5,2.503C318.833,2.508 331.167,2.512 343.5,2.517L344.494,2.589C346.444,3.412 350.448,7.196 354.483,6.28C356.568,5.806 357.003,6.39 356.606,8.513C355.969,11.921 359.456,17.814 359.768,18.19C360.032,18.509 360.922,19.219 363.283,14.389C366.086,8.653 363.722,5.828 365.47,5.95C371.411,6.365 371.086,4.992 376.504,2.58L377.5,2.518C389.833,2.512 402.167,2.506 414.5,2.5L416.496,2.58C419.608,4.657 420.812,6.79 426.504,6.218L427.551,6.391C427.615,6.844 428.3,7.044 428.363,7.497C428.406,7.803 427.741,8.752 428.248,11.565C428.458,12.729 430.966,17.948 431.598,18.327C433.289,19.34 436.695,11.502 436.142,8.521C435.944,7.459 436.327,7.564 436.526,6.537L437.478,6.167C443.024,6.499 443,5.875 447.51,2.627L449.5,2.503C461.833,2.504 474.167,2.505 486.5,2.506L488.494,2.601C489.929,3.658 492.741,7.211 498.516,6.137C499.338,5.984 499.192,6.349 500.057,6.62C499.007,14.761 503.461,20.402 505.16,17.29C509.579,9.198 505.772,5.384 509.512,6.239C514.032,7.272 519.38,2.692 519.508,2.608L521.5,2.5C533.833,2.507 546.167,2.513 558.5,2.52L559.494,2.592C565.085,4.907 564.654,7.129 570.555,5.905C573.37,5.321 570.543,8.398 571.908,12.352C574.605,20.164 576.011,19.06 576.677,19.515C576.695,27.64 576.74,34.107 576.687,56.489C569.502,61.204 572.879,70.424 570.503,70.343C566.726,70.214 566.61,69.695 560.603,72.671C556.658,74.625 562.709,76.419 564.587,77.297C569.228,79.465 573.002,75.763 571.728,79.521C571.189,81.112 571.563,88.456 576.685,91.512C576.731,120 576.721,124.617 576.715,127.496C576.714,127.826 576.69,128.157 576.689,128.488C569.929,132.068 572.338,141.699 571.415,142.105C570.248,142.619 569.093,140.47 563.71,142.954C561.354,144.041 557.16,145.349 560.685,147.194C569.795,151.962 570.215,148.911 571.561,148.92C572.35,148.926 569.955,161.183 576.637,162.513C576.704,171.523 576.767,171.471 576.666,200.486C569.782,203.938 572.727,213.494 570.523,213.727C568.963,213.891 569.092,213.256 567.492,213.417C565.544,213.613 557.819,217.044 559.605,218.391C565.287,222.675 569.634,221.529 570.507,221.299C573.838,220.42 570.654,223.18 571.616,226.471C572.469,229.389 573.561,231.876 573.762,232.333C574.545,234.115 574.861,233.781 576.657,234.513C576.733,253.957 576.758,253.865 576.661,272.487C574.241,273.715 574.127,273.678 573.142,276.283C571.626,280.292 571.634,280.268 572.042,284.548C572.056,284.693 571.932,284.617 570.501,285.518C566.216,285.101 566.227,285.255 562.316,287.147C561.999,287.301 557.939,289.265 558.981,290.02C564.402,293.947 569.609,293.012 570.547,292.844C573.575,292.301 570.956,294.455 571.48,297.503C572.408,302.894 572.159,303.308 576.678,306.514C576.737,333.914 576.717,333.824 576.664,344.484C575.709,344.64 570.858,345.428 571.651,355.488C571.903,358.683 569.048,355.38 559.818,359.988C556.527,361.631 564.887,364.466 565.441,364.653C569.745,366.113 572.682,363.255 571.693,366.51C571.594,366.835 570.992,376.876 576.642,377.515C576.778,393.042 576.693,410.759 576.67,415.485C573.967,416.89 574.094,417.17 573.861,417.718C571.133,424.122 571.388,425.781 571.498,426.5C571.79,428.398 570.594,428.916 570.531,429.086C563.831,427.75 557.417,432.518 560.683,434.183C568.343,438.089 568.724,436.521 570.5,436.564C572.957,436.624 570.021,448.687 576.632,449.512C576.694,457.286 576.746,457.233 576.68,487.487C569.907,490.733 572.676,500.13 570.536,500.75C570.368,500.799 567.941,499.834 564.452,501.392C564.063,501.565 564.096,501.561 559.653,503.683C559.566,503.949 559.479,504.216 559.393,504.482C559.429,504.736 558.952,504.883 558.988,505.138C559.055,505.613 559.318,505.339 564.415,507.688C569.12,509.857 572.782,505.558 571.804,509.47C570.861,513.24 571.977,514.608 573.169,517.691C574.501,521.137 575.183,520.57 576.667,521.514C576.679,524.552 576.778,548.957 576.657,559.486C576.063,559.782 575.31,559.633 574.717,559.929C574.312,560.131 571.136,566.793 571.446,569.504C571.965,574.035 568.874,571.288 564.697,572.983C559.597,575.052 558.823,576.242 560.62,577.319C567.632,581.52 572.029,578.345 571.684,581.519C571.365,584.449 571.979,591.698 576.644,592.514C576.737,606.525 576.75,606.458 576.665,630.488C575.92,630.86 572.36,632.639 571.446,639.492C571.284,640.707 572.062,642.243 571.176,643.198C569.876,644.598 568.961,642.391 564.479,644.458C561.822,645.683 556.847,647.097 561.573,649.366C565.895,651.44 565.825,652.371 570.501,651.376C570.605,651.576 572.319,651.415 571.61,653.516C571.506,653.823 571.321,663.283 576.657,664.513C576.69,670.116 576.746,670.098 576.68,702.484C576.009,702.925 575.156,703.038 574.486,703.479C574.349,703.569 571.16,709.839 571.423,712.503C571.682,715.136 571.131,715.534 568.504,715.295C566.651,715.126 558.718,717.977 559.367,719.51C559.482,719.784 559.359,720.208 559.609,720.368C565.409,724.062 569.684,723.135 570.564,722.944C573.574,722.292 570.951,724.515 571.448,727.506C571.882,730.118 574.423,735.511 574.472,735.542C575.141,735.981 575.997,736.075 576.666,736.513C576.718,752.831 576.772,758.238 576.636,774.485C569.999,775.773 572.979,787.337 570.501,787.451C568.673,787.536 568.353,786.027 560.654,789.774C556.024,792.028 566.761,795.794 569.477,795.127C573.071,794.244 571.431,796.526 571.402,798.5C571.392,799.152 571.375,800.32 573.876,806.259C574.265,807.181 575.625,807.934 576.674,808.513C576.702,819.582 576.748,826.428 576.679,845.487C569.968,849.501 572.285,858.607 571.371,859.022C570.623,859.362 570.152,857.292 561.359,861.247C558.087,862.719 560.035,863.868 562.244,864.955C566.153,866.877 566.129,867.133 570.512,866.648C572.981,866.374 569.85,878.443 576.661,879.515C576.722,895.072 576.762,894.98 576.665,917.488C569.01,921.559 573.834,931.69 569.489,930.667C566.412,929.943 556.257,933.981 560.723,936.096C567.44,939.276 567.579,938.712 570.504,938.396C570.614,938.605 572.245,938.442 571.621,940.516C571.54,940.787 571.339,950.413 576.663,951.513C576.736,972.917 576.762,972.84 576.648,989.486C575.881,989.809 572.247,991.339 571.449,998.494C571.413,998.814 572.058,1002.281 570.512,1002.66C570.278,1002.717 568.135,1001.581 564.403,1003.277C558.435,1005.99 558.522,1006.764 558.957,1007.068C564.752,1011.113 569.601,1010.34 570.55,1010.188C573.647,1009.694 569.388,1013.09 574.507,1022.402C571.942,1022.186 510.369,1022.001 504.494,1022.471C503.845,1022.425 503.195,1022.379 502.545,1022.333C500.668,1022.307 438.427,1021.985 432.498,1022.482C432.971,1021.864 436.335,1017.468 436.246,1013.502C436.183,1010.708 436.676,1010.337 439.499,1010.447C442.417,1010.56 450.106,1006.855 448.341,1005.645C442.035,1001.321 437.409,1002.724 436.479,1003.006C436.332,1002.97 434.642,1002.565 434.642,1002.565C434.656,1002.515 436.077,1001.992 436.234,999.487C436.403,996.767 433.012,987.463 430.719,991.645C427.3,997.879 428.556,998.207 428.334,1001.489C428.142,1004.328 425.813,1000.86 419.277,1004.07C414.997,1006.172 415.528,1006.931 415.798,1007.19C419.009,1010.267 423.759,1010.43 424.502,1010.455C425.982,1010.506 425.867,1010.341 427.5,1009.955C428.572,1010.259 429.25,1009.4 429.133,1010.417C429.119,1010.535 427.36,1012.008 428.179,1015.581C428.84,1018.466 429.233,1018.253 431.507,1022.453C425.607,1022.017 363.91,1022.196 361.473,1022.378C365.392,1014.075 364.71,1013.891 364.687,1013.499C364.532,1010.852 364.92,1010.396 367.5,1010.482C370.301,1010.575 370.133,1010.027 376.392,1007.365C376.522,1007.095 376.651,1006.825 376.78,1006.555C376.777,1006.543 377.435,1005.889 376.537,1005.462C371.537,1003.085 369.2,1002.173 367.493,1002.336C364.89,1002.586 364.397,1002.1 364.67,999.508C364.904,997.281 362.381,992.337 362.084,991.755C359.795,987.27 355.737,997.262 356.613,1000.489C357.19,1002.614 355.646,1002.391 355.511,1002.656C352.646,1002.372 352.463,1001.734 344.521,1005.522C343.61,1005.957 344.36,1006.491 344.354,1006.524C344.447,1006.795 344.54,1007.067 344.633,1007.339C352.999,1011.46 353.346,1009.894 355.549,1010.223C356.709,1010.396 356.466,1013.228 356.443,1013.499C356.378,1014.248 356.295,1015.216 359.525,1022.385C357.829,1022.257 295.114,1021.983 289.501,1022.505C294.212,1015.714 293.049,1012.944 292.731,1011.487C292.991,1011.166 293.252,1010.845 293.513,1010.523C293.693,1010.475 293.332,1010.011 293.513,1009.962C293.843,1009.874 294.159,1010.186 294.492,1010.262C298.921,1011.27 307.519,1006.796 304.631,1005.361C299.667,1002.896 298.52,1002.039 294.504,1002.581C294.018,1002.267 293.962,1002.787 293.503,1002.491C293.418,1002.435 293.503,1002.491 292.704,1001.5C294.102,995.366 289.676,987.235 287.205,992.326C286.966,992.818 284.306,997.036 284.96,1000.498C285.753,1004.688 282.034,1001.009 276.243,1004.009C274.332,1004.999 270.332,1005.926 274.278,1007.845C279.179,1010.228 279.558,1011.089 284.494,1009.904C284.762,1010.432 285.03,1010.959 285.298,1011.487C283.949,1017.143 286.88,1019.553 288.499,1022.507C282.189,1021.925 220.469,1022.274 218.463,1022.353C217.814,1022.375 217.165,1022.397 216.516,1022.419C213.996,1022.19 159.846,1022.092 146.472,1022.39C147.897,1019.477 147.891,1019.497 148.011,1019.244C151.11,1012.702 148.773,1009.899 150.476,1009.998C163.811,1010.769 162.357,1005.92 161.503,1005.497C153.189,1001.386 152.703,1003.219 150.483,1002.642C148.172,1002.041 151.197,1000.336 148.071,993.724C144.693,986.58 143.171,993.534 142.685,994.587C140.203,999.969 142.513,1002.5 140.514,1002.673C137.646,1002.921 137.336,1001.726 129.52,1005.521C128.583,1005.977 129.301,1006.437 129.279,1006.53C129.39,1006.809 129.5,1007.088 129.61,1007.367C135.018,1009.673 134.824,1011.14 140.554,1009.958C143.76,1009.297 140.027,1012.305 142.355,1017.564C143.43,1019.992 143.437,1019.889 144.525,1022.394C140.136,1022.16 78.162,1022.036 74.493,1022.465C73.842,1022.425 73.192,1022.386 72.542,1022.347C39.663,1021.822 39.672,1022.838 37.486,1022.617C30.628,1021.923 5.763,1021.988 2.489,1022.68L2.46,1021.535C5.41,1016.81 6.432,1017.087 6.235,1013.503C6.103,1011.115 5.148,1009.632 7.496,1010.214C11.476,1011.2 15.31,1008.529 16.721,1007.849C21.266,1005.658 13.492,1003.281 12.358,1002.881C8.898,1001.658 7.112,1002.829 6.473,1003.041C6.209,1002.224 6.319,1002.239 5.732,1001.514C6.953,996.244 5.198,994.281 2.502,991.5C2.417,990.499 2.333,989.498 2.248,988.497C2.249,976.499 2.249,964.501 2.25,952.502C2.327,951.834 2.405,951.166 2.483,950.497C5.013,945.668 6.294,946.04 6.065,940.52C5.901,936.533 8.811,939.896 13.559,937.631C13.938,937.45 18.269,935.384 18.286,935.324C18.82,933.465 11.812,929.766 7.493,930.791C4.212,931.57 7.771,926.317 4.262,921.62C4.058,921.348 3.892,921.787 3.682,921.438C3.066,920.411 3.112,920.502 2.5,919.5L2.263,917.5C2.26,905.167 2.257,892.835 2.254,880.502C2.338,879.835 2.422,879.168 2.506,878.501C3.448,876.784 6.963,873.222 6.023,868.48C5.314,864.903 8.489,868.349 13.321,866.107C16.618,864.577 19.264,863.059 18.122,861.993C17.441,861.357 13.006,859.569 12.549,859.385C8.092,857.588 5.16,860.673 5.824,857.543C7.025,851.879 4.203,850.438 2.528,847.495L2.259,845.499C2.258,833.167 2.256,820.834 2.255,808.502L2.532,806.505C4.552,803.01 6.832,802.744 5.825,796.465C5.304,793.217 8.16,796.541 13.388,794.24C18.293,792.081 18.313,791.898 18.365,791.445C18.369,791.411 15.328,786.392 7.487,787.37C4.405,787.754 7.799,782.954 4.074,777.714C3.88,777.441 3.753,777.739 3.56,777.477C3.453,777.332 3.481,777.33 2.492,775.501C2.411,774.833 2.331,774.165 2.25,773.497C2.244,745.383 2.333,745.481 1.942,736.419C2.148,735.783 2.354,735.146 2.56,734.51C5.389,729.804 6.281,729.938 5.77,724.477C5.485,721.429 7.493,723.93 10.486,723.411C11.147,723.296 15.962,722.46 18.259,720.233C19.598,718.934 12.356,714.81 8.487,715.36C5.056,715.849 6.14,714.117 6.215,712.492C6.386,708.729 3.456,705.736 2.43,703.509C2.37,702.839 2.31,702.168 2.25,701.498C2.25,689.499 2.251,677.501 2.251,665.502C2.318,664.832 2.385,664.163 2.452,663.493C3.22,661.783 6.659,657.591 6.189,654.516C5.948,652.939 4.988,651.234 8.478,651.743C11.079,652.122 21.482,648.59 16.689,646.217C12.158,643.974 12.359,642.248 7.506,643.725C4.107,644.759 7.885,639.468 4.287,634.607C4.084,634.333 3.919,634.77 3.711,634.429C3.616,634.275 3.624,634.286 2.541,632.494L2.269,630.501C2.263,618.168 2.257,605.835 2.251,593.503C2.33,592.834 2.408,592.166 2.486,591.498C3.238,590.174 7.054,586.126 6.024,581.496C5.347,578.449 10.948,581.309 17.276,577.176C20.252,575.233 11.481,571.832 8.48,572.282C3.502,573.029 7.169,569.262 5.064,564.713C4.751,564.038 2.731,561.035 2.454,560.506C2.387,559.837 2.319,559.168 2.251,558.498L2.251,522.502C2.317,521.832 2.383,521.162 2.449,520.493C4.675,515.48 7.095,515.724 5.75,509.487C6.003,509.164 6.256,508.841 6.509,508.519C6.686,508.493 6.311,508.008 6.488,507.982C8.579,507.675 8.893,509.774 14.728,506.949C19.117,504.824 18.502,504.03 18.197,503.814C11.989,499.411 8.36,500.473 7.505,500.723C4.099,501.719 7.894,496.454 4.288,491.604C4.083,491.329 3.919,491.772 3.707,491.428C3.092,490.426 3.126,490.508 2.491,489.501L2.268,487.501C2.262,475.168 2.255,462.835 2.249,450.503C2.329,449.835 2.409,449.166 2.489,448.498C3.263,447.071 6.995,442.981 6.029,438.504C5.209,434.701 8.542,438.205 13.274,436.021C17.851,433.909 19.34,432.592 16.628,431.29C15.777,430.881 11.513,427.929 7.492,428.936C3.992,429.813 8.023,424.932 4.218,419.64C4.021,419.367 3.821,419.714 3.657,419.444C3.563,419.289 3.57,419.3 2.489,417.501L2.252,415.498C2.253,403.166 2.254,390.834 2.255,378.502L2.488,376.498C2.579,376.342 3.622,374.547 3.622,374.547C3.739,374.347 6.835,371.864 6.008,366.467C5.392,362.444 8.697,366.218 13.349,364.177C18.031,362.123 19.5,361.01 17.323,359.789C8.987,355.116 5.277,359.034 6.005,355.497C6.982,350.752 3.222,346.837 2.485,345.502C2.408,344.834 2.332,344.166 2.255,343.498C2.244,324.908 2.699,324.965 1.969,306.419C2.162,305.782 2.355,305.145 2.549,304.508C5.341,299.799 6.421,299.96 5.804,294.471C5.51,291.849 9.163,294.217 12.58,292.713C15.216,291.552 18.121,290.399 18.186,289.436C18.321,287.467 11.128,284.893 8.478,285.26C6.412,285.546 5.577,285.523 6.045,283.488C7.024,279.237 3.037,274.596 2.437,273.507C2.376,272.838 2.315,272.168 2.254,271.498C2.24,243.887 2.369,243.913 1.891,234.413C2.104,233.777 2.317,233.14 2.53,232.504C3.939,230.333 7.285,228.82 5.707,222.493C6.244,221.762 6.194,221.848 6.464,220.988C11.162,222.603 11.757,221.366 16.77,218.878C20.419,217.067 15.808,215.615 14.31,214.872C9.901,212.685 8.502,213.527 7.505,213.668C7.001,213.548 6.496,213.429 5.992,213.309C6.44,204.539 3.667,204.35 2.513,202.498C2.426,201.498 2.338,200.498 2.251,199.498C2.249,187.5 2.248,175.502 2.247,163.503C2.326,162.835 2.405,162.166 2.484,161.497C3.482,159.664 6.95,155.982 6.048,151.49C5.33,147.914 8.475,151.115 13.285,149.005C19.263,146.382 18.546,145.222 18.159,144.888C17.489,144.31 13.255,140.66 7.485,141.951C3.983,142.735 8.026,137.719 4.199,132.652C3.99,132.375 3.82,132.821 3.605,132.464C3.512,132.31 3.525,132.318 2.524,130.496L2.259,128.499C2.258,116.166 2.257,103.834 2.257,91.502L2.499,89.5C2.608,89.311 2.654,89.439 4.146,87.326C7.76,82.203 4.424,77.262 7.465,77.801C8.335,77.955 12.414,78.677 18.151,75.008C19.409,74.204 14.113,69.043 7.475,70.263C4.468,70.816 7.726,65.719 4.12,60.684C3.924,60.411 3.797,60.726 3.601,60.462C3.492,60.317 3.516,60.317 2.459,58.506C2.389,57.836 2.319,57.167 2.25,56.497C2.245,28.315 2.327,28.408 1.955,19.419C2.147,18.781 2.339,18.143 2.531,17.505C5.342,12.765 6.528,12.937 5.78,7.471C5.341,4.269 8.804,8.573 15.403,4.294C15.582,4.177 15.475,4.083 17.514,2.645Z" style="fill:rgb(62,34,5);"/>
                                <path d="M540.52,628.854C512.874,627.688 520.503,590.13 543.557,595.25C558.921,598.662 564.737,624.428 540.52,628.854Z" style="fill:rgb(195,170,118);"/>
                                <path d="M109.498,628.867C87.386,626.429 88.741,601.523 103.645,595.904C126.7,587.213 138.32,626.549 109.498,628.867Z" style="fill:rgb(196,170,119);"/>
                                <path d="M106.575,451.918C130.217,450.58 130.363,474.523 120.205,482.124C99.421,497.677 77.528,460.591 106.575,451.918Z" style="fill:rgb(196,170,120);"/>
                                <path d="M535.425,452.222C557.657,448.56 562.038,473.319 550.217,482.138C530.267,497.022 507.682,462.764 535.425,452.222Z" style="fill:rgb(195,169,119);"/>
                                <path d="M255.458,451.826C284.358,458.898 265.522,496.286 243.804,483.015C232.492,476.103 231.687,451.425 255.458,451.826Z" style="fill:rgb(195,169,119);"/>
                                <path d="M248.583,628.207C227.333,620.095 236.002,596.127 251.534,594.897C276.816,592.894 275.818,633.805 248.583,628.207Z" style="fill:rgb(195,170,118);"/>
                                <path d="M396.505,628.875C366.738,626.415 380.855,584.725 404.341,596.803C416.875,603.249 417.761,626.465 396.505,628.875Z" style="fill:rgb(195,169,118);"/>
                                <path d="M399.426,451.934C428.258,460.729 406.721,497.552 385.859,482.053C375.268,474.184 376.842,450.423 399.426,451.934Z" style="fill:rgb(195,169,118);"/>
                                <path d="M166.5,519.277C171.026,519.491 172.05,518.396 172.259,520.541C172.362,521.596 170.434,523.194 170.92,524.365C175.527,535.455 176.251,535.47 177.192,535.14C182.322,533.343 178.182,526.943 177.799,526.351C175.485,522.772 200.028,522.577 187.529,527.546C185.827,528.223 180.301,543.723 180.832,545.403C180.964,545.822 183.162,552.783 184.496,549.497C189.23,537.846 189.624,538.077 194.248,526.397C195.468,523.315 195.727,522.671 192.819,521.052C187.25,517.954 200.777,518.471 201.5,518.498C207.564,518.73 199.63,522.277 198.895,523.749C195.708,530.133 186.024,556.177 183.716,556.93C178.658,558.58 177.49,551.883 176.259,555.319C174.046,561.494 178.568,559.756 180.51,559.794C196.813,560.12 196.935,558.077 199.993,552.782C201.756,549.73 203.975,551.169 203.006,553.314C198.757,562.725 197.692,562.277 196.491,562.333C189.992,562.637 161.767,562.423 161.577,562.33C157.017,560.098 167.403,559.801 168.672,557.607C169.262,556.586 174.323,547.836 172.686,543.425C172.484,542.88 164.225,525.322 163.645,524.404C162.975,523.344 155.881,520.324 160.443,519.297C160.915,519.191 160.891,519.296 166.5,519.277Z" style="fill:rgb(194,168,118);"/>
                                <path d="M453.501,519.29C453.934,519.296 458.613,519.357 458.789,520.415C459.076,522.14 456.544,522.48 457.897,525.303C461.291,532.387 462.884,537.265 464.245,534.341C466.786,528.883 465.402,527.482 464.991,527.066C463.683,525.742 464.366,524.215 466.454,524.157C467.072,524.139 480.459,523.107 477.369,526.348C476.794,526.95 473.512,526.862 472.503,529.501C467.764,541.892 466.365,544.234 468.864,549.277C471.032,553.653 471.224,548.263 479.356,529.44C481.361,524.799 484.278,523.433 479.656,521.216C472.475,517.772 495.801,517.325 489.294,521.171C488.599,521.582 486.283,521.496 484.896,524.687C471.435,555.647 472.135,556.823 469.441,557.131C464.7,557.673 463.846,552.567 462.91,554.781C461.619,557.836 460.167,559.354 463.474,559.641C480.503,561.118 483.255,557.659 484.305,556.338C488.262,551.364 488.839,549.107 489.617,551.402C489.953,552.395 486.885,562.203 482.495,562.363C479.997,562.455 448.456,562.705 447.798,562.125C443.564,558.394 453.488,562.641 456.252,555.406C459.125,547.882 461.291,547.631 457.81,540.345C450.81,525.689 451.757,524.504 446.615,522.267C446.467,522.203 445.449,521.76 445.61,520.523C445.896,518.333 446.933,519.462 453.501,519.29Z" style="fill:rgb(193,168,116);"/>
                                <path d="M311.5,519.28C311.857,519.297 316.339,519.511 315.405,521.465C313.824,524.776 314.377,524.935 315.947,528.281C318.471,533.66 319.731,537.698 321.194,533.376C323.027,527.958 321.987,527.865 320.905,526.298C318.92,523.424 331.915,524.048 332.553,524.052C334.756,524.064 335.585,526.084 332.373,527.059C329.019,528.078 328.707,530.473 324.997,540.68C322.333,548.009 326.799,551.162 327.614,549.625C332.082,541.19 337.528,526.474 338.288,524.42C339.446,521.291 336.193,521.468 335.578,520.465C333.389,516.894 353.475,517.865 344.588,521.712C340.331,523.556 331.841,550.123 328.078,556.215C327.326,557.432 323.268,557.389 322.5,556.5C322.031,555.959 321.945,555.074 321.341,554.689C319.831,553.728 318.762,557.247 318.671,557.547C318.145,559.277 319.137,560.182 334.505,559.621C341.84,559.352 342.787,552.237 344.403,551.32C349.415,548.478 343.009,560.952 341.263,562.004C339.798,562.887 305.047,562.45 304.703,562.196C301.858,560.094 310.652,558.782 310.653,558.782C312.909,557.813 316.401,545.541 316.403,545.494C316.573,542.031 307.999,526.32 307.128,524.723C305.834,522.353 302.306,522.529 302.544,520.509C302.691,519.259 310.776,519.278 311.5,519.28Z" style="fill:rgb(194,168,117);"/>
                                <path d="M24.498,519.289C30.541,519.378 28.358,521.936 28.116,522.219C26.785,523.778 27.765,523.957 31.246,532.627C31.349,532.883 32.962,536.902 34.228,534.355C36.154,530.48 36.632,530.197 34.437,526.537C31.877,522.266 56.271,523.277 44.426,527.349C43.167,527.782 42.533,528 37.636,542.544C36.3,546.512 39.677,552.234 41.149,549.306C45.071,541.51 50.729,526.507 51.488,524.495C52.71,521.254 49.426,521.609 48.734,520.404C46.769,516.979 66.684,517.726 57.627,521.774C54.856,523.013 52.949,529.437 51.248,533.395C41.268,556.628 41.13,557.074 39.438,557.155C34.632,557.385 35.272,555.11 34.537,554.45C34.291,554.23 33.149,553.352 31.901,557.617C31.302,559.664 32.67,560.036 47.504,559.638C55.12,559.434 55.43,553.198 57.458,551.44C62.611,546.975 58.207,555.938 58.034,556.289C54.579,563.321 53.297,562.355 48.5,562.479C18.315,563.265 16.023,562.499 17.501,560.501C18.124,559.659 18.267,559.993 22.438,559.231C25.878,558.602 27.259,552.598 28.753,548.596C29.94,545.417 30.191,545.02 21.29,526.596C18.784,521.409 15.066,523.768 15.473,520.495C15.627,519.262 23.77,519.287 24.498,519.289Z" style="fill:rgb(195,169,120);"/>
                                <path d="M167.5,662.478C170.994,662.606 173.272,662.441 171.412,665.439C170.043,667.645 175.589,678.256 176.515,678.283C178.039,678.326 179.601,671.597 179.034,670.763C175.489,665.547 183.239,667.26 185.5,667.239C185.945,667.235 194.912,667.15 190.551,669.564C189.548,670.12 186.912,670.094 185.879,672.673C180.29,686.622 180.445,687.148 180.819,688.417C180.944,688.841 183.076,696.077 184.519,692.515C194.926,666.83 196.771,665.875 194.382,664.7C185.439,660.306 207.661,660.415 203.115,664.056C201.559,665.303 200.147,663.818 197.999,668.722C185.362,697.567 186.953,700.455 181.51,700.283C178.007,700.172 177.568,695.044 176.274,698.319C173.464,705.429 178.811,702.901 186.497,702.786C195.085,702.657 196.008,702.805 200.284,695.356C201.645,692.985 204.131,693.994 203.043,696.315C200.787,701.131 199.21,705.205 196.491,705.337C184.234,705.934 165.216,705.573 162.497,705.521C160.459,705.483 160.162,703.108 162.567,702.799C170.836,701.734 169.618,699.328 172.344,691.441C173.932,686.846 172.382,685.679 164.994,670.259C163.34,666.807 163.112,666.963 159.778,665.118C159.165,664.779 158.939,663.27 159.677,662.754C160.554,662.142 160.642,662.462 167.5,662.478Z" style="fill:rgb(194,168,118);"/>
                                <path d="M325.5,667.228C325.527,667.228 334.72,666.41 334.518,668.501C334.279,670.984 330.798,668.256 328.785,673.604C323.985,686.352 323.323,686.666 325.575,692.445C327.125,696.422 330.677,684.732 336.201,672.368C338.206,667.879 340.151,665.851 336.585,664.341C329.87,661.499 342.906,661.613 343.5,661.618C343.765,661.621 351.37,661.687 344.604,664.744C339.347,667.119 330.78,699.367 326.422,700.185C321.513,701.106 320.785,695.401 319.448,698.462C317.14,703.749 320.767,702.899 323.512,702.898C337.067,702.893 338.835,703.595 342.794,696.67C345.539,691.871 346.62,695.189 346.599,695.507C346.594,695.577 342.92,704.853 340.449,705.225C339.776,705.326 304.459,706.332 304.295,704.552C304.005,701.406 310.676,704.455 312.523,699.509C315.507,691.518 316.919,688.62 316.054,686.687C307.129,666.744 306.984,666.681 305.267,665.938C299.843,663.591 304.201,662.421 304.489,662.416C310.914,662.309 317.188,661.406 314.567,665.545C313.299,667.547 318.981,678.196 319.561,678.239C320.075,678.276 320.914,678.337 322.489,672.497C322.967,670.725 320.617,669.302 320.863,668.585C321.5,666.723 325.316,667.232 325.5,667.228Z" style="fill:rgb(193,167,116);"/>
                                <path d="M483.499,661.639C488.972,661.793 489.722,660.934 490.089,662.615C490.623,665.061 486.924,663.331 484.944,667.701C471.332,697.74 472.826,701.911 466.684,700.064C465.968,699.849 463.664,696.131 462.93,697.813C462.77,698.179 460.831,702.623 463.44,702.778C485.814,704.105 484.78,698.881 485.159,698.262C485.385,697.892 490.165,690.076 489.818,695.509C489.804,695.724 486.208,704.178 484.357,705.109C483.01,705.787 448.223,705.553 447.763,705.159C444.585,702.432 454.09,703.528 455.448,700.473C462.08,685.554 458.464,684.674 458.023,683.74C450.361,667.532 450.483,667.063 446.626,665.269C440.621,662.474 452.906,662.46 453.5,662.459C453.926,662.458 458.542,662.453 458.74,663.414C459.019,664.774 456.922,666.154 457.479,667.506C462.023,678.543 462.56,678.779 463.432,678.317C463.652,678.201 467.218,672.552 464.947,670.131C463.821,668.931 464.082,667.285 466.47,667.242C468.922,667.197 480.115,666.314 477.392,669.385C477.038,669.785 473.66,670.379 472.924,671.77C472.712,672.17 467.385,685.746 467.357,687.498C467.344,688.344 469.176,697.531 471.795,690.631C475.401,681.129 483.388,665.971 481.259,664.835C473.869,660.894 483.027,661.651 483.499,661.639Z" style="fill:rgb(193,168,117);"/>
                                <path d="M53.5,661.637C53.918,661.635 64.77,661.603 57.642,664.826C52.583,667.113 44.053,699.729 39.464,700.277C34.381,700.885 33.901,695.378 32.877,697.767C29.426,705.819 35.714,702.922 44.497,702.774C52.18,702.646 52.596,702.136 56.667,695.605C58.645,692.431 59.879,694.9 59.77,695.512C59.761,695.558 56.32,704.109 54.343,705.093C51.848,706.336 51.665,705.439 19.5,705.505C16.709,705.511 16.82,703.034 19.536,702.746C26.369,702.022 25.558,700.06 29.234,690.401C29.854,688.772 29.67,687.495 29.263,686.6C20.244,666.757 20.03,666.661 18.322,665.892C8.392,661.425 28.309,661.543 28.722,663.416C29.229,665.716 26.538,665.361 27.437,667.519C32.072,678.642 32.602,678.918 33.452,678.402C33.966,678.089 36.44,672.161 35.4,670.57C32.474,666.093 38.422,667.239 45.526,667.117C48.998,667.058 47.612,669.448 46.66,669.794C42.34,671.366 42.656,672.094 38.689,682.572C38.382,683.384 35.487,691.029 39.56,693.389C41.316,694.406 40.78,692.519 50.327,670.423C51.827,666.953 53.045,665.994 49.628,664.271C44.805,661.839 53.125,661.645 53.5,661.637Z" style="fill:rgb(194,168,119);"/>
                                <path d="M182.186,589.835C190.993,612.002 210.059,610.018 201.395,613.284C196.206,615.241 186.892,622.408 182.931,631.749C179.458,639.94 181.696,622.024 160.707,613.08C155.41,610.822 166.65,610.66 175.373,599.391C180.62,592.611 179.531,589.853 182.186,589.835Z" style="fill:rgb(194,168,118);"/>
                                <path d="M203.244,467.816C203.315,468.986 203.725,469.239 202.649,469.681C185.697,476.645 183.392,490.356 181.494,490.389C178.635,490.44 179.027,478.124 160.749,470.029C156.644,468.211 163.53,466.736 167.156,464.045C179.054,455.212 180.004,447.217 180.776,446.809C184.302,444.951 182.427,459.441 203.244,467.816Z" style="fill:rgb(143,116,74);"/>
                                <path d="M231.573,682.585C240.317,678.17 240.926,678.808 247.049,671.14C250.559,666.744 251.973,662.148 252.635,661.75C254.098,660.869 258.61,675.252 271.587,681.318C274.179,682.529 274.746,682.152 274.775,683.514C274.803,684.782 274.249,684.43 271.583,685.667C263.81,689.271 256.622,698.331 254.874,702.703C251.406,711.377 252.693,697.651 238.267,687.847C231.867,683.499 231.426,684.519 230.882,684.144C230.668,683.996 231.538,683.645 231.323,683.497L231.573,682.585Z" style="fill:rgb(194,168,119);"/>
                                <path d="M538.896,562.134C537.902,560.104 531.233,546.483 519.353,541.743C519.164,541.667 516.595,540.642 517.766,539.747C518.438,539.233 529.525,536.373 537.302,522.392C538.142,520.884 539.032,515.778 541.286,520.609C550.112,539.516 567.042,538.958 559.703,541.845C547.587,546.61 541.555,559.639 540.632,561.634C540.571,561.765 540.363,562.214 538.896,562.134Z" style="fill:rgb(194,168,118);"/>
                                <path d="M87.729,684.257C87.757,682.88 87.659,682.834 87.759,682.77C88.171,682.505 88.425,683.129 93.311,680.19C107.976,671.37 108.675,658.065 110.645,662.361C111.561,664.357 117.281,676.828 129.749,682.08C134.064,683.898 129.534,684.97 127.719,685.918C111.146,694.572 111.035,710.204 108.249,703.658C103.046,691.432 89.775,685.215 87.729,684.257Z" style="fill:rgb(194,168,118);"/>
                                <path d="M562.014,684.05C560.494,684.643 547.855,688.939 541.244,703.371C539.013,708.24 538.053,702.882 537.334,701.594C529.518,687.582 518.35,684.697 517.739,684.257C515.415,682.584 524.956,681.82 532.988,671.89C539.248,664.149 537.433,662.263 539.399,662.151C541.749,662.017 540.519,663.681 544.573,669.448C552.384,680.558 560.759,681.236 562.014,684.05Z" style="fill:rgb(194,168,118);"/>
                                <path d="M481.288,617.208C466.95,628.78 471.017,635.768 467.489,633.521C467.113,633.282 463.289,622.319 452.413,615.637C448.559,613.27 442.95,612.497 448.328,610.186C462.741,603.993 466.907,589.186 468.331,589.927C468.803,590.172 474.727,604.72 487.664,610.203C487.902,610.304 490.3,611.32 490.144,612.273C490.013,613.074 489.301,612.127 481.288,617.208Z" style="fill:rgb(193,167,117);"/>
                                <path d="M51.721,616.806C44.777,622.606 44.305,622.32 39.209,632.324C36.404,637.831 37.354,624.608 21.232,614.942C17.453,612.677 12.821,612.972 16.65,610.743C17.467,610.267 27.985,607.481 35.673,593.589C35.722,593.499 37.528,587.884 39.081,590.766C44.62,601.046 43.967,601.838 53.732,608.111C55.78,609.427 61.948,611.569 59.604,612.598C55.504,614.398 55.584,614.437 51.721,616.806Z" style="fill:rgb(195,169,118);"/>
                                <path d="M131.339,539.66C131.267,542.267 129.832,541.245 123.444,545.42C115.916,550.34 111.33,560.127 110.629,561.623C110.233,562.468 109.806,562.094 109.576,562.084C106.605,561.95 109.116,553.171 91.406,542.669C87.95,540.619 86.7,540.552 87.797,539.778C90.535,537.847 99.095,537.017 107.704,521.609C108.309,520.525 109.192,515.998 110.971,520.142C116.469,532.952 129.282,538.732 131.339,539.66Z" style="fill:rgb(194,168,119);"/>
                                <path d="M274.474,539.529L274.618,540.513C274.418,540.665 275.294,540.946 275.094,541.099C274.345,541.671 273.578,540.306 264.867,546.954C254.924,554.544 254.329,567.068 251.278,559.615C246.095,546.956 233.607,542.145 231.604,541.373C228.242,540.078 239.426,537.571 246.107,529.173C251.733,522.1 252.165,515.187 254.944,521.267C260.111,532.575 272.549,538.596 274.474,539.529Z" style="fill:rgb(194,168,118);"/>
                                <path d="M338.654,616.721C331.173,622.63 329.799,624.179 326.07,632.275C323.354,638.172 323.846,623.56 306.26,613.937C303.67,612.52 301.135,612.287 303.662,610.741C306.593,608.949 313.542,608.038 322.067,594.251C322.97,592.792 324.344,587.306 326.193,591.649C334.664,611.55 353.441,609.5 343.604,613.711C342.439,614.21 342.505,614.28 338.654,616.721Z" style="fill:rgb(143,116,74);"/>
                                <path d="M16.602,467.647C18.587,466.832 31.25,461.631 36.208,449.351C40.075,439.771 37.772,459.38 59.371,467.678L59.629,468.476C59.448,468.691 60.287,468.956 60.106,469.171C57.232,472.576 49.217,469.376 39.183,489.305C36.414,494.804 36.805,479.779 19.317,470.848C18.17,470.263 16.824,470.026 15.807,469.236C15.571,469.053 16.443,468.617 16.207,468.434L16.602,467.647Z" style="fill:rgb(195,169,117);"/>
                                <path d="M325.221,446.926C325.711,447.792 328.892,454.955 333.545,459.454C341.706,467.346 345.213,466.289 346.356,468.52C347.389,470.534 345.601,469.695 343.591,470.668C330.11,477.191 325.642,490.048 325.337,490.263C323.003,491.905 323.702,489.558 322.246,486.641C320.531,483.207 317.809,480.144 317.354,479.633C310.509,471.933 303.258,469.602 302.809,469.246C300.791,467.644 311.618,466.725 320.112,454.238C324.172,448.269 323.111,446.928 325.221,446.926Z" style="fill:rgb(193,167,116);"/>
                                <path d="M446.634,467.689C468.963,458.433 465.669,441.41 469.189,447.7C471.66,452.115 474.16,461.46 489.38,467.668L489.697,468.468C489.469,468.626 490.35,469.028 490.121,469.186C489.747,469.445 478.603,472.853 470.918,485.725C468.851,489.188 468.571,492.88 466.735,489.362C464.507,485.094 461.638,476.483 447.699,470.119C445.999,469.343 445.981,469.321 445.876,469.196C445.511,468.758 446.664,468.88 446.307,468.453L446.634,467.689Z" style="fill:rgb(194,168,116);"/>
                                <path d="M374.735,539.722C385.413,534.438 389.302,531.899 394.919,519.728C397.716,513.668 395.882,526.615 412.735,537.109C417.51,540.083 417.794,539.489 418.189,539.773C419.867,540.979 416.079,540.736 408.109,547.011C396.442,556.198 397.342,567.233 394.701,560.394C391.248,551.455 382.631,544.54 376.301,541.828C374.917,541.235 374.732,541.235 374.735,539.722Z" style="fill:rgb(193,168,116);"/>
                                <path d="M374.702,682.718C396.803,673.851 393.915,654.585 397.99,664.246C399.056,666.775 403.755,673.454 406.902,676.027C415.36,682.944 421.409,682.849 416.71,684.823C414.8,685.625 403.114,690.534 397.995,702.736C394.662,710.68 395.222,697.511 383.191,688.907C376.55,684.158 374.646,685.576 374.702,682.718Z" style="fill:rgb(193,168,117);"/>
                                <path d="M261.504,616.939C259.657,616.911 258.169,615.946 258.252,619.502C258.412,626.388 248.682,628.196 247.942,619.471C247.524,614.55 237.952,618.444 239.58,610.518C240.671,605.202 247.479,607.585 247.88,605.624C248.203,604.044 247.758,604.039 248.171,602.42C249.858,595.81 258.002,597.386 258.247,603.515C258.359,606.299 258.756,606.645 261.496,606.596C266.662,606.505 270.782,615.431 261.504,616.939Z" style="fill:rgb(65,36,8);"/>
                                <path d="M548.529,616.942C545.654,616.695 544.78,616.664 544.832,619.496C544.97,627.029 535.302,626.983 534.655,620.479C534.377,617.686 534.311,617.125 531.456,616.92C524.161,616.396 524.584,606.508 531.5,606.58C537.625,606.644 532.455,599.588 538.433,598.237C541.964,597.438 544.801,600.332 544.816,603.485C544.831,606.453 545.596,606.413 548.491,606.62C553.264,606.963 557.124,614.92 548.529,616.942Z" style="fill:rgb(65,35,7);"/>
                                <path d="M243.527,463.629C247.821,463.605 247.989,462.998 247.914,461.525C247.499,453.429 258.005,452.94 258.227,460.506C258.305,463.19 258.748,463.538 261.501,463.446C264.565,463.344 268.008,466.519 266.588,470.537C265.118,474.7 263.9,473.492 259.505,473.559C257.029,473.596 259.835,481.774 253.476,482.241C246.163,482.778 250.362,473.774 245.489,473.765C240.074,473.755 235.606,466.96 243.527,463.629Z" style="fill:rgb(65,35,8);"/>
                                <path d="M101.466,616.945C100.865,616.809 95.905,615.682 96.038,611.488C96.207,606.143 98.304,607.339 103.553,606.696C105.406,606.469 103.406,598.227 109.498,598.097C116.574,597.946 113.073,606.719 116.497,606.766C127.42,606.917 125.293,617.347 116.486,616.76C113.055,616.532 116.907,625.364 109.502,625.284C102.525,625.208 107.666,616.757 101.466,616.945Z" style="fill:rgb(64,35,7);"/>
                                <path d="M119.452,463.675C125.893,466.709 125.182,474.045 116.498,473.601C113.242,473.435 116.584,482.433 109.504,482.27C103.6,482.134 105.199,474.014 103.451,473.746C98.69,473.016 97.077,474.333 96.12,469.582C94.696,462.516 104.296,464.107 104.562,462.517C105.25,458.397 103.613,457.234 107.502,455.503C110.966,453.962 114.781,456.601 114.811,460.482C114.839,463.936 116.09,463.352 119.452,463.675Z" style="fill:rgb(64,35,7);"/>
                                <path d="M529.572,463.709C531.358,463.452 531.345,463.427 531.5,463.432C537.584,463.597 532.526,456.571 538.425,455.205C545.989,453.452 543.546,463.673 546.498,463.644C558.087,463.53 553.687,474.41 547.481,473.747C544.561,473.435 544.838,474.474 544.826,476.499C544.786,483.58 535.756,484.324 534.689,477.471C534.245,474.617 534.4,473.888 531.48,473.771C527.601,473.617 522.146,467.913 529.572,463.709Z" style="fill:rgb(64,35,7);"/>
                                <path d="M386.552,463.686C388.098,463.513 388.009,463.543 389.5,463.572C393.095,463.642 389.597,454.621 396.533,455.097C401.747,455.455 400.757,457.281 401.337,462.542C401.557,464.54 409.833,461.947 410.031,468.512C410.251,475.779 401.385,471.804 401.324,475.499C401.16,485.315 391.782,483.816 391.333,476.511C391.018,471.407 386.766,475.443 383.643,471.394C380.123,466.831 385.96,463.976 386.552,463.686Z" style="fill:rgb(65,35,8);"/>
                                <path d="M388.477,616.92C380.755,615.65 379.96,606.701 389.504,606.715C392.967,606.72 390.054,596.213 397.561,598.295C402.01,599.528 400.717,600.949 401.327,605.533C401.615,607.704 409.786,605.162 410.014,611.517C410.273,618.716 401.463,615.276 401.327,618.496C400.874,629.195 391.713,626.359 391.348,619.508C391.149,615.765 389.606,617.109 388.477,616.92Z" style="fill:rgb(65,36,7);"/>
                                <path d="M284.477,429.124C285.468,426.964 284.17,423.688 287.703,417.635C289.912,413.85 293.661,423.812 293.09,426.473C292.674,428.413 292.543,429.349 294.492,428.901C298.874,427.894 307.049,432.196 304.663,433.636C296.118,438.792 295.236,435.811 293.533,436.652C291.904,437.457 294.418,439.127 292.052,444.302C291.45,445.619 289.496,450.77 287.829,448.265C284.214,442.834 284.969,439.248 285.137,438.452C285.892,434.865 282.189,438.803 273.767,434.068C268.976,431.375 279.869,428.915 280.541,428.763C282.569,428.305 282.488,428.698 284.477,429.124Z" style="fill:rgb(195,169,117);"/>
                                <path d="M150.453,644.04C151.316,643.803 156.221,642.454 161.316,646.71C163.291,648.36 155.276,652.066 152.49,651.795C150.031,651.556 149.432,651.875 149.64,654.493C149.777,656.228 146.905,668.279 143.624,661.435C143.538,661.256 140.667,656.544 141.617,653.514C142.039,652.166 141.683,652.19 140.502,651.391C138.2,651.835 137.764,652.666 130.717,649.099C127.509,647.475 131.202,646.037 133.669,644.823C138.746,642.323 139.578,644.871 141.185,643.183C141.469,642.885 141.393,636.597 144.711,631.732C144.949,631.383 145.938,630.678 148.329,635.584C150.597,640.24 148.281,640.973 150.453,644.04Z" style="fill:rgb(195,169,118);"/>
                                <path d="M151.508,723.357C151.193,723.526 150.757,723.075 150.442,723.244C148.21,724.444 151.16,725.837 148.003,732.232C145.852,736.592 144.898,735.586 144.692,735.29C144.223,734.615 140.63,729.447 141.549,725.506C141.992,723.605 142.455,722.526 140.558,722.945C139.68,723.139 135.626,724.035 129.614,720.368C127.452,719.049 135.336,714.996 138.508,715.299C141.095,715.547 141.617,715.103 141.402,712.503C141.22,710.295 144.688,700.035 147.076,704.755C147.371,705.338 149.83,710.199 149.643,712.506C149.435,715.091 149.953,715.531 152.491,715.3C153.145,715.241 154.801,715.091 160.279,717.885C160.471,717.983 163.083,719.315 161.373,720.352C155.953,723.638 152.331,723.409 151.508,723.357Z" style="fill:rgb(194,168,117);"/>
                                <path d="M283.502,643.695C283.827,643.616 284.153,643.537 284.478,643.457C284.71,642.398 285.113,642.509 284.908,641.49C284.199,637.958 288.691,629.37 290.053,631.851C294.943,640.761 291.934,642.494 293.486,643.531C293.772,643.722 294.217,643.511 294.503,643.702C295.238,643.618 296.648,643.008 299.615,644.227C300.104,644.428 306.997,647.26 304.584,648.581C299.375,651.433 299.461,652.126 293.515,651.55C292.098,651.435 291.969,651.306 291.991,651.427C292.12,652.144 292.578,651.837 292.699,652.51C293.778,657.282 292.779,657.221 290.796,661.66C287.696,668.599 284.725,655.907 284.84,654.51C284.985,652.739 286.123,653.19 286.272,651.445C286.376,650.222 285.694,651.187 284.498,651.508C279.089,652.961 279.184,651.462 274.123,648.978C271.638,647.758 273.115,646.83 275.563,645.614C279.709,643.554 279.705,643.254 283.502,643.695Z" style="fill:rgb(194,169,117);"/>
                                <path d="M69.49,722.906C64.771,724.108 64.409,723.382 59.24,720.921C55.005,718.904 60.169,717.33 62.407,716.286C67.204,714.046 69.958,717.077 69.797,713.497C69.604,709.199 70.117,709.336 72.074,705.261C75.023,699.121 78.023,710.754 77.845,712.514C77.59,715.031 77.975,715.57 80.49,715.319C84.418,714.927 91.602,719.265 90.123,720.129C80.119,725.969 79.291,722.425 78.473,722.924C75.879,724.504 79.353,726.14 75.154,734.305C74.007,736.535 72.474,735.569 70.239,729.596C69.038,726.385 70.867,726.091 69.49,722.906Z" style="fill:rgb(195,169,118);"/>
                                <path d="M144.858,449.019C142.01,443.31 141.177,442.91 141.663,438.516C142.067,434.866 138.878,438.14 134.65,436.159C133.769,435.747 127.885,433.255 129.782,431.84C134.046,428.657 141.995,428.721 142.008,428.455C142.017,428.27 141.001,426.182 141.678,423.55C142.1,421.913 144.901,415.294 146.265,416.768C146.824,417.372 150.349,421.183 149.592,426.508C149.021,430.521 152.21,427.46 157.317,429.877C158.327,430.355 163.909,432.316 160.323,434.196C152.511,438.289 152.13,436.532 150.508,436.616C148.974,436.695 150.199,440.605 149.043,443.317C148.466,444.668 146.216,448.939 146.11,449.035C146.036,449.102 146.11,449.035 144.858,449.019Z" style="fill:rgb(196,170,118);"/>
                                <path d="M355.502,651.428C349.547,652.434 341.546,648.408 346.244,646.093C346.798,645.82 351.858,643.327 353.501,643.471C359.085,643.962 354.591,639.211 359.766,631.8C361.081,629.918 364.971,637.736 364.683,640.505C364.409,643.145 364.828,643.699 367.5,643.495C369.82,643.317 379.866,646.87 375.289,649.115C368.018,652.682 367.754,651.337 365.497,651.473C363.701,651.582 365.297,655.223 364.006,658.296C361.305,664.723 360.007,663.749 359.617,663.379C359.518,663.286 356.617,657.93 356.461,655.503C356.393,654.456 356.626,653.671 356.671,653.518C357.081,652.137 356.659,652.192 355.502,651.428Z" style="fill:rgb(194,169,116);"/>
                                <path d="M293.484,500.536C293.823,500.593 294.162,500.649 294.502,500.706C300.972,499.855 305.021,504.023 305.027,504.539C305.049,506.248 298.009,508.924 295.491,508.621C292.951,508.316 292.948,509.163 293.159,511.512C293.416,514.378 289.418,523.085 287.887,520.196C284.472,513.747 284.602,512.33 285.376,509.494C285.419,509.022 286.293,508.918 286.336,508.446C286.415,507.564 285.893,508.07 283.497,508.412C278.822,509.04 275.478,506.626 273.383,505.63C270.254,504.142 279.21,500.348 281.498,500.447C284.308,500.57 284.97,500.369 284.845,497.496C284.744,495.155 288.089,484.659 290.731,490.37C291.014,490.982 293.505,496.369 293.03,498.481C292.792,499.538 293.242,499.44 293.484,500.536Z" style="fill:rgb(193,167,116);"/>
                                <path d="M136.503,508.489C132.018,506.836 129.336,505.692 129.405,504.487C129.428,504.085 129.449,503.713 133.599,501.707C138.287,499.44 141.893,502.702 141.416,497.502C141.223,495.394 144.096,489.592 144.696,488.718C145.996,486.823 149.963,494.372 149.665,497.505C149.413,500.152 149.858,500.667 152.498,500.452C155.176,500.235 160.926,503.38 161.352,503.665C163.548,505.134 155.205,508.924 152.496,508.671C149.912,508.431 149.428,508.902 149.684,511.492C149.991,514.599 145.967,522.439 144.584,520.41C140.525,514.454 141.999,507.949 141.483,507.937C138.91,507.877 139.04,508.728 136.503,508.489Z" style="fill:rgb(194,169,116);"/>
                                <path d="M343.986,718.891C345.275,718.253 350.64,715.089 353.5,715.297C358.67,715.674 355.435,712.173 357.694,707.591C359.049,704.842 358.02,703.593 360.499,703.489C362.253,703.416 364.853,710.153 364.666,712.508C364.464,715.058 364.894,715.531 367.493,715.317C370.008,715.11 373.724,717.106 376.486,718.514C378.98,719.786 370.548,723.681 367.5,723.495C364.858,723.333 364.47,723.876 364.673,726.496C364.894,729.345 361.109,737.194 359.74,735.221C359.274,734.549 355.782,729.516 356.56,725.507C356.967,723.413 356.509,722.826 354.487,723.337C351.935,723.982 345.132,721.512 343.986,718.891Z" style="fill:rgb(194,168,115);"/>
                                <path d="M285.264,714.496C283.979,708.758 288.193,699.922 290.764,705.352C290.795,705.417 293.831,710.193 293.038,713.494C292.095,717.422 295.729,713.835 301.395,716.715C306.019,719.065 305.497,719.926 305.159,720.156C299.687,723.883 295.378,723.357 294.497,723.25C292.1,723.391 291.876,723.193 291.918,723.395C292.266,725.088 293.127,724.767 293.177,726.503C293.257,729.288 289.434,737.853 287.951,735.135C284.146,728.163 284.847,726.387 285.275,724.486C285.359,724.045 285.986,723.839 286.07,723.398C286.095,723.27 285.96,723.364 284.509,722.908C284.129,723.011 281.276,723.783 279.588,723.197C272.83,720.849 272.817,720.104 272.806,719.485C272.733,715.159 283.476,715.384 284.464,715.404C285.032,715.452 284.912,715.571 285.5,715.62C286.354,715.691 285.431,715.29 285.264,714.496Z" style="fill:rgb(194,168,117);"/>
                                <path d="M69.346,428.313C69.548,427.363 69.935,427.472 69.733,426.486C68.854,422.192 72.376,417.47 72.862,416.818C74.267,414.934 76.7,420.926 77.042,421.697C79.103,426.343 75.938,429.679 79.508,428.845C83.636,427.879 91.535,432.324 89.589,433.572C82.547,438.087 79.359,436.65 78.507,436.554C77.781,436.524 78.111,435.943 77.43,435.914C76.336,435.868 77.477,436.416 77.58,437.514C77.85,440.414 78.641,441.016 75.306,447.385C73.262,451.287 71.929,446.875 70.773,444.376C68.475,439.409 70.382,438.221 70.203,437.512C69.547,434.908 67.55,438.685 60.713,435.091C58.03,433.68 56.642,432.622 59.348,431.261C64.089,428.878 64.057,428.265 68.549,429.002C68.815,428.772 69.081,428.543 69.346,428.313Z" style="fill:rgb(196,170,119);"/>
                                <path d="M506.855,715.542C507.719,715.541 507.683,715.757 508.491,715.541C512.009,714.601 520.11,717.503 520.055,719.469C519.95,723.17 517.895,721.226 514.588,722.706C513.085,723.379 513.108,723.076 508.47,722.967C506.496,722.921 510.098,725.151 505.183,734.308C503.23,737.947 501.138,731.737 500.938,731.3C498.481,725.945 502.4,722.423 498.516,723.217C494.264,724.087 491.935,722.191 489.25,720.918C485.909,719.334 488.298,718.21 491.591,716.691C497.002,714.193 499.808,717.427 499.83,713.498C499.88,704.907 503.879,701.958 505.289,704.627C509.634,712.857 507.39,713.936 506.855,715.542Z" style="fill:rgb(195,169,117);"/>
                                <path d="M356.28,428.312C356.694,422.245 359.499,413.143 362.286,418.626C362.584,419.212 364.979,423.924 364.577,426.506C364.275,428.446 365.409,428.914 365.483,429.128C370.306,428.113 370.248,429.052 374.73,431.13C378.692,432.967 375.503,434.187 371.359,436.18C368.282,437.66 364.423,435.591 364.499,438.5C364.564,441 365.235,441.203 362.13,447.278C360.563,450.343 359.423,448.429 357.952,445.27C355.363,439.707 359.029,436.005 354.524,436.777C350.157,437.526 342.932,433.24 344.764,431.832C349.796,427.967 354.658,428.929 355.53,429.102C355.78,428.839 356.03,428.576 356.28,428.312Z" style="fill:rgb(195,169,117);"/>
                                <path d="M499.379,428.357C499.575,427.383 499.946,427.488 499.755,426.489C499.32,424.216 501.962,418.963 502.268,418.354C503.251,416.399 504.058,415.788 505.15,417.718C508.9,424.345 506.976,426.575 508.387,428.758C508.762,428.782 509.136,428.805 509.51,428.829C516.415,428.244 520.949,432.849 519.637,433.616C512.361,437.867 510.741,436.827 508.514,436.62C507.781,436.546 508.206,435.919 507.423,435.839C506.226,435.718 507.488,436.349 507.639,437.532C507.736,438.448 508.237,443.169 504.606,448.636C503.25,450.678 498.864,442.476 499.886,438.511C500.859,434.733 497.493,438.12 492.689,436.082C486.642,433.517 487.565,432.319 487.876,431.916C489.371,429.977 494.878,428.851 495.528,428.718C496.733,428.472 496.687,428.689 498.543,429.006C498.822,428.79 499.1,428.573 499.379,428.357Z" style="fill:rgb(195,170,118);"/>
                                <path d="M428.314,714.485C428.234,713.574 427.569,705.997 431.503,703.505C433.284,702.377 436.802,710.08 436.109,713.494C435.466,716.667 442.27,714.283 448.308,718.676C449.767,719.738 442.398,723.945 438.505,723.421C437.351,723.265 436.947,722.482 436.59,723.634C436.564,723.72 436.59,723.634 435.843,724.474C436.008,725.339 436.935,730.191 433.078,735.131C431.406,737.273 426.676,728.141 428.373,724.494C428.77,723.641 429.4,723.392 428.5,723.096C428.182,722.991 427.831,723.02 427.513,722.916C426.586,723.17 421.739,724.5 415.82,720.181C414.362,719.117 421.673,714.945 425.509,715.347C426.513,715.452 426.411,715.389 427.479,715.438C428.035,715.486 427.924,715.567 428.5,715.617C429.317,715.688 428.445,715.282 428.314,714.485Z" style="fill:rgb(195,169,117);"/>
                                <path d="M69.511,507.969C67.563,508.589 66.294,509.473 61.611,507.252C56.743,504.943 57.446,504.036 57.757,503.76C58.371,503.215 62.21,499.809 67.498,500.522C71.624,501.079 68.527,497.9 70.932,492.706C71.329,491.85 73.265,486.025 75.203,489.68C79.412,497.614 75.669,501.006 79.509,500.644C80.388,500.561 84.807,500.143 90.059,503.9C91.481,504.916 83.682,508.972 80.491,508.659C77.982,508.413 77.592,508.953 77.852,511.483C78.047,513.371 74.932,524.695 72.093,518.732C71.768,518.05 68.689,511.584 70.204,509.478C70.506,509.059 71.208,508.923 71.341,508.423C71.38,508.278 71.212,508.391 69.511,507.969Z" style="fill:rgb(194,168,118);"/>
                                <path d="M68.511,643.733C68.804,643.601 69.097,643.47 69.39,643.338C69.593,642.36 69.996,642.469 69.774,641.484C69.161,638.759 72.844,628.421 75.154,632.714C79.536,640.859 76.219,642.389 78.446,643.694C78.752,643.874 79.203,643.479 79.508,643.659C84.259,643.225 85.488,644.796 89.393,646.632L89.748,647.454C89.575,647.66 90.252,647.984 90.079,648.19C88.34,650.26 83.177,651.501 82.531,651.656C81.017,652.02 77.837,651.006 77.519,652.502C77.121,654.367 79.158,654.805 75.231,662.343C73.325,666.003 68.524,658.867 70.211,652.495C70.314,651.982 71.281,651.964 71.384,651.451C71.651,650.117 70.775,651.496 69.464,651.594C61.587,652.172 55.142,648.214 59.285,646.165C63.738,643.962 63.617,643.062 68.511,643.733Z" style="fill:rgb(195,169,118);"/>
                                <path d="M427.481,436.605C425.001,436.917 423.408,437.741 416.351,433.624C414.324,432.442 421.981,427.878 426.515,428.846C429.674,429.519 426.905,425.627 428.867,421.672C431.714,415.932 432.742,416.522 433.034,416.934C433.499,417.589 436.751,422.168 436.171,426.477C435.92,428.339 435.592,429.306 437.474,428.906C442.044,427.937 450.863,432.072 447.246,434.08C438.311,439.041 436.381,435.499 435.836,437.521C435.765,437.784 437.181,439.987 435.143,444.33C433.451,447.937 432.073,450.489 430.245,446.651C428.144,442.242 427.47,442.274 428.318,437.526C428.475,436.226 429.811,435.557 428.542,435.668C428.072,435.709 427.952,436.564 427.481,436.605Z" style="fill:rgb(196,170,118);"/>
                                <path d="M376.399,503.612L376.672,504.485C376.507,504.67 377.198,504.952 377.032,505.137C377.004,505.169 370.351,508.851 367.494,508.647C364.902,508.463 364.37,508.88 364.664,511.492C364.977,514.268 361.119,522.545 359.647,520.347C354.515,512.682 358.542,507.583 355.517,508.273C352.409,508.983 351.815,508.829 345.761,506.027C341.164,503.899 351.185,500.311 353.5,500.474C356.193,500.664 356.68,500.21 356.472,497.501C356.322,495.544 359.437,484.708 362.378,490.572C362.64,491.095 364.874,495.548 364.688,497.507C364.439,500.129 364.852,500.669 367.499,500.481C370.532,500.266 376.301,503.567 376.399,503.612Z" style="fill:rgb(194,168,116);"/>
                                <path d="M499.527,507.926C498.61,508.235 494.095,509.756 487.709,505.322C486.024,504.151 493.899,500.303 496.5,500.451C499.222,500.605 499.785,500.293 499.688,497.498C499.6,494.981 502.987,485.479 505.245,489.661C509.565,497.662 505.827,501.073 509.511,500.662C515.166,500.033 519.882,503.632 519.88,504.473C519.874,506.377 512.518,508.802 510.493,508.632C506.077,508.263 508.854,511.208 507.105,515.345C506.9,515.831 504.153,522.329 502.748,520.295C502.242,519.563 497.593,512.831 500.193,509.478C500.519,509.058 501.288,508.974 501.42,508.459C501.459,508.307 501.287,508.422 499.527,507.926Z" style="fill:rgb(194,169,116);"/>
                                <path d="M435.832,499.521C436.627,500.352 436.349,500.93 437.494,500.723C443.286,499.679 449.379,504.301 448.273,505.294C448.164,505.392 442.093,508.657 439.502,508.677C438.039,508.689 438.148,508.495 436.484,507.98C434.795,508.398 434.632,508.284 434.667,508.429C434.787,508.93 435.67,508.988 435.79,509.488C437.293,516.528 432.338,521.078 431.489,520.519C427.949,518.187 428.337,510.414 428.383,509.5C428.426,509.07 429.069,508.858 429.112,508.428C429.133,508.22 428.993,508.317 426.497,508.406C425.61,508.508 420.842,509.054 415.802,505.229C415.582,505.062 416.125,504.744 416.131,504.468C416.234,500.097 418.507,502.168 422.583,500.779C424.538,500.112 424.498,500.451 426.498,500.655C426.835,500.611 427.172,500.566 427.509,500.522C427.572,500.091 428.258,499.928 428.321,499.497C428.689,496.957 427.273,496.662 430.02,491.222C430.801,489.674 431.828,486.355 433.794,490.321C436.108,494.991 436.719,495.274 435.832,499.521Z" style="fill:rgb(195,169,116);"/>
                                <path d="M221.268,498.486C221.863,500.886 221.351,500.969 221.524,501.087C221.789,501.268 221.608,500.003 225.497,500.523C226.165,500.612 230.734,501.223 233.286,503.732C233.706,504.145 234.508,505.592 227.36,508.098C224.152,509.223 223.711,507.592 220.854,509.473C221.072,510.335 222.282,515.133 218.258,520.282C216.785,522.168 212.006,514.398 213.647,509.494C214.874,505.828 211.394,509.698 207.582,508.259C200.12,505.441 200.415,504.273 200.947,503.929C209.085,498.661 213.734,503.087 213.229,497.504C212.963,494.561 216.96,485.816 218.572,489.449C221.147,495.253 221.419,495.217 221.268,498.486Z" style="fill:rgb(194,169,117);"/>
                                <path d="M212.495,436.561C210.448,436.803 209.845,438.071 202.631,434.276C198.243,431.967 207.831,428.087 211.498,428.811C215.076,429.518 211.441,425.97 215.984,417.802C218.03,414.124 221.789,423.148 221.289,426.486C220.658,430.69 223.597,427.96 227.584,429.285C228.053,429.441 232.384,430.879 233.185,431.883C233.666,432.485 234.056,433.412 228.292,436.051C223.624,438.188 220.426,434.885 221.21,438.506C222.114,442.681 217.722,450.547 216.469,448.535C211.985,441.333 213.5,437.64 213.518,437.496C213.553,436.428 214.729,435.841 213.57,435.894C212.879,435.926 213.233,436.527 212.495,436.561Z" style="fill:rgb(196,170,117);"/>
                                <path d="M146.125,559.986C147.673,563.047 150.093,565.79 149.479,570.498C149.054,573.761 152.767,571.532 155.454,572.645C155.984,572.864 163.202,575.854 161.138,577.027C152.429,581.977 149.327,578.383 149.448,581.502C149.574,584.742 150.041,584.899 146.533,591.53C144.962,594.499 141.011,585.433 141.463,582.496C142.006,578.96 139.938,580.355 136.431,579.795C135.735,579.684 126.996,576.874 130.703,574.828C138.754,570.382 141.974,573.971 141.622,570.491C141.531,569.581 140.783,562.181 146.125,559.986Z" style="fill:rgb(194,168,118);"/>
                                <path d="M352.472,572.257C355.486,572.525 356.877,572.687 356.649,570.488C356.023,564.455 360.283,557.979 362.121,561.727C364.148,565.861 364.841,567.516 364.679,569.51C364.473,572.045 364.954,572.498 367.489,572.24C370.345,571.949 376.2,575.204 376.417,575.547C377.192,576.767 371.849,579.032 371.39,579.227C367.779,580.757 365.518,579.081 364.64,580.559C363.382,582.678 365.784,583.411 362.176,590.305C359.463,595.489 356.178,584.979 356.521,582.502C357.231,577.36 352.725,581.68 345.643,577.296C341.945,575.006 351.815,572.429 352.472,572.257Z" style="fill:rgb(193,168,117);"/>
                                <path d="M285.278,571.493C285.092,570.63 284.203,566.491 287.869,560.773C289.921,557.572 293.038,566.81 293.133,568.522C293.293,571.38 291.832,572.547 291.831,572.563C291.697,573.751 292.369,572.822 293.497,572.51C294.344,572.276 298.102,571.235 304.203,574.931C306.269,576.182 304.856,576.821 302.705,577.845C294.634,581.688 294.216,579.383 293.546,579.714C292.918,580.024 293.468,586.12 290.221,591.315C288.509,594.053 286.452,588.596 285.885,587.329C283.563,582.144 286.975,579.241 283.514,579.715C279.181,580.308 279.228,579.732 275.288,577.855C269.643,575.165 277.755,571.856 284.487,572.457C285.798,572.513 286.577,573.843 286.378,572.538C286.301,572.038 285.354,571.993 285.278,571.493Z" style="fill:rgb(194,168,118);"/>
                                <path d="M77.559,571.494C77.504,572.54 76.399,573.048 77.475,573.078C78.148,573.096 77.861,572.52 78.494,572.537C83.758,571.987 83.766,572.281 88.38,574.706C92.633,576.941 83.058,580.286 80.475,579.96C77.241,579.552 77.714,578.688 77.452,578.656C76.067,578.486 77.171,579.248 77.654,580.537C78.667,583.243 75.697,589.682 75.357,590.419C72.916,595.712 68.948,585.231 69.904,581.5C70.728,578.284 67.155,580.861 63.519,579.447C49.852,574.135 66.897,572.199 67.518,572.285C69.812,572.599 69.841,571.825 69.682,569.491C69.507,566.913 72.481,559.61 74.239,559.963C78.578,560.834 77.651,570.538 77.559,571.494Z" style="fill:rgb(195,169,118);"/>
                                <path d="M435.832,571.496C435.71,572.037 434.628,571.961 434.506,572.503C434.182,573.936 435.147,572.438 436.584,572.294C444.224,572.235 451.388,575.243 445.729,577.907C441.67,579.819 441.685,580.057 437.487,579.707C434.382,579.449 437.565,582.051 435.169,587.348C434.763,588.245 432.632,593.956 430.879,591.237C426.617,584.63 429.432,579.363 426.521,579.773C422.31,580.366 411.544,577.298 419.243,574.006C419.86,573.743 424.917,571.581 427.479,572.424C428.639,572.806 429.38,573.813 429.173,572.565C429.092,572.075 427.515,571.964 428.139,567.432C428.383,565.662 431.554,558.496 433.192,560.748C436.937,565.896 436.003,570.627 435.832,571.496Z" style="fill:rgb(195,169,118);"/>
                                <path d="M508.517,579.679C507.687,579.579 508.362,578.666 507.477,578.56C507.385,578.549 506.659,578.461 506.741,579.465C506.779,579.929 507.602,580.071 507.64,580.535C507.728,581.409 508.221,586.282 505.059,591.212C502.937,594.519 498.977,585.532 499.896,581.492C500.69,578.002 497.544,581.267 492.658,579.128C491.032,578.417 486.016,576.503 488.768,574.908C495.968,570.732 500.079,574.71 499.715,569.49C499.537,566.946 502.939,556.918 505.298,561.618C505.661,562.342 508.542,568.082 507.524,571.498C506.392,575.298 509.941,571.178 514.366,572.859C518.394,574.388 520.847,576.101 519.216,577.119C514.237,580.225 509.393,579.762 508.517,579.679Z" style="fill:rgb(195,169,119);"/>
                                <path d="M212.491,579.648C211.089,579.801 208.824,580.95 201.783,577.121C199.522,575.893 206.728,571.972 210.514,572.257C212.979,572.442 213.476,572.053 213.243,569.513C213.034,567.232 215.517,562.275 215.812,561.686C218.155,557.01 221.583,567.057 221.352,569.491C221.095,572.203 219.352,572.35 219.347,572.379C219.297,572.627 219.253,573.655 222.501,572.563C226.234,571.307 235.49,575.209 232.313,577.232C225.819,581.368 220.479,578.439 221.178,581.497C222.143,585.72 217.837,593.83 216.435,591.576C212.894,585.879 213.375,581.419 213.474,580.507C213.574,578.964 213.714,578.831 213.582,578.848C212.847,578.94 213.274,579.549 212.491,579.648Z" style="fill:rgb(195,169,118);"/>
                                <path d="M249.696,688.494C247.422,685.319 246.236,687.763 242.672,686.129C239.402,684.629 237.513,683.406 240.682,681.844C247.143,678.66 249.254,681.488 249.708,678.503C250.571,672.831 248.919,671.879 252.552,669.596C255.521,667.73 256.93,680.03 257.518,680.175C257.526,680.177 259.997,679.312 263.346,680.846C266.691,682.377 268.606,683.61 265.366,685.252C259.159,688.397 256.641,685.205 256.5,688.5C256.467,689.279 256.028,699.534 252.55,697.408C249.022,695.251 249.621,689.239 249.696,688.494Z" style="fill:rgb(68,39,9);"/>
                                <path d="M554.075,684.128C551.631,685.384 548.637,687.58 544.399,687.048C541.144,686.64 544.158,689.15 542.823,692.623C537.668,706.032 536.063,687.08 535.464,686.835C535.146,686.705 532.982,687.773 529.603,686.272C524.516,684.011 525.372,682.969 525.688,682.685C526.001,682.402 531.35,679.467 534.549,680C537.955,680.568 534.099,676.964 538.777,669.751C540.021,667.833 544.032,674.487 543.207,678.514C542.579,681.578 545.268,678.78 550.297,680.973C552.854,682.087 553.985,681.301 554.075,684.128Z" style="fill:rgb(67,38,8);"/>
                                <path d="M403.446,679.928C420.61,684.397 403.08,687.174 402.497,687.156C400.343,687.087 399.491,687.006 399.783,689.482C400.14,692.507 396.896,700.288 394.8,696.319C391.086,689.287 393.685,687.604 391.603,687.137C391.465,687.106 389.022,687.568 385.738,686.013C376.383,681.583 390.314,679.9 390.52,679.926C391.883,680.096 393.222,680.889 392.748,678.51C392.339,676.459 394.73,662.422 399.392,674.537C400.528,677.489 398.534,680.477 401.459,679.987C401.616,679.961 401.606,679.983 403.446,679.928Z" style="fill:rgb(68,39,11);"/>
                                <path d="M399.616,535.501C400.713,537.603 401.198,536.793 402.501,536.748C405.185,536.656 410.269,539.692 410.271,539.7C411.15,542.472 409.337,541.623 406.707,542.908C402.565,544.931 399.391,541.927 399.8,546.486C400.053,549.307 397.042,557.317 394.839,553.292C391.174,546.595 394.806,543.669 391.509,543.815C390.774,543.847 386.73,544.026 382.66,541.32C381.775,540.731 384.78,536.003 391.546,537.066C393.645,534.396 392.005,533.578 393.413,530.464C393.589,530.075 396.016,524.708 397.223,526.734C400.586,532.376 399.626,535.394 399.616,535.501Z" style="fill:rgb(67,38,9);"/>
                                <path d="M112.89,679.49C114.153,680.076 114.1,680.166 115.504,679.966C118.58,679.529 125.339,683.195 124.097,684.119C119.55,687.499 113.103,686.908 112.925,687.538C112.488,689.087 114.725,689.567 111.129,696.294C109.237,699.833 107.131,694.005 106.834,693.345C104.917,689.09 107.673,686.442 104.533,686.915C99.007,687.748 94.451,683.505 95.678,682.677C101.799,678.55 106.555,681.421 106.255,678.522C105.586,672.061 109.551,667.854 111.11,670.721C114.529,677.011 113.065,678.704 112.89,679.49Z" style="fill:rgb(67,37,9);"/>
                                <path d="M530.415,537.289C532.462,536.765 532.365,536.38 534.511,536.859C537.418,537.508 535.161,531.396 538.753,526.715C540.15,524.895 542.798,531.19 543,531.671C544.366,534.918 540.984,537.702 544.457,537.097C545.191,536.969 549.171,536.275 553.427,539.572C553.774,539.841 554.78,540.957 549.426,543.327C546.307,544.708 544.234,543.465 543.569,543.781C541.728,544.659 544.974,546.107 541.122,553.281C539.477,556.344 535.647,551.354 536.229,545.48C536.539,542.356 534.498,544.515 531.419,543.801C530.934,543.688 526.797,542.728 525.751,541.237C523.552,538.102 527.45,539.799 530.415,537.289Z" style="fill:rgb(66,36,7);"/>
                                <path d="M248.502,543.806C246.796,544.042 245.963,544.777 240.724,542.066C236.294,539.775 242.148,538.036 243.473,537.44C246.438,536.106 248.645,537.383 249.402,537.038C251.394,536.129 247.864,534.576 251.971,526.831C253.18,524.552 255.842,530.301 256.03,530.708C257.725,534.368 255.454,536.832 259.5,536.742C262.548,536.674 268.361,540.047 267.178,541.174C263.342,544.826 258.293,543.859 257.507,543.709C256.589,543.596 257.443,542.541 256.545,542.431C256.437,542.418 255.57,542.311 255.669,543.483C255.712,543.989 256.684,544.073 256.726,544.578C256.732,545.412 256.788,553.877 253.492,554.481C250.334,555.059 250.343,546.442 248.502,543.806Z" style="fill:rgb(67,38,7);"/>
                                <path d="M177.481,614.973C176.661,615.075 171.342,615.737 167.446,612.547C166.829,612.042 165.37,608.267 176.503,608.379C179.328,608.407 176.656,606.016 178.718,601.593C179.655,599.585 181.006,595.151 183.196,599.667C184.563,602.484 185.326,603.743 184.862,606.533C184.319,609.792 187.485,606.523 195.249,610.811C196.413,611.454 193.705,615.656 186.483,615.234C184.008,615.378 183.953,615.226 183.815,615.389C183.29,616.009 188.359,616.825 182.441,625.447C180.92,627.663 177.319,620.445 177.836,617.517C178.075,616.167 178.969,616.746 179.424,615.459C179.424,615.459 177.636,615.012 177.481,614.973Z" style="fill:rgb(67,38,9);"/>
                                <path d="M114.484,543.763C113.576,544.183 112.776,543.845 113.159,545.495C114.101,549.557 109.983,556.011 108.81,554.207C104.167,547.068 107.788,543.32 104.524,543.844C99.71,544.616 94.815,540.869 95.679,539.665C95.711,539.62 99.045,537.92 100.426,537.316C103.664,535.901 106.483,538.342 106.315,535.516C105.779,526.505 110.117,525.889 111.133,527.716C114.875,534.443 111.271,536.187 113.547,537.135C115.063,537.766 115.594,535.379 122.281,538.896C125.526,540.602 120.741,544.767 114.484,543.763Z" style="fill:rgb(65,36,7);"/>
                                <path d="M34.592,616.497C34.373,616.369 34.549,614.896 32.494,615.261C29.069,615.87 21.919,612.136 23.87,610.93C24.546,610.512 30.028,607.121 33.498,608.476C34.658,608.929 35.209,609.719 35.22,608.528C35.222,608.276 34.581,608.459 34.346,605.506C34.172,603.312 37.106,595.033 39.224,598.691C43.986,606.914 39.404,609.396 41.445,609.297C41.628,609.289 41.174,608.575 43.482,608.261C46.268,607.882 55.787,610.844 50.409,613.334C46.986,614.918 47.187,615.912 43.502,615.261C39.665,614.583 42.777,617.85 40.1,623.286C38.086,627.373 36.977,625.529 36.831,625.26C33.569,619.272 34.533,617.007 34.592,616.497Z" style="fill:rgb(66,37,9);"/>
                                <path d="M329.472,471.972C329.216,472.219 328.96,472.467 328.704,472.715C328.472,473.648 328.089,473.525 328.258,474.511C328.377,475.211 326.391,489.711 321.44,477.522C320.208,474.489 322.643,471.519 319.527,472.172C316.658,472.772 306.797,469.678 312.267,467.111C315.755,465.474 315.632,464.966 319.509,465.314C322.589,465.591 319.421,461.58 323.86,454.882C325.008,453.151 328.979,459.589 328.159,463.503C327.498,466.656 333.36,464.094 338.345,467.69C340.812,469.47 334.099,471.721 333.62,471.882C331.227,472.685 329.603,471.992 329.472,471.972Z" style="fill:rgb(67,38,8);"/>
                                <path d="M471.551,607.487C471.499,608.794 470.128,609.524 471.474,609.428C471.959,609.393 472.026,608.438 472.51,608.403C473.823,608.335 476.337,607.602 482.093,610.965C483.468,611.768 481.389,612.942 481.233,613.03C476.408,615.753 474.131,615.358 473.497,615.247C470.41,614.711 472.191,618.004 471.332,620.449C467.201,632.209 464.166,619.913 464.444,617.495C464.858,613.899 462.031,615.767 459.585,615.144C446.923,611.916 458.97,608.594 459.486,608.452C462.669,607.574 465.278,610.729 464.521,607.505C463.687,603.949 466.397,599.302 466.765,598.672C468.227,596.166 472.006,600.428 471.551,607.487Z" style="fill:rgb(67,38,9);"/>
                                <path d="M34.59,473.498C32.171,470.471 31.041,472.999 27.58,471.328C25.427,470.288 21.318,468.983 25.736,466.951C26.31,466.687 31.14,464.466 33.498,465.454C34.605,465.918 35.155,466.695 35.143,465.519C35.138,465.084 33.181,463.435 35.338,458.427C35.493,458.065 37.284,453.907 38.44,454.606C39.516,455.257 42.265,461.477 41.535,464.49C41.233,465.735 40.139,466.44 41.448,466.346C42.218,466.291 41.859,465.285 44.499,465.116C46.581,464.983 54.345,468.166 51.63,469.63C51.029,469.954 45.934,472.702 43.502,472.24C39.969,471.568 43.323,475.361 39.062,482.178C38.041,483.813 33.768,480.163 34.59,473.498Z" style="fill:rgb(66,37,9);"/>
                                <path d="M464.57,463.495C464.482,462.283 463.954,461.795 465.391,458.449C469.072,449.878 471.816,459.045 471.59,464.474C471.531,465.857 470.114,466.626 471.503,466.506C472.006,466.463 472.007,465.417 472.51,465.374C473.635,465.312 476.351,464.508 482.086,467.922C482.287,468.042 483.232,468.736 480.377,470.297C473.513,474.048 473.041,471.576 472.496,471.918C471.216,472.718 470.42,491.593 464.779,477.411C463.644,474.56 465.83,471.592 462.497,472.221C460.193,472.656 453.809,470.332 453.934,468.554C453.953,468.285 457.15,464.464 463.499,465.442C463.974,465.457 464.057,466.409 464.532,466.424C464.766,466.431 465.367,466.45 464.57,463.495Z" style="fill:rgb(67,38,8);"/>
                                <path d="M426.498,643.675C426.944,644.073 427.087,643.628 427.51,644.005C427.722,644.193 427.684,644.201 429.862,646.654C429.614,651.293 434.662,651.228 434.261,646.609C435.771,644.932 435.734,645.031 437.498,643.749C443.982,642.833 448.164,647.252 448.181,647.546C448.423,651.92 438.41,651.557 437.499,651.524C434.47,651.414 437.631,653.895 435.085,659.292C434.941,659.597 432.662,666.134 430.662,662.397C426.954,655.466 428.826,655.01 428.429,652.505C428.088,650.351 425.711,653.237 420.445,650.611C415.167,647.979 415.558,647.224 415.899,646.901C420.006,643.014 425.617,643.585 426.498,643.675Z" style="fill:rgb(196,170,119);"/>
                                <path d="M2.541,632.494C3.624,634.286 3.616,634.275 3.711,634.429C3.919,634.77 4.084,634.333 4.287,634.607C7.885,639.468 4.107,644.759 7.506,643.725C12.359,642.248 12.158,643.974 16.689,646.217C21.482,648.59 11.079,652.122 8.478,651.743C4.988,651.234 5.948,652.939 6.189,654.516C6.659,657.591 3.22,661.783 2.452,663.493C2.209,661.343 2.075,661.453 1.218,659.499C1.238,655.314 0.567,652.99 2.36,649.441C4.021,648.575 5.12,648.943 4.425,647.506C4.356,647.362 4.411,647.444 2.275,645.615C0.742,643.362 1.255,639.092 1.223,635.498C2.084,634.048 2.21,634.196 2.541,632.494Z" style="fill:rgb(195,170,118);fill-opacity:0.95;"/>
                                <path d="M2.43,703.509C3.456,705.736 6.386,708.729 6.215,712.492C6.14,714.117 5.056,715.849 8.487,715.36C12.356,714.81 19.598,718.934 18.259,720.233C15.962,722.46 11.147,723.296 10.486,723.411C7.493,723.93 5.485,721.429 5.77,724.477C6.281,729.938 5.389,729.804 2.56,734.51C2.212,732.8 2.09,732.949 1.227,731.5C1.25,728.654 0.694,723.812 2.235,721.379C4.748,720.083 4.833,718.871 2.303,717.58C0.077,712.911 1.242,712.742 1.227,707.497C2.072,705.513 2.199,705.62 2.43,703.509Z" style="fill:rgb(195,169,119);fill-opacity:0.95;"/>
                                <path d="M2.489,417.501C3.57,419.3 3.563,419.289 3.657,419.444C3.821,419.714 4.021,419.367 4.218,419.64C8.023,424.932 3.992,429.813 7.492,428.936C11.513,427.929 15.777,430.881 16.628,431.29C19.34,432.592 17.851,433.909 13.274,436.021C8.542,438.205 5.209,434.701 6.029,438.504C6.995,442.981 3.263,447.071 2.489,448.498C2.184,446.339 2.068,446.445 1.228,444.501C1.23,443.897 0.637,437.402 2.335,434.441C4.001,433.622 5.254,434.024 4.407,432.509C4.295,432.309 4.211,432.43 2.221,430.646C-0.451,426.646 1.264,426.262 1.223,421.5C2.011,419.529 2.145,419.671 2.489,417.501Z" style="fill:rgb(195,170,117);fill-opacity:0.95;"/>
                                <path d="M2.491,489.501C3.126,490.508 3.092,490.426 3.707,491.428C3.919,491.772 4.083,491.329 4.288,491.604C7.894,496.454 4.099,501.719 7.505,500.723C8.36,500.473 11.989,499.411 18.197,503.814C18.502,504.03 19.117,504.824 14.728,506.949C8.893,509.774 8.579,507.675 6.488,507.982C6.311,508.008 6.686,508.493 6.509,508.519C4.92,508.429 4.77,508.288 4.8,508.422C4.968,509.179 5.581,508.725 5.75,509.487C7.095,515.724 4.675,515.48 2.449,520.493C2.211,518.374 2.083,518.482 1.229,516.501C1.237,512.242 0.585,509.998 2.317,506.424C4.805,505.113 4.811,503.932 2.286,502.596C0.04,497.857 1.241,497.701 1.226,492.497C2.069,491.033 2.201,491.157 2.491,489.501Z" style="fill:rgb(196,170,120);fill-opacity:0.95;"/>
                                <path d="M2.454,560.506C2.731,561.035 4.751,564.038 5.064,564.713C7.169,569.262 3.502,573.029 8.48,572.282C11.481,571.832 20.252,575.233 17.276,577.176C10.948,581.309 5.347,578.449 6.024,581.496C7.054,586.126 3.238,590.174 2.486,591.498C2.168,589.344 2.051,589.461 1.236,587.501C1.242,585.873 0.683,580.685 2.122,578.308C2.714,577.552 3.754,577.234 4.346,576.478C4.851,575.833 2.493,574.673 2.292,574.574C0.307,570.207 1.319,570.052 1.224,564.499C2.054,562.561 2.197,562.674 2.454,560.506Z" style="fill:rgb(194,169,116);fill-opacity:0.95;"/>
                                <path d="M426.498,643.675C426.784,643.49 427.22,643.698 427.505,643.513C429.71,642.083 426.305,640.563 430.776,632.689C432.025,630.491 432.924,631.456 434.014,633.75C434.289,634.329 436.596,639.184 436.13,641.481C435.822,643.003 436.291,642.861 437.498,643.749C435.734,645.031 435.771,644.932 434.261,646.609C432.191,645.025 431.837,645.02 429.862,646.654C427.684,644.201 427.722,644.193 427.51,644.005C427.087,643.628 426.944,644.073 426.498,643.675Z" style="fill:rgb(192,167,114);"/>
                                <path d="M109.512,615.132C109.068,614.971 104.148,613.186 106.922,609.826C110.325,605.703 117.523,612.843 109.512,615.132Z" style="fill:rgb(197,171,118);"/>
                                <path d="M539.518,615.133C539.076,614.964 534.225,613.106 536.921,609.819C540.33,605.662 547.607,612.898 539.518,615.133Z" style="fill:rgb(197,170,124);"/>
                                <path d="M539.496,465.44C539.959,465.535 544.759,466.51 542.526,470.517C539.942,475.156 531.47,467.962 539.496,465.44Z" style="fill:rgb(197,170,123);"/>
                                <path d="M108.546,465.639C109.019,465.617 114.18,465.372 112.924,469.627C111.409,474.757 101.657,470.434 108.546,465.639Z" style="fill:rgb(197,170,124);"/>
                                <path d="M396.474,615.154C388.035,613.037 396.109,605.6 399.02,609.829C401.283,613.117 396.909,614.969 396.474,615.154Z" style="fill:rgb(195,169,119);"/>
                                <path d="M395.507,465.53C395.989,465.558 401.388,465.863 399.175,470.323C397.152,474.398 388.01,469.911 395.507,465.53Z" style="fill:rgb(195,168,122);"/>
                                <path d="M253.456,615.105C245.181,613.333 252.05,605.96 255.527,609.474C258.733,612.714 253.893,614.907 253.456,615.105Z" style="fill:rgb(195,169,123);"/>
                                <path d="M252.504,465.524C252.98,465.566 258.286,466.027 256.108,470.281C253.952,474.493 244.996,469.806 252.504,465.524Z" style="fill:rgb(196,170,120);"/>
                                <path d="M503.529,507.066C497.988,503.688 503.577,501.153 505.314,502.736C507.764,504.968 506.583,505.839 503.529,507.066Z" style="fill:rgb(66,38,6);"/>
                                <path d="M73.533,716.89C80.266,719.538 74.164,722.515 72.533,721.44C69.29,719.3 73.209,717.074 73.533,716.89Z" style="fill:rgb(67,40,4);"/>
                                <path d="M145.499,716.909C145.848,717.074 151.305,719.642 146.547,721.62C145.203,722.179 139.44,719.898 145.499,716.909Z" style="fill:rgb(64,37,3);"/>
                                <path d="M429.84,720.371C429.821,719.996 429.578,715.115 433.526,717.462C435.162,718.435 434.946,724.737 429.84,720.371Z" style="fill:rgb(68,41,3);"/>
                                <path d="M503.53,716.914C510.306,719.67 504.024,722.543 502.539,721.43C499.601,719.229 503.212,717.102 503.53,716.914Z" style="fill:rgb(63,33,7);"/>
                                <path d="M503.526,435.22C497.807,431.842 503.759,429.66 505.248,430.886C507.827,433.011 506.71,434.049 503.526,435.22Z" style="fill:rgb(65,36,7);"/>
                                <path d="M288.423,502.142C288.763,502.224 292.552,503.14 291.299,505.43C289.603,508.53 283.446,505.932 288.423,502.142Z" style="fill:rgb(67,38,6);"/>
                                <path d="M73.451,502.113C80.045,504.37 74.528,507.8 72.468,506.55C69.089,504.5 73.132,502.288 73.451,502.113Z" style="fill:rgb(65,38,3);"/>
                                <path d="M73.521,435.242C67.873,431.796 73.692,429.645 75.231,430.909C77.826,433.039 76.599,434.028 73.521,435.242Z" style="fill:rgb(66,39,4);"/>
                                <path d="M432.568,502.147C437.495,505.772 431.452,508.516 429.775,505.408C428.606,503.241 432.237,502.239 432.568,502.147Z" style="fill:rgb(66,37,7);"/>
                                <path d="M145.493,502.105C151.607,504.703 146.155,507.543 144.415,506.674C140.138,504.538 145.151,502.261 145.493,502.105Z" style="fill:rgb(63,34,5);"/>
                                <path d="M291.235,720.397C289.02,722.275 288.251,722.878 286.763,720.393C285.292,717.937 291.432,713.772 291.235,720.397Z" style="fill:rgb(65,36,7);"/>
                                <path d="M291.2,646.639C291.705,652.859 286.378,649.534 286.491,647.5C286.735,643.142 290.899,646.403 291.2,646.639Z" style="fill:rgb(67,38,7);"/>
                                <path d="M432.473,435.235C432.116,435.105 427.44,433.394 430.7,430.833C432.124,429.714 437.897,431.773 432.473,435.235Z" style="fill:rgb(65,37,4);"/>
                                <path d="M360.503,716.915C366.794,719.976 360.865,722.181 359.487,721.531C355.223,719.521 360.164,717.083 360.503,716.915Z" style="fill:rgb(65,38,3);"/>
                                <path d="M145.499,430.355C152.702,434.348 144.714,435.143 144.616,435.09C140.873,433.059 145.166,430.55 145.499,430.355Z" style="fill:rgb(65,37,3);"/>
                                <path d="M288.48,430.39C288.809,430.471 292.341,431.333 291.386,433.472C289.798,437.03 283.69,433.608 288.48,430.39Z" style="fill:rgb(65,36,6);"/>
                                <path d="M506.064,646.677C505.666,653.869 501.23,648.637 501.311,647.487C501.632,642.93 505.769,646.428 506.064,646.677Z" style="fill:rgb(65,36,7);"/>
                                <path d="M429.862,646.654C431.837,645.02 432.191,645.025 434.261,646.609C434.662,651.228 429.614,651.293 429.862,646.654Z" style="fill:rgb(65,37,4);"/>
                                <path d="M145.512,650.114C139.518,647.075 145.175,644.958 146.501,645.498C151.323,647.46 145.856,649.957 145.512,650.114Z" style="fill:rgb(64,36,3);"/>
                                <path d="M360.504,435.248C360.208,435.086 357.058,433.361 358.533,431.521C360.549,429.006 366.106,432.52 360.504,435.248Z" style="fill:rgb(68,41,4);"/>
                                <path d="M76.034,646.688C75.667,653.805 71.255,648.7 71.331,647.488C71.622,642.829 75.747,646.437 76.034,646.688Z" style="fill:rgb(65,38,3);"/>
                                <path d="M360.496,502.12C366.562,504.72 361.196,507.505 359.442,506.62C355.322,504.539 360.161,502.277 360.496,502.12Z" style="fill:rgb(65,36,5);"/>
                                <path d="M358.829,649.193C358.695,648.877 357.194,645.32 360.496,645.25C363.647,645.183 364.452,652.235 358.829,649.193Z" style="fill:rgb(66,38,4);"/>
                                <path d="M217.477,716.916C217.795,717.104 221.661,719.401 218.46,721.429C216.868,722.438 211.106,719.564 217.477,716.916Z" style="fill:rgb(65,37,4);"/>
                                <path d="M217.488,435.268C217.151,435.111 213.054,433.199 215.81,430.94C217.191,429.808 223.309,431.769 217.488,435.268Z" style="fill:rgb(65,36,6);"/>
                                <path d="M217.549,502.134C217.845,502.338 221.442,504.809 218.514,506.523C216.508,507.697 211.316,504.333 217.549,502.134Z" style="fill:rgb(68,40,7);"/>
                                <path d="M217.475,650.092C217.14,649.95 213.005,648.199 215.779,645.872C217.48,644.445 222.915,646.929 217.475,650.092Z" style="fill:rgb(66,37,5);"/>
                                <path d="M73.506,578.437C67.291,574.343 74.555,574.041 74.665,574.086C79.24,575.962 73.837,578.294 73.506,578.437Z" style="fill:rgb(67,40,5);"/>
                                <path d="M288.516,578.395C286.38,576.823 285.466,576.228 287.487,574.483C289.691,572.58 294.66,577.161 288.516,578.395Z" style="fill:rgb(66,38,7);"/>
                                <path d="M145.501,578.439C138.994,574.681 145.974,573.916 146.632,574.223C150.392,575.982 145.813,578.283 145.501,578.439Z" style="fill:rgb(68,40,8);"/>
                                <path d="M503.51,578.394C497.371,574.38 504.539,574.059 504.644,574.101C507.863,575.372 506.724,577.028 503.51,578.394Z" style="fill:rgb(66,38,7);"/>
                                <path d="M432.485,578.381C429.118,577.083 427.951,575.191 431.367,574.051C432.943,573.525 434.304,575.074 434.439,575.517C435.033,577.473 434.168,577.249 432.485,578.381Z" style="fill:rgb(67,39,5);"/>
                                <path d="M360.503,578.405C354.05,574.746 360.984,573.906 361.641,574.211C365.417,575.97 360.814,578.251 360.503,578.405Z" style="fill:rgb(69,41,6);"/>
                                <path d="M217.495,578.401C217.175,578.244 212.223,575.823 216.341,574.1C216.562,574.007 223.552,574.539 217.495,578.401Z" style="fill:rgb(65,38,5);"/>
                                <path d="M396.52,685.656C393.456,684.626 392.656,683.143 395.521,681.566C396.978,680.765 398.029,682.434 398.149,682.626C399.266,684.399 398.187,684.377 396.52,685.656Z" style="fill:rgb(192,165,119);"/>
                                <path d="M253.527,685.643C247.366,683.81 252.745,680.716 254.282,681.883C256.345,683.449 255.483,684.041 253.527,685.643Z" style="fill:rgb(191,164,120);"/>
                                <path d="M181.525,470.884C176.744,468.722 181.422,465.257 183.197,467.651C184.548,469.474 183.363,469.506 181.525,470.884Z" style="fill:rgb(193,167,116);"/>
                                <path d="M181.498,609.587C183.822,611.071 184.678,611.837 182.485,613.473C182.015,613.823 175.222,613.241 181.498,609.587Z" style="fill:rgb(194,167,119);"/>
                                <path d="M539.485,685.701C537.761,684.416 536.629,684.441 537.828,682.633C537.953,682.444 539.033,680.816 540.47,681.598C544.34,683.706 539.797,685.573 539.485,685.701Z" style="fill:rgb(194,167,123);"/>
                                <path d="M38.472,609.651C40.436,611.814 41.348,612.938 38.577,613.772C37.2,614.187 36.147,612.77 36.108,612.689C35.06,610.504 36.208,610.57 38.472,609.651Z" style="fill:rgb(194,167,120);"/>
                                <path d="M396.516,538.316C398.59,539.901 399.427,540.566 397.33,542.15C395.964,543.182 390.716,540.508 396.516,538.316Z" style="fill:rgb(192,165,123);"/>
                                <path d="M468.477,466.642C470.503,468.809 471.46,470.047 468.578,470.82C466.94,471.259 466.264,469.846 466.172,469.653C465.145,467.504 466.298,467.592 468.477,466.642Z" style="fill:rgb(190,165,112);"/>
                                <path d="M38.585,470.779C33.601,469.53 37.716,465.457 39.554,467.455C41.024,469.054 40.149,469.297 38.585,470.779Z" style="fill:rgb(194,167,122);"/>
                                <path d="M468.475,609.659C470.499,611.81 471.411,613.036 468.571,613.795C466.963,614.225 466.275,612.842 466.18,612.652C465.11,610.5 466.296,610.587 468.475,609.659Z" style="fill:rgb(191,164,118);"/>
                                <path d="M539.483,538.3C545.219,540.605 539.804,543.037 538.632,542.2C536.441,540.634 537.351,539.943 539.483,538.3Z" style="fill:rgb(194,166,127);"/>
                                <path d="M324.512,609.646C330.995,612.997 324.185,613.918 323.554,613.411C321.516,611.772 322.337,611.12 324.512,609.646Z" style="fill:rgb(192,166,116);"/>
                                <path d="M111.406,541.449C109.473,542.568 108.993,543.238 107.809,541.369C106.697,539.613 111.733,535.21 111.406,541.449Z" style="fill:rgb(194,167,123);"/>
                                <path d="M324.468,470.872C322.747,469.47 321.691,469.463 322.924,467.703C324.599,465.314 328.979,468.786 324.468,470.872Z" style="fill:rgb(192,166,112);"/>
                                <path d="M253.524,538.329C253.78,538.54 257.455,541.574 253.496,542.475C253.125,542.56 247.268,540.375 253.524,538.329Z" style="fill:rgb(192,165,124);"/>
                                <path d="M110.461,681.618C111.503,683.067 112.483,683.033 111.476,684.489C111.34,684.686 110.121,686.448 108.592,685.31C105.946,683.342 107.17,681.921 110.461,681.618Z" style="fill:rgb(195,169,122);"/>
                                <path d="M2.286,502.596C4.811,503.932 4.805,505.113 2.317,506.424L2.286,502.596Z" style="fill:rgb(67,40,5);fill-opacity:0.87;"/>
                                <path d="M2.303,717.58C4.833,718.871 4.748,720.083 2.235,721.379L2.303,717.58Z" style="fill:rgb(69,42,6);fill-opacity:0.87;"/>
                                <path d="M2.275,645.615C4.411,647.444 4.356,647.362 4.425,647.506C5.12,648.943 4.021,648.575 2.36,649.441L2.275,645.615Z" style="fill:rgb(66,38,7);fill-opacity:0.84;"/>
                                <path d="M2.221,430.646C4.211,432.43 4.295,432.309 4.407,432.509C5.254,434.024 4.001,433.622 2.335,434.441C2.297,433.176 2.259,431.911 2.221,430.646Z" style="fill:rgb(67,38,8);fill-opacity:0.84;"/>
                                <path d="M1.228,444.501C2.068,446.445 2.184,446.339 2.489,448.498C2.409,449.166 2.329,449.835 2.249,450.503C1.265,447.595 1.253,447.657 1.228,444.501Z" style="fill:rgb(149,123,89);fill-opacity:0.32;"/>
                                <path d="M2.292,574.574C2.493,574.673 4.851,575.833 4.346,576.478C3.754,577.234 2.714,577.552 2.122,578.308C2.179,577.063 2.236,575.818 2.292,574.574Z" style="fill:rgb(67,39,8);fill-opacity:0.82;"/>
                                <path d="M1.218,659.499C2.075,661.453 2.209,661.343 2.452,663.493C2.385,664.163 2.318,664.832 2.251,665.502C1.279,662.584 1.274,662.657 1.218,659.499Z" style="fill:rgb(148,122,86);fill-opacity:0.33;"/>
                                <path d="M1.236,587.501C2.051,589.461 2.168,589.344 2.486,591.498C2.408,592.166 2.33,592.834 2.251,593.503C1.257,590.564 1.255,590.626 1.236,587.501Z" style="fill:rgb(147,125,86);fill-opacity:0.32;"/>
                                <path d="M2.251,558.498C2.319,559.168 2.387,559.837 2.454,560.506C2.197,562.674 2.054,562.561 1.224,564.499C1.273,561.358 1.272,561.44 2.251,558.498Z" style="fill:rgb(146,122,81);fill-opacity:0.33;"/>
                                <path d="M1.229,516.501C2.083,518.482 2.211,518.374 2.449,520.493C2.383,521.162 2.317,521.832 2.251,522.502C1.279,519.531 1.289,519.596 1.229,516.501Z" style="fill:rgb(143,118,84);fill-opacity:0.33;"/>
                                <path d="M2.25,701.498C2.31,702.168 2.37,702.839 2.43,703.509C2.199,705.62 2.072,705.513 1.227,707.497C1.298,704.412 1.288,704.476 2.25,701.498Z" style="fill:rgb(141,119,79);fill-opacity:0.33;"/>
                                <path d="M2.269,630.501L2.541,632.494C2.21,634.196 2.084,634.048 1.223,635.498C1.311,632.849 1.129,632.847 2.269,630.501Z" style="fill:rgb(160,133,98);fill-opacity:0.31;"/>
                                <path d="M2.268,487.501L2.491,489.501C2.201,491.157 2.069,491.033 1.226,492.497C1.321,489.869 1.138,489.864 2.268,487.501Z" style="fill:rgb(157,135,90);fill-opacity:0.31;"/>
                                <path d="M464.57,463.495C465.367,466.45 464.766,466.431 464.532,466.424C464.057,466.409 463.974,465.457 463.499,465.442C463.716,465.249 463.524,465.163 463.763,464.95C464.428,464.357 464.153,464.247 464.57,463.495Z" style="fill:rgb(132,103,71);"/>
                                <path d="M499.446,651.639C500.87,651.53 501.738,650.075 501.466,651.484C501.466,651.484 499.972,653.356 499.842,653.519C499.71,652.892 499.578,652.266 499.446,651.639Z" style="fill:rgb(142,115,69);"/>
                                <path d="M257.507,543.709L256.726,544.578C256.684,544.073 255.712,543.989 255.669,543.483C255.57,542.311 256.437,542.418 256.545,542.431C257.443,542.541 256.589,543.596 257.507,543.709Z" style="fill:rgb(119,91,52);"/>
                                <path d="M283.497,508.412C285.893,508.07 286.415,507.564 286.336,508.446C286.293,508.918 285.419,509.022 285.376,509.494C285.263,509.362 285.221,509.462 283.497,508.412Z" style="fill:rgb(131,105,56);"/>
                                <path d="M221.616,651.743C221.485,652.335 221.353,652.926 221.221,653.517C219.653,651.637 219.578,651.692 219.528,651.486C219.169,650.024 220.163,651.564 221.616,651.743Z" style="fill:rgb(146,120,71);"/>
                                <path d="M471.59,464.474L472.51,465.374C472.007,465.417 472.006,466.463 471.503,466.506C470.114,466.626 471.531,465.857 471.59,464.474Z" style="fill:rgb(123,94,60);"/>
                                <path d="M435.832,571.496C436.082,571.762 436.333,572.028 436.584,572.294C435.147,572.438 434.182,573.936 434.506,572.503C434.628,571.961 435.71,572.037 435.832,571.496Z" style="fill:rgb(146,118,78);"/>
                                <path d="M508.517,579.679L507.64,580.535C507.602,580.071 506.779,579.929 506.741,579.465C506.659,578.461 507.385,578.549 507.477,578.56C508.362,578.666 507.687,579.579 508.517,579.679Z" style="fill:rgb(145,120,66);"/>
                                <path d="M471.551,607.487L472.51,608.403C472.026,608.438 471.959,609.393 471.474,609.428C470.128,609.524 471.499,608.794 471.551,607.487Z" style="fill:rgb(124,96,59);"/>
                                <path d="M69.464,651.594C70.775,651.496 71.651,650.117 71.384,651.451C71.281,651.964 70.314,651.982 70.211,652.495C69.962,652.195 69.713,651.894 69.464,651.594Z" style="fill:rgb(145,118,71);"/>
                                <path d="M285.278,571.493C285.354,571.993 286.301,572.038 286.378,572.538C286.577,573.843 285.798,572.513 284.487,572.457L285.278,571.493Z" style="fill:rgb(143,117,66);"/>
                                <path d="M427.481,436.605C427.952,436.564 428.072,435.709 428.542,435.668C429.811,435.557 428.475,436.226 428.318,437.526L427.481,436.605Z" style="fill:rgb(144,116,70);"/>
                                <path d="M436.484,507.98C436.257,508.846 436.384,508.827 435.79,509.488C435.67,508.988 434.787,508.93 434.667,508.429C434.632,508.284 434.795,508.398 436.484,507.98Z" style="fill:rgb(136,109,60);"/>
                                <path d="M426.497,508.406C428.993,508.317 429.133,508.22 429.112,508.428C429.069,508.858 428.426,509.07 428.383,509.5C428.283,509.379 428.067,509.401 427.967,509.281C427.364,508.554 427.242,508.85 426.497,508.406Z" style="fill:rgb(129,103,56);"/>
                                <path d="M320.497,614.952C320.635,614.989 322.221,615.413 322.221,615.413C322.161,615.878 321.379,616.028 321.319,616.493C321.045,615.98 320.771,615.466 320.497,614.952Z" style="fill:rgb(131,103,67);"/>
                                <path d="M284.509,722.908C285.96,723.364 286.095,723.27 286.07,723.398C285.986,723.839 285.359,724.045 285.275,724.486C285.02,723.96 284.765,723.434 284.509,722.908Z" style="fill:rgb(130,104,58);"/>
                                <path d="M285.264,714.496C285.431,715.29 286.354,715.691 285.5,715.62C284.912,715.571 285.032,715.452 284.464,715.404C284.73,715.102 284.997,714.799 285.264,714.496Z" style="fill:rgb(143,116,67);"/>
                                <path d="M212.491,579.648C213.274,579.549 212.847,578.94 213.582,578.848C213.714,578.831 213.574,578.964 213.474,580.507C213.146,580.221 212.819,579.934 212.491,579.648Z" style="fill:rgb(138,111,67);"/>
                                <path d="M77.559,571.494L78.494,572.537C77.861,572.52 78.148,573.096 77.475,573.078C76.399,573.048 77.504,572.54 77.559,571.494Z" style="fill:rgb(128,102,51);"/>
                                <path d="M212.495,436.561C213.233,436.527 212.879,435.926 213.57,435.894C214.729,435.841 213.553,436.428 213.518,437.496L212.495,436.561Z" style="fill:rgb(135,109,60);"/>
                                <path d="M428.314,714.485C428.445,715.282 429.317,715.688 428.5,715.617C427.924,715.567 428.035,715.486 427.479,715.438C427.757,715.12 428.036,714.803 428.314,714.485Z" style="fill:rgb(141,115,66);"/>
                                <path d="M6.509,508.519C6.256,508.841 6.003,509.164 5.75,509.487C5.581,508.725 4.968,509.179 4.8,508.422C4.77,508.288 4.92,508.429 6.509,508.519Z" style="fill:rgb(142,115,69);"/>
                                <path d="M78.507,436.554L77.58,437.514C77.477,436.416 76.336,435.868 77.43,435.914C78.111,435.943 77.781,436.524 78.507,436.554Z" style="fill:rgb(137,110,61);"/>
                                <path d="M508.514,436.62L507.639,437.532C507.488,436.349 506.226,435.718 507.423,435.839C508.206,435.919 507.781,436.546 508.514,436.62Z" style="fill:rgb(140,113,70);"/>
                                <path d="M293.515,651.55C293.243,651.87 292.971,652.19 292.699,652.51C292.578,651.837 292.12,652.144 291.991,651.427C291.969,651.306 292.098,651.435 293.515,651.55Z" style="fill:rgb(139,112,64);"/>
                            </g>
                        </g>
                    </g>
                </g>
                <path d="M919.661,750.954C919.661,750.954 941.274,731.784 1050.148,725.506C1050.148,725.506 1144.141,725.74 1178.874,747.708C1178.874,747.708 1222.809,765.816 1234.684,771.16L1234.09,765.222L1228.121,750.954C1228.121,750.954 1204.404,727.521 1172.046,717.131C1172.046,717.131 1094.269,695.618 1056.864,698.953C1056.864,698.953 996.304,699.616 984.133,704.663C984.133,704.663 934.905,714.563 928.274,724.953L919.661,750.954Z" style="fill:rgb(193,167,116);"/>
                <g>
                    <path d="M768.186,844.043C768.186,844.043 839.534,784.546 1045.805,776.5C1045.805,776.5 1188.844,773.242 1229.811,799.069C1229.811,799.069 1305.065,819.997 1356.274,852.949C1356.274,852.949 1207.324,715.91 1044.125,726.041C1044.125,726.041 937.032,731.429 919.042,754.584C919.042,754.584 782.978,823.96 768.186,844.043Z" style="fill:none;stroke:black;stroke-width:4.17px;"/>
                    <path d="M919.042,754.584C919.042,754.584 940.416,684.584 944.157,671.225C944.157,671.225 950.035,650.92 958.05,647.714C958.05,647.714 1071.065,590.739 1199.576,660.538C1199.576,660.538 1229.811,755.831 1237.092,772.307" style="fill:none;stroke:black;stroke-width:4.17px;"/>
                    <path d="M928.274,724.253C928.274,724.253 959.547,699.819 1040.463,699.055C1040.463,699.055 1173.096,694.234 1228.121,750.954" style="fill:none;stroke:black;stroke-width:4.17px;"/>
                </g>
            </g>
        </g>
    </g>
</svg>
