<?xml version="1.0" encoding="UTF-8" standalone="no"?>
<svg width="100%" height="100%" viewBox="0 0 638 356" version="1.1" xmlns="http://www.w3.org/2000/svg" xmlns:xlink="http://www.w3.org/1999/xlink" xml:space="preserve" xmlns:serif="http://www.serif.com/" style="fill-rule:evenodd;clip-rule:evenodd;stroke-linecap:round;stroke-linejoin:round;stroke-miterlimit:1.5;">
    <g transform="matrix(1,0,0,1,-752.505494,-623.719812)">
        <g>
            <g id="buttom">
                <path d="M915.462,789.24C915.462,789.24 551.77,860.876 923.143,961.234C923.143,961.234 1019.983,974.919 1055.013,975.035C1055.013,975.035 1138.134,979.191 1165.445,976.875C1165.445,976.875 1228.676,976.339 1237.879,973.073C1237.879,973.073 1308.829,956.152 1322.781,949.325C1322.781,949.325 1363.451,933.591 1370.873,924.685C1370.873,924.685 1399.371,900.639 1383.341,880.453C1383.341,880.453 1366.716,854.626 1343.858,845.72C1343.858,845.72 1297.251,820.487 1289.83,819.3C1289.83,819.3 1232.832,800.894 1228.379,798.816C1228.379,798.816 1188.897,784.567 1177.022,783.676C1177.022,783.676 1109.041,774.074 1077.574,776.5C1077.574,776.5 998.906,779.817 989.11,781.598C989.11,781.598 918.701,787.976 915.462,789.24Z" style="fill:rgb(151,80,23);"/>
                <path d="M923.511,961.455C923.511,961.455 549.657,872.563 914.294,789.595C914.294,789.595 1131.984,754.719 1230.171,798.802C1230.171,798.802 1580.17,898.436 1237.518,973.134C1237.518,973.134 1083.739,986.958 923.511,961.455Z" style="fill:none;stroke:black;stroke-width:4.17px;"/>
            </g>
            <g id="top">
                <path d="M768.186,843.62C768.186,843.62 801.641,819.574 862.023,803.009C862.023,803.009 942.977,784.04 956.336,783.238C956.336,783.238 1041.831,776.025 1067.213,776.025C1067.213,776.025 1144.961,779.498 1170.075,782.704C1170.075,782.704 1218.701,789.143 1229.602,798.975C1229.602,798.975 1286.457,817.784 1296.075,822.059C1296.075,822.059 1349.51,847.494 1353.998,850.486C1353.998,850.486 1312.747,816.288 1305.052,812.654C1305.052,812.654 1242.017,774.493 1237.092,772.307C1237.092,772.307 1216.777,710.059 1214.64,705.785C1214.64,705.785 1201.388,661.54 1199.678,659.83C1199.678,659.83 1152.014,639.311 1141.114,636.533C1141.114,636.533 1075.068,618.707 1056.9,625.803C1056.9,625.803 1005.389,629.693 997.053,633.754C997.053,633.754 957.084,646.579 954.946,649.143C954.946,649.143 946.397,662.823 944.687,669.876C944.687,669.876 932.076,714.334 929.297,721.388C929.297,721.388 920.971,751.739 919.042,753.235C919.042,753.235 894.458,766.487 878.855,775.677C878.855,775.677 831.832,801.112 825.206,804.96C825.206,804.96 771.013,836.967 768.186,843.62Z" style="fill:rgb(210,142,88);"/>
                <path d="M919.661,750.954C919.661,750.954 941.274,731.784 1050.148,725.506C1050.148,725.506 1144.141,725.74 1178.874,747.708C1178.874,747.708 1222.809,765.816 1234.684,771.16L1234.09,765.222L1228.121,750.954C1228.121,750.954 1204.404,727.521 1172.046,717.131C1172.046,717.131 1094.269,695.618 1056.864,698.953C1056.864,698.953 996.304,699.616 984.133,704.663C984.133,704.663 934.905,714.563 928.274,724.953L919.661,750.954Z" style="fill:rgb(64,29,0);"/>
                <g>
                    <path d="M768.186,844.043C768.186,844.043 839.534,784.546 1045.805,776.5C1045.805,776.5 1188.844,773.242 1229.811,799.069C1229.811,799.069 1305.065,819.997 1356.274,852.949C1356.274,852.949 1207.324,715.91 1044.125,726.041C1044.125,726.041 937.032,731.429 919.042,754.584C919.042,754.584 782.978,823.96 768.186,844.043Z" style="fill:none;stroke:black;stroke-width:4.17px;"/>
                    <path d="M919.042,754.584C919.042,754.584 940.416,684.584 944.157,671.225C944.157,671.225 950.035,650.92 958.05,647.714C958.05,647.714 1071.065,590.739 1199.576,660.538C1199.576,660.538 1229.811,755.831 1237.092,772.307" style="fill:none;stroke:black;stroke-width:4.17px;"/>
                    <path d="M928.274,724.253C928.274,724.253 959.547,699.819 1040.463,699.055C1040.463,699.055 1173.096,694.234 1228.121,750.954" style="fill:none;stroke:black;stroke-width:4.17px;"/>
                </g>
            </g>
        </g>
    </g>
</svg>
