<svg width="239" height="147" viewBox="0 0 239 147" fill="none" xmlns="http://www.w3.org/2000/svg">
<path d="M10.8764 21.5305C12.2587 21.3494 15.1842 21.4448 16.7026 21.4462L27.8656 21.4479L67.7088 21.4495L173.484 21.4533L208.576 21.462C215.095 21.4705 222.629 21.644 229.064 21.416C229.21 27.905 229.059 35.0031 229.057 41.5402L229.063 81.1702L229.07 115.735L229.071 126.881C229.075 127.856 229.21 132.367 228.982 132.88C223.652 133.607 217.975 133.331 212.598 133.273C210.252 133.249 207.773 133.391 205.462 133.324C204.476 133.362 203.463 133.339 202.472 133.328C193.768 133.579 184.57 133.321 175.807 133.38L88.6788 133.329L39.0886 133.383L22.6732 133.44C20.2399 133.447 17.8848 133.451 15.4553 133.348C14.0477 133.289 12.5626 133.357 11.1609 133.234L10.88 132.819C10.6695 126.241 10.8412 118.852 10.8375 112.199L10.8305 72.1881L10.8307 39.0436C10.8296 33.5996 10.6358 26.8291 10.8764 21.5305ZM14.1097 129.811C18.4491 129.937 22.7993 129.881 27.1417 129.888L50.2438 129.892L120.963 129.898L186.91 129.912L211.774 129.911C216.304 129.904 221.339 129.983 225.822 129.821C225.515 126.088 225.786 121.876 225.705 118.107C225.683 117.031 225.803 115.047 225.712 114.093C225.806 113.494 225.866 112.554 225.951 111.894C225.558 111.868 224.059 112.065 223.51 112.097C221.536 112.198 219.56 112.267 217.583 112.303C216.547 112.32 212.625 112.263 212.018 112.446C211.382 112.325 211.433 112.221 211.225 111.679C211.599 110.219 213.017 110.713 213.818 109.82C215.024 108.478 211.447 98.9714 211.442 96.5047V96.448C208.376 97.2275 204.082 97.1569 200.922 96.7393C200.801 96.7233 200.49 97.1294 200.426 97.2217L200.409 97.3005C199.82 99.9271 198.69 102.69 198.063 105.333C197.808 106.406 196.898 108.573 197.421 109.533C198.498 110.605 201.746 109.612 200.594 111.991L200.511 112.282C199.38 112.655 191.767 112.406 190.113 112.352C188.764 112.389 187.269 112.279 185.901 112.3C183.372 112.339 181.029 112.335 178.504 112.161C178.096 111.199 177.551 110.148 177.337 109.153C176.207 105.976 175.232 103.81 173.989 100.756L170.566 92.1634C170.081 90.9636 168.183 86.007 167.728 85.3017L167.608 85.3185C167.401 86.2552 167.565 91.5774 167.559 92.9406L167.476 102.485C167.462 104.085 167.49 106.212 167.48 107.751C167.459 110.611 169.982 109.956 170.399 111.585C170.277 112.034 170.304 112.247 170.007 112.524C168.997 112.621 167.73 112.442 166.692 112.357C162.681 112.029 158.64 112.341 154.622 112.389C154.129 112.395 153.826 112.539 153.336 112.369C153.215 112.262 153.092 112.164 152.994 112.04C152.974 111.273 152.971 111.018 153.718 110.624C155.06 109.915 156.208 109.742 156.241 107.942C156.318 103.921 156.281 99.8926 156.281 95.8679V73.4561L156.275 61.8736C156.275 61.0464 156.328 57.3508 156.223 56.6748L156.002 56.6111C154.85 57.6457 153.785 58.1667 152.562 59.0464C149.186 61.4757 146.33 64.5117 144.118 68.0356C143.935 68.3267 143.807 68.5743 143.5 68.7555L143.285 68.722C143.236 68.5903 143.189 68.4975 143.176 68.3599C143.003 67.6553 143.189 67.039 143.359 66.3496C144.413 62.0724 144.835 57.8282 144.957 53.4226C147.485 53.2232 150.242 53.3278 152.794 53.3445C161.883 53.4039 170.846 53.3846 179.926 52.9823C179.95 53.596 179.954 54.2258 179.961 54.8412C179.999 58.4811 180.108 62.1231 180.134 65.7621C180.137 66.0862 179.997 66.5529 179.896 66.8657L179.631 67.1424L179.334 67.1316C178.89 66.8984 178.431 66.2282 178.101 65.8132C176.391 63.8673 174.052 61.412 172.067 59.811C170.636 58.6579 169.244 57.9745 167.816 56.6269L167.726 56.6583L167.596 57.7583C167.623 66.1715 167.666 75.098 167.533 83.4804C168.776 82.6101 172.784 77.4572 174.107 75.8931C178.001 71.2919 182.025 66.7882 185.952 62.2111C188.203 59.5867 190.472 56.9536 192.705 54.3131C192.967 54.0039 193.66 53.3751 194.001 53.2026C194.442 52.9789 196.427 52.809 196.841 52.939L196.898 53.1621L196.618 53.6312C196.095 54.7032 194.856 55.8967 194.047 56.827C189.524 62.0299 185.283 67.4754 180.831 72.7307C180.26 73.4034 179.463 74.136 178.824 74.7611C178.79 74.9381 178.773 75.1122 178.771 75.2928C178.759 77.2261 188.858 103.01 190.382 106.426C190.822 107.411 191.489 109.056 192.271 109.782C192.527 110.02 192.954 110.098 193.29 110.071C193.896 110.024 194.157 109.675 194.344 109.136C195.025 107.167 195.487 105.06 196.051 103.05L199.47 90.9893C199.925 89.3865 200.474 87.7875 200.944 86.1822L207.708 63.2508C208.454 60.7115 209.786 55.5125 210.973 52.9974C211.13 52.6659 212.299 52.6436 212.7 52.6306C213.816 55.5709 214.507 60.3263 215.316 63.5379C218.28 75.3083 220.887 87.1634 224.152 98.8609C224.738 100.96 225.186 103.025 225.926 105.088C225.682 101.386 225.728 97.5432 225.7 93.8237L225.707 71.6582L225.698 57.9526C225.701 55.8065 225.607 52.1879 225.858 50.2029L225.774 49.6663C225.484 49.581 224.873 50.0795 224.577 50.1004C220.946 50.3573 217.086 50.3261 213.459 50.3574L175.012 50.3749L56.949 50.3662L19.6261 50.3617C18.392 50.3621 17.0856 50.2931 15.855 50.1643C15.2867 50.1047 14.8588 49.6147 14.2644 49.7082C14.1594 50.1504 14.2358 51.9687 14.2369 52.5797L14.2293 60.5381C14.2261 61.2427 14.2479 63.6982 14.1363 64.3084C14.3158 78.6123 14.1368 93.2668 14.1575 107.593L14.1815 121.841C14.1907 123.928 14.3278 127.862 14.1097 129.811ZM16.0289 24.8763C15.3986 24.7886 14.7704 24.7178 14.1566 24.5498C14.3795 27.8021 14.2907 34.3668 14.1552 37.5446C14.0397 40.5202 14.158 44.3352 14.1659 47.3749C16.7183 47.1711 20.2828 47.3251 22.9153 47.3327L36.8215 47.2958L83.6732 47.3322L225.847 47.2556C225.655 44.0874 225.738 40.4125 225.722 37.2044C225.701 33.1525 225.627 28.9269 225.856 24.8975C225.831 24.6775 225.823 24.693 225.677 24.5221C225.281 24.6003 224.369 24.9049 224.11 24.9141C221.677 25.0003 219.048 24.9437 216.617 24.939L205.605 24.9414L184.586 24.9342C181.824 24.919 178.742 25.0425 176.022 24.9171C174.213 25.0407 171.116 24.9474 169.229 24.9525L154.57 24.995L94.0614 24.9763L43.4893 24.9472L26.9941 24.9959C23.2968 25.0119 19.7217 25.1266 16.0289 24.8763ZM201.504 93.9187C203.042 93.8986 204.582 93.8948 206.12 93.9071C207.6 93.8978 209.212 93.9221 210.676 93.7931C209.992 91.7462 206.531 75.9924 206.371 75.7836C205.814 79.3571 204.221 84.0276 203.283 87.6198C202.942 88.9234 201.931 92.7682 201.504 93.9187Z" fill="white"/>
<path d="M10.8804 132.819C12.0474 132.622 17.0975 132.667 18.584 132.665L33.4507 132.656L87.8005 132.716L168.754 132.709L193.147 132.699C195.093 132.706 197.04 132.703 198.985 132.688C199.887 132.684 201.543 132.637 202.382 132.749C203.095 132.719 204.68 132.693 205.366 132.763C205.897 132.908 207.575 132.94 207.67 132.987C207.012 133.112 205.777 133.075 205.462 133.324C204.476 133.362 203.463 133.339 202.472 133.328C193.769 133.579 184.571 133.321 175.808 133.38L88.6793 133.329L39.089 133.383L22.6736 133.44C20.2403 133.447 17.8852 133.451 15.4558 133.348C14.0481 133.289 12.563 133.357 11.1613 133.234L10.8804 132.819Z" fill="white"/>
<path d="M202.382 132.749C203.095 132.719 204.68 132.693 205.366 132.763C205.897 132.908 207.575 132.94 207.67 132.987C207.012 133.112 205.777 133.075 205.462 133.324C204.476 133.362 203.463 133.339 202.472 133.328L202.429 133.193C201.953 132.838 200.04 133.15 199.363 133.188L199.279 133.025C199.494 132.85 201.726 132.951 202.382 132.749Z" fill="white"/>
<path d="M205.366 132.763L221.635 132.724C222.759 132.724 228.161 132.665 228.983 132.88C223.652 133.607 217.976 133.331 212.598 133.273C210.252 133.249 207.774 133.391 205.462 133.324C205.777 133.075 207.012 133.112 207.67 132.987C207.575 132.94 205.897 132.908 205.366 132.763Z" fill="white"/>
<path d="M17.7 112.075C17.4205 109.013 21.0265 112.354 20.9728 106.112C20.8302 89.5079 21.1195 72.8477 20.8433 56.2595C20.8233 55.061 17.6509 55.1459 17.2397 54.0458C17.2479 53.6695 17.3339 53.6014 17.5742 53.3014C17.9191 53.1476 18.3639 53.0952 18.7389 53.0936C24.9769 53.0667 31.2453 53.0348 37.4798 53.0163C43.1882 52.9995 48.1582 55.9336 49.8781 61.5504C50.7257 64.3185 50.6945 66.5014 50.4492 69.3713C50.2925 71.9813 48.7413 75.4175 46.8264 77.2448C45.7338 78.2872 44.2024 78.3817 42.6684 78.5321L42.0821 78.6263L41.997 78.7536C42.5096 78.9833 43.387 79.2032 43.9457 79.3328C53.139 81.4669 55.3783 92.6117 53.2546 100.494L53.0407 101.103C52.7652 103.514 49.774 107.58 47.8858 109.09C43.5944 112.523 36.6476 112.256 31.4306 112.224L23.8286 112.216C23.0783 112.218 19.4391 112.191 18.8514 112.349L18.7882 112.345C18.3428 112.314 18.0432 112.369 17.7 112.075ZM37.6675 105.961C39.3779 103.353 39.6013 99.0185 39.5679 95.8434C39.5205 91.3393 39.6136 84.2634 35.2873 81.5018C34.2229 80.8224 33.1665 80.1621 31.9349 79.9823C32.0415 82.2703 31.9778 84.8808 31.9706 87.2023L31.96 98.6837C31.9621 100.97 31.9191 103.276 32.0337 105.556C32.1072 107.021 32.5482 108.057 34.2066 107.898C35.9089 107.735 36.6039 107.155 37.6675 105.961ZM31.9883 77.2703C33.7831 76.8879 35.9486 76.1429 36.8892 74.4705C39.3476 70.0993 38.765 61.7519 35.816 57.8235C34.7768 56.4578 33.548 56.1854 31.9722 55.7815L31.9828 57.4222C31.9566 62.0035 31.9563 66.5849 31.9821 71.1663C31.9852 72.3617 32.0938 76.2817 31.9883 77.2703Z" fill="white"/>
<path d="M17.7002 112.075C18.7923 111.779 21.5605 111.875 22.7863 111.847C25.145 111.793 27.5558 111.784 29.9172 111.794C33.7054 111.834 37.8397 111.998 41.5241 111.239C47.1897 110.072 50.7424 106.302 52.996 101.169C53.0109 101.147 53.026 101.125 53.0409 101.103C52.7654 103.514 49.7742 107.58 47.886 109.09C43.5946 112.523 36.6478 112.256 31.4308 112.224L23.8288 112.216C23.0785 112.218 19.4392 112.191 18.8515 112.349L18.7884 112.345C18.343 112.314 18.0434 112.369 17.7002 112.075Z" fill="white"/>
<path d="M50.4493 69.3714C50.2925 71.9813 48.7414 75.4175 46.8264 77.2448C45.7339 78.2872 44.2025 78.3817 42.6685 78.5321C46.2186 77.3559 48.5242 75.3745 49.7229 71.7283C49.9772 70.9545 50.1691 70.1254 50.4493 69.3714Z" fill="white"/>
<path d="M78.0062 72.5139C76.5721 68.7548 76.8881 63.4354 78.5729 59.8005C82.1294 52.1274 91.8641 50.4769 99.0391 53.7324C100.369 54.3359 101.575 55.0752 102.885 55.6868C104.124 55.125 107.678 51.9822 108.743 52.7155C108.332 54.2961 107.141 56.1041 106.918 57.8347C106.792 58.8125 106.786 60.1094 106.762 61.1172C106.713 63.571 106.707 66.0255 106.743 68.4796C106.757 70.578 106.861 72.2185 106.534 74.302C104.512 71.2607 101.996 68.1782 100.024 64.9747C98.668 62.7731 97.5799 60.0588 96.264 58.0469C94.6342 56.4035 91.82 56.5704 90.2769 58.2347C89.6439 58.9176 89.4628 59.361 89.1042 60.1948C87.2399 67.1562 92.0394 70.1405 96.766 73.8265C103.389 78.9918 110.62 85.2175 110.162 94.4277C110.056 96.8466 110.015 99.1264 109.068 101.452C108.168 104.645 105.13 108.523 102.348 110.322C100.36 111.465 99.6 111.53 97.4543 112.082C94.3169 112.888 91.8906 113.205 88.6799 112.336C88.387 112.256 88.095 112.173 87.8039 112.087C86.6365 111.782 84.0014 110.617 82.8282 110.122C82.2369 110.82 81.0906 112.129 80.0978 111.752C80.0277 110.944 80.5485 108.279 80.6169 107.219C80.826 103.985 80.7167 100.893 80.3016 97.6834C80.1545 96.5905 79.9565 95.5051 79.7079 94.4307C79.3873 93.0434 78.333 89.7567 78.1926 88.2081C78.2817 87.9931 78.4152 87.7986 78.5996 87.7073C80.0957 86.9661 80.8996 88.428 81.6894 89.4833C83.9075 92.4729 85.119 96.0964 85.6796 99.7557C86.1053 102.529 86.6111 106.837 89.8315 107.757C93.037 108.599 96.2925 106.696 97.1481 103.488C98.0977 99.9272 98.1812 95.3219 96.3419 92.0351C94.1496 89.1229 91.5311 87.2235 88.7453 84.9504C87.169 83.6611 85.6252 82.3327 84.1152 80.9664C82.6203 79.6181 81.3639 77.9772 80.0294 76.489C79.5101 75.6523 79.0008 74.7634 78.4979 73.9132C78.5002 73.9341 78.0874 72.8506 78.0062 72.5139Z" fill="white"/>
<path d="M82.9408 109.768C84.3202 110.26 85.8112 111.062 87.1497 111.509C90.4629 112.616 94.9097 112.612 98.2284 111.523C103.972 109.638 106.392 106.457 109.068 101.452C108.168 104.645 105.13 108.523 102.349 110.322C100.36 111.465 99.6003 111.53 97.4546 112.082C94.3172 112.888 91.8909 113.205 88.6802 112.336C88.3873 112.256 88.0953 112.173 87.8043 112.087C86.6368 111.782 84.0017 110.617 82.8286 110.122C82.2372 110.82 81.0909 112.129 80.0981 111.752C81.0663 111.057 81.9373 110.518 82.9408 109.768Z" fill="white"/>
<path d="M78.0063 72.5139C79.0936 74.6143 79.6034 75.5072 81.0564 77.3058C84.2932 81.3122 94.5511 87.7968 96.342 92.0351C94.1497 89.1229 91.5312 87.2235 88.7455 84.9504C87.1691 83.6611 85.6253 82.3327 84.1153 80.9664C82.6204 79.6181 81.364 77.9773 80.0296 76.489C79.5102 75.6523 79.001 74.7634 78.498 73.9132C78.5003 73.9341 78.0876 72.8506 78.0063 72.5139Z" fill="white"/>
<path d="M89.1045 60.1948C89.4904 56.4866 94.594 54.4519 96.2643 58.0469C94.6345 56.4035 91.8203 56.5704 90.2772 58.2347C89.6442 58.9176 89.4631 59.361 89.1045 60.1948Z" fill="white"/>
<path d="M112.604 53.9018C112.673 53.7121 112.72 53.4404 112.907 53.4198C114.527 53.24 117.012 53.311 118.57 53.3187L133.253 53.3235C135.173 53.3244 139.616 53.436 141.343 53.2094C141.301 55.4011 141.275 57.593 141.266 59.785C141.26 63.3135 141.478 66.6857 140.043 69.9834C137.711 66.1057 134.334 61.1277 130.849 58.1755C130.06 57.5066 128.5 56.7356 127.566 56.183C127.807 58.4905 127.653 63.7137 127.633 66.1393C127.598 71.3246 127.598 76.5101 127.633 81.6955C132.086 81.3295 135.353 81.0681 139.542 79.4211C139.575 81.1091 139.708 84.6734 139.507 86.306L139.344 86.5322C138.894 86.684 136.252 86.0072 135.51 85.9645C132.886 85.8131 130.328 85.507 127.728 85.2146L127.628 85.4643C127.856 92.8489 127.458 100.433 127.69 107.863C131.565 107.238 138.691 104.164 141.911 101.815C142.616 101.303 143.286 100.744 143.916 100.141C144.601 99.4774 146.291 97.2565 147.023 97.1865C147.864 98.3745 144.925 101.384 144.656 102.447C144.18 104.328 144.063 106.469 144.026 108.399C144.026 109.343 144.039 111.12 143.826 111.966C142.881 112.3 130.982 111.865 128.7 112.158C127.316 112.335 113.427 112.385 112.976 112.221C112.711 111.937 112.723 111.585 112.671 111.179C113.462 110.368 115.179 110.467 115.84 109.315C116.115 108.834 116.123 107.393 116.13 106.816C116.178 102.838 116.164 98.8483 116.164 94.8705L116.156 72.3187L116.154 61.7914C116.151 60.5496 116.234 57.2824 115.962 56.244C114.554 55.1459 113.254 55.2389 112.604 53.9018Z" fill="white"/>
<path d="M143.826 111.966C142.881 112.3 130.982 111.865 128.699 112.158C127.315 112.335 113.427 112.385 112.976 112.221C112.711 111.937 112.723 111.585 112.67 111.179L112.899 111.72C113.86 111.939 117.758 111.871 119.03 111.867C125.393 111.789 131.757 111.767 138.121 111.801C139.319 111.815 142.806 111.739 143.826 111.966Z" fill="white"/>
<path d="M127.628 85.4643L127.562 85.0256L127.676 84.9141C129.34 85.0188 138.655 85.7085 139.507 86.306L139.343 86.5322C138.894 86.684 136.252 86.0072 135.51 85.9645C132.885 85.8131 130.327 85.507 127.727 85.2146L127.628 85.4643Z" fill="white"/>
<path d="M112.604 53.9018C113.793 54.4496 115.34 55.0379 115.962 56.244C114.554 55.1459 113.254 55.2389 112.604 53.9018Z" fill="white"/>
<path d="M56.0299 111.983C55.9556 111.721 55.9601 111.619 55.9469 111.345C56.2562 110.426 57.6408 110.442 58.219 109.893C59.7126 108.475 59.3106 104.242 59.3167 102.318L59.3204 92.4025L59.3261 67.6054C59.327 64.5554 59.3022 61.0598 59.298 58.0395C59.2921 53.8367 54.7285 56.1423 55.3324 53.3468C55.8529 53.0507 58.0849 53.1225 58.8163 53.123L64.5686 53.142C65.8934 53.1394 73.0331 52.8726 73.6765 53.2987C73.7863 53.708 73.7318 53.6492 73.6146 54.1076C72.8285 55.7977 71.2694 54.9186 70.7222 56.9157C70.3998 58.7226 70.5146 62.0886 70.5148 64.0257L70.519 75.76L70.5115 96.8131C70.5126 100.524 70.481 104.235 70.5663 107.945C70.6187 110.222 72.1894 110.022 73.4062 111.2C73.4075 111.616 73.4621 111.958 73.2433 112.291C72.5951 112.393 56.2498 112.295 56.1932 112.279L56.0299 111.983Z" fill="white"/>
<path d="M73.4066 111.2C73.4078 111.616 73.4625 111.958 73.2436 112.291C72.5955 112.393 56.2501 112.295 56.1935 112.279L56.0303 111.983C58.3766 111.408 72.4857 112.316 73.3195 111.748L73.4066 111.2Z" fill="white"/>
<path d="M70.7223 56.9157C70.6546 55.1612 72.2214 54.6662 73.6147 54.1076C72.8286 55.7977 71.2695 54.9186 70.7223 56.9157Z" fill="white"/>
<path d="M118.547 29.4449C118.93 28.5712 119.681 26.6454 119.88 25.7663C120.278 27.0082 120.852 28.1473 121.265 29.4143C122.527 29.5624 123.584 29.4304 124.979 29.6658C124.29 30.3371 123.298 30.8872 122.695 31.6312C122.045 32.4312 122.804 34.5125 122.981 35.7636C122.327 35.1049 120.765 33.9874 119.989 33.4283C119.612 33.4356 119.62 33.5436 119.269 33.8522C118.867 34.2276 117.428 35.5651 117.012 35.6305L116.881 35.5706C117.123 34.288 117.516 33.122 117.75 31.8224C117.208 31.5521 115.305 30.4264 115.155 29.8775L115.297 29.71C116.037 29.4722 117.704 29.4765 118.547 29.4449Z" fill="white"/>
<path d="M14.0337 49.3941C17.5393 49.4377 21.3899 49.2962 24.9691 49.2937L57.6596 49.2776L167.323 49.2895L206.018 49.284L218.814 49.2947C220.935 49.3036 223.745 49.2461 225.822 49.3881C226.004 49.715 225.919 49.7692 225.858 50.2029L225.774 49.6663C225.484 49.5809 224.873 50.0795 224.577 50.1004C220.947 50.3573 217.086 50.3261 213.459 50.3574L175.013 50.3749L56.9491 50.3662L19.6262 50.3617C18.3921 50.3621 17.0857 50.2931 15.8551 50.1643C15.2868 50.1047 14.8589 49.6147 14.2645 49.7082C14.1595 50.1504 14.2359 51.9687 14.237 52.5797L14.2294 60.5381C14.2262 61.2427 14.248 63.6982 14.1364 64.3084C13.968 62.9876 14.0465 60.0388 14.0431 58.5945C14.0359 55.5818 13.9517 52.3928 14.0337 49.3941Z" fill="white"/>
<path d="M14.8672 24.3432C25.6458 24.2829 36.4246 24.2769 47.2033 24.3251L138.445 24.3L179.659 24.3122L193.202 24.3106C194.696 24.3184 197.668 24.2326 198.991 24.3454C201.644 24.2494 225.379 24.2013 225.857 24.4091C225.953 24.7011 225.94 24.581 225.856 24.8975C225.832 24.6775 225.824 24.693 225.678 24.5221C225.281 24.6003 224.37 24.9049 224.111 24.9141C221.677 25.0003 219.048 24.9437 216.617 24.939L205.606 24.9414L184.587 24.9342C181.825 24.919 178.743 25.0425 176.022 24.9171C174.213 25.0407 171.116 24.9474 169.229 24.9525L154.571 24.995L94.0617 24.9763L43.4897 24.9472L26.9945 24.9959C23.2972 25.0119 19.7221 25.1266 16.0293 24.8763L16.2718 24.6047C16.036 24.4531 15.2807 24.4532 14.8672 24.3432Z" fill="white"/>
<path d="M198.991 24.3454C201.643 24.2494 225.379 24.2013 225.857 24.4091C225.953 24.7011 225.94 24.581 225.856 24.8975C225.832 24.6775 225.823 24.693 225.678 24.5221C225.281 24.6003 224.369 24.9049 224.11 24.9141C221.677 25.0003 219.048 24.9437 216.617 24.939L205.605 24.9414L184.587 24.9342C181.824 24.919 178.742 25.0425 176.022 24.9171C176.161 24.8325 181.529 24.7111 182.264 24.6641C180.404 24.4716 177.358 24.7665 175.397 24.6099C174.888 24.5693 174.475 24.7187 173.966 24.608C174.245 24.195 193.43 24.8026 195.459 24.4952C196.189 24.3847 198.106 24.5889 198.991 24.3454Z" fill="white"/>
<path d="M177.337 109.153C177.741 109.983 178.178 111.088 178.594 111.845C182.756 112.015 187.243 111.674 191.444 111.854C192.529 111.901 194.735 111.827 195.707 111.97C196.393 111.955 200.152 111.84 200.594 111.991L200.512 112.282C199.381 112.655 191.767 112.406 190.114 112.352C188.765 112.389 187.27 112.279 185.901 112.3C183.372 112.339 181.03 112.335 178.504 112.161C178.096 111.199 177.551 110.148 177.337 109.153Z" fill="white"/>
<path d="M195.707 111.97C196.393 111.955 200.152 111.84 200.594 111.991L200.512 112.282C199.381 112.655 191.767 112.406 190.114 112.352L189.953 112.19C190.531 111.798 194.491 112.073 195.707 111.97Z" fill="white"/>
<path d="M178.824 74.7611C179.237 73.8164 180.985 71.8589 181.727 70.9717L187.007 64.7246C189.979 61.2417 193.458 56.8961 196.619 53.6312C196.096 54.7032 194.856 55.8967 194.048 56.827C189.524 62.0299 185.284 67.4754 180.831 72.7307C180.261 73.4034 179.464 74.136 178.824 74.7611Z" fill="white"/>
<path d="M167.597 57.7583C167.571 57.3474 167.501 56.8627 167.647 56.4888C169.503 55.69 176.959 63.5991 178.207 65.1401L178.102 65.8132C176.391 63.8673 174.052 61.412 172.067 59.811C170.637 58.6579 169.244 57.9745 167.816 56.6269L167.726 56.6583L167.597 57.7583Z" fill="white"/>
<path d="M152.994 112.04C153.614 111.828 155.785 111.847 156.524 111.838C159.466 111.812 162.408 111.807 165.351 111.824C166.503 111.833 169.61 112.068 170.399 111.585C170.277 112.034 170.304 112.247 170.007 112.524C168.997 112.621 167.73 112.442 166.692 112.357C162.681 112.029 158.64 112.341 154.622 112.389C154.129 112.395 153.826 112.539 153.336 112.369C153.215 112.262 153.092 112.164 152.994 112.04Z" fill="white"/>
<path d="M143.176 68.3599C143.99 67.7583 145.152 65.9393 145.807 65.0547C148.403 61.5544 151.894 58.2332 156.002 56.6111C154.85 57.6457 153.785 58.1667 152.562 59.0464C149.186 61.4757 146.33 64.5117 144.118 68.0356C143.935 68.3267 143.807 68.5743 143.5 68.7555L143.285 68.722C143.236 68.5903 143.189 68.4975 143.176 68.3599Z" fill="white"/>
<path d="M211.226 111.679C212.447 111.857 214.629 111.805 215.92 111.8C218.123 111.798 220.325 111.781 222.527 111.751C223.383 111.732 225.128 111.634 225.917 111.702L225.951 111.894C225.559 111.868 224.059 112.065 223.511 112.097C221.536 112.198 219.56 112.267 217.583 112.303C216.547 112.32 212.625 112.263 212.018 112.446C211.382 112.325 211.433 112.221 211.226 111.679Z" fill="white"/>
<path d="M200.426 97.2217C200.432 97.1636 200.45 96.9906 200.462 96.957C200.513 96.8162 200.517 96.5199 200.702 96.4873C202.064 96.2487 210.823 96.2455 211.443 96.448C208.376 97.2275 204.082 97.1569 200.922 96.7393C200.801 96.7233 200.49 97.1294 200.426 97.2217Z" fill="white"/>
<path d="M14.1553 37.5446L13.9463 24.441C14.3014 24.2418 14.4039 24.3238 14.8669 24.3432C15.2804 24.4532 16.0358 24.4531 16.2715 24.6047L16.029 24.8763C15.3987 24.7886 14.7705 24.7178 14.1567 24.5498C14.3796 27.8021 14.2908 34.3668 14.1553 37.5446Z" fill="white"/>
<path d="M178.207 65.14C178.783 65.7874 179.222 66.3141 179.896 66.8657L179.631 67.1424L179.334 67.1316C178.89 66.8984 178.431 66.2282 178.102 65.8132L178.207 65.14Z" fill="white"/>
</svg>
