<?xml version="1.0" encoding="UTF-8" standalone="no"?>
<!DOCTYPE svg PUBLIC "-//W3C//DTD SVG 1.1//EN" "http://www.w3.org/Graphics/SVG/1.1/DTD/svg11.dtd">
<svg width="100%" height="100%" viewBox="0 0 526 670" version="1.1" xmlns="http://www.w3.org/2000/svg" xmlns:xlink="http://www.w3.org/1999/xlink" xml:space="preserve" xmlns:serif="http://www.serif.com/" style="fill-rule:evenodd;clip-rule:evenodd;stroke-linecap:round;stroke-linejoin:round;stroke-miterlimit:1.5;">
    <g transform="matrix(1,0,0,1,-563.427061,-1230.568651)">
        <g>
            <path d="M565.51,1243.768C565.51,1243.768 569.266,1288 586.187,1320.655C586.187,1320.655 590.937,1405.854 594.499,1427.524C594.499,1427.524 606.076,1529.645 613.201,1552.206C613.201,1552.206 632.794,1651.951 637.544,1667.685C637.544,1667.685 647.637,1725.276 649.715,1738.635C649.715,1738.635 666.339,1846.577 665.745,1859.845C665.745,1859.845 661.797,1863.539 679.698,1866.478C679.698,1866.478 734.469,1877.263 750.766,1871.469C750.766,1871.469 794.126,1864.313 808.461,1855.336L818.736,1774.757L825.382,1706.36L825.382,1690.329L820.232,1647.154L814.033,1590.085L817.881,1550.544L823.652,1497.109L828.995,1508.864C828.995,1508.864 866.934,1620.73 871.743,1634.623L881.896,1664.013C881.896,1664.013 898.995,1727.333 900.865,1737.486C900.865,1737.486 921.705,1816.035 923.842,1824.05C923.842,1824.05 940.14,1882.829 940.674,1890.577C940.674,1890.577 1007.662,1911.402 1081.208,1882.829C1081.208,1882.829 1085.289,1779.744 1084.398,1766.979C1084.398,1766.979 1083.211,1695.732 1079.352,1682.373C1079.352,1682.373 1067.477,1621.22 1061.837,1601.924C1061.837,1601.924 1058.868,1575.504 1061.243,1560.067C1061.243,1560.067 1068.368,1473.383 1070.149,1463.587C1071.93,1453.791 1078.164,1381.654 1079.055,1371.56C1079.945,1361.467 1083.805,1309.383 1084.695,1300.247C1085.586,1291.111 1087.083,1232.652 1087.083,1232.652C1087.083,1232.652 1039.275,1242.441 1021.167,1243.918C1003.058,1245.394 903.907,1256.972 888.173,1257.566C872.44,1258.159 773.882,1263.206 753.695,1262.315C733.509,1261.425 664.934,1259.644 651.575,1256.972C638.216,1254.3 585.451,1249.566 565.524,1243.918" style="fill:rgb(212,190,136);"/>
            <g>
                <path d="M565.51,1243.918C565.51,1243.918 569.073,1300.025 606.032,1356.577" style="fill:none;stroke:black;stroke-width:4.17px;"/>
                <path d="M585.771,1319.001C585.771,1319.001 590.001,1470.348 628.519,1626.089C628.519,1626.089 655.815,1752.708 665.612,1862.026C665.612,1862.026 734.25,1886.74 807.914,1856.206C807.914,1856.206 826.406,1722.962 825.338,1691.435C825.338,1691.435 815.185,1615.023 813.048,1589.909C813.048,1589.909 823.735,1501.741 823.735,1495.864" style="fill:none;stroke:black;stroke-width:4.17px;"/>
                <path d="M699.766,1389.528C699.766,1389.528 782.59,1407.696 792.208,1407.696C792.208,1407.696 866.483,1616.092 880.91,1658.306C880.91,1658.306 930.738,1851.05 940.49,1890.258C940.49,1890.258 1007.907,1912.02 1081.38,1882.726C1081.38,1882.726 1086.457,1753.108 1082.182,1708.223C1082.182,1708.223 1075.235,1643.567 1062.411,1607.231C1062.411,1607.231 1059.205,1602.956 1060.273,1565.552C1060.273,1565.552 1078.441,1380.667 1079.51,1362.499C1079.51,1362.499 1088.06,1246.011 1086.991,1232.652C1086.991,1232.652 980.255,1256.898 765.847,1262.91C765.847,1262.91 756.198,1262.946 740.334,1262.507C702.121,1261.451 627.845,1257.637 565.51,1243.918" style="fill:none;stroke:black;stroke-width:4.17px;"/>
                <path d="M751.014,1262.755C751.014,1262.755 750.287,1330.94 767.017,1403.582" style="fill:none;stroke:black;stroke-width:2.08px;"/>
                <path d="M759.013,1361.591C759.013,1361.591 726.305,1362.674 722.297,1355.327C722.297,1355.327 712.946,1302.435 711.61,1262.755" style="fill:none;stroke:black;stroke-width:2.08px;"/>
                <path d="M968.766,1250.461C968.766,1250.461 979.453,1279.85 985.464,1289.869C985.464,1289.869 1052.926,1290.537 1068.289,1285.193" style="fill:none;stroke:black;stroke-width:2.08px;"/>
                <path d="M580.695,1250.461C580.695,1250.461 576.019,1276.51 576.019,1284.525" style="fill:none;stroke:black;stroke-width:2.08px;"/>
                <path d="M1074.506,1235.16C1074.506,1235.16 1040.903,1557.047 1051.59,1608.7C1051.59,1608.7 1081.87,1699.094 1073.855,1882.109" style="fill:none;stroke:black;stroke-width:2.08px;"/>
                <path d="M808.461,1451.29C808.461,1451.29 783.08,1565.74 783.97,1595.235C783.97,1595.235 815.141,1689.075 790.204,1859.845" style="fill:none;stroke:black;stroke-width:2.08px;"/>
                <path d="M933.385,1321.673C933.385,1321.673 940.065,1454.592 982.812,1854.686" style="fill:none;stroke:black;stroke-width:2.08px;"/>
                <path d="M624.798,1321.673C624.798,1321.673 624.798,1528.511 671.109,1818.84" style="fill:none;stroke:black;stroke-width:2.08px;"/>
                <path d="M664.251,1832.155C664.251,1832.155 726.909,1852.638 808.461,1829.038" style="fill:none;stroke:black;stroke-width:2.08px;"/>
                <path d="M933.385,1863.325C933.385,1863.325 1012.64,1879.445 1081.934,1850.679" style="fill:none;stroke:black;stroke-width:2.08px;"/>
            </g>
        </g>
    </g>
</svg>
