<?xml version="1.0" encoding="UTF-8" standalone="no"?>
<svg width="100%" height="100%" viewBox="0 0 540 670" version="1.1" xmlns="http://www.w3.org/2000/svg" xmlns:xlink="http://www.w3.org/1999/xlink" xml:space="preserve" xmlns:serif="http://www.serif.com/" style="fill-rule:evenodd;clip-rule:evenodd;stroke-linejoin:round;stroke-miterlimit:2;">
    <g transform="matrix(1,0,0,1,-563.427061,-1230.568651)">
        <g>
            <g>
                <path d="M565.51,1243.768C565.51,1243.768 569.266,1288 586.187,1320.655C586.187,1320.655 584.553,1326.95 585.771,1345.759C586.076,1350.458 575.911,1378.41 574.935,1383.562C573.046,1393.54 568.245,1412.717 571.738,1418.719C572.776,1420.503 574.515,1422.458 574.34,1424.376C573.901,1429.212 566.633,1443.689 570.494,1443.473C574.988,1443.221 558.583,1489.427 580.392,1529.906C580.392,1529.906 586.433,1537.31 594.474,1540.826C601.276,1543.801 609.936,1541.866 613.201,1552.206C613.201,1552.206 632.794,1651.951 637.544,1667.685C637.544,1667.685 647.637,1725.276 649.715,1738.635C649.715,1738.635 654.043,1767.151 650.659,1806.849C648.831,1828.291 662.841,1818.494 664.679,1833.238C666.281,1846.08 668.252,1857.862 668.097,1861.341C668.097,1861.341 661.797,1863.539 679.698,1866.478C679.698,1866.478 734.64,1874.698 750.937,1868.905C750.937,1868.905 792.202,1865.81 806.538,1856.833L811.597,1822.789L822.797,1808.527L823.055,1788.568L821.704,1756.516L825.382,1706.36L825.382,1690.329L820.232,1647.154L814.033,1590.085L817.881,1550.544L823.652,1497.109L828.995,1508.864C828.995,1508.864 866.934,1620.73 871.743,1634.623L881.896,1664.013C881.896,1664.013 898.995,1727.333 900.865,1737.486C900.865,1737.486 914.491,1811.493 916.628,1819.508C916.361,1856.913 931.928,1856.295 934.287,1862.919C938.707,1875.326 940.455,1887.403 940.674,1890.577C940.674,1890.577 1005.738,1910.76 1079.284,1882.187C1079.284,1882.187 1080.104,1868.211 1081.092,1849.939C1081.735,1838.058 1095.254,1839.537 1095.861,1826.686C1096.848,1805.795 1084.746,1771.963 1084.398,1766.979C1084.398,1766.979 1083.211,1695.732 1079.352,1682.373C1079.352,1682.373 1067.477,1621.22 1061.837,1601.924C1061.837,1601.924 1058.868,1575.504 1061.243,1560.067C1061.243,1560.067 1061.17,1547.357 1064.355,1534.981C1064.834,1533.121 1071.411,1535.165 1072.519,1533.438C1074.715,1530.016 1083.542,1525.928 1085.501,1522.769C1092.335,1511.756 1095.125,1506.314 1095.861,1502.265C1096.868,1496.725 1101.233,1471.335 1100.026,1446.926C1099.668,1439.675 1093.348,1419.492 1095.861,1415.094C1097.195,1412.759 1099.501,1412.847 1100.026,1411.413C1103.411,1402.178 1088.2,1362.29 1085.826,1358.079C1083.982,1354.808 1080.749,1352.857 1080.866,1348.66C1081.39,1329.788 1084.121,1306.132 1084.695,1300.247C1085.586,1291.111 1087.083,1232.652 1087.083,1232.652C1087.083,1232.652 1039.275,1242.441 1021.167,1243.918C1003.058,1245.394 903.907,1256.972 888.173,1257.566C872.44,1258.159 773.882,1263.206 753.695,1262.315C733.509,1261.425 664.934,1259.644 651.575,1256.972C638.216,1254.3 585.451,1249.566 565.524,1243.918" style="fill:rgb(29,29,29);"/>
                <clipPath id="_clip1">
                    <path d="M565.51,1243.768C565.51,1243.768 569.266,1288 586.187,1320.655C586.187,1320.655 584.553,1326.95 585.771,1345.759C586.076,1350.458 575.911,1378.41 574.935,1383.562C573.046,1393.54 568.245,1412.717 571.738,1418.719C572.776,1420.503 574.515,1422.458 574.34,1424.376C573.901,1429.212 566.633,1443.689 570.494,1443.473C574.988,1443.221 558.583,1489.427 580.392,1529.906C580.392,1529.906 586.433,1537.31 594.474,1540.826C601.276,1543.801 609.936,1541.866 613.201,1552.206C613.201,1552.206 632.794,1651.951 637.544,1667.685C637.544,1667.685 647.637,1725.276 649.715,1738.635C649.715,1738.635 654.043,1767.151 650.659,1806.849C648.831,1828.291 662.841,1818.494 664.679,1833.238C666.281,1846.08 668.252,1857.862 668.097,1861.341C668.097,1861.341 661.797,1863.539 679.698,1866.478C679.698,1866.478 734.64,1874.698 750.937,1868.905C750.937,1868.905 792.202,1865.81 806.538,1856.833L811.597,1822.789L822.797,1808.527L823.055,1788.568L821.704,1756.516L825.382,1706.36L825.382,1690.329L820.232,1647.154L814.033,1590.085L817.881,1550.544L823.652,1497.109L828.995,1508.864C828.995,1508.864 866.934,1620.73 871.743,1634.623L881.896,1664.013C881.896,1664.013 898.995,1727.333 900.865,1737.486C900.865,1737.486 914.491,1811.493 916.628,1819.508C916.361,1856.913 931.928,1856.295 934.287,1862.919C938.707,1875.326 940.455,1887.403 940.674,1890.577C940.674,1890.577 1005.738,1910.76 1079.284,1882.187C1079.284,1882.187 1080.104,1868.211 1081.092,1849.939C1081.735,1838.058 1095.254,1839.537 1095.861,1826.686C1096.848,1805.795 1084.746,1771.963 1084.398,1766.979C1084.398,1766.979 1083.211,1695.732 1079.352,1682.373C1079.352,1682.373 1067.477,1621.22 1061.837,1601.924C1061.837,1601.924 1058.868,1575.504 1061.243,1560.067C1061.243,1560.067 1061.17,1547.357 1064.355,1534.981C1064.834,1533.121 1071.411,1535.165 1072.519,1533.438C1074.715,1530.016 1083.542,1525.928 1085.501,1522.769C1092.335,1511.756 1095.125,1506.314 1095.861,1502.265C1096.868,1496.725 1101.233,1471.335 1100.026,1446.926C1099.668,1439.675 1093.348,1419.492 1095.861,1415.094C1097.195,1412.759 1099.501,1412.847 1100.026,1411.413C1103.411,1402.178 1088.2,1362.29 1085.826,1358.079C1083.982,1354.808 1080.749,1352.857 1080.866,1348.66C1081.39,1329.788 1084.121,1306.132 1084.695,1300.247C1085.586,1291.111 1087.083,1232.652 1087.083,1232.652C1087.083,1232.652 1039.275,1242.441 1021.167,1243.918C1003.058,1245.394 903.907,1256.972 888.173,1257.566C872.44,1258.159 773.882,1263.206 753.695,1262.315C733.509,1261.425 664.934,1259.644 651.575,1256.972C638.216,1254.3 585.451,1249.566 565.524,1243.918"/>
                </clipPath>
                <g clip-path="url(#_clip1)">
                    <g transform="matrix(0.005121,0.061304,-0.061304,0.005121,971.199644,1617.056212)">
                        <g transform="matrix(1,0,0,1,-3643.75,-5168.75)">
                            <g id="Balenciaga-Logo-2017-present.jpg" transform="matrix(6.559246,0,0,6.559246,283.333333,2800)">
                                <path d="M420.896,335.5C420.896,232.572 420.895,232.58 420.903,232.527C421.335,229.788 422.659,229.997 455.499,230.516C459.569,230.58 458.206,232.812 478.785,291.392C490.394,324.437 486.472,327.292 489.468,327.293C491.073,327.293 489.841,318.388 489.785,317.493C488.903,303.406 489.234,232.193 489.507,231.503C490.067,230.089 490.533,230.189 508.499,230.51C510.978,230.555 510.734,232.599 510.736,233.497C510.757,242.62 510.999,346.184 510.632,347.537C510.292,348.787 509.788,348.991 478.495,348.91C475.561,348.902 475.291,348.338 472.687,340.439C461.067,305.19 447.952,273.72 443.321,250.577C443.02,249.073 441.094,248.995 441.292,251.473C441.896,259.052 443.361,277.402 442.632,346.506C442.603,349.279 441.197,349.044 423.487,348.908C419.677,348.879 420.917,341.085 420.896,335.5Z" style="fill:none;stroke:white;stroke-width:1.91px;"/>
                                <path d="M862.5,302.9C858.461,302.742 856.498,304.489 856.476,300.501C856.394,286.027 856.156,284.161 858.438,284.034C859.985,283.948 893.668,283.823 894.641,284.175C895.944,284.646 895.811,285.226 895.801,335.5C895.799,340.728 897.578,342.725 890.398,345.211C879.123,349.114 827.615,361.799 815.729,325.428C812.398,315.234 806.998,265.577 820.797,244.705C837.125,220.009 893.338,220.33 896.055,259.513C896.277,262.712 891.352,261.881 876.5,261.882C872.625,261.882 872.291,261.379 871.552,257.491C868.708,242.532 841.462,238.716 838.341,268.481C838.335,268.538 834.883,309.379 840.825,322.354C848.104,338.249 871.625,331.495 872.364,328.467C872.492,327.941 872.764,304.625 872.192,303.69C871.713,302.908 863.278,302.9 862.5,302.9Z" style="fill:none;stroke:white;stroke-width:1.91px;"/>
                                <path d="M384.826,281.501C384.823,291.732 385.744,296.824 382.532,296.962C368.769,297.552 348.008,295.57 347.347,298.465C347.268,298.809 347.219,327.961 347.378,328.534C348.272,331.75 386.568,328.387 388.487,330.509C388.613,330.649 389.985,348.153 387.601,348.805C387.161,348.925 387.185,348.91 332.5,348.91C329.039,348.91 323.172,349.948 323.128,346.523C322.958,333.398 323.11,242.539 323.126,233.496C323.128,232.018 322.956,230.313 325.488,230.279C330.361,230.215 384.878,229.493 386.402,230.643C387.14,231.199 388.489,248.798 385.458,249.205C380.774,249.833 348.247,247.856 347.414,250.471C347.402,250.51 346.793,276.157 347.781,277.241C349.257,278.86 382.866,276.691 384.47,278.521C384.628,278.701 384.496,278.739 384.826,281.501Z" style="fill:none;stroke:white;stroke-width:1.91px;"/>
                                <path d="M541.086,287.5C541.175,254.116 546.681,228.691 585.498,228.79C625.365,228.891 624.189,263.012 622.621,263.714C621.546,264.196 600.543,263.898 600.386,263.855C597.914,263.181 599.977,248.823 588.413,246.937C567.802,243.577 567.047,266.764 566.875,272.516C565.617,314.704 567.329,331.173 582.534,332.193C601.24,333.448 599.077,317.166 600.277,314.376C601.107,312.445 623.359,313.609 623.428,313.646C624.951,314.46 626.731,349.081 586.5,350.493C537.739,352.205 541.098,304.864 541.086,287.5Z" style="fill:none;stroke:white;stroke-width:1.91px;"/>
                                <path d="M290.5,348.91C236.997,348.91 236.968,348.939 236.395,348.731C235.31,348.337 235.311,341.164 235.311,340.5C235.327,232.306 235.216,232.295 235.523,231.51C236.219,229.732 258.022,230.258 258.874,231.159C260.058,232.41 259.095,321.706 259.408,327.505C259.569,330.497 261.206,329.826 295.498,329.855C299.156,329.858 298.418,333.236 298.319,345.499C298.276,350.732 295.737,348.653 290.5,348.91Z" style="fill:none;stroke:white;stroke-width:1.91px;"/>
                                <path d="M674.071,234.5C674.057,347.519 674.197,347.739 673.465,348.46C673.135,348.785 650.9,350.1 650.183,347.608C650.099,347.318 649.803,232.627 650.337,231.407C650.979,229.944 673.156,229.999 673.745,231.349C673.846,231.581 673.769,231.582 674.071,234.5Z" style="fill:none;stroke:white;stroke-width:1.91px;"/>
                                <path d="M92.904,262.527C91.784,268.297 91.31,282.303 71.613,285.775C65.711,286.815 75.189,288.203 75.558,288.258C98.911,291.679 106.879,341.584 68.546,347.787C54.013,350.139 14.477,348.584 14.455,348.564C13.639,347.846 13.734,347.6 13.734,244.5C13.734,238.883 12.936,230.619 15.503,230.524C19.18,230.389 41.534,229.568 61.495,230.612C87.935,231.996 92.943,244.788 92.904,262.527ZM37.958,274.5C38.316,276.905 37.271,277.959 39.554,278.163C62.68,280.228 66.09,273.327 67.096,271.291C69.487,266.454 71.913,249.77 55.483,248.689C38.462,247.569 38.086,249.03 38.037,250.432C37.969,252.356 38.219,252.273 37.958,274.5ZM37.962,316.5C37.964,324.069 36.866,330.881 40.481,330.915C46.268,330.969 75.963,335.424 70.186,307.579C67.428,294.289 49.322,296.233 40.495,296.31C37.282,296.339 38.165,298.095 37.962,316.5Z" style="fill:none;stroke:white;stroke-width:1.91px;"/>
                                <path d="M983.977,240.355C992.635,273.479 1013.572,347.355 1012.524,348.524C1012.447,348.61 988.94,350.339 987.575,347.461C985.709,343.527 982.187,323.07 979.522,322.403C979.258,322.337 947.481,322.004 946.548,322.602C943.824,324.347 940.421,347.956 937.585,348.777C937.25,348.874 916.162,349.235 915.454,348.555C914.11,347.263 927.689,301.722 939.854,255.589C946.08,231.977 945.603,231.379 947.573,230.696C949.911,229.885 949.995,230.437 978.5,230.506C982.576,230.516 983.005,236.811 983.977,240.355ZM954.082,287.38C950.644,301.769 949.558,303.916 952.45,303.968C975.538,304.382 976.75,304.431 976.587,302.503C976.25,298.523 967.586,268.464 964.707,251.399C963.623,244.969 962.162,254.093 962.112,254.407C961.88,255.853 954.734,284.744 954.082,287.38Z" style="fill:none;stroke:white;stroke-width:1.91px;"/>
                                <path d="M703.896,327.623C729.731,232.807 728.533,231.288 731.526,230.613C732.437,230.408 762.976,230.503 763.491,230.559C765.094,230.735 765.22,231.193 770.122,249.599C796.137,347.281 797.3,348.112 795.635,348.749C794.871,349.042 772.922,348.94 772.412,348.801C769.617,348.043 766.06,323.834 763.454,322.598C762.226,322.016 730.945,322.303 730.481,322.429C727.984,323.111 724.655,341.743 722.441,347.472C721.806,349.116 721.295,349.295 700.453,348.918C696.906,348.853 700.052,342.102 703.896,327.623ZM749.883,260.414C748.05,251.439 748.395,251.391 748.234,250.612C747.371,246.437 746.324,251.449 742.733,266.552C734.197,302.459 733.662,302.714 734.46,303.537C735.808,304.93 756.658,304.033 758.587,303.95C760.915,303.85 760.125,302.304 754.177,277.584C751.149,265.003 750.124,261.383 749.883,260.414Z" style="fill:none;stroke:white;stroke-width:1.91px;"/>
                                <path d="M137.979,341.64C136.544,346.751 137.775,348.869 132.503,348.911C113.684,349.062 111.865,349.153 112.556,346.512C112.609,346.307 132.728,272.445 142.961,234.624C144.544,228.774 146.467,230.503 152.5,230.504C177.015,230.51 178.524,229.699 179.547,233.486C181.944,242.366 209.221,343.423 209.508,344.498C210.277,347.379 211.552,348.814 208.564,348.91C206.793,348.967 189.091,349.536 186.413,348.791C182.904,347.815 180.463,322.788 176.521,322.349C176.044,322.296 145.231,322.208 144.475,322.393C142.829,322.795 142.386,325.033 137.979,341.64ZM150.91,289.598C148.262,301.098 147.146,303.859 149.405,303.96C151.337,304.046 172.161,304.976 173.581,303.587C175.04,302.159 163.162,261.148 161.978,251.139C161.171,244.314 159.484,254.153 159.427,254.484C158.738,258.5 151.616,286.795 150.91,289.598Z" style="fill:none;stroke:white;stroke-width:1.91px;"/>
                            </g>
                        </g>
                    </g>
                </g>
                <path d="M565.51,1243.918C565.51,1243.918 569.073,1300.025 606.032,1356.577" style="fill:none;stroke:black;stroke-width:4.17px;stroke-linecap:round;stroke-miterlimit:1.5;"/>
                <path d="M585.771,1348.66C585.771,1348.66 563.966,1410.11 572.457,1420.263" style="fill:none;stroke:black;stroke-width:4.17px;stroke-linecap:round;stroke-miterlimit:1.5;"/>
                <path d="M585.771,1367.21C585.771,1367.21 542.786,1519.76 593.272,1539.779L610.697,1547.252" style="fill:none;stroke:black;stroke-width:4.17px;stroke-linecap:round;stroke-miterlimit:1.5;"/>
                <path d="M585.771,1399.471C585.771,1399.471 566.279,1511.017 599.008,1524.375" style="fill:none;stroke:black;stroke-width:4.17px;stroke-linecap:round;stroke-miterlimit:1.5;"/>
                <path d="M1080.59,1348.66C1080.59,1348.66 1099.559,1379.5 1100.628,1412.095C1100.628,1412.095 1041.85,1439.659 1036.506,1435.206C1036.506,1435.206 1033.389,1412.127 1017.359,1376.37" style="fill:none;stroke:black;stroke-width:4.17px;stroke-linecap:round;stroke-miterlimit:1.5;"/>
                <path d="M1080.59,1348.66C1080.59,1348.66 1016.468,1361.555 1010.234,1367.21C1010.234,1367.21 1015.845,1524.258 1012.639,1545.1C1012.639,1545.1 1030.361,1547.107 1068.612,1532.391C1068.612,1532.391 1113.67,1530.775 1095.861,1417.394" style="fill:none;stroke:black;stroke-width:4.17px;stroke-linecap:round;stroke-miterlimit:1.5;"/>
                <path d="M1040.358,1435.693C1040.358,1435.693 1062.155,1529.807 1017.359,1545.143" style="fill:none;stroke:black;stroke-width:4.17px;stroke-linecap:round;stroke-miterlimit:1.5;"/>
                <path d="M585.771,1319.001C585.771,1319.001 590.001,1470.348 628.519,1626.089C628.519,1626.089 639.168,1663.139 646.832,1714.807C657.03,1783.558 649.608,1775.578 650.228,1811.293C650.435,1823.222 664.212,1823.608 664.679,1830.459C665.361,1840.45 666.848,1852.73 667.724,1862.507C667.724,1862.507 732.647,1887.274 806.311,1856.74C806.311,1856.74 807.039,1844.655 809.192,1828.208C809.456,1826.185 822.246,1810.932 822.436,1808.746C825.164,1777.423 817.378,1796.608 825.338,1691.435C825.338,1691.435 815.185,1615.023 813.048,1589.909C813.048,1589.909 823.735,1501.741 823.735,1495.864" style="fill:none;stroke:black;stroke-width:4.17px;stroke-linecap:round;stroke-miterlimit:1.5;"/>
                <path d="M664.679,1830.459C664.679,1830.459 704.065,1848.632 783.947,1834.891" style="fill:none;stroke:black;stroke-width:4.17px;stroke-linecap:round;stroke-miterlimit:1.5;"/>
                <path d="M1080.506,1348.66C1082.727,1317.386 1087.831,1243.153 1086.991,1232.652C1086.991,1232.652 980.255,1256.898 765.847,1262.91C765.847,1262.91 756.198,1262.946 740.334,1262.507C702.121,1261.451 627.845,1257.637 565.51,1243.918M699.766,1389.528C699.766,1389.528 782.59,1407.696 792.208,1407.696C792.208,1407.696 866.483,1616.092 880.91,1658.306C880.91,1658.306 903.832,1734.636 920.027,1846.428C920.314,1848.413 935.64,1862.769 936.004,1864.621C938.575,1877.687 937.808,1883.776 939.208,1889.403C939.208,1889.403 1005.255,1912.661 1078.728,1883.367C1080.829,1882.53 1079.536,1872.256 1079.666,1851.433C1079.678,1849.583 1095.984,1829.392 1095.86,1827.436C1094.088,1799.447 1088.716,1824.923 1082.182,1708.223C1082.182,1708.223 1075.235,1643.567 1062.411,1607.231C1062.411,1607.231 1059.205,1602.956 1060.273,1565.552C1060.273,1565.552 1061.526,1552.804 1063.393,1533.673" style="fill:none;stroke:black;stroke-width:4.17px;stroke-linecap:round;stroke-miterlimit:1.5;"/>
                <path d="M755.16,1262.824C755.16,1262.824 757.855,1328.03 768.969,1403.959" style="fill:none;stroke:black;stroke-width:4.17px;stroke-linecap:round;stroke-miterlimit:1.5;"/>
                <path d="M764.261,1368.593C764.261,1368.593 735.998,1365.448 730.655,1359.214C730.655,1359.214 719.522,1282.21 721.304,1262.824" style="fill:none;stroke:black;stroke-width:4.17px;stroke-linecap:round;stroke-miterlimit:1.5;"/>
                <path d="M1078.686,1851.427C1078.686,1851.427 1074.487,1867.076 955.022,1866.694" style="fill:none;stroke:black;stroke-width:4.17px;stroke-linecap:round;stroke-miterlimit:1.5;"/>
                <path d="M968.766,1250.461C968.766,1250.461 979.453,1279.85 985.464,1289.869C985.464,1289.869 1052.926,1290.537 1068.289,1285.193" style="fill:none;stroke:black;stroke-width:2.08px;stroke-linecap:round;stroke-miterlimit:1.5;"/>
                <path d="M580.695,1250.461C580.695,1250.461 576.019,1276.51 576.019,1284.525" style="fill:none;stroke:black;stroke-width:2.08px;stroke-linecap:round;stroke-miterlimit:1.5;"/>
            </g>
        </g>
    </g>
</svg>
