<?xml version="1.0" encoding="UTF-8" standalone="no"?>
<!DOCTYPE svg PUBLIC "-//W3C//DTD SVG 1.1//EN" "http://www.w3.org/Graphics/SVG/1.1/DTD/svg11.dtd">
<svg width="100%" height="100%" viewBox="0 0 526 670" version="1.1" xmlns="http://www.w3.org/2000/svg" xmlns:xlink="http://www.w3.org/1999/xlink" xml:space="preserve" xmlns:serif="http://www.serif.com/" style="fill-rule:evenodd;clip-rule:evenodd;stroke-linecap:round;stroke-linejoin:round;stroke-miterlimit:1.5;">
    <g transform="matrix(1,0,0,1,-563.427061,-1230.568651)">
        <g>
            <path d="M565.51,1243.768C565.51,1243.768 569.266,1288 586.187,1320.655C586.187,1320.655 590.937,1405.854 594.499,1427.524C594.499,1427.524 606.076,1529.645 613.201,1552.206C613.201,1552.206 632.794,1651.951 637.544,1667.685C637.544,1667.685 647.637,1725.276 649.715,1738.635C649.715,1738.635 666.339,1846.577 665.745,1859.845C665.745,1859.845 661.797,1863.539 679.698,1866.478C679.698,1866.478 734.469,1877.263 750.766,1871.469C750.766,1871.469 794.126,1864.313 808.461,1855.336L818.736,1774.757L825.382,1706.36L825.382,1690.329L820.232,1647.154L814.033,1590.085L817.881,1550.544L823.652,1497.109L828.995,1508.864C828.995,1508.864 866.934,1620.73 871.743,1634.623L881.896,1664.013C881.896,1664.013 898.995,1727.333 900.865,1737.486C900.865,1737.486 921.705,1816.035 923.842,1824.05C923.842,1824.05 940.14,1882.829 940.674,1890.577C940.674,1890.577 1007.662,1911.402 1081.208,1882.829C1081.208,1882.829 1085.289,1779.744 1084.398,1766.979C1084.398,1766.979 1083.211,1695.732 1079.352,1682.373C1079.352,1682.373 1067.477,1621.22 1061.837,1601.924C1061.837,1601.924 1058.868,1575.504 1061.243,1560.067C1061.243,1560.067 1068.368,1473.383 1070.149,1463.587C1071.93,1453.791 1078.164,1381.654 1079.055,1371.56C1079.945,1361.467 1083.805,1309.383 1084.695,1300.247C1085.586,1291.111 1087.083,1232.652 1087.083,1232.652C1087.083,1232.652 1039.275,1242.441 1021.167,1243.918C1003.058,1245.394 903.907,1256.972 888.173,1257.566C872.44,1258.159 773.882,1263.206 753.695,1262.315C733.509,1261.425 664.934,1259.644 651.575,1256.972C638.216,1254.3 585.451,1249.566 565.524,1243.918" style="fill:rgb(73,90,173);"/>
            <clipPath id="_clip1">
                <path d="M565.51,1243.768C565.51,1243.768 569.266,1288 586.187,1320.655C586.187,1320.655 590.937,1405.854 594.499,1427.524C594.499,1427.524 606.076,1529.645 613.201,1552.206C613.201,1552.206 632.794,1651.951 637.544,1667.685C637.544,1667.685 647.637,1725.276 649.715,1738.635C649.715,1738.635 666.339,1846.577 665.745,1859.845C665.745,1859.845 661.797,1863.539 679.698,1866.478C679.698,1866.478 734.469,1877.263 750.766,1871.469C750.766,1871.469 794.126,1864.313 808.461,1855.336L818.736,1774.757L825.382,1706.36L825.382,1690.329L820.232,1647.154L814.033,1590.085L817.881,1550.544L823.652,1497.109L828.995,1508.864C828.995,1508.864 866.934,1620.73 871.743,1634.623L881.896,1664.013C881.896,1664.013 898.995,1727.333 900.865,1737.486C900.865,1737.486 921.705,1816.035 923.842,1824.05C923.842,1824.05 940.14,1882.829 940.674,1890.577C940.674,1890.577 1007.662,1911.402 1081.208,1882.829C1081.208,1882.829 1085.289,1779.744 1084.398,1766.979C1084.398,1766.979 1083.211,1695.732 1079.352,1682.373C1079.352,1682.373 1067.477,1621.22 1061.837,1601.924C1061.837,1601.924 1058.868,1575.504 1061.243,1560.067C1061.243,1560.067 1068.368,1473.383 1070.149,1463.587C1071.93,1453.791 1078.164,1381.654 1079.055,1371.56C1079.945,1361.467 1083.805,1309.383 1084.695,1300.247C1085.586,1291.111 1087.083,1232.652 1087.083,1232.652C1087.083,1232.652 1039.275,1242.441 1021.167,1243.918C1003.058,1245.394 903.907,1256.972 888.173,1257.566C872.44,1258.159 773.882,1263.206 753.695,1262.315C733.509,1261.425 664.934,1259.644 651.575,1256.972C638.216,1254.3 585.451,1249.566 565.524,1243.918"/>
            </clipPath>
            <g clip-path="url(#_clip1)">
                <g transform="matrix(0.006461,0.11541,-0.11541,0.006461,917.854825,1665.016502)">
                    <g transform="matrix(1,0,0,1,-3643.75,-5168.75)">
                        <g id="_5a7f5f47abc3d121aba71181.png" serif:id="5a7f5f47abc3d121aba71181.png" transform="matrix(9.809338,0,0,9.809338,1487.916371,3540.618292)">
                            <path d="M131.908,46.381C133.181,46.559 133.23,46.931 134.237,46.096C142.771,39.013 156.65,41.486 161.526,50.484C175.436,76.149 142.517,105.234 127.284,89.739C123.632,86.025 125.05,91.603 121.092,115.436C120.525,118.854 117.019,118.398 108.534,118.196C105.957,118.134 107.621,112.401 107.761,111.541C118.48,45.713 117.115,43.654 120.503,43.541C130.398,43.21 131.81,42.973 131.908,46.381ZM127.087,69.483C128.239,94.607 158.395,75.371 148.499,58.5C145.369,53.163 130.477,49.759 127.087,69.483Z" style="fill:rgb(254,254,254);"/>
                            <path d="M303.935,61.531C303.934,60.823 303.926,54.362 300.541,53.363C286.181,49.127 288.392,89.962 284.333,92.047C283.837,92.301 272.861,92.251 272.605,92.132C268.421,90.19 281.877,56.107 272.538,53.37C259.576,49.57 259.998,82.28 257.572,90.52C256.756,93.293 243.399,93.064 243.666,90.502C243.715,90.035 250.879,45.057 250.992,44.692C251.593,42.738 263.815,43.515 264.262,43.842C264.904,44.312 264.047,48.491 266.707,45.911C270.1,42.62 277.748,40.606 283.649,43.139C288.949,45.414 288.559,50.733 292.806,46.858C298.682,41.496 310.238,39.854 315.44,45.555C317.864,48.212 320.64,51.255 313.431,90.482C312.985,92.906 306.42,92.26 301.516,92.215C297.789,92.18 300.305,89.827 303.935,61.531Z" style="fill:rgb(254,254,254);"/>
                            <path d="M31.534,94.12C24.437,92.448 23.744,93.497 18.721,88.276C10.687,79.927 14.616,78.172 14.886,77.95C19.728,73.96 23.153,69.353 24.833,73.35C29.157,83.637 39.907,82.6 44.084,77.155C54.882,63.076 34.131,57.494 33.627,57.244C31.505,56.191 14.844,47.923 25.818,28.684C39.127,5.351 70.443,19.701 66.017,25.15C60.919,31.428 59.199,34.206 57.147,31.837C51.166,24.932 42.528,28.407 39.923,31.856C32.396,41.822 48.092,46.359 51.301,47.896C70.258,56.982 61.991,76.538 55.01,85.06C47.775,93.892 33.547,94.092 31.534,94.12Z" style="fill:rgb(254,254,254);"/>
                            <path d="M319.92,72.513C320.168,70.685 321.868,58.142 327.954,50.895C331.622,46.526 337.314,43.723 340.612,42.917C366.657,36.557 369.802,60.597 367,68.69C365.695,72.46 335.593,67.786 334.678,71.55C332.429,80.805 342.682,87.783 350.436,79.439C353.217,76.447 353.736,76.32 363.572,78.326C366.432,78.909 360.859,84.983 360.438,85.441C352.064,94.567 321.689,103.426 319.92,72.513ZM338.382,57.427C337.402,60.017 335.7,61.412 338.501,61.491C354.542,61.939 354.92,60.824 354.939,59.5C355.013,54.425 346.774,45.716 338.382,57.427Z" style="fill:rgb(254,254,254);"/>
                            <path d="M215.5,70.122C214.815,70.238 214.102,70.09 213.417,70.206C210.818,70.648 210.769,82.986 219.509,83.134C225.758,83.239 229.223,77.863 229.555,77.56C230.97,76.267 243.183,77.261 241.642,80.565C234.059,96.83 197.48,101.595 197.311,73.501C197.072,33.796 252.797,31.215 244.44,68.482C243.982,70.526 243.114,70.122 215.5,70.122ZM217.342,55.359C217.041,55.769 212.97,61.312 215.516,61.444C232.127,62.303 232.506,60.858 232.381,59.506C231.811,53.354 225.06,47.705 217.342,55.359Z" style="fill:rgb(254,254,254);"/>
                            <path d="M79.084,74.5C80.325,87.292 92.578,83.241 94.823,72.576C97.799,58.434 97.797,43.633 101.503,43.542C106.551,43.417 113.528,42.841 113.173,45.479C108.891,77.371 106.773,80.66 105.1,83.258C95.049,98.868 61.59,99.663 64.941,73.552C65.245,71.179 68.522,45.642 70.152,44.11C70.784,43.515 83.598,42.102 83.337,45.491C83.017,49.651 79.894,63.977 79.084,74.5Z" style="fill:rgb(254,254,254);"/>
                            <path d="M165.894,78.56C170.717,48.561 171.05,44.652 171.903,43.986C172.258,43.709 185.648,41.921 185.003,45.608C184.052,51.043 189.498,41.679 197.511,41.95C206.416,42.252 202.117,48.154 201.71,49.562C200.558,53.543 200.444,55.85 197.4,54.808C181.133,49.239 180.124,77.564 178.131,89.442C177.57,92.785 174.602,92.44 165.534,92.211C163.063,92.149 164.829,85.167 165.894,78.56Z" style="fill:rgb(254,254,254);"/>
                        </g>
                    </g>
                </g>
            </g>
            <g>
                <path d="M565.51,1243.918C565.51,1243.918 569.073,1300.025 606.032,1356.577" style="fill:none;stroke:black;stroke-width:4.17px;"/>
                <path d="M585.771,1319.001C585.771,1319.001 590.001,1470.348 628.519,1626.089C628.519,1626.089 655.815,1752.708 665.612,1862.026C665.612,1862.026 734.25,1886.74 807.914,1856.206C807.914,1856.206 826.406,1722.962 825.338,1691.435C825.338,1691.435 815.185,1615.023 813.048,1589.909C813.048,1589.909 823.735,1501.741 823.735,1495.864" style="fill:none;stroke:black;stroke-width:4.17px;"/>
                <path d="M699.766,1389.528C699.766,1389.528 782.59,1407.696 792.208,1407.696C792.208,1407.696 866.483,1616.092 880.91,1658.306C880.91,1658.306 930.738,1851.05 940.49,1890.258C940.49,1890.258 1007.907,1912.02 1081.38,1882.726C1081.38,1882.726 1086.457,1753.108 1082.182,1708.223C1082.182,1708.223 1075.235,1643.567 1062.411,1607.231C1062.411,1607.231 1059.205,1602.956 1060.273,1565.552C1060.273,1565.552 1078.441,1380.667 1079.51,1362.499C1079.51,1362.499 1088.06,1246.011 1086.991,1232.652C1086.991,1232.652 980.255,1256.898 765.847,1262.91C765.847,1262.91 756.198,1262.946 740.334,1262.507C702.121,1261.451 627.845,1257.637 565.51,1243.918" style="fill:none;stroke:black;stroke-width:4.17px;"/>
                <path d="M751.014,1262.755C751.014,1262.755 750.287,1330.94 767.017,1403.582" style="fill:none;stroke:black;stroke-width:2.08px;"/>
                <path d="M759.013,1361.591C759.013,1361.591 726.305,1362.674 722.297,1355.327C722.297,1355.327 712.946,1302.435 711.61,1262.755" style="fill:none;stroke:black;stroke-width:2.08px;"/>
                <path d="M968.766,1250.461C968.766,1250.461 979.453,1279.85 985.464,1289.869C985.464,1289.869 1052.926,1290.537 1068.289,1285.193" style="fill:none;stroke:black;stroke-width:2.08px;"/>
                <path d="M580.695,1250.461C580.695,1250.461 576.019,1276.51 576.019,1284.525" style="fill:none;stroke:black;stroke-width:2.08px;"/>
                <path d="M1074.506,1235.16C1074.506,1235.16 1040.903,1557.047 1051.59,1608.7C1051.59,1608.7 1081.87,1699.094 1073.855,1882.109" style="fill:none;stroke:black;stroke-width:2.08px;"/>
                <path d="M808.461,1451.29C808.461,1451.29 783.08,1565.74 783.97,1595.235C783.97,1595.235 815.141,1689.075 790.204,1859.845" style="fill:none;stroke:black;stroke-width:2.08px;"/>
            </g>
        </g>
    </g>
</svg>
