<?xml version="1.0" encoding="UTF-8" standalone="no"?>
<svg width="100%" height="100%" viewBox="0 0 540 670" version="1.1" xmlns="http://www.w3.org/2000/svg" xmlns:xlink="http://www.w3.org/1999/xlink" xml:space="preserve" xmlns:serif="http://www.serif.com/" style="fill-rule:evenodd;clip-rule:evenodd;stroke-linecap:round;stroke-linejoin:round;stroke-miterlimit:1.5;">
    <g transform="matrix(1,0,0,1,-563.427061,-1230.568651)">
        <g>
            <g>
                <path d="M565.51,1243.768C565.51,1243.768 569.266,1288 586.187,1320.655C586.187,1320.655 584.553,1326.95 585.771,1345.759C586.076,1350.458 575.911,1378.41 574.935,1383.562C573.046,1393.54 568.245,1412.717 571.738,1418.719C572.776,1420.503 574.515,1422.458 574.34,1424.376C573.901,1429.212 566.633,1443.689 570.494,1443.473C574.988,1443.221 558.583,1489.427 580.392,1529.906C580.392,1529.906 586.433,1537.31 594.474,1540.826C601.276,1543.801 609.936,1541.866 613.201,1552.206C613.201,1552.206 632.794,1651.951 637.544,1667.685C637.544,1667.685 647.637,1725.276 649.715,1738.635C649.715,1738.635 654.043,1767.151 650.659,1806.849C648.831,1828.291 662.841,1818.494 664.679,1833.238C666.281,1846.08 668.252,1857.862 668.097,1861.341C668.097,1861.341 661.797,1863.539 679.698,1866.478C679.698,1866.478 734.64,1874.698 750.937,1868.905C750.937,1868.905 792.202,1865.81 806.538,1856.833L811.597,1822.789L822.797,1808.527L823.055,1788.568L821.704,1756.516L825.382,1706.36L825.382,1690.329L820.232,1647.154L814.033,1590.085L817.881,1550.544L823.652,1497.109L828.995,1508.864C828.995,1508.864 866.934,1620.73 871.743,1634.623L881.896,1664.013C881.896,1664.013 898.995,1727.333 900.865,1737.486C900.865,1737.486 914.491,1811.493 916.628,1819.508C916.361,1856.913 931.928,1856.295 934.287,1862.919C938.707,1875.326 940.455,1887.403 940.674,1890.577C940.674,1890.577 1005.738,1910.76 1079.284,1882.187C1079.284,1882.187 1080.104,1868.211 1081.092,1849.939C1081.735,1838.058 1095.254,1839.537 1095.861,1826.686C1096.848,1805.795 1084.746,1771.963 1084.398,1766.979C1084.398,1766.979 1083.211,1695.732 1079.352,1682.373C1079.352,1682.373 1067.477,1621.22 1061.837,1601.924C1061.837,1601.924 1058.868,1575.504 1061.243,1560.067C1061.243,1560.067 1061.17,1547.357 1064.355,1534.981C1064.834,1533.121 1071.411,1535.165 1072.519,1533.438C1074.715,1530.016 1083.542,1525.928 1085.501,1522.769C1092.335,1511.756 1095.125,1506.314 1095.861,1502.265C1096.868,1496.725 1101.233,1471.335 1100.026,1446.926C1099.668,1439.675 1093.348,1419.492 1095.861,1415.094C1097.195,1412.759 1099.501,1412.847 1100.026,1411.413C1103.411,1402.178 1088.2,1362.29 1085.826,1358.079C1083.982,1354.808 1080.749,1352.857 1080.866,1348.66C1081.39,1329.788 1084.121,1306.132 1084.695,1300.247C1085.586,1291.111 1087.083,1232.652 1087.083,1232.652C1087.083,1232.652 1039.275,1242.441 1021.167,1243.918C1003.058,1245.394 903.907,1256.972 888.173,1257.566C872.44,1258.159 773.882,1263.206 753.695,1262.315C733.509,1261.425 664.934,1259.644 651.575,1256.972C638.216,1254.3 585.451,1249.566 565.524,1243.918" style="fill:rgb(57,62,24);"/>
                <path d="M565.51,1243.918C565.51,1243.918 569.073,1300.025 606.032,1356.577" style="fill:none;stroke:black;stroke-width:4.17px;"/>
                <path d="M585.771,1348.66C585.771,1348.66 563.966,1410.11 572.457,1420.263" style="fill:none;stroke:black;stroke-width:4.17px;"/>
                <path d="M585.771,1367.21C585.771,1367.21 542.786,1519.76 593.272,1539.779L610.697,1547.252" style="fill:none;stroke:black;stroke-width:4.17px;"/>
                <path d="M585.771,1399.471C585.771,1399.471 566.279,1511.017 599.008,1524.375" style="fill:none;stroke:black;stroke-width:4.17px;"/>
                <path d="M1080.59,1348.66C1080.59,1348.66 1099.559,1379.5 1100.628,1412.095C1100.628,1412.095 1041.85,1439.659 1036.506,1435.206C1036.506,1435.206 1033.389,1412.127 1017.359,1376.37" style="fill:none;stroke:black;stroke-width:4.17px;"/>
                <path d="M1080.59,1348.66C1080.59,1348.66 1016.468,1361.555 1010.234,1367.21C1010.234,1367.21 1015.845,1524.258 1012.639,1545.1C1012.639,1545.1 1030.361,1547.107 1068.612,1532.391C1068.612,1532.391 1113.67,1530.775 1095.861,1417.394" style="fill:none;stroke:black;stroke-width:4.17px;"/>
                <path d="M1040.358,1435.693C1040.358,1435.693 1062.155,1529.807 1017.359,1545.143" style="fill:none;stroke:black;stroke-width:4.17px;"/>
                <path d="M585.771,1319.001C585.771,1319.001 590.001,1470.348 628.519,1626.089C628.519,1626.089 639.168,1663.139 646.832,1714.807C657.03,1783.558 649.608,1775.578 650.228,1811.293C650.435,1823.222 664.212,1823.608 664.679,1830.459C665.361,1840.45 666.848,1852.73 667.724,1862.507C667.724,1862.507 732.647,1887.274 806.311,1856.74C806.311,1856.74 807.039,1844.655 809.192,1828.208C809.456,1826.185 822.246,1810.932 822.436,1808.746C825.164,1777.423 817.378,1796.608 825.338,1691.435C825.338,1691.435 815.185,1615.023 813.048,1589.909C813.048,1589.909 823.735,1501.741 823.735,1495.864" style="fill:none;stroke:black;stroke-width:4.17px;"/>
                <path d="M664.679,1830.459C664.679,1830.459 704.065,1848.632 783.947,1834.891" style="fill:none;stroke:black;stroke-width:4.17px;"/>
                <path d="M1080.506,1348.66C1082.727,1317.386 1087.831,1243.153 1086.991,1232.652C1086.991,1232.652 980.255,1256.898 765.847,1262.91C765.847,1262.91 756.198,1262.946 740.334,1262.507C702.121,1261.451 627.845,1257.637 565.51,1243.918M699.766,1389.528C699.766,1389.528 782.59,1407.696 792.208,1407.696C792.208,1407.696 866.483,1616.092 880.91,1658.306C880.91,1658.306 903.832,1734.636 920.027,1846.428C920.314,1848.413 935.64,1862.769 936.004,1864.621C938.575,1877.687 937.808,1883.776 939.208,1889.403C939.208,1889.403 1005.255,1912.661 1078.728,1883.367C1080.829,1882.53 1079.536,1872.256 1079.666,1851.433C1079.678,1849.583 1095.984,1829.392 1095.86,1827.436C1094.088,1799.447 1088.716,1824.923 1082.182,1708.223C1082.182,1708.223 1075.235,1643.567 1062.411,1607.231C1062.411,1607.231 1059.205,1602.956 1060.273,1565.552C1060.273,1565.552 1061.526,1552.804 1063.393,1533.673" style="fill:none;stroke:black;stroke-width:4.17px;"/>
                <path d="M755.16,1262.824C755.16,1262.824 757.855,1328.03 768.969,1403.959" style="fill:none;stroke:black;stroke-width:4.17px;"/>
                <path d="M764.261,1368.593C764.261,1368.593 735.998,1365.448 730.655,1359.214C730.655,1359.214 719.522,1282.21 721.304,1262.824" style="fill:none;stroke:black;stroke-width:4.17px;"/>
                <path d="M1078.686,1851.427C1078.686,1851.427 1074.487,1867.076 955.022,1866.694" style="fill:none;stroke:black;stroke-width:4.17px;"/>
                <path d="M968.766,1250.461C968.766,1250.461 979.453,1279.85 985.464,1289.869C985.464,1289.869 1052.926,1290.537 1068.289,1285.193" style="fill:none;stroke:black;stroke-width:2.08px;"/>
                <path d="M580.695,1250.461C580.695,1250.461 576.019,1276.51 576.019,1284.525" style="fill:none;stroke:black;stroke-width:2.08px;"/>
            </g>
        </g>
    </g>
</svg>
