<?xml version="1.0" encoding="UTF-8" standalone="no"?>
<svg width="100%" height="100%" viewBox="0 0 535 670" version="1.1" xmlns="http://www.w3.org/2000/svg" xmlns:xlink="http://www.w3.org/1999/xlink" xml:space="preserve" xmlns:serif="http://www.serif.com/" style="fill-rule:evenodd;clip-rule:evenodd;stroke-linecap:round;stroke-linejoin:round;stroke-miterlimit:1.5;">
    <g transform="matrix(1,0,0,1,-563.427061,-1230.568651)">
        <g>
            <g>
                <g>
                    <path d="M565.51,1243.768C565.51,1243.768 569.266,1288 586.187,1320.655C586.187,1320.655 590.937,1405.854 594.499,1427.524C594.499,1427.524 606.076,1529.645 613.201,1552.206C613.201,1552.206 632.794,1651.951 637.544,1667.685C637.544,1667.685 647.637,1725.276 649.715,1738.635C649.715,1738.635 654.043,1767.151 650.659,1806.849C648.831,1828.291 662.841,1818.494 664.679,1833.238C666.281,1846.08 668.252,1857.862 668.097,1861.341C668.097,1861.341 661.797,1863.539 679.698,1866.478C679.698,1866.478 734.64,1874.698 750.937,1868.905C750.937,1868.905 792.202,1865.81 806.538,1856.833L811.597,1822.789L822.797,1808.527L823.055,1788.568L821.704,1756.516L825.382,1706.36L825.382,1690.329L820.232,1647.154L814.033,1590.085L817.881,1550.544L823.652,1497.109L828.995,1508.864C828.995,1508.864 866.934,1620.73 871.743,1634.623L881.896,1664.013C881.896,1664.013 898.995,1727.333 900.865,1737.486C900.865,1737.486 914.491,1811.493 916.628,1819.508C916.361,1856.913 931.928,1856.295 934.287,1862.919C938.707,1875.326 940.455,1887.403 940.674,1890.577C940.674,1890.577 1005.738,1910.76 1079.284,1882.187C1079.284,1882.187 1078.413,1868.04 1081.092,1849.939C1082.376,1841.264 1097.339,1836.474 1095.861,1823.694C1093.641,1804.512 1086.456,1772.39 1086.108,1767.406C1086.108,1767.406 1083.211,1695.732 1079.352,1682.373C1079.352,1682.373 1067.477,1621.22 1061.837,1601.924C1061.837,1601.924 1058.868,1575.504 1061.243,1560.067C1061.243,1560.067 1068.368,1473.383 1070.149,1463.587C1071.93,1453.791 1078.164,1381.654 1079.055,1371.56C1079.945,1361.467 1083.805,1309.383 1084.695,1300.247C1085.586,1291.111 1087.083,1232.652 1087.083,1232.652C1087.083,1232.652 1039.275,1242.441 1021.167,1243.918C1003.058,1245.394 903.907,1256.972 888.173,1257.566C872.44,1258.159 773.882,1263.206 753.695,1262.315C733.509,1261.425 664.934,1259.644 651.575,1256.972C638.216,1254.3 585.451,1249.566 565.524,1243.918" style="fill:rgb(29,29,29);"/>
                    <clipPath id="_clip1">
                        <path d="M565.51,1243.768C565.51,1243.768 569.266,1288 586.187,1320.655C586.187,1320.655 590.937,1405.854 594.499,1427.524C594.499,1427.524 606.076,1529.645 613.201,1552.206C613.201,1552.206 632.794,1651.951 637.544,1667.685C637.544,1667.685 647.637,1725.276 649.715,1738.635C649.715,1738.635 654.043,1767.151 650.659,1806.849C648.831,1828.291 662.841,1818.494 664.679,1833.238C666.281,1846.08 668.252,1857.862 668.097,1861.341C668.097,1861.341 661.797,1863.539 679.698,1866.478C679.698,1866.478 734.64,1874.698 750.937,1868.905C750.937,1868.905 792.202,1865.81 806.538,1856.833L811.597,1822.789L822.797,1808.527L823.055,1788.568L821.704,1756.516L825.382,1706.36L825.382,1690.329L820.232,1647.154L814.033,1590.085L817.881,1550.544L823.652,1497.109L828.995,1508.864C828.995,1508.864 866.934,1620.73 871.743,1634.623L881.896,1664.013C881.896,1664.013 898.995,1727.333 900.865,1737.486C900.865,1737.486 914.491,1811.493 916.628,1819.508C916.361,1856.913 931.928,1856.295 934.287,1862.919C938.707,1875.326 940.455,1887.403 940.674,1890.577C940.674,1890.577 1005.738,1910.76 1079.284,1882.187C1079.284,1882.187 1078.413,1868.04 1081.092,1849.939C1082.376,1841.264 1097.339,1836.474 1095.861,1823.694C1093.641,1804.512 1086.456,1772.39 1086.108,1767.406C1086.108,1767.406 1083.211,1695.732 1079.352,1682.373C1079.352,1682.373 1067.477,1621.22 1061.837,1601.924C1061.837,1601.924 1058.868,1575.504 1061.243,1560.067C1061.243,1560.067 1068.368,1473.383 1070.149,1463.587C1071.93,1453.791 1078.164,1381.654 1079.055,1371.56C1079.945,1361.467 1083.805,1309.383 1084.695,1300.247C1085.586,1291.111 1087.083,1232.652 1087.083,1232.652C1087.083,1232.652 1039.275,1242.441 1021.167,1243.918C1003.058,1245.394 903.907,1256.972 888.173,1257.566C872.44,1258.159 773.882,1263.206 753.695,1262.315C733.509,1261.425 664.934,1259.644 651.575,1256.972C638.216,1254.3 585.451,1249.566 565.524,1243.918"/>
                    </clipPath>
                    <g clip-path="url(#_clip1)">
                        <g transform="matrix(0.043124,0,0,0.043124,938.830773,1342.509137)">
                            <g transform="matrix(1,0,0,1,-3643.75,-5168.75)">
                                <g id="alo-yoga-1.jpg" transform="matrix(4.903158,0,0,4.903158,1383.333333,2983.333333)">
                                    <path d="M526.5,163.05C530.783,163.219 531.899,161.739 532.591,164.475C532.776,165.206 532.68,441.658 532.639,442.524C532.514,445.183 523.948,444.34 521.5,444.34C500.215,444.34 498.333,445.156 498.31,441.506C498.309,441.322 498.303,166.24 498.313,165.49C498.356,162.433 500.048,163.05 526.5,163.05Z" style="fill:rgb(254,254,254);"/>
                                    <path d="M372.42,277.083C376.079,276.525 397.741,273.223 418.467,281.584C436.251,288.758 434.854,291.27 436.465,291.624C440.904,292.6 434.476,281.303 441.499,281.304C470.944,281.31 472.28,280.858 472.538,283.497C472.55,283.625 472.602,441.955 472.51,442.502C472.142,444.685 471.084,444.354 441.5,444.343C436.771,444.341 438.148,442.196 438.17,437.502C438.201,430.732 434.708,436.415 425.306,441.145C357.045,475.491 286.21,408.034 305.863,339.605C321.679,284.539 370.873,277.453 372.42,277.083ZM388.501,311.113C384.998,311.191 362.481,311.696 348.885,329.813C315.927,373.73 358.062,423.486 397.582,413.863C456.799,399.443 448.001,313.637 388.501,311.113Z" style="fill:rgb(254,254,254);"/>
                                    <path d="M621.423,277.062C627.428,276.159 665.367,270.454 694.124,298.871C758.208,362.194 700.197,464.742 620.466,448.673C552.6,434.995 533.227,351.858 570.784,307.736C589.789,285.409 604.735,281.04 621.423,277.062ZM635.498,311.113C580.651,313.623 569.337,386.262 613.65,409.214C664.587,435.597 713.862,366.637 670.352,324.652C657.412,312.165 638.486,311.257 635.498,311.113Z" style="fill:rgb(254,254,254);"/>
                                </g>
                            </g>
                        </g>
                    </g>
                    <path d="M718.617,1261.724C718.617,1261.724 698.359,1347.592 700.306,1356.943C700.306,1356.943 702.132,1370.865 706.835,1368.276L709.613,1362.907L711.537,1348.8L718.59,1304.556L722.651,1284.037L728.321,1267.366L730.346,1270.144L730.56,1276.343L739.751,1330.633L744.239,1354.144L746.163,1364.831L750.224,1369.706L752.789,1368.276L755.185,1364.831L752.575,1355.213L750.01,1339.61L745.522,1312.465L741.753,1289.808L738.254,1269.076L736.544,1261.724L718.617,1261.724Z" style="fill:rgb(211,211,211);"/>
                </g>
                <path d="M565.51,1243.918C565.51,1243.918 569.073,1300.025 606.032,1356.577" style="fill:none;stroke:black;stroke-width:4.17px;"/>
                <path d="M951.786,1812.188C951.786,1812.188 1009.702,1816.196 1055.219,1761.425" style="fill:none;stroke:black;stroke-width:4.17px;"/>
                <path d="M670.585,1786.839C670.585,1786.839 689.955,1798.83 774.783,1747.398" style="fill:none;stroke:black;stroke-width:4.17px;"/>
                <path d="M585.771,1319.001C585.771,1319.001 590.001,1470.348 628.519,1626.089C628.519,1626.089 639.168,1663.139 646.832,1714.807C657.03,1783.558 649.608,1775.578 650.228,1811.293C650.435,1823.222 664.212,1823.608 664.679,1830.459C665.361,1840.45 666.848,1852.73 667.724,1862.507C667.724,1862.507 732.647,1887.274 806.311,1856.74C806.311,1856.74 807.039,1844.655 809.192,1828.208C809.456,1826.185 822.246,1810.932 822.436,1808.746C825.164,1777.423 817.378,1796.608 825.338,1691.435C825.338,1691.435 815.185,1615.023 813.048,1589.909C813.048,1589.909 823.735,1501.741 823.735,1495.864" style="fill:none;stroke:black;stroke-width:4.17px;"/>
                <path d="M664.679,1830.459C664.679,1830.459 704.065,1848.632 783.947,1834.891" style="fill:none;stroke:black;stroke-width:4.17px;"/>
                <path d="M699.766,1389.528C699.766,1389.528 782.59,1407.696 792.208,1407.696C792.208,1407.696 866.483,1616.092 880.91,1658.306C880.91,1658.306 903.832,1734.636 920.027,1846.428C920.314,1848.413 935.64,1862.769 936.004,1864.621C938.575,1877.687 937.808,1883.776 939.208,1889.403C939.208,1889.403 1005.255,1912.661 1078.728,1883.367C1080.829,1882.53 1079.536,1872.256 1079.666,1851.433C1079.678,1849.583 1095.984,1829.392 1095.86,1827.436C1094.088,1799.447 1088.716,1824.923 1082.182,1708.223C1082.182,1708.223 1075.235,1643.567 1062.411,1607.231C1062.411,1607.231 1059.205,1602.956 1060.273,1565.552C1060.273,1565.552 1078.441,1380.667 1079.51,1362.499C1079.51,1362.499 1088.06,1246.011 1086.991,1232.652C1086.991,1232.652 980.255,1256.898 765.847,1262.91C765.847,1262.91 756.198,1262.946 740.334,1262.507C702.121,1261.451 627.845,1257.637 565.51,1243.918" style="fill:none;stroke:black;stroke-width:4.17px;"/>
                <path d="M718.626,1261.724C718.626,1261.724 697.342,1346.343 700.656,1360.592C700.656,1360.592 704.861,1376.623 709.314,1362.374C709.314,1362.374 722.837,1270.644 728.321,1262.628" style="fill:none;stroke:black;stroke-width:4.17px;"/>
                <path d="M728.321,1262.628L745.001,1363.169C745.001,1363.169 748.817,1373.383 753.016,1368.276C757.214,1363.169 754.161,1363.169 753.397,1358.207C752.634,1353.245 737.749,1269.439 736.604,1261.724" style="fill:none;stroke:black;stroke-width:4.17px;"/>
                <path d="M1078.686,1851.427C1078.686,1851.427 1074.487,1867.076 955.022,1866.694" style="fill:none;stroke:black;stroke-width:4.17px;"/>
                <path d="M968.766,1250.461C968.766,1250.461 979.453,1279.85 985.464,1289.869C985.464,1289.869 1052.926,1290.537 1068.289,1285.193" style="fill:none;stroke:black;stroke-width:2.08px;"/>
                <path d="M580.695,1250.461C580.695,1250.461 576.019,1276.51 576.019,1284.525" style="fill:none;stroke:black;stroke-width:2.08px;"/>
            </g>
        </g>
    </g>
</svg>
