<?xml version="1.0" encoding="UTF-8" standalone="no"?>
<!DOCTYPE svg PUBLIC "-//W3C//DTD SVG 1.1//EN" "http://www.w3.org/Graphics/SVG/1.1/DTD/svg11.dtd">
<svg width="100%" height="100%" viewBox="0 0 372 869" version="1.1" xmlns="http://www.w3.org/2000/svg" xmlns:xlink="http://www.w3.org/1999/xlink" xml:space="preserve" xmlns:serif="http://www.serif.com/" style="fill-rule:evenodd;clip-rule:evenodd;stroke-linecap:round;stroke-linejoin:round;stroke-miterlimit:1.5;">
    <g transform="matrix(1,0,0,1,-178.632658,-1133.727468)">
        <g id="muscle">
            <path d="M223.872,1154.797L203.5,1213.242L190.067,1256.862L183.833,1287.438C183.833,1287.438 179.38,1345.92 180.716,1361.654C182.052,1377.387 181.458,1424.291 184.427,1442.697C187.395,1461.102 190.661,1498.21 198.379,1517.802C206.098,1537.395 206.395,1554.91 230.737,1591.127C230.737,1591.127 242.018,1652.28 244.096,1659.702L250.627,1684.341C250.627,1684.341 251.517,1714.621 253.299,1732.73C255.08,1750.838 256.564,1783.196 261.017,1809.023C265.47,1834.85 272.298,1884.722 272.891,1892.738C273.485,1900.753 277.63,1962.478 277.636,1971.246L295.156,1975.037C295.156,1975.037 347.107,1976.452 355.122,1970.812L358.387,1950.922L368.777,1876.707L376.199,1825.944L379.899,1776.368L377.386,1726.199L364.607,1667.717L361.95,1654.952L360.465,1594.096L361.653,1581.924L364.607,1573.019L367.59,1584.893L383.62,1621.407L388.964,1642.187C388.964,1642.187 398.463,1684.044 407.666,1701.262L418.056,1774.29L428.743,1833.959L438.837,1892.144L448.039,1958.641L452.195,1994.264C452.195,1994.264 478.913,2001.895 504.74,1999.712L528.489,1994.264L529.676,1980.015L537.394,1905.503L545.113,1845.24L548.497,1804.273C548.497,1804.273 550.753,1762.119 542.441,1733.323L521.958,1656.14C521.958,1656.14 515.427,1638.328 516.317,1624.672C516.317,1624.672 520.176,1558.769 521.958,1550.754C523.739,1542.739 527.301,1510.084 527.598,1500.881C527.895,1491.679 529.676,1470.008 530.567,1462.883C531.457,1455.759 532.645,1418.057 532.645,1412.417C532.645,1406.777 532.051,1384.215 532.941,1377.981C533.832,1371.747 537.691,1343.545 538.582,1338.499C539.472,1333.452 541.55,1312.375 541.55,1306.734C541.55,1301.094 540.363,1260.127 538.879,1253.596C537.394,1247.065 520.176,1193.63 516.02,1185.615C511.864,1177.6 493.162,1143.004 490.49,1135.811C490.49,1135.811 451.898,1151.752 429.337,1155.325C406.776,1158.898 344.435,1172.257 322.17,1172.553C322.17,1172.553 279.125,1172.85 265.47,1169.585C265.47,1169.585 239.346,1165.726 233.706,1160.976L223.872,1154.797Z" style="fill:rgb(29,29,29);"/>
            <g id="muscle1" serif:id="muscle" transform="matrix(1,0,0,1,-187.02228,19.514246)">
                <path d="M410.339,1135.811C410.339,1135.811 373.825,1236.001 370.263,1272.515C370.263,1272.515 364.029,1351.777 371.153,1419.461C371.153,1419.461 379.169,1524.503 418.354,1571.751C418.354,1571.751 425.924,1608.757 431.268,1639.482C431.268,1639.482 437.947,1659.965 438.838,1667.535C438.838,1667.535 441.509,1745.461 445.072,1769.062C448.634,1792.662 458.43,1858.565 459.766,1873.26C461.102,1887.954 465.555,1943.616 465.555,1952.522C465.555,1952.522 505.186,1960.091 543.036,1951.186C543.036,1951.186 553.723,1871.033 556.84,1854.557C559.957,1838.082 566.636,1778.413 566.636,1769.062C566.636,1759.71 568.417,1725.423 563.074,1698.26C557.73,1671.098 550.606,1649.724 549.715,1639.927C548.825,1630.131 547.043,1574.024 548.379,1565.118C549.715,1556.212 550.606,1549.978 550.606,1549.978" style="fill:none;stroke:black;stroke-width:4.17px;"/>
                <path d="M453.723,1336.525C453.723,1336.525 507.158,1360.189 522.807,1361.716C522.807,1361.716 525.224,1526.489 571.534,1602.968C571.534,1602.968 583.048,1657.898 595.262,1682.707C595.262,1682.707 604.041,1741.867 607.094,1763.241C610.148,1784.615 622.743,1850.645 624.651,1865.149C626.56,1879.653 638.773,1965.149 638.392,1975.836C638.392,1975.836 681.14,1986.141 715.491,1975.072C715.491,1975.072 722.361,1897.973 725.414,1878.126C728.468,1858.279 735.338,1800.264 734.956,1788.432C734.575,1776.6 738.773,1753.699 728.849,1709.424C718.926,1665.15 708.239,1641.104 706.33,1626.982C704.422,1612.86 700.987,1613.241 705.185,1568.203C709.384,1523.165 713.582,1504.082 714.346,1480.417C715.109,1456.753 720.071,1424.965 720.071,1386.47C720.071,1347.975 720.834,1361.334 721.979,1344.922C723.124,1328.51 729.231,1306.754 729.231,1280.418C729.231,1254.082 729.994,1241.869 715.872,1199.121C701.75,1156.373 687.628,1138.052 677.705,1116.297C677.705,1116.297 647.934,1133.854 521.598,1152.174C521.598,1152.174 443.354,1158.355 411.293,1135.811" style="fill:none;stroke:black;stroke-width:4.17px;"/>
                <g transform="matrix(1,0,0,1,-275.857861,-30.646525)">
                    <path d="M932.93,1156.906C932.93,1156.906 954.338,1231.028 966.628,1262.554C978.919,1294.081 984.796,1312.783 986.934,1369.958C989.071,1427.134 982.125,1450.645 982.125,1489.118C982.125,1527.591 963.957,1601.866 963.422,1653.698C963.422,1653.698 985.865,1758.965 992.277,1789.957C998.689,1820.949 998.155,1834.308 993.88,1881.865L982.964,2002.552" style="fill:none;stroke:black;stroke-width:2.08px;"/>
                </g>
                <g transform="matrix(1,0,0,1,-275.857861,-30.646525)">
                    <path d="M810.643,1520.177C810.643,1520.177 794.613,1648.421 797.284,1679.146C799.956,1709.871 803.296,1713.211 806.635,1739.929C809.975,1766.646 815.986,1798.707 811.979,1841.455C807.971,1884.203 803.964,1926.283 803.296,1944.317C802.628,1962.351 803.207,1980.726 803.207,1980.726" style="fill:none;stroke:black;stroke-width:2.08px;"/>
                </g>
            </g>
        </g>
    </g>
</svg>
