<?xml version="1.0" encoding="UTF-8" standalone="no"?>
<svg width="100%" height="100%" viewBox="0 0 595 759" version="1.1" xmlns="http://www.w3.org/2000/svg" xmlns:xlink="http://www.w3.org/1999/xlink" xml:space="preserve" xmlns:serif="http://www.serif.com/" style="fill-rule:evenodd;clip-rule:evenodd;stroke-linejoin:round;stroke-miterlimit:2;">
    <g transform="matrix(1,0,0,1,-1074.571659,-1234.332229)">
        <g id="fat">
            <path d="M1076.655,1257.759C1076.655,1257.759 1163.934,1289.972 1193.857,1292.257C1223.781,1294.541 1218.488,1300.181 1227.839,1300.181C1237.191,1300.181 1358.221,1298.281 1368.641,1296.945C1379.06,1295.61 1447.381,1295.915 1494.213,1284.388C1504.963,1281.742 1545.586,1270.991 1554.136,1267.785C1562.686,1264.579 1613.029,1247.48 1618.907,1245.075C1624.785,1242.671 1640.423,1236.416 1640.423,1236.416C1640.423,1236.416 1641.902,1235.729 1642.57,1243.076C1643.238,1250.424 1648.581,1291.168 1648.581,1295.175C1648.581,1299.183 1655.076,1344.937 1654.5,1350.948C1653.925,1356.96 1655.744,1387.017 1654.5,1391.358C1653.849,1393.632 1653.513,1401.72 1652.747,1409.658C1652.051,1416.876 1650.852,1423.933 1651.587,1427.093C1654.298,1438.757 1663.686,1466.062 1666.128,1483.627C1667.223,1491.511 1659.532,1488.672 1659.014,1490.948C1657.345,1498.295 1659.562,1513.177 1658.226,1521.86C1657.116,1529.076 1657.204,1583.248 1654.5,1601.189C1653.951,1604.836 1649.439,1606.886 1647.937,1608.037C1643.277,1611.607 1627.371,1609.549 1626.885,1613.763C1624.798,1631.877 1621.864,1653.872 1621.864,1660.871C1621.864,1670.556 1625.871,1684.917 1631.883,1705.623C1637.894,1726.329 1640.232,1755.384 1640.232,1765.403C1640.232,1775.422 1637.894,1812.826 1635.223,1825.851C1632.551,1838.876 1626.539,1866.261 1624.536,1882.626C1622.532,1898.99 1613.849,1935.393 1611.177,1950.755C1608.505,1966.118 1606.316,1979.532 1606.316,1979.532C1606.316,1979.532 1561.193,2000.313 1511.32,1986.36C1511.32,1986.36 1495.884,1889.88 1494.102,1883.053C1492.321,1876.225 1474.51,1805.572 1472.728,1799.635C1470.947,1793.697 1449.276,1705.827 1447.495,1700.78C1445.714,1695.733 1440.964,1692.765 1435.324,1677.328C1429.684,1661.891 1409.794,1616.768 1407.419,1610.237C1405.044,1603.707 1384.858,1547.6 1383.967,1543.741C1383.076,1539.881 1371.202,1503.664 1371.202,1503.664L1362.89,1544.631C1362.89,1544.631 1346.859,1611.722 1346.266,1622.409C1345.672,1633.096 1347.75,1641.408 1350.125,1652.095C1352.5,1662.782 1370.691,1731.06 1370.798,1740.559C1370.905,1750.059 1374.119,1780.932 1368.207,1804.681C1362.296,1828.43 1358.793,1840.913 1358.793,1840.913C1358.793,1840.913 1345.969,1893.279 1344.9,1897.287C1343.831,1901.295 1337.152,1933.623 1337.152,1933.623C1337.152,1933.623 1277.038,1951.256 1236.16,1934.691C1236.16,1934.691 1227.343,1874.31 1226.542,1868.966C1225.74,1863.623 1213.717,1786.677 1212.381,1782.135C1211.046,1777.593 1199.557,1702.517 1197.954,1698.776C1196.351,1695.036 1188.336,1679.005 1187,1673.929C1185.664,1668.853 1179.786,1648.547 1178.717,1644.273C1178.428,1643.116 1170.367,1628.552 1168.061,1622.31C1165.525,1615.445 1168.517,1616.783 1163.155,1613.789C1150.744,1606.86 1142.742,1619.948 1141.473,1616.372C1138.534,1608.09 1122.611,1568.555 1120.473,1561.876C1118.336,1555.197 1112.191,1514.907 1108.985,1505.021C1107.992,1501.961 1103.811,1506.853 1100.257,1500.777C1092.332,1487.225 1098.419,1465.87 1097.496,1461.258C1096.744,1457.497 1098.175,1439.189 1099.669,1432.91C1102.202,1422.274 1099.149,1408.788 1098.565,1406.22C1097.229,1400.342 1093.582,1386.716 1093.802,1380.037C1094.023,1373.357 1093.222,1369.884 1091.351,1364.541C1089.481,1359.197 1083.603,1341.296 1082.802,1334.617C1082,1327.938 1076.485,1293.205 1076.571,1287.594C1076.657,1281.984 1077.103,1274.147 1076.655,1269.872" style="fill:rgb(29,29,29);"/>
            <clipPath id="_clip1">
                <path d="M1076.655,1257.759C1076.655,1257.759 1163.934,1289.972 1193.857,1292.257C1223.781,1294.541 1218.488,1300.181 1227.839,1300.181C1237.191,1300.181 1358.221,1298.281 1368.641,1296.945C1379.06,1295.61 1447.381,1295.915 1494.213,1284.388C1504.963,1281.742 1545.586,1270.991 1554.136,1267.785C1562.686,1264.579 1613.029,1247.48 1618.907,1245.075C1624.785,1242.671 1640.423,1236.416 1640.423,1236.416C1640.423,1236.416 1641.902,1235.729 1642.57,1243.076C1643.238,1250.424 1648.581,1291.168 1648.581,1295.175C1648.581,1299.183 1655.076,1344.937 1654.5,1350.948C1653.925,1356.96 1655.744,1387.017 1654.5,1391.358C1653.849,1393.632 1653.513,1401.72 1652.747,1409.658C1652.051,1416.876 1650.852,1423.933 1651.587,1427.093C1654.298,1438.757 1663.686,1466.062 1666.128,1483.627C1667.223,1491.511 1659.532,1488.672 1659.014,1490.948C1657.345,1498.295 1659.562,1513.177 1658.226,1521.86C1657.116,1529.076 1657.204,1583.248 1654.5,1601.189C1653.951,1604.836 1649.439,1606.886 1647.937,1608.037C1643.277,1611.607 1627.371,1609.549 1626.885,1613.763C1624.798,1631.877 1621.864,1653.872 1621.864,1660.871C1621.864,1670.556 1625.871,1684.917 1631.883,1705.623C1637.894,1726.329 1640.232,1755.384 1640.232,1765.403C1640.232,1775.422 1637.894,1812.826 1635.223,1825.851C1632.551,1838.876 1626.539,1866.261 1624.536,1882.626C1622.532,1898.99 1613.849,1935.393 1611.177,1950.755C1608.505,1966.118 1606.316,1979.532 1606.316,1979.532C1606.316,1979.532 1561.193,2000.313 1511.32,1986.36C1511.32,1986.36 1495.884,1889.88 1494.102,1883.053C1492.321,1876.225 1474.51,1805.572 1472.728,1799.635C1470.947,1793.697 1449.276,1705.827 1447.495,1700.78C1445.714,1695.733 1440.964,1692.765 1435.324,1677.328C1429.684,1661.891 1409.794,1616.768 1407.419,1610.237C1405.044,1603.707 1384.858,1547.6 1383.967,1543.741C1383.076,1539.881 1371.202,1503.664 1371.202,1503.664L1362.89,1544.631C1362.89,1544.631 1346.859,1611.722 1346.266,1622.409C1345.672,1633.096 1347.75,1641.408 1350.125,1652.095C1352.5,1662.782 1370.691,1731.06 1370.798,1740.559C1370.905,1750.059 1374.119,1780.932 1368.207,1804.681C1362.296,1828.43 1358.793,1840.913 1358.793,1840.913C1358.793,1840.913 1345.969,1893.279 1344.9,1897.287C1343.831,1901.295 1337.152,1933.623 1337.152,1933.623C1337.152,1933.623 1277.038,1951.256 1236.16,1934.691C1236.16,1934.691 1227.343,1874.31 1226.542,1868.966C1225.74,1863.623 1213.717,1786.677 1212.381,1782.135C1211.046,1777.593 1199.557,1702.517 1197.954,1698.776C1196.351,1695.036 1188.336,1679.005 1187,1673.929C1185.664,1668.853 1179.786,1648.547 1178.717,1644.273C1178.428,1643.116 1170.367,1628.552 1168.061,1622.31C1165.525,1615.445 1168.517,1616.783 1163.155,1613.789C1150.744,1606.86 1142.742,1619.948 1141.473,1616.372C1138.534,1608.09 1122.611,1568.555 1120.473,1561.876C1118.336,1555.197 1112.191,1514.907 1108.985,1505.021C1107.992,1501.961 1103.811,1506.853 1100.257,1500.777C1092.332,1487.225 1098.419,1465.87 1097.496,1461.258C1096.744,1457.497 1098.175,1439.189 1099.669,1432.91C1102.202,1422.274 1099.149,1408.788 1098.565,1406.22C1097.229,1400.342 1093.582,1386.716 1093.802,1380.037C1094.023,1373.357 1093.222,1369.884 1091.351,1364.541C1089.481,1359.197 1083.603,1341.296 1082.802,1334.617C1082,1327.938 1076.485,1293.205 1076.571,1287.594C1076.657,1281.984 1077.103,1274.147 1076.655,1269.872"/>
            </clipPath>
            <g clip-path="url(#_clip1)">
                <g transform="matrix(0.002934,0.069079,-0.069079,0.002934,1530.899282,1696.0434)">
                    <g transform="matrix(1,0,0,1,-3643.75,-5168.75)">
                        <g id="Balenciaga-Logo-2017-present.jpg" transform="matrix(6.559246,0,0,6.559246,283.333333,2800)">
                            <path d="M420.896,335.5C420.896,232.572 420.895,232.58 420.903,232.527C421.335,229.788 422.659,229.997 455.499,230.516C459.569,230.58 458.206,232.812 478.785,291.392C490.394,324.437 486.472,327.292 489.468,327.293C491.073,327.293 489.841,318.388 489.785,317.493C488.903,303.406 489.234,232.193 489.507,231.503C490.067,230.089 490.533,230.189 508.499,230.51C510.978,230.555 510.734,232.599 510.736,233.497C510.757,242.62 510.999,346.184 510.632,347.537C510.292,348.787 509.788,348.991 478.495,348.91C475.561,348.902 475.291,348.338 472.687,340.439C461.067,305.19 447.952,273.72 443.321,250.577C443.02,249.073 441.094,248.995 441.292,251.473C441.896,259.052 443.361,277.402 442.632,346.506C442.603,349.279 441.197,349.044 423.487,348.908C419.677,348.879 420.917,341.085 420.896,335.5Z" style="fill:none;stroke:white;stroke-width:1.91px;"/>
                            <path d="M862.5,302.9C858.461,302.742 856.498,304.489 856.476,300.501C856.394,286.027 856.156,284.161 858.438,284.034C859.985,283.948 893.668,283.823 894.641,284.175C895.944,284.646 895.811,285.226 895.801,335.5C895.799,340.728 897.578,342.725 890.398,345.211C879.123,349.114 827.615,361.799 815.729,325.428C812.398,315.234 806.998,265.577 820.797,244.705C837.125,220.009 893.338,220.33 896.055,259.513C896.277,262.712 891.352,261.881 876.5,261.882C872.625,261.882 872.291,261.379 871.552,257.491C868.708,242.532 841.462,238.716 838.341,268.481C838.335,268.538 834.883,309.379 840.825,322.354C848.104,338.249 871.625,331.495 872.364,328.467C872.492,327.941 872.764,304.625 872.192,303.69C871.713,302.908 863.278,302.9 862.5,302.9Z" style="fill:none;stroke:white;stroke-width:1.91px;"/>
                            <path d="M384.826,281.501C384.823,291.732 385.744,296.824 382.532,296.962C368.769,297.552 348.008,295.57 347.347,298.465C347.268,298.809 347.219,327.961 347.378,328.534C348.272,331.75 386.568,328.387 388.487,330.509C388.613,330.649 389.985,348.153 387.601,348.805C387.161,348.925 387.185,348.91 332.5,348.91C329.039,348.91 323.172,349.948 323.128,346.523C322.958,333.398 323.11,242.539 323.126,233.496C323.128,232.018 322.956,230.313 325.488,230.279C330.361,230.215 384.878,229.493 386.402,230.643C387.14,231.199 388.489,248.798 385.458,249.205C380.774,249.833 348.247,247.856 347.414,250.471C347.402,250.51 346.793,276.157 347.781,277.241C349.257,278.86 382.866,276.691 384.47,278.521C384.628,278.701 384.496,278.739 384.826,281.501Z" style="fill:none;stroke:white;stroke-width:1.91px;"/>
                            <path d="M541.086,287.5C541.175,254.116 546.681,228.691 585.498,228.79C625.365,228.891 624.189,263.012 622.621,263.714C621.546,264.196 600.543,263.898 600.386,263.855C597.914,263.181 599.977,248.823 588.413,246.937C567.802,243.577 567.047,266.764 566.875,272.516C565.617,314.704 567.329,331.173 582.534,332.193C601.24,333.448 599.077,317.166 600.277,314.376C601.107,312.445 623.359,313.609 623.428,313.646C624.951,314.46 626.731,349.081 586.5,350.493C537.739,352.205 541.098,304.864 541.086,287.5Z" style="fill:none;stroke:white;stroke-width:1.91px;"/>
                            <path d="M290.5,348.91C236.997,348.91 236.968,348.939 236.395,348.731C235.31,348.337 235.311,341.164 235.311,340.5C235.327,232.306 235.216,232.295 235.523,231.51C236.219,229.732 258.022,230.258 258.874,231.159C260.058,232.41 259.095,321.706 259.408,327.505C259.569,330.497 261.206,329.826 295.498,329.855C299.156,329.858 298.418,333.236 298.319,345.499C298.276,350.732 295.737,348.653 290.5,348.91Z" style="fill:none;stroke:white;stroke-width:1.91px;"/>
                            <path d="M674.071,234.5C674.057,347.519 674.197,347.739 673.465,348.46C673.135,348.785 650.9,350.1 650.183,347.608C650.099,347.318 649.803,232.627 650.337,231.407C650.979,229.944 673.156,229.999 673.745,231.349C673.846,231.581 673.769,231.582 674.071,234.5Z" style="fill:none;stroke:white;stroke-width:1.91px;"/>
                            <path d="M92.904,262.527C91.784,268.297 91.31,282.303 71.613,285.775C65.711,286.815 75.189,288.203 75.558,288.258C98.911,291.679 106.879,341.584 68.546,347.787C54.013,350.139 14.477,348.584 14.455,348.564C13.639,347.846 13.734,347.6 13.734,244.5C13.734,238.883 12.936,230.619 15.503,230.524C19.18,230.389 41.534,229.568 61.495,230.612C87.935,231.996 92.943,244.788 92.904,262.527ZM37.958,274.5C38.316,276.905 37.271,277.959 39.554,278.163C62.68,280.228 66.09,273.327 67.096,271.291C69.487,266.454 71.913,249.77 55.483,248.689C38.462,247.569 38.086,249.03 38.037,250.432C37.969,252.356 38.219,252.273 37.958,274.5ZM37.962,316.5C37.964,324.069 36.866,330.881 40.481,330.915C46.268,330.969 75.963,335.424 70.186,307.579C67.428,294.289 49.322,296.233 40.495,296.31C37.282,296.339 38.165,298.095 37.962,316.5Z" style="fill:none;stroke:white;stroke-width:1.91px;"/>
                            <path d="M983.977,240.355C992.635,273.479 1013.572,347.355 1012.524,348.524C1012.447,348.61 988.94,350.339 987.575,347.461C985.709,343.527 982.187,323.07 979.522,322.403C979.258,322.337 947.481,322.004 946.548,322.602C943.824,324.347 940.421,347.956 937.585,348.777C937.25,348.874 916.162,349.235 915.454,348.555C914.11,347.263 927.689,301.722 939.854,255.589C946.08,231.977 945.603,231.379 947.573,230.696C949.911,229.885 949.995,230.437 978.5,230.506C982.576,230.516 983.005,236.811 983.977,240.355ZM954.082,287.38C950.644,301.769 949.558,303.916 952.45,303.968C975.538,304.382 976.75,304.431 976.587,302.503C976.25,298.523 967.586,268.464 964.707,251.399C963.623,244.969 962.162,254.093 962.112,254.407C961.88,255.853 954.734,284.744 954.082,287.38Z" style="fill:none;stroke:white;stroke-width:1.91px;"/>
                            <path d="M703.896,327.623C729.731,232.807 728.533,231.288 731.526,230.613C732.437,230.408 762.976,230.503 763.491,230.559C765.094,230.735 765.22,231.193 770.122,249.599C796.137,347.281 797.3,348.112 795.635,348.749C794.871,349.042 772.922,348.94 772.412,348.801C769.617,348.043 766.06,323.834 763.454,322.598C762.226,322.016 730.945,322.303 730.481,322.429C727.984,323.111 724.655,341.743 722.441,347.472C721.806,349.116 721.295,349.295 700.453,348.918C696.906,348.853 700.052,342.102 703.896,327.623ZM749.883,260.414C748.05,251.439 748.395,251.391 748.234,250.612C747.371,246.437 746.324,251.449 742.733,266.552C734.197,302.459 733.662,302.714 734.46,303.537C735.808,304.93 756.658,304.033 758.587,303.95C760.915,303.85 760.125,302.304 754.177,277.584C751.149,265.003 750.124,261.383 749.883,260.414Z" style="fill:none;stroke:white;stroke-width:1.91px;"/>
                            <path d="M137.979,341.64C136.544,346.751 137.775,348.869 132.503,348.911C113.684,349.062 111.865,349.153 112.556,346.512C112.609,346.307 132.728,272.445 142.961,234.624C144.544,228.774 146.467,230.503 152.5,230.504C177.015,230.51 178.524,229.699 179.547,233.486C181.944,242.366 209.221,343.423 209.508,344.498C210.277,347.379 211.552,348.814 208.564,348.91C206.793,348.967 189.091,349.536 186.413,348.791C182.904,347.815 180.463,322.788 176.521,322.349C176.044,322.296 145.231,322.208 144.475,322.393C142.829,322.795 142.386,325.033 137.979,341.64ZM150.91,289.598C148.262,301.098 147.146,303.859 149.405,303.96C151.337,304.046 172.161,304.976 173.581,303.587C175.04,302.159 163.162,261.148 161.978,251.139C161.171,244.314 159.484,254.153 159.427,254.484C158.738,258.5 151.616,286.795 150.91,289.598Z" style="fill:none;stroke:white;stroke-width:1.91px;"/>
                        </g>
                    </g>
                </g>
            </g>
            <g id="fat1" serif:id="fat">
                <path d="M1076.701,1257.759C1076.148,1295.72 1080.335,1350.832 1103.867,1395.073" style="fill:none;stroke:black;stroke-width:4.17px;stroke-linecap:round;stroke-miterlimit:1.5;"/>
                <path d="M1093.802,1372.597C1093.802,1372.597 1101.552,1488.94 1178.676,1644.08C1178.676,1644.08 1188.116,1680.193 1195.686,1694.887C1203.256,1709.582 1207.264,1759.9 1212.607,1782.164C1212.607,1782.164 1234.872,1914.861 1235.317,1934.454C1235.317,1934.454 1269.159,1950.484 1336.398,1934.454C1336.398,1934.454 1353.319,1860.09 1360.444,1835.154C1360.444,1835.154 1377.81,1773.259 1368.905,1732.292C1359.999,1691.325 1353.765,1669.06 1349.312,1649.022C1344.859,1628.984 1348.421,1609.837 1351.983,1595.142C1355.546,1580.448 1369.35,1514.544 1370.686,1502.522" style="fill:none;stroke:black;stroke-width:4.17px;stroke-linecap:round;stroke-miterlimit:1.5;"/>
                <path d="M1641.066,1236.416C1641.066,1236.416 1518.166,1291.1 1418.421,1295.374C1318.676,1299.647 1307.322,1301.428 1226.39,1298.756C1226.39,1298.756 1147.456,1287.268 1076.655,1259.17M1651.388,1428.934C1652.239,1422.069 1652.864,1416.68 1653.089,1414.087C1653.98,1403.845 1655.761,1354.418 1653.089,1336.606C1650.418,1318.794 1643.293,1248.438 1641.066,1236.416M1243.778,1423.26C1243.778,1423.26 1285.19,1440.181 1354.21,1447.751C1354.21,1447.751 1416.373,1655.835 1447.365,1701.255C1447.365,1701.255 1479.426,1825.224 1490.113,1864.232C1490.113,1864.232 1509.26,1953.78 1511.041,1986.286C1511.041,1986.286 1552.454,2000.535 1606.334,1980.052C1606.334,1980.052 1619.247,1903.462 1624.145,1880.307C1624.145,1880.307 1639.285,1803.717 1638.84,1789.467C1638.395,1775.218 1643.738,1748.946 1630.825,1703.081C1630.825,1703.081 1622.81,1679.035 1621.474,1668.348C1620.138,1657.661 1624.145,1638.068 1625.481,1628.272C1625.73,1626.447 1626.38,1621.209 1627.291,1613.789" style="fill:none;stroke:black;stroke-width:4.17px;stroke-linecap:round;stroke-miterlimit:1.5;"/>
                <g transform="matrix(0.999283,0.037867,-0.037867,0.999283,698.419677,-36.163633)">
                    <path d="M966.218,1614.523C964.63,1628.309 963.547,1641.613 963.422,1653.698C963.422,1653.698 985.865,1758.965 992.277,1789.957C998.689,1820.949 998.155,1834.308 993.88,1881.865L992.569,1895.414M966.193,1248.676C975.215,1268.746 977.002,1309.152 979.349,1323.863C984.041,1353.263 982.849,1390.63 982.08,1429.007" style="fill:none;stroke:black;stroke-width:2.08px;stroke-linecap:round;stroke-miterlimit:1.5;"/>
                </g>
                <g transform="matrix(1,0,0,1.011964,523.740108,-92.67187)">
                    <path d="M810.643,1520.177C810.643,1520.177 794.613,1648.421 797.284,1679.146C799.956,1709.871 803.296,1713.211 806.635,1739.929C808.372,1753.82 810.83,1769.155 812.228,1786.687C813.518,1802.874 813.903,1820.933 811.979,1841.455C807.971,1884.203 803.964,1926.283 803.296,1944.317C802.628,1962.351 800.535,2004.008 800.535,2004.008" style="fill:none;stroke:black;stroke-width:2.07px;stroke-linecap:round;stroke-miterlimit:1.5;"/>
                </g>
                <g transform="matrix(1,0,0,1,537.911695,46.310278)">
                    <path d="M766.263,1253.871C766.263,1253.871 767.672,1322.505 782.812,1395.63" style="fill:none;stroke:black;stroke-width:2.08px;stroke-linecap:round;stroke-miterlimit:1.5;"/>
                </g>
                <path d="M1510.129,1963.899C1510.129,1963.899 1572.024,1976.59 1607.648,1957.888" style="fill:none;stroke:black;stroke-width:2.08px;stroke-linecap:round;stroke-miterlimit:1.5;"/>
                <path d="M1233.412,1913.2C1233.412,1913.2 1286.084,1926.177 1340.664,1912.818" style="fill:none;stroke:black;stroke-width:2.08px;stroke-linecap:round;stroke-miterlimit:1.5;"/>
                <g transform="matrix(1,0,0,1,538.09769,99.745217)">
                    <path d="M743.092,1200.436C743.092,1200.436 748.97,1291.275 755.204,1312.649L778.359,1322.446" style="fill:none;stroke:black;stroke-width:2.08px;stroke-linecap:round;stroke-miterlimit:1.5;"/>
                </g>
                <g transform="matrix(1.110247,0,0,1.091405,564.15605,-7.579731)">
                    <path d="M955.397,1209.732C955.397,1209.732 889.742,1219.584 874.016,1174.164" style="fill:none;stroke:black;stroke-width:1.89px;stroke-linecap:round;stroke-miterlimit:1.5;"/>
                </g>
                <g transform="matrix(1,0,0,1,415.545693,51.653772)">
                    <path d="M693.531,1218.248C693.531,1218.248 679.505,1240.401 661.025,1246.19" style="fill:none;stroke:black;stroke-width:2.08px;stroke-linecap:round;stroke-miterlimit:1.5;"/>
                </g>
                <g transform="matrix(1.125197,0,0,1.162577,1051.923172,-204.451087)">
                    <path d="M532.909,1405.172L479.474,1405.172C479.474,1405.172 472.126,1510.65 474.798,1552.062L475.199,1563.974C475.199,1563.974 524.054,1562.447 531.687,1559.394C539.321,1556.34 538.176,1461.684 539.702,1456.722L546.573,1455.959C546.573,1455.959 539.855,1416.981 532.909,1405.172Z" style="fill:none;stroke:black;stroke-width:3.64px;stroke-linecap:round;stroke-miterlimit:1.5;"/>
                </g>
                <g transform="matrix(1.112092,-0.171233,0.176922,1.149036,652.972477,-135.53009)">
                    <path d="M180.716,1388.681C180.716,1388.681 170.095,1436.396 169.561,1448.34L173.835,1451.675" style="fill:none;stroke:black;stroke-width:3.64px;stroke-linecap:round;stroke-miterlimit:1.5;"/>
                </g>
                <g transform="matrix(1.112092,-0.171233,0.176922,1.149036,652.972477,-135.53009)">
                    <path d="M180.716,1405.172C180.716,1405.172 178.813,1425.656 178.827,1452.767C178.836,1469.002 179.532,1487.612 181.735,1505.624C183.862,1523.015 187.395,1539.848 193.072,1553.443L202.69,1550.665L211.547,1553.925" style="fill:none;stroke:black;stroke-width:3.64px;stroke-linecap:round;stroke-miterlimit:1.5;"/>
                </g>
                <g transform="matrix(1.112092,-0.171233,0.176922,1.149036,652.972477,-135.53009)">
                    <path d="M175.138,1451.675L178.827,1453.86" style="fill:none;stroke:black;stroke-width:3.64px;stroke-linecap:round;stroke-miterlimit:1.5;"/>
                </g>
                <g transform="matrix(1.125197,0,0,1.162577,1051.923172,-204.451087)">
                    <path d="M539.702,1456.722C539.702,1456.722 495.714,1457.891 491.039,1459.561C491.039,1459.561 482.689,1410.23 480.352,1405.172" style="fill:none;stroke:black;stroke-width:1.82px;stroke-linecap:round;stroke-miterlimit:1.5;"/>
                </g>
                <g transform="matrix(1.125197,0,0,1.162577,1051.923172,-204.451087)">
                    <path d="M486.222,1432.367C486.222,1432.367 491.706,1552.586 490.037,1563.974L480.352,1559.331C480.352,1559.331 481.163,1425.075 480.352,1412.385" style="fill:none;stroke:black;stroke-width:1.82px;stroke-linecap:round;stroke-miterlimit:1.5;"/>
                </g>
            </g>
        </g>
    </g>
</svg>
