<?xml version="1.0" encoding="UTF-8" standalone="no"?>
<!DOCTYPE svg PUBLIC "-//W3C//DTD SVG 1.1//EN" "http://www.w3.org/Graphics/SVG/1.1/DTD/svg11.dtd">
<svg width="100%" height="100%" viewBox="0 0 372 833" version="1.1" xmlns="http://www.w3.org/2000/svg" xmlns:xlink="http://www.w3.org/1999/xlink" xml:space="preserve" xmlns:serif="http://www.serif.com/" style="fill-rule:evenodd;clip-rule:evenodd;stroke-linecap:round;stroke-linejoin:round;stroke-miterlimit:1.5;">
    <g transform="matrix(1,0,0,1,-178.632658,-1171.799861)">
        <g id="muscle">
            <g>
                <path d="M208.056,1199.683L203.5,1213.242L190.067,1256.862L183.833,1287.438C183.833,1287.438 179.38,1345.92 180.716,1361.654C181.124,1366.462 179.662,1380.531 180.716,1391.062C183.002,1413.909 180.745,1411.91 182.689,1424.527C184.11,1433.748 185.037,1440.154 185.079,1441.146C185.295,1446.358 186.711,1456.573 188.446,1466.532C192.634,1490.574 191.784,1484.578 194.692,1504.551C195.547,1510.421 201.872,1531.403 203.572,1537.057C205.04,1541.938 205.516,1546.454 209.958,1553.576C216.163,1563.527 219.172,1573.92 230.737,1591.127C230.737,1591.127 242.018,1652.28 244.096,1659.702L250.627,1684.341C250.627,1684.341 251.517,1714.621 253.299,1732.73C255.08,1750.838 256.564,1783.196 261.017,1809.023C265.47,1834.85 272.298,1884.722 272.891,1892.738C273.485,1900.753 276.027,1937.364 276.033,1946.132L299.431,1950.991C299.431,1950.991 350.847,1954.01 358.862,1948.369L361.861,1932.22L368.777,1876.707L376.199,1825.944L379.899,1776.368L377.386,1726.199L364.607,1667.717L361.95,1654.952L360.465,1594.096L361.653,1581.924L364.607,1573.019L367.59,1584.893L383.62,1621.407L388.964,1642.187C388.964,1642.187 398.463,1684.044 407.666,1701.262L418.056,1774.29L428.743,1833.959L438.837,1892.144L448.039,1958.641L448.989,1970.218C448.989,1970.218 478.646,1976.513 504.472,1974.33L530.626,1968.081L532.903,1954.9L537.394,1905.503L545.113,1845.24L548.497,1804.273C548.497,1804.273 550.753,1762.119 542.441,1733.323L521.958,1656.14C521.958,1656.14 515.427,1638.328 516.317,1624.672C516.317,1624.672 516.799,1584.285 521.16,1563.974C522.179,1559.228 520.449,1552.782 520.999,1550.305C522.78,1542.29 526.654,1516.71 526.951,1507.507C527.248,1498.305 528.586,1473.182 529.476,1466.057C529.77,1463.712 530.571,1455.91 530.94,1451.846C531.77,1442.732 532.903,1424.194 532.903,1420.411C532.903,1418.945 532.604,1408.341 532.561,1405.172C532.436,1396.15 532.282,1382.595 532.941,1377.981C533.832,1371.747 537.691,1343.545 538.582,1338.499C539.472,1333.452 541.55,1312.375 541.55,1306.734C541.55,1301.094 540.363,1260.127 538.879,1253.596C537.394,1247.065 518.253,1195.34 514.097,1187.325C509.941,1179.31 509.107,1181.076 506.435,1173.883C506.435,1173.883 462.799,1198.348 440.238,1201.92C417.676,1205.493 356.717,1220.387 313.72,1217.691C313.72,1217.691 260.958,1216.453 247.302,1213.188C247.302,1213.188 224.598,1210.863 218.958,1206.113L208.056,1199.683Z" style="fill:rgb(81,107,174);"/>
                <path d="M275.88,1940.646L270.069,1944.571C270.069,1944.571 275.027,1967.733 272.634,1974.79L289.904,1979.283L322.221,1982.218L352.487,1979.283L359.326,1978.599C359.326,1978.599 362.082,1951.924 364.551,1949.872L364.551,1947.991L360.865,1945.255L358.642,1949.017C358.642,1949.017 307.345,1952.608 296.914,1949.872L277.421,1946.11L275.88,1940.646Z" style="fill:rgb(99,154,207);"/>
                <path d="M447.297,1963.395L441.996,1965.789C441.996,1965.789 446.1,1988.36 445.416,1994.515L451.572,1998.277L471.407,2002.039L492.781,2001.697L532.903,1995.883C532.903,1995.883 535.187,1972.457 536.726,1970.747L532.903,1966.473C532.903,1966.473 515.352,1974.558 496.03,1974.79C496.03,1974.79 453.111,1971.602 449.691,1969.721L448.494,1966.131L447.297,1963.395Z" style="fill:rgb(99,154,207);"/>
            </g>
            <g id="muscle1" serif:id="muscle" transform="matrix(1,0,0,1,-187.02228,19.514246)">
                <path d="M545.897,1929.975L546.534,1925.306L552.535,1929.975C549.596,1937.53 546.657,1959.29 546.657,1959.29C491.085,1968.642 459.291,1955.817 459.291,1955.817C461.161,1949.405 457.154,1925.626 457.154,1925.626L463.573,1920.53L464.009,1926.471C485.558,1935.064 545.897,1929.975 545.897,1929.975C549.293,1905.015 554.757,1865.568 556.84,1854.557C559.957,1838.082 566.636,1778.413 566.636,1769.062C566.636,1759.71 568.417,1725.423 563.074,1698.26C557.73,1671.098 550.606,1649.724 549.715,1639.927C548.825,1630.131 547.043,1574.024 548.379,1565.118C549.715,1556.212 550.606,1549.978 550.606,1549.978M395.175,1179.664C384.685,1211.327 372.266,1251.986 370.263,1272.515C370.263,1272.515 364.029,1351.777 371.153,1419.461C371.153,1419.461 379.169,1524.503 418.354,1571.751C418.354,1571.751 425.924,1608.757 431.268,1639.482C431.268,1639.482 437.947,1659.965 438.838,1667.535C438.838,1667.535 441.509,1745.461 445.072,1769.062C448.634,1792.662 458.43,1858.565 459.766,1873.26C460.588,1882.3 462.59,1906.846 464.009,1926.471" style="fill:none;stroke:black;stroke-width:4.17px;"/>
                <path d="M693.115,1154.369C693.115,1154.369 660.004,1187.957 521.98,1197.594C521.98,1197.594 425.368,1203.106 396.98,1180.563M720.071,1386.47C720.071,1347.975 720.834,1361.334 721.979,1344.922C723.124,1328.51 729.231,1306.754 729.231,1280.418C729.231,1254.082 729.279,1214.817 693.115,1154.369M717.932,1948.5C720.211,1924.234 723.535,1890.34 725.414,1878.126C728.468,1858.279 735.338,1800.264 734.956,1788.432C734.575,1776.6 738.773,1753.699 728.849,1709.424C718.926,1665.15 708.239,1641.104 706.33,1626.982C704.422,1612.86 700.987,1613.241 705.185,1568.203C706.128,1558.087 707.071,1549.28 707.976,1541.437M453.723,1336.525C453.723,1336.525 507.158,1360.189 522.807,1361.716C522.807,1361.716 525.224,1526.489 571.534,1602.968C571.534,1602.968 583.048,1657.898 595.262,1682.707C595.262,1682.707 604.041,1741.867 607.094,1763.241C610.148,1784.615 622.743,1850.645 624.651,1865.149C625.958,1875.079 632.095,1918.287 635.713,1947.98" style="fill:none;stroke:black;stroke-width:4.17px;"/>
                <g transform="matrix(1,0,0,1,-275.857861,-30.646525)">
                    <path d="M986.71,1416.304C979.902,1570.856 963.664,1630.29 963.422,1653.698C963.422,1653.698 985.865,1758.965 992.277,1789.957C998.689,1820.949 998.155,1834.308 993.88,1881.865L984.847,1981.736M944.953,1200.322C944.953,1200.322 954.338,1231.028 966.628,1262.554C978.919,1294.081 984.796,1312.783 986.934,1369.958C987.621,1388.351 987.369,1403.26 986.71,1416.304" style="fill:none;stroke:black;stroke-width:2.08px;"/>
                </g>
                <g transform="matrix(1,0,0,1,-275.857861,-30.646525)">
                    <path d="M810.643,1520.177C810.643,1520.177 794.613,1648.421 797.284,1679.146C799.956,1709.871 803.296,1713.211 806.635,1739.929C809.975,1766.646 815.986,1798.707 811.979,1841.455C807.971,1884.203 803.964,1926.283 803.296,1944.317C803.089,1949.905 803.001,1955.525 802.98,1960.622" style="fill:none;stroke:black;stroke-width:2.08px;"/>
                </g>
                <g transform="matrix(1,0,0,1,-275.857861,-30.646525)">
                    <path d="M774.463,1228.823C774.463,1228.823 770.6,1309.355 779.564,1386.635" style="fill:none;stroke:black;stroke-width:2.08px;"/>
                </g>
                <g transform="matrix(1,0,0,1,-275.857861,-30.646525)">
                    <path d="M754.314,1228.823C754.314,1228.823 749.972,1308.642 756.206,1330.016L773.635,1338.699" style="fill:none;stroke:black;stroke-width:2.08px;"/>
                </g>
                <g transform="matrix(1,0,0,1,-275.857861,-30.646525)">
                    <path d="M959.98,1246.467C959.98,1246.467 901.765,1262.665 886.039,1217.246" style="fill:none;stroke:black;stroke-width:2.08px;"/>
                </g>
                <g transform="matrix(1,0,0,1,-275.857861,-30.646525)">
                    <path d="M688.077,1221.587C688.077,1221.587 674.384,1249.529 661.025,1246.19" style="fill:none;stroke:black;stroke-width:2.08px;"/>
                </g>
                <g transform="matrix(1,0,0,1,187.02228,-19.514246)">
                    <path d="M532.903,1407.099C532.903,1407.099 526.342,1542.734 520.999,1559.655" style="fill:none;stroke:black;stroke-width:4.17px;"/>
                </g>
                <g transform="matrix(1,0,0,1,187.02228,-19.514246)">
                    <path d="M441.644,1965.957C441.644,1965.957 446.097,1986.737 444.91,1994.752C444.91,1994.752 455.731,2011.257 532.903,1996.296C532.903,1996.296 535.267,1976.204 537.404,1970.647L532.903,1967.441C532.903,1967.441 499.999,1981.548 449.129,1969.792L447.419,1964.021L441.644,1965.957Z" style="fill:none;stroke:black;stroke-width:4.17px;"/>
                </g>
            </g>
        </g>
    </g>
</svg>
