<?xml version="1.0" encoding="UTF-8" standalone="no"?>
<svg width="100%" height="100%" viewBox="0 0 583 805" version="1.1" xmlns="http://www.w3.org/2000/svg" xmlns:xlink="http://www.w3.org/1999/xlink" xml:space="preserve" xmlns:serif="http://www.serif.com/" style="fill-rule:evenodd;clip-rule:evenodd;stroke-linecap:round;stroke-linejoin:round;stroke-miterlimit:1.5;">
    <g transform="matrix(1,0,0,1,-1074.571659,-1188.467239)">
        <g id="fat">
            <path d="M1635.843,1190.551C1635.843,1190.551 1641.902,1235.729 1642.57,1243.076C1643.238,1250.424 1648.581,1291.168 1648.581,1295.175C1648.581,1299.183 1655.076,1344.937 1654.5,1350.948C1653.925,1356.96 1655.744,1387.017 1654.5,1391.358C1653.257,1395.7 1652.923,1420.414 1651.587,1427.093C1650.251,1433.772 1646.577,1471.845 1644.908,1479.192C1643.238,1486.539 1639.898,1516.596 1638.562,1525.28C1637.226,1533.963 1632.885,1575.375 1630.881,1586.396C1628.877,1597.417 1621.864,1651.186 1621.864,1660.871C1621.864,1670.556 1625.871,1684.917 1631.883,1705.623C1637.894,1726.329 1640.232,1755.384 1640.232,1765.403C1640.232,1775.422 1637.894,1812.826 1635.223,1825.851C1632.551,1838.876 1626.539,1866.261 1624.536,1882.626C1622.532,1898.99 1613.849,1935.393 1611.177,1950.755C1608.505,1966.118 1606.316,1979.532 1606.316,1979.532C1606.316,1979.532 1561.193,2000.313 1511.32,1986.36C1511.32,1986.36 1495.884,1889.88 1494.102,1883.053C1492.321,1876.225 1474.51,1805.572 1472.728,1799.635C1470.947,1793.697 1449.276,1705.827 1447.495,1700.78C1445.714,1695.733 1440.964,1692.765 1435.324,1677.328C1429.684,1661.891 1409.794,1616.768 1407.419,1610.237C1405.044,1603.707 1384.858,1547.6 1383.967,1543.741C1383.076,1539.881 1371.202,1503.664 1371.202,1503.664L1362.89,1544.631C1362.89,1544.631 1346.859,1611.722 1346.266,1622.409C1345.672,1633.096 1347.75,1641.408 1350.125,1652.095C1352.5,1662.782 1370.691,1731.06 1370.798,1740.559C1370.905,1750.059 1374.119,1780.932 1368.207,1804.681C1362.296,1828.43 1358.793,1840.913 1358.793,1840.913C1358.793,1840.913 1345.969,1893.279 1344.9,1897.287C1343.831,1901.295 1337.152,1933.623 1337.152,1933.623C1337.152,1933.623 1277.038,1951.256 1236.16,1934.691C1236.16,1934.691 1227.343,1874.31 1226.542,1868.966C1225.74,1863.623 1213.717,1786.677 1212.381,1782.135C1211.046,1777.593 1199.557,1702.517 1197.954,1698.776C1196.351,1695.036 1188.336,1679.005 1187,1673.929C1185.664,1668.853 1179.786,1648.547 1178.717,1644.273C1177.649,1639.998 1163.221,1611.41 1160.282,1603.128C1157.343,1594.845 1143.985,1564.922 1141.847,1558.242C1139.71,1551.563 1128.221,1521.105 1125.015,1511.22C1121.809,1501.334 1112.191,1468.739 1110.855,1462.059C1109.519,1455.38 1099.901,1412.098 1098.565,1406.22C1097.229,1400.342 1093.582,1386.716 1093.802,1380.037C1094.023,1373.357 1093.222,1369.884 1091.351,1364.541C1089.481,1359.197 1083.603,1341.296 1082.802,1334.617C1082,1327.938 1076.485,1293.205 1076.571,1287.594C1076.657,1281.984 1077.019,1254.999 1076.571,1250.724C1076.122,1246.449 1076.655,1225.877 1076.655,1225.877L1079.596,1212.86C1079.596,1212.86 1156.809,1237.873 1186.733,1240.157C1216.656,1242.442 1265.816,1244.045 1275.168,1244.045C1284.519,1244.045 1349.442,1244.846 1359.862,1243.511C1370.282,1242.175 1447.762,1237.9 1458.717,1236.297C1469.671,1234.694 1519.632,1227.48 1528.182,1224.274C1536.732,1221.068 1600.052,1203.969 1605.93,1201.564C1611.808,1199.16 1635.843,1190.551 1635.843,1190.551Z" style="fill:rgb(29,29,29);"/>
            <clipPath id="_clip1">
                <path d="M1635.843,1190.551C1635.843,1190.551 1641.902,1235.729 1642.57,1243.076C1643.238,1250.424 1648.581,1291.168 1648.581,1295.175C1648.581,1299.183 1655.076,1344.937 1654.5,1350.948C1653.925,1356.96 1655.744,1387.017 1654.5,1391.358C1653.257,1395.7 1652.923,1420.414 1651.587,1427.093C1650.251,1433.772 1646.577,1471.845 1644.908,1479.192C1643.238,1486.539 1639.898,1516.596 1638.562,1525.28C1637.226,1533.963 1632.885,1575.375 1630.881,1586.396C1628.877,1597.417 1621.864,1651.186 1621.864,1660.871C1621.864,1670.556 1625.871,1684.917 1631.883,1705.623C1637.894,1726.329 1640.232,1755.384 1640.232,1765.403C1640.232,1775.422 1637.894,1812.826 1635.223,1825.851C1632.551,1838.876 1626.539,1866.261 1624.536,1882.626C1622.532,1898.99 1613.849,1935.393 1611.177,1950.755C1608.505,1966.118 1606.316,1979.532 1606.316,1979.532C1606.316,1979.532 1561.193,2000.313 1511.32,1986.36C1511.32,1986.36 1495.884,1889.88 1494.102,1883.053C1492.321,1876.225 1474.51,1805.572 1472.728,1799.635C1470.947,1793.697 1449.276,1705.827 1447.495,1700.78C1445.714,1695.733 1440.964,1692.765 1435.324,1677.328C1429.684,1661.891 1409.794,1616.768 1407.419,1610.237C1405.044,1603.707 1384.858,1547.6 1383.967,1543.741C1383.076,1539.881 1371.202,1503.664 1371.202,1503.664L1362.89,1544.631C1362.89,1544.631 1346.859,1611.722 1346.266,1622.409C1345.672,1633.096 1347.75,1641.408 1350.125,1652.095C1352.5,1662.782 1370.691,1731.06 1370.798,1740.559C1370.905,1750.059 1374.119,1780.932 1368.207,1804.681C1362.296,1828.43 1358.793,1840.913 1358.793,1840.913C1358.793,1840.913 1345.969,1893.279 1344.9,1897.287C1343.831,1901.295 1337.152,1933.623 1337.152,1933.623C1337.152,1933.623 1277.038,1951.256 1236.16,1934.691C1236.16,1934.691 1227.343,1874.31 1226.542,1868.966C1225.74,1863.623 1213.717,1786.677 1212.381,1782.135C1211.046,1777.593 1199.557,1702.517 1197.954,1698.776C1196.351,1695.036 1188.336,1679.005 1187,1673.929C1185.664,1668.853 1179.786,1648.547 1178.717,1644.273C1177.649,1639.998 1163.221,1611.41 1160.282,1603.128C1157.343,1594.845 1143.985,1564.922 1141.847,1558.242C1139.71,1551.563 1128.221,1521.105 1125.015,1511.22C1121.809,1501.334 1112.191,1468.739 1110.855,1462.059C1109.519,1455.38 1099.901,1412.098 1098.565,1406.22C1097.229,1400.342 1093.582,1386.716 1093.802,1380.037C1094.023,1373.357 1093.222,1369.884 1091.351,1364.541C1089.481,1359.197 1083.603,1341.296 1082.802,1334.617C1082,1327.938 1076.485,1293.205 1076.571,1287.594C1076.657,1281.984 1077.019,1254.999 1076.571,1250.724C1076.122,1246.449 1076.655,1225.877 1076.655,1225.877L1079.596,1212.86C1079.596,1212.86 1156.809,1237.873 1186.733,1240.157C1216.656,1242.442 1265.816,1244.045 1275.168,1244.045C1284.519,1244.045 1349.442,1244.846 1359.862,1243.511C1370.282,1242.175 1447.762,1237.9 1458.717,1236.297C1469.671,1234.694 1519.632,1227.48 1528.182,1224.274C1536.732,1221.068 1600.052,1203.969 1605.93,1201.564C1611.808,1199.16 1635.843,1190.551 1635.843,1190.551Z"/>
            </clipPath>
            <g clip-path="url(#_clip1)">
                <g transform="matrix(0.044954,0,0,0.044954,1529.377319,1358.511227)">
                    <g transform="matrix(1,0,0,1,-3643.75,-5168.75)">
                        <g id="alo-yoga-1.jpg" transform="matrix(4.903158,0,0,4.903158,1383.333333,2983.333333)">
                            <path d="M526.5,163.05C530.783,163.219 531.899,161.739 532.591,164.475C532.776,165.206 532.68,441.658 532.639,442.524C532.514,445.183 523.948,444.34 521.5,444.34C500.215,444.34 498.333,445.156 498.31,441.506C498.309,441.322 498.303,166.24 498.313,165.49C498.356,162.433 500.048,163.05 526.5,163.05Z" style="fill:rgb(254,254,254);"/>
                            <path d="M372.42,277.083C376.079,276.525 397.741,273.223 418.467,281.584C436.251,288.758 434.854,291.27 436.465,291.624C440.904,292.6 434.476,281.303 441.499,281.304C470.944,281.31 472.28,280.858 472.538,283.497C472.55,283.625 472.602,441.955 472.51,442.502C472.142,444.685 471.084,444.354 441.5,444.343C436.771,444.341 438.148,442.196 438.17,437.502C438.201,430.732 434.708,436.415 425.306,441.145C357.045,475.491 286.21,408.034 305.863,339.605C321.679,284.539 370.873,277.453 372.42,277.083ZM388.501,311.113C384.998,311.191 362.481,311.696 348.885,329.813C315.927,373.73 358.062,423.486 397.582,413.863C456.799,399.443 448.001,313.637 388.501,311.113Z" style="fill:rgb(254,254,254);"/>
                            <path d="M621.423,277.062C627.428,276.159 665.367,270.454 694.124,298.871C758.208,362.194 700.197,464.742 620.466,448.673C552.6,434.995 533.227,351.858 570.784,307.736C589.789,285.409 604.735,281.04 621.423,277.062ZM635.498,311.113C580.651,313.623 569.337,386.262 613.65,409.214C664.587,435.597 713.862,366.637 670.352,324.652C657.412,312.165 638.486,311.257 635.498,311.113Z" style="fill:rgb(254,254,254);"/>
                        </g>
                    </g>
                </g>
            </g>
            <g id="fat1" serif:id="fat">
                <path d="M1079.822,1212.86C1079.822,1212.86 1063.791,1319.73 1103.867,1395.073" style="fill:none;stroke:black;stroke-width:4.17px;"/>
                <path d="M1093.802,1372.597C1093.802,1372.597 1101.552,1488.94 1178.676,1644.08C1178.676,1644.08 1188.116,1680.193 1195.686,1694.887C1203.256,1709.582 1207.264,1759.9 1212.607,1782.164C1212.607,1782.164 1234.872,1914.861 1235.317,1934.454C1235.317,1934.454 1269.159,1950.484 1336.398,1934.454C1336.398,1934.454 1353.319,1860.09 1360.444,1835.154C1360.444,1835.154 1377.81,1773.259 1368.905,1732.292C1359.999,1691.325 1353.765,1669.06 1349.312,1649.022C1344.859,1628.984 1348.421,1609.837 1351.983,1595.142C1355.546,1580.448 1369.35,1514.544 1370.686,1502.522" style="fill:none;stroke:black;stroke-width:4.17px;"/>
                <path d="M1243.778,1423.26C1243.778,1423.26 1285.19,1440.181 1354.21,1447.751C1354.21,1447.751 1416.373,1655.835 1447.365,1701.255C1447.365,1701.255 1479.426,1825.224 1490.113,1864.232C1490.113,1864.232 1509.26,1953.78 1511.041,1986.286C1511.041,1986.286 1552.454,2000.535 1606.334,1980.052C1606.334,1980.052 1619.247,1903.462 1624.145,1880.307C1624.145,1880.307 1639.285,1803.717 1638.84,1789.467C1638.395,1775.218 1643.738,1748.946 1630.825,1703.081C1630.825,1703.081 1622.81,1679.035 1621.474,1668.348C1620.138,1657.661 1624.145,1638.068 1625.481,1628.272C1626.817,1618.475 1639.731,1510.27 1642.402,1494.239C1645.074,1478.209 1652.199,1424.328 1653.089,1414.087C1653.98,1403.845 1655.761,1354.418 1653.089,1336.606C1650.418,1318.794 1643.293,1248.438 1641.066,1236.416C1638.84,1224.393 1636.168,1195.894 1635.723,1190.551C1635.723,1190.551 1524.4,1235.884 1424.655,1240.157C1324.91,1244.431 1313.556,1246.212 1232.624,1243.54C1232.624,1243.54 1151.691,1240.958 1080.89,1212.86" style="fill:none;stroke:black;stroke-width:4.17px;"/>
                <g transform="matrix(0.999283,0.037867,-0.037867,0.999283,698.419677,-36.163633)">
                    <path d="M942.622,1206.791C951.644,1226.861 961.218,1248.674 966.628,1262.554C978.919,1294.081 984.796,1312.783 986.934,1369.958C989.071,1427.134 982.125,1450.645 982.125,1489.118C982.125,1527.591 963.957,1601.866 963.422,1653.698C963.422,1653.698 985.865,1758.965 992.277,1789.957C998.689,1820.949 998.155,1834.308 993.88,1881.865L992.569,1895.414" style="fill:none;stroke:black;stroke-width:2.08px;"/>
                </g>
                <g transform="matrix(1,0,0,1.011964,523.740108,-92.67187)">
                    <path d="M810.643,1520.177C810.643,1520.177 794.613,1648.421 797.284,1679.146C799.956,1709.871 803.296,1713.211 806.635,1739.929C808.372,1753.82 810.83,1769.155 812.228,1786.687C813.518,1802.874 813.903,1820.933 811.979,1841.455C807.971,1884.203 803.964,1926.283 803.296,1944.317C802.628,1962.351 800.535,2004.008 800.535,2004.008" style="fill:none;stroke:black;stroke-width:2.07px;"/>
                </g>
            </g>
        </g>
    </g>
</svg>
