<?xml version="1.0" encoding="UTF-8" standalone="no"?>
<!DOCTYPE svg PUBLIC "-//W3C//DTD SVG 1.1//EN" "http://www.w3.org/Graphics/SVG/1.1/DTD/svg11.dtd">
<svg width="100%" height="100%" viewBox="0 0 375 821" version="1.1" xmlns="http://www.w3.org/2000/svg" xmlns:xlink="http://www.w3.org/1999/xlink" xml:space="preserve" xmlns:serif="http://www.serif.com/" style="fill-rule:evenodd;clip-rule:evenodd;stroke-linecap:round;stroke-linejoin:round;stroke-miterlimit:1.5;">
    <g transform="matrix(1,0,0,1,-634.571726,-1207.821683)">
        <g id="normal">
            <path d="M955.581,1209.905C955.581,1209.905 894.862,1234.225 855.658,1240.157C815.047,1246.302 780.404,1248.617 757.426,1246.746C757.426,1246.746 706.455,1242.829 697.372,1240.157L664.527,1230.029L661.273,1240.157L647.766,1277.468L636.655,1331.794L636.655,1386.713L639.157,1398.587L641.532,1430.351L650.141,1482.599L661.422,1527.425L679.827,1585.61L698.232,1645.279L701.498,1668.731L703.279,1682.386L709.216,1706.729L711.294,1716.525L714.857,1762.836L717.825,1805.88L722.278,1848.331L725.544,1884.845L730.293,1928.187L733.262,1973.013L735.34,2007.746L751.667,2010.417L776.307,2013.113L800.353,2010.714L812.227,2007.449L815.789,1975.388L820.836,1923.734L829.742,1881.58L835.382,1848.035L839.354,1802.615L839.354,1769.96L833.007,1738.493L826.773,1717.119L820.242,1684.761L820.539,1666.95L821.727,1616.186L823.508,1585.016L829.445,1606.687L843.397,1661.903L856.162,1712.963L865.662,1742.055L868.334,1753.039L869.224,1765.507L878.13,1820.427L884.661,1860.8L893.27,1898.501L903.363,1951.045L909.004,1987.262L912.863,2022.292C912.863,2022.292 945.696,2033.053 985.505,2018.091L992.985,1957.443L1002.871,1881.298L1007.114,1812.1L1002.337,1774.962L988.978,1724.199L974.283,1658.474L974.283,1643.78L976.688,1613.856L984.169,1563.627L990.314,1503.246L994.589,1458.36L999.398,1415.345L1003.138,1379.544L1002.069,1340.269L998.596,1312.216L988.176,1273.475L967.604,1232.063" style="fill:rgb(212,190,136);"/>
            <g id="normal1" serif:id="normal" transform="matrix(1,0,0,1,-189.026092,13.830082)">
                <path d="M854.3,1214.204C850.225,1225.751 846.215,1236.881 843.048,1245.196C843.048,1245.196 826.572,1292.281 825.681,1341.824C825.681,1341.824 827.462,1432.334 845.719,1496.456C863.976,1560.578 872.437,1581.951 881.788,1612.231C891.139,1642.511 889.803,1655.87 892.92,1670.119C896.037,1684.368 897.373,1691.493 899.154,1697.727C900.935,1703.961 903.607,1743.592 904.943,1767.638C906.279,1791.684 912.068,1847.345 914.739,1871.391C917.411,1895.436 922.755,1957.332 923.2,1970.691C923.645,1984.049 924.09,1995.182 924.09,1995.182C924.09,1995.182 980.197,2004.978 1002.016,1994.291C1002.016,1994.291 1006.469,1924.38 1012.258,1899.889C1018.047,1875.398 1026.953,1824.19 1027.843,1807.269C1028.734,1790.348 1029.624,1752.943 1020.719,1720.437C1011.813,1687.931 1008.696,1675.463 1009.141,1664.776C1009.586,1654.089 1010.477,1606.443 1010.922,1597.982C1011.368,1589.521 1011.813,1565.03 1011.813,1565.03" style="fill:none;stroke:black;stroke-width:4.17px;"/>
                <path d="M1144.128,1196.075C1144.128,1196.075 1053.289,1238.441 963.594,1233.479C963.594,1233.479 892.961,1232.484 856.522,1216.57M911.177,1368.434C911.177,1368.434 951.699,1391.59 985.095,1397.378C985.095,1397.378 1002.907,1540.74 1014.039,1578.156C1025.172,1615.571 1031.851,1651.64 1038.976,1674.795C1046.1,1697.95 1039.866,1678.802 1050.553,1713.98C1061.24,1749.158 1055.897,1739.807 1059.904,1760.291C1063.912,1780.774 1068.81,1816.843 1071.482,1833.764C1074.154,1850.685 1087.958,1909.908 1090.629,1927.72C1093.301,1945.532 1098.645,1969.132 1101.762,2009.208C1101.762,2009.208 1130.706,2019.736 1174.98,2004.469C1174.98,2004.469 1184.522,1919.737 1187.576,1902.943C1190.629,1886.149 1194.828,1835.386 1195.973,1817.065C1197.118,1798.745 1192.156,1758.287 1188.339,1747.981C1184.522,1737.676 1165.471,1665.157 1163.356,1649.127C1161.24,1633.096 1165.438,1599.509 1167.728,1588.44C1170.018,1577.371 1179.942,1490.73 1180.324,1479.662C1180.705,1468.593 1186.431,1414.395 1187.576,1406.38C1188.721,1398.364 1190.629,1381.952 1191.011,1375.082C1191.392,1368.212 1195.973,1335.769 1185.286,1291.494C1174.599,1247.22 1153.288,1211.342 1144.128,1196.075" style="fill:none;stroke:black;stroke-width:4.17px;"/>
                <g transform="matrix(1,0,0,1,189.026092,-13.830082)">
                    <path d="M945.065,1216.464C945.065,1216.464 954.338,1231.028 966.628,1262.554C978.919,1294.081 984.796,1312.783 986.934,1369.958C989.071,1427.134 982.125,1450.645 982.125,1489.118C982.125,1527.591 963.957,1601.866 963.422,1653.698C963.422,1653.698 985.865,1758.965 992.277,1789.957C998.689,1820.949 998.155,1834.308 993.88,1881.865L981.056,2014.384" style="fill:none;stroke:black;stroke-width:2.08px;"/>
                </g>
                <g transform="matrix(1,0,0,1,189.026092,-13.830082)">
                    <path d="M810.643,1520.177C810.643,1520.177 794.613,1648.421 797.284,1679.146C799.956,1709.871 803.296,1713.211 806.635,1739.929C809.975,1766.646 815.986,1798.707 811.979,1841.455C807.971,1884.203 803.964,1926.283 803.296,1944.317C802.628,1962.351 800.535,2004.008 800.535,2004.008" style="fill:none;stroke:black;stroke-width:2.08px;"/>
                </g>
                <g transform="matrix(1,0,0,1,189.026092,-13.830082)">
                    <path d="M774.797,1246.746C774.797,1246.746 767.672,1332.047 782.812,1405.172" style="fill:none;stroke:black;stroke-width:2.08px;"/>
                </g>
                <g transform="matrix(1,0,0,1,192.64187,36.996697)">
                    <path d="M745.853,1195.92C745.853,1195.92 748.97,1291.275 755.204,1312.649L774.351,1320.665" style="fill:none;stroke:black;stroke-width:2.08px;"/>
                </g>
                <g transform="matrix(1,0,0,1,189.026092,-13.830082)">
                    <path d="M971.081,1269.547C971.081,1269.547 919.577,1280.652 903.85,1235.232" style="fill:none;stroke:black;stroke-width:2.08px;"/>
                </g>
                <g transform="matrix(1,0,0,1,189.026092,-13.830082)">
                    <path d="M685.643,1235.232C685.643,1235.232 672.762,1273.098 648.43,1281.304" style="fill:none;stroke:black;stroke-width:2.08px;"/>
                </g>
                <g transform="matrix(1,0,0,1,189.026092,-13.830082)">
                    <path d="M736.209,1986.382C736.209,1986.382 761.781,1995.924 813.689,1989.817" style="fill:none;stroke:black;stroke-width:2.08px;"/>
                </g>
                <g transform="matrix(1,0,0,1,189.026092,-13.830082)">
                    <path d="M912.544,2001.649C912.544,2001.649 938.198,2009.549 987.353,1996.439" style="fill:none;stroke:black;stroke-width:2.08px;"/>
                </g>
                <g transform="matrix(1,0,0,1,189.026092,-13.830082)">
                    <path d="M857.691,1405.172C857.691,1405.172 871.05,1633.235 891.088,1726.746C891.088,1726.746 928.492,1956.4 928.492,1991.859" style="fill:none;stroke:black;stroke-width:2.08px;"/>
                </g>
                <g transform="matrix(1,0,0,1,189.026092,-13.830082)">
                    <path d="M661.025,1368.732C661.025,1368.732 683.442,1566.441 711.788,1678.654C711.788,1678.654 733.619,1929.798 736.209,1973.882" style="fill:none;stroke:black;stroke-width:2.08px;"/>
                </g>
            </g>
        </g>
    </g>
</svg>
