<?xml version="1.0" encoding="UTF-8" standalone="no"?>
<!DOCTYPE svg PUBLIC "-//W3C//DTD SVG 1.1//EN" "http://www.w3.org/Graphics/SVG/1.1/DTD/svg11.dtd">
<svg width="100%" height="100%" viewBox="0 0 384 830" version="1.1" xmlns="http://www.w3.org/2000/svg" xmlns:xlink="http://www.w3.org/1999/xlink" xml:space="preserve" xmlns:serif="http://www.serif.com/" style="fill-rule:evenodd;clip-rule:evenodd;stroke-linecap:round;stroke-linejoin:round;stroke-miterlimit:1.5;">
    <g transform="matrix(1,0,0,1,-167.477226,-1171.799861)">
        <g id="muscle">
            <path d="M208.056,1199.683L203.5,1213.242L190.067,1256.862L183.833,1287.438C183.833,1287.438 179.38,1345.92 180.716,1361.654C181.124,1366.462 182.393,1380.612 180.716,1391.062C177.392,1411.772 169.606,1433.469 170.399,1447.771C170.515,1449.865 172.632,1452.766 178.666,1453.971C179.856,1454.208 179.016,1455.772 178.827,1463.807C178.254,1488.205 180.295,1500.609 183.204,1520.581C184.059,1526.452 190.384,1546.632 192.084,1552.286C193.551,1557.167 205.516,1546.454 209.958,1553.576C216.163,1563.527 219.172,1573.92 230.737,1591.127C230.737,1591.127 242.018,1652.28 244.096,1659.702L250.627,1684.341C250.627,1684.341 251.517,1714.621 253.299,1732.73C255.08,1750.838 256.564,1783.196 261.017,1809.023C265.47,1834.85 272.298,1884.722 272.891,1892.738C273.485,1900.753 277.63,1962.478 277.636,1971.246L295.156,1975.037C295.156,1975.037 347.107,1976.452 355.122,1970.812L358.387,1950.922L368.777,1876.707L376.199,1825.944L379.899,1776.368L377.386,1726.199L364.607,1667.717L361.95,1654.952L360.465,1594.096L361.653,1581.924L364.607,1573.019L367.59,1584.893L383.62,1621.407L388.964,1642.187C388.964,1642.187 398.463,1684.044 407.666,1701.262L418.056,1774.29L428.743,1833.959L438.837,1892.144L448.039,1958.641L452.195,1994.264C452.195,1994.264 478.913,2001.895 504.74,1999.712L528.489,1994.264L529.676,1980.015L537.394,1905.503L545.113,1845.24L548.497,1804.273C548.497,1804.273 550.753,1762.119 542.441,1733.323L521.958,1656.14C521.958,1656.14 515.427,1638.328 516.317,1624.672C516.317,1624.672 516.799,1584.285 521.16,1563.974C522.179,1559.228 532.351,1559.728 532.901,1557.252C534.682,1549.236 538.416,1509.229 538.712,1500.026C539.009,1490.824 538.739,1464.365 539.629,1457.24C539.922,1454.895 542.366,1459.247 544.633,1455.853C548.402,1450.213 537.945,1420.988 537.945,1417.205C537.945,1415.738 532.604,1408.341 532.561,1405.172C532.436,1396.15 532.282,1382.595 532.941,1377.981C533.832,1371.747 537.691,1343.545 538.582,1338.499C539.472,1333.452 541.55,1312.375 541.55,1306.734C541.55,1301.094 540.363,1260.127 538.879,1253.596C537.394,1247.065 518.253,1195.34 514.097,1187.325C509.941,1179.31 509.107,1181.076 506.435,1173.883C506.435,1173.883 462.799,1198.348 440.238,1201.92C417.676,1205.493 356.717,1220.387 313.72,1217.691C313.72,1217.691 260.958,1216.453 247.302,1213.188C247.302,1213.188 224.598,1210.863 218.958,1206.113L208.056,1199.683Z" style="fill:rgb(57,62,24);"/>
            <g id="muscle1" serif:id="muscle" transform="matrix(1,0,0,1,-187.02228,19.514246)">
                <path d="M395.175,1179.664C384.685,1211.327 372.266,1251.986 370.263,1272.515C370.263,1272.515 364.029,1351.777 371.153,1419.461C371.153,1419.461 379.169,1524.503 418.354,1571.751C418.354,1571.751 425.924,1608.757 431.268,1639.482C431.268,1639.482 437.947,1659.965 438.838,1667.535C438.838,1667.535 441.509,1745.461 445.072,1769.062C448.634,1792.662 458.43,1858.565 459.766,1873.26C461.102,1887.954 465.555,1943.616 465.555,1952.522C465.555,1952.522 505.186,1960.091 543.036,1951.186C543.036,1951.186 553.723,1871.033 556.84,1854.557C559.957,1838.082 566.636,1778.413 566.636,1769.062C566.636,1759.71 568.417,1725.423 563.074,1698.26C557.73,1671.098 550.606,1649.724 549.715,1639.927C548.825,1630.131 547.043,1574.024 548.379,1565.118C549.715,1556.212 550.606,1549.978 550.606,1549.978" style="fill:none;stroke:black;stroke-width:4.17px;"/>
                <g transform="matrix(1,0,0,1,187.02228,-19.514246)">
                    <path d="M449.761,1971.418C449.761,1971.418 467.573,1986.113 530.359,1973.645" style="fill:none;stroke:black;stroke-width:2.08px;"/>
                </g>
                <g transform="matrix(1,0,0,1,187.02228,-19.514246)">
                    <path d="M280.307,1950.935C280.307,1950.935 288.566,1959.395 358.031,1953.161" style="fill:none;stroke:black;stroke-width:2.08px;"/>
                </g>
                <path d="M693.115,1154.369C693.115,1154.369 660.004,1187.957 521.98,1197.594C521.98,1197.594 425.368,1203.106 396.98,1180.563M720.071,1386.47C720.071,1347.975 720.834,1361.334 721.979,1344.922C723.124,1328.51 729.231,1306.754 729.231,1280.418C729.231,1254.082 729.279,1214.817 693.115,1154.369M453.723,1336.525C453.723,1336.525 507.158,1360.189 522.807,1361.716C522.807,1361.716 525.224,1526.489 571.534,1602.968C571.534,1602.968 583.048,1657.898 595.262,1682.707C595.262,1682.707 604.041,1741.867 607.094,1763.241C610.148,1784.615 622.743,1850.645 624.651,1865.149C626.56,1879.653 638.773,1965.149 638.392,1975.836C638.392,1975.836 681.14,1986.141 715.491,1975.072C715.491,1975.072 722.361,1897.973 725.414,1878.126C728.468,1858.279 735.338,1800.264 734.956,1788.432C734.575,1776.6 738.773,1753.699 728.849,1709.424C718.926,1665.15 708.239,1641.104 706.33,1626.982C704.422,1612.86 700.987,1613.241 705.185,1568.203C706.128,1558.087 707.071,1549.28 707.976,1541.437" style="fill:none;stroke:black;stroke-width:4.17px;"/>
                <g transform="matrix(1,0,0,1,-275.857861,-30.646525)">
                    <path d="M971.638,1575.106C967.502,1602.304 963.664,1630.29 963.422,1653.698C963.422,1653.698 985.865,1758.965 992.277,1789.957C998.689,1820.949 998.155,1834.308 993.88,1881.865L982.964,2002.552M944.953,1200.322C944.953,1200.322 954.338,1231.028 966.628,1262.554C978.919,1294.081 984.796,1312.783 986.934,1369.958C987.621,1388.351 987.369,1403.26 986.71,1416.304" style="fill:none;stroke:black;stroke-width:2.08px;"/>
                </g>
                <g transform="matrix(1,0,0,1,-275.857861,-30.646525)">
                    <path d="M810.643,1520.177C810.643,1520.177 794.613,1648.421 797.284,1679.146C799.956,1709.871 803.296,1713.211 806.635,1739.929C809.975,1766.646 815.986,1798.707 811.979,1841.455C807.971,1884.203 803.964,1926.283 803.296,1944.317C802.628,1962.351 803.207,1980.726 803.207,1980.726" style="fill:none;stroke:black;stroke-width:2.08px;"/>
                </g>
                <g transform="matrix(1,0,0,1,-275.857861,-30.646525)">
                    <path d="M774.463,1228.823C774.463,1228.823 770.6,1309.355 779.564,1386.635" style="fill:none;stroke:black;stroke-width:2.08px;"/>
                </g>
                <g transform="matrix(1,0,0,1,-275.857861,-30.646525)">
                    <path d="M754.314,1228.823C754.314,1228.823 749.972,1308.642 756.206,1330.016L773.635,1338.699" style="fill:none;stroke:black;stroke-width:2.08px;"/>
                </g>
                <g transform="matrix(1,0,0,1,-275.857861,-30.646525)">
                    <path d="M959.98,1246.467C959.98,1246.467 901.765,1262.665 886.039,1217.246" style="fill:none;stroke:black;stroke-width:2.08px;"/>
                </g>
                <g transform="matrix(1,0,0,1,-275.857861,-30.646525)">
                    <path d="M688.077,1221.587C688.077,1221.587 674.384,1249.529 661.025,1246.19" style="fill:none;stroke:black;stroke-width:2.08px;"/>
                </g>
                <g transform="matrix(1,0,0,1,187.02228,-19.514246)">
                    <path d="M532.909,1405.172L479.474,1405.172C479.474,1405.172 472.126,1510.65 474.798,1552.062L475.199,1563.974C475.199,1563.974 524.054,1562.447 531.687,1559.394C539.321,1556.34 538.176,1461.684 539.702,1456.722L546.573,1455.959C546.573,1455.959 539.855,1416.981 532.909,1405.172Z" style="fill:none;stroke:black;stroke-width:4.17px;"/>
                </g>
                <g transform="matrix(1,0,0,1,187.02228,-19.514246)">
                    <path d="M180.716,1388.681C180.716,1388.681 170.095,1436.396 169.561,1448.34L173.835,1451.675" style="fill:none;stroke:black;stroke-width:4.17px;"/>
                </g>
                <g transform="matrix(1,0,0,1,187.02228,-19.514246)">
                    <path d="M180.716,1405.172C180.716,1405.172 171.698,1502.252 193.072,1553.443L202.69,1550.665L207.27,1551.81" style="fill:none;stroke:black;stroke-width:4.17px;"/>
                </g>
                <g transform="matrix(1,0,0,1,187.02228,-19.514246)">
                    <path d="M175.138,1451.675L178.827,1453.86" style="fill:none;stroke:black;stroke-width:4.17px;"/>
                </g>
                <g transform="matrix(1,0,0,1,187.02228,-19.514246)">
                    <path d="M539.702,1456.722C539.702,1456.722 495.714,1457.891 491.039,1459.561C491.039,1459.561 482.689,1410.23 480.352,1405.172" style="fill:none;stroke:black;stroke-width:2.08px;"/>
                </g>
                <g transform="matrix(1,0,0,1,187.02228,-19.514246)">
                    <path d="M486.222,1432.367C486.222,1432.367 491.706,1552.586 490.037,1563.974L480.352,1559.331C480.352,1559.331 481.163,1425.075 480.352,1412.385" style="fill:none;stroke:black;stroke-width:2.08px;"/>
                </g>
            </g>
        </g>
    </g>
</svg>
