<?xml version="1.0" encoding="UTF-8" standalone="no"?>
<svg width="100%" height="100%" viewBox="0 0 384 830" version="1.1" xmlns="http://www.w3.org/2000/svg" xmlns:xlink="http://www.w3.org/1999/xlink" xml:space="preserve" xmlns:serif="http://www.serif.com/" style="fill-rule:evenodd;clip-rule:evenodd;stroke-linejoin:round;stroke-miterlimit:2;">
    <g transform="matrix(1,0,0,1,-167.477226,-1171.799861)">
        <g id="muscle">
            <path d="M208.056,1199.683L203.5,1213.242L190.067,1256.862L183.833,1287.438C183.833,1287.438 179.38,1345.92 180.716,1361.654C181.124,1366.462 182.393,1380.612 180.716,1391.062C177.392,1411.772 169.606,1433.469 170.399,1447.771C170.515,1449.865 172.632,1452.766 178.666,1453.971C179.856,1454.208 179.016,1455.772 178.827,1463.807C178.254,1488.205 180.295,1500.609 183.204,1520.581C184.059,1526.452 190.384,1546.632 192.084,1552.286C193.551,1557.167 205.516,1546.454 209.958,1553.576C216.163,1563.527 219.172,1573.92 230.737,1591.127C230.737,1591.127 242.018,1652.28 244.096,1659.702L250.627,1684.341C250.627,1684.341 251.517,1714.621 253.299,1732.73C255.08,1750.838 256.564,1783.196 261.017,1809.023C265.47,1834.85 272.298,1884.722 272.891,1892.738C273.485,1900.753 277.63,1962.478 277.636,1971.246L295.156,1975.037C295.156,1975.037 347.107,1976.452 355.122,1970.812L358.387,1950.922L368.777,1876.707L376.199,1825.944L379.899,1776.368L377.386,1726.199L364.607,1667.717L361.95,1654.952L360.465,1594.096L361.653,1581.924L364.607,1573.019L367.59,1584.893L383.62,1621.407L388.964,1642.187C388.964,1642.187 398.463,1684.044 407.666,1701.262L418.056,1774.29L428.743,1833.959L438.837,1892.144L448.039,1958.641L452.195,1994.264C452.195,1994.264 478.913,2001.895 504.74,1999.712L528.489,1994.264L529.676,1980.015L537.394,1905.503L545.113,1845.24L548.497,1804.273C548.497,1804.273 550.753,1762.119 542.441,1733.323L521.958,1656.14C521.958,1656.14 515.427,1638.328 516.317,1624.672C516.317,1624.672 516.799,1584.285 521.16,1563.974C522.179,1559.228 532.351,1559.728 532.901,1557.252C534.682,1549.236 538.416,1509.229 538.712,1500.026C539.009,1490.824 538.739,1464.365 539.629,1457.24C539.922,1454.895 542.366,1459.247 544.633,1455.853C548.402,1450.213 537.945,1420.988 537.945,1417.205C537.945,1415.738 532.604,1408.341 532.561,1405.172C532.436,1396.15 532.282,1382.595 532.941,1377.981C533.832,1371.747 537.691,1343.545 538.582,1338.499C539.472,1333.452 541.55,1312.375 541.55,1306.734C541.55,1301.094 540.363,1260.127 538.879,1253.596C537.394,1247.065 518.253,1195.34 514.097,1187.325C509.941,1179.31 509.107,1181.076 506.435,1173.883C506.435,1173.883 462.799,1198.348 440.238,1201.92C417.676,1205.493 356.717,1220.387 313.72,1217.691C313.72,1217.691 260.958,1216.453 247.302,1213.188C247.302,1213.188 224.598,1210.863 218.958,1206.113L208.056,1199.683Z" style="fill:rgb(29,29,29);"/>
            <clipPath id="_clip1">
                <path d="M208.056,1199.683L203.5,1213.242L190.067,1256.862L183.833,1287.438C183.833,1287.438 179.38,1345.92 180.716,1361.654C181.124,1366.462 182.393,1380.612 180.716,1391.062C177.392,1411.772 169.606,1433.469 170.399,1447.771C170.515,1449.865 172.632,1452.766 178.666,1453.971C179.856,1454.208 179.016,1455.772 178.827,1463.807C178.254,1488.205 180.295,1500.609 183.204,1520.581C184.059,1526.452 190.384,1546.632 192.084,1552.286C193.551,1557.167 205.516,1546.454 209.958,1553.576C216.163,1563.527 219.172,1573.92 230.737,1591.127C230.737,1591.127 242.018,1652.28 244.096,1659.702L250.627,1684.341C250.627,1684.341 251.517,1714.621 253.299,1732.73C255.08,1750.838 256.564,1783.196 261.017,1809.023C265.47,1834.85 272.298,1884.722 272.891,1892.738C273.485,1900.753 277.63,1962.478 277.636,1971.246L295.156,1975.037C295.156,1975.037 347.107,1976.452 355.122,1970.812L358.387,1950.922L368.777,1876.707L376.199,1825.944L379.899,1776.368L377.386,1726.199L364.607,1667.717L361.95,1654.952L360.465,1594.096L361.653,1581.924L364.607,1573.019L367.59,1584.893L383.62,1621.407L388.964,1642.187C388.964,1642.187 398.463,1684.044 407.666,1701.262L418.056,1774.29L428.743,1833.959L438.837,1892.144L448.039,1958.641L452.195,1994.264C452.195,1994.264 478.913,2001.895 504.74,1999.712L528.489,1994.264L529.676,1980.015L537.394,1905.503L545.113,1845.24L548.497,1804.273C548.497,1804.273 550.753,1762.119 542.441,1733.323L521.958,1656.14C521.958,1656.14 515.427,1638.328 516.317,1624.672C516.317,1624.672 516.799,1584.285 521.16,1563.974C522.179,1559.228 532.351,1559.728 532.901,1557.252C534.682,1549.236 538.416,1509.229 538.712,1500.026C539.009,1490.824 538.739,1464.365 539.629,1457.24C539.922,1454.895 542.366,1459.247 544.633,1455.853C548.402,1450.213 537.945,1420.988 537.945,1417.205C537.945,1415.738 532.604,1408.341 532.561,1405.172C532.436,1396.15 532.282,1382.595 532.941,1377.981C533.832,1371.747 537.691,1343.545 538.582,1338.499C539.472,1333.452 541.55,1312.375 541.55,1306.734C541.55,1301.094 540.363,1260.127 538.879,1253.596C537.394,1247.065 518.253,1195.34 514.097,1187.325C509.941,1179.31 509.107,1181.076 506.435,1173.883C506.435,1173.883 462.799,1198.348 440.238,1201.92C417.676,1205.493 356.717,1220.387 313.72,1217.691C313.72,1217.691 260.958,1216.453 247.302,1213.188C247.302,1213.188 224.598,1210.863 218.958,1206.113L208.056,1199.683Z"/>
            </clipPath>
            <g clip-path="url(#_clip1)">
                <g transform="matrix(0.006482,0.068837,-0.068837,0.006482,434.147235,1681.348793)">
                    <g transform="matrix(1,0,0,1,-3643.75,-5168.75)">
                        <g id="Balenciaga-Logo-2017-present.jpg" transform="matrix(6.559246,0,0,6.559246,283.333333,2800)">
                            <path d="M420.896,335.5C420.896,232.572 420.895,232.58 420.903,232.527C421.335,229.788 422.659,229.997 455.499,230.516C459.569,230.58 458.206,232.812 478.785,291.392C490.394,324.437 486.472,327.292 489.468,327.293C491.073,327.293 489.841,318.388 489.785,317.493C488.903,303.406 489.234,232.193 489.507,231.503C490.067,230.089 490.533,230.189 508.499,230.51C510.978,230.555 510.734,232.599 510.736,233.497C510.757,242.62 510.999,346.184 510.632,347.537C510.292,348.787 509.788,348.991 478.495,348.91C475.561,348.902 475.291,348.338 472.687,340.439C461.067,305.19 447.952,273.72 443.321,250.577C443.02,249.073 441.094,248.995 441.292,251.473C441.896,259.052 443.361,277.402 442.632,346.506C442.603,349.279 441.197,349.044 423.487,348.908C419.677,348.879 420.917,341.085 420.896,335.5Z" style="fill:none;stroke:white;stroke-width:1.91px;"/>
                            <path d="M862.5,302.9C858.461,302.742 856.498,304.489 856.476,300.501C856.394,286.027 856.156,284.161 858.438,284.034C859.985,283.948 893.668,283.823 894.641,284.175C895.944,284.646 895.811,285.226 895.801,335.5C895.799,340.728 897.578,342.725 890.398,345.211C879.123,349.114 827.615,361.799 815.729,325.428C812.398,315.234 806.998,265.577 820.797,244.705C837.125,220.009 893.338,220.33 896.055,259.513C896.277,262.712 891.352,261.881 876.5,261.882C872.625,261.882 872.291,261.379 871.552,257.491C868.708,242.532 841.462,238.716 838.341,268.481C838.335,268.538 834.883,309.379 840.825,322.354C848.104,338.249 871.625,331.495 872.364,328.467C872.492,327.941 872.764,304.625 872.192,303.69C871.713,302.908 863.278,302.9 862.5,302.9Z" style="fill:none;stroke:white;stroke-width:1.91px;"/>
                            <path d="M384.826,281.501C384.823,291.732 385.744,296.824 382.532,296.962C368.769,297.552 348.008,295.57 347.347,298.465C347.268,298.809 347.219,327.961 347.378,328.534C348.272,331.75 386.568,328.387 388.487,330.509C388.613,330.649 389.985,348.153 387.601,348.805C387.161,348.925 387.185,348.91 332.5,348.91C329.039,348.91 323.172,349.948 323.128,346.523C322.958,333.398 323.11,242.539 323.126,233.496C323.128,232.018 322.956,230.313 325.488,230.279C330.361,230.215 384.878,229.493 386.402,230.643C387.14,231.199 388.489,248.798 385.458,249.205C380.774,249.833 348.247,247.856 347.414,250.471C347.402,250.51 346.793,276.157 347.781,277.241C349.257,278.86 382.866,276.691 384.47,278.521C384.628,278.701 384.496,278.739 384.826,281.501Z" style="fill:none;stroke:white;stroke-width:1.91px;"/>
                            <path d="M541.086,287.5C541.175,254.116 546.681,228.691 585.498,228.79C625.365,228.891 624.189,263.012 622.621,263.714C621.546,264.196 600.543,263.898 600.386,263.855C597.914,263.181 599.977,248.823 588.413,246.937C567.802,243.577 567.047,266.764 566.875,272.516C565.617,314.704 567.329,331.173 582.534,332.193C601.24,333.448 599.077,317.166 600.277,314.376C601.107,312.445 623.359,313.609 623.428,313.646C624.951,314.46 626.731,349.081 586.5,350.493C537.739,352.205 541.098,304.864 541.086,287.5Z" style="fill:none;stroke:white;stroke-width:1.91px;"/>
                            <path d="M290.5,348.91C236.997,348.91 236.968,348.939 236.395,348.731C235.31,348.337 235.311,341.164 235.311,340.5C235.327,232.306 235.216,232.295 235.523,231.51C236.219,229.732 258.022,230.258 258.874,231.159C260.058,232.41 259.095,321.706 259.408,327.505C259.569,330.497 261.206,329.826 295.498,329.855C299.156,329.858 298.418,333.236 298.319,345.499C298.276,350.732 295.737,348.653 290.5,348.91Z" style="fill:none;stroke:white;stroke-width:1.91px;"/>
                            <path d="M674.071,234.5C674.057,347.519 674.197,347.739 673.465,348.46C673.135,348.785 650.9,350.1 650.183,347.608C650.099,347.318 649.803,232.627 650.337,231.407C650.979,229.944 673.156,229.999 673.745,231.349C673.846,231.581 673.769,231.582 674.071,234.5Z" style="fill:none;stroke:white;stroke-width:1.91px;"/>
                            <path d="M92.904,262.527C91.784,268.297 91.31,282.303 71.613,285.775C65.711,286.815 75.189,288.203 75.558,288.258C98.911,291.679 106.879,341.584 68.546,347.787C54.013,350.139 14.477,348.584 14.455,348.564C13.639,347.846 13.734,347.6 13.734,244.5C13.734,238.883 12.936,230.619 15.503,230.524C19.18,230.389 41.534,229.568 61.495,230.612C87.935,231.996 92.943,244.788 92.904,262.527ZM37.958,274.5C38.316,276.905 37.271,277.959 39.554,278.163C62.68,280.228 66.09,273.327 67.096,271.291C69.487,266.454 71.913,249.77 55.483,248.689C38.462,247.569 38.086,249.03 38.037,250.432C37.969,252.356 38.219,252.273 37.958,274.5ZM37.962,316.5C37.964,324.069 36.866,330.881 40.481,330.915C46.268,330.969 75.963,335.424 70.186,307.579C67.428,294.289 49.322,296.233 40.495,296.31C37.282,296.339 38.165,298.095 37.962,316.5Z" style="fill:none;stroke:white;stroke-width:1.91px;"/>
                            <path d="M983.977,240.355C992.635,273.479 1013.572,347.355 1012.524,348.524C1012.447,348.61 988.94,350.339 987.575,347.461C985.709,343.527 982.187,323.07 979.522,322.403C979.258,322.337 947.481,322.004 946.548,322.602C943.824,324.347 940.421,347.956 937.585,348.777C937.25,348.874 916.162,349.235 915.454,348.555C914.11,347.263 927.689,301.722 939.854,255.589C946.08,231.977 945.603,231.379 947.573,230.696C949.911,229.885 949.995,230.437 978.5,230.506C982.576,230.516 983.005,236.811 983.977,240.355ZM954.082,287.38C950.644,301.769 949.558,303.916 952.45,303.968C975.538,304.382 976.75,304.431 976.587,302.503C976.25,298.523 967.586,268.464 964.707,251.399C963.623,244.969 962.162,254.093 962.112,254.407C961.88,255.853 954.734,284.744 954.082,287.38Z" style="fill:none;stroke:white;stroke-width:1.91px;"/>
                            <path d="M703.896,327.623C729.731,232.807 728.533,231.288 731.526,230.613C732.437,230.408 762.976,230.503 763.491,230.559C765.094,230.735 765.22,231.193 770.122,249.599C796.137,347.281 797.3,348.112 795.635,348.749C794.871,349.042 772.922,348.94 772.412,348.801C769.617,348.043 766.06,323.834 763.454,322.598C762.226,322.016 730.945,322.303 730.481,322.429C727.984,323.111 724.655,341.743 722.441,347.472C721.806,349.116 721.295,349.295 700.453,348.918C696.906,348.853 700.052,342.102 703.896,327.623ZM749.883,260.414C748.05,251.439 748.395,251.391 748.234,250.612C747.371,246.437 746.324,251.449 742.733,266.552C734.197,302.459 733.662,302.714 734.46,303.537C735.808,304.93 756.658,304.033 758.587,303.95C760.915,303.85 760.125,302.304 754.177,277.584C751.149,265.003 750.124,261.383 749.883,260.414Z" style="fill:none;stroke:white;stroke-width:1.91px;"/>
                            <path d="M137.979,341.64C136.544,346.751 137.775,348.869 132.503,348.911C113.684,349.062 111.865,349.153 112.556,346.512C112.609,346.307 132.728,272.445 142.961,234.624C144.544,228.774 146.467,230.503 152.5,230.504C177.015,230.51 178.524,229.699 179.547,233.486C181.944,242.366 209.221,343.423 209.508,344.498C210.277,347.379 211.552,348.814 208.564,348.91C206.793,348.967 189.091,349.536 186.413,348.791C182.904,347.815 180.463,322.788 176.521,322.349C176.044,322.296 145.231,322.208 144.475,322.393C142.829,322.795 142.386,325.033 137.979,341.64ZM150.91,289.598C148.262,301.098 147.146,303.859 149.405,303.96C151.337,304.046 172.161,304.976 173.581,303.587C175.04,302.159 163.162,261.148 161.978,251.139C161.171,244.314 159.484,254.153 159.427,254.484C158.738,258.5 151.616,286.795 150.91,289.598Z" style="fill:none;stroke:white;stroke-width:1.91px;"/>
                        </g>
                    </g>
                </g>
            </g>
            <g id="muscle1" serif:id="muscle" transform="matrix(1,0,0,1,-187.02228,19.514246)">
                <path d="M395.175,1179.664C384.685,1211.327 372.266,1251.986 370.263,1272.515C370.263,1272.515 364.029,1351.777 371.153,1419.461C371.153,1419.461 379.169,1524.503 418.354,1571.751C418.354,1571.751 425.924,1608.757 431.268,1639.482C431.268,1639.482 437.947,1659.965 438.838,1667.535C438.838,1667.535 441.509,1745.461 445.072,1769.062C448.634,1792.662 458.43,1858.565 459.766,1873.26C461.102,1887.954 465.555,1943.616 465.555,1952.522C465.555,1952.522 505.186,1960.091 543.036,1951.186C543.036,1951.186 553.723,1871.033 556.84,1854.557C559.957,1838.082 566.636,1778.413 566.636,1769.062C566.636,1759.71 568.417,1725.423 563.074,1698.26C557.73,1671.098 550.606,1649.724 549.715,1639.927C548.825,1630.131 547.043,1574.024 548.379,1565.118C549.715,1556.212 550.606,1549.978 550.606,1549.978" style="fill:none;stroke:black;stroke-width:4.17px;stroke-linecap:round;stroke-miterlimit:1.5;"/>
                <g transform="matrix(1,0,0,1,187.02228,-19.514246)">
                    <path d="M449.761,1971.418C449.761,1971.418 467.573,1986.113 530.359,1973.645" style="fill:none;stroke:black;stroke-width:2.08px;stroke-linecap:round;stroke-miterlimit:1.5;"/>
                </g>
                <g transform="matrix(1,0,0,1,187.02228,-19.514246)">
                    <path d="M280.307,1950.935C280.307,1950.935 288.566,1959.395 358.031,1953.161" style="fill:none;stroke:black;stroke-width:2.08px;stroke-linecap:round;stroke-miterlimit:1.5;"/>
                </g>
                <path d="M693.115,1154.369C693.115,1154.369 660.004,1187.957 521.98,1197.594C521.98,1197.594 425.368,1203.106 396.98,1180.563M720.071,1386.47C720.071,1347.975 720.834,1361.334 721.979,1344.922C723.124,1328.51 729.231,1306.754 729.231,1280.418C729.231,1254.082 729.279,1214.817 693.115,1154.369M453.723,1336.525C453.723,1336.525 507.158,1360.189 522.807,1361.716C522.807,1361.716 525.224,1526.489 571.534,1602.968C571.534,1602.968 583.048,1657.898 595.262,1682.707C595.262,1682.707 604.041,1741.867 607.094,1763.241C610.148,1784.615 622.743,1850.645 624.651,1865.149C626.56,1879.653 638.773,1965.149 638.392,1975.836C638.392,1975.836 681.14,1986.141 715.491,1975.072C715.491,1975.072 722.361,1897.973 725.414,1878.126C728.468,1858.279 735.338,1800.264 734.956,1788.432C734.575,1776.6 738.773,1753.699 728.849,1709.424C718.926,1665.15 708.239,1641.104 706.33,1626.982C704.422,1612.86 700.987,1613.241 705.185,1568.203C706.128,1558.087 707.071,1549.28 707.976,1541.437" style="fill:none;stroke:black;stroke-width:4.17px;stroke-linecap:round;stroke-miterlimit:1.5;"/>
                <g transform="matrix(1,0,0,1,-275.857861,-30.646525)">
                    <path d="M971.638,1575.106C967.502,1602.304 963.664,1630.29 963.422,1653.698C963.422,1653.698 985.865,1758.965 992.277,1789.957C998.689,1820.949 998.155,1834.308 993.88,1881.865L982.964,2002.552M944.953,1200.322C944.953,1200.322 954.338,1231.028 966.628,1262.554C978.919,1294.081 984.796,1312.783 986.934,1369.958C987.621,1388.351 987.369,1403.26 986.71,1416.304" style="fill:none;stroke:black;stroke-width:2.08px;stroke-linecap:round;stroke-miterlimit:1.5;"/>
                </g>
                <g transform="matrix(1,0,0,1,-275.857861,-30.646525)">
                    <path d="M810.643,1520.177C810.643,1520.177 794.613,1648.421 797.284,1679.146C799.956,1709.871 803.296,1713.211 806.635,1739.929C809.975,1766.646 815.986,1798.707 811.979,1841.455C807.971,1884.203 803.964,1926.283 803.296,1944.317C802.628,1962.351 803.207,1980.726 803.207,1980.726" style="fill:none;stroke:black;stroke-width:2.08px;stroke-linecap:round;stroke-miterlimit:1.5;"/>
                </g>
                <g transform="matrix(1,0,0,1,-275.857861,-30.646525)">
                    <path d="M774.463,1228.823C774.463,1228.823 770.6,1309.355 779.564,1386.635" style="fill:none;stroke:black;stroke-width:2.08px;stroke-linecap:round;stroke-miterlimit:1.5;"/>
                </g>
                <g transform="matrix(1,0,0,1,-275.857861,-30.646525)">
                    <path d="M754.314,1228.823C754.314,1228.823 749.972,1308.642 756.206,1330.016L773.635,1338.699" style="fill:none;stroke:black;stroke-width:2.08px;stroke-linecap:round;stroke-miterlimit:1.5;"/>
                </g>
                <g transform="matrix(1,0,0,1,-275.857861,-30.646525)">
                    <path d="M959.98,1246.467C959.98,1246.467 901.765,1262.665 886.039,1217.246" style="fill:none;stroke:black;stroke-width:2.08px;stroke-linecap:round;stroke-miterlimit:1.5;"/>
                </g>
                <g transform="matrix(1,0,0,1,-275.857861,-30.646525)">
                    <path d="M688.077,1221.587C688.077,1221.587 674.384,1249.529 661.025,1246.19" style="fill:none;stroke:black;stroke-width:2.08px;stroke-linecap:round;stroke-miterlimit:1.5;"/>
                </g>
                <g transform="matrix(1,0,0,1,187.02228,-19.514246)">
                    <path d="M532.909,1405.172L479.474,1405.172C479.474,1405.172 472.126,1510.65 474.798,1552.062L475.199,1563.974C475.199,1563.974 524.054,1562.447 531.687,1559.394C539.321,1556.34 538.176,1461.684 539.702,1456.722L546.573,1455.959C546.573,1455.959 539.855,1416.981 532.909,1405.172Z" style="fill:none;stroke:black;stroke-width:4.17px;stroke-linecap:round;stroke-miterlimit:1.5;"/>
                </g>
                <g transform="matrix(1,0,0,1,187.02228,-19.514246)">
                    <path d="M180.716,1388.681C180.716,1388.681 170.095,1436.396 169.561,1448.34L173.835,1451.675" style="fill:none;stroke:black;stroke-width:4.17px;stroke-linecap:round;stroke-miterlimit:1.5;"/>
                </g>
                <g transform="matrix(1,0,0,1,187.02228,-19.514246)">
                    <path d="M180.716,1405.172C180.716,1405.172 171.698,1502.252 193.072,1553.443L202.69,1550.665L207.27,1551.81" style="fill:none;stroke:black;stroke-width:4.17px;stroke-linecap:round;stroke-miterlimit:1.5;"/>
                </g>
                <g transform="matrix(1,0,0,1,187.02228,-19.514246)">
                    <path d="M175.138,1451.675L178.827,1453.86" style="fill:none;stroke:black;stroke-width:4.17px;stroke-linecap:round;stroke-miterlimit:1.5;"/>
                </g>
                <g transform="matrix(1,0,0,1,187.02228,-19.514246)">
                    <path d="M539.702,1456.722C539.702,1456.722 495.714,1457.891 491.039,1459.561C491.039,1459.561 482.689,1410.23 480.352,1405.172" style="fill:none;stroke:black;stroke-width:2.08px;stroke-linecap:round;stroke-miterlimit:1.5;"/>
                </g>
                <g transform="matrix(1,0,0,1,187.02228,-19.514246)">
                    <path d="M486.222,1432.367C486.222,1432.367 491.706,1552.586 490.037,1563.974L480.352,1559.331C480.352,1559.331 481.163,1425.075 480.352,1412.385" style="fill:none;stroke:black;stroke-width:2.08px;stroke-linecap:round;stroke-miterlimit:1.5;"/>
                </g>
            </g>
        </g>
    </g>
</svg>
