<?xml version="1.0" encoding="UTF-8" standalone="no"?>
<!DOCTYPE svg PUBLIC "-//W3C//DTD SVG 1.1//EN" "http://www.w3.org/Graphics/SVG/1.1/DTD/svg11.dtd">
<svg width="100%" height="100%" viewBox="0 0 375 876" version="1.1" xmlns="http://www.w3.org/2000/svg" xmlns:xlink="http://www.w3.org/1999/xlink" xml:space="preserve" xmlns:serif="http://www.serif.com/" style="fill-rule:evenodd;clip-rule:evenodd;stroke-linecap:round;stroke-linejoin:round;stroke-miterlimit:1.5;">
    <g transform="matrix(1,0,0,1,-634.571726,-1153.241714)">
        <g id="normal">
            <path d="M684.89,1170.805L661.273,1240.157L647.766,1277.468L636.655,1331.794L636.655,1386.713L639.157,1398.587L641.532,1430.351L650.141,1482.599L661.422,1527.425L679.827,1585.61L698.232,1645.279L701.498,1668.731L703.279,1682.386L709.216,1706.729L711.294,1716.525L714.857,1762.836L717.825,1805.88L722.278,1848.331L725.544,1884.845L730.293,1928.187L733.262,1973.013L735.34,2007.746L751.667,2010.417L776.307,2013.113L800.353,2010.714L812.227,2007.449L815.789,1975.388L820.836,1923.734L829.742,1881.58L835.382,1848.035L839.354,1802.615L839.354,1769.96L833.007,1738.493L826.773,1717.119L820.242,1684.761L820.539,1666.95L821.727,1616.186L823.508,1585.016L829.445,1606.687L843.397,1661.903L856.162,1712.963L865.662,1742.055L868.334,1753.039L869.224,1765.507L878.13,1820.427L884.661,1860.8L893.27,1898.501L903.363,1951.045L909.004,1987.262L912.863,2022.292C912.863,2022.292 945.696,2033.053 985.505,2018.091L992.985,1957.443L1002.871,1881.298L1007.114,1812.1L1002.337,1774.962L988.978,1724.199L974.283,1658.474L974.283,1643.78L976.688,1613.856L984.169,1563.627L990.314,1503.246L994.589,1458.36L999.398,1415.345L1003.138,1379.544L1002.069,1340.269L998.596,1312.216L988.176,1273.475L971.344,1228.857L954.512,1202.14L944.36,1185.575L930.199,1155.325C930.199,1155.325 866.879,1176.491 827.337,1179.43C787.795,1182.369 782.185,1183.705 759.208,1181.835C759.208,1181.835 718.33,1179.43 709.246,1176.758L684.89,1170.805Z" style="fill:rgb(29,29,29);"/>
            <clipPath id="_clip1">
                <path d="M684.89,1170.805L661.273,1240.157L647.766,1277.468L636.655,1331.794L636.655,1386.713L639.157,1398.587L641.532,1430.351L650.141,1482.599L661.422,1527.425L679.827,1585.61L698.232,1645.279L701.498,1668.731L703.279,1682.386L709.216,1706.729L711.294,1716.525L714.857,1762.836L717.825,1805.88L722.278,1848.331L725.544,1884.845L730.293,1928.187L733.262,1973.013L735.34,2007.746L751.667,2010.417L776.307,2013.113L800.353,2010.714L812.227,2007.449L815.789,1975.388L820.836,1923.734L829.742,1881.58L835.382,1848.035L839.354,1802.615L839.354,1769.96L833.007,1738.493L826.773,1717.119L820.242,1684.761L820.539,1666.95L821.727,1616.186L823.508,1585.016L829.445,1606.687L843.397,1661.903L856.162,1712.963L865.662,1742.055L868.334,1753.039L869.224,1765.507L878.13,1820.427L884.661,1860.8L893.27,1898.501L903.363,1951.045L909.004,1987.262L912.863,2022.292C912.863,2022.292 945.696,2033.053 985.505,2018.091L992.985,1957.443L1002.871,1881.298L1007.114,1812.1L1002.337,1774.962L988.978,1724.199L974.283,1658.474L974.283,1643.78L976.688,1613.856L984.169,1563.627L990.314,1503.246L994.589,1458.36L999.398,1415.345L1003.138,1379.544L1002.069,1340.269L998.596,1312.216L988.176,1273.475L971.344,1228.857L954.512,1202.14L944.36,1185.575L930.199,1155.325C930.199,1155.325 866.879,1176.491 827.337,1179.43C787.795,1182.369 782.185,1183.705 759.208,1181.835C759.208,1181.835 718.33,1179.43 709.246,1176.758L684.89,1170.805Z"/>
            </clipPath>
            <g clip-path="url(#_clip1)">
                <g transform="matrix(0.037637,0,0,0.037637,896.693447,1285.987919)">
                    <g transform="matrix(1,0,0,1,-3643.75,-5168.75)">
                        <g id="alo-yoga-1.jpg" transform="matrix(4.903158,0,0,4.903158,1383.333333,2983.333333)">
                            <path d="M526.5,163.05C530.783,163.219 531.899,161.739 532.591,164.475C532.776,165.206 532.68,441.658 532.639,442.524C532.514,445.183 523.948,444.34 521.5,444.34C500.215,444.34 498.333,445.156 498.31,441.506C498.309,441.322 498.303,166.24 498.313,165.49C498.356,162.433 500.048,163.05 526.5,163.05Z" style="fill:rgb(254,254,254);"/>
                            <path d="M372.42,277.083C376.079,276.525 397.741,273.223 418.467,281.584C436.251,288.758 434.854,291.27 436.465,291.624C440.904,292.6 434.476,281.303 441.499,281.304C470.944,281.31 472.28,280.858 472.538,283.497C472.55,283.625 472.602,441.955 472.51,442.502C472.142,444.685 471.084,444.354 441.5,444.343C436.771,444.341 438.148,442.196 438.17,437.502C438.201,430.732 434.708,436.415 425.306,441.145C357.045,475.491 286.21,408.034 305.863,339.605C321.679,284.539 370.873,277.453 372.42,277.083ZM388.501,311.113C384.998,311.191 362.481,311.696 348.885,329.813C315.927,373.73 358.062,423.486 397.582,413.863C456.799,399.443 448.001,313.637 388.501,311.113Z" style="fill:rgb(254,254,254);"/>
                            <path d="M621.423,277.062C627.428,276.159 665.367,270.454 694.124,298.871C758.208,362.194 700.197,464.742 620.466,448.673C552.6,434.995 533.227,351.858 570.784,307.736C589.789,285.409 604.735,281.04 621.423,277.062ZM635.498,311.113C580.651,313.623 569.337,386.262 613.65,409.214C664.587,435.597 713.862,366.637 670.352,324.652C657.412,312.165 638.486,311.257 635.498,311.113Z" style="fill:rgb(254,254,254);"/>
                        </g>
                    </g>
                </g>
            </g>
            <g id="normal1" serif:id="normal" transform="matrix(1,0,0,1,-189.026092,13.830082)">
                <path d="M874.016,1157.028C874.016,1157.028 853.734,1217.142 843.048,1245.196C843.048,1245.196 826.572,1292.281 825.681,1341.824C825.681,1341.824 827.462,1432.334 845.719,1496.456C863.976,1560.578 872.437,1581.951 881.788,1612.231C891.139,1642.511 889.803,1655.87 892.92,1670.119C896.037,1684.368 897.373,1691.493 899.154,1697.727C900.935,1703.961 903.607,1743.592 904.943,1767.638C906.279,1791.684 912.068,1847.345 914.739,1871.391C917.411,1895.436 922.755,1957.332 923.2,1970.691C923.645,1984.049 924.09,1995.182 924.09,1995.182C924.09,1995.182 980.197,2004.978 1002.016,1994.291C1002.016,1994.291 1006.469,1924.38 1012.258,1899.889C1018.047,1875.398 1026.953,1824.19 1027.843,1807.269C1028.734,1790.348 1029.624,1752.943 1020.719,1720.437C1011.813,1687.931 1008.696,1675.463 1009.141,1664.776C1009.586,1654.089 1010.477,1606.443 1010.922,1597.982C1011.368,1589.521 1011.813,1565.03 1011.813,1565.03" style="fill:none;stroke:black;stroke-width:4.17px;"/>
                <path d="M911.177,1368.434C911.177,1368.434 951.699,1391.59 985.095,1397.378C985.095,1397.378 1002.907,1540.74 1014.039,1578.156C1025.172,1615.571 1031.851,1651.64 1038.976,1674.795C1046.1,1697.95 1039.866,1678.802 1050.553,1713.98C1061.24,1749.158 1055.897,1739.807 1059.904,1760.291C1063.912,1780.774 1068.81,1816.843 1071.482,1833.764C1074.154,1850.685 1087.958,1909.908 1090.629,1927.72C1093.301,1945.532 1098.645,1969.132 1101.762,2009.208C1101.762,2009.208 1130.706,2019.736 1174.98,2004.469C1174.98,2004.469 1184.522,1919.737 1187.576,1902.943C1190.629,1886.149 1194.828,1835.386 1195.973,1817.065C1197.118,1798.745 1192.156,1758.287 1188.339,1747.981C1184.522,1737.676 1165.471,1665.157 1163.356,1649.127C1161.24,1633.096 1165.438,1599.509 1167.728,1588.44C1170.018,1577.371 1179.942,1490.73 1180.324,1479.662C1180.705,1468.593 1186.431,1414.395 1187.576,1406.38C1188.721,1398.364 1190.629,1381.952 1191.011,1375.082C1191.392,1368.212 1195.973,1335.769 1185.286,1291.494C1174.599,1247.22 1162.767,1220.502 1153.606,1205.235C1144.446,1189.968 1128.797,1168.976 1119.255,1141.495C1119.255,1141.495 1044.065,1168.976 965.821,1169.357C965.821,1169.357 911.218,1169.508 874.016,1157.028" style="fill:none;stroke:black;stroke-width:4.17px;"/>
                <g transform="matrix(1,0,0,1,189.026092,-13.830082)">
                    <path d="M920.574,1158.576C920.574,1158.576 954.338,1231.028 966.628,1262.554C978.919,1294.081 984.796,1312.783 986.934,1369.958C989.071,1427.134 982.125,1450.645 982.125,1489.118C982.125,1527.591 963.957,1601.866 963.422,1653.698C963.422,1653.698 985.865,1758.965 992.277,1789.957C998.689,1820.949 998.155,1834.308 993.88,1881.865L981.056,2014.384" style="fill:none;stroke:black;stroke-width:2.08px;"/>
                </g>
                <g transform="matrix(1,0,0,1,189.026092,-13.830082)">
                    <path d="M810.643,1520.177C810.643,1520.177 794.613,1648.421 797.284,1679.146C799.956,1709.871 803.296,1713.211 806.635,1739.929C809.975,1766.646 815.986,1798.707 811.979,1841.455C807.971,1884.203 803.964,1926.283 803.296,1944.317C802.628,1962.351 800.535,2004.008 800.535,2004.008" style="fill:none;stroke:black;stroke-width:2.08px;"/>
                </g>
            </g>
        </g>
    </g>
</svg>
