<?xml version="1.0" encoding="UTF-8" standalone="no"?>
<svg width="100%" height="100%" viewBox="0 0 579 801" version="1.1" xmlns="http://www.w3.org/2000/svg" xmlns:xlink="http://www.w3.org/1999/xlink" xml:space="preserve" xmlns:serif="http://www.serif.com/" style="fill-rule:evenodd;clip-rule:evenodd;stroke-linejoin:round;stroke-miterlimit:2;">
    <g transform="matrix(1,0,0,1,-1076.391236,-1190.550573)">
        <path d="M1635.843,1190.551C1635.843,1190.551 1641.902,1235.729 1642.57,1243.076C1643.238,1250.424 1648.581,1291.168 1648.581,1295.175C1648.581,1299.183 1655.076,1344.937 1654.5,1350.948C1653.925,1356.96 1655.744,1387.017 1654.5,1391.358C1653.257,1395.7 1652.923,1420.414 1651.587,1427.093C1650.251,1433.772 1646.577,1471.845 1644.908,1479.192C1643.238,1486.539 1639.898,1516.596 1638.562,1525.28C1637.226,1533.963 1632.885,1575.375 1630.881,1586.396C1628.877,1597.417 1621.864,1651.186 1621.864,1660.871C1621.864,1670.556 1625.871,1684.917 1631.883,1705.623C1637.894,1726.329 1640.232,1755.384 1640.232,1765.403C1640.232,1775.422 1637.894,1812.826 1635.223,1825.851C1632.551,1838.876 1626.539,1866.261 1624.536,1882.626C1622.532,1898.99 1613.849,1935.393 1611.177,1950.755C1608.505,1966.118 1606.316,1979.532 1606.316,1979.532C1606.316,1979.532 1561.193,2000.313 1511.32,1986.36C1511.32,1986.36 1495.884,1889.88 1494.102,1883.053C1492.321,1876.225 1474.51,1805.572 1472.728,1799.635C1470.947,1793.697 1449.276,1705.827 1447.495,1700.78C1445.714,1695.733 1440.964,1692.765 1435.324,1677.328C1429.684,1661.891 1409.794,1616.768 1407.419,1610.237C1405.044,1603.707 1384.858,1547.6 1383.967,1543.741C1383.076,1539.881 1371.202,1503.664 1371.202,1503.664L1362.89,1544.631C1362.89,1544.631 1346.859,1611.722 1346.266,1622.409C1345.672,1633.096 1347.75,1641.408 1350.125,1652.095C1352.5,1662.782 1370.691,1731.06 1370.798,1740.559C1370.905,1750.059 1374.119,1780.932 1368.207,1804.681C1362.296,1828.43 1358.793,1840.913 1358.793,1840.913C1358.793,1840.913 1345.969,1893.279 1344.9,1897.287C1343.831,1901.295 1337.152,1933.623 1337.152,1933.623C1337.152,1933.623 1277.038,1951.256 1236.16,1934.691C1236.16,1934.691 1227.343,1874.31 1226.542,1868.966C1225.74,1863.623 1213.717,1786.677 1212.381,1782.135C1211.046,1777.593 1199.557,1702.517 1197.954,1698.776C1196.351,1695.036 1188.336,1679.005 1187,1673.929C1185.664,1668.853 1179.786,1648.547 1178.717,1644.273C1177.649,1639.998 1163.221,1611.41 1160.282,1603.128C1157.343,1594.845 1143.985,1564.922 1141.847,1558.242C1139.71,1551.563 1128.221,1521.105 1125.015,1511.22C1121.809,1501.334 1112.191,1468.739 1110.855,1462.059C1109.519,1455.38 1099.901,1412.098 1098.565,1406.22C1097.229,1400.342 1093.582,1386.716 1093.802,1380.037C1094.023,1373.357 1093.222,1369.884 1091.351,1364.541C1089.481,1359.197 1083.603,1341.296 1082.802,1334.617C1082,1327.938 1076.485,1293.205 1076.571,1287.594C1076.657,1281.984 1077.019,1254.999 1076.571,1250.724C1076.122,1246.449 1076.655,1225.877 1076.655,1225.877L1079.596,1212.86C1079.596,1212.86 1156.809,1237.873 1186.733,1240.157C1216.656,1242.442 1265.816,1244.045 1275.168,1244.045C1284.519,1244.045 1349.442,1244.846 1359.862,1243.511C1370.282,1242.175 1447.762,1237.9 1458.717,1236.297C1469.671,1234.694 1519.632,1227.48 1528.182,1224.274C1536.732,1221.068 1600.052,1203.969 1605.93,1201.564C1611.808,1199.16 1635.843,1190.551 1635.843,1190.551Z" style="fill:rgb(29,29,29);"/>
    </g>
</svg>
