<?xml version="1.0" encoding="UTF-8" standalone="no"?>
<svg width="100%" height="100%" viewBox="0 0 375 876" version="1.1" xmlns="http://www.w3.org/2000/svg" xmlns:xlink="http://www.w3.org/1999/xlink" xml:space="preserve" xmlns:serif="http://www.serif.com/" style="fill-rule:evenodd;clip-rule:evenodd;stroke-linecap:round;stroke-linejoin:round;stroke-miterlimit:1.5;">
    <g transform="matrix(1,0,0,1,-634.571726,-1153.241714)">
        <g id="normal">
            <path d="M684.89,1170.805L661.273,1240.157L647.766,1277.468L636.655,1331.794L636.655,1386.713L639.157,1398.587L641.532,1430.351L650.141,1482.599L661.422,1527.425L679.827,1585.61L698.232,1645.279L701.498,1668.731L703.279,1682.386L709.216,1706.729L711.294,1716.525L714.857,1762.836L717.825,1805.88L722.278,1848.331L725.544,1884.845L730.293,1928.187L733.262,1973.013L735.34,2007.746L751.667,2010.417L776.307,2013.113L800.353,2010.714L812.227,2007.449L815.789,1975.388L820.836,1923.734L829.742,1881.58L835.382,1848.035L839.354,1802.615L839.354,1769.96L833.007,1738.493L826.773,1717.119L820.242,1684.761L820.539,1666.95L821.727,1616.186L823.508,1585.016L829.445,1606.687L843.397,1661.903L856.162,1712.963L865.662,1742.055L868.334,1753.039L869.224,1765.507L878.13,1820.427L884.661,1860.8L893.27,1898.501L903.363,1951.045L909.004,1987.262L912.863,2022.292C912.863,2022.292 945.696,2033.053 985.505,2018.091L992.985,1957.443L1002.871,1881.298L1007.114,1812.1L1002.337,1774.962L988.978,1724.199L974.283,1658.474L974.283,1643.78L976.688,1613.856L984.169,1563.627L990.314,1503.246L994.589,1458.36L999.398,1415.345L1003.138,1379.544L1002.069,1340.269L998.596,1312.216L988.176,1273.475L971.344,1228.857L954.512,1202.14L944.36,1185.575L930.199,1155.325C930.199,1155.325 866.879,1176.491 827.337,1179.43C787.795,1182.369 782.185,1183.705 759.208,1181.835C759.208,1181.835 718.33,1179.43 709.246,1176.758L684.89,1170.805Z" style="fill:rgb(73,90,173);"/>
            <clipPath id="_clip1">
                <path d="M684.89,1170.805L661.273,1240.157L647.766,1277.468L636.655,1331.794L636.655,1386.713L639.157,1398.587L641.532,1430.351L650.141,1482.599L661.422,1527.425L679.827,1585.61L698.232,1645.279L701.498,1668.731L703.279,1682.386L709.216,1706.729L711.294,1716.525L714.857,1762.836L717.825,1805.88L722.278,1848.331L725.544,1884.845L730.293,1928.187L733.262,1973.013L735.34,2007.746L751.667,2010.417L776.307,2013.113L800.353,2010.714L812.227,2007.449L815.789,1975.388L820.836,1923.734L829.742,1881.58L835.382,1848.035L839.354,1802.615L839.354,1769.96L833.007,1738.493L826.773,1717.119L820.242,1684.761L820.539,1666.95L821.727,1616.186L823.508,1585.016L829.445,1606.687L843.397,1661.903L856.162,1712.963L865.662,1742.055L868.334,1753.039L869.224,1765.507L878.13,1820.427L884.661,1860.8L893.27,1898.501L903.363,1951.045L909.004,1987.262L912.863,2022.292C912.863,2022.292 945.696,2033.053 985.505,2018.091L992.985,1957.443L1002.871,1881.298L1007.114,1812.1L1002.337,1774.962L988.978,1724.199L974.283,1658.474L974.283,1643.78L976.688,1613.856L984.169,1563.627L990.314,1503.246L994.589,1458.36L999.398,1415.345L1003.138,1379.544L1002.069,1340.269L998.596,1312.216L988.176,1273.475L971.344,1228.857L954.512,1202.14L944.36,1185.575L930.199,1155.325C930.199,1155.325 866.879,1176.491 827.337,1179.43C787.795,1182.369 782.185,1183.705 759.208,1181.835C759.208,1181.835 718.33,1179.43 709.246,1176.758L684.89,1170.805Z"/>
            </clipPath>
            <g clip-path="url(#_clip1)">
                <g transform="matrix(0.01127,0.142714,-0.142714,0.01127,821.884532,1705.179439)">
                    <g transform="matrix(1,0,0,1,-3643.75,-5168.75)">
                        <g id="_5a7f5f47abc3d121aba71181.png" serif:id="5a7f5f47abc3d121aba71181.png" transform="matrix(9.809338,0,0,9.809338,1487.916371,3540.618292)">
                            <path d="M131.908,46.381C133.181,46.559 133.23,46.931 134.237,46.096C142.771,39.013 156.65,41.486 161.526,50.484C175.436,76.149 142.517,105.234 127.284,89.739C123.632,86.025 125.05,91.603 121.092,115.436C120.525,118.854 117.019,118.398 108.534,118.196C105.957,118.134 107.621,112.401 107.761,111.541C118.48,45.713 117.115,43.654 120.503,43.541C130.398,43.21 131.81,42.973 131.908,46.381ZM127.087,69.483C128.239,94.607 158.395,75.371 148.499,58.5C145.369,53.163 130.477,49.759 127.087,69.483Z" style="fill:rgb(254,254,254);"/>
                            <path d="M303.935,61.531C303.934,60.823 303.926,54.362 300.541,53.363C286.181,49.127 288.392,89.962 284.333,92.047C283.837,92.301 272.861,92.251 272.605,92.132C268.421,90.19 281.877,56.107 272.538,53.37C259.576,49.57 259.998,82.28 257.572,90.52C256.756,93.293 243.399,93.064 243.666,90.502C243.715,90.035 250.879,45.057 250.992,44.692C251.593,42.738 263.815,43.515 264.262,43.842C264.904,44.312 264.047,48.491 266.707,45.911C270.1,42.62 277.748,40.606 283.649,43.139C288.949,45.414 288.559,50.733 292.806,46.858C298.682,41.496 310.238,39.854 315.44,45.555C317.864,48.212 320.64,51.255 313.431,90.482C312.985,92.906 306.42,92.26 301.516,92.215C297.789,92.18 300.305,89.827 303.935,61.531Z" style="fill:rgb(254,254,254);"/>
                            <path d="M31.534,94.12C24.437,92.448 23.744,93.497 18.721,88.276C10.687,79.927 14.616,78.172 14.886,77.95C19.728,73.96 23.153,69.353 24.833,73.35C29.157,83.637 39.907,82.6 44.084,77.155C54.882,63.076 34.131,57.494 33.627,57.244C31.505,56.191 14.844,47.923 25.818,28.684C39.127,5.351 70.443,19.701 66.017,25.15C60.919,31.428 59.199,34.206 57.147,31.837C51.166,24.932 42.528,28.407 39.923,31.856C32.396,41.822 48.092,46.359 51.301,47.896C70.258,56.982 61.991,76.538 55.01,85.06C47.775,93.892 33.547,94.092 31.534,94.12Z" style="fill:rgb(254,254,254);"/>
                            <path d="M319.92,72.513C320.168,70.685 321.868,58.142 327.954,50.895C331.622,46.526 337.314,43.723 340.612,42.917C366.657,36.557 369.802,60.597 367,68.69C365.695,72.46 335.593,67.786 334.678,71.55C332.429,80.805 342.682,87.783 350.436,79.439C353.217,76.447 353.736,76.32 363.572,78.326C366.432,78.909 360.859,84.983 360.438,85.441C352.064,94.567 321.689,103.426 319.92,72.513ZM338.382,57.427C337.402,60.017 335.7,61.412 338.501,61.491C354.542,61.939 354.92,60.824 354.939,59.5C355.013,54.425 346.774,45.716 338.382,57.427Z" style="fill:rgb(254,254,254);"/>
                            <path d="M215.5,70.122C214.815,70.238 214.102,70.09 213.417,70.206C210.818,70.648 210.769,82.986 219.509,83.134C225.758,83.239 229.223,77.863 229.555,77.56C230.97,76.267 243.183,77.261 241.642,80.565C234.059,96.83 197.48,101.595 197.311,73.501C197.072,33.796 252.797,31.215 244.44,68.482C243.982,70.526 243.114,70.122 215.5,70.122ZM217.342,55.359C217.041,55.769 212.97,61.312 215.516,61.444C232.127,62.303 232.506,60.858 232.381,59.506C231.811,53.354 225.06,47.705 217.342,55.359Z" style="fill:rgb(254,254,254);"/>
                            <path d="M79.084,74.5C80.325,87.292 92.578,83.241 94.823,72.576C97.799,58.434 97.797,43.633 101.503,43.542C106.551,43.417 113.528,42.841 113.173,45.479C108.891,77.371 106.773,80.66 105.1,83.258C95.049,98.868 61.59,99.663 64.941,73.552C65.245,71.179 68.522,45.642 70.152,44.11C70.784,43.515 83.598,42.102 83.337,45.491C83.017,49.651 79.894,63.977 79.084,74.5Z" style="fill:rgb(254,254,254);"/>
                            <path d="M165.894,78.56C170.717,48.561 171.05,44.652 171.903,43.986C172.258,43.709 185.648,41.921 185.003,45.608C184.052,51.043 189.498,41.679 197.511,41.95C206.416,42.252 202.117,48.154 201.71,49.562C200.558,53.543 200.444,55.85 197.4,54.808C181.133,49.239 180.124,77.564 178.131,89.442C177.57,92.785 174.602,92.44 165.534,92.211C163.063,92.149 164.829,85.167 165.894,78.56Z" style="fill:rgb(254,254,254);"/>
                        </g>
                    </g>
                </g>
            </g>
            <g id="normal1" serif:id="normal" transform="matrix(1,0,0,1,-189.026092,13.830082)">
                <path d="M874.016,1157.028C874.016,1157.028 853.734,1217.142 843.048,1245.196C843.048,1245.196 826.572,1292.281 825.681,1341.824C825.681,1341.824 827.462,1432.334 845.719,1496.456C863.976,1560.578 872.437,1581.951 881.788,1612.231C891.139,1642.511 889.803,1655.87 892.92,1670.119C896.037,1684.368 897.373,1691.493 899.154,1697.727C900.935,1703.961 903.607,1743.592 904.943,1767.638C906.279,1791.684 912.068,1847.345 914.739,1871.391C917.411,1895.436 922.755,1957.332 923.2,1970.691C923.645,1984.049 924.09,1995.182 924.09,1995.182C924.09,1995.182 980.197,2004.978 1002.016,1994.291C1002.016,1994.291 1006.469,1924.38 1012.258,1899.889C1018.047,1875.398 1026.953,1824.19 1027.843,1807.269C1028.734,1790.348 1029.624,1752.943 1020.719,1720.437C1011.813,1687.931 1008.696,1675.463 1009.141,1664.776C1009.586,1654.089 1010.477,1606.443 1010.922,1597.982C1011.368,1589.521 1011.813,1565.03 1011.813,1565.03" style="fill:none;stroke:black;stroke-width:4.17px;"/>
                <path d="M911.177,1368.434C911.177,1368.434 951.699,1391.59 985.095,1397.378C985.095,1397.378 1002.907,1540.74 1014.039,1578.156C1025.172,1615.571 1031.851,1651.64 1038.976,1674.795C1046.1,1697.95 1039.866,1678.802 1050.553,1713.98C1061.24,1749.158 1055.897,1739.807 1059.904,1760.291C1063.912,1780.774 1068.81,1816.843 1071.482,1833.764C1074.154,1850.685 1087.958,1909.908 1090.629,1927.72C1093.301,1945.532 1098.645,1969.132 1101.762,2009.208C1101.762,2009.208 1130.706,2019.736 1174.98,2004.469C1174.98,2004.469 1184.522,1919.737 1187.576,1902.943C1190.629,1886.149 1194.828,1835.386 1195.973,1817.065C1197.118,1798.745 1192.156,1758.287 1188.339,1747.981C1184.522,1737.676 1165.471,1665.157 1163.356,1649.127C1161.24,1633.096 1165.438,1599.509 1167.728,1588.44C1170.018,1577.371 1179.942,1490.73 1180.324,1479.662C1180.705,1468.593 1186.431,1414.395 1187.576,1406.38C1188.721,1398.364 1190.629,1381.952 1191.011,1375.082C1191.392,1368.212 1195.973,1335.769 1185.286,1291.494C1174.599,1247.22 1162.767,1220.502 1153.606,1205.235C1144.446,1189.968 1128.797,1168.976 1119.255,1141.495C1119.255,1141.495 1044.065,1168.976 965.821,1169.357C965.821,1169.357 911.218,1169.508 874.016,1157.028" style="fill:none;stroke:black;stroke-width:4.17px;"/>
                <g transform="matrix(1,0,0,1,189.026092,-13.830082)">
                    <path d="M920.574,1158.576C920.574,1158.576 954.338,1231.028 966.628,1262.554C978.919,1294.081 984.796,1312.783 986.934,1369.958C989.071,1427.134 982.125,1450.645 982.125,1489.118C982.125,1527.591 963.957,1601.866 963.422,1653.698C963.422,1653.698 985.865,1758.965 992.277,1789.957C998.689,1820.949 998.155,1834.308 993.88,1881.865L981.056,2014.384" style="fill:none;stroke:black;stroke-width:2.08px;"/>
                </g>
                <g transform="matrix(1,0,0,1,189.026092,-13.830082)">
                    <path d="M810.643,1520.177C810.643,1520.177 794.613,1648.421 797.284,1679.146C799.956,1709.871 803.296,1713.211 806.635,1739.929C809.975,1766.646 815.986,1798.707 811.979,1841.455C807.971,1884.203 803.964,1926.283 803.296,1944.317C802.628,1962.351 800.535,2004.008 800.535,2004.008" style="fill:none;stroke:black;stroke-width:2.08px;"/>
                </g>
                <g transform="matrix(1,0,0,1,189.026092,-13.830082)">
                    <path d="M777.469,1184.406C777.469,1184.406 767.672,1332.047 782.812,1405.172" style="fill:none;stroke:black;stroke-width:2.08px;"/>
                </g>
                <g transform="matrix(1,0,0,1,189.026092,-13.830082)">
                    <path d="M756.985,1184.406C756.985,1184.406 748.97,1291.275 755.204,1312.649L774.351,1320.665" style="fill:none;stroke:black;stroke-width:2.08px;"/>
                </g>
                <g transform="matrix(1,0,0,1,189.026092,-13.830082)">
                    <path d="M958.835,1240.157C958.835,1240.157 889.742,1219.584 874.016,1174.164" style="fill:none;stroke:black;stroke-width:2.08px;"/>
                </g>
                <g transform="matrix(1,0,0,1,189.026092,-13.830082)">
                    <path d="M699.766,1174.164C699.766,1174.164 677.724,1231.495 661.025,1246.19" style="fill:none;stroke:black;stroke-width:2.08px;"/>
                </g>
            </g>
        </g>
    </g>
</svg>
