<?xml version="1.0" encoding="UTF-8" standalone="no"?>
<svg width="100%" height="100%" viewBox="0 0 583 760" version="1.1" xmlns="http://www.w3.org/2000/svg" xmlns:xlink="http://www.w3.org/1999/xlink" xml:space="preserve" xmlns:serif="http://www.serif.com/" style="fill-rule:evenodd;clip-rule:evenodd;stroke-linecap:round;stroke-linejoin:round;stroke-miterlimit:1.5;">
    <g transform="matrix(1,0,0,1,-1074.571659,-1234.332229)">
        <g id="fat">
            <g>
                <path d="M1076.655,1257.759C1076.655,1257.759 1163.934,1289.972 1193.857,1292.257C1223.781,1294.541 1218.488,1300.181 1227.839,1300.181C1237.191,1300.181 1358.221,1298.281 1368.641,1296.945C1379.06,1295.61 1447.381,1295.915 1494.213,1284.388C1504.963,1281.742 1545.586,1270.991 1554.136,1267.785C1562.686,1264.579 1613.029,1247.48 1618.907,1245.075C1624.785,1242.671 1640.423,1236.416 1640.423,1236.416C1640.423,1236.416 1641.902,1235.729 1642.57,1243.076C1643.238,1250.424 1648.581,1291.168 1648.581,1295.175C1648.581,1299.183 1655.076,1344.937 1654.5,1350.948C1653.925,1356.96 1655.744,1387.017 1654.5,1391.358C1653.849,1393.632 1653.513,1401.72 1652.747,1409.658C1652.051,1416.876 1651.579,1423.849 1651.587,1427.093C1651.627,1442.616 1648.546,1447.063 1648.019,1467.3C1647.812,1475.256 1647.064,1481.25 1646.546,1483.526C1644.876,1490.873 1642.641,1507.833 1641.305,1516.516C1640.195,1523.733 1633.159,1577.608 1630.455,1595.549C1629.905,1599.196 1628.955,1598.277 1629.235,1607.146C1629.419,1613.013 1627.371,1609.549 1626.885,1613.763C1624.798,1631.877 1621.864,1653.872 1621.864,1660.871C1621.864,1670.556 1625.871,1684.917 1631.883,1705.623C1637.894,1726.329 1640.232,1755.384 1640.232,1765.403C1640.232,1775.422 1637.894,1812.826 1635.223,1825.851C1632.551,1838.876 1626.539,1866.261 1624.536,1882.626C1622.532,1898.99 1613.849,1935.393 1611.177,1950.755C1608.505,1966.118 1611.177,1950.755 1611.177,1950.755C1611.177,1950.755 1557.037,1968.845 1507.164,1954.893C1507.164,1954.893 1495.884,1889.88 1494.102,1883.053C1492.321,1876.225 1474.51,1805.572 1472.728,1799.635C1470.947,1793.697 1449.276,1705.827 1447.495,1700.78C1445.714,1695.733 1440.964,1692.765 1435.324,1677.328C1429.684,1661.891 1409.794,1616.768 1407.419,1610.237C1405.044,1603.707 1384.858,1547.6 1383.967,1543.741C1383.076,1539.881 1371.202,1503.664 1371.202,1503.664L1362.89,1544.631C1362.89,1544.631 1346.859,1611.722 1346.266,1622.409C1345.672,1633.096 1347.75,1641.408 1350.125,1652.095C1352.5,1662.782 1370.691,1731.06 1370.798,1740.559C1370.905,1750.059 1374.119,1780.932 1368.207,1804.681C1362.296,1828.43 1358.793,1840.913 1358.793,1840.913C1358.793,1840.913 1345.969,1893.279 1344.9,1897.287C1343.831,1901.295 1342.763,1906.694 1342.763,1906.694C1342.763,1906.694 1273.502,1918.964 1232.624,1902.4C1232.624,1902.4 1227.343,1874.31 1226.542,1868.966C1225.74,1863.623 1213.717,1786.677 1212.381,1782.135C1211.046,1777.593 1199.557,1702.517 1197.954,1698.776C1196.351,1695.036 1188.336,1679.005 1187,1673.929C1185.664,1668.853 1179.786,1648.547 1178.717,1644.273C1178.428,1643.116 1170.367,1628.552 1168.061,1622.31C1165.525,1615.445 1165.603,1619.421 1163.155,1613.789C1156.889,1599.379 1158.505,1602.849 1157.237,1599.273C1154.298,1590.991 1150.931,1583.517 1148.794,1576.838C1146.657,1570.158 1135.702,1545.097 1132.496,1535.212C1131.504,1532.152 1126.788,1512.464 1123.234,1506.388C1115.309,1492.835 1111.777,1468.808 1110.855,1464.197C1110.103,1460.436 1105.388,1443.731 1103.677,1434.781C1101.624,1424.041 1099.149,1408.788 1098.565,1406.22C1097.229,1400.342 1093.582,1386.716 1093.802,1380.037C1094.023,1373.357 1093.222,1369.884 1091.351,1364.541C1089.481,1359.197 1083.603,1341.296 1082.802,1334.617C1082,1327.938 1076.485,1293.205 1076.571,1287.594C1076.657,1281.984 1077.103,1274.147 1076.655,1269.872" style="fill:rgb(81,107,174);"/>
                <path d="M1506.046,1948.475L1499.233,1956.849C1499.233,1956.849 1505.438,1976.342 1505.609,1987.285C1505.609,1987.285 1543.441,1994.523 1564.601,1991.962C1564.601,1991.962 1606.922,1985.127 1609.273,1984.058C1609.273,1984.058 1617.872,1954.348 1618.275,1951.356L1613.12,1947.098L1610.983,1950.073C1610.983,1950.073 1576.998,1957.982 1548.357,1956.058C1548.357,1956.058 1510.525,1955.417 1508.174,1954.348L1506.046,1948.475Z" style="fill:rgb(99,154,207);"/>
                <path d="M1229.965,1897.088L1225.049,1905.627C1225.049,1905.627 1233.573,1928.935 1232.624,1936.416C1232.624,1936.416 1270.468,1944.325 1287.621,1943.47C1287.621,1943.47 1339.211,1942.187 1342.618,1940.264C1342.618,1940.264 1348.377,1906.471 1349.445,1905.627L1345.171,1902.4L1342.618,1905.627C1342.618,1905.627 1321.659,1911.215 1297.72,1908.854C1297.72,1908.854 1260.743,1906.257 1254.759,1905.627C1254.759,1905.627 1235.069,1903.436 1232.624,1902.4L1229.965,1897.088Z" style="fill:rgb(99,154,207);"/>
            </g>
            <g id="fat1" serif:id="fat">
                <path d="M1076.701,1257.759C1076.148,1295.72 1080.335,1350.832 1103.867,1395.073" style="fill:none;stroke:black;stroke-width:4.17px;"/>
                <path d="M1342.808,1906.694C1348.365,1882.882 1356.168,1850.118 1360.444,1835.154C1360.444,1835.154 1377.81,1773.259 1368.905,1732.292C1359.999,1691.325 1353.765,1669.06 1349.312,1649.022C1344.859,1628.984 1348.421,1609.837 1351.983,1595.142C1355.546,1580.448 1369.35,1514.544 1370.686,1502.522M1093.802,1372.597C1093.802,1372.597 1101.552,1488.94 1178.676,1644.08C1178.676,1644.08 1188.116,1680.193 1195.686,1694.887C1203.256,1709.582 1207.264,1759.9 1212.607,1782.164C1212.607,1782.164 1225.491,1858.949 1231.853,1904.324" style="fill:none;stroke:black;stroke-width:4.17px;"/>
                <path d="M1641.066,1236.416C1641.066,1236.416 1518.166,1291.1 1418.421,1295.374C1318.676,1299.647 1307.322,1301.428 1226.39,1298.756C1226.39,1298.756 1147.456,1287.268 1076.655,1259.17M1627.291,1613.789C1648.181,1476.677 1652.864,1416.68 1653.089,1414.087C1653.98,1403.845 1655.761,1354.418 1653.089,1336.606C1650.418,1318.794 1643.293,1248.438 1641.066,1236.416M1507.149,1954.32C1569.983,1961.542 1611.385,1950.496 1611.385,1950.496C1615.559,1926.326 1621.251,1893.988 1624.145,1880.307C1624.145,1880.307 1639.285,1803.717 1638.84,1789.467C1638.395,1775.218 1643.738,1748.946 1630.825,1703.081C1630.825,1703.081 1622.81,1679.035 1621.474,1668.348C1620.138,1657.661 1624.145,1638.068 1625.481,1628.272C1625.73,1626.447 1626.38,1621.209 1627.291,1613.789M1243.778,1423.26C1243.778,1423.26 1285.19,1440.181 1354.21,1447.751C1354.21,1447.751 1416.373,1655.835 1447.365,1701.255C1447.365,1701.255 1479.426,1825.224 1490.113,1864.232C1490.113,1864.232 1501.035,1915.313 1507.149,1954.32" style="fill:none;stroke:black;stroke-width:4.17px;"/>
                <path d="M1506.155,1948.125L1499.233,1956.77C1499.233,1956.77 1506.061,1979.456 1505.171,1987.471C1505.171,1987.471 1558.623,1999.643 1609.971,1983.909C1609.971,1983.909 1615.9,1955.707 1618.275,1950.364L1612.337,1947.098" style="fill:none;stroke:black;stroke-width:4.17px;"/>
                <path d="M1232.624,1902.4C1232.624,1902.4 1265.731,1912.718 1342.618,1907.262" style="fill:none;stroke:black;stroke-width:4.17px;"/>
                <path d="M1344.696,1902.4L1349.743,1906.694C1349.743,1906.694 1343.212,1929.117 1342.618,1940.398C1342.618,1940.398 1293.325,1949.897 1232.624,1937.429" style="fill:none;stroke:black;stroke-width:4.17px;"/>
                <path d="M1229.811,1897.947L1224.468,1905.627C1224.468,1905.627 1229.5,1911.899 1232.624,1935.945" style="fill:none;stroke:black;stroke-width:4.17px;"/>
                <g transform="matrix(0.999283,0.037867,-0.037867,0.999283,698.419677,-36.163633)">
                    <path d="M966.218,1614.523C964.63,1628.309 963.547,1641.613 963.422,1653.698C963.422,1653.698 985.865,1758.965 992.277,1789.957C998.689,1820.949 998.155,1834.308 993.88,1881.865L992.569,1895.414M966.193,1248.676C975.215,1268.746 977.002,1309.152 979.349,1323.863C984.041,1353.263 982.378,1506.048 966.218,1614.523" style="fill:none;stroke:black;stroke-width:2.08px;"/>
                </g>
                <g transform="matrix(1,0,0,1.011964,523.740108,-92.67187)">
                    <path d="M810.643,1520.177C810.643,1520.177 794.613,1648.421 797.284,1679.146C799.956,1709.871 803.296,1713.211 806.635,1739.929C808.372,1753.82 810.83,1769.155 812.228,1786.687C813.518,1802.874 813.903,1820.933 811.979,1841.455C807.971,1884.203 803.964,1926.283 803.296,1944.317C803.002,1952.254 802.432,1964.766 801.886,1976.289" style="fill:none;stroke:black;stroke-width:2.07px;"/>
                </g>
                <g transform="matrix(1,0,0,1,537.911695,46.310278)">
                    <path d="M766.263,1253.871C766.263,1253.871 767.672,1322.505 782.812,1395.63" style="fill:none;stroke:black;stroke-width:2.08px;"/>
                </g>
                <g transform="matrix(1,0,0,1,538.09769,99.745217)">
                    <path d="M743.092,1200.436C743.092,1200.436 748.97,1291.275 755.204,1312.649L778.359,1322.446" style="fill:none;stroke:black;stroke-width:2.08px;"/>
                </g>
                <g transform="matrix(1.110247,0,0,1.091405,564.15605,-7.579731)">
                    <path d="M955.397,1209.732C955.397,1209.732 889.742,1219.584 874.016,1174.164" style="fill:none;stroke:black;stroke-width:1.89px;"/>
                </g>
                <g transform="matrix(1,0,0,1,415.545693,51.653772)">
                    <path d="M693.531,1218.248C693.531,1218.248 679.505,1240.401 661.025,1246.19" style="fill:none;stroke:black;stroke-width:2.08px;"/>
                </g>
            </g>
        </g>
    </g>
</svg>
