<?xml version="1.0" encoding="UTF-8" standalone="no"?>
<svg width="100%" height="100%" viewBox="0 0 372 869" version="1.1" xmlns="http://www.w3.org/2000/svg" xmlns:xlink="http://www.w3.org/1999/xlink" xml:space="preserve" xmlns:serif="http://www.serif.com/" style="fill-rule:evenodd;clip-rule:evenodd;stroke-linecap:round;stroke-linejoin:round;stroke-miterlimit:1.5;">
    <g transform="matrix(1,0,0,1,-178.632658,-1133.727468)">
        <g id="muscle">
            <path d="M223.872,1154.797L203.5,1213.242L190.067,1256.862L183.833,1287.438C183.833,1287.438 179.38,1345.92 180.716,1361.654C182.052,1377.387 181.458,1424.291 184.427,1442.697C187.395,1461.102 190.661,1498.21 198.379,1517.802C206.098,1537.395 206.395,1554.91 230.737,1591.127C230.737,1591.127 242.018,1652.28 244.096,1659.702L250.627,1684.341C250.627,1684.341 251.517,1714.621 253.299,1732.73C255.08,1750.838 256.564,1783.196 261.017,1809.023C265.47,1834.85 272.298,1884.722 272.891,1892.738C273.485,1900.753 277.63,1962.478 277.636,1971.246L295.156,1975.037C295.156,1975.037 347.107,1976.452 355.122,1970.812L358.387,1950.922L368.777,1876.707L376.199,1825.944L379.899,1776.368L377.386,1726.199L364.607,1667.717L361.95,1654.952L360.465,1594.096L361.653,1581.924L364.607,1573.019L367.59,1584.893L383.62,1621.407L388.964,1642.187C388.964,1642.187 398.463,1684.044 407.666,1701.262L418.056,1774.29L428.743,1833.959L438.837,1892.144L448.039,1958.641L452.195,1994.264C452.195,1994.264 478.913,2001.895 504.74,1999.712L528.489,1994.264L529.676,1980.015L537.394,1905.503L545.113,1845.24L548.497,1804.273C548.497,1804.273 550.753,1762.119 542.441,1733.323L521.958,1656.14C521.958,1656.14 515.427,1638.328 516.317,1624.672C516.317,1624.672 520.176,1558.769 521.958,1550.754C523.739,1542.739 527.301,1510.084 527.598,1500.881C527.895,1491.679 529.676,1470.008 530.567,1462.883C531.457,1455.759 532.645,1418.057 532.645,1412.417C532.645,1406.777 532.051,1384.215 532.941,1377.981C533.832,1371.747 537.691,1343.545 538.582,1338.499C539.472,1333.452 541.55,1312.375 541.55,1306.734C541.55,1301.094 540.363,1260.127 538.879,1253.596C537.394,1247.065 520.176,1193.63 516.02,1185.615C511.864,1177.6 493.162,1143.004 490.49,1135.811C490.49,1135.811 451.898,1151.752 429.337,1155.325C406.776,1158.898 344.435,1172.257 322.17,1172.553C322.17,1172.553 279.125,1172.85 265.47,1169.585C265.47,1169.585 239.346,1165.726 233.706,1160.976L223.872,1154.797Z" style="fill:rgb(73,90,173);"/>
            <clipPath id="_clip1">
                <path d="M223.872,1154.797L203.5,1213.242L190.067,1256.862L183.833,1287.438C183.833,1287.438 179.38,1345.92 180.716,1361.654C182.052,1377.387 181.458,1424.291 184.427,1442.697C187.395,1461.102 190.661,1498.21 198.379,1517.802C206.098,1537.395 206.395,1554.91 230.737,1591.127C230.737,1591.127 242.018,1652.28 244.096,1659.702L250.627,1684.341C250.627,1684.341 251.517,1714.621 253.299,1732.73C255.08,1750.838 256.564,1783.196 261.017,1809.023C265.47,1834.85 272.298,1884.722 272.891,1892.738C273.485,1900.753 277.63,1962.478 277.636,1971.246L295.156,1975.037C295.156,1975.037 347.107,1976.452 355.122,1970.812L358.387,1950.922L368.777,1876.707L376.199,1825.944L379.899,1776.368L377.386,1726.199L364.607,1667.717L361.95,1654.952L360.465,1594.096L361.653,1581.924L364.607,1573.019L367.59,1584.893L383.62,1621.407L388.964,1642.187C388.964,1642.187 398.463,1684.044 407.666,1701.262L418.056,1774.29L428.743,1833.959L438.837,1892.144L448.039,1958.641L452.195,1994.264C452.195,1994.264 478.913,2001.895 504.74,1999.712L528.489,1994.264L529.676,1980.015L537.394,1905.503L545.113,1845.24L548.497,1804.273C548.497,1804.273 550.753,1762.119 542.441,1733.323L521.958,1656.14C521.958,1656.14 515.427,1638.328 516.317,1624.672C516.317,1624.672 520.176,1558.769 521.958,1550.754C523.739,1542.739 527.301,1510.084 527.598,1500.881C527.895,1491.679 529.676,1470.008 530.567,1462.883C531.457,1455.759 532.645,1418.057 532.645,1412.417C532.645,1406.777 532.051,1384.215 532.941,1377.981C533.832,1371.747 537.691,1343.545 538.582,1338.499C539.472,1333.452 541.55,1312.375 541.55,1306.734C541.55,1301.094 540.363,1260.127 538.879,1253.596C537.394,1247.065 520.176,1193.63 516.02,1185.615C511.864,1177.6 493.162,1143.004 490.49,1135.811C490.49,1135.811 451.898,1151.752 429.337,1155.325C406.776,1158.898 344.435,1172.257 322.17,1172.553C322.17,1172.553 279.125,1172.85 265.47,1169.585C265.47,1169.585 239.346,1165.726 233.706,1160.976L223.872,1154.797Z"/>
            </clipPath>
            <g clip-path="url(#_clip1)">
                <g transform="matrix(0.01127,0.142714,-0.142714,0.01127,355.219403,1651.7445)">
                    <g transform="matrix(1,0,0,1,-3643.75,-5168.75)">
                        <g id="_5a7f5f47abc3d121aba71181.png" serif:id="5a7f5f47abc3d121aba71181.png" transform="matrix(9.809338,0,0,9.809338,1487.916371,3540.618292)">
                            <path d="M131.908,46.381C133.181,46.559 133.23,46.931 134.237,46.096C142.771,39.013 156.65,41.486 161.526,50.484C175.436,76.149 142.517,105.234 127.284,89.739C123.632,86.025 125.05,91.603 121.092,115.436C120.525,118.854 117.019,118.398 108.534,118.196C105.957,118.134 107.621,112.401 107.761,111.541C118.48,45.713 117.115,43.654 120.503,43.541C130.398,43.21 131.81,42.973 131.908,46.381ZM127.087,69.483C128.239,94.607 158.395,75.371 148.499,58.5C145.369,53.163 130.477,49.759 127.087,69.483Z" style="fill:rgb(254,254,254);"/>
                            <path d="M303.935,61.531C303.934,60.823 303.926,54.362 300.541,53.363C286.181,49.127 288.392,89.962 284.333,92.047C283.837,92.301 272.861,92.251 272.605,92.132C268.421,90.19 281.877,56.107 272.538,53.37C259.576,49.57 259.998,82.28 257.572,90.52C256.756,93.293 243.399,93.064 243.666,90.502C243.715,90.035 250.879,45.057 250.992,44.692C251.593,42.738 263.815,43.515 264.262,43.842C264.904,44.312 264.047,48.491 266.707,45.911C270.1,42.62 277.748,40.606 283.649,43.139C288.949,45.414 288.559,50.733 292.806,46.858C298.682,41.496 310.238,39.854 315.44,45.555C317.864,48.212 320.64,51.255 313.431,90.482C312.985,92.906 306.42,92.26 301.516,92.215C297.789,92.18 300.305,89.827 303.935,61.531Z" style="fill:rgb(254,254,254);"/>
                            <path d="M31.534,94.12C24.437,92.448 23.744,93.497 18.721,88.276C10.687,79.927 14.616,78.172 14.886,77.95C19.728,73.96 23.153,69.353 24.833,73.35C29.157,83.637 39.907,82.6 44.084,77.155C54.882,63.076 34.131,57.494 33.627,57.244C31.505,56.191 14.844,47.923 25.818,28.684C39.127,5.351 70.443,19.701 66.017,25.15C60.919,31.428 59.199,34.206 57.147,31.837C51.166,24.932 42.528,28.407 39.923,31.856C32.396,41.822 48.092,46.359 51.301,47.896C70.258,56.982 61.991,76.538 55.01,85.06C47.775,93.892 33.547,94.092 31.534,94.12Z" style="fill:rgb(254,254,254);"/>
                            <path d="M319.92,72.513C320.168,70.685 321.868,58.142 327.954,50.895C331.622,46.526 337.314,43.723 340.612,42.917C366.657,36.557 369.802,60.597 367,68.69C365.695,72.46 335.593,67.786 334.678,71.55C332.429,80.805 342.682,87.783 350.436,79.439C353.217,76.447 353.736,76.32 363.572,78.326C366.432,78.909 360.859,84.983 360.438,85.441C352.064,94.567 321.689,103.426 319.92,72.513ZM338.382,57.427C337.402,60.017 335.7,61.412 338.501,61.491C354.542,61.939 354.92,60.824 354.939,59.5C355.013,54.425 346.774,45.716 338.382,57.427Z" style="fill:rgb(254,254,254);"/>
                            <path d="M215.5,70.122C214.815,70.238 214.102,70.09 213.417,70.206C210.818,70.648 210.769,82.986 219.509,83.134C225.758,83.239 229.223,77.863 229.555,77.56C230.97,76.267 243.183,77.261 241.642,80.565C234.059,96.83 197.48,101.595 197.311,73.501C197.072,33.796 252.797,31.215 244.44,68.482C243.982,70.526 243.114,70.122 215.5,70.122ZM217.342,55.359C217.041,55.769 212.97,61.312 215.516,61.444C232.127,62.303 232.506,60.858 232.381,59.506C231.811,53.354 225.06,47.705 217.342,55.359Z" style="fill:rgb(254,254,254);"/>
                            <path d="M79.084,74.5C80.325,87.292 92.578,83.241 94.823,72.576C97.799,58.434 97.797,43.633 101.503,43.542C106.551,43.417 113.528,42.841 113.173,45.479C108.891,77.371 106.773,80.66 105.1,83.258C95.049,98.868 61.59,99.663 64.941,73.552C65.245,71.179 68.522,45.642 70.152,44.11C70.784,43.515 83.598,42.102 83.337,45.491C83.017,49.651 79.894,63.977 79.084,74.5Z" style="fill:rgb(254,254,254);"/>
                            <path d="M165.894,78.56C170.717,48.561 171.05,44.652 171.903,43.986C172.258,43.709 185.648,41.921 185.003,45.608C184.052,51.043 189.498,41.679 197.511,41.95C206.416,42.252 202.117,48.154 201.71,49.562C200.558,53.543 200.444,55.85 197.4,54.808C181.133,49.239 180.124,77.564 178.131,89.442C177.57,92.785 174.602,92.44 165.534,92.211C163.063,92.149 164.829,85.167 165.894,78.56Z" style="fill:rgb(254,254,254);"/>
                        </g>
                    </g>
                </g>
            </g>
            <g id="muscle1" serif:id="muscle" transform="matrix(1,0,0,1,-187.02228,19.514246)">
                <path d="M410.339,1135.811C410.339,1135.811 373.825,1236.001 370.263,1272.515C370.263,1272.515 364.029,1351.777 371.153,1419.461C371.153,1419.461 379.169,1524.503 418.354,1571.751C418.354,1571.751 425.924,1608.757 431.268,1639.482C431.268,1639.482 437.947,1659.965 438.838,1667.535C438.838,1667.535 441.509,1745.461 445.072,1769.062C448.634,1792.662 458.43,1858.565 459.766,1873.26C461.102,1887.954 465.555,1943.616 465.555,1952.522C465.555,1952.522 505.186,1960.091 543.036,1951.186C543.036,1951.186 553.723,1871.033 556.84,1854.557C559.957,1838.082 566.636,1778.413 566.636,1769.062C566.636,1759.71 568.417,1725.423 563.074,1698.26C557.73,1671.098 550.606,1649.724 549.715,1639.927C548.825,1630.131 547.043,1574.024 548.379,1565.118C549.715,1556.212 550.606,1549.978 550.606,1549.978" style="fill:none;stroke:black;stroke-width:4.17px;"/>
                <path d="M453.723,1336.525C453.723,1336.525 507.158,1360.189 522.807,1361.716C522.807,1361.716 525.224,1526.489 571.534,1602.968C571.534,1602.968 583.048,1657.898 595.262,1682.707C595.262,1682.707 604.041,1741.867 607.094,1763.241C610.148,1784.615 622.743,1850.645 624.651,1865.149C626.56,1879.653 638.773,1965.149 638.392,1975.836C638.392,1975.836 681.14,1986.141 715.491,1975.072C715.491,1975.072 722.361,1897.973 725.414,1878.126C728.468,1858.279 735.338,1800.264 734.956,1788.432C734.575,1776.6 738.773,1753.699 728.849,1709.424C718.926,1665.15 708.239,1641.104 706.33,1626.982C704.422,1612.86 700.987,1613.241 705.185,1568.203C709.384,1523.165 713.582,1504.082 714.346,1480.417C715.109,1456.753 720.071,1424.965 720.071,1386.47C720.071,1347.975 720.834,1361.334 721.979,1344.922C723.124,1328.51 729.231,1306.754 729.231,1280.418C729.231,1254.082 729.994,1241.869 715.872,1199.121C701.75,1156.373 687.628,1138.052 677.705,1116.297C677.705,1116.297 647.934,1133.854 521.598,1152.174C521.598,1152.174 443.354,1158.355 411.293,1135.811" style="fill:none;stroke:black;stroke-width:4.17px;"/>
                <g transform="matrix(1,0,0,1,-275.857861,-30.646525)">
                    <path d="M932.93,1156.906C932.93,1156.906 954.338,1231.028 966.628,1262.554C978.919,1294.081 984.796,1312.783 986.934,1369.958C989.071,1427.134 982.125,1450.645 982.125,1489.118C982.125,1527.591 963.957,1601.866 963.422,1653.698C963.422,1653.698 985.865,1758.965 992.277,1789.957C998.689,1820.949 998.155,1834.308 993.88,1881.865L982.964,2002.552" style="fill:none;stroke:black;stroke-width:2.08px;"/>
                </g>
                <g transform="matrix(1,0,0,1,-275.857861,-30.646525)">
                    <path d="M810.643,1520.177C810.643,1520.177 794.613,1648.421 797.284,1679.146C799.956,1709.871 803.296,1713.211 806.635,1739.929C809.975,1766.646 815.986,1798.707 811.979,1841.455C807.971,1884.203 803.964,1926.283 803.296,1944.317C802.628,1962.351 803.207,1980.726 803.207,1980.726" style="fill:none;stroke:black;stroke-width:2.08px;"/>
                </g>
                <g transform="matrix(1,0,0,1,-275.857861,-30.646525)">
                    <path d="M777.469,1184.406C777.469,1184.406 770.6,1309.355 779.564,1386.635" style="fill:none;stroke:black;stroke-width:2.08px;"/>
                </g>
                <g transform="matrix(1,0,0,1,-275.857861,-30.646525)">
                    <path d="M756.985,1184.406C756.985,1184.406 748.97,1291.275 755.204,1312.649L774.351,1320.665" style="fill:none;stroke:black;stroke-width:2.08px;"/>
                </g>
                <g transform="matrix(1,0,0,1,-275.857861,-30.646525)">
                    <path d="M958.835,1240.157C958.835,1240.157 889.742,1219.584 874.016,1174.164" style="fill:none;stroke:black;stroke-width:2.08px;"/>
                </g>
                <g transform="matrix(1,0,0,1,-275.857861,-30.646525)">
                    <path d="M699.766,1174.164C699.766,1174.164 677.724,1231.495 661.025,1246.19" style="fill:none;stroke:black;stroke-width:2.08px;"/>
                </g>
            </g>
        </g>
    </g>
</svg>
