<?xml version="1.0" encoding="UTF-8" standalone="no"?>
<svg width="100%" height="100%" viewBox="0 0 595 759" version="1.1" xmlns="http://www.w3.org/2000/svg" xmlns:xlink="http://www.w3.org/1999/xlink" xml:space="preserve" xmlns:serif="http://www.serif.com/" style="fill-rule:evenodd;clip-rule:evenodd;stroke-linecap:round;stroke-linejoin:round;stroke-miterlimit:1.5;">
    <g transform="matrix(1,0,0,1,-1074.571659,-1234.332229)">
        <g id="fat">
            <path d="M1076.655,1257.759C1076.655,1257.759 1163.934,1289.972 1193.857,1292.257C1223.781,1294.541 1218.488,1300.181 1227.839,1300.181C1237.191,1300.181 1358.221,1298.281 1368.641,1296.945C1379.06,1295.61 1447.381,1295.915 1494.213,1284.388C1504.963,1281.742 1545.586,1270.991 1554.136,1267.785C1562.686,1264.579 1613.029,1247.48 1618.907,1245.075C1624.785,1242.671 1640.423,1236.416 1640.423,1236.416C1640.423,1236.416 1641.902,1235.729 1642.57,1243.076C1643.238,1250.424 1648.581,1291.168 1648.581,1295.175C1648.581,1299.183 1655.076,1344.937 1654.5,1350.948C1653.925,1356.96 1655.744,1387.017 1654.5,1391.358C1653.257,1395.7 1652.923,1420.414 1651.587,1427.093C1651.204,1429.009 1655.047,1435.689 1657.673,1444.294C1661.688,1457.456 1665.421,1474.938 1666.925,1485.337C1667.866,1491.837 1660.114,1487.65 1659.656,1489.665C1657.986,1497.013 1659.562,1516.989 1658.226,1525.672C1656.89,1534.355 1657.25,1564.132 1656.53,1577.846C1655.889,1590.058 1652.437,1600.247 1651.673,1605.601C1650.777,1611.874 1627.341,1610.928 1626.937,1613.763C1624.111,1633.618 1621.864,1653.213 1621.864,1660.871C1621.864,1670.556 1625.871,1684.917 1631.883,1705.623C1637.894,1726.329 1640.232,1755.384 1640.232,1765.403C1640.232,1775.422 1637.894,1812.826 1635.223,1825.851C1632.551,1838.876 1626.539,1866.261 1624.536,1882.626C1622.532,1898.99 1613.849,1935.393 1611.177,1950.755C1608.505,1966.118 1606.316,1979.532 1606.316,1979.532C1606.316,1979.532 1561.193,2000.313 1511.32,1986.36C1511.32,1986.36 1495.884,1889.88 1494.102,1883.053C1492.321,1876.225 1474.51,1805.572 1472.728,1799.635C1470.947,1793.697 1449.276,1705.827 1447.495,1700.78C1445.714,1695.733 1440.964,1692.765 1435.324,1677.328C1429.684,1661.891 1409.794,1616.768 1407.419,1610.237C1405.044,1603.707 1384.858,1547.6 1383.967,1543.741C1383.076,1539.881 1371.202,1503.664 1371.202,1503.664L1362.89,1544.631C1362.89,1544.631 1346.859,1611.722 1346.266,1622.409C1345.672,1633.096 1347.75,1641.408 1350.125,1652.095C1352.5,1662.782 1370.691,1731.06 1370.798,1740.559C1370.905,1750.059 1374.119,1780.932 1368.207,1804.681C1362.296,1828.43 1358.793,1840.913 1358.793,1840.913C1358.793,1840.913 1345.969,1893.279 1344.9,1897.287C1343.831,1901.295 1337.152,1933.623 1337.152,1933.623C1337.152,1933.623 1277.038,1951.256 1236.16,1934.691C1236.16,1934.691 1227.343,1874.31 1226.542,1868.966C1225.74,1863.623 1213.717,1786.677 1212.381,1782.135C1211.046,1777.593 1199.557,1702.517 1197.954,1698.776C1196.351,1695.036 1188.336,1679.005 1187,1673.929C1185.664,1668.853 1179.786,1648.547 1178.717,1644.273C1178.251,1642.407 1169.249,1625.49 1164.583,1616.077C1162.105,1611.08 1165.915,1612.034 1161.72,1610.031C1151.5,1605.15 1142.876,1616.511 1141.901,1613.763C1138.962,1605.48 1126.458,1578.52 1124.321,1571.84C1122.183,1565.161 1116.038,1531.365 1112.832,1521.479C1111.248,1516.595 1110.601,1514.04 1109.695,1506.773C1108.867,1500.13 1098.144,1498.568 1097.468,1495.189C1096.457,1490.133 1099.598,1432.257 1100.769,1416.071C1101.123,1411.182 1098.89,1407.648 1098.565,1406.22C1097.229,1400.342 1093.582,1386.716 1093.802,1380.037C1094.023,1373.357 1093.222,1369.884 1091.351,1364.541C1089.481,1359.197 1083.603,1341.296 1082.802,1334.617C1082,1327.938 1076.485,1293.205 1076.571,1287.594C1076.657,1281.984 1077.103,1274.147 1076.655,1269.872" style="fill:rgb(57,62,24);"/>
            <g id="fat1" serif:id="fat">
                <path d="M1076.701,1257.759C1076.148,1295.72 1080.335,1350.832 1103.867,1395.073" style="fill:none;stroke:black;stroke-width:4.17px;"/>
                <path d="M1093.802,1372.597C1093.802,1372.597 1101.552,1488.94 1178.676,1644.08C1178.676,1644.08 1188.116,1680.193 1195.686,1694.887C1203.256,1709.582 1207.264,1759.9 1212.607,1782.164C1212.607,1782.164 1234.872,1914.861 1235.317,1934.454C1235.317,1934.454 1269.159,1950.484 1336.398,1934.454C1336.398,1934.454 1353.319,1860.09 1360.444,1835.154C1360.444,1835.154 1377.81,1773.259 1368.905,1732.292C1359.999,1691.325 1353.765,1669.06 1349.312,1649.022C1344.859,1628.984 1348.421,1609.837 1351.983,1595.142C1355.546,1580.448 1369.35,1514.544 1370.686,1502.522" style="fill:none;stroke:black;stroke-width:4.17px;"/>
                <path d="M1641.066,1236.416C1641.066,1236.416 1518.166,1291.1 1418.421,1295.374C1318.676,1299.647 1307.322,1301.428 1226.39,1298.756C1226.39,1298.756 1147.456,1287.268 1076.655,1259.17M1651.383,1428.97C1652.237,1422.088 1652.863,1416.684 1653.089,1414.087C1653.98,1403.845 1655.761,1354.418 1653.089,1336.606C1650.418,1318.794 1643.293,1248.438 1641.066,1236.416M1243.778,1423.26C1243.778,1423.26 1285.19,1440.181 1354.21,1447.751C1354.21,1447.751 1416.373,1655.835 1447.365,1701.255C1447.365,1701.255 1479.426,1825.224 1490.113,1864.232C1490.113,1864.232 1509.26,1953.78 1511.041,1986.286C1511.041,1986.286 1552.454,2000.535 1606.334,1980.052C1606.334,1980.052 1619.247,1903.462 1624.145,1880.307C1624.145,1880.307 1639.285,1803.717 1638.84,1789.467C1638.395,1775.218 1643.738,1748.946 1630.825,1703.081C1630.825,1703.081 1622.81,1679.035 1621.474,1668.348C1620.138,1657.661 1624.145,1638.068 1625.481,1628.272C1625.73,1626.447 1626.38,1621.209 1627.291,1613.789" style="fill:none;stroke:black;stroke-width:4.17px;"/>
                <g transform="matrix(0.999283,0.037867,-0.037867,0.999283,698.419677,-36.163633)">
                    <path d="M966.221,1614.496C964.631,1628.292 963.547,1641.606 963.422,1653.698C963.422,1653.698 985.865,1758.965 992.277,1789.957C998.689,1820.949 998.155,1834.308 993.88,1881.865L992.569,1895.414M966.193,1248.676C975.215,1268.746 977.002,1309.152 979.349,1323.863C984.09,1353.566 982.824,1391.402 982.056,1430.195" style="fill:none;stroke:black;stroke-width:2.08px;"/>
                </g>
                <g transform="matrix(1,0,0,1.011964,523.740108,-92.67187)">
                    <path d="M810.643,1520.177C810.643,1520.177 794.613,1648.421 797.284,1679.146C799.956,1709.871 803.296,1713.211 806.635,1739.929C808.372,1753.82 810.83,1769.155 812.228,1786.687C813.518,1802.874 813.903,1820.933 811.979,1841.455C807.971,1884.203 803.964,1926.283 803.296,1944.317C802.628,1962.351 800.535,2004.008 800.535,2004.008" style="fill:none;stroke:black;stroke-width:2.07px;"/>
                </g>
                <g transform="matrix(1,0,0,1,537.911695,46.310278)">
                    <path d="M766.263,1253.871C766.263,1253.871 767.672,1322.505 782.812,1395.63" style="fill:none;stroke:black;stroke-width:2.08px;"/>
                </g>
                <path d="M1510.129,1963.899C1510.129,1963.899 1572.024,1976.59 1607.648,1957.888" style="fill:none;stroke:black;stroke-width:2.08px;"/>
                <path d="M1233.412,1913.2C1233.412,1913.2 1286.084,1926.177 1340.664,1912.818" style="fill:none;stroke:black;stroke-width:2.08px;"/>
                <g transform="matrix(1,0,0,1,538.09769,99.745217)">
                    <path d="M743.092,1200.436C743.092,1200.436 748.97,1291.275 755.204,1312.649L778.359,1322.446" style="fill:none;stroke:black;stroke-width:2.08px;"/>
                </g>
                <g transform="matrix(1.110247,0,0,1.091405,564.15605,-7.579731)">
                    <path d="M955.397,1209.732C955.397,1209.732 889.742,1219.584 874.016,1174.164" style="fill:none;stroke:black;stroke-width:1.89px;"/>
                </g>
                <g transform="matrix(1,0,0,1,415.545693,51.653772)">
                    <path d="M693.531,1218.248C693.531,1218.248 679.505,1240.401 661.025,1246.19" style="fill:none;stroke:black;stroke-width:2.08px;"/>
                </g>
                <g transform="matrix(1.125197,0,0,1.162577,1051.923172,-204.451087)">
                    <path d="M532.909,1405.172L479.474,1405.172C479.474,1405.172 472.126,1510.65 474.798,1552.062L475.199,1563.974C475.199,1563.974 524.054,1562.447 531.687,1559.394C539.321,1556.34 538.176,1461.684 539.702,1456.722L546.573,1455.959C546.573,1455.959 539.855,1416.981 532.909,1405.172Z" style="fill:none;stroke:black;stroke-width:3.64px;"/>
                </g>
                <g transform="matrix(1.112092,-0.171233,0.176922,1.149036,653.03413,-138.113429)">
                    <path d="M181.973,1381.986C181.973,1381.986 170.095,1436.396 169.561,1448.34L177.518,1453.898" style="fill:none;stroke:black;stroke-width:3.64px;"/>
                </g>
                <g transform="matrix(1.112092,-0.171233,0.176922,1.149036,653.03413,-138.113429)">
                    <path d="M180.716,1405.172C180.716,1405.172 178.813,1425.656 178.827,1452.767C178.836,1469.002 179.532,1487.612 181.735,1505.624C183.862,1523.015 187.395,1539.848 193.072,1553.443L202.69,1550.665L210.404,1552.649" style="fill:none;stroke:black;stroke-width:3.64px;"/>
                </g>
                <g transform="matrix(1.125197,0,0,1.162577,1051.923172,-204.451087)">
                    <path d="M539.702,1456.722C539.702,1456.722 495.714,1457.891 491.039,1459.561C491.039,1459.561 482.689,1410.23 480.352,1405.172" style="fill:none;stroke:black;stroke-width:1.82px;"/>
                </g>
                <g transform="matrix(1.125197,0,0,1.162577,1051.923172,-204.451087)">
                    <path d="M486.222,1432.367C486.222,1432.367 491.706,1552.586 490.037,1563.974L480.352,1559.331C480.352,1559.331 481.163,1425.075 480.352,1412.385" style="fill:none;stroke:black;stroke-width:1.82px;"/>
                </g>
            </g>
        </g>
    </g>
</svg>
