<?xml version="1.0" encoding="UTF-8" standalone="no"?>
<svg width="100%" height="100%" viewBox="0 0 382 821" version="1.1" xmlns="http://www.w3.org/2000/svg" xmlns:xlink="http://www.w3.org/1999/xlink" xml:space="preserve" xmlns:serif="http://www.serif.com/" style="fill-rule:evenodd;clip-rule:evenodd;stroke-linejoin:round;stroke-miterlimit:2;">
    <g transform="matrix(1,0,0,1,-630.251295,-1207.821683)">
        <g id="normal">
            <path d="M955.581,1209.905C955.581,1209.905 894.862,1234.225 855.658,1240.157C815.047,1246.302 780.404,1248.617 757.426,1246.746C757.426,1246.746 706.455,1242.829 697.372,1240.157L664.527,1230.029L661.273,1240.157L647.766,1277.468L636.655,1331.794L636.655,1386.713L639.157,1398.587L640.125,1421.522L630.712,1487.868L640.125,1490.877L646.46,1534.478L663.155,1589.355L673.344,1586.328L679.718,1587.353L698.232,1645.279L701.498,1668.731L703.279,1682.386L709.216,1706.729L711.294,1716.525L714.857,1762.836L717.825,1805.88L722.278,1848.331L725.544,1884.845L730.293,1928.187L733.262,1973.013L735.34,2007.746L751.667,2010.417L776.307,2013.113L800.353,2010.714L812.227,2007.449L815.789,1975.388L820.836,1923.734L829.742,1881.58L835.382,1848.035L839.354,1802.615L839.354,1769.96L833.007,1738.493L826.773,1717.119L820.242,1684.761L820.539,1666.95L821.727,1616.186L823.508,1585.016L829.445,1606.687L843.397,1661.903L856.162,1712.963L865.662,1742.055L868.334,1753.039L869.224,1765.507L878.13,1820.427L884.661,1860.8L893.27,1898.501L903.363,1951.045L909.004,1987.262L912.863,2022.292C912.863,2022.292 945.696,2033.053 985.505,2018.091L992.985,1957.443L1002.871,1881.298L1007.114,1812.1L1002.337,1774.962L988.978,1724.199L974.283,1658.474L974.283,1643.78L976.688,1613.856L981.497,1587.139L994.638,1584.898L999.296,1566.874L1001.428,1506.324L1002.796,1482.641L1008.954,1480.726L997.096,1430.554L999.398,1415.345L1003.138,1379.544L1002.069,1340.269L998.596,1312.216L988.176,1273.475L967.604,1232.063" style="fill:rgb(29,29,29);"/>
            <clipPath id="_clip1">
                <path d="M955.581,1209.905C955.581,1209.905 894.862,1234.225 855.658,1240.157C815.047,1246.302 780.404,1248.617 757.426,1246.746C757.426,1246.746 706.455,1242.829 697.372,1240.157L664.527,1230.029L661.273,1240.157L647.766,1277.468L636.655,1331.794L636.655,1386.713L639.157,1398.587L640.125,1421.522L630.712,1487.868L640.125,1490.877L646.46,1534.478L663.155,1589.355L673.344,1586.328L679.718,1587.353L698.232,1645.279L701.498,1668.731L703.279,1682.386L709.216,1706.729L711.294,1716.525L714.857,1762.836L717.825,1805.88L722.278,1848.331L725.544,1884.845L730.293,1928.187L733.262,1973.013L735.34,2007.746L751.667,2010.417L776.307,2013.113L800.353,2010.714L812.227,2007.449L815.789,1975.388L820.836,1923.734L829.742,1881.58L835.382,1848.035L839.354,1802.615L839.354,1769.96L833.007,1738.493L826.773,1717.119L820.242,1684.761L820.539,1666.95L821.727,1616.186L823.508,1585.016L829.445,1606.687L843.397,1661.903L856.162,1712.963L865.662,1742.055L868.334,1753.039L869.224,1765.507L878.13,1820.427L884.661,1860.8L893.27,1898.501L903.363,1951.045L909.004,1987.262L912.863,2022.292C912.863,2022.292 945.696,2033.053 985.505,2018.091L992.985,1957.443L1002.871,1881.298L1007.114,1812.1L1002.337,1774.962L988.978,1724.199L974.283,1658.474L974.283,1643.78L976.688,1613.856L981.497,1587.139L994.638,1584.898L999.296,1566.874L1001.428,1506.324L1002.796,1482.641L1008.954,1480.726L997.096,1430.554L999.398,1415.345L1003.138,1379.544L1002.069,1340.269L998.596,1312.216L988.176,1273.475L967.604,1232.063"/>
            </clipPath>
            <g clip-path="url(#_clip1)">
                <g transform="matrix(0.0074,0.068744,-0.068744,0.0074,896.725596,1696.0434)">
                    <g transform="matrix(1,0,0,1,-3643.75,-5168.75)">
                        <g id="Balenciaga-Logo-2017-present.jpg" transform="matrix(6.559246,0,0,6.559246,283.333333,2800)">
                            <path d="M420.896,335.5C420.896,232.572 420.895,232.58 420.903,232.527C421.335,229.788 422.659,229.997 455.499,230.516C459.569,230.58 458.206,232.812 478.785,291.392C490.394,324.437 486.472,327.292 489.468,327.293C491.073,327.293 489.841,318.388 489.785,317.493C488.903,303.406 489.234,232.193 489.507,231.503C490.067,230.089 490.533,230.189 508.499,230.51C510.978,230.555 510.734,232.599 510.736,233.497C510.757,242.62 510.999,346.184 510.632,347.537C510.292,348.787 509.788,348.991 478.495,348.91C475.561,348.902 475.291,348.338 472.687,340.439C461.067,305.19 447.952,273.72 443.321,250.577C443.02,249.073 441.094,248.995 441.292,251.473C441.896,259.052 443.361,277.402 442.632,346.506C442.603,349.279 441.197,349.044 423.487,348.908C419.677,348.879 420.917,341.085 420.896,335.5Z" style="fill:none;stroke:white;stroke-width:1.91px;"/>
                            <path d="M862.5,302.9C858.461,302.742 856.498,304.489 856.476,300.501C856.394,286.027 856.156,284.161 858.438,284.034C859.985,283.948 893.668,283.823 894.641,284.175C895.944,284.646 895.811,285.226 895.801,335.5C895.799,340.728 897.578,342.725 890.398,345.211C879.123,349.114 827.615,361.799 815.729,325.428C812.398,315.234 806.998,265.577 820.797,244.705C837.125,220.009 893.338,220.33 896.055,259.513C896.277,262.712 891.352,261.881 876.5,261.882C872.625,261.882 872.291,261.379 871.552,257.491C868.708,242.532 841.462,238.716 838.341,268.481C838.335,268.538 834.883,309.379 840.825,322.354C848.104,338.249 871.625,331.495 872.364,328.467C872.492,327.941 872.764,304.625 872.192,303.69C871.713,302.908 863.278,302.9 862.5,302.9Z" style="fill:none;stroke:white;stroke-width:1.91px;"/>
                            <path d="M384.826,281.501C384.823,291.732 385.744,296.824 382.532,296.962C368.769,297.552 348.008,295.57 347.347,298.465C347.268,298.809 347.219,327.961 347.378,328.534C348.272,331.75 386.568,328.387 388.487,330.509C388.613,330.649 389.985,348.153 387.601,348.805C387.161,348.925 387.185,348.91 332.5,348.91C329.039,348.91 323.172,349.948 323.128,346.523C322.958,333.398 323.11,242.539 323.126,233.496C323.128,232.018 322.956,230.313 325.488,230.279C330.361,230.215 384.878,229.493 386.402,230.643C387.14,231.199 388.489,248.798 385.458,249.205C380.774,249.833 348.247,247.856 347.414,250.471C347.402,250.51 346.793,276.157 347.781,277.241C349.257,278.86 382.866,276.691 384.47,278.521C384.628,278.701 384.496,278.739 384.826,281.501Z" style="fill:none;stroke:white;stroke-width:1.91px;"/>
                            <path d="M541.086,287.5C541.175,254.116 546.681,228.691 585.498,228.79C625.365,228.891 624.189,263.012 622.621,263.714C621.546,264.196 600.543,263.898 600.386,263.855C597.914,263.181 599.977,248.823 588.413,246.937C567.802,243.577 567.047,266.764 566.875,272.516C565.617,314.704 567.329,331.173 582.534,332.193C601.24,333.448 599.077,317.166 600.277,314.376C601.107,312.445 623.359,313.609 623.428,313.646C624.951,314.46 626.731,349.081 586.5,350.493C537.739,352.205 541.098,304.864 541.086,287.5Z" style="fill:none;stroke:white;stroke-width:1.91px;"/>
                            <path d="M290.5,348.91C236.997,348.91 236.968,348.939 236.395,348.731C235.31,348.337 235.311,341.164 235.311,340.5C235.327,232.306 235.216,232.295 235.523,231.51C236.219,229.732 258.022,230.258 258.874,231.159C260.058,232.41 259.095,321.706 259.408,327.505C259.569,330.497 261.206,329.826 295.498,329.855C299.156,329.858 298.418,333.236 298.319,345.499C298.276,350.732 295.737,348.653 290.5,348.91Z" style="fill:none;stroke:white;stroke-width:1.91px;"/>
                            <path d="M674.071,234.5C674.057,347.519 674.197,347.739 673.465,348.46C673.135,348.785 650.9,350.1 650.183,347.608C650.099,347.318 649.803,232.627 650.337,231.407C650.979,229.944 673.156,229.999 673.745,231.349C673.846,231.581 673.769,231.582 674.071,234.5Z" style="fill:none;stroke:white;stroke-width:1.91px;"/>
                            <path d="M92.904,262.527C91.784,268.297 91.31,282.303 71.613,285.775C65.711,286.815 75.189,288.203 75.558,288.258C98.911,291.679 106.879,341.584 68.546,347.787C54.013,350.139 14.477,348.584 14.455,348.564C13.639,347.846 13.734,347.6 13.734,244.5C13.734,238.883 12.936,230.619 15.503,230.524C19.18,230.389 41.534,229.568 61.495,230.612C87.935,231.996 92.943,244.788 92.904,262.527ZM37.958,274.5C38.316,276.905 37.271,277.959 39.554,278.163C62.68,280.228 66.09,273.327 67.096,271.291C69.487,266.454 71.913,249.77 55.483,248.689C38.462,247.569 38.086,249.03 38.037,250.432C37.969,252.356 38.219,252.273 37.958,274.5ZM37.962,316.5C37.964,324.069 36.866,330.881 40.481,330.915C46.268,330.969 75.963,335.424 70.186,307.579C67.428,294.289 49.322,296.233 40.495,296.31C37.282,296.339 38.165,298.095 37.962,316.5Z" style="fill:none;stroke:white;stroke-width:1.91px;"/>
                            <path d="M983.977,240.355C992.635,273.479 1013.572,347.355 1012.524,348.524C1012.447,348.61 988.94,350.339 987.575,347.461C985.709,343.527 982.187,323.07 979.522,322.403C979.258,322.337 947.481,322.004 946.548,322.602C943.824,324.347 940.421,347.956 937.585,348.777C937.25,348.874 916.162,349.235 915.454,348.555C914.11,347.263 927.689,301.722 939.854,255.589C946.08,231.977 945.603,231.379 947.573,230.696C949.911,229.885 949.995,230.437 978.5,230.506C982.576,230.516 983.005,236.811 983.977,240.355ZM954.082,287.38C950.644,301.769 949.558,303.916 952.45,303.968C975.538,304.382 976.75,304.431 976.587,302.503C976.25,298.523 967.586,268.464 964.707,251.399C963.623,244.969 962.162,254.093 962.112,254.407C961.88,255.853 954.734,284.744 954.082,287.38Z" style="fill:none;stroke:white;stroke-width:1.91px;"/>
                            <path d="M703.896,327.623C729.731,232.807 728.533,231.288 731.526,230.613C732.437,230.408 762.976,230.503 763.491,230.559C765.094,230.735 765.22,231.193 770.122,249.599C796.137,347.281 797.3,348.112 795.635,348.749C794.871,349.042 772.922,348.94 772.412,348.801C769.617,348.043 766.06,323.834 763.454,322.598C762.226,322.016 730.945,322.303 730.481,322.429C727.984,323.111 724.655,341.743 722.441,347.472C721.806,349.116 721.295,349.295 700.453,348.918C696.906,348.853 700.052,342.102 703.896,327.623ZM749.883,260.414C748.05,251.439 748.395,251.391 748.234,250.612C747.371,246.437 746.324,251.449 742.733,266.552C734.197,302.459 733.662,302.714 734.46,303.537C735.808,304.93 756.658,304.033 758.587,303.95C760.915,303.85 760.125,302.304 754.177,277.584C751.149,265.003 750.124,261.383 749.883,260.414Z" style="fill:none;stroke:white;stroke-width:1.91px;"/>
                            <path d="M137.979,341.64C136.544,346.751 137.775,348.869 132.503,348.911C113.684,349.062 111.865,349.153 112.556,346.512C112.609,346.307 132.728,272.445 142.961,234.624C144.544,228.774 146.467,230.503 152.5,230.504C177.015,230.51 178.524,229.699 179.547,233.486C181.944,242.366 209.221,343.423 209.508,344.498C210.277,347.379 211.552,348.814 208.564,348.91C206.793,348.967 189.091,349.536 186.413,348.791C182.904,347.815 180.463,322.788 176.521,322.349C176.044,322.296 145.231,322.208 144.475,322.393C142.829,322.795 142.386,325.033 137.979,341.64ZM150.91,289.598C148.262,301.098 147.146,303.859 149.405,303.96C151.337,304.046 172.161,304.976 173.581,303.587C175.04,302.159 163.162,261.148 161.978,251.139C161.171,244.314 159.484,254.153 159.427,254.484C158.738,258.5 151.616,286.795 150.91,289.598Z" style="fill:none;stroke:white;stroke-width:1.91px;"/>
                        </g>
                    </g>
                </g>
            </g>
            <g id="normal1" serif:id="normal" transform="matrix(1,0,0,1,-189.026092,13.830082)">
                <path d="M854.3,1214.204C850.225,1225.751 846.215,1236.881 843.048,1245.196C843.048,1245.196 826.572,1292.281 825.681,1341.824C825.681,1341.824 827.462,1432.334 845.719,1496.456C863.976,1560.578 872.437,1581.951 881.788,1612.231C891.139,1642.511 889.803,1655.87 892.92,1670.119C896.037,1684.368 897.373,1691.493 899.154,1697.727C900.935,1703.961 903.607,1743.592 904.943,1767.638C906.279,1791.684 912.068,1847.345 914.739,1871.391C917.411,1895.436 922.755,1957.332 923.2,1970.691C923.645,1984.049 924.09,1995.182 924.09,1995.182C924.09,1995.182 980.197,2004.978 1002.016,1994.291C1002.016,1994.291 1006.469,1924.38 1012.258,1899.889C1018.047,1875.398 1026.953,1824.19 1027.843,1807.269C1028.734,1790.348 1029.624,1752.943 1020.719,1720.437C1011.813,1687.931 1008.696,1675.463 1009.141,1664.776C1009.586,1654.089 1010.477,1606.443 1010.922,1597.982C1011.368,1589.521 1011.813,1565.03 1011.813,1565.03" style="fill:none;stroke:black;stroke-width:4.17px;stroke-linecap:round;stroke-miterlimit:1.5;"/>
                <path d="M1144.128,1196.075C1144.128,1196.075 1053.289,1238.441 963.594,1233.479C963.594,1233.479 892.961,1232.484 856.522,1216.57M1186.339,1416.724C1186.892,1411.788 1187.335,1408.064 1187.576,1406.38C1188.721,1398.364 1190.629,1381.952 1191.011,1375.082C1191.392,1368.212 1195.973,1335.769 1185.286,1291.494C1174.599,1247.22 1153.288,1211.342 1144.128,1196.075M911.177,1368.434C911.177,1368.434 951.699,1391.59 985.095,1397.378C985.095,1397.378 1002.907,1540.74 1014.039,1578.156C1025.172,1615.571 1031.851,1651.64 1038.976,1674.795C1046.1,1697.95 1039.866,1678.802 1050.553,1713.98C1061.24,1749.158 1055.897,1739.807 1059.904,1760.291C1063.912,1780.774 1068.81,1816.843 1071.482,1833.764C1074.154,1850.685 1087.958,1909.908 1090.629,1927.72C1093.301,1945.532 1098.645,1969.132 1101.762,2009.208C1101.762,2009.208 1130.706,2019.736 1174.98,2004.469C1174.98,2004.469 1184.522,1919.737 1187.576,1902.943C1190.629,1886.149 1194.828,1835.386 1195.973,1817.065C1197.118,1798.745 1192.156,1758.287 1188.339,1747.981C1184.522,1737.676 1165.471,1665.157 1163.356,1649.127C1161.24,1633.096 1165.438,1599.509 1167.728,1588.44C1168.229,1586.021 1169.094,1579.992 1170.144,1571.931" style="fill:none;stroke:black;stroke-width:4.17px;stroke-linecap:round;stroke-miterlimit:1.5;"/>
                <g transform="matrix(1,0,0,1,189.026092,-13.830082)">
                    <path d="M969.522,1589.355C966.274,1611.91 963.622,1634.365 963.422,1653.698C963.422,1653.698 985.865,1758.965 992.277,1789.957C998.689,1820.949 998.155,1834.308 993.88,1881.865L981.056,2014.384M945.065,1216.464C945.065,1216.464 954.338,1231.028 966.628,1262.554C978.919,1294.081 984.796,1312.783 986.934,1369.958C987.903,1395.88 987.005,1414.882 985.733,1431.496" style="fill:none;stroke:black;stroke-width:2.08px;stroke-linecap:round;stroke-miterlimit:1.5;"/>
                </g>
                <g transform="matrix(1,0,0,1,189.026092,-13.830082)">
                    <path d="M810.643,1520.177C810.643,1520.177 794.613,1648.421 797.284,1679.146C799.956,1709.871 803.296,1713.211 806.635,1739.929C809.975,1766.646 815.986,1798.707 811.979,1841.455C807.971,1884.203 803.964,1926.283 803.296,1944.317C802.628,1962.351 800.535,2004.008 800.535,2004.008" style="fill:none;stroke:black;stroke-width:2.08px;stroke-linecap:round;stroke-miterlimit:1.5;"/>
                </g>
                <g transform="matrix(1,0,0,1,189.026092,-13.830082)">
                    <path d="M774.797,1246.746C774.797,1246.746 767.672,1332.047 782.812,1405.172" style="fill:none;stroke:black;stroke-width:2.08px;stroke-linecap:round;stroke-miterlimit:1.5;"/>
                </g>
                <g transform="matrix(1,0,0,1,192.64187,36.996697)">
                    <path d="M745.853,1195.92C745.853,1195.92 748.97,1291.275 755.204,1312.649L774.351,1320.665" style="fill:none;stroke:black;stroke-width:2.08px;stroke-linecap:round;stroke-miterlimit:1.5;"/>
                </g>
                <g transform="matrix(1,0,0,1,189.026092,-13.830082)">
                    <path d="M971.081,1269.547C971.081,1269.547 919.577,1280.652 903.85,1235.232" style="fill:none;stroke:black;stroke-width:2.08px;stroke-linecap:round;stroke-miterlimit:1.5;"/>
                </g>
                <g transform="matrix(1,0,0,1,189.026092,-13.830082)">
                    <path d="M685.643,1235.232C685.643,1235.232 672.762,1273.098 648.43,1281.304" style="fill:none;stroke:black;stroke-width:2.08px;stroke-linecap:round;stroke-miterlimit:1.5;"/>
                </g>
                <g transform="matrix(1,0,0,1,189.026092,-13.830082)">
                    <path d="M736.209,1986.382C736.209,1986.382 761.781,1995.924 813.689,1989.817" style="fill:none;stroke:black;stroke-width:2.08px;stroke-linecap:round;stroke-miterlimit:1.5;"/>
                </g>
                <g transform="matrix(1,0,0,1,189.026092,-13.830082)">
                    <path d="M912.544,2001.649C912.544,2001.649 938.198,2009.549 987.353,1996.439" style="fill:none;stroke:black;stroke-width:2.08px;stroke-linecap:round;stroke-miterlimit:1.5;"/>
                </g>
                <g transform="matrix(1,0,0,1,651.906246,11.551513)">
                    <path d="M532.909,1405.172L479.474,1405.172C479.474,1405.172 472.126,1510.65 474.798,1552.062L475.199,1563.974C475.199,1563.974 524.054,1562.447 531.687,1559.394C539.321,1556.34 538.176,1461.684 539.702,1456.722L546.573,1455.959C546.573,1455.959 539.855,1416.981 532.909,1405.172Z" style="fill:none;stroke:black;stroke-width:4.17px;stroke-linecap:round;stroke-miterlimit:1.5;"/>
                </g>
                <g transform="matrix(0.997024,-0.077097,0.077097,0.997024,540.655004,41.590959)">
                    <path d="M182.315,1384.277C182.315,1384.277 170.095,1436.396 169.561,1448.34L173.835,1451.675" style="fill:none;stroke:black;stroke-width:4.17px;stroke-linecap:round;stroke-miterlimit:1.5;"/>
                </g>
                <g transform="matrix(0.997024,-0.077097,0.077097,0.997024,540.655004,41.590959)">
                    <path d="M180.716,1405.172C180.716,1405.172 175.988,1456.07 181.493,1503.591C183.591,1521.7 187.174,1539.319 193.072,1553.443L202.69,1550.665L207.27,1551.81" style="fill:none;stroke:black;stroke-width:4.17px;stroke-linecap:round;stroke-miterlimit:1.5;"/>
                </g>
                <g transform="matrix(1.279094,0.165335,0.165335,1.097944,360.040372,-148.776354)">
                    <path d="M175.138,1451.675L178.827,1453.86" style="fill:none;stroke:black;stroke-width:3.07px;stroke-linecap:round;stroke-miterlimit:1.5;"/>
                </g>
                <g transform="matrix(1,0,0,1,651.906246,11.551513)">
                    <path d="M539.702,1456.722C539.702,1456.722 495.714,1457.891 491.039,1459.561C491.039,1459.561 482.689,1410.23 480.352,1405.172" style="fill:none;stroke:black;stroke-width:2.08px;stroke-linecap:round;stroke-miterlimit:1.5;"/>
                </g>
                <g transform="matrix(1,0,0,1,651.906246,11.551513)">
                    <path d="M486.222,1432.367C486.222,1432.367 491.706,1552.586 490.037,1563.974L480.352,1559.331C480.352,1559.331 481.163,1425.075 480.352,1412.385" style="fill:none;stroke:black;stroke-width:2.08px;stroke-linecap:round;stroke-miterlimit:1.5;"/>
                </g>
            </g>
        </g>
    </g>
</svg>
