<?xml version="1.0" encoding="UTF-8" standalone="no"?>
<!DOCTYPE svg PUBLIC "-//W3C//DTD SVG 1.1//EN" "http://www.w3.org/Graphics/SVG/1.1/DTD/svg11.dtd">
<svg width="100%" height="100%" viewBox="0 0 583 759" version="1.1" xmlns="http://www.w3.org/2000/svg" xmlns:xlink="http://www.w3.org/1999/xlink" xml:space="preserve" xmlns:serif="http://www.serif.com/" style="fill-rule:evenodd;clip-rule:evenodd;stroke-linecap:round;stroke-linejoin:round;stroke-miterlimit:1.5;">
    <g transform="matrix(1,0,0,1,-1074.571659,-1234.332229)">
        <g id="fat">
            <path d="M1076.655,1257.759C1076.655,1257.759 1163.934,1289.972 1193.857,1292.257C1223.781,1294.541 1218.488,1300.181 1227.839,1300.181C1237.191,1300.181 1358.221,1298.281 1368.641,1296.945C1379.06,1295.61 1447.381,1295.915 1494.213,1284.388C1504.963,1281.742 1545.586,1270.991 1554.136,1267.785C1562.686,1264.579 1613.029,1247.48 1618.907,1245.075C1624.785,1242.671 1640.423,1236.416 1640.423,1236.416C1640.423,1236.416 1641.902,1235.729 1642.57,1243.076C1643.238,1250.424 1648.581,1291.168 1648.581,1295.175C1648.581,1299.183 1655.076,1344.937 1654.5,1350.948C1653.925,1356.96 1655.744,1387.017 1654.5,1391.358C1653.257,1395.7 1652.923,1420.414 1651.587,1427.093C1650.251,1433.772 1646.577,1471.845 1644.908,1479.192C1643.238,1486.539 1639.898,1516.596 1638.562,1525.28C1637.226,1533.963 1632.885,1575.375 1630.881,1586.396C1628.877,1597.417 1621.864,1651.186 1621.864,1660.871C1621.864,1670.556 1625.871,1684.917 1631.883,1705.623C1637.894,1726.329 1640.232,1755.384 1640.232,1765.403C1640.232,1775.422 1637.894,1812.826 1635.223,1825.851C1632.551,1838.876 1626.539,1866.261 1624.536,1882.626C1622.532,1898.99 1613.849,1935.393 1611.177,1950.755C1608.505,1966.118 1606.316,1979.532 1606.316,1979.532C1606.316,1979.532 1561.193,2000.313 1511.32,1986.36C1511.32,1986.36 1495.884,1889.88 1494.102,1883.053C1492.321,1876.225 1474.51,1805.572 1472.728,1799.635C1470.947,1793.697 1449.276,1705.827 1447.495,1700.78C1445.714,1695.733 1440.964,1692.765 1435.324,1677.328C1429.684,1661.891 1409.794,1616.768 1407.419,1610.237C1405.044,1603.707 1384.858,1547.6 1383.967,1543.741C1383.076,1539.881 1371.202,1503.664 1371.202,1503.664L1362.89,1544.631C1362.89,1544.631 1346.859,1611.722 1346.266,1622.409C1345.672,1633.096 1347.75,1641.408 1350.125,1652.095C1352.5,1662.782 1370.691,1731.06 1370.798,1740.559C1370.905,1750.059 1374.119,1780.932 1368.207,1804.681C1362.296,1828.43 1358.793,1840.913 1358.793,1840.913C1358.793,1840.913 1345.969,1893.279 1344.9,1897.287C1343.831,1901.295 1337.152,1933.623 1337.152,1933.623C1337.152,1933.623 1277.038,1951.256 1236.16,1934.691C1236.16,1934.691 1227.343,1874.31 1226.542,1868.966C1225.74,1863.623 1213.717,1786.677 1212.381,1782.135C1211.046,1777.593 1199.557,1702.517 1197.954,1698.776C1196.351,1695.036 1188.336,1679.005 1187,1673.929C1185.664,1668.853 1179.786,1648.547 1178.717,1644.273C1177.649,1639.998 1163.221,1611.41 1160.282,1603.128C1157.343,1594.845 1143.985,1564.922 1141.847,1558.242C1139.71,1551.563 1128.221,1521.105 1125.015,1511.22C1121.809,1501.334 1112.191,1468.739 1110.855,1462.059C1109.519,1455.38 1099.901,1412.098 1098.565,1406.22C1097.229,1400.342 1093.582,1386.716 1093.802,1380.037C1094.023,1373.357 1093.222,1369.884 1091.351,1364.541C1089.481,1359.197 1083.603,1341.296 1082.802,1334.617C1082,1327.938 1076.485,1293.205 1076.571,1287.594C1076.657,1281.984 1077.103,1274.147 1076.655,1269.872" style="fill:rgb(212,190,136);"/>
            <g id="fat1" serif:id="fat">
                <path d="M1076.701,1257.759C1076.148,1295.72 1080.335,1350.832 1103.867,1395.073" style="fill:none;stroke:black;stroke-width:4.17px;"/>
                <path d="M1093.802,1372.597C1093.802,1372.597 1101.552,1488.94 1178.676,1644.08C1178.676,1644.08 1188.116,1680.193 1195.686,1694.887C1203.256,1709.582 1207.264,1759.9 1212.607,1782.164C1212.607,1782.164 1234.872,1914.861 1235.317,1934.454C1235.317,1934.454 1269.159,1950.484 1336.398,1934.454C1336.398,1934.454 1353.319,1860.09 1360.444,1835.154C1360.444,1835.154 1377.81,1773.259 1368.905,1732.292C1359.999,1691.325 1353.765,1669.06 1349.312,1649.022C1344.859,1628.984 1348.421,1609.837 1351.983,1595.142C1355.546,1580.448 1369.35,1514.544 1370.686,1502.522" style="fill:none;stroke:black;stroke-width:4.17px;"/>
                <path d="M1641.066,1236.416C1641.066,1236.416 1518.166,1291.1 1418.421,1295.374C1318.676,1299.647 1307.322,1301.428 1226.39,1298.756C1226.39,1298.756 1147.456,1287.268 1076.655,1259.17M1243.778,1423.26C1243.778,1423.26 1285.19,1440.181 1354.21,1447.751C1354.21,1447.751 1416.373,1655.835 1447.365,1701.255C1447.365,1701.255 1479.426,1825.224 1490.113,1864.232C1490.113,1864.232 1509.26,1953.78 1511.041,1986.286C1511.041,1986.286 1552.454,2000.535 1606.334,1980.052C1606.334,1980.052 1619.247,1903.462 1624.145,1880.307C1624.145,1880.307 1639.285,1803.717 1638.84,1789.467C1638.395,1775.218 1643.738,1748.946 1630.825,1703.081C1630.825,1703.081 1622.81,1679.035 1621.474,1668.348C1620.138,1657.661 1624.145,1638.068 1625.481,1628.272C1626.817,1618.475 1639.731,1510.27 1642.402,1494.239C1645.074,1478.209 1652.199,1424.328 1653.089,1414.087C1653.98,1403.845 1655.761,1354.418 1653.089,1336.606C1650.418,1318.794 1643.293,1248.438 1641.066,1236.416" style="fill:none;stroke:black;stroke-width:4.17px;"/>
                <g transform="matrix(0.999283,0.037867,-0.037867,0.999283,698.419677,-36.163633)">
                    <path d="M982.125,1489.118C982.125,1527.591 963.957,1601.866 963.422,1653.698C963.422,1653.698 985.865,1758.965 992.277,1789.957C998.689,1820.949 998.155,1834.308 993.88,1881.865L992.569,1895.414M966.193,1248.676C975.215,1268.746 977.002,1309.152 979.349,1323.863C986.498,1368.656 979.987,1431.943 982.125,1489.118" style="fill:none;stroke:black;stroke-width:2.08px;"/>
                </g>
                <g transform="matrix(1,0,0,1.011964,523.740108,-92.67187)">
                    <path d="M810.643,1520.177C810.643,1520.177 794.613,1648.421 797.284,1679.146C799.956,1709.871 803.296,1713.211 806.635,1739.929C808.372,1753.82 810.83,1769.155 812.228,1786.687C813.518,1802.874 813.903,1820.933 811.979,1841.455C807.971,1884.203 803.964,1926.283 803.296,1944.317C802.628,1962.351 800.535,2004.008 800.535,2004.008" style="fill:none;stroke:black;stroke-width:2.07px;"/>
                </g>
                <g transform="matrix(1,0,0,1,537.911695,46.310278)">
                    <path d="M766.263,1253.871C766.263,1253.871 767.672,1322.505 782.812,1395.63" style="fill:none;stroke:black;stroke-width:2.08px;"/>
                </g>
                <path d="M1477.177,1377.896C1477.177,1377.896 1470.943,1517.05 1493.653,1678.69C1493.653,1678.69 1535.956,1926.495 1535.065,1963.899" style="fill:none;stroke:black;stroke-width:2.08px;"/>
                <path d="M1510.129,1963.899C1510.129,1963.899 1572.024,1976.59 1607.648,1957.888" style="fill:none;stroke:black;stroke-width:2.08px;"/>
                <path d="M1233.412,1913.2C1233.412,1913.2 1286.084,1926.177 1340.664,1912.818" style="fill:none;stroke:black;stroke-width:2.08px;"/>
                <path d="M1143.654,1392.591C1143.654,1392.591 1177.051,1584.956 1197.089,1658.429C1197.089,1658.429 1241.682,1867.271 1244.099,1912.468" style="fill:none;stroke:black;stroke-width:2.08px;"/>
                <g transform="matrix(1,0,0,1,538.09769,99.745217)">
                    <path d="M743.092,1200.436C743.092,1200.436 748.97,1291.275 755.204,1312.649L778.359,1322.446" style="fill:none;stroke:black;stroke-width:2.08px;"/>
                </g>
                <g transform="matrix(1.110247,0,0,1.091405,564.15605,-7.579731)">
                    <path d="M955.397,1209.732C955.397,1209.732 889.742,1219.584 874.016,1174.164" style="fill:none;stroke:black;stroke-width:1.89px;"/>
                </g>
                <g transform="matrix(1,0,0,1,415.545693,51.653772)">
                    <path d="M693.531,1218.248C693.531,1218.248 679.505,1240.401 661.025,1246.19" style="fill:none;stroke:black;stroke-width:2.08px;"/>
                </g>
            </g>
        </g>
    </g>
</svg>
