<?xml version="1.0" encoding="UTF-8" standalone="no"?>
<svg width="100%" height="100%" viewBox="0 0 353 684" version="1.1" xmlns="http://www.w3.org/2000/svg" xmlns:xlink="http://www.w3.org/1999/xlink" xml:space="preserve" xmlns:serif="http://www.serif.com/" style="fill-rule:evenodd;clip-rule:evenodd;stroke-linecap:round;stroke-linejoin:round;stroke-miterlimit:1.5;">
    <g transform="matrix(1,0,0,1,-715.079551,-1445.063545)">
        <g>
            <g>
                <path d="M730.131,1447.147L724.025,1527.251L720.971,1599.769L717.163,1645.953L717.163,1755.494L720.971,1818.471L724.406,1865.799L723.547,1907.664L723.547,1951.748L723.881,1999.84L726.887,2017.206L733.901,2035.574L736.906,2047.931L739.244,2066.967L739.578,2081.996L750.933,2088.007L763.958,2092.349L781.324,2096.184L818.395,2096.184L840.102,2093.351L861.81,2090.345L877.507,2087.339L877.507,2065.297L878.843,2043.924L883.852,2032.903L886.796,2021.839L886.796,1937.926L882.739,1893.1L881.255,1878.257L883.927,1823.337L889.864,1868.46C889.864,1868.46 892.239,1887.459 892.535,1891.319C892.832,1895.178 896.988,1947.425 896.988,1947.425L900.551,2007.094L900.254,2041.53L905.004,2060.232L914.503,2079.528L916.878,2101.496L917.769,2118.417L940.33,2122.87L965.563,2126.09L989.312,2126.09L1014.842,2122.573L1036.216,2118.714L1060.856,2111.292L1059.668,2092.293L1059.074,2075.075L1065.734,2044.796L1065.734,2016L1060.856,1985.72L1054.028,1928.129L1051.356,1893.397L1049.575,1839.962L1049.872,1809.385L1051.356,1759.215L1052.247,1718.842L1054.028,1658.58L1056.106,1588.521L1058.481,1514.602L1060.559,1447.147L1048.387,1449.59L1004.452,1457.308L963.782,1462.355L928.089,1463.839L874.016,1465.62L846.225,1464.136L814.461,1461.761L786.259,1457.902L757.761,1453.746L730.131,1447.147Z" style="fill:rgb(29,29,29);"/>
                <clipPath id="_clip1">
                    <path d="M730.131,1447.147L724.025,1527.251L720.971,1599.769L717.163,1645.953L717.163,1755.494L720.971,1818.471L724.406,1865.799L723.547,1907.664L723.547,1951.748L723.881,1999.84L726.887,2017.206L733.901,2035.574L736.906,2047.931L739.244,2066.967L739.578,2081.996L750.933,2088.007L763.958,2092.349L781.324,2096.184L818.395,2096.184L840.102,2093.351L861.81,2090.345L877.507,2087.339L877.507,2065.297L878.843,2043.924L883.852,2032.903L886.796,2021.839L886.796,1937.926L882.739,1893.1L881.255,1878.257L883.927,1823.337L889.864,1868.46C889.864,1868.46 892.239,1887.459 892.535,1891.319C892.832,1895.178 896.988,1947.425 896.988,1947.425L900.551,2007.094L900.254,2041.53L905.004,2060.232L914.503,2079.528L916.878,2101.496L917.769,2118.417L940.33,2122.87L965.563,2126.09L989.312,2126.09L1014.842,2122.573L1036.216,2118.714L1060.856,2111.292L1059.668,2092.293L1059.074,2075.075L1065.734,2044.796L1065.734,2016L1060.856,1985.72L1054.028,1928.129L1051.356,1893.397L1049.575,1839.962L1049.872,1809.385L1051.356,1759.215L1052.247,1718.842L1054.028,1658.58L1056.106,1588.521L1058.481,1514.602L1060.559,1447.147L1048.387,1449.59L1004.452,1457.308L963.782,1462.355L928.089,1463.839L874.016,1465.62L846.225,1464.136L814.461,1461.761L786.259,1457.902L757.761,1453.746L730.131,1447.147Z"/>
                </clipPath>
                <g clip-path="url(#_clip1)">
                    <g transform="matrix(0.04128,0,0,0.04128,986.706441,1573.252288)">
                        <g transform="matrix(1,0,0,1,-3643.75,-5168.75)">
                            <g id="alo-yoga-1.jpg" transform="matrix(4.903158,0,0,4.903158,1383.333333,2983.333333)">
                                <path d="M526.5,163.05C530.783,163.219 531.899,161.739 532.591,164.475C532.776,165.206 532.68,441.658 532.639,442.524C532.514,445.183 523.948,444.34 521.5,444.34C500.215,444.34 498.333,445.156 498.31,441.506C498.309,441.322 498.303,166.24 498.313,165.49C498.356,162.433 500.048,163.05 526.5,163.05Z" style="fill:rgb(254,254,254);"/>
                                <path d="M372.42,277.083C376.079,276.525 397.741,273.223 418.467,281.584C436.251,288.758 434.854,291.27 436.465,291.624C440.904,292.6 434.476,281.303 441.499,281.304C470.944,281.31 472.28,280.858 472.538,283.497C472.55,283.625 472.602,441.955 472.51,442.502C472.142,444.685 471.084,444.354 441.5,444.343C436.771,444.341 438.148,442.196 438.17,437.502C438.201,430.732 434.708,436.415 425.306,441.145C357.045,475.491 286.21,408.034 305.863,339.605C321.679,284.539 370.873,277.453 372.42,277.083ZM388.501,311.113C384.998,311.191 362.481,311.696 348.885,329.813C315.927,373.73 358.062,423.486 397.582,413.863C456.799,399.443 448.001,313.637 388.501,311.113Z" style="fill:rgb(254,254,254);"/>
                                <path d="M621.423,277.062C627.428,276.159 665.367,270.454 694.124,298.871C758.208,362.194 700.197,464.742 620.466,448.673C552.6,434.995 533.227,351.858 570.784,307.736C589.789,285.409 604.735,281.04 621.423,277.062ZM635.498,311.113C580.651,313.623 569.337,386.262 613.65,409.214C664.587,435.597 713.862,366.637 670.352,324.652C657.412,312.165 638.486,311.257 635.498,311.113Z" style="fill:rgb(254,254,254);"/>
                            </g>
                        </g>
                    </g>
                </g>
                <path d="M814.572,1566.213L810.003,1555.662L810.003,1514.539L813.571,1487.866L815.24,1462.865L826.206,1462.865L823.238,1478.367L822.254,1485.194L821.586,1514.539L821.92,1534.956L822.922,1552.656L822.588,1560.671L818.104,1566.213" style="fill:rgb(211,211,211);"/>
                <path d="M857.822,1465.536L860.623,1492.189L862.701,1517.775L864.185,1539.687L868.954,1560.467L868.954,1566.213L874.016,1570.014L880.086,1566.213L880.086,1558.092L877.415,1542.952L874.016,1517.775L871.344,1499.908L868.954,1465.536L857.822,1465.536Z" style="fill:rgb(211,211,211);"/>
            </g>
            <g>
                <g transform="matrix(0.999809,0.019545,-0.025161,1.287107,32.358058,-426.335229)">
                    <path d="M733.511,1444.53C733.511,1444.53 875.216,1474.741 1064.774,1439.407" style="fill:none;stroke:black;stroke-width:3.61px;"/>
                </g>
                <path d="M1060.712,1447.147C1060.712,1447.147 1047.126,1822.805 1049.798,1848.187C1051.665,1865.919 1047.779,1887.366 1058.94,1968.139C1062.201,1991.747 1068.652,2034.728 1064.242,2053.167C1057.276,2082.294 1059.847,2088.271 1060.89,2111.309C1060.89,2111.309 1002.018,2138.281 917.769,2119.356C917.769,2119.356 918.321,2111.124 914.953,2082.886C914.04,2075.236 899.68,2059.307 900.313,2034.507C901.552,1985.931 892.691,1887.552 890.773,1880.769C887.044,1867.588 866.561,1614.284 866.561,1614.284C866.561,1614.284 845.988,1612.08 802.706,1592.309" style="fill:none;stroke:black;stroke-width:4.17px;"/>
                <path d="M928.089,2021.839C928.089,2021.839 986.819,2020.974 1030.392,1970.91" style="fill:none;stroke:black;stroke-width:4.17px;"/>
                <path d="M740.532,1970.007C740.532,1970.007 760.837,1981.228 840.99,1924.587" style="fill:none;stroke:black;stroke-width:4.17px;"/>
                <path d="M729.383,1447.147C729.383,1447.147 709.284,1657.589 720.639,1830.251C721.266,1839.785 721.857,1848.615 722.415,1856.805C725.052,1895.536 721.599,1979.417 723.012,1996.375C726.711,2040.767 737.384,2017.772 739.393,2082.886C739.393,2082.886 778.171,2109.426 878.342,2087.517C878.342,2087.517 875.392,2082.916 878.679,2045.053C879.338,2037.458 886.498,2031.783 886.701,2021.839C887.371,1989.004 884.377,1892.292 881.764,1883.743L883.635,1817.55" style="fill:none;stroke:black;stroke-width:4.17px;"/>
                <path d="M815.668,1465.536C815.668,1465.536 807.059,1543.462 811.066,1559.048C815.074,1574.633 821.753,1559.938 821.753,1559.938C821.753,1559.938 820.417,1480.231 826.206,1462.865" style="fill:none;stroke:black;stroke-width:4.17px;"/>
                <path d="M857.822,1465.536C857.822,1465.536 865.392,1552.368 867.618,1562.165C869.845,1571.961 880.086,1573.742 880.086,1560.829C880.086,1547.915 868.212,1472.81 869.103,1466.575" style="fill:none;stroke:black;stroke-width:4.17px;"/>
                <path d="M973.186,1461.061C973.186,1461.061 975.323,1488.313 981.201,1492.054C981.201,1492.054 1034.521,1503.275 1049.006,1497.931" style="fill:none;stroke:black;stroke-width:1.37px;"/>
                <path d="M762.652,1456.445C762.652,1456.445 754.103,1465.87 754.637,1475.489C754.637,1475.489 735.935,1482.97 727.385,1490.985" style="fill:none;stroke:black;stroke-width:1.37px;"/>
            </g>
        </g>
    </g>
</svg>
