<?xml version="1.0" encoding="UTF-8" standalone="no"?>
<svg width="100%" height="100%" viewBox="0 0 348 685" version="1.1" xmlns="http://www.w3.org/2000/svg" xmlns:xlink="http://www.w3.org/1999/xlink" xml:space="preserve" xmlns:serif="http://www.serif.com/" style="fill-rule:evenodd;clip-rule:evenodd;stroke-linecap:round;stroke-linejoin:round;stroke-miterlimit:1.5;">
    <g transform="matrix(1,0,0,1,-715.079551,-1445.063545)">
        <path d="M729.968,1447.147L724.624,1502.978L720.765,1565.912L719.578,1623.503L717.163,1673.673L717.163,1790.636L721.953,1837.243L724.624,1885.038L727.385,1942.035L731.155,1991.611L732.936,2040.593L734.124,2083.044L734.718,2087.794L745.019,2092.543L762.652,2097.293L780.434,2100.729L823.479,2100.729L844.259,2097.887L874.016,2093.137L874.016,2078.591L878.101,2048.311L881.07,1993.986L883.781,1953.019L883.781,1905.224L881.367,1883.85L883.781,1834.275L888.938,1870.788L891.757,1889.194L897.991,1933.426L904.225,1994.579L909.569,2040.296L913.428,2080.966L918.771,2121.042L932.427,2124.604L957.363,2127.116L978.44,2127.116L1011.096,2123.714L1039.297,2116.292L1052.952,2112.136L1060.712,2107.683L1060.712,2028.718L1057.702,1950.347L1055.624,1896.318L1049.006,1847.633L1049.006,1757.388L1052.952,1693.859L1054.437,1641.612L1056.218,1566.803L1060.712,1490.985L1060.712,1447.147L1036.002,1452.2L999.399,1456.445L960.124,1461.061L907.223,1465.292L868.216,1465.559L833.483,1465.744L812.644,1461.551L772.834,1456.445L747.72,1451.933L729.968,1447.147Z" style="fill:rgb(212,190,136);"/>
        <g>
            <g transform="matrix(0.999809,0.019545,-0.025161,1.287107,32.358058,-426.335229)">
                <path d="M733.511,1444.53C733.511,1444.53 875.216,1474.741 1064.774,1439.407" style="fill:none;stroke:black;stroke-width:3.61px;"/>
            </g>
            <path d="M1060.712,1447.147C1060.712,1447.147 1047.126,1822.805 1049.798,1848.187C1052.47,1873.568 1059.603,1895.401 1060.712,2108.014C1060.712,2108.014 1002.018,2140.062 917.769,2121.137C917.769,2121.137 894.501,1893.949 890.773,1880.769C887.044,1867.588 866.561,1614.284 866.561,1614.284C866.561,1614.284 845.988,1612.08 802.706,1592.309" style="fill:none;stroke:black;stroke-width:4.17px;"/>
            <path d="M729.383,1447.147C729.383,1447.147 709.284,1657.589 720.639,1830.251C731.994,2002.912 730.792,1990.756 733.731,2086.003C733.731,2086.003 773.844,2114.324 874.016,2092.416C874.016,2092.416 889.112,1907.788 881.764,1883.743L883.635,1817.55" style="fill:none;stroke:black;stroke-width:4.17px;"/>
            <path d="M874.016,1721.724L856.561,1841.952C856.561,1841.952 866.357,1874.673 847.655,2096.722" style="fill:none;stroke:black;stroke-width:1.37px;"/>
            <path d="M860.835,1465.744C860.835,1465.744 851.354,1536.405 856.163,1608.542" style="fill:none;stroke:black;stroke-width:1.37px;"/>
            <path d="M828.399,1465.744C828.399,1465.744 823.568,1522.511 829.446,1562.053C829.446,1562.053 850.235,1579.687 854.802,1580.221" style="fill:none;stroke:black;stroke-width:1.37px;"/>
            <path d="M973.186,1461.061C973.186,1461.061 975.323,1488.313 981.201,1492.054C981.201,1492.054 1034.521,1503.275 1049.006,1497.931" style="fill:none;stroke:black;stroke-width:1.37px;"/>
            <path d="M762.652,1456.445C762.652,1456.445 754.103,1465.87 754.637,1475.489C754.637,1475.489 735.935,1482.97 727.385,1490.985" style="fill:none;stroke:black;stroke-width:1.37px;"/>
            <path d="M1048.927,1456.445C1048.927,1456.445 1036.904,1807.353 1035.568,1834.07C1034.251,1860.416 1049.819,1922.451 1048.972,2111.928C1048.961,2114.605 1049.014,2110.022 1048.996,2112.739" style="fill:none;stroke:black;stroke-width:1.37px;"/>
            <path d="M954.246,1500.915C954.246,1500.915 942.223,1695.284 978.292,2076.676" style="fill:none;stroke:black;stroke-width:1.37px;"/>
            <path d="M756.537,1500.915C756.537,1500.915 741.842,1703.3 759.209,2048.623" style="fill:none;stroke:black;stroke-width:1.37px;"/>
            <path d="M734.495,2060.646C734.495,2060.646 749.924,2080.684 874.016,2065.989" style="fill:none;stroke:black;stroke-width:1.37px;"/>
            <path d="M916.619,2091.816C916.619,2091.816 960.786,2108.292 1060.712,2081.129" style="fill:none;stroke:black;stroke-width:1.37px;"/>
        </g>
    </g>
</svg>
