<?xml version="1.0" encoding="UTF-8" standalone="no"?>
<!DOCTYPE svg PUBLIC "-//W3C//DTD SVG 1.1//EN" "http://www.w3.org/Graphics/SVG/1.1/DTD/svg11.dtd">
<svg width="100%" height="100%" viewBox="0 0 1749 2481" version="1.1" xmlns="http://www.w3.org/2000/svg" xmlns:xlink="http://www.w3.org/1999/xlink" xml:space="preserve" xmlns:serif="http://www.serif.com/" style="fill-rule:evenodd;clip-rule:evenodd;stroke-linecap:round;stroke-linejoin:round;stroke-miterlimit:1.5;">
    <path d="M729.968,1447.147L724.624,1502.978L720.765,1565.912L719.578,1623.503L717.163,1673.673L717.163,1790.636L721.953,1837.243L724.624,1885.038L727.385,1942.035L731.155,1991.611L732.936,2040.593L734.124,2083.044L734.718,2087.794L745.019,2092.543L762.652,2097.293L780.434,2100.729L823.479,2100.729L844.259,2097.887L874.016,2093.137L874.016,2078.591L878.101,2048.311L881.07,1993.986L883.781,1953.019L883.781,1905.224L881.367,1883.85L883.781,1834.275L888.938,1870.788L891.757,1889.194L897.991,1933.426L904.225,1994.579L909.569,2040.296L913.428,2080.966L918.771,2121.042L932.427,2124.604L957.363,2127.116L978.44,2127.116L1011.096,2123.714L1039.297,2116.292L1052.952,2112.136L1060.712,2107.683L1060.712,2028.718L1057.702,1950.347L1055.624,1896.318L1049.006,1847.633L1049.006,1757.388L1052.952,1693.859L1054.437,1641.612L1056.218,1566.803L1060.712,1490.985L1060.712,1447.147L1036.002,1452.2L999.399,1456.445L960.124,1461.061L907.223,1465.292L868.216,1465.559L833.483,1465.744L812.644,1461.551L772.834,1456.445L747.72,1451.933L729.968,1447.147Z" style="fill:rgb(73,90,173);"/>
    <clipPath id="_clip1">
        <path d="M729.968,1447.147L724.624,1502.978L720.765,1565.912L719.578,1623.503L717.163,1673.673L717.163,1790.636L721.953,1837.243L724.624,1885.038L727.385,1942.035L731.155,1991.611L732.936,2040.593L734.124,2083.044L734.718,2087.794L745.019,2092.543L762.652,2097.293L780.434,2100.729L823.479,2100.729L844.259,2097.887L874.016,2093.137L874.016,2078.591L878.101,2048.311L881.07,1993.986L883.781,1953.019L883.781,1905.224L881.367,1883.85L883.781,1834.275L888.938,1870.788L891.757,1889.194L897.991,1933.426L904.225,1994.579L909.569,2040.296L913.428,2080.966L918.771,2121.042L932.427,2124.604L957.363,2127.116L978.44,2127.116L1011.096,2123.714L1039.297,2116.292L1052.952,2112.136L1060.712,2107.683L1060.712,2028.718L1057.702,1950.347L1055.624,1896.318L1049.006,1847.633L1049.006,1757.388L1052.952,1693.859L1054.437,1641.612L1056.218,1566.803L1060.712,1490.985L1060.712,1447.147L1036.002,1452.2L999.399,1456.445L960.124,1461.061L907.223,1465.292L868.216,1465.559L833.483,1465.744L812.644,1461.551L772.834,1456.445L747.72,1451.933L729.968,1447.147Z"/>
    </clipPath>
    <g clip-path="url(#_clip1)">
        <g transform="matrix(0.001931,0.118902,-0.118902,0.001931,888.937522,1883.663485)">
            <g transform="matrix(1,0,0,1,-3643.75,-5168.75)">
                <g id="_5a7f5f47abc3d121aba71181.png" serif:id="5a7f5f47abc3d121aba71181.png" transform="matrix(9.809338,0,0,9.809338,1487.916371,3540.618292)">
                    <path d="M303.935,61.531C303.934,60.823 303.926,54.362 300.541,53.363C286.181,49.127 288.392,89.962 284.333,92.047C283.837,92.301 272.861,92.251 272.605,92.132C268.421,90.19 281.877,56.107 272.538,53.37C259.576,49.57 259.998,82.28 257.572,90.52C256.756,93.293 243.399,93.064 243.666,90.502C243.715,90.035 250.879,45.057 250.992,44.692C251.593,42.738 263.815,43.515 264.262,43.842C264.904,44.312 264.047,48.491 266.707,45.911C270.1,42.62 277.748,40.606 283.649,43.139C288.949,45.414 288.559,50.733 292.806,46.858C298.682,41.496 310.238,39.854 315.44,45.555C317.864,48.212 320.64,51.255 313.431,90.482C312.985,92.906 306.42,92.26 301.516,92.215C297.789,92.18 300.305,89.827 303.935,61.531Z" style="fill:rgb(254,254,254);"/>
                    <path d="M31.534,94.12C24.437,92.448 23.744,93.497 18.721,88.276C10.687,79.927 14.616,78.172 14.886,77.95C19.728,73.96 23.153,69.353 24.833,73.35C29.157,83.637 39.907,82.6 44.084,77.155C54.882,63.076 34.131,57.494 33.627,57.244C31.505,56.191 14.844,47.923 25.818,28.684C39.127,5.351 70.443,19.701 66.017,25.15C60.919,31.428 59.199,34.206 57.147,31.837C51.166,24.932 42.528,28.407 39.923,31.856C32.396,41.822 48.092,46.359 51.301,47.896C70.258,56.982 61.991,76.538 55.01,85.06C47.775,93.892 33.547,94.092 31.534,94.12Z" style="fill:rgb(254,254,254);"/>
                    <path d="M79.084,74.5C80.325,87.292 92.578,83.241 94.823,72.576C97.799,58.434 97.797,43.633 101.503,43.542C106.551,43.417 113.528,42.841 113.173,45.479C108.891,77.371 106.773,80.66 105.1,83.258C95.049,98.868 61.59,99.663 64.941,73.552C65.245,71.179 68.522,45.642 70.152,44.11C70.784,43.515 83.598,42.102 83.337,45.491C83.017,49.651 79.894,63.977 79.084,74.5Z" style="fill:rgb(254,254,254);"/>
                    <path d="M165.894,78.56C170.717,48.561 171.05,44.652 171.903,43.986C172.258,43.709 185.648,41.921 185.003,45.608C184.052,51.043 189.498,41.679 197.511,41.95C206.416,42.252 202.117,48.154 201.71,49.562C200.558,53.543 200.444,55.85 197.4,54.808C181.133,49.239 180.124,77.564 178.131,89.442C177.57,92.785 174.602,92.44 165.534,92.211C163.063,92.149 164.829,85.167 165.894,78.56Z" style="fill:rgb(254,254,254);"/>
                    <path d="M131.908,46.381C133.181,46.559 133.23,46.931 134.237,46.096C142.771,39.013 156.65,41.486 161.526,50.484C175.436,76.149 142.517,105.234 127.284,89.739C123.632,86.025 125.05,91.603 121.092,115.436C120.525,118.854 117.019,118.398 108.534,118.196C105.957,118.134 107.621,112.401 107.761,111.541C118.48,45.713 117.115,43.654 120.503,43.541C130.398,43.21 131.81,42.973 131.908,46.381ZM127.087,69.483C128.239,94.607 158.395,75.371 148.499,58.5C145.369,53.163 130.477,49.759 127.087,69.483Z" style="fill:rgb(254,254,254);"/>
                    <path d="M215.5,70.122C214.815,70.238 214.102,70.09 213.417,70.206C210.818,70.648 210.769,82.986 219.509,83.134C225.758,83.239 229.223,77.863 229.555,77.56C230.97,76.267 243.183,77.261 241.642,80.565C234.059,96.83 197.48,101.595 197.311,73.501C197.072,33.796 252.797,31.215 244.44,68.482C243.982,70.526 243.114,70.122 215.5,70.122ZM217.342,55.359C217.041,55.769 212.97,61.312 215.516,61.444C232.127,62.303 232.506,60.858 232.381,59.506C231.811,53.354 225.06,47.705 217.342,55.359Z" style="fill:rgb(254,254,254);"/>
                    <path d="M319.92,72.513C320.168,70.685 321.868,58.142 327.954,50.895C331.622,46.526 337.314,43.723 340.612,42.917C366.657,36.557 369.802,60.597 367,68.69C365.695,72.46 335.593,67.786 334.678,71.55C332.429,80.805 342.682,87.783 350.436,79.439C353.217,76.447 353.736,76.32 363.572,78.326C366.432,78.909 360.859,84.983 360.438,85.441C352.064,94.567 321.689,103.426 319.92,72.513ZM338.382,57.427C337.402,60.017 335.7,61.412 338.501,61.491C354.542,61.939 354.92,60.824 354.939,59.5C355.013,54.425 346.774,45.716 338.382,57.427Z" style="fill:rgb(254,254,254);"/>
                </g>
            </g>
        </g>
    </g>
    <g>
        <g transform="matrix(0.999809,0.019545,-0.025161,1.287107,32.358058,-426.335229)">
            <path d="M733.511,1444.53C733.511,1444.53 875.216,1474.741 1064.774,1439.407" style="fill:none;stroke:black;stroke-width:3.61px;"/>
        </g>
        <path d="M1060.712,1447.147C1060.712,1447.147 1047.126,1822.805 1049.798,1848.187C1052.47,1873.568 1059.603,1895.401 1060.712,2108.014C1060.712,2108.014 1002.018,2140.062 917.769,2121.137C917.769,2121.137 894.501,1893.949 890.773,1880.769C887.044,1867.588 866.561,1614.284 866.561,1614.284C866.561,1614.284 845.988,1612.08 802.706,1592.309" style="fill:none;stroke:black;stroke-width:4.17px;"/>
        <path d="M729.383,1447.147C729.383,1447.147 709.284,1657.589 720.639,1830.251C731.994,2002.912 730.792,1990.756 733.731,2086.003C733.731,2086.003 773.844,2114.324 874.016,2092.416C874.016,2092.416 889.112,1907.788 881.764,1883.743L883.635,1817.55" style="fill:none;stroke:black;stroke-width:4.17px;"/>
        <path d="M874.016,1721.724L856.561,1841.952C856.561,1841.952 866.357,1874.673 847.655,2096.722" style="fill:none;stroke:black;stroke-width:1.37px;"/>
        <path d="M860.835,1465.744C860.835,1465.744 851.354,1536.405 856.163,1608.542" style="fill:none;stroke:black;stroke-width:1.37px;"/>
        <path d="M828.399,1465.744C828.399,1465.744 823.568,1522.511 829.446,1562.053C829.446,1562.053 850.235,1579.687 854.802,1580.221" style="fill:none;stroke:black;stroke-width:1.37px;"/>
        <path d="M973.186,1461.061C973.186,1461.061 975.323,1488.313 981.201,1492.054C981.201,1492.054 1034.521,1503.275 1049.006,1497.931" style="fill:none;stroke:black;stroke-width:1.37px;"/>
        <path d="M762.652,1456.445C762.652,1456.445 754.103,1465.87 754.637,1475.489C754.637,1475.489 735.935,1482.97 727.385,1490.985" style="fill:none;stroke:black;stroke-width:1.37px;"/>
        <path d="M1048.927,1456.445C1048.927,1456.445 1036.904,1807.353 1035.568,1834.07C1034.251,1860.416 1049.819,1922.451 1048.972,2111.928C1048.961,2114.605 1049.014,2110.022 1048.996,2112.739" style="fill:none;stroke:black;stroke-width:1.37px;"/>
    </g>
</svg>
