<?xml version="1.0" encoding="UTF-8" standalone="no"?>
<!DOCTYPE svg PUBLIC "-//W3C//DTD SVG 1.1//EN" "http://www.w3.org/Graphics/SVG/1.1/DTD/svg11.dtd">
<svg width="100%" height="100%" viewBox="0 0 398 684" version="1.1" xmlns="http://www.w3.org/2000/svg" xmlns:xlink="http://www.w3.org/1999/xlink" xml:space="preserve" xmlns:serif="http://www.serif.com/" style="fill-rule:evenodd;clip-rule:evenodd;stroke-linecap:round;stroke-linejoin:round;stroke-miterlimit:1.5;">
    <g transform="matrix(1,0,0,1,-691.155564,-1445.063545)">
        <g>
            <g>
                <path d="M730.131,1447.147L724.025,1527.251L720.377,1583.442L718.585,1597.885L713.039,1601.794L705.201,1620.692L693.239,1647.556L693.239,1667.51L700.068,1680.655L698.575,1695.037L695.148,1720.166L696.063,1753.144L705.201,1775.799L717.163,1789.556L719.471,1797.987L720.971,1818.471L724.406,1865.799L723.547,1907.664L723.547,1951.748L723.881,1999.84L726.887,2017.206L733.901,2035.574L736.906,2047.931L739.244,2066.967L739.578,2081.996L750.933,2088.007L763.958,2092.349L781.324,2096.184L818.395,2096.184L840.102,2093.351L861.81,2090.345L877.507,2087.339L877.507,2065.297L878.843,2043.924L883.852,2032.903L886.796,2021.839L886.796,1937.926L882.739,1893.1L881.255,1878.257L883.927,1823.337L889.864,1868.46C889.864,1868.46 892.239,1887.459 892.535,1891.319C892.832,1895.178 896.988,1947.425 896.988,1947.425L900.551,2007.094L900.254,2041.53L905.004,2060.232L914.503,2079.528L916.878,2101.496L917.769,2118.417L940.33,2122.87L965.563,2126.09L989.312,2126.09L1014.842,2122.573L1036.216,2118.714L1060.856,2111.292L1059.668,2092.293L1059.074,2075.075L1065.734,2044.796L1065.734,2016L1060.856,1985.72L1054.028,1928.129L1051.356,1893.397L1049.575,1839.962L1049.872,1809.385L1049.808,1793.117L1069.796,1782.399L1077.806,1766.696L1083.773,1740.751L1081.632,1698.667L1080.281,1666.51L1086.688,1660.418L1083.257,1646.505L1071.967,1622.32L1055.767,1599.931L1056.106,1588.521L1058.481,1514.602L1060.559,1447.147L1048.387,1449.59L1004.452,1457.308L963.782,1462.355L928.089,1463.839L874.016,1465.62L846.225,1464.136L814.461,1461.761L786.259,1457.902L757.761,1453.746L730.131,1447.147Z" style="fill:rgb(57,62,24);"/>
            </g>
            <g>
                <g transform="matrix(0.999809,0.019545,-0.025161,1.287107,32.358058,-426.335229)">
                    <path d="M733.511,1444.53C733.511,1444.53 875.216,1474.741 1064.774,1439.407" style="fill:none;stroke:black;stroke-width:3.61px;"/>
                </g>
                <path d="M1049.93,1795.54C1049.383,1823.467 1049.256,1843.037 1049.798,1848.187C1051.665,1865.919 1047.779,1887.366 1058.94,1968.139C1062.201,1991.747 1068.652,2034.728 1064.242,2053.167C1057.276,2082.294 1059.847,2088.271 1060.89,2111.309C1060.89,2111.309 1002.018,2138.281 917.769,2119.356C917.769,2119.356 918.321,2111.124 914.953,2082.886C914.04,2075.236 899.68,2059.307 900.313,2034.507C901.552,1985.931 892.691,1887.552 890.773,1880.769C887.044,1867.588 866.561,1614.284 866.561,1614.284C866.561,1614.284 845.988,1612.08 802.706,1592.309M1060.712,1447.147C1060.712,1447.147 1058.117,1518.893 1055.419,1601.794" style="fill:none;stroke:black;stroke-width:4.17px;"/>
                <path d="M928.089,2021.839C928.089,2021.839 986.819,2020.974 1030.392,1970.91" style="fill:none;stroke:black;stroke-width:4.17px;"/>
                <path d="M740.532,1970.007C740.532,1970.007 760.837,1981.228 840.99,1924.587" style="fill:none;stroke:black;stroke-width:4.17px;"/>
                <path d="M729.383,1447.147C729.383,1447.147 709.284,1657.589 720.639,1830.251C721.266,1839.785 721.857,1848.615 722.415,1856.805C725.052,1895.536 721.599,1979.417 723.012,1996.375C726.711,2040.767 737.384,2017.772 739.393,2082.886C739.393,2082.886 778.171,2109.426 878.342,2087.517C878.342,2087.517 875.392,2082.916 878.679,2045.053C879.338,2037.458 886.498,2031.783 886.701,2021.839C887.371,1989.004 884.377,1892.292 881.764,1883.743L883.635,1817.55" style="fill:none;stroke:black;stroke-width:4.17px;"/>
                <path d="M856.096,1463.62C856.096,1463.62 845.943,1505.945 850.752,1607.683" style="fill:none;stroke:black;stroke-width:1.25px;"/>
                <path d="M825.638,1463.62C825.638,1463.62 819.226,1524.002 825.638,1568.887C825.638,1568.887 840.151,1595.07 849.459,1589.192" style="fill:none;stroke:black;stroke-width:1.25px;"/>
                <path d="M973.186,1461.061C973.186,1461.061 975.323,1488.313 981.201,1492.054C981.201,1492.054 1034.521,1503.275 1049.006,1497.931" style="fill:none;stroke:black;stroke-width:1.37px;"/>
                <path d="M762.652,1456.445C762.652,1456.445 754.103,1465.87 754.637,1475.489C754.637,1475.489 735.935,1482.97 727.385,1490.985" style="fill:none;stroke:black;stroke-width:1.37px;"/>
                <path d="M717.163,1596.194C717.163,1596.194 676.111,1658.535 701.558,1680.8C701.558,1680.8 678.376,1761.843 717.163,1787.67" style="fill:none;stroke:black;stroke-width:4.17px;"/>
                <path d="M717.163,1625.138C717.163,1625.138 692.302,1736.016 712.771,1763.179" style="fill:none;stroke:black;stroke-width:4.17px;"/>
                <path d="M1012.927,1607.683C1012.927,1607.683 1049.263,1599.668 1057.278,1602.339" style="fill:none;stroke:black;stroke-width:4.17px;"/>
                <path d="M1012.927,1607.683C1012.927,1607.683 1019.34,1778.948 1023.08,1795.514C1023.08,1795.514 1041.782,1796.049 1049.797,1792.309C1057.813,1788.568 1070.103,1786.431 1075.981,1769.332C1081.858,1752.232 1082.393,1754.904 1083.461,1736.202C1084.53,1717.5 1081.324,1673.683 1079.721,1665.133L1085.599,1660.859C1085.599,1660.859 1095.217,1652.806 1057.278,1601.794" style="fill:none;stroke:black;stroke-width:4.17px;"/>
                <path d="M1019.34,1613.836C1019.34,1613.836 1039.645,1647.84 1041.248,1672.784C1041.248,1672.784 1062.469,1674.675 1080.408,1664.752" style="fill:none;stroke:black;stroke-width:4.17px;"/>
                <path d="M1041.859,1676.584C1041.859,1676.584 1072.393,1801.997 1027.736,1786.619" style="fill:none;stroke:black;stroke-width:4.17px;"/>
            </g>
        </g>
    </g>
</svg>
