<?xml version="1.0" encoding="UTF-8" standalone="no"?>
<svg width="100%" height="100%" viewBox="0 0 360 688" version="1.1" xmlns="http://www.w3.org/2000/svg" xmlns:xlink="http://www.w3.org/1999/xlink" xml:space="preserve" xmlns:serif="http://www.serif.com/" style="fill-rule:evenodd;clip-rule:evenodd;stroke-linecap:round;stroke-linejoin:round;stroke-miterlimit:1.5;">
    <g transform="matrix(1,0,0,1,-715.079551,-1445.063545)">
        <g>
            <g>
                <path d="M729.968,1447.147L724.624,1502.978L720.765,1565.912L719.578,1623.503L717.163,1673.673L717.163,1790.636L721.953,1837.243L724.624,1885.038L727.385,1942.035L731.155,1991.611L732.936,2040.593L737.141,2041.157L738.803,2042.968L749.104,2047.717L766.738,2052.467L784.52,2055.903L827.565,2055.903L848.345,2053.061L878.101,2048.311L881.775,2044.339L885.067,1994.988L883.781,1953.019L883.781,1905.224L881.367,1883.85L883.781,1834.275L888.938,1870.788L891.757,1889.194L897.991,1933.426L904.225,1994.579L909.569,2040.296L913.428,2080.966L912.945,2075.875L928.753,2078.69L953.689,2081.201L974.767,2081.201L1006.086,2082.683L1035.289,2078.69L1051.95,2071.565L1060.712,2068.782L1060.712,2028.718L1057.702,1950.347L1055.624,1896.318L1049.006,1847.633L1049.006,1757.388L1052.952,1693.859L1054.437,1641.612L1056.218,1566.803L1060.712,1490.985L1060.712,1447.147L1036.002,1452.2L999.399,1456.445L960.124,1461.061L907.223,1465.292L868.216,1465.559L833.483,1465.744L812.644,1461.551L772.834,1456.445L747.72,1451.933L729.968,1447.147Z" style="fill:rgb(81,107,174);"/>
                <path d="M732.74,2035.178L728.999,2039.405L731.7,2058.108L732.234,2068.26L731.967,2078.146L739.448,2082.683L755.478,2086.695L778.989,2091.504L797.692,2094.711L823.34,2094.978L843.913,2094.443L871.699,2092.573L881.317,2090.97L885.067,2076.81L885.067,2060.245L890.185,2048.757L885.067,2044.339L882.119,2044.339L874.016,2047.955L861.279,2050.092L840.974,2052.23L808.111,2054.781L787.806,2054.781L767.501,2050.092L752.272,2044.339L737.577,2041.008L732.74,2035.178Z" style="fill:rgb(99,154,207);"/>
                <path d="M911.508,2072.535L906.966,2078.69L909.905,2086.963L913.111,2104.062L914.18,2121.962L920.325,2124.634L935.821,2127.573L960.401,2129.978L980.706,2130.512L1003.149,2130.764L1026.393,2126.504L1042.156,2124.1L1060.712,2120.092L1072.013,2116.886L1069.141,2103.26L1069.408,2086.963L1072.013,2069.893L1065.935,2065.078L1060.712,2064.13L1060.712,2069.893L1049.37,2072.802L1020.515,2078.69L997.806,2082.683L948.913,2082.683L926.737,2078.69L911.508,2072.535Z" style="fill:rgb(99,154,207);"/>
            </g>
            <g>
                <g transform="matrix(0.999809,0.019545,-0.025161,1.287107,32.358058,-426.335229)">
                    <path d="M733.511,1444.53C733.511,1444.53 875.216,1474.741 1064.774,1439.407" style="fill:none;stroke:black;stroke-width:3.61px;"/>
                </g>
                <path d="M1060.712,1447.147C1060.712,1447.147 1047.126,1822.805 1049.798,1848.187C1052.47,1873.568 1058,1856.394 1059.109,2069.007C1059.109,2069.007 996.675,2094.642 912.426,2075.717C912.426,2075.717 894.501,1893.949 890.773,1880.769C887.044,1867.588 866.561,1614.284 866.561,1614.284C866.561,1614.284 845.988,1612.08 802.706,1592.309" style="fill:none;stroke:black;stroke-width:4.17px;"/>
                <path d="M729.383,1447.147C729.383,1447.147 709.284,1657.589 720.639,1830.251C731.994,2002.912 731.556,1944.445 734.495,2039.693C734.495,2039.693 781.733,2068.459 881.905,2046.551C881.905,2046.551 889.112,1907.788 881.764,1883.743L883.635,1817.55" style="fill:none;stroke:black;stroke-width:4.17px;"/>
                <path d="M874.016,1721.724L856.561,1841.952C856.561,1841.952 865.985,1870.455 851.918,2054.781" style="fill:none;stroke:black;stroke-width:1.37px;"/>
                <path d="M733.961,2035.178L728.999,2040.14C728.999,2040.14 734.342,2068.384 731.289,2078.69" style="fill:none;stroke:black;stroke-width:4.17px;"/>
                <path d="M912.116,2069.893L906.438,2078.69C906.438,2078.69 915.122,2099.197 913.786,2123.911C913.786,2123.911 983.659,2142.947 1071.085,2117.565C1071.085,2117.565 1066.336,2101.037 1072.013,2069.893L1060.658,2064.13" style="fill:none;stroke:black;stroke-width:4.17px;"/>
                <path d="M860.835,1465.744C860.835,1465.744 851.354,1536.405 856.163,1608.542" style="fill:none;stroke:black;stroke-width:1.37px;"/>
                <path d="M828.399,1465.744C828.399,1465.744 823.568,1522.511 829.446,1562.053C829.446,1562.053 850.235,1579.687 854.802,1580.221" style="fill:none;stroke:black;stroke-width:1.37px;"/>
                <path d="M973.186,1461.061C973.186,1461.061 975.323,1488.313 981.201,1492.054C981.201,1492.054 1034.521,1503.275 1049.006,1497.931" style="fill:none;stroke:black;stroke-width:1.37px;"/>
                <path d="M762.652,1456.445C762.652,1456.445 754.103,1465.87 754.637,1475.489C754.637,1475.489 735.935,1482.97 727.385,1490.985" style="fill:none;stroke:black;stroke-width:1.37px;"/>
                <path d="M1048.927,1456.445C1048.927,1456.445 1036.904,1807.353 1035.568,1834.07C1034.342,1858.583 1047.735,1913.993 1048.922,2074.207" style="fill:none;stroke:black;stroke-width:1.37px;"/>
                <path d="M731.48,2078.69C731.48,2078.69 780.407,2105.025 881.67,2091.667C881.67,2091.667 883.315,2061.132 890.185,2050.064L885.067,2044.339" style="fill:none;stroke:black;stroke-width:4.17px;"/>
            </g>
        </g>
    </g>
</svg>
