<?xml version="1.0" encoding="UTF-8" standalone="no"?>
<!DOCTYPE svg PUBLIC "-//W3C//DTD SVG 1.1//EN" "http://www.w3.org/Graphics/SVG/1.1/DTD/svg11.dtd">
<svg width="100%" height="100%" viewBox="0 0 398 684" version="1.1" xmlns="http://www.w3.org/2000/svg" xmlns:xlink="http://www.w3.org/1999/xlink" xml:space="preserve" xmlns:serif="http://www.serif.com/" style="fill-rule:evenodd;clip-rule:evenodd;stroke-linejoin:round;stroke-miterlimit:2;">
    <g transform="matrix(1,0,0,1,-691.155564,-1445.063545)">
        <g>
            <g>
                <path d="M730.131,1447.147L724.025,1527.251L720.377,1583.442L718.585,1597.885L713.039,1601.794L705.201,1620.692L693.239,1647.556L693.239,1667.51L700.068,1680.655L698.575,1695.037L695.148,1720.166L696.063,1753.144L705.201,1775.799L717.163,1789.556L719.471,1797.987L720.971,1818.471L724.406,1865.799L723.547,1907.664L723.547,1951.748L723.881,1999.84L726.887,2017.206L733.901,2035.574L736.906,2047.931L739.244,2066.967L739.578,2081.996L750.933,2088.007L763.958,2092.349L781.324,2096.184L818.395,2096.184L840.102,2093.351L861.81,2090.345L877.507,2087.339L877.507,2065.297L878.843,2043.924L883.852,2032.903L886.796,2021.839L886.796,1937.926L882.739,1893.1L881.255,1878.257L883.927,1823.337L889.864,1868.46C889.864,1868.46 892.239,1887.459 892.535,1891.319C892.832,1895.178 896.988,1947.425 896.988,1947.425L900.551,2007.094L900.254,2041.53L905.004,2060.232L914.503,2079.528L916.878,2101.496L917.769,2118.417L940.33,2122.87L965.563,2126.09L989.312,2126.09L1014.842,2122.573L1036.216,2118.714L1060.856,2111.292L1059.668,2092.293L1059.074,2075.075L1065.734,2044.796L1065.734,2016L1060.856,1985.72L1054.028,1928.129L1051.356,1893.397L1049.575,1839.962L1049.872,1809.385L1049.808,1793.117L1069.796,1782.399L1077.806,1766.696L1083.773,1740.751L1081.632,1698.667L1080.281,1666.51L1086.688,1660.418L1083.257,1646.505L1071.967,1622.32L1055.767,1599.931L1056.106,1588.521L1058.481,1514.602L1060.559,1447.147L1048.387,1449.59L1004.452,1457.308L963.782,1462.355L928.089,1463.839L874.016,1465.62L846.225,1464.136L814.461,1461.761L786.259,1457.902L757.761,1453.746L730.131,1447.147Z" style="fill:rgb(29,29,29);"/>
                <clipPath id="_clip1">
                    <path d="M730.131,1447.147L724.025,1527.251L720.377,1583.442L718.585,1597.885L713.039,1601.794L705.201,1620.692L693.239,1647.556L693.239,1667.51L700.068,1680.655L698.575,1695.037L695.148,1720.166L696.063,1753.144L705.201,1775.799L717.163,1789.556L719.471,1797.987L720.971,1818.471L724.406,1865.799L723.547,1907.664L723.547,1951.748L723.881,1999.84L726.887,2017.206L733.901,2035.574L736.906,2047.931L739.244,2066.967L739.578,2081.996L750.933,2088.007L763.958,2092.349L781.324,2096.184L818.395,2096.184L840.102,2093.351L861.81,2090.345L877.507,2087.339L877.507,2065.297L878.843,2043.924L883.852,2032.903L886.796,2021.839L886.796,1937.926L882.739,1893.1L881.255,1878.257L883.927,1823.337L889.864,1868.46C889.864,1868.46 892.239,1887.459 892.535,1891.319C892.832,1895.178 896.988,1947.425 896.988,1947.425L900.551,2007.094L900.254,2041.53L905.004,2060.232L914.503,2079.528L916.878,2101.496L917.769,2118.417L940.33,2122.87L965.563,2126.09L989.312,2126.09L1014.842,2122.573L1036.216,2118.714L1060.856,2111.292L1059.668,2092.293L1059.074,2075.075L1065.734,2044.796L1065.734,2016L1060.856,1985.72L1054.028,1928.129L1051.356,1893.397L1049.575,1839.962L1049.872,1809.385L1049.808,1793.117L1069.796,1782.399L1077.806,1766.696L1083.773,1740.751L1081.632,1698.667L1080.281,1666.51L1086.688,1660.418L1083.257,1646.505L1071.967,1622.32L1055.767,1599.931L1056.106,1588.521L1058.481,1514.602L1060.559,1447.147L1048.387,1449.59L1004.452,1457.308L963.782,1462.355L928.089,1463.839L874.016,1465.62L846.225,1464.136L814.461,1461.761L786.259,1457.902L757.761,1453.746L730.131,1447.147Z"/>
                </clipPath>
                <g clip-path="url(#_clip1)">
                    <g transform="matrix(0.001722,0.056534,-0.056534,0.001722,967.272591,1849.404567)">
                        <g transform="matrix(1,0,0,1,-3643.75,-5168.75)">
                            <g id="Balenciaga-Logo-2017-present.jpg" transform="matrix(6.559246,0,0,6.559246,283.333333,2800)">
                                <path d="M420.896,335.5C420.896,232.572 420.895,232.58 420.903,232.527C421.335,229.788 422.659,229.997 455.499,230.516C459.569,230.58 458.206,232.812 478.785,291.392C490.394,324.437 486.472,327.292 489.468,327.293C491.073,327.293 489.841,318.388 489.785,317.493C488.903,303.406 489.234,232.193 489.507,231.503C490.067,230.089 490.533,230.189 508.499,230.51C510.978,230.555 510.734,232.599 510.736,233.497C510.757,242.62 510.999,346.184 510.632,347.537C510.292,348.787 509.788,348.991 478.495,348.91C475.561,348.902 475.291,348.338 472.687,340.439C461.067,305.19 447.952,273.72 443.321,250.577C443.02,249.073 441.094,248.995 441.292,251.473C441.896,259.052 443.361,277.402 442.632,346.506C442.603,349.279 441.197,349.044 423.487,348.908C419.677,348.879 420.917,341.085 420.896,335.5Z" style="fill:none;stroke:white;stroke-width:2.84px;"/>
                                <path d="M862.5,302.9C858.461,302.742 856.498,304.489 856.476,300.501C856.394,286.027 856.156,284.161 858.438,284.034C859.985,283.948 893.668,283.823 894.641,284.175C895.944,284.646 895.811,285.226 895.801,335.5C895.799,340.728 897.578,342.725 890.398,345.211C879.123,349.114 827.615,361.799 815.729,325.428C812.398,315.234 806.998,265.577 820.797,244.705C837.125,220.009 893.338,220.33 896.055,259.513C896.277,262.712 891.352,261.881 876.5,261.882C872.625,261.882 872.291,261.379 871.552,257.491C868.708,242.532 841.462,238.716 838.341,268.481C838.335,268.538 834.883,309.379 840.825,322.354C848.104,338.249 871.625,331.495 872.364,328.467C872.492,327.941 872.764,304.625 872.192,303.69C871.713,302.908 863.278,302.9 862.5,302.9Z" style="fill:none;stroke:white;stroke-width:2.84px;"/>
                                <path d="M384.826,281.501C384.823,291.732 385.744,296.824 382.532,296.962C368.769,297.552 348.008,295.57 347.347,298.465C347.268,298.809 347.219,327.961 347.378,328.534C348.272,331.75 386.568,328.387 388.487,330.509C388.613,330.649 389.985,348.153 387.601,348.805C387.161,348.925 387.185,348.91 332.5,348.91C329.039,348.91 323.172,349.948 323.128,346.523C322.958,333.398 323.11,242.539 323.126,233.496C323.128,232.018 322.956,230.313 325.488,230.279C330.361,230.215 384.878,229.493 386.402,230.643C387.14,231.199 388.489,248.798 385.458,249.205C380.774,249.833 348.247,247.856 347.414,250.471C347.402,250.51 346.793,276.157 347.781,277.241C349.257,278.86 382.866,276.691 384.47,278.521C384.628,278.701 384.496,278.739 384.826,281.501Z" style="fill:none;stroke:white;stroke-width:2.84px;"/>
                                <path d="M541.086,287.5C541.175,254.116 546.681,228.691 585.498,228.79C625.365,228.891 624.189,263.012 622.621,263.714C621.546,264.196 600.543,263.898 600.386,263.855C597.914,263.181 599.977,248.823 588.413,246.937C567.802,243.577 567.047,266.764 566.875,272.516C565.617,314.704 567.329,331.173 582.534,332.193C601.24,333.448 599.077,317.166 600.277,314.376C601.107,312.445 623.359,313.609 623.428,313.646C624.951,314.46 626.731,349.081 586.5,350.493C537.739,352.205 541.098,304.864 541.086,287.5Z" style="fill:none;stroke:white;stroke-width:2.84px;"/>
                                <path d="M290.5,348.91C236.997,348.91 236.968,348.939 236.395,348.731C235.31,348.337 235.311,341.164 235.311,340.5C235.327,232.306 235.216,232.295 235.523,231.51C236.219,229.732 258.022,230.258 258.874,231.159C260.058,232.41 259.095,321.706 259.408,327.505C259.569,330.497 261.206,329.826 295.498,329.855C299.156,329.858 298.418,333.236 298.319,345.499C298.276,350.732 295.737,348.653 290.5,348.91Z" style="fill:none;stroke:white;stroke-width:2.84px;"/>
                                <path d="M674.071,234.5C674.057,347.519 674.197,347.739 673.465,348.46C673.135,348.785 650.9,350.1 650.183,347.608C650.099,347.318 649.803,232.627 650.337,231.407C650.979,229.944 673.156,229.999 673.745,231.349C673.846,231.581 673.769,231.582 674.071,234.5Z" style="fill:none;stroke:white;stroke-width:2.84px;"/>
                                <path d="M92.904,262.527C91.784,268.297 91.31,282.303 71.613,285.775C65.711,286.815 75.189,288.203 75.558,288.258C98.911,291.679 106.879,341.584 68.546,347.787C54.013,350.139 14.477,348.584 14.455,348.564C13.639,347.846 13.734,347.6 13.734,244.5C13.734,238.883 12.936,230.619 15.503,230.524C19.18,230.389 41.534,229.568 61.495,230.612C87.935,231.996 92.943,244.788 92.904,262.527ZM37.958,274.5C38.316,276.905 37.271,277.959 39.554,278.163C62.68,280.228 66.09,273.327 67.096,271.291C69.487,266.454 71.913,249.77 55.483,248.689C38.462,247.569 38.086,249.03 38.037,250.432C37.969,252.356 38.219,252.273 37.958,274.5ZM37.962,316.5C37.964,324.069 36.866,330.881 40.481,330.915C46.268,330.969 75.963,335.424 70.186,307.579C67.428,294.289 49.322,296.233 40.495,296.31C37.282,296.339 38.165,298.095 37.962,316.5Z" style="fill:none;stroke:white;stroke-width:2.84px;"/>
                                <path d="M983.977,240.355C992.635,273.479 1013.572,347.355 1012.524,348.524C1012.447,348.61 988.94,350.339 987.575,347.461C985.709,343.527 982.187,323.07 979.522,322.403C979.258,322.337 947.481,322.004 946.548,322.602C943.824,324.347 940.421,347.956 937.585,348.777C937.25,348.874 916.162,349.235 915.454,348.555C914.11,347.263 927.689,301.722 939.854,255.589C946.08,231.977 945.603,231.379 947.573,230.696C949.911,229.885 949.995,230.437 978.5,230.506C982.576,230.516 983.005,236.811 983.977,240.355ZM954.082,287.38C950.644,301.769 949.558,303.916 952.45,303.968C975.538,304.382 976.75,304.431 976.587,302.503C976.25,298.523 967.586,268.464 964.707,251.399C963.623,244.969 962.162,254.093 962.112,254.407C961.88,255.853 954.734,284.744 954.082,287.38Z" style="fill:none;stroke:white;stroke-width:2.84px;"/>
                                <path d="M703.896,327.623C729.731,232.807 728.533,231.288 731.526,230.613C732.437,230.408 762.976,230.503 763.491,230.559C765.094,230.735 765.22,231.193 770.122,249.599C796.137,347.281 797.3,348.112 795.635,348.749C794.871,349.042 772.922,348.94 772.412,348.801C769.617,348.043 766.06,323.834 763.454,322.598C762.226,322.016 730.945,322.303 730.481,322.429C727.984,323.111 724.655,341.743 722.441,347.472C721.806,349.116 721.295,349.295 700.453,348.918C696.906,348.853 700.052,342.102 703.896,327.623ZM749.883,260.414C748.05,251.439 748.395,251.391 748.234,250.612C747.371,246.437 746.324,251.449 742.733,266.552C734.197,302.459 733.662,302.714 734.46,303.537C735.808,304.93 756.658,304.033 758.587,303.95C760.915,303.85 760.125,302.304 754.177,277.584C751.149,265.003 750.124,261.383 749.883,260.414Z" style="fill:none;stroke:white;stroke-width:2.84px;"/>
                                <path d="M137.979,341.64C136.544,346.751 137.775,348.869 132.503,348.911C113.684,349.062 111.865,349.153 112.556,346.512C112.609,346.307 132.728,272.445 142.961,234.624C144.544,228.774 146.467,230.503 152.5,230.504C177.015,230.51 178.524,229.699 179.547,233.486C181.944,242.366 209.221,343.423 209.508,344.498C210.277,347.379 211.552,348.814 208.564,348.91C206.793,348.967 189.091,349.536 186.413,348.791C182.904,347.815 180.463,322.788 176.521,322.349C176.044,322.296 145.231,322.208 144.475,322.393C142.829,322.795 142.386,325.033 137.979,341.64ZM150.91,289.598C148.262,301.098 147.146,303.859 149.405,303.96C151.337,304.046 172.161,304.976 173.581,303.587C175.04,302.159 163.162,261.148 161.978,251.139C161.171,244.314 159.484,254.153 159.427,254.484C158.738,258.5 151.616,286.795 150.91,289.598Z" style="fill:none;stroke:white;stroke-width:2.84px;"/>
                            </g>
                        </g>
                    </g>
                </g>
            </g>
            <g>
                <g transform="matrix(0.999809,0.019545,-0.025161,1.287107,32.358058,-426.335229)">
                    <path d="M733.511,1444.53C733.511,1444.53 875.216,1474.741 1064.774,1439.407" style="fill:none;stroke:black;stroke-width:3.61px;stroke-linecap:round;stroke-miterlimit:1.5;"/>
                </g>
                <path d="M1049.93,1795.54C1049.383,1823.467 1049.256,1843.037 1049.798,1848.187C1051.665,1865.919 1047.779,1887.366 1058.94,1968.139C1062.201,1991.747 1068.652,2034.728 1064.242,2053.167C1057.276,2082.294 1059.847,2088.271 1060.89,2111.309C1060.89,2111.309 1002.018,2138.281 917.769,2119.356C917.769,2119.356 918.321,2111.124 914.953,2082.886C914.04,2075.236 899.68,2059.307 900.313,2034.507C901.552,1985.931 892.691,1887.552 890.773,1880.769C887.044,1867.588 866.561,1614.284 866.561,1614.284C866.561,1614.284 845.988,1612.08 802.706,1592.309M1060.712,1447.147C1060.712,1447.147 1058.117,1518.893 1055.419,1601.794" style="fill:none;stroke:black;stroke-width:4.17px;stroke-linecap:round;stroke-miterlimit:1.5;"/>
                <path d="M928.089,2021.839C928.089,2021.839 986.819,2020.974 1030.392,1970.91" style="fill:none;stroke:black;stroke-width:4.17px;stroke-linecap:round;stroke-miterlimit:1.5;"/>
                <path d="M740.532,1970.007C740.532,1970.007 760.837,1981.228 840.99,1924.587" style="fill:none;stroke:black;stroke-width:4.17px;stroke-linecap:round;stroke-miterlimit:1.5;"/>
                <path d="M729.383,1447.147C729.383,1447.147 709.284,1657.589 720.639,1830.251C721.266,1839.785 721.857,1848.615 722.415,1856.805C725.052,1895.536 721.599,1979.417 723.012,1996.375C726.711,2040.767 737.384,2017.772 739.393,2082.886C739.393,2082.886 778.171,2109.426 878.342,2087.517C878.342,2087.517 875.392,2082.916 878.679,2045.053C879.338,2037.458 886.498,2031.783 886.701,2021.839C887.371,1989.004 884.377,1892.292 881.764,1883.743L883.635,1817.55" style="fill:none;stroke:black;stroke-width:4.17px;stroke-linecap:round;stroke-miterlimit:1.5;"/>
                <path d="M856.096,1463.62C856.096,1463.62 845.943,1505.945 850.752,1607.683" style="fill:none;stroke:black;stroke-width:1.25px;stroke-linecap:round;stroke-miterlimit:1.5;"/>
                <path d="M825.638,1463.62C825.638,1463.62 819.226,1524.002 825.638,1568.887C825.638,1568.887 840.151,1595.07 849.459,1589.192" style="fill:none;stroke:black;stroke-width:1.25px;stroke-linecap:round;stroke-miterlimit:1.5;"/>
                <path d="M973.186,1461.061C973.186,1461.061 975.323,1488.313 981.201,1492.054C981.201,1492.054 1034.521,1503.275 1049.006,1497.931" style="fill:none;stroke:black;stroke-width:1.37px;stroke-linecap:round;stroke-miterlimit:1.5;"/>
                <path d="M762.652,1456.445C762.652,1456.445 754.103,1465.87 754.637,1475.489C754.637,1475.489 735.935,1482.97 727.385,1490.985" style="fill:none;stroke:black;stroke-width:1.37px;stroke-linecap:round;stroke-miterlimit:1.5;"/>
                <path d="M717.163,1596.194C717.163,1596.194 676.111,1658.535 701.558,1680.8C701.558,1680.8 678.376,1761.843 717.163,1787.67" style="fill:none;stroke:black;stroke-width:4.17px;stroke-linecap:round;stroke-miterlimit:1.5;"/>
                <path d="M717.163,1625.138C717.163,1625.138 692.302,1736.016 712.771,1763.179" style="fill:none;stroke:black;stroke-width:4.17px;stroke-linecap:round;stroke-miterlimit:1.5;"/>
                <path d="M1012.927,1607.683C1012.927,1607.683 1049.263,1599.668 1057.278,1602.339" style="fill:none;stroke:black;stroke-width:4.17px;stroke-linecap:round;stroke-miterlimit:1.5;"/>
                <path d="M1012.927,1607.683C1012.927,1607.683 1019.34,1778.948 1023.08,1795.514C1023.08,1795.514 1041.782,1796.049 1049.797,1792.309C1057.813,1788.568 1070.103,1786.431 1075.981,1769.332C1081.858,1752.232 1082.393,1754.904 1083.461,1736.202C1084.53,1717.5 1081.324,1673.683 1079.721,1665.133L1085.599,1660.859C1085.599,1660.859 1095.217,1652.806 1057.278,1601.794" style="fill:none;stroke:black;stroke-width:4.17px;stroke-linecap:round;stroke-miterlimit:1.5;"/>
                <path d="M1019.34,1613.836C1019.34,1613.836 1039.645,1647.84 1041.248,1672.784C1041.248,1672.784 1062.469,1674.675 1080.408,1664.752" style="fill:none;stroke:black;stroke-width:4.17px;stroke-linecap:round;stroke-miterlimit:1.5;"/>
                <path d="M1041.859,1676.584C1041.859,1676.584 1072.393,1801.997 1027.736,1786.619" style="fill:none;stroke:black;stroke-width:4.17px;stroke-linecap:round;stroke-miterlimit:1.5;"/>
            </g>
        </g>
    </g>
</svg>
