<?xml version="1.0" encoding="UTF-8" standalone="no"?>
<!DOCTYPE svg PUBLIC "-//W3C//DTD SVG 1.1//EN" "http://www.w3.org/Graphics/SVG/1.1/DTD/svg11.dtd">
<svg width="100%" height="100%" viewBox="0 0 457 742" version="1.1" xmlns="http://www.w3.org/2000/svg" xmlns:xlink="http://www.w3.org/1999/xlink" xml:space="preserve" xmlns:serif="http://www.serif.com/" style="fill-rule:evenodd;clip-rule:evenodd;stroke-linecap:round;stroke-linejoin:round;stroke-miterlimit:1.5;">
    <g transform="matrix(1,0,0,1,-465.003041,-1127.26884)">
        <g>
            <g>
                <path d="M840.794,1129.352L861.166,1212.072L861.834,1220.087L868.18,1362.024L871.364,1394.418L871.364,1438.502L874.016,1536.021L881.873,1559.733C881.873,1559.733 917.423,1652.91 915.344,1668.273L915.344,1758.11L915.053,1817.183C915.053,1817.183 860.64,1840.102 784.049,1823.478L780.317,1822.06L771.963,1771.93L754.185,1705.25L747.061,1668.143L741.717,1632.222L740.233,1597.49L728.655,1569.288L704.906,1498.523C704.906,1498.523 670.73,1370.781 668.726,1363.434L667.19,1358.725L665.32,1365.404C665.32,1365.404 638.335,1538.786 638.632,1545.02C638.632,1545.02 643.382,1577.377 651.991,1603.501C660.6,1629.625 662.084,1646.249 662.975,1662.873C663.865,1679.498 661.49,1699.387 660.6,1711.855C659.709,1724.324 655.256,1762.133 654.96,1771.93C654.663,1781.726 653.958,1790.412 653.661,1794.568L623.27,1807.073C623.27,1807.073 577.82,1818.31 519.042,1797.737L514.901,1782.375L507.153,1705.161L497,1613.787L487.033,1549.398L476.962,1485.009L470.282,1421.422L467.086,1345.811L467.086,1280.353L474.557,1213.025L481.237,1163.331L485.511,1140.391C485.511,1140.391 536.916,1166.804 616.106,1168.006C616.106,1168.006 699.572,1163.865 738.579,1155.048L840.794,1129.352Z" style="fill:rgb(81,107,174);"/>
                <path d="M517.329,1791.383L510.655,1796.628C510.655,1796.628 519.307,1828.689 516.101,1833.177C516.101,1833.177 563.444,1850.53 594.437,1845.234C594.437,1845.234 647.872,1838.601 655.352,1834.861C655.352,1834.861 657.427,1803.601 659.997,1798.525L655.085,1791.383L652.146,1794.784C652.146,1794.784 629.169,1806.836 597.108,1808.425C597.108,1808.425 559.971,1808.945 542.605,1803.601C542.605,1803.601 520.696,1800.128 518.292,1798.525L517.329,1791.383Z" style="fill:rgb(99,154,207);"/>
                <path d="M779.054,1814.427L771.963,1818.811C771.963,1818.811 779.322,1850.424 777.718,1856.034C777.718,1856.034 803.367,1867.698 831.688,1866.408C831.688,1866.408 904.359,1864.049 914.245,1858.973C914.245,1858.973 918.074,1822.465 919.766,1818.811L914.779,1814.427L912.642,1818.308C912.642,1818.308 873.367,1831.454 841.573,1829.05C841.573,1829.05 783.062,1825.844 780.39,1822.103L779.054,1814.427Z" style="fill:rgb(99,154,207);"/>
            </g>
            <g>
                <path d="M485.862,1140.391C485.862,1140.391 441.333,1329.417 489.425,1557.184C489.425,1557.184 492.853,1582.12 495.97,1605.721C495.97,1605.721 507.459,1710.676 510.131,1730.447C510.131,1730.447 517.211,1784.96 517.593,1798.318C517.593,1798.318 594.692,1822.746 652.325,1795.647C652.325,1795.647 659.405,1713.129 662.611,1696.03C662.611,1696.03 667.955,1653.816 652.993,1606.793C652.993,1606.793 640.703,1566.717 638.031,1545.878C638.031,1545.878 658.871,1386.107 666.352,1363.13" style="fill:none;stroke:black;stroke-width:4.17px;"/>
                <path d="M596.218,1295.668C596.218,1295.668 645.913,1314.905 656.6,1317.042C656.6,1317.042 711.771,1541.803 739.825,1597.91C739.825,1597.91 740.493,1648.339 753.851,1707.652C753.851,1707.652 778.966,1777.27 780.034,1822.155C780.034,1822.155 842.553,1842.461 912.553,1817.346C912.553,1817.346 915.626,1713.329 914.958,1668.577C914.958,1668.577 910.95,1637.518 893.316,1588.893C893.316,1588.893 875.961,1547.213 875.02,1534.389C875.02,1534.389 871.814,1400.267 869.207,1377.29C869.207,1377.29 861.79,1230.879 861.256,1213.245C861.256,1213.245 843.622,1135.23 840.416,1129.352C840.416,1129.352 776.917,1156.47 634.87,1168.048C634.87,1168.048 532.007,1167.505 487.033,1140.391" style="fill:none;stroke:black;stroke-width:4.17px;"/>
                <path d="M634.87,1168.048C634.87,1168.048 635.629,1275.043 641.573,1312.429" style="fill:none;stroke:black;stroke-width:2.08px;"/>
                <path d="M638.221,1277.426L611.447,1265.211C611.447,1265.211 599.424,1189.333 602.987,1168.048" style="fill:none;stroke:black;stroke-width:2.08px;"/>
                <path d="M777.096,1147.654C777.096,1147.654 785.556,1181.941 789.564,1183.722C789.564,1183.722 847.006,1189.066 851.014,1183.277" style="fill:none;stroke:black;stroke-width:2.08px;"/>
                <path d="M518.203,1153.442C518.203,1153.442 509.743,1184.211 505.29,1185.97C505.29,1185.97 485.697,1187.773 479.018,1185.97" style="fill:none;stroke:black;stroke-width:2.08px;"/>
                <path d="M655.798,1325.993C655.798,1325.993 624.826,1486.298 620.274,1541.514C620.274,1541.514 645.158,1616.323 641.573,1701.818C641.573,1701.818 640.637,1790.387 639.557,1801.074" style="fill:none;stroke:black;stroke-width:2.08px;"/>
                <path d="M833.692,1131.905C833.692,1131.905 849.099,1198.595 851.014,1213.557C851.014,1213.557 864.684,1498.125 867.356,1529.357C867.356,1529.357 898.749,1643.815 905.161,1671.067C905.161,1671.067 907.986,1796.477 908.654,1817.183" style="fill:none;stroke:black;stroke-width:2.08px;"/>
                <path d="M778.197,1814.705L771.963,1820.048C771.963,1820.048 779.385,1849.734 777.307,1856.562C777.307,1856.562 819.452,1877.258 915.053,1858.64C915.053,1858.64 917.095,1827.451 919.766,1820.438L915.053,1814.427" style="fill:none;stroke:black;stroke-width:4.17px;"/>
                <path d="M514.997,1791.383L510.655,1797.06C510.655,1797.06 518.002,1824.682 515.331,1833.915C515.331,1833.915 581.81,1859.011 655.798,1834.465C655.798,1834.465 655.474,1816.788 659.997,1797.704L655.798,1792.361" style="fill:none;stroke:black;stroke-width:4.17px;"/>
            </g>
        </g>
    </g>
</svg>
