<?xml version="1.0" encoding="UTF-8" standalone="no"?>
<svg width="100%" height="100%" viewBox="0 0 453 743" version="1.1" xmlns="http://www.w3.org/2000/svg" xmlns:xlink="http://www.w3.org/1999/xlink" xml:space="preserve" xmlns:serif="http://www.serif.com/" style="fill-rule:evenodd;clip-rule:evenodd;stroke-linecap:round;stroke-linejoin:round;stroke-miterlimit:1.5;">
    <g transform="matrix(1,0,0,1,-465.003041,-1127.26884)">
        <g>
            <path d="M840.794,1129.352L861.166,1212.072L861.834,1220.087L868.18,1362.024L871.364,1394.418L871.364,1438.502L874.016,1536.021L881.873,1559.733C881.873,1559.733 917.423,1652.91 915.344,1668.273L915.344,1855.35C915.344,1855.35 859.571,1877.133 782.981,1860.508L780.012,1832.604L769.622,1775.903L754.185,1705.25L747.061,1668.143L741.717,1632.222L740.233,1597.49L728.655,1569.288L704.906,1498.523C704.906,1498.523 670.73,1370.781 668.726,1363.434L667.19,1358.725L665.32,1365.404C665.32,1365.404 638.335,1538.786 638.632,1545.02C638.632,1545.02 643.382,1577.377 651.991,1603.501C660.6,1629.625 662.084,1646.249 662.975,1662.873C663.865,1679.498 661.49,1699.387 660.6,1711.855C659.709,1724.324 657.928,1758.463 657.631,1768.259C657.334,1778.055 654.96,1826.147 654.663,1830.303L641.304,1837.131C641.304,1837.131 578.488,1855.046 519.71,1834.474L514.901,1782.375L507.153,1705.161L497,1613.787L487.033,1549.398L476.962,1485.009L470.282,1421.422L467.086,1345.811L467.086,1280.353L474.557,1213.025L481.237,1163.331L485.511,1140.391C485.511,1140.391 536.916,1166.804 616.106,1168.006C616.106,1168.006 699.572,1163.865 738.579,1155.048L840.794,1129.352Z" style="fill:rgb(212,190,136);"/>
            <g>
                <path d="M485.862,1140.391C485.862,1140.391 441.333,1329.417 489.425,1557.184C489.425,1557.184 492.853,1582.12 495.97,1605.721C495.97,1605.721 507.459,1710.676 510.131,1730.447C510.131,1730.447 519.215,1821.362 519.596,1834.721C519.596,1834.721 596.695,1859.148 654.329,1832.049C654.329,1832.049 659.405,1713.129 662.611,1696.03C662.611,1696.03 667.955,1653.816 652.993,1606.793C652.993,1606.793 640.703,1566.717 638.031,1545.878C638.031,1545.878 658.871,1386.107 666.352,1363.13" style="fill:none;stroke:black;stroke-width:4.17px;"/>
                <path d="M596.218,1295.668C596.218,1295.668 645.913,1314.905 656.6,1317.042C656.6,1317.042 711.771,1541.803 739.825,1597.91C739.825,1597.91 740.493,1648.339 753.851,1707.652C753.851,1707.652 781.637,1815.056 782.706,1859.941C782.706,1859.941 845.225,1880.247 915.225,1855.132C915.225,1855.132 915.626,1713.329 914.958,1668.577C914.958,1668.577 910.95,1637.518 893.316,1588.893C893.316,1588.893 875.961,1547.213 875.02,1534.389C875.02,1534.389 871.814,1400.267 869.207,1377.29C869.207,1377.29 861.79,1230.879 861.256,1213.245C861.256,1213.245 843.622,1135.23 840.416,1129.352C840.416,1129.352 776.917,1156.47 634.87,1168.048C634.87,1168.048 532.007,1167.505 487.033,1140.391" style="fill:none;stroke:black;stroke-width:4.17px;"/>
                <path d="M634.87,1168.048C634.87,1168.048 635.629,1275.043 641.573,1312.429" style="fill:none;stroke:black;stroke-width:2.08px;"/>
                <path d="M638.221,1277.426L611.447,1265.211C611.447,1265.211 599.424,1189.333 602.987,1168.048" style="fill:none;stroke:black;stroke-width:2.08px;"/>
                <path d="M777.096,1147.654C777.096,1147.654 785.556,1181.941 789.564,1183.722C789.564,1183.722 847.006,1189.066 851.014,1183.277" style="fill:none;stroke:black;stroke-width:2.08px;"/>
                <path d="M518.203,1153.442C518.203,1153.442 509.743,1184.211 505.29,1185.97C505.29,1185.97 485.697,1187.773 479.018,1185.97" style="fill:none;stroke:black;stroke-width:2.08px;"/>
                <path d="M655.798,1325.993C655.798,1325.993 624.826,1486.298 620.274,1541.514C620.274,1541.514 645.158,1616.323 641.573,1701.818C641.573,1701.818 639.302,1825.788 638.221,1836.475" style="fill:none;stroke:black;stroke-width:2.08px;"/>
                <path d="M833.692,1131.905C833.692,1131.905 849.099,1198.595 851.014,1213.557C851.014,1213.557 864.684,1498.125 867.356,1529.357C867.356,1529.357 898.749,1643.815 905.161,1671.067C905.161,1671.067 908.367,1834.644 909.035,1855.35" style="fill:none;stroke:black;stroke-width:2.08px;"/>
                <path d="M753.808,1240.157C753.808,1240.157 781.862,1478.686 796.556,1546.816C796.556,1546.816 829.416,1759.219 833.692,1804.639" style="fill:none;stroke:black;stroke-width:2.08px;"/>
                <path d="M520.03,1240.157C520.03,1240.157 499.992,1425.251 513.351,1533.457C513.351,1533.457 536.061,1752.54 534.725,1784.601" style="fill:none;stroke:black;stroke-width:2.08px;"/>
                <path d="M782.307,1831.802C782.307,1831.802 847.555,1848.278 915.344,1826.458" style="fill:none;stroke:black;stroke-width:2.08px;"/>
                <path d="M518.249,1804.639C518.249,1804.639 556.544,1823.787 655.844,1804.639" style="fill:none;stroke:black;stroke-width:2.08px;"/>
            </g>
        </g>
    </g>
</svg>
