<?xml version="1.0" encoding="UTF-8" standalone="no"?>
<!DOCTYPE svg PUBLIC "-//W3C//DTD SVG 1.1//EN" "http://www.w3.org/Graphics/SVG/1.1/DTD/svg11.dtd">
<svg width="100%" height="100%" viewBox="0 0 485 747" version="1.1" xmlns="http://www.w3.org/2000/svg" xmlns:xlink="http://www.w3.org/1999/xlink" xml:space="preserve" xmlns:serif="http://www.serif.com/" style="fill-rule:evenodd;clip-rule:evenodd;stroke-linejoin:round;stroke-miterlimit:2;">
    <g transform="matrix(1,0,0,1,-440.611835,-1127.26884)">
        <g>
            <path d="M840.794,1129.352L861.166,1212.072L861.834,1220.087L865.035,1284.785L878.721,1309.821L887.86,1342.6L883.74,1350.054L889.976,1381.989L891.702,1411.817L888.581,1438.651L879.676,1462.251L872.055,1463.919L874.016,1536.021L881.873,1559.733C881.873,1559.733 917.423,1652.91 915.344,1668.273L918.016,1754.845L923.002,1804.159L913.319,1815.752L911.787,1859.337C911.787,1859.337 860.258,1881.323 783.668,1864.699L780.317,1822.06C780.317,1822.06 768.935,1813.137 768.142,1808.379C766.75,1800.024 768.995,1771.039 768.995,1771.039L763.16,1737.108L753.888,1707.625L747.061,1668.143L741.717,1632.222L740.233,1597.49L728.655,1569.288L704.906,1498.523C704.906,1498.523 670.73,1370.781 668.726,1363.434L667.19,1358.725L665.32,1365.404C665.32,1365.404 638.335,1538.786 638.632,1545.02C638.632,1545.02 643.382,1577.377 651.991,1603.501C660.6,1629.625 662.084,1646.249 662.975,1662.873C663.865,1679.498 663.094,1698.586 662.203,1711.054C661.312,1723.522 667.392,1769.347 667.095,1779.143C666.997,1782.385 653.321,1789.674 652.722,1798.127C651.512,1815.22 650.854,1829.86 650.655,1832.641L629.284,1840.916C629.284,1840.916 583.758,1853.636 523.198,1837.517L520.244,1801.878L515.285,1791.782C515.285,1791.782 506.915,1782.751 506.604,1779.438C506.135,1774.436 508.329,1772.963 509.895,1761.545C513.286,1736.812 507.153,1705.161 507.153,1705.161L497,1613.787L487.033,1549.398L476.962,1485.009L474.187,1472.886L464.018,1466.372L454.891,1451.773L445.726,1422.919L445.726,1387.369L447.467,1374.429L442.695,1368.92L442.695,1357.725L445.726,1341.001L454.891,1314.285L467.086,1288.793L467.086,1280.353L474.557,1213.025L481.237,1163.331L485.511,1140.391C485.511,1140.391 536.916,1166.804 616.106,1168.006C616.106,1168.006 699.572,1163.865 738.579,1155.048L840.794,1129.352Z" style="fill:rgb(29,29,29);"/>
            <clipPath id="_clip1">
                <path d="M840.794,1129.352L861.166,1212.072L861.834,1220.087L865.035,1284.785L878.721,1309.821L887.86,1342.6L883.74,1350.054L889.976,1381.989L891.702,1411.817L888.581,1438.651L879.676,1462.251L872.055,1463.919L874.016,1536.021L881.873,1559.733C881.873,1559.733 917.423,1652.91 915.344,1668.273L918.016,1754.845L923.002,1804.159L913.319,1815.752L911.787,1859.337C911.787,1859.337 860.258,1881.323 783.668,1864.699L780.317,1822.06C780.317,1822.06 768.935,1813.137 768.142,1808.379C766.75,1800.024 768.995,1771.039 768.995,1771.039L763.16,1737.108L753.888,1707.625L747.061,1668.143L741.717,1632.222L740.233,1597.49L728.655,1569.288L704.906,1498.523C704.906,1498.523 670.73,1370.781 668.726,1363.434L667.19,1358.725L665.32,1365.404C665.32,1365.404 638.335,1538.786 638.632,1545.02C638.632,1545.02 643.382,1577.377 651.991,1603.501C660.6,1629.625 662.084,1646.249 662.975,1662.873C663.865,1679.498 663.094,1698.586 662.203,1711.054C661.312,1723.522 667.392,1769.347 667.095,1779.143C666.997,1782.385 653.321,1789.674 652.722,1798.127C651.512,1815.22 650.854,1829.86 650.655,1832.641L629.284,1840.916C629.284,1840.916 583.758,1853.636 523.198,1837.517L520.244,1801.878L515.285,1791.782C515.285,1791.782 506.915,1782.751 506.604,1779.438C506.135,1774.436 508.329,1772.963 509.895,1761.545C513.286,1736.812 507.153,1705.161 507.153,1705.161L497,1613.787L487.033,1549.398L476.962,1485.009L474.187,1472.886L464.018,1466.372L454.891,1451.773L445.726,1422.919L445.726,1387.369L447.467,1374.429L442.695,1368.92L442.695,1357.725L445.726,1341.001L454.891,1314.285L467.086,1288.793L467.086,1280.353L474.557,1213.025L481.237,1163.331L485.511,1140.391C485.511,1140.391 536.916,1166.804 616.106,1168.006C616.106,1168.006 699.572,1163.865 738.579,1155.048L840.794,1129.352Z"/>
            </clipPath>
            <g clip-path="url(#_clip1)">
                <g transform="matrix(0.007833,0.058582,-0.058582,0.007833,780.623844,1591.289959)">
                    <g transform="matrix(1,0,0,1,-3643.75,-5168.75)">
                        <g id="Balenciaga-Logo-2017-present.jpg" transform="matrix(6.559246,0,0,6.559246,283.333333,2800)">
                            <path d="M420.896,335.5C420.896,232.572 420.895,232.58 420.903,232.527C421.335,229.788 422.659,229.997 455.499,230.516C459.569,230.58 458.206,232.812 478.785,291.392C490.394,324.437 486.472,327.292 489.468,327.293C491.073,327.293 489.841,318.388 489.785,317.493C488.903,303.406 489.234,232.193 489.507,231.503C490.067,230.089 490.533,230.189 508.499,230.51C510.978,230.555 510.734,232.599 510.736,233.497C510.757,242.62 510.999,346.184 510.632,347.537C510.292,348.787 509.788,348.991 478.495,348.91C475.561,348.902 475.291,348.338 472.687,340.439C461.067,305.19 447.952,273.72 443.321,250.577C443.02,249.073 441.094,248.995 441.292,251.473C441.896,259.052 443.361,277.402 442.632,346.506C442.603,349.279 441.197,349.044 423.487,348.908C419.677,348.879 420.917,341.085 420.896,335.5Z" style="fill:none;stroke:white;stroke-width:1.91px;"/>
                            <path d="M862.5,302.9C858.461,302.742 856.498,304.489 856.476,300.501C856.394,286.027 856.156,284.161 858.438,284.034C859.985,283.948 893.668,283.823 894.641,284.175C895.944,284.646 895.811,285.226 895.801,335.5C895.799,340.728 897.578,342.725 890.398,345.211C879.123,349.114 827.615,361.799 815.729,325.428C812.398,315.234 806.998,265.577 820.797,244.705C837.125,220.009 893.338,220.33 896.055,259.513C896.277,262.712 891.352,261.881 876.5,261.882C872.625,261.882 872.291,261.379 871.552,257.491C868.708,242.532 841.462,238.716 838.341,268.481C838.335,268.538 834.883,309.379 840.825,322.354C848.104,338.249 871.625,331.495 872.364,328.467C872.492,327.941 872.764,304.625 872.192,303.69C871.713,302.908 863.278,302.9 862.5,302.9Z" style="fill:none;stroke:white;stroke-width:1.91px;"/>
                            <path d="M384.826,281.501C384.823,291.732 385.744,296.824 382.532,296.962C368.769,297.552 348.008,295.57 347.347,298.465C347.268,298.809 347.219,327.961 347.378,328.534C348.272,331.75 386.568,328.387 388.487,330.509C388.613,330.649 389.985,348.153 387.601,348.805C387.161,348.925 387.185,348.91 332.5,348.91C329.039,348.91 323.172,349.948 323.128,346.523C322.958,333.398 323.11,242.539 323.126,233.496C323.128,232.018 322.956,230.313 325.488,230.279C330.361,230.215 384.878,229.493 386.402,230.643C387.14,231.199 388.489,248.798 385.458,249.205C380.774,249.833 348.247,247.856 347.414,250.471C347.402,250.51 346.793,276.157 347.781,277.241C349.257,278.86 382.866,276.691 384.47,278.521C384.628,278.701 384.496,278.739 384.826,281.501Z" style="fill:none;stroke:white;stroke-width:1.91px;"/>
                            <path d="M541.086,287.5C541.175,254.116 546.681,228.691 585.498,228.79C625.365,228.891 624.189,263.012 622.621,263.714C621.546,264.196 600.543,263.898 600.386,263.855C597.914,263.181 599.977,248.823 588.413,246.937C567.802,243.577 567.047,266.764 566.875,272.516C565.617,314.704 567.329,331.173 582.534,332.193C601.24,333.448 599.077,317.166 600.277,314.376C601.107,312.445 623.359,313.609 623.428,313.646C624.951,314.46 626.731,349.081 586.5,350.493C537.739,352.205 541.098,304.864 541.086,287.5Z" style="fill:none;stroke:white;stroke-width:1.91px;"/>
                            <path d="M290.5,348.91C236.997,348.91 236.968,348.939 236.395,348.731C235.31,348.337 235.311,341.164 235.311,340.5C235.327,232.306 235.216,232.295 235.523,231.51C236.219,229.732 258.022,230.258 258.874,231.159C260.058,232.41 259.095,321.706 259.408,327.505C259.569,330.497 261.206,329.826 295.498,329.855C299.156,329.858 298.418,333.236 298.319,345.499C298.276,350.732 295.737,348.653 290.5,348.91Z" style="fill:none;stroke:white;stroke-width:1.91px;"/>
                            <path d="M674.071,234.5C674.057,347.519 674.197,347.739 673.465,348.46C673.135,348.785 650.9,350.1 650.183,347.608C650.099,347.318 649.803,232.627 650.337,231.407C650.979,229.944 673.156,229.999 673.745,231.349C673.846,231.581 673.769,231.582 674.071,234.5Z" style="fill:none;stroke:white;stroke-width:1.91px;"/>
                            <path d="M92.904,262.527C91.784,268.297 91.31,282.303 71.613,285.775C65.711,286.815 75.189,288.203 75.558,288.258C98.911,291.679 106.879,341.584 68.546,347.787C54.013,350.139 14.477,348.584 14.455,348.564C13.639,347.846 13.734,347.6 13.734,244.5C13.734,238.883 12.936,230.619 15.503,230.524C19.18,230.389 41.534,229.568 61.495,230.612C87.935,231.996 92.943,244.788 92.904,262.527ZM37.958,274.5C38.316,276.905 37.271,277.959 39.554,278.163C62.68,280.228 66.09,273.327 67.096,271.291C69.487,266.454 71.913,249.77 55.483,248.689C38.462,247.569 38.086,249.03 38.037,250.432C37.969,252.356 38.219,252.273 37.958,274.5ZM37.962,316.5C37.964,324.069 36.866,330.881 40.481,330.915C46.268,330.969 75.963,335.424 70.186,307.579C67.428,294.289 49.322,296.233 40.495,296.31C37.282,296.339 38.165,298.095 37.962,316.5Z" style="fill:none;stroke:white;stroke-width:1.91px;"/>
                            <path d="M983.977,240.355C992.635,273.479 1013.572,347.355 1012.524,348.524C1012.447,348.61 988.94,350.339 987.575,347.461C985.709,343.527 982.187,323.07 979.522,322.403C979.258,322.337 947.481,322.004 946.548,322.602C943.824,324.347 940.421,347.956 937.585,348.777C937.25,348.874 916.162,349.235 915.454,348.555C914.11,347.263 927.689,301.722 939.854,255.589C946.08,231.977 945.603,231.379 947.573,230.696C949.911,229.885 949.995,230.437 978.5,230.506C982.576,230.516 983.005,236.811 983.977,240.355ZM954.082,287.38C950.644,301.769 949.558,303.916 952.45,303.968C975.538,304.382 976.75,304.431 976.587,302.503C976.25,298.523 967.586,268.464 964.707,251.399C963.623,244.969 962.162,254.093 962.112,254.407C961.88,255.853 954.734,284.744 954.082,287.38Z" style="fill:none;stroke:white;stroke-width:1.91px;"/>
                            <path d="M703.896,327.623C729.731,232.807 728.533,231.288 731.526,230.613C732.437,230.408 762.976,230.503 763.491,230.559C765.094,230.735 765.22,231.193 770.122,249.599C796.137,347.281 797.3,348.112 795.635,348.749C794.871,349.042 772.922,348.94 772.412,348.801C769.617,348.043 766.06,323.834 763.454,322.598C762.226,322.016 730.945,322.303 730.481,322.429C727.984,323.111 724.655,341.743 722.441,347.472C721.806,349.116 721.295,349.295 700.453,348.918C696.906,348.853 700.052,342.102 703.896,327.623ZM749.883,260.414C748.05,251.439 748.395,251.391 748.234,250.612C747.371,246.437 746.324,251.449 742.733,266.552C734.197,302.459 733.662,302.714 734.46,303.537C735.808,304.93 756.658,304.033 758.587,303.95C760.915,303.85 760.125,302.304 754.177,277.584C751.149,265.003 750.124,261.383 749.883,260.414Z" style="fill:none;stroke:white;stroke-width:1.91px;"/>
                            <path d="M137.979,341.64C136.544,346.751 137.775,348.869 132.503,348.911C113.684,349.062 111.865,349.153 112.556,346.512C112.609,346.307 132.728,272.445 142.961,234.624C144.544,228.774 146.467,230.503 152.5,230.504C177.015,230.51 178.524,229.699 179.547,233.486C181.944,242.366 209.221,343.423 209.508,344.498C210.277,347.379 211.552,348.814 208.564,348.91C206.793,348.967 189.091,349.536 186.413,348.791C182.904,347.815 180.463,322.788 176.521,322.349C176.044,322.296 145.231,322.208 144.475,322.393C142.829,322.795 142.386,325.033 137.979,341.64ZM150.91,289.598C148.262,301.098 147.146,303.859 149.405,303.96C151.337,304.046 172.161,304.976 173.581,303.587C175.04,302.159 163.162,261.148 161.978,251.139C161.171,244.314 159.484,254.153 159.427,254.484C158.738,258.5 151.616,286.795 150.91,289.598Z" style="fill:none;stroke:white;stroke-width:1.91px;"/>
                        </g>
                    </g>
                </g>
            </g>
            <g>
                <path d="M485.862,1140.391C485.862,1140.391 441.333,1329.417 489.425,1557.184C489.425,1557.184 492.853,1582.12 495.97,1605.721C495.97,1605.721 507.459,1710.676 510.131,1730.447C510.131,1730.447 515.061,1744.002 506.71,1776.104C504.678,1783.915 520.35,1794.416 520.809,1802.181C521.175,1808.362 521.514,1814.205 521.8,1819.324C522.262,1827.575 522.587,1833.941 522.669,1836.792C522.669,1836.792 593.356,1858.814 650.989,1831.715C650.989,1831.715 652.136,1815.558 653.744,1794.311C654.151,1788.935 667.821,1782.756 667.065,1776.94C660.777,1728.589 660.888,1705.22 662.611,1696.03C662.611,1696.03 667.955,1653.816 652.993,1606.793C652.993,1606.793 640.703,1566.717 638.031,1545.878C638.031,1545.878 658.871,1386.107 666.352,1363.13" style="fill:none;stroke:black;stroke-width:4.17px;stroke-linecap:round;stroke-miterlimit:1.5;"/>
                <path d="M864.785,1288.793C863.086,1254.282 861.493,1221.073 861.256,1213.245C861.256,1213.245 843.622,1135.23 840.416,1129.352C840.416,1129.352 776.917,1156.47 634.87,1168.048C634.87,1168.048 532.007,1167.505 487.033,1140.391M596.218,1295.668C596.218,1295.668 645.913,1314.905 656.6,1317.042C656.6,1317.042 711.771,1541.803 739.825,1597.91C739.825,1597.91 740.493,1648.339 753.851,1707.652C753.851,1707.652 774.859,1758.068 767.602,1805.689C766.443,1813.29 777.968,1816.258 779.002,1823.478C781.209,1838.898 782.743,1852.963 782.992,1863.424C782.992,1863.424 842.172,1884.063 912.171,1858.949C912.171,1858.949 912.546,1843.147 913.025,1820.355C913.147,1814.531 923.832,1807.429 922.95,1800.898C916.232,1751.171 915.349,1694.821 914.958,1668.577C914.958,1668.577 910.95,1637.518 893.316,1588.893C893.316,1588.893 875.961,1547.213 875.02,1534.389C875.02,1534.389 874.197,1499.955 873.046,1462.993" style="fill:none;stroke:black;stroke-width:4.17px;stroke-linecap:round;stroke-miterlimit:1.5;"/>
                <path d="M527.535,1757.347C527.535,1757.347 542.152,1766.03 605.645,1715.267" style="fill:none;stroke:black;stroke-width:4.17px;stroke-linecap:round;stroke-miterlimit:1.5;"/>
                <path d="M791.37,1750C791.37,1750 845.473,1804.103 890.892,1783.397" style="fill:none;stroke:black;stroke-width:4.17px;stroke-linecap:round;stroke-miterlimit:1.5;"/>
                <path d="M779.347,1821.135C779.347,1821.135 827.884,1849.188 890.892,1826.033" style="fill:none;stroke:black;stroke-width:4.17px;stroke-linecap:round;stroke-miterlimit:1.5;"/>
                <path d="M654.665,1788.118C654.665,1788.118 617.261,1818.018 551.358,1808.667" style="fill:none;stroke:black;stroke-width:4.17px;stroke-linecap:round;stroke-miterlimit:1.5;"/>
                <path d="M777.096,1147.654C777.096,1147.654 785.556,1181.941 789.564,1183.722C789.564,1183.722 847.006,1189.066 851.014,1183.277" style="fill:none;stroke:black;stroke-width:2.08px;stroke-linecap:round;stroke-miterlimit:1.5;"/>
                <path d="M518.203,1153.442C518.203,1153.442 509.743,1184.211 505.29,1185.97C505.29,1185.97 485.697,1187.773 479.018,1185.97" style="fill:none;stroke:black;stroke-width:2.08px;stroke-linecap:round;stroke-miterlimit:1.5;"/>
                <path d="M641.759,1167.565C641.759,1167.565 637.485,1282.985 642.828,1310.771" style="fill:none;stroke:black;stroke-width:4.17px;stroke-linecap:round;stroke-miterlimit:1.5;"/>
                <path d="M864.812,1288.793C864.812,1288.793 816.53,1294.327 798.591,1305.777C798.591,1305.777 809.151,1430.682 821.174,1471.203C821.174,1471.203 877.876,1467.641 880.25,1460.071C880.25,1460.071 903.33,1428.789 883.96,1349.193" style="fill:none;stroke:black;stroke-width:4.17px;stroke-linecap:round;stroke-miterlimit:1.5;"/>
                <path d="M474.187,1470.71C474.187,1470.71 423.424,1463.85 457.488,1324.888" style="fill:none;stroke:black;stroke-width:4.17px;stroke-linecap:round;stroke-miterlimit:1.5;"/>
                <path d="M467.086,1288.793C467.086,1288.793 432.45,1356.986 445.726,1372.126" style="fill:none;stroke:black;stroke-width:4.17px;stroke-linecap:round;stroke-miterlimit:1.5;"/>
                <path d="M831.723,1364.992C831.723,1364.992 858.34,1454.997 827.869,1470.71" style="fill:none;stroke:black;stroke-width:4.17px;stroke-linecap:round;stroke-miterlimit:1.5;"/>
                <path d="M803.95,1307.384C803.95,1307.384 824.835,1340.24 827.561,1363.697C827.561,1363.697 836.724,1366.902 845.146,1363.228C845.146,1363.228 881.956,1351.539 885.296,1347.531C885.296,1347.531 889.303,1345.671 887.299,1337.751C887.299,1337.751 883.96,1316.218 865.257,1284.785" style="fill:none;stroke:black;stroke-width:4.17px;stroke-linecap:round;stroke-miterlimit:1.5;"/>
                <path d="M640.141,1268.023L609.164,1253.061C609.164,1253.061 608.095,1181.993 611.302,1167.565" style="fill:none;stroke:black;stroke-width:4.17px;stroke-linecap:round;stroke-miterlimit:1.5;"/>
            </g>
        </g>
    </g>
</svg>
