<?xml version="1.0" encoding="UTF-8" standalone="no"?>
<!DOCTYPE svg PUBLIC "-//W3C//DTD SVG 1.1//EN" "http://www.w3.org/Graphics/SVG/1.1/DTD/svg11.dtd">
<svg width="100%" height="100%" viewBox="0 0 485 747" version="1.1" xmlns="http://www.w3.org/2000/svg" xmlns:xlink="http://www.w3.org/1999/xlink" xml:space="preserve" xmlns:serif="http://www.serif.com/" style="fill-rule:evenodd;clip-rule:evenodd;stroke-linecap:round;stroke-linejoin:round;stroke-miterlimit:1.5;">
    <g transform="matrix(1,0,0,1,-440.611835,-1127.26884)">
        <g>
            <path d="M840.794,1129.352L861.166,1212.072L861.834,1220.087L865.035,1284.785L878.721,1309.821L887.86,1342.6L883.74,1350.054L889.976,1381.989L891.702,1411.817L888.581,1438.651L879.676,1462.251L872.055,1463.919L874.016,1536.021L881.873,1559.733C881.873,1559.733 917.423,1652.91 915.344,1668.273L918.016,1754.845L923.002,1804.159L913.319,1815.752L911.787,1859.337C911.787,1859.337 860.258,1881.323 783.668,1864.699L780.317,1822.06C780.317,1822.06 768.935,1813.137 768.142,1808.379C766.75,1800.024 768.995,1771.039 768.995,1771.039L763.16,1737.108L753.888,1707.625L747.061,1668.143L741.717,1632.222L740.233,1597.49L728.655,1569.288L704.906,1498.523C704.906,1498.523 670.73,1370.781 668.726,1363.434L667.19,1358.725L665.32,1365.404C665.32,1365.404 638.335,1538.786 638.632,1545.02C638.632,1545.02 643.382,1577.377 651.991,1603.501C660.6,1629.625 662.084,1646.249 662.975,1662.873C663.865,1679.498 663.094,1698.586 662.203,1711.054C661.312,1723.522 667.392,1769.347 667.095,1779.143C666.997,1782.385 653.321,1789.674 652.722,1798.127C651.512,1815.22 650.854,1829.86 650.655,1832.641L629.284,1840.916C629.284,1840.916 583.758,1853.636 523.198,1837.517L520.244,1801.878L515.285,1791.782C515.285,1791.782 506.915,1782.751 506.604,1779.438C506.135,1774.436 508.329,1772.963 509.895,1761.545C513.286,1736.812 507.153,1705.161 507.153,1705.161L497,1613.787L487.033,1549.398L476.962,1485.009L474.187,1472.886L464.018,1466.372L454.891,1451.773L445.726,1422.919L445.726,1387.369L447.467,1374.429L442.695,1368.92L442.695,1357.725L445.726,1341.001L454.891,1314.285L467.086,1288.793L467.086,1280.353L474.557,1213.025L481.237,1163.331L485.511,1140.391C485.511,1140.391 536.916,1166.804 616.106,1168.006C616.106,1168.006 699.572,1163.865 738.579,1155.048L840.794,1129.352Z" style="fill:rgb(57,62,24);"/>
            <g>
                <path d="M485.862,1140.391C485.862,1140.391 441.333,1329.417 489.425,1557.184C489.425,1557.184 492.853,1582.12 495.97,1605.721C495.97,1605.721 507.459,1710.676 510.131,1730.447C510.131,1730.447 515.061,1744.002 506.71,1776.104C504.678,1783.915 520.35,1794.416 520.809,1802.181C521.175,1808.362 521.514,1814.205 521.8,1819.324C522.262,1827.575 522.587,1833.941 522.669,1836.792C522.669,1836.792 593.356,1858.814 650.989,1831.715C650.989,1831.715 652.136,1815.558 653.744,1794.311C654.151,1788.935 667.821,1782.756 667.065,1776.94C660.777,1728.589 660.888,1705.22 662.611,1696.03C662.611,1696.03 667.955,1653.816 652.993,1606.793C652.993,1606.793 640.703,1566.717 638.031,1545.878C638.031,1545.878 658.871,1386.107 666.352,1363.13" style="fill:none;stroke:black;stroke-width:4.17px;"/>
                <path d="M864.785,1288.793C863.086,1254.282 861.493,1221.073 861.256,1213.245C861.256,1213.245 843.622,1135.23 840.416,1129.352C840.416,1129.352 776.917,1156.47 634.87,1168.048C634.87,1168.048 532.007,1167.505 487.033,1140.391M596.218,1295.668C596.218,1295.668 645.913,1314.905 656.6,1317.042C656.6,1317.042 711.771,1541.803 739.825,1597.91C739.825,1597.91 740.493,1648.339 753.851,1707.652C753.851,1707.652 774.859,1758.068 767.602,1805.689C766.443,1813.29 777.968,1816.258 779.002,1823.478C781.209,1838.898 782.743,1852.963 782.992,1863.424C782.992,1863.424 842.172,1884.063 912.171,1858.949C912.171,1858.949 912.546,1843.147 913.025,1820.355C913.147,1814.531 923.832,1807.429 922.95,1800.898C916.232,1751.171 915.349,1694.821 914.958,1668.577C914.958,1668.577 910.95,1637.518 893.316,1588.893C893.316,1588.893 875.961,1547.213 875.02,1534.389C875.02,1534.389 874.197,1499.955 873.046,1462.993" style="fill:none;stroke:black;stroke-width:4.17px;"/>
                <path d="M527.535,1757.347C527.535,1757.347 542.152,1766.03 605.645,1715.267" style="fill:none;stroke:black;stroke-width:4.17px;"/>
                <path d="M791.37,1750C791.37,1750 845.473,1804.103 890.892,1783.397" style="fill:none;stroke:black;stroke-width:4.17px;"/>
                <path d="M779.347,1821.135C779.347,1821.135 827.884,1849.188 890.892,1826.033" style="fill:none;stroke:black;stroke-width:4.17px;"/>
                <path d="M654.665,1788.118C654.665,1788.118 617.261,1818.018 551.358,1808.667" style="fill:none;stroke:black;stroke-width:4.17px;"/>
                <path d="M777.096,1147.654C777.096,1147.654 785.556,1181.941 789.564,1183.722C789.564,1183.722 847.006,1189.066 851.014,1183.277" style="fill:none;stroke:black;stroke-width:2.08px;"/>
                <path d="M518.203,1153.442C518.203,1153.442 509.743,1184.211 505.29,1185.97C505.29,1185.97 485.697,1187.773 479.018,1185.97" style="fill:none;stroke:black;stroke-width:2.08px;"/>
                <path d="M641.759,1167.565C641.759,1167.565 637.485,1282.985 642.828,1310.771" style="fill:none;stroke:black;stroke-width:4.17px;"/>
                <path d="M864.812,1288.793C864.812,1288.793 816.53,1294.327 798.591,1305.777C798.591,1305.777 809.151,1430.682 821.174,1471.203C821.174,1471.203 877.876,1467.641 880.25,1460.071C880.25,1460.071 903.33,1428.789 883.96,1349.193" style="fill:none;stroke:black;stroke-width:4.17px;"/>
                <path d="M474.187,1470.71C474.187,1470.71 423.424,1463.85 457.488,1324.888" style="fill:none;stroke:black;stroke-width:4.17px;"/>
                <path d="M467.086,1288.793C467.086,1288.793 432.45,1356.986 445.726,1372.126" style="fill:none;stroke:black;stroke-width:4.17px;"/>
                <path d="M831.723,1364.992C831.723,1364.992 858.34,1454.997 827.869,1470.71" style="fill:none;stroke:black;stroke-width:4.17px;"/>
                <path d="M803.95,1307.384C803.95,1307.384 824.835,1340.24 827.561,1363.697C827.561,1363.697 836.724,1366.902 845.146,1363.228C845.146,1363.228 881.956,1351.539 885.296,1347.531C885.296,1347.531 889.303,1345.671 887.299,1337.751C887.299,1337.751 883.96,1316.218 865.257,1284.785" style="fill:none;stroke:black;stroke-width:4.17px;"/>
                <path d="M640.141,1268.023L609.164,1253.061C609.164,1253.061 608.095,1181.993 611.302,1167.565" style="fill:none;stroke:black;stroke-width:4.17px;"/>
            </g>
        </g>
    </g>
</svg>
