<?xml version="1.0" encoding="UTF-8" standalone="no"?>
<!DOCTYPE svg PUBLIC "-//W3C//DTD SVG 1.1//EN" "http://www.w3.org/Graphics/SVG/1.1/DTD/svg11.dtd">
<svg width="100%" height="100%" viewBox="0 0 461 747" version="1.1" xmlns="http://www.w3.org/2000/svg" xmlns:xlink="http://www.w3.org/1999/xlink" xml:space="preserve" xmlns:serif="http://www.serif.com/" style="fill-rule:evenodd;clip-rule:evenodd;stroke-linecap:round;stroke-linejoin:round;stroke-miterlimit:1.5;">
    <g transform="matrix(1,0,0,1,-465.003041,-1127.26884)">
        <g>
            <g>
                <path d="M840.794,1129.352L861.166,1212.072L861.834,1220.087L868.18,1362.024L871.364,1394.418L871.364,1438.502L874.016,1536.021L881.873,1559.733C881.873,1559.733 917.423,1652.91 915.344,1668.273L918.016,1754.845L923.002,1804.159L913.319,1815.752L911.787,1859.337C911.787,1859.337 860.258,1881.323 783.668,1864.699L780.317,1822.06C780.317,1822.06 768.935,1813.137 768.142,1808.379C766.75,1800.024 768.995,1771.039 768.995,1771.039L763.16,1737.108L753.888,1707.625L747.061,1668.143L741.717,1632.222L740.233,1597.49L728.655,1569.288L704.906,1498.523C704.906,1498.523 670.73,1370.781 668.726,1363.434L667.19,1358.725L665.32,1365.404C665.32,1365.404 638.335,1538.786 638.632,1545.02C638.632,1545.02 643.382,1577.377 651.991,1603.501C660.6,1629.625 662.084,1646.249 662.975,1662.873C663.865,1679.498 663.094,1698.586 662.203,1711.054C661.312,1723.522 667.392,1769.347 667.095,1779.143C666.997,1782.385 653.321,1789.674 652.722,1798.127C651.512,1815.22 650.854,1829.86 650.655,1832.641L629.284,1840.916C629.284,1840.916 583.758,1853.636 523.198,1837.517L520.244,1801.878L515.285,1791.782C515.285,1791.782 506.915,1782.751 506.604,1779.438C506.135,1774.436 508.329,1772.963 509.895,1761.545C513.286,1736.812 507.153,1705.161 507.153,1705.161L497,1613.787L487.033,1549.398L476.962,1485.009L470.282,1421.422L467.086,1345.811L467.086,1280.353L474.557,1213.025L481.237,1163.331L485.511,1140.391C485.511,1140.391 536.916,1166.804 616.106,1168.006C616.106,1168.006 699.572,1163.865 738.579,1155.048L840.794,1129.352Z" style="fill:rgb(29,29,29);"/>
                <path d="M612.721,1167.448C612.721,1167.448 601.476,1249.551 602.838,1258.16L606.574,1271.298L609.839,1268.698L612.721,1261.871L612.721,1243.762L615.183,1222.471L617.261,1198.639L622.605,1176.968L622.605,1167.448L612.721,1167.448Z" style="fill:rgb(211,211,211);"/>
                <path d="M629.284,1167.448L641.975,1237.231L646.324,1262.954L649.797,1271.298L652.202,1274.836C652.202,1274.836 656.862,1269.634 654.665,1260.282L646.324,1214.328L641.975,1184.405L638.041,1167.448L629.284,1167.448Z" style="fill:rgb(211,211,211);"/>
            </g>
            <g>
                <path d="M485.862,1140.391C485.862,1140.391 441.333,1329.417 489.425,1557.184C489.425,1557.184 492.853,1582.12 495.97,1605.721C495.97,1605.721 507.459,1710.676 510.131,1730.447C510.131,1730.447 515.061,1744.002 506.71,1776.104C504.678,1783.915 520.35,1794.416 520.809,1802.181C521.175,1808.362 521.514,1814.205 521.8,1819.324C522.262,1827.575 522.587,1833.941 522.669,1836.792C522.669,1836.792 593.356,1858.814 650.989,1831.715C650.989,1831.715 652.136,1815.558 653.744,1794.311C654.151,1788.935 667.821,1782.756 667.065,1776.94C660.777,1728.589 660.888,1705.22 662.611,1696.03C662.611,1696.03 667.955,1653.816 652.993,1606.793C652.993,1606.793 640.703,1566.717 638.031,1545.878C638.031,1545.878 658.871,1386.107 666.352,1363.13" style="fill:none;stroke:black;stroke-width:4.17px;"/>
                <path d="M596.218,1295.668C596.218,1295.668 645.913,1314.905 656.6,1317.042C656.6,1317.042 711.771,1541.803 739.825,1597.91C739.825,1597.91 740.493,1648.339 753.851,1707.652C753.851,1707.652 774.859,1758.068 767.602,1805.689C766.443,1813.29 777.968,1816.258 779.002,1823.478C781.209,1838.898 782.743,1852.963 782.992,1863.424C782.992,1863.424 842.172,1884.063 912.171,1858.949C912.171,1858.949 912.546,1843.147 913.025,1820.355C913.147,1814.531 923.832,1807.429 922.95,1800.898C916.232,1751.171 915.349,1694.821 914.958,1668.577C914.958,1668.577 910.95,1637.518 893.316,1588.893C893.316,1588.893 875.961,1547.213 875.02,1534.389C875.02,1534.389 871.814,1400.267 869.207,1377.29C869.207,1377.29 861.79,1230.879 861.256,1213.245C861.256,1213.245 843.622,1135.23 840.416,1129.352C840.416,1129.352 776.917,1156.47 634.87,1168.048C634.87,1168.048 532.007,1167.505 487.033,1140.391" style="fill:none;stroke:black;stroke-width:4.17px;"/>
                <path d="M527.535,1757.347C527.535,1757.347 542.152,1766.03 605.645,1715.267" style="fill:none;stroke:black;stroke-width:4.17px;"/>
                <path d="M791.37,1750C791.37,1750 845.473,1804.103 890.892,1783.397" style="fill:none;stroke:black;stroke-width:4.17px;"/>
                <path d="M779.347,1821.135C779.347,1821.135 827.884,1849.188 890.892,1826.033" style="fill:none;stroke:black;stroke-width:4.17px;"/>
                <path d="M654.665,1788.118C654.665,1788.118 617.261,1818.018 551.358,1808.667" style="fill:none;stroke:black;stroke-width:4.17px;"/>
                <path d="M777.096,1147.654C777.096,1147.654 785.556,1181.941 789.564,1183.722C789.564,1183.722 847.006,1189.066 851.014,1183.277" style="fill:none;stroke:black;stroke-width:2.08px;"/>
                <path d="M518.203,1153.442C518.203,1153.442 509.743,1184.211 505.29,1185.97C505.29,1185.97 485.697,1187.773 479.018,1185.97" style="fill:none;stroke:black;stroke-width:2.08px;"/>
                <path d="M613.699,1167.448C613.699,1167.448 601.231,1246.264 603.012,1259.623C603.012,1259.623 605.238,1279.216 610.136,1267.638C610.136,1267.638 619.487,1177.219 622.605,1170.107" style="fill:none;stroke:black;stroke-width:4.17px;"/>
                <path d="M629.284,1170.107C629.284,1170.107 643.533,1258.287 647.541,1267.193C647.541,1267.193 651.994,1281.192 654.665,1271.298L654.665,1260.959C654.665,1260.959 638.19,1178.11 638.635,1170.107" style="fill:none;stroke:black;stroke-width:4.17px;"/>
            </g>
        </g>
    </g>
</svg>
