<?xml version='1.0' encoding='utf-8'?>
<svg xmlns="http://www.w3.org/2000/svg" xmlns:serif="http://www.serif.com/" width="100%" height="100%" viewBox="569.864 481.715 611.878 556.5" version="1.1" xml:space="preserve" style="fill-rule:evenodd;clip-rule:evenodd;stroke-linecap:round;stroke-linejoin:round;stroke-miterlimit:1.5;">
    <g transform="matrix(1,0,0,1,-168.634575,32.060962)">
        <g id="l-hand" serif:id="l hand" transform="matrix(1,0,0,1,113.103953,-9.70106)">
            <g>
                <path d="M736.677,761.034L698.286,748.826L669.111,731.041L672.021,711.34L685.113,647.752C685.113,647.752 701.429,589.16 727.069,575.307L730.046,573.81C730.046,573.81 810.351,564.216 787.886,707.655L772.332,766.612" style="fill:rgb(43,43,43);" />
                <g transform="matrix(1,0,0,1,55.530621,-22.359902)">
                    <path d="M615.773,738.556C615.773,738.556 649.202,765.952 720.281,775.782L717.145,788.972C717.145,788.972 662.107,781.501 640.465,769.478C640.465,769.478 615.817,758.257 613.58,754.249L615.773,738.556Z" style="fill:rgb(19,103,58);" />
                </g>
            </g>
            <path d="M772.332,766.612C776.986,750.96 780.935,737.297 781.684,733.555C781.684,733.555 787.886,713.159 787.886,708.579M730.046,573.81C730.046,573.81 697.603,585.037 681.573,666.176C681.573,666.176 675.105,700.53 669.111,731.041" style="fill:none;stroke:black;stroke-width:4.17px;" />
            <g transform="matrix(1,0,0,1,55.530621,-22.359902)">
                <path d="M613.58,753.401C613.58,753.401 636.751,778.346 716.801,788.972" style="fill:none;stroke:black;stroke-width:4.17px;" />
            </g>
        </g>
        <g id="body">
            <g>
                <path d="M843.762,563.975C843.762,563.975 802.202,585.941 822.24,633.358C822.24,633.358 798.565,689.481 819.346,724.395L818.752,727.545C818.752,727.545 785.415,773.558 776.108,812.447C766.801,851.336 765.057,861.967 764.389,872.654C764.389,872.654 764.408,901.913 762.33,905.179C762.33,905.179 761.161,914.975 763.536,925.662L769.176,962.77L776.108,963.957C776.108,963.957 923.126,985.543 1014.086,977.91C1014.086,977.91 1195.409,965.004 1223.462,945.634L1226.245,910.363L1227.729,896.114L1228.026,883.646L1229.807,850.694L1235.745,814.774L1252.666,725.419L1260.76,695.202C1260.76,695.202 1316.835,579.514 1240.056,557.157L1193.935,539.966L1153.948,520.536L1137.317,511.434L1119.803,477.491C1119.803,477.491 1116.578,470.265 1112.612,474.001C1099.728,486.138 1082.786,501.689 1031.104,523.253C1027.773,524.643 1025.517,524.496 1022.397,526.796C1013.665,533.232 1014.362,550.91 999.36,554.574C964.521,582.574 974.77,590.008 968.095,588.739C965.654,588.275 961.809,565.069 961.911,562.061C962.458,545.892 960.733,534.552 957.395,525.622C954.638,518.246 945.378,511.524 947.042,499.384L939.36,500.869L921.751,523.253L866.894,549.784L843.762,563.975Z" style="fill:rgb(43,43,43);" />
                <g transform="matrix(1,0,0,1,168.634575,-32.060962)">
                    <path d="M850.724,561.956L869.211,564.934L874.016,573.83L885.028,584.945L895.288,596.036L910.036,604.609L923.501,593.494C923.501,593.494 969.883,553.739 969.455,546.258L965.608,539.632C965.608,539.632 952.356,515.266 952.57,511.205L949.364,507.357L944.875,504.99C944.875,504.99 937.608,518.686 904.906,536.212L852.646,558.655L850.724,561.956Z" style="fill:rgb(19,103,58);" />
                </g>
                <g transform="matrix(1,0,0,1,168.634575,-32.060962)">
                    <path d="M777.945,531.216L780.349,543.506L785.96,554.799L791.036,558.468L791.036,566.75L782.219,564.346L773.937,575.3L764.051,588.926L752.296,598.811L741.342,604.609L743.479,593.735L745.349,578.773L748.021,566.216L752.029,554.799L758.975,548.582L765.655,539.766L770.196,532.018L777.945,531.216Z" style="fill:rgb(19,103,58);" />
                </g>
                <g transform="matrix(1,0,0,1,168.634575,-32.060962)">
                    <path d="M773.937,575.3C773.937,575.3 768.166,559.962 766.242,538.763L760.258,547.487C760.258,547.487 756.41,564.492 760.044,589.654L760.899,592.372L766.189,585.105L773.937,575.3Z" style="fill:rgb(178,3,0);" />
                </g>
                <g transform="matrix(1,0,0,1,168.634575,-32.060962)">
                    <path d="M955.36,521.838C955.36,521.838 920.521,557.105 879.055,577.411L892.093,592.372C892.093,592.372 956.002,551.548 961.773,536.159L955.36,521.838Z" style="fill:rgb(178,3,0);" />
                </g>
            </g>
            <path d="M1137.317,511.434C1162.726,525.943 1202.848,546.761 1240.056,557.157" style="fill:none;stroke:black;stroke-width:4.17px;" />
            <path d="M922.352,521.844C896.269,534.922 854.906,555.943 845.253,562.501" style="fill:none;stroke:black;stroke-width:4.17px;" />
            <g transform="matrix(1,0,0,1,168.634575,-32.060962)">
                <path d="M778.407,532.93C778.407,532.93 778.741,549.962 791.098,558.979C791.098,558.979 793.77,605.401 799.113,620.763" style="fill:none;stroke:black;stroke-width:4.17px;" />
            </g>
            <g transform="matrix(1,0,0,1,168.634575,-32.060962)">
                <path d="M788.76,566.994L781.437,564.392C781.437,564.392 761.041,600.725 740.669,604.399C740.669,604.399 747.682,562.653 752.358,556.641C752.358,556.641 769.39,536.937 770.392,532.93C770.392,532.93 778.073,529.59 778.407,532.93" style="fill:none;stroke:black;stroke-width:4.17px;" />
            </g>
            <g transform="matrix(1,0,0,1,168.634575,-32.060962)">
                <path d="M941.718,509.552C941.718,509.552 926.021,530.926 851.546,559.647C851.546,559.647 845.535,577.347 834.18,585.029C822.825,592.71 819.151,594.714 813.808,599.723C808.464,604.733 796.441,625.773 792.1,638.13C787.758,650.487 778.741,692.567 778.407,698.244C778.407,698.244 792.434,699.58 794.104,699.58C794.104,699.58 804.791,635.792 815.144,620.763C815.144,620.763 838.521,598.112 847.538,594.409C847.538,594.409 862.901,578.319 864.571,572.824" style="fill:none;stroke:black;stroke-width:4.17px;" />
            </g>
            <g transform="matrix(1,0,0,1,168.634575,-32.060962)">
                <path d="M860.062,564.392L868.245,564.392C868.245,564.392 884.609,592.376 909.991,604.566C909.991,604.566 973.111,554.304 968.435,544.285C968.435,544.285 954.742,523.245 952.071,509.552C952.071,509.552 946.727,505.21 944.389,506.212L941.718,509.552" style="fill:none;stroke:black;stroke-width:4.17px;" />
            </g>
            <path d="M829.175,619.608C829.175,619.608 792.47,685.377 821.541,727.241" style="fill:none;stroke:black;stroke-width:4.17px;" />
            <g transform="matrix(1,0,0,0.944014,42.747949,40.047413)">
                <path d="M845.253,721.404C845.253,721.404 922.304,704.382 969.394,727.241" style="fill:none;stroke:black;stroke-width:4.28px;" />
            </g>
            <path d="M819.758,727.241C819.758,727.241 772.668,780.635 763.431,874.91C763.431,874.91 761.675,899.636 762.744,908.606C762.744,908.606 761.523,915.323 763.278,924.522C763.278,924.522 767.286,958.72 769.423,962.728C769.423,962.728 858.179,981.427 985.278,979.136C985.278,979.136 1166.957,971.726 1223.636,945.612C1223.636,945.612 1224.431,912.987 1226.101,909.981C1226.101,909.981 1226.361,900.574 1227.251,895.825C1227.251,895.825 1228.587,861.537 1230.665,847.288C1230.665,847.288 1240.276,776.296 1260.76,695.202" style="fill:none;stroke:black;stroke-width:4.17px;" />
        </g>
        <g id="r-hand" serif:id="r hand" transform="matrix(1,0,0,1,-124.653024,-24.609598)">
            <g>
                <path d="M1310.002,774.791L1345.003,756.253L1410.859,734.216L1452.368,724.633L1435.397,661.864L1424.71,631.288L1406.305,602.195L1388.493,590.915L1361.635,583.486C1361.635,583.486 1269.76,569.882 1286.72,705.028" style="fill:rgb(43,43,43);" />
                <g transform="matrix(1,0,0,1,293.287599,-7.451364)">
                    <path d="M1011.304,764.101C1011.304,764.101 1091.039,722.35 1154.869,716.508L1159.08,731.005L1152.238,732.875L1107.086,745.432L1075.212,756.654L1052.849,764.135L1031.208,774.287L1017.315,782.242L1011.304,764.101Z" style="fill:rgb(19,103,58);" />
                </g>
            </g>
            <path d="M1403.229,601.507C1403.229,601.507 1355.883,558.558 1293.32,687.804" style="fill:none;stroke:black;stroke-width:4.17px;" />
            <path d="M1452.368,724.633C1450.045,714.83 1447.288,704.874 1444.019,695.202C1444.019,695.202 1432.092,642.213 1420.26,623.51C1420.26,623.51 1408.809,594.121 1366.443,582.289M1286.72,705.237C1286.72,705.237 1298.894,741.472 1310.002,774.791" style="fill:none;stroke:black;stroke-width:4.17px;" />
            <g transform="matrix(1,0,0,1,293.287599,-7.451364)">
                <path d="M1016.714,782.242C1016.714,782.242 1054.961,754.367 1159.08,732.084" style="fill:none;stroke:black;stroke-width:4.17px;" />
            </g>
        </g>
    </g>
</svg>