<?xml version="1.0" encoding="UTF-8" standalone="no"?>
<svg width="100%" height="100%" viewBox="0 0 1511 1245" version="1.1" xmlns="http://www.w3.org/2000/svg" xmlns:xlink="http://www.w3.org/1999/xlink" xml:space="preserve" xmlns:serif="http://www.serif.com/" style="fill-rule:evenodd;clip-rule:evenodd;stroke-linecap:round;stroke-linejoin:round;stroke-miterlimit:1.5;">
    <g transform="matrix(1,0,0,1,-118.606998,-503.274605)">
        <g transform="matrix(0.608383,0,0,0.608383,874.015748,1125.599599)">
            <g transform="matrix(1,0,0,1,-1241.666667,-1022.916667)">
                <clipPath id="_clip1">
                    <rect x="0" y="0" width="2483.333" height="2045.833"/>
                </clipPath>
                <g clip-path="url(#_clip1)">
                    <g transform="matrix(4.166667,0,0,4.166667,-2408.553313,-2190.352254)">
                        <g transform="matrix(1,0,0,1,-168.634575,32.060962)">
                            <g id="l-hand" serif:id="l hand" transform="matrix(1,0,0,1,113.103953,-9.70106)">
                                <path d="M727.069,575.307L730.046,573.81C730.046,573.81 810.351,564.216 787.886,707.655L776.108,759.531L754.845,824.321L751.506,855.714L748.834,873.749L740.485,901.468L729.13,929.521L722.183,946.991L719.845,952.866L717.835,958.33L705.685,989.245C705.685,989.245 680.571,967.56 636.487,968.896L635.685,958.33L637.556,937.37L638.336,928.82L639.672,920.003L640.087,882.332L643.433,837.179L650.113,806.988L662.403,762.905L672.021,711.34L685.113,647.752C685.113,647.752 701.429,589.16 727.069,575.307Z" style="fill:rgb(81,81,81);"/>
                                <path d="M730.046,573.81C730.046,573.81 697.603,585.037 681.573,666.176C681.573,666.176 663.634,761.468 659.817,775.59C659.817,775.59 642.641,829.788 643.405,851.926C643.405,851.926 639.418,911.976 638.825,924.657C638.825,924.657 638.745,929.632 638.374,938.241C638.374,938.241 634.923,966.387 635.814,969.355C635.814,969.355 681.308,967.741 705.279,989.245C705.279,989.245 714.89,965.997 715.558,962.323C715.558,962.323 718.972,954.939 720.976,949.929C720.976,949.929 724.872,942.619 729.251,930.262C729.251,930.262 747.285,884.175 749.623,866.808C749.623,866.808 753.823,832.744 754.729,824.728C754.729,824.728 779.68,743.574 781.684,733.555C781.684,733.555 787.886,713.159 787.886,708.579" style="fill:none;stroke:black;stroke-width:4.17px;"/>
                                <path d="M692.186,794.466C692.186,794.466 714.629,810.36 717.835,826.39" style="fill:none;stroke:black;stroke-width:4.17px;"/>
                            </g>
                            <g id="body">
                                <path d="M843.762,563.975C843.762,563.975 802.202,585.941 822.24,633.358C822.24,633.358 798.565,689.481 819.346,724.395L818.752,727.545C818.752,727.545 785.415,773.558 776.108,812.447C766.801,851.336 765.057,861.967 764.389,872.654C764.389,872.654 762.209,905.72 762.331,906.585C762.331,906.585 761.63,912.575 763.536,925.662L769.176,962.77L776.108,963.957C776.108,963.957 923.126,985.543 1014.086,977.91C1014.086,977.91 1195.409,965.004 1223.462,945.634L1226.245,910.363L1227.267,897.217L1227.879,884.252L1229.807,850.694L1235.745,814.774L1252.666,725.419L1260.76,695.202C1260.76,695.202 1316.835,579.514 1240.056,557.157L1193.935,539.966L1153.948,520.536L1129.635,506.723L1110.398,495.707C1110.398,495.707 1052.328,548.423 977.987,550.727C977.987,550.727 941.861,549.695 943.83,511.675L866.894,549.784L843.762,563.975Z" style="fill:rgb(81,81,81);"/>
                                <g>
                                    <clipPath id="_clip2">
                                        <path d="M843.762,563.975C843.762,563.975 802.202,585.941 822.24,633.358C822.24,633.358 798.565,689.481 819.346,724.395L818.752,727.545C818.752,727.545 785.415,773.558 776.108,812.447C766.801,851.336 765.057,861.967 764.389,872.654C764.389,872.654 756.708,901.32 754.63,904.585C754.63,904.585 754.63,914.975 763.536,925.662L769.176,962.77L776.108,963.957C776.108,963.957 923.126,985.543 1014.086,977.91C1014.086,977.91 1195.409,965.004 1223.462,945.634L1226.245,910.363L1233.667,895.817L1232.479,883.052L1229.807,850.694L1235.745,814.774L1252.666,725.419L1260.76,695.202C1260.76,695.202 1316.835,579.514 1240.056,557.157L1193.935,539.966L1153.948,520.536L1129.635,506.723L1110.398,495.707C1110.398,495.707 1052.328,548.423 977.987,550.727C977.987,550.727 941.861,549.695 943.83,511.675L866.894,549.784L843.762,563.975Z"/>
                                    </clipPath>
                                    <g clip-path="url(#_clip2)">
                                        <g transform="matrix(0.02253,0,0,0.02253,1104.564699,639.579345)">
                                            <g transform="matrix(1,0,0,1,-1331.25,-1368.75)">
                                                <g transform="matrix(4.166667,0,0,4.166667,-2467.293738,-3625.25265)">
                                                    <g transform="matrix(2.279712,0,0,2.279712,587.524604,865.438005)">
                                                        <path d="M114.872,228.832C100.847,268.683 98.007,270.845 101.544,271.096C104.448,271.302 188.9,271.857 196.497,271.907C211.09,272.002 230.626,278.422 251.853,235.676C262.908,213.413 263.372,213.472 264.471,213.291C264.877,213.224 280.232,213.179 280.591,213.289C282.75,213.943 281.008,215.08 264.251,254.392C263.061,257.184 250.007,287.807 249.115,289.176C248.533,290.07 248.205,289.96 17.5,289.962C16.512,289.962 6.747,290.732 7.398,288.488C7.466,288.251 15.538,268.95 15.757,268.655C19.481,263.65 50.853,272.926 60.092,262.13C63.142,258.567 63.169,258.483 84.704,196.571C90.123,180.99 91.168,179.243 90.107,176.66C84.794,163.729 39.707,59.924 35.268,47.58C27.314,25.455 2.936,29.404 2.239,27.636C1.904,26.786 2.08,14.535 2.044,11.499C1.976,5.738 4.739,7.747 10.5,7.747C85.95,7.754 86.283,7.623 86.661,8.369C87.245,9.519 87.477,9.977 86.346,24.492C85.841,30.974 75.285,24.555 74.323,34.477C73.62,41.725 75.577,41.459 98.701,90.403C99.75,92.624 111.725,117.971 111.845,118.15C113.01,119.886 113.247,117.58 120.776,93.587C128.097,70.256 134.697,56.722 123.533,55.243C122.169,55.062 114.204,57.258 115.362,53.466C119.51,39.885 119.962,38.095 122.486,38.081C130.146,38.036 176.724,38.755 203.488,38.923C204.351,38.928 206.368,38.841 205.599,41.524C203.316,49.496 202.406,54.859 199.469,55.294C184.578,57.498 175.986,53.126 165.293,83.426C134.763,169.935 134.312,170.211 135.361,172.561C136.854,175.905 153.79,213.846 154.798,214.002C156.069,214.199 155.885,213.336 181.435,150.473C185.176,141.269 228.155,35.521 228.189,35.409C230.757,26.851 223.251,20.09 217.506,20.065C210.705,20.035 210.283,21.19 208.63,19.397C208.246,18.98 207.211,2.819 209.365,2.158C210.171,1.91 273.85,2.104 278.501,2.044C283.63,1.978 281.94,4.405 281.962,9.5C281.975,12.511 282.715,19.73 280.424,20.193C278.679,20.547 267.521,20.551 257.625,28.649C250.453,34.518 251.493,35.43 237.734,69.594C163.559,253.769 164.469,255.248 161.549,255.787C159.107,256.239 159.096,255.7 130.517,255.039C127.679,254.973 127.526,254.301 118.983,235.284C117.872,232.81 116.35,228.836 116.24,228.797C115.81,228.643 115.301,228.985 114.872,228.832Z" style="fill:rgb(174,174,174);"/>
                                                    </g>
                                                </g>
                                            </g>
                                        </g>
                                    </g>
                                </g>
                                <g transform="matrix(1,0,0,1,168.634575,-32.060962)">
                                    <path d="M803.86,581.275C803.86,581.275 786.684,653.794 786.684,675.931L807.295,676.695C807.295,676.695 821.799,591.199 824.852,583.183" style="fill:none;stroke:black;stroke-width:4.17px;"/>
                                </g>
                                <path d="M944.16,510.977C944.16,510.977 936.478,557.398 995.257,549.383C995.257,549.383 1054.369,542.091 1111.218,495.707C1111.218,495.707 1179.496,540.236 1240.056,557.157" style="fill:none;stroke:black;stroke-width:4.17px;"/>
                                <path d="M944.16,510.977C944.16,510.977 859.614,552.745 845.253,562.501" style="fill:none;stroke:black;stroke-width:4.17px;"/>
                                <path d="M829.175,619.608C829.175,619.608 792.47,685.377 821.541,727.241" style="fill:none;stroke:black;stroke-width:4.17px;"/>
                                <g transform="matrix(1,0,0,0.944014,42.747949,40.047413)">
                                    <path d="M845.253,721.404C845.253,721.404 922.304,704.382 969.394,727.241" style="fill:none;stroke:black;stroke-width:4.28px;"/>
                                </g>
                                <path d="M819.758,727.241C819.758,727.241 772.668,780.635 763.431,874.91C763.431,874.91 761.675,899.636 762.744,908.606C762.744,908.606 761.523,915.323 763.278,924.522C763.278,924.522 767.286,958.72 769.423,962.728C769.423,962.728 858.179,981.427 985.278,979.136C985.278,979.136 1166.957,971.726 1223.636,945.612C1223.636,945.612 1224.431,912.987 1226.101,909.981C1226.101,909.981 1226.361,900.574 1227.251,895.825C1227.251,895.825 1228.587,861.537 1230.665,847.288C1230.665,847.288 1240.276,776.296 1260.76,695.202" style="fill:none;stroke:black;stroke-width:4.17px;"/>
                            </g>
                            <g id="r-hand" serif:id="r hand" transform="matrix(1,0,0,1,-124.653024,-24.609598)">
                                <path d="M1288.112,709.383L1316.548,794.466L1327.971,827.457L1326.746,838.2L1327.637,860.761L1331.496,893.416L1335.949,915.383L1336.951,939.095L1337.433,948.038L1338.62,985.739C1338.62,985.739 1403.93,979.16 1420.257,1006.644L1430.944,971.193L1434.84,963.957L1437.03,955.089L1450.834,911.524L1453.506,894.603L1464.391,837.606L1464.391,805.842L1458.552,756.86L1445.193,697.488L1435.397,661.864L1424.71,631.288L1406.305,602.195L1388.493,590.915L1361.635,583.486C1361.635,583.486 1269.76,569.882 1286.72,705.028" style="fill:rgb(81,81,81);"/>
                                <path d="M1403.229,601.507C1403.229,601.507 1355.883,558.558 1293.32,687.804" style="fill:none;stroke:black;stroke-width:4.17px;"/>
                                <path d="M1286.72,705.237C1286.72,705.237 1324.57,817.896 1327.687,828.583C1327.687,828.583 1324.57,865.72 1336.147,917.953C1336.147,917.953 1337.372,936.533 1337.038,938.136C1337.038,938.136 1337.372,940.555 1337.483,948.533C1337.483,948.533 1339.487,981.93 1338.485,986.272C1338.485,986.272 1401.939,977.588 1420.641,1006.644C1420.641,1006.644 1428.991,975.585 1432.33,971.243C1432.33,971.243 1433.926,966.679 1435.93,960.667C1435.93,960.667 1450.031,914.134 1452.702,898.438C1452.702,898.438 1463.723,845.003 1464.391,807.932C1464.391,807.932 1461.672,747.429 1444.019,695.202C1444.019,695.202 1432.092,642.213 1420.26,623.51C1420.26,623.51 1408.809,594.121 1366.443,582.289" style="fill:none;stroke:black;stroke-width:4.17px;"/>
                            </g>
                        </g>
                    </g>
                </g>
            </g>
        </g>
    </g>
</svg>
