<?xml version="1.0" encoding="UTF-8" standalone="no"?>
<!DOCTYPE svg PUBLIC "-//W3C//DTD SVG 1.1//EN" "http://www.w3.org/Graphics/SVG/1.1/DTD/svg11.dtd">
<svg width="100%" height="100%" viewBox="0 0 1749 2481" version="1.1" xmlns="http://www.w3.org/2000/svg" xmlns:xlink="http://www.w3.org/1999/xlink" xml:space="preserve" xmlns:serif="http://www.serif.com/" style="fill-rule:evenodd;clip-rule:evenodd;stroke-linecap:round;stroke-linejoin:round;stroke-miterlimit:1.5;">
    <g transform="matrix(1,0,0,1,-168.634575,32.060962)">
        <g id="body">
            <path d="M922.419,523.985L872.904,547.094L861.663,565.578C861.663,565.578 841.53,595.346 822.881,632.29C822.881,632.29 798.565,689.481 819.346,724.395L818.752,727.545C818.752,727.545 785.415,773.558 776.108,812.447C766.801,851.336 765.057,861.967 764.389,872.654C764.389,872.654 764.408,901.913 762.33,905.179C762.33,905.179 761.161,914.975 763.536,925.662L769.176,962.77L776.108,963.957C776.108,963.957 923.126,985.543 1014.086,977.91C1014.086,977.91 1195.409,965.004 1223.462,945.634L1226.245,910.363L1227.729,896.114L1228.026,883.646L1229.807,850.694L1235.745,814.774L1244.598,768.501L1201.981,761.662C1201.981,761.662 1104.304,742.586 1166.583,578.531L1183.896,536.536L1136.37,513.055C1082.748,569.183 907.638,638.94 919.364,536.536" style="fill:rgb(188,188,188);"/>
            <path d="M1137.317,511.434C1150.378,518.892 1165.455,528.016 1183.896,536.536" style="fill:none;stroke:black;stroke-width:4.17px;"/>
            <path d="M922.352,521.844C907.896,529.092 888.747,538.78 872.904,547.094" style="fill:none;stroke:black;stroke-width:4.17px;"/>
            <g transform="matrix(1,0,0,1,168.634575,-32.060962)">
                <path d="M754.663,553.98C754.663,553.98 730.618,626.451 801.419,620.106C801.419,620.106 906.953,611.999 967.735,543.495" style="fill:none;stroke:black;stroke-width:4.17px;"/>
            </g>
            <g transform="matrix(1,0,0,1,168.634575,-32.060962)">
                <path d="M1015.667,568.597C1015.667,568.597 896.1,795.196 1074.395,798.995" style="fill:none;stroke:black;stroke-width:4.17px;"/>
            </g>
            <g transform="matrix(1,0,0,1,168.634575,-32.060962)">
                <path d="M704.269,579.155C704.269,579.155 668.646,633.539 659.74,652.687" style="fill:none;stroke:black;stroke-width:4.17px;"/>
            </g>
            <path d="M829.175,619.608C829.175,619.608 792.47,685.377 821.541,727.241" style="fill:none;stroke:black;stroke-width:4.17px;"/>
            <g transform="matrix(1,0,0,0.944014,42.747949,40.047413)">
                <path d="M845.253,721.404C845.253,721.404 922.304,704.382 969.394,727.241" style="fill:none;stroke:black;stroke-width:4.28px;"/>
            </g>
            <path d="M819.758,727.241C819.758,727.241 772.668,780.635 763.431,874.91C763.431,874.91 761.675,899.636 762.744,908.606C762.744,908.606 761.523,915.323 763.278,924.522C763.278,924.522 767.286,958.72 769.423,962.728C769.423,962.728 858.179,981.427 985.278,979.136C985.278,979.136 1166.957,971.726 1223.636,945.612C1223.636,945.612 1224.431,912.987 1226.101,909.981C1226.101,909.981 1226.361,900.574 1227.251,895.825C1227.251,895.825 1228.587,861.537 1230.665,847.288C1230.665,847.288 1235.174,813.981 1244.598,766.934" style="fill:none;stroke:black;stroke-width:4.17px;"/>
        </g>
    </g>
</svg>
