<?xml version='1.0' encoding='utf-8'?>
<svg xmlns="http://www.w3.org/2000/svg" xmlns:serif="http://www.serif.com/" width="100%" height="100%" viewBox="573.189 524.531 522.112 512.038" version="1.1" xml:space="preserve" style="fill-rule:evenodd;clip-rule:evenodd;stroke-linecap:round;stroke-linejoin:round;stroke-miterlimit:1.5;">
    <g transform="matrix(1,0,0,1,-168.634575,32.060962)">
        <g id="body">
            <path d="M922.419,523.985L872.904,547.094L861.663,565.578C861.663,565.578 841.53,595.346 822.881,632.29C822.881,632.29 798.565,689.481 819.346,724.395L818.752,727.545C818.752,727.545 785.415,773.558 776.108,812.447C766.801,851.336 765.057,861.967 764.389,872.654C764.389,872.654 764.408,901.913 762.33,905.179C762.33,905.179 761.161,914.975 763.536,925.662L769.176,962.77L776.108,963.957C776.108,963.957 923.126,985.543 1014.086,977.91C1014.086,977.91 1195.409,965.004 1223.462,945.634L1226.245,910.363L1227.729,896.114L1228.026,883.646L1229.807,850.694L1235.745,814.774L1244.598,768.501L1201.981,761.662C1201.981,761.662 1104.304,742.586 1166.583,578.531L1183.896,536.536L1136.37,513.055C1082.748,569.183 907.638,638.94 919.364,536.536" style="fill:rgb(188,188,188);" />
            <clipPath id="_clip1">
                <path d="M922.419,523.985L872.904,547.094L861.663,565.578C861.663,565.578 841.53,595.346 822.881,632.29C822.881,632.29 798.565,689.481 819.346,724.395L818.752,727.545C818.752,727.545 785.415,773.558 776.108,812.447C766.801,851.336 765.057,861.967 764.389,872.654C764.389,872.654 764.408,901.913 762.33,905.179C762.33,905.179 761.161,914.975 763.536,925.662L769.176,962.77L776.108,963.957C776.108,963.957 923.126,985.543 1014.086,977.91C1014.086,977.91 1195.409,965.004 1223.462,945.634L1226.245,910.363L1227.729,896.114L1228.026,883.646L1229.807,850.694L1235.745,814.774L1244.598,768.501L1201.981,761.662C1201.981,761.662 1104.304,742.586 1166.583,578.531L1183.896,536.536L1136.37,513.055C1082.748,569.183 907.638,638.94 919.364,536.536" />
            </clipPath>
            <g clip-path="url(#_clip1)">
                <g transform="matrix(0.043212,0,0,0.043212,968.907477,694.134152)">
                    <g transform="matrix(1,0,0,1,-3643.75,-5168.75)">
                        <g id="_5a7f5f47abc3d121aba71181.png" serif:id="5a7f5f47abc3d121aba71181.png" transform="matrix(9.809338,0,0,9.809338,1487.916371,3540.618292)">
                            <path d="M68.5,2.034L374.5,2.034C380.228,1.997 377.965,4.825 377.966,10.5C377.971,125.615 377.931,125.602 378.034,129.495C378.115,132.53 376.364,131.966 345.5,131.966C7.396,131.966 7.4,131.958 4.505,132.034C2.224,132.095 2.044,130.955 2.035,129.512C1.968,119.35 1.206,3.811 2.483,2.483C2.979,1.967 3.134,2.034 68.5,2.034Z" style="fill:rgb(227,36,31);" />
                            <path d="M131.908,46.381C133.181,46.559 133.23,46.931 134.237,46.096C142.771,39.013 156.65,41.486 161.526,50.484C175.436,76.149 142.517,105.234 127.284,89.739C123.632,86.025 125.05,91.603 121.092,115.436C120.525,118.854 117.019,118.398 108.534,118.196C105.957,118.134 107.621,112.401 107.761,111.541C118.48,45.713 117.115,43.654 120.503,43.541C130.398,43.21 131.81,42.973 131.908,46.381Z" style="fill:rgb(254,254,254);" />
                            <path d="M303.935,61.531C303.934,60.823 303.926,54.362 300.541,53.363C286.181,49.127 288.392,89.962 284.333,92.047C283.837,92.301 272.861,92.251 272.605,92.132C268.421,90.19 281.877,56.107 272.538,53.37C259.576,49.57 259.998,82.28 257.572,90.52C256.756,93.293 243.399,93.064 243.666,90.502C243.715,90.035 250.879,45.057 250.992,44.692C251.593,42.738 263.815,43.515 264.262,43.842C264.904,44.312 264.047,48.491 266.707,45.911C270.1,42.62 277.748,40.606 283.649,43.139C288.949,45.414 288.559,50.733 292.806,46.858C298.682,41.496 310.238,39.854 315.44,45.555C317.864,48.212 320.64,51.255 313.431,90.482C312.985,92.906 306.42,92.26 301.516,92.215C297.789,92.18 300.305,89.827 303.935,61.531Z" style="fill:rgb(254,254,254);" />
                            <path d="M31.534,94.12C24.437,92.448 23.744,93.497 18.721,88.276C10.687,79.927 14.616,78.172 14.886,77.95C19.728,73.96 23.153,69.353 24.833,73.35C29.157,83.637 39.907,82.6 44.084,77.155C54.882,63.076 34.131,57.494 33.627,57.244C31.505,56.191 14.844,47.923 25.818,28.684C39.127,5.351 70.443,19.701 66.017,25.15C60.919,31.428 59.199,34.206 57.147,31.837C51.166,24.932 42.528,28.407 39.923,31.856C32.396,41.822 48.092,46.359 51.301,47.896C70.258,56.982 61.991,76.538 55.01,85.06C47.775,93.892 33.547,94.092 31.534,94.12Z" style="fill:rgb(254,254,254);" />
                            <path d="M319.92,72.513C320.168,70.685 321.868,58.142 327.954,50.895C331.622,46.526 337.314,43.723 340.612,42.917C366.657,36.557 369.802,60.597 367,68.69C365.695,72.46 335.593,67.786 334.678,71.55C332.429,80.805 342.682,87.783 350.436,79.439C353.217,76.447 353.736,76.32 363.572,78.326C366.432,78.909 360.859,84.983 360.438,85.441C352.064,94.567 321.689,103.426 319.92,72.513Z" style="fill:rgb(254,254,254);" />
                            <path d="M215.5,70.122C214.815,70.238 214.102,70.09 213.417,70.206C210.818,70.648 210.769,82.986 219.509,83.134C225.758,83.239 229.223,77.863 229.555,77.56C230.97,76.267 243.183,77.261 241.642,80.565C234.059,96.83 197.48,101.595 197.311,73.501C197.072,33.796 252.797,31.215 244.44,68.482C243.982,70.526 243.114,70.122 215.5,70.122Z" style="fill:rgb(254,254,254);" />
                            <path d="M79.084,74.5C80.325,87.292 92.578,83.241 94.823,72.576C97.799,58.434 97.797,43.633 101.503,43.542C106.551,43.417 113.528,42.841 113.173,45.479C108.891,77.371 106.773,80.66 105.1,83.258C95.049,98.868 61.59,99.663 64.941,73.552C65.245,71.179 68.522,45.642 70.152,44.11C70.784,43.515 83.598,42.102 83.337,45.491C83.017,49.651 79.894,63.977 79.084,74.5Z" style="fill:rgb(254,254,254);" />
                            <path d="M165.894,78.56C170.717,48.561 171.05,44.652 171.903,43.986C172.258,43.709 185.648,41.921 185.003,45.608C184.052,51.043 189.498,41.679 197.511,41.95C206.416,42.252 202.117,48.154 201.71,49.562C200.558,53.543 200.444,55.85 197.4,54.808C181.133,49.239 180.124,77.564 178.131,89.442C177.57,92.785 174.602,92.44 165.534,92.211C163.063,92.149 164.829,85.167 165.894,78.56Z" style="fill:rgb(254,254,254);" />
                            <path d="M127.087,69.483C130.477,49.759 145.369,53.163 148.499,58.5C158.395,75.371 128.239,94.607 127.087,69.483Z" style="fill:rgb(227,36,31);" />
                            <path d="M217.342,55.359C225.06,47.705 231.811,53.354 232.381,59.506C232.506,60.858 232.127,62.303 215.516,61.444C212.97,61.312 217.041,55.769 217.342,55.359Z" style="fill:rgb(227,34,29);" />
                            <path d="M338.382,57.427C346.774,45.716 355.013,54.425 354.939,59.5C354.92,60.824 354.542,61.939 338.501,61.491C335.7,61.412 337.402,60.017 338.382,57.427Z" style="fill:rgb(227,34,29);" />
                        </g>
                    </g>
                </g>
            </g>
            <path d="M1137.317,511.434C1150.378,518.892 1165.455,528.016 1183.896,536.536" style="fill:none;stroke:black;stroke-width:4.17px;" />
            <path d="M922.352,521.844C907.896,529.092 888.747,538.78 872.904,547.094" style="fill:none;stroke:black;stroke-width:4.17px;" />
            <g transform="matrix(1,0,0,1,168.634575,-32.060962)">
                <path d="M754.663,553.98C754.663,553.98 730.618,626.451 801.419,620.106C801.419,620.106 906.953,611.999 967.735,543.495" style="fill:none;stroke:black;stroke-width:4.17px;" />
            </g>
            <g transform="matrix(1,0,0,1,168.634575,-32.060962)">
                <path d="M1015.667,568.597C1015.667,568.597 896.1,795.196 1074.395,798.995" style="fill:none;stroke:black;stroke-width:4.17px;" />
            </g>
            <g transform="matrix(1,0,0,1,168.634575,-32.060962)">
                <path d="M704.269,579.155C704.269,579.155 668.646,633.539 659.74,652.687" style="fill:none;stroke:black;stroke-width:4.17px;" />
            </g>
            <path d="M829.175,619.608C829.175,619.608 792.47,685.377 821.541,727.241" style="fill:none;stroke:black;stroke-width:4.17px;" />
            <g transform="matrix(1,0,0,0.944014,42.747949,40.047413)">
                <path d="M845.253,721.404C845.253,721.404 922.304,704.382 969.394,727.241" style="fill:none;stroke:black;stroke-width:4.28px;" />
            </g>
            <path d="M819.758,727.241C819.758,727.241 772.668,780.635 763.431,874.91C763.431,874.91 761.675,899.636 762.744,908.606C762.744,908.606 761.523,915.323 763.278,924.522C763.278,924.522 767.286,958.72 769.423,962.728C769.423,962.728 858.179,981.427 985.278,979.136C985.278,979.136 1166.957,971.726 1223.636,945.612C1223.636,945.612 1224.431,912.987 1226.101,909.981C1226.101,909.981 1226.361,900.574 1227.251,895.825C1227.251,895.825 1228.587,861.537 1230.665,847.288C1230.665,847.288 1235.174,813.981 1244.598,766.934" style="fill:none;stroke:black;stroke-width:4.17px;" />
        </g>
    </g>
</svg>