<?xml version="1.0" encoding="UTF-8" standalone="no"?>
<!DOCTYPE svg PUBLIC "-//W3C//DTD SVG 1.1//EN" "http://www.w3.org/Graphics/SVG/1.1/DTD/svg11.dtd">
<svg width="100%" height="100%" viewBox="0 0 1248 1057" version="1.1" xmlns="http://www.w3.org/2000/svg" xmlns:xlink="http://www.w3.org/1999/xlink" xml:space="preserve" xmlns:serif="http://www.serif.com/" style="fill-rule:evenodd;clip-rule:evenodd;stroke-linecap:round;stroke-linejoin:round;stroke-miterlimit:1.5;">
    <g transform="matrix(1,0,0,1,-214.737589,-301.921884)">
        <g transform="matrix(0.519787,0,0,0.519787,838.481471,830.371561)">
            <g transform="matrix(1,0,0,1,-1200,-1016.666667)">
                <clipPath id="_clip1">
                    <rect x="0" y="0" width="2400" height="2033.333"/>
                </clipPath>
                <g clip-path="url(#_clip1)">
                    <g transform="matrix(4.166667,0,0,4.166667,-2441.647642,-2190.352254)">
                        <g transform="matrix(1,0,0,1,-168.634575,32.060962)">
                            <g id="l-hand" serif:id="l hand" transform="matrix(1,0,0,1,113.103953,-9.70106)">
                                <path d="M736.677,761.034L698.286,748.826L669.111,731.041L672.021,711.34L685.113,647.752C685.113,647.752 701.429,589.16 727.069,575.307L730.046,573.81C730.046,573.81 810.351,564.216 787.886,707.655L772.332,766.612" style="fill:rgb(206,206,206);"/>
                                <path d="M772.332,766.612C776.986,750.96 780.935,737.297 781.684,733.555C781.684,733.555 787.886,713.159 787.886,708.579M730.046,573.81C730.046,573.81 697.603,585.037 681.573,666.176C681.573,666.176 675.105,700.53 669.111,731.041" style="fill:none;stroke:black;stroke-width:4.17px;"/>
                                <g transform="matrix(1,0,0,1,55.530621,-22.359902)">
                                    <path d="M613.58,753.401C613.58,753.401 636.751,778.346 716.801,788.972" style="fill:none;stroke:black;stroke-width:4.17px;"/>
                                </g>
                            </g>
                            <g id="body">
                                <path d="M843.762,563.975C843.762,563.975 802.202,585.941 822.24,633.358C822.24,633.358 798.565,689.481 819.346,724.395L818.752,727.545C818.752,727.545 785.415,773.558 776.108,812.447C766.801,851.336 765.057,861.967 764.389,872.654C764.389,872.654 764.108,901.52 762.03,904.785C762.03,904.785 762.43,914.975 763.536,925.662L769.176,962.77L776.108,963.957C776.108,963.957 923.126,985.543 1014.086,977.91C1014.086,977.91 1195.409,965.004 1223.462,945.634L1226.245,910.363L1227.167,895.317L1228.229,883.302L1229.807,850.694L1235.745,814.774L1252.666,725.419L1260.76,695.202C1260.76,695.202 1316.835,579.514 1240.056,557.157L1193.935,539.966L1153.948,520.536L1129.635,506.723L1110.398,495.707C1110.398,495.707 1052.328,548.423 977.987,550.727C977.987,550.727 941.861,549.695 943.83,511.675L866.894,549.784L843.762,563.975Z" style="fill:rgb(206,206,206);"/>
                                <g>
                                    <clipPath id="_clip2">
                                        <path d="M843.762,563.975C843.762,563.975 802.202,585.941 822.24,633.358C822.24,633.358 798.565,689.481 819.346,724.395L818.752,727.545C818.752,727.545 785.415,773.558 776.108,812.447C766.801,851.336 765.057,861.967 764.389,872.654C764.389,872.654 756.708,901.32 754.63,904.585C754.63,904.585 754.63,914.975 763.536,925.662L769.176,962.77L776.108,963.957C776.108,963.957 923.126,985.543 1014.086,977.91C1014.086,977.91 1195.409,965.004 1223.462,945.634L1226.245,910.363L1233.667,895.817L1232.479,883.052L1229.807,850.694L1235.745,814.774L1252.666,725.419L1260.76,695.202C1260.76,695.202 1316.835,579.514 1240.056,557.157L1193.935,539.966L1153.948,520.536L1129.635,506.723L1110.398,495.707C1110.398,495.707 1052.328,548.423 977.987,550.727C977.987,550.727 941.861,549.695 943.83,511.675L866.894,549.784L843.762,563.975Z"/>
                                    </clipPath>
                                    <g clip-path="url(#_clip2)">
                                        <g transform="matrix(0.034104,0,0,0.034104,967.851297,660.442771)">
                                            <g transform="matrix(1,0,0,1,-3643.75,-5168.75)">
                                                <g id="Balenciaga-Logo-2017-present.jpg" transform="matrix(6.559246,0,0,6.559246,283.333333,2800)">
                                                    <path d="M420.896,335.5C420.896,232.572 420.895,232.58 420.903,232.527C421.335,229.788 422.659,229.997 455.499,230.516C459.569,230.58 458.206,232.812 478.785,291.392C490.394,324.437 486.472,327.292 489.468,327.293C491.073,327.293 489.841,318.388 489.785,317.493C488.903,303.406 489.234,232.193 489.507,231.503C490.067,230.089 490.533,230.189 508.499,230.51C510.978,230.555 510.734,232.599 510.736,233.497C510.757,242.62 510.999,346.184 510.632,347.537C510.292,348.787 509.788,348.991 478.495,348.91C475.561,348.902 475.291,348.338 472.687,340.439C461.067,305.19 447.952,273.72 443.321,250.577C443.02,249.073 441.094,248.995 441.292,251.473C441.896,259.052 443.361,277.402 442.632,346.506C442.603,349.279 441.197,349.044 423.487,348.908C419.677,348.879 420.917,341.085 420.896,335.5Z"/>
                                                    <path d="M862.5,302.9C858.461,302.742 856.498,304.489 856.476,300.501C856.394,286.027 856.156,284.161 858.438,284.034C859.985,283.948 893.668,283.823 894.641,284.175C895.944,284.646 895.811,285.226 895.801,335.5C895.799,340.728 897.578,342.725 890.398,345.211C879.123,349.114 827.615,361.799 815.729,325.428C812.398,315.234 806.998,265.577 820.797,244.705C837.125,220.009 893.338,220.33 896.055,259.513C896.277,262.712 891.352,261.881 876.5,261.882C872.625,261.882 872.291,261.379 871.552,257.491C868.708,242.532 841.462,238.716 838.341,268.481C838.335,268.538 834.883,309.379 840.825,322.354C848.104,338.249 871.625,331.495 872.364,328.467C872.492,327.941 872.764,304.625 872.192,303.69C871.713,302.908 863.278,302.9 862.5,302.9Z"/>
                                                    <path d="M384.826,281.501C384.823,291.732 385.744,296.824 382.532,296.962C368.769,297.552 348.008,295.57 347.347,298.465C347.268,298.809 347.219,327.961 347.378,328.534C348.272,331.75 386.568,328.387 388.487,330.509C388.613,330.649 389.985,348.153 387.601,348.805C387.161,348.925 387.185,348.91 332.5,348.91C329.039,348.91 323.172,349.948 323.128,346.523C322.958,333.398 323.11,242.539 323.126,233.496C323.128,232.018 322.956,230.313 325.488,230.279C330.361,230.215 384.878,229.493 386.402,230.643C387.14,231.199 388.489,248.798 385.458,249.205C380.774,249.833 348.247,247.856 347.414,250.471C347.402,250.51 346.793,276.157 347.781,277.241C349.257,278.86 382.866,276.691 384.47,278.521C384.628,278.701 384.496,278.739 384.826,281.501Z"/>
                                                    <path d="M541.086,287.5C541.175,254.116 546.681,228.691 585.498,228.79C625.365,228.891 624.189,263.012 622.621,263.714C621.546,264.196 600.543,263.898 600.386,263.855C597.914,263.181 599.977,248.823 588.413,246.937C567.802,243.577 567.047,266.764 566.875,272.516C565.617,314.704 567.329,331.173 582.534,332.193C601.24,333.448 599.077,317.166 600.277,314.376C601.107,312.445 623.359,313.609 623.428,313.646C624.951,314.46 626.731,349.081 586.5,350.493C537.739,352.205 541.098,304.864 541.086,287.5Z"/>
                                                    <path d="M290.5,348.91C236.997,348.91 236.968,348.939 236.395,348.731C235.31,348.337 235.311,341.164 235.311,340.5C235.327,232.306 235.216,232.295 235.523,231.51C236.219,229.732 258.022,230.258 258.874,231.159C260.058,232.41 259.095,321.706 259.408,327.505C259.569,330.497 261.206,329.826 295.498,329.855C299.156,329.858 298.418,333.236 298.319,345.499C298.276,350.732 295.737,348.653 290.5,348.91Z"/>
                                                    <path d="M674.071,234.5C674.057,347.519 674.197,347.739 673.465,348.46C673.135,348.785 650.9,350.1 650.183,347.608C650.099,347.318 649.803,232.627 650.337,231.407C650.979,229.944 673.156,229.999 673.745,231.349C673.846,231.581 673.769,231.582 674.071,234.5Z"/>
                                                    <path d="M92.904,262.527C91.784,268.297 91.31,282.303 71.613,285.775C65.711,286.815 75.189,288.203 75.558,288.258C98.911,291.679 106.879,341.584 68.546,347.787C54.013,350.139 14.477,348.584 14.455,348.564C13.639,347.846 13.734,347.6 13.734,244.5C13.734,238.883 12.936,230.619 15.503,230.524C19.18,230.389 41.534,229.568 61.495,230.612C87.935,231.996 92.943,244.788 92.904,262.527ZM37.958,274.5C38.316,276.905 37.271,277.959 39.554,278.163C62.68,280.228 66.09,273.327 67.096,271.291C69.487,266.454 71.913,249.77 55.483,248.689C38.462,247.569 38.086,249.03 38.037,250.432C37.969,252.356 38.219,252.273 37.958,274.5ZM37.962,316.5C37.964,324.069 36.866,330.881 40.481,330.915C46.268,330.969 75.963,335.424 70.186,307.579C67.428,294.289 49.322,296.233 40.495,296.31C37.282,296.339 38.165,298.095 37.962,316.5Z"/>
                                                    <path d="M983.977,240.355C992.635,273.479 1013.572,347.355 1012.524,348.524C1012.447,348.61 988.94,350.339 987.575,347.461C985.709,343.527 982.187,323.07 979.522,322.403C979.258,322.337 947.481,322.004 946.548,322.602C943.824,324.347 940.421,347.956 937.585,348.777C937.25,348.874 916.162,349.235 915.454,348.555C914.11,347.263 927.689,301.722 939.854,255.589C946.08,231.977 945.603,231.379 947.573,230.696C949.911,229.885 949.995,230.437 978.5,230.506C982.576,230.516 983.005,236.811 983.977,240.355ZM954.082,287.38C950.644,301.769 949.558,303.916 952.45,303.968C975.538,304.382 976.75,304.431 976.587,302.503C976.25,298.523 967.586,268.464 964.707,251.399C963.623,244.969 962.162,254.093 962.112,254.407C961.88,255.853 954.734,284.744 954.082,287.38Z" style="fill:rgb(1,1,1);"/>
                                                    <path d="M703.896,327.623C729.731,232.807 728.533,231.288 731.526,230.613C732.437,230.408 762.976,230.503 763.491,230.559C765.094,230.735 765.22,231.193 770.122,249.599C796.137,347.281 797.3,348.112 795.635,348.749C794.871,349.042 772.922,348.94 772.412,348.801C769.617,348.043 766.06,323.834 763.454,322.598C762.226,322.016 730.945,322.303 730.481,322.429C727.984,323.111 724.655,341.743 722.441,347.472C721.806,349.116 721.295,349.295 700.453,348.918C696.906,348.853 700.052,342.102 703.896,327.623ZM749.883,260.414C748.05,251.439 748.395,251.391 748.234,250.612C747.371,246.437 746.324,251.449 742.733,266.552C734.197,302.459 733.662,302.714 734.46,303.537C735.808,304.93 756.658,304.033 758.587,303.95C760.915,303.85 760.125,302.304 754.177,277.584C751.149,265.003 750.124,261.383 749.883,260.414Z" style="fill:rgb(1,1,1);"/>
                                                    <path d="M137.979,341.64C136.544,346.751 137.775,348.869 132.503,348.911C113.684,349.062 111.865,349.153 112.556,346.512C112.609,346.307 132.728,272.445 142.961,234.624C144.544,228.774 146.467,230.503 152.5,230.504C177.015,230.51 178.524,229.699 179.547,233.486C181.944,242.366 209.221,343.423 209.508,344.498C210.277,347.379 211.552,348.814 208.564,348.91C206.793,348.967 189.091,349.536 186.413,348.791C182.904,347.815 180.463,322.788 176.521,322.349C176.044,322.296 145.231,322.208 144.475,322.393C142.829,322.795 142.386,325.033 137.979,341.64ZM150.91,289.598C148.262,301.098 147.146,303.859 149.405,303.96C151.337,304.046 172.161,304.976 173.581,303.587C175.04,302.159 163.162,261.148 161.978,251.139C161.171,244.314 159.484,254.153 159.427,254.484C158.738,258.5 151.616,286.795 150.91,289.598Z" style="fill:rgb(1,1,1);"/>
                                                </g>
                                            </g>
                                        </g>
                                    </g>
                                </g>
                                <path d="M944.16,510.977C944.16,510.977 936.478,557.398 995.257,549.383C995.257,549.383 1054.369,542.091 1111.218,495.707C1111.218,495.707 1179.496,540.236 1240.056,557.157" style="fill:none;stroke:black;stroke-width:4.17px;"/>
                                <path d="M944.16,510.977C944.16,510.977 859.614,552.745 845.253,562.501" style="fill:none;stroke:black;stroke-width:4.17px;"/>
                                <path d="M829.175,619.608C829.175,619.608 792.47,685.377 821.541,727.241" style="fill:none;stroke:black;stroke-width:4.17px;"/>
                                <g transform="matrix(1,0,0,0.944014,42.747949,40.047413)">
                                    <path d="M845.253,721.404C845.253,721.404 922.304,704.382 969.394,727.241" style="fill:none;stroke:black;stroke-width:4.28px;"/>
                                </g>
                                <path d="M819.758,727.241C819.758,727.241 772.668,780.635 763.431,874.91C763.431,874.91 761.675,899.636 762.744,908.606C762.744,908.606 761.523,915.323 763.278,924.522C763.278,924.522 767.286,958.72 769.423,962.728C769.423,962.728 858.179,981.427 985.278,979.136C985.278,979.136 1166.957,971.726 1223.636,945.612C1223.636,945.612 1224.431,912.987 1226.101,909.981C1226.101,909.981 1226.361,900.574 1227.251,895.825C1227.251,895.825 1228.587,861.537 1230.665,847.288C1230.665,847.288 1240.276,776.296 1260.76,695.202" style="fill:none;stroke:black;stroke-width:4.17px;"/>
                            </g>
                            <g id="r-hand" serif:id="r hand" transform="matrix(1,0,0,1,-124.653024,-24.609598)">
                                <path d="M1310.002,774.791L1345.003,756.253L1410.859,734.216L1452.368,724.633L1435.397,661.864L1424.71,631.288L1406.305,602.195L1388.493,590.915L1361.635,583.486C1361.635,583.486 1269.76,569.882 1286.72,705.028" style="fill:rgb(206,206,206);"/>
                                <path d="M1403.229,601.507C1403.229,601.507 1355.883,558.558 1293.32,687.804" style="fill:none;stroke:black;stroke-width:4.17px;"/>
                                <path d="M1452.368,724.633C1450.045,714.83 1447.288,704.874 1444.019,695.202C1444.019,695.202 1432.092,642.213 1420.26,623.51C1420.26,623.51 1408.809,594.121 1366.443,582.289M1286.72,705.237C1286.72,705.237 1298.894,741.472 1310.002,774.791" style="fill:none;stroke:black;stroke-width:4.17px;"/>
                                <g transform="matrix(1,0,0,1,293.287599,-7.451364)">
                                    <path d="M1016.714,782.242C1016.714,782.242 1054.961,754.367 1159.08,732.084" style="fill:none;stroke:black;stroke-width:4.17px;"/>
                                </g>
                            </g>
                        </g>
                    </g>
                </g>
            </g>
        </g>
    </g>
</svg>
