<?xml version="1.0" encoding="UTF-8" standalone="no"?>
<!DOCTYPE svg PUBLIC "-//W3C//DTD SVG 1.1//EN" "http://www.w3.org/Graphics/SVG/1.1/DTD/svg11.dtd">
<svg width="100%" height="100%" viewBox="0 0 1581 1340" version="1.1" xmlns="http://www.w3.org/2000/svg" xmlns:xlink="http://www.w3.org/1999/xlink" xml:space="preserve" xmlns:serif="http://www.serif.com/" style="fill-rule:evenodd;clip-rule:evenodd;stroke-linecap:round;stroke-linejoin:round;stroke-miterlimit:1.5;">
    <g transform="matrix(1,0,0,1,-83.65441,-453.044033)">
        <g transform="matrix(0.658634,0,0,0.658634,874.015748,1122.655722)">
            <g transform="matrix(1,0,0,1,-1200,-1016.666667)">
                <clipPath id="_clip1">
                    <rect x="0" y="0" width="2400" height="2033.333"/>
                </clipPath>
                <g clip-path="url(#_clip1)">
                    <g transform="matrix(4.166667,0,0,4.166667,-2441.647642,-2190.352254)">
                        <g transform="matrix(1,0,0,1,-168.634575,32.060962)">
                            <g id="l-hand" serif:id="l hand" transform="matrix(1,0,0,1,113.103953,-9.70106)">
                                <path d="M736.677,761.034L698.286,748.826L669.111,731.041L672.021,711.34L685.113,647.752C685.113,647.752 701.429,589.16 727.069,575.307L730.046,573.81C730.046,573.81 810.351,564.216 787.886,707.655L772.332,766.612" style="fill:rgb(206,206,206);"/>
                                <path d="M772.332,766.612C776.986,750.96 780.935,737.297 781.684,733.555C781.684,733.555 787.886,713.159 787.886,708.579M730.046,573.81C730.046,573.81 697.603,585.037 681.573,666.176C681.573,666.176 675.105,700.53 669.111,731.041" style="fill:none;stroke:black;stroke-width:4.17px;"/>
                                <g transform="matrix(1,0,0,1,55.530621,-22.359902)">
                                    <path d="M613.58,753.401C613.58,753.401 636.751,778.346 716.801,788.972" style="fill:none;stroke:black;stroke-width:4.17px;"/>
                                </g>
                            </g>
                            <g id="body">
                                <path d="M843.762,563.975C843.762,563.975 802.202,585.941 822.24,633.358C822.24,633.358 798.565,689.481 819.346,724.395L818.752,727.545C818.752,727.545 785.415,773.558 776.108,812.447C766.801,851.336 765.057,861.967 764.389,872.654C764.389,872.654 764.208,905.82 762.13,909.085C762.13,909.085 763.13,911.808 763.536,925.662L769.176,962.77L776.108,963.957C776.108,963.957 923.126,985.543 1014.086,977.91C1014.086,977.91 1195.409,965.004 1223.462,945.634L1226.245,910.363L1227.467,897.017L1228.479,882.652L1229.807,850.694L1235.745,814.774L1252.666,725.419L1260.76,695.202C1260.76,695.202 1316.835,579.514 1240.056,557.157L1193.935,539.966L1153.948,520.536L1129.635,506.723L1110.398,495.707C1110.398,495.707 1052.328,548.423 977.987,550.727C977.987,550.727 941.861,549.695 943.83,511.675L866.894,549.784L843.762,563.975Z" style="fill:rgb(206,206,206);"/>
                                <path d="M944.16,510.977C944.16,510.977 936.478,557.398 995.257,549.383C995.257,549.383 1054.369,542.091 1111.218,495.707C1111.218,495.707 1179.496,540.236 1240.056,557.157" style="fill:none;stroke:black;stroke-width:4.17px;"/>
                                <path d="M944.16,510.977C944.16,510.977 859.614,552.745 845.253,562.501" style="fill:none;stroke:black;stroke-width:4.17px;"/>
                                <path d="M829.175,619.608C829.175,619.608 792.47,685.377 821.541,727.241" style="fill:none;stroke:black;stroke-width:4.17px;"/>
                                <g transform="matrix(1,0,0,0.944014,42.747949,40.047413)">
                                    <path d="M845.253,721.404C845.253,721.404 922.304,704.382 969.394,727.241" style="fill:none;stroke:black;stroke-width:4.28px;"/>
                                </g>
                                <path d="M819.758,727.241C819.758,727.241 772.668,780.635 763.431,874.91C763.431,874.91 761.675,899.636 762.744,908.606C762.744,908.606 761.523,915.323 763.278,924.522C763.278,924.522 767.286,958.72 769.423,962.728C769.423,962.728 858.179,981.427 985.278,979.136C985.278,979.136 1166.957,971.726 1223.636,945.612C1223.636,945.612 1224.431,912.987 1226.101,909.981C1226.101,909.981 1226.361,900.574 1227.251,895.825C1227.251,895.825 1228.587,861.537 1230.665,847.288C1230.665,847.288 1240.276,776.296 1260.76,695.202" style="fill:none;stroke:black;stroke-width:4.17px;"/>
                            </g>
                            <g id="r-hand" serif:id="r hand" transform="matrix(1,0,0,1,-124.653024,-24.609598)">
                                <path d="M1310.002,774.791L1345.003,756.253L1410.859,734.216L1452.368,724.633L1435.397,661.864L1424.71,631.288L1406.305,602.195L1388.493,590.915L1361.635,583.486C1361.635,583.486 1269.76,569.882 1286.72,705.028" style="fill:rgb(206,206,206);"/>
                                <path d="M1403.229,601.507C1403.229,601.507 1355.883,558.558 1293.32,687.804" style="fill:none;stroke:black;stroke-width:4.17px;"/>
                                <path d="M1452.368,724.633C1450.045,714.83 1447.288,704.874 1444.019,695.202C1444.019,695.202 1432.092,642.213 1420.26,623.51C1420.26,623.51 1408.809,594.121 1366.443,582.289M1286.72,705.237C1286.72,705.237 1298.894,741.472 1310.002,774.791" style="fill:none;stroke:black;stroke-width:4.17px;"/>
                                <g transform="matrix(1,0,0,1,293.287599,-7.451364)">
                                    <path d="M1016.714,782.242C1016.714,782.242 1054.961,754.367 1159.08,732.084" style="fill:none;stroke:black;stroke-width:4.17px;"/>
                                </g>
                            </g>
                        </g>
                    </g>
                </g>
            </g>
        </g>
    </g>
</svg>
