<?xml version="1.0" encoding="UTF-8" standalone="no"?>
<svg width="100%" height="100%" viewBox="0 0 599 491" version="1.1" xmlns="http://www.w3.org/2000/svg" xmlns:xlink="http://www.w3.org/1999/xlink" xml:space="preserve" xmlns:serif="http://www.serif.com/" style="fill-rule:evenodd;clip-rule:evenodd;stroke-linecap:round;stroke-linejoin:round;stroke-miterlimit:1.5;">
    <g transform="matrix(1,0,0,1,-574.844542,-525.684541)">
        <g transform="matrix(1,0,0,1,-168.634575,32.060962)">
            <g id="l-hand" serif:id="l hand" transform="matrix(1,0,0,1,113.103953,-9.70106)">
                <path d="M727.069,575.307L730.046,573.81C730.046,573.81 810.351,564.216 787.886,707.655L776.108,759.531L754.845,824.321L751.506,855.714L748.834,873.749L740.485,901.468L729.13,929.521L727.794,946.723L726.792,951.263L717.835,958.33L705.685,989.245C705.685,989.245 680.571,967.56 636.487,968.896L635.685,958.33L637.556,937.37L632.458,922.141L632.458,917.599L640.087,882.332L643.433,837.179L650.113,806.988L662.403,762.905L672.021,711.34L685.113,647.752C685.113,647.752 701.429,589.16 727.069,575.307Z" style="fill:rgb(29,29,29);"/>
                <path d="M730.046,573.81C730.046,573.81 697.603,585.037 681.573,666.176C681.573,666.176 663.634,761.468 659.817,775.59C659.817,775.59 642.641,829.788 643.405,851.926C643.405,851.926 636.153,903.071 633.481,916.048C633.481,916.048 628.949,921.32 638.968,937.35C638.968,937.35 634.923,966.387 635.814,969.355C635.814,969.355 681.308,967.741 705.279,989.245C705.279,989.245 714.89,965.997 715.558,962.323C715.558,962.323 724.909,954.642 726.913,949.633C726.913,949.633 727.247,939.948 729.251,930.262C729.251,930.262 747.285,884.175 749.623,866.808C749.623,866.808 753.823,832.744 754.729,824.728C754.729,824.728 779.68,743.574 781.684,733.555C781.684,733.555 787.886,713.159 787.886,708.579" style="fill:none;stroke:black;stroke-width:4.17px;"/>
                <path d="M692.186,794.466C692.186,794.466 714.629,810.36 717.835,826.39" style="fill:none;stroke:black;stroke-width:4.17px;"/>
                <path d="M640.087,936.956C640.087,936.956 680.253,925.824 717.835,958.33" style="fill:none;stroke:black;stroke-width:4.17px;"/>
            </g>
            <g id="body">
                <path d="M843.762,563.975C843.762,563.975 802.202,585.941 822.24,633.358C822.24,633.358 798.565,689.481 819.346,724.395L818.752,727.545C818.752,727.545 785.415,773.558 776.108,812.447C766.801,851.336 765.057,861.967 764.389,872.654C764.389,872.654 756.708,901.32 754.63,904.585C754.63,904.585 754.63,914.975 763.536,925.662L769.176,962.77L776.108,963.957C776.108,963.957 923.126,985.543 1014.086,977.91C1014.086,977.91 1195.409,965.004 1223.462,945.634L1226.245,910.363L1233.667,895.817L1232.479,883.052L1229.807,850.694L1235.745,814.774L1252.666,725.419L1260.76,695.202C1260.76,695.202 1316.835,579.514 1240.056,557.157L1193.935,539.966L1153.948,520.536L1129.635,506.723L1110.398,495.707C1110.398,495.707 1052.328,548.423 977.987,550.727C977.987,550.727 941.861,549.695 943.83,511.675L866.894,549.784L843.762,563.975Z" style="fill:rgb(29,29,29);"/>
                <clipPath id="_clip1">
                    <path d="M843.762,563.975C843.762,563.975 802.202,585.941 822.24,633.358C822.24,633.358 798.565,689.481 819.346,724.395L818.752,727.545C818.752,727.545 785.415,773.558 776.108,812.447C766.801,851.336 765.057,861.967 764.389,872.654C764.389,872.654 756.708,901.32 754.63,904.585C754.63,904.585 754.63,914.975 763.536,925.662L769.176,962.77L776.108,963.957C776.108,963.957 923.126,985.543 1014.086,977.91C1014.086,977.91 1195.409,965.004 1223.462,945.634L1226.245,910.363L1233.667,895.817L1232.479,883.052L1229.807,850.694L1235.745,814.774L1252.666,725.419L1260.76,695.202C1260.76,695.202 1316.835,579.514 1240.056,557.157L1193.935,539.966L1153.948,520.536L1129.635,506.723L1110.398,495.707C1110.398,495.707 1052.328,548.423 977.987,550.727C977.987,550.727 941.861,549.695 943.83,511.675L866.894,549.784L843.762,563.975Z"/>
                </clipPath>
                <g clip-path="url(#_clip1)">
                    <g transform="matrix(0.059168,0,0,0.059168,950.071506,673.71884)">
                        <g transform="matrix(1,0,0,1,-3643.75,-5168.75)">
                            <g id="alo-yoga-1.jpg" transform="matrix(4.903158,0,0,4.903158,1383.333333,2983.333333)">
                                <path d="M526.5,163.05C530.783,163.219 531.899,161.739 532.591,164.475C532.776,165.206 532.68,441.658 532.639,442.524C532.514,445.183 523.948,444.34 521.5,444.34C500.215,444.34 498.333,445.156 498.31,441.506C498.309,441.322 498.303,166.24 498.313,165.49C498.356,162.433 500.048,163.05 526.5,163.05Z" style="fill:rgb(254,254,254);"/>
                                <path d="M372.42,277.083C376.079,276.525 397.741,273.223 418.467,281.584C436.251,288.758 434.854,291.27 436.465,291.624C440.904,292.6 434.476,281.303 441.499,281.304C470.944,281.31 472.28,280.858 472.538,283.497C472.55,283.625 472.602,441.955 472.51,442.502C472.142,444.685 471.084,444.354 441.5,444.343C436.771,444.341 438.148,442.196 438.17,437.502C438.201,430.732 434.708,436.415 425.306,441.145C357.045,475.491 286.21,408.034 305.863,339.605C321.679,284.539 370.873,277.453 372.42,277.083ZM388.501,311.113C384.998,311.191 362.481,311.696 348.885,329.813C315.927,373.73 358.062,423.486 397.582,413.863C456.799,399.443 448.001,313.637 388.501,311.113Z" style="fill:rgb(254,254,254);"/>
                                <path d="M621.423,277.062C627.428,276.159 665.367,270.454 694.124,298.871C758.208,362.194 700.197,464.742 620.466,448.673C552.6,434.995 533.227,351.858 570.784,307.736C589.789,285.409 604.735,281.04 621.423,277.062ZM635.498,311.113C580.651,313.623 569.337,386.262 613.65,409.214C664.587,435.597 713.862,366.637 670.352,324.652C657.412,312.165 638.486,311.257 635.498,311.113Z" style="fill:rgb(254,254,254);"/>
                            </g>
                        </g>
                    </g>
                </g>
                <path d="M944.16,510.977C944.16,510.977 936.478,557.398 995.257,549.383C995.257,549.383 1054.369,542.091 1111.218,495.707C1111.218,495.707 1179.496,540.236 1240.056,557.157" style="fill:none;stroke:black;stroke-width:4.17px;"/>
                <path d="M944.16,510.977C944.16,510.977 859.614,552.745 845.253,562.501" style="fill:none;stroke:black;stroke-width:4.17px;"/>
                <path d="M829.175,619.608C829.175,619.608 792.47,685.377 821.541,727.241" style="fill:none;stroke:black;stroke-width:4.17px;"/>
                <g transform="matrix(1,0,0,0.944014,42.747949,40.047413)">
                    <path d="M845.253,721.404C845.253,721.404 922.304,704.382 969.394,727.241" style="fill:none;stroke:black;stroke-width:4.28px;"/>
                </g>
                <path d="M819.758,727.241C819.758,727.241 772.668,780.635 763.431,874.91C763.431,874.91 759.003,896.201 754.729,905.552C754.729,905.552 755.797,918.377 763.278,924.522C763.278,924.522 767.286,958.72 769.423,962.728C769.423,962.728 858.179,981.427 985.278,979.136C985.278,979.136 1166.957,971.726 1223.636,945.612C1223.636,945.612 1224.431,912.987 1226.101,909.981C1226.101,909.981 1233.04,900.129 1233.931,895.379C1233.931,895.379 1228.587,861.537 1230.665,847.288C1230.665,847.288 1240.276,776.296 1260.76,695.202" style="fill:none;stroke:black;stroke-width:4.17px;"/>
                <path d="M763.278,924.522C763.278,924.522 977.554,963.194 1206.256,917.953" style="fill:none;stroke:black;stroke-width:4.17px;"/>
                <path d="M810.341,885.179C810.341,885.179 887.249,907.444 1044.882,869.149" style="fill:none;stroke:black;stroke-width:4.17px;"/>
            </g>
            <g id="r-hand" serif:id="r hand" transform="matrix(1,0,0,1,-124.653024,-24.609598)">
                <path d="M1288.112,709.383L1316.548,794.466L1327.971,827.457L1326.746,838.2L1327.637,860.761L1331.496,893.416L1335.949,915.383L1333.277,939.429L1337.433,948.038L1338.62,985.739C1338.62,985.739 1403.93,979.16 1420.257,1006.644L1430.944,971.193L1437.178,967.631L1446.381,958.428L1450.834,911.524L1453.506,894.603L1464.391,837.606L1464.391,805.842L1458.552,756.86L1445.193,697.488L1435.397,661.864L1424.71,631.288L1406.305,602.195L1388.493,590.915L1361.635,583.486C1361.635,583.486 1269.76,569.882 1286.72,705.028" style="fill:rgb(29,29,29);"/>
                <path d="M1403.229,601.507C1403.229,601.507 1355.883,558.558 1293.32,687.804" style="fill:none;stroke:black;stroke-width:4.17px;"/>
                <path d="M1286.72,705.237C1286.72,705.237 1324.57,817.896 1327.687,828.583C1327.687,828.583 1324.57,865.72 1336.147,917.953C1336.147,917.953 1333.81,938.314 1333.476,939.917C1333.476,939.917 1333.81,943.524 1337.483,948.533C1337.483,948.533 1339.487,981.93 1338.485,986.272C1338.485,986.272 1401.939,977.588 1420.641,1006.644C1420.641,1006.644 1428.991,975.585 1432.33,971.243C1432.33,971.243 1444.019,964.898 1446.023,958.886C1446.023,958.886 1450.031,914.134 1452.702,898.438C1452.702,898.438 1463.723,845.003 1464.391,807.932C1464.391,807.932 1461.672,747.429 1444.019,695.202C1444.019,695.202 1432.092,642.213 1420.26,623.51C1420.26,623.51 1408.809,594.121 1366.443,582.289" style="fill:none;stroke:black;stroke-width:4.17px;"/>
                <path d="M1338.899,947.778C1338.899,947.778 1411.799,929.076 1429.356,966.098" style="fill:none;stroke:black;stroke-width:4.17px;"/>
            </g>
        </g>
    </g>
</svg>
