<?xml version="1.0" encoding="UTF-8" standalone="no"?>
<!DOCTYPE svg PUBLIC "-//W3C//DTD SVG 1.1//EN" "http://www.w3.org/Graphics/SVG/1.1/DTD/svg11.dtd">
<svg width="100%" height="100%" viewBox="0 0 559 627" version="1.1" xmlns="http://www.w3.org/2000/svg" xmlns:xlink="http://www.w3.org/1999/xlink" xml:space="preserve" xmlns:serif="http://www.serif.com/" style="fill-rule:evenodd;clip-rule:evenodd;stroke-linecap:round;stroke-linejoin:round;stroke-miterlimit:1.5;">
    <g transform="matrix(1,0,0,1,-465.589529,-1524.289357)">
        <g>
            <g id="l-hand" serif:id="l hand" transform="matrix(1.029557,0,0,1.001941,84.328974,257.311645)">
                <path d="M497.702,1441.797C497.702,1441.797 486.23,1472.062 484.862,1476.337C483.495,1480.612 471.592,1511.344 471.592,1511.344C445.807,1482.397 413.344,1471.402 372.372,1465.072L389.93,1389.57C389.93,1389.57 401.044,1360.074 411.945,1350.669C411.945,1350.669 438.235,1329.723 447.853,1326.516C457.472,1323.31 467.731,1321.411 467.731,1321.411L475.084,1321.411C475.084,1321.411 522.866,1327.404 497.702,1441.797Z" style="fill:rgb(34,34,34);"/>
                <path d="M471.592,1511.344C482.784,1482.079 494.827,1450.355 497.702,1441.901M474.154,1321.411C474.154,1321.411 404.307,1324.082 387.513,1398.891C387.513,1398.891 380.283,1430.25 372.372,1465.072" style="fill:none;stroke:black;stroke-width:4.17px;"/>
                <g transform="matrix(0.971291,0,0,0.998063,-81.908005,-256.813285)">
                    <path d="M467.708,1725.227C467.708,1725.227 542.201,1734.419 569.86,1771.588" style="fill:none;stroke:black;stroke-width:4.17px;"/>
                </g>
            </g>
            <g id="body">
                <g>
                    <path d="M832.232,2136.517C687.431,2163.335 494.747,2135.489 474.141,2121.102C474.141,2121.102 474.692,2095.304 474.141,2059.334C473.198,1997.901 473.898,1904.875 498.332,1846.108C498.332,1846.108 507.874,1817.1 510.546,1812.52C510.546,1812.52 511.309,1802.596 509.019,1798.398C509.019,1798.398 489.625,1767.315 489.291,1749.949C489.291,1749.949 483.614,1719.891 500.312,1697.182C500.312,1697.182 518.012,1667.124 540.388,1653.098L546.734,1648.422L549.072,1641.075C549.072,1641.075 519.62,1607.284 554.865,1587.703C554.865,1587.703 661.573,1540.916 669.913,1538.467C669.913,1538.467 666.331,1563.57 685.3,1569.181C685.3,1569.181 702.052,1578.532 740.873,1565.441C740.873,1565.441 793.052,1542.343 804.006,1526.373C804.006,1526.373 872.403,1558.227 882.021,1558.761C882.021,1558.761 906.334,1565.441 911.678,1568.38C917.021,1571.318 940.75,1581.959 940.75,1581.959C940.75,1581.959 1000.83,1651.76 920.252,1694.263C920.252,1694.263 910.318,1765.658 910.912,1797.719L909.13,1841.591C909.13,1841.591 910.34,2014.457 928.783,2111.207C924.301,2117.556 845.785,2133.3 843.344,2134.28" style="fill:rgb(34,34,34);"/>
                    <path d="M597.735,1873.408L588.116,1874.049L580.208,1878.98L574.864,1884.736L571.295,1892.153L570.44,1902.412L573.005,1913.869L580.871,1924.47L591.301,1928.574L603.783,1925.154L610.965,1918.144L615.411,1908.397L616.266,1896.428L614.043,1886.168L606.861,1878.98L597.735,1873.408Z" style="fill:rgb(255,185,0);"/>
                    <path d="M488.245,1877.819C488.245,1877.819 553.74,1886.919 572.335,1886.657L570.44,1895.8L570.44,1905.204L574.737,1915.464L481.71,1908.41L484.274,1889.162L488.245,1877.819Z" style="fill:rgb(13,13,13);"/>
                    <path d="M613.469,1889.162L616.266,1896.641L616.266,1906.202L613.469,1912.186L612.126,1915.464L622.386,1915.464L655.943,1918.171L721.134,1915.464L743.79,1915.464L803.21,1909.194L856.858,1900.991L907.942,1894.018L909.225,1886.657L908.797,1866.475L884.858,1869.652L853.652,1873.408L797.866,1882.31L746.783,1886.657L687.577,1889.162L613.469,1889.162Z" style="fill:rgb(13,13,13);"/>
                </g>
                <g transform="matrix(1,0,0,1,0,5.343494)">
                    <path d="M613.469,1883.11C689.318,1885.537 793.007,1882.553 905.705,1861.132M488.245,1872.62C488.245,1872.62 520.681,1878.012 574.737,1881.313" style="fill:none;stroke:black;stroke-width:4.17px;"/>
                </g>
                <ellipse cx="593.111" cy="1900.896" rx="22.932" ry="27.608" style="fill:none;stroke:black;stroke-width:4.17px;"/>
                <g transform="matrix(1.042122,0,0,1,-38.150552,33.643231)">
                    <path d="M623.968,1883.678C698.129,1885.43 797.375,1881.723 905.705,1861.132M497.902,1874.234C510.694,1876.043 542.325,1880.016 587.425,1882.318" style="fill:none;stroke:black;stroke-width:4.08px;"/>
                </g>
                <path d="M669.913,1538.467C669.913,1538.467 585.944,1575.108 558.463,1584.268C530.983,1593.429 669.913,1538.467 669.913,1538.467Z" style="fill:none;stroke:black;stroke-width:4.17px;"/>
                <path d="M669.913,1538.467C669.913,1538.467 656.733,1587.37 734.441,1567.689C734.441,1567.689 769.424,1559.436 804.157,1526.373C804.157,1526.373 861.266,1555.981 893.661,1561.883C893.661,1561.883 913.365,1567.411 936.742,1579.287" style="fill:none;stroke:black;stroke-width:4.17px;"/>
                <path d="M474.141,2121.102C474.141,2121.102 468.953,1966.865 482.846,1895.214C482.846,1895.214 501.682,1831.356 507.471,1819.778C507.471,1819.778 516.027,1807.469 505.721,1792.965C505.721,1792.965 478.24,1754.034 491.599,1715.103C491.599,1715.103 501.523,1676.553 546.943,1648.691C546.943,1648.691 551.523,1641.057 549.614,1636.859M918.63,1694.949C918.63,1694.949 890.577,1875.796 928.783,2109.841" style="fill:none;stroke:black;stroke-width:4.17px;"/>
                <path d="M474.141,2122.31C474.141,2122.31 693.027,2189.64 928.783,2111.207" style="fill:none;stroke:black;stroke-width:4.17px;"/>
                <path d="M554.865,1809.505C554.865,1809.505 627.517,1791.693 697.567,1825.535" style="fill:none;stroke:black;stroke-width:4.17px;"/>
            </g>
            <g id="r-hand" serif:id="r hand" transform="matrix(1.029557,0,0,1.001941,-127.746021,248.470439)">
                <path d="M993.048,1506.068C993.048,1506.068 1075.174,1501.369 1117.137,1471.402C1120.124,1469.269 1115.751,1461.988 1113.828,1456.645C1111.904,1451.301 1104.866,1419.329 1102.301,1413.986C1099.736,1408.642 1094.82,1386.199 1090.759,1380.428C1086.698,1374.657 1068.958,1347.085 1064.683,1344.52C1060.408,1341.955 1042.069,1327.08 1025.996,1324.611C1009.923,1322.142 939.976,1347.596 972.382,1443.645L993.048,1506.068Z" style="fill:rgb(34,34,34);"/>
                <g transform="matrix(0.971291,0,0,0.998063,124.078609,-247.989203)">
                    <path d="M895.508,1757.461C895.508,1757.461 974.324,1752.117 1021.525,1722.728" style="fill:none;stroke:black;stroke-width:4.17px;"/>
                </g>
                <path d="M1117.137,1471.402C1112.967,1453.491 1106.373,1426.769 1099.152,1403.652C1099.152,1403.652 1084.606,1340.048 1027.312,1324.611M972.382,1445.376C972.382,1445.376 982.149,1474.511 993.048,1506.068" style="fill:none;stroke:black;stroke-width:4.17px;"/>
            </g>
        </g>
    </g>
</svg>
