<?xml version="1.0" encoding="UTF-8" standalone="no"?>
<svg width="100%" height="100%" viewBox="0 0 408 454" version="1.1" xmlns="http://www.w3.org/2000/svg" xmlns:xlink="http://www.w3.org/1999/xlink" xml:space="preserve" xmlns:serif="http://www.serif.com/" style="fill-rule:evenodd;clip-rule:evenodd;stroke-linecap:round;stroke-linejoin:round;stroke-miterlimit:1.5;">
    <g transform="matrix(1,0,0,1,-601.899183,-1578.029941)">
        <g transform="matrix(1,0,0,1,0,3)">
            <g id="l-hand" serif:id="l hand" transform="matrix(1,0,0,1,28.832602,-14.596884)">
                <path d="M663.175,1636.901C663.175,1636.901 616.283,1640.441 602.687,1695.438C602.687,1695.438 597.771,1732.414 604.611,1751.865C604.611,1751.865 600.336,1770.46 602.901,1790.124C602.901,1790.124 603.328,1814.277 603.115,1819.62C603.115,1819.62 590.931,1886.735 589.649,1893.574C589.649,1893.574 582.596,1949.147 582.168,1955.559C581.741,1961.971 575.15,2020.108 575.15,2020.108C575.15,2020.108 608.031,2024.561 620.641,2040.716L637.74,2001.727C637.74,2001.727 658.687,1951.284 659.542,1947.437C660.397,1943.589 666.595,1912.17 666.595,1909.605C666.595,1907.04 669.374,1880.75 669.374,1880.75L676.427,1838.808L684.122,1772.384L687.3,1749.086C687.3,1749.086 713.404,1632.146 663.175,1636.901Z" style="fill:rgb(34,34,34);"/>
                <path d="M687.3,1749.273C687.3,1749.273 674.386,1855.984 669.806,1876.976C669.806,1876.976 665.226,1930.793 658.737,1949.877C658.737,1949.877 625.531,2032.701 620.951,2040.716C620.951,2040.716 603.776,2021.25 575.15,2019.724C575.15,2019.724 586.6,1899.877 590.417,1890.335C590.417,1890.335 598.051,1854.839 599.959,1843.388C599.959,1843.388 604.921,1816.671 603.776,1809.037C603.776,1809.037 600.722,1763.618 604.539,1752.931C604.539,1752.931 592.325,1701.404 611.791,1672.397C611.791,1672.397 627.058,1641.862 663.318,1636.901" style="fill:none;stroke:black;stroke-width:4.17px;"/>
                <path d="M621.651,1854.394C621.651,1854.394 638.127,1874.432 641.244,1892.689" style="fill:none;stroke:black;stroke-width:4.17px;"/>
            </g>
            <g id="body" transform="matrix(1,0,0,1,0,-3)">
                <path d="M914.144,1713.591C914.144,1713.591 888.911,1836.194 888.911,1846.881C888.477,1850.354 915.984,1911.155 924.505,1929.705C919.179,1936.665 867.405,1952.262 810.368,1959.421C742.882,1967.892 681.868,1954.406 674.048,1944.071C674.048,1944.071 698.094,1871.892 697.797,1868.626L690.455,1808.475C690.455,1808.475 682.877,1805.465 679.67,1803.859C679.67,1803.859 660.006,1793.491 653.594,1777.674C653.594,1777.674 643.761,1755.445 649.853,1734.285C649.853,1734.285 657.014,1706.285 672.19,1692.605C672.19,1692.605 683.945,1678.926 685.655,1675.934L688.434,1666.175C688.434,1666.175 674.088,1638.196 690.448,1627.078C706.809,1615.959 748.052,1595.737 748.052,1595.737C748.052,1595.737 737.808,1621.813 760.037,1620.339C760.037,1620.339 784.617,1619.204 813.472,1595.737L819.029,1593.644L836.555,1580.113C836.555,1580.113 859.426,1595.053 869.471,1600.226C869.471,1600.226 905.612,1617.797 910.839,1617.583C910.839,1617.583 968.421,1647.408 914.144,1713.591Z" style="fill:rgb(34,34,34);"/>
                <path d="M748.052,1595.737C748.052,1595.737 707.725,1615.62 690.455,1624.854" style="fill:none;stroke:black;stroke-width:4.17px;"/>
                <path d="M748.052,1595.737C748.052,1595.737 730.711,1635.151 784.2,1614.205C784.2,1614.205 821.893,1595.161 837.453,1580.113C837.453,1580.113 858.131,1595.906 882.772,1607.503C891.868,1611.783 901.504,1615.492 910.839,1617.625" style="fill:none;stroke:black;stroke-width:4.17px;"/>
                <path d="M719.254,1803.577C719.254,1803.577 744.192,1791.108 798.072,1808.475" style="fill:none;stroke:black;stroke-width:2.08px;"/>
                <path d="M924.505,1930.456C752.739,1992.495 673.644,1944.883 673.644,1944.883C673.644,1944.883 696.831,1881.862 697.165,1868.838C697.165,1868.838 692.762,1817.073 690.455,1809.057C690.455,1809.057 665.123,1803.324 652.358,1774.826C652.358,1774.826 640.483,1745.139 655.623,1717.531C655.623,1717.531 661.264,1703.579 683.825,1678.94C683.825,1678.94 689.564,1671.221 689.663,1666.175M913.789,1713.957C913.789,1713.957 889.624,1822.95 888.097,1844.324C888.097,1844.324 892.128,1863.718 904.151,1886.094C916.174,1908.47 920.646,1920.957 924.505,1930.456" style="fill:none;stroke:black;stroke-width:4.17px;"/>
            </g>
            <g id="r-hand" serif:id="r hand" transform="matrix(1,0,0,1,-95.47936,10.361494)">
                <path d="M984.315,1698.89L987.822,1708.508C987.822,1708.508 994.502,1762.21 1005.189,1795.34C1005.189,1795.34 1022.983,1858.687 1023.837,1860.825C1024.692,1862.962 1023.624,1868.092 1023.624,1868.092C1023.624,1868.092 1024.906,1901.863 1026.402,1912.763L1028.967,1937.985L1031.318,2003.389C1031.318,2003.389 1055.257,1997.404 1071.501,2002.748L1088.387,2010.576L1090.311,1999.755L1098.433,1924.733L1102.552,1888.183C1102.552,1888.183 1098.646,1847.145 1097.791,1842.229C1096.936,1837.313 1095.013,1799.909 1095.013,1799.909C1095.013,1799.909 1093.944,1752.886 1092.662,1746.474L1084.967,1713.344C1084.967,1713.344 1086.891,1701.375 1085.395,1694.963C1085.395,1694.963 1079.41,1660.978 1076.631,1655.634C1076.631,1655.634 1061.456,1628.062 1057.822,1625.711C1057.822,1625.711 1031.746,1602.658 1005.67,1604.566C1005.67,1604.566 944.259,1611.497 984.315,1698.89Z" style="fill:rgb(34,34,34);"/>
                <clipPath id="_clip1">
                    <path d="M984.315,1698.89L987.822,1708.508C987.822,1708.508 994.502,1762.21 1005.189,1795.34C1005.189,1795.34 1022.983,1858.687 1023.837,1860.825C1024.692,1862.962 1023.624,1868.092 1023.624,1868.092C1023.624,1868.092 1024.906,1901.863 1026.402,1912.763L1028.967,1937.985L1031.318,2003.389C1031.318,2003.389 1055.257,1997.404 1071.501,2002.748L1088.387,2010.576L1090.311,1999.755L1098.433,1924.733L1102.552,1888.183C1102.552,1888.183 1098.646,1847.145 1097.791,1842.229C1096.936,1837.313 1095.013,1799.909 1095.013,1799.909C1095.013,1799.909 1093.944,1752.886 1092.662,1746.474L1084.967,1713.344C1084.967,1713.344 1086.891,1701.375 1085.395,1694.963C1085.395,1694.963 1079.41,1660.978 1076.631,1655.634C1076.631,1655.634 1061.456,1628.062 1057.822,1625.711C1057.822,1625.711 1031.746,1602.658 1005.67,1604.566C1005.67,1604.566 944.259,1611.497 984.315,1698.89Z"/>
                </clipPath>
                <g clip-path="url(#_clip1)">
                    <g transform="matrix(0.003066,0.052152,-0.052221,0.001887,1055.595671,1822.329094)">
                        <g transform="matrix(1,0,0,1,-3643.75,-5168.75)">
                            <g id="Balenciaga-Logo-2017-present.jpg" transform="matrix(6.559246,0,0,6.559246,283.333333,2800)">
                                <path d="M420.896,335.5C420.896,232.572 420.895,232.58 420.903,232.527C421.335,229.788 422.659,229.997 455.499,230.516C459.569,230.58 458.206,232.812 478.785,291.392C490.394,324.437 486.472,327.292 489.468,327.293C491.073,327.293 489.841,318.388 489.785,317.493C488.903,303.406 489.234,232.193 489.507,231.503C490.067,230.089 490.533,230.189 508.499,230.51C510.978,230.555 510.734,232.599 510.736,233.497C510.757,242.62 510.999,346.184 510.632,347.537C510.292,348.787 509.788,348.991 478.495,348.91C475.561,348.902 475.291,348.338 472.687,340.439C461.067,305.19 447.952,273.72 443.321,250.577C443.02,249.073 441.094,248.995 441.292,251.473C441.896,259.052 443.361,277.402 442.632,346.506C442.603,349.279 441.197,349.044 423.487,348.908C419.677,348.879 420.917,341.085 420.896,335.5Z" style="fill:none;stroke:white;stroke-width:1.91px;stroke-linecap:butt;stroke-miterlimit:2;"/>
                                <path d="M862.5,302.9C858.461,302.742 856.498,304.489 856.476,300.501C856.394,286.027 856.156,284.161 858.438,284.034C859.985,283.948 893.668,283.823 894.641,284.175C895.944,284.646 895.811,285.226 895.801,335.5C895.799,340.728 897.578,342.725 890.398,345.211C879.123,349.114 827.615,361.799 815.729,325.428C812.398,315.234 806.998,265.577 820.797,244.705C837.125,220.009 893.338,220.33 896.055,259.513C896.277,262.712 891.352,261.881 876.5,261.882C872.625,261.882 872.291,261.379 871.552,257.491C868.708,242.532 841.462,238.716 838.341,268.481C838.335,268.538 834.883,309.379 840.825,322.354C848.104,338.249 871.625,331.495 872.364,328.467C872.492,327.941 872.764,304.625 872.192,303.69C871.713,302.908 863.278,302.9 862.5,302.9Z" style="fill:none;stroke:white;stroke-width:1.91px;stroke-linecap:butt;stroke-miterlimit:2;"/>
                                <path d="M384.826,281.501C384.823,291.732 385.744,296.824 382.532,296.962C368.769,297.552 348.008,295.57 347.347,298.465C347.268,298.809 347.219,327.961 347.378,328.534C348.272,331.75 386.568,328.387 388.487,330.509C388.613,330.649 389.985,348.153 387.601,348.805C387.161,348.925 387.185,348.91 332.5,348.91C329.039,348.91 323.172,349.948 323.128,346.523C322.958,333.398 323.11,242.539 323.126,233.496C323.128,232.018 322.956,230.313 325.488,230.279C330.361,230.215 384.878,229.493 386.402,230.643C387.14,231.199 388.489,248.798 385.458,249.205C380.774,249.833 348.247,247.856 347.414,250.471C347.402,250.51 346.793,276.157 347.781,277.241C349.257,278.86 382.866,276.691 384.47,278.521C384.628,278.701 384.496,278.739 384.826,281.501Z" style="fill:none;stroke:white;stroke-width:1.91px;stroke-linecap:butt;stroke-miterlimit:2;"/>
                                <path d="M541.086,287.5C541.175,254.116 546.681,228.691 585.498,228.79C625.365,228.891 624.189,263.012 622.621,263.714C621.546,264.196 600.543,263.898 600.386,263.855C597.914,263.181 599.977,248.823 588.413,246.937C567.802,243.577 567.047,266.764 566.875,272.516C565.617,314.704 567.329,331.173 582.534,332.193C601.24,333.448 599.077,317.166 600.277,314.376C601.107,312.445 623.359,313.609 623.428,313.646C624.951,314.46 626.731,349.081 586.5,350.493C537.739,352.205 541.098,304.864 541.086,287.5Z" style="fill:none;stroke:white;stroke-width:1.91px;stroke-linecap:butt;stroke-miterlimit:2;"/>
                                <path d="M290.5,348.91C236.997,348.91 236.968,348.939 236.395,348.731C235.31,348.337 235.311,341.164 235.311,340.5C235.327,232.306 235.216,232.295 235.523,231.51C236.219,229.732 258.022,230.258 258.874,231.159C260.058,232.41 259.095,321.706 259.408,327.505C259.569,330.497 261.206,329.826 295.498,329.855C299.156,329.858 298.418,333.236 298.319,345.499C298.276,350.732 295.737,348.653 290.5,348.91Z" style="fill:none;stroke:white;stroke-width:1.91px;stroke-linecap:butt;stroke-miterlimit:2;"/>
                                <path d="M674.071,234.5C674.057,347.519 674.197,347.739 673.465,348.46C673.135,348.785 650.9,350.1 650.183,347.608C650.099,347.318 649.803,232.627 650.337,231.407C650.979,229.944 673.156,229.999 673.745,231.349C673.846,231.581 673.769,231.582 674.071,234.5Z" style="fill:none;stroke:white;stroke-width:1.91px;stroke-linecap:butt;stroke-miterlimit:2;"/>
                                <path d="M92.904,262.527C91.784,268.297 91.31,282.303 71.613,285.775C65.711,286.815 75.189,288.203 75.558,288.258C98.911,291.679 106.879,341.584 68.546,347.787C54.013,350.139 14.477,348.584 14.455,348.564C13.639,347.846 13.734,347.6 13.734,244.5C13.734,238.883 12.936,230.619 15.503,230.524C19.18,230.389 41.534,229.568 61.495,230.612C87.935,231.996 92.943,244.788 92.904,262.527ZM37.958,274.5C38.316,276.905 37.271,277.959 39.554,278.163C62.68,280.228 66.09,273.327 67.096,271.291C69.487,266.454 71.913,249.77 55.483,248.689C38.462,247.569 38.086,249.03 38.037,250.432C37.969,252.356 38.219,252.273 37.958,274.5ZM37.962,316.5C37.964,324.069 36.866,330.881 40.481,330.915C46.268,330.969 75.963,335.424 70.186,307.579C67.428,294.289 49.322,296.233 40.495,296.31C37.282,296.339 38.165,298.095 37.962,316.5Z" style="fill:none;stroke:white;stroke-width:1.91px;stroke-linecap:butt;stroke-miterlimit:2;"/>
                                <path d="M983.977,240.355C992.635,273.479 1013.572,347.355 1012.524,348.524C1012.447,348.61 988.94,350.339 987.575,347.461C985.709,343.527 982.187,323.07 979.522,322.403C979.258,322.337 947.481,322.004 946.548,322.602C943.824,324.347 940.421,347.956 937.585,348.777C937.25,348.874 916.162,349.235 915.454,348.555C914.11,347.263 927.689,301.722 939.854,255.589C946.08,231.977 945.603,231.379 947.573,230.696C949.911,229.885 949.995,230.437 978.5,230.506C982.576,230.516 983.005,236.811 983.977,240.355ZM954.082,287.38C950.644,301.769 949.558,303.916 952.45,303.968C975.538,304.382 976.75,304.431 976.587,302.503C976.25,298.523 967.586,268.464 964.707,251.399C963.623,244.969 962.162,254.093 962.112,254.407C961.88,255.853 954.734,284.744 954.082,287.38Z" style="fill:none;stroke:white;stroke-width:1.91px;stroke-linecap:butt;stroke-miterlimit:2;"/>
                                <path d="M703.896,327.623C729.731,232.807 728.533,231.288 731.526,230.613C732.437,230.408 762.976,230.503 763.491,230.559C765.094,230.735 765.22,231.193 770.122,249.599C796.137,347.281 797.3,348.112 795.635,348.749C794.871,349.042 772.922,348.94 772.412,348.801C769.617,348.043 766.06,323.834 763.454,322.598C762.226,322.016 730.945,322.303 730.481,322.429C727.984,323.111 724.655,341.743 722.441,347.472C721.806,349.116 721.295,349.295 700.453,348.918C696.906,348.853 700.052,342.102 703.896,327.623ZM749.883,260.414C748.05,251.439 748.395,251.391 748.234,250.612C747.371,246.437 746.324,251.449 742.733,266.552C734.197,302.459 733.662,302.714 734.46,303.537C735.808,304.93 756.658,304.033 758.587,303.95C760.915,303.85 760.125,302.304 754.177,277.584C751.149,265.003 750.124,261.383 749.883,260.414Z" style="fill:none;stroke:white;stroke-width:1.91px;stroke-linecap:butt;stroke-miterlimit:2;"/>
                                <path d="M137.979,341.64C136.544,346.751 137.775,348.869 132.503,348.911C113.684,349.062 111.865,349.153 112.556,346.512C112.609,346.307 132.728,272.445 142.961,234.624C144.544,228.774 146.467,230.503 152.5,230.504C177.015,230.51 178.524,229.699 179.547,233.486C181.944,242.366 209.221,343.423 209.508,344.498C210.277,347.379 211.552,348.814 208.564,348.91C206.793,348.967 189.091,349.536 186.413,348.791C182.904,347.815 180.463,322.788 176.521,322.349C176.044,322.296 145.231,322.208 144.475,322.393C142.829,322.795 142.386,325.033 137.979,341.64ZM150.91,289.598C148.262,301.098 147.146,303.859 149.405,303.96C151.337,304.046 172.161,304.976 173.581,303.587C175.04,302.159 163.162,261.148 161.978,251.139C161.171,244.314 159.484,254.153 159.427,254.484C158.738,258.5 151.616,286.795 150.91,289.598Z" style="fill:none;stroke:white;stroke-width:1.91px;stroke-linecap:butt;stroke-miterlimit:2;"/>
                            </g>
                        </g>
                    </g>
                </g>
                <path d="M1006.739,1604.566C1006.739,1604.566 1088.513,1603.946 1085.365,1714.108C1085.365,1714.108 1094.429,1739.966 1094.429,1769.356C1094.429,1769.356 1095.574,1821.646 1097.864,1843.02C1097.864,1843.02 1104.353,1880.424 1102.063,1897.218C1102.063,1897.218 1090.231,2005.614 1088.704,2010.576C1088.704,2010.576 1068.094,1993.401 1031.452,2004.469C1031.452,2004.469 1028.781,1921.645 1024.582,1896.073C1024.582,1896.073 1022.674,1868.974 1023.819,1862.103C1023.819,1862.103 992.012,1757.874 987.941,1708.287L984.315,1699.668" style="fill:none;stroke:black;stroke-width:4.17px;"/>
                <path d="M1030.804,1854.394C1030.804,1854.394 1040.422,1834.546 1048.971,1827.6" style="fill:none;stroke:black;stroke-width:4.17px;"/>
            </g>
        </g>
    </g>
</svg>
