<?xml version="1.0" encoding="UTF-8" standalone="no"?>
<!DOCTYPE svg PUBLIC "-//W3C//DTD SVG 1.1//EN" "http://www.w3.org/Graphics/SVG/1.1/DTD/svg11.dtd">
<svg width="100%" height="100%" viewBox="0 0 259 253" version="1.1" xmlns="http://www.w3.org/2000/svg" xmlns:xlink="http://www.w3.org/1999/xlink" xml:space="preserve" xmlns:serif="http://www.serif.com/" style="fill-rule:evenodd;clip-rule:evenodd;stroke-linecap:round;stroke-linejoin:round;stroke-miterlimit:1.5;">
    <g transform="matrix(1,0,0,1,-621.861752,-1472.507235)">
        <g>
            <path d="M850.625,1485.779C850.625,1485.779 837.8,1499.459 835.449,1508.222C835.449,1508.222 824.335,1538.787 823.907,1544.558C823.48,1550.329 823.48,1573.84 825.617,1580.039C825.617,1580.039 831.602,1603.978 846.564,1609.107C846.564,1609.107 866.216,1618.512 877.978,1615.092C877.978,1615.092 865.159,1649.718 863.663,1656.13C863.663,1656.13 851.48,1706.359 851.693,1710.206C851.693,1710.206 792.701,1721.826 770.9,1723.07C770.9,1723.07 686.259,1723.672 662.961,1717.26L656.121,1679.214C656.121,1679.214 643.725,1672.161 639.236,1666.603C639.236,1666.603 624.471,1645.443 623.945,1637.107C623.945,1637.107 622.778,1615.092 629.404,1603.978C629.404,1603.978 645.221,1578.543 649.923,1573.413C649.923,1573.413 660.396,1550.97 661.679,1546.482L680.488,1492.619L697.159,1483.856L693.312,1498.176C693.312,1498.176 680.274,1549.474 681.77,1559.306C683.266,1569.138 685.617,1579.397 695.022,1583.031C695.022,1583.031 718.533,1592.222 738.411,1584.313C738.411,1584.313 768.549,1574.695 777.953,1558.237C777.953,1558.237 798.045,1523.611 801.892,1517.413C801.892,1517.413 826.686,1476.012 829.464,1474.591L841.006,1480.65L850.625,1485.779Z" style="fill:rgb(34,34,34);"/>
            <clipPath id="_clip1">
                <path d="M850.625,1485.779C850.625,1485.779 837.8,1499.459 835.449,1508.222C835.449,1508.222 824.335,1538.787 823.907,1544.558C823.48,1550.329 823.48,1573.84 825.617,1580.039C825.617,1580.039 831.602,1603.978 846.564,1609.107C846.564,1609.107 866.216,1618.512 877.978,1615.092C877.978,1615.092 865.159,1649.718 863.663,1656.13C863.663,1656.13 851.48,1706.359 851.693,1710.206C851.693,1710.206 792.701,1721.826 770.9,1723.07C770.9,1723.07 686.259,1723.672 662.961,1717.26L656.121,1679.214C656.121,1679.214 643.725,1672.161 639.236,1666.603C639.236,1666.603 624.471,1645.443 623.945,1637.107C623.945,1637.107 622.778,1615.092 629.404,1603.978C629.404,1603.978 645.221,1578.543 649.923,1573.413C649.923,1573.413 660.396,1550.97 661.679,1546.482L680.488,1492.619L697.159,1483.856L693.312,1498.176C693.312,1498.176 680.274,1549.474 681.77,1559.306C683.266,1569.138 685.617,1579.397 695.022,1583.031C695.022,1583.031 718.533,1592.222 738.411,1584.313C738.411,1584.313 768.549,1574.695 777.953,1558.237C777.953,1558.237 798.045,1523.611 801.892,1517.413C801.892,1517.413 826.686,1476.012 829.464,1474.591L841.006,1480.65L850.625,1485.779Z"/>
            </clipPath>
            <g clip-path="url(#_clip1)">
                <g transform="matrix(0.026623,0,0,0.026623,702.431693,1643.59262)">
                    <g transform="matrix(1,0,0,1,-3643.75,-5168.75)">
                        <g id="alo-yoga-1.jpg" transform="matrix(4.903158,0,0,4.903158,1383.333333,2983.333333)">
                            <path d="M526.5,163.05C530.783,163.219 531.899,161.739 532.591,164.475C532.776,165.206 532.68,441.658 532.639,442.524C532.514,445.183 523.948,444.34 521.5,444.34C500.215,444.34 498.333,445.156 498.31,441.506C498.309,441.322 498.303,166.24 498.313,165.49C498.356,162.433 500.048,163.05 526.5,163.05Z" style="fill:rgb(254,254,254);"/>
                            <path d="M372.42,277.083C376.079,276.525 397.741,273.223 418.467,281.584C436.251,288.758 434.854,291.27 436.465,291.624C440.904,292.6 434.476,281.303 441.499,281.304C470.944,281.31 472.28,280.858 472.538,283.497C472.55,283.625 472.602,441.955 472.51,442.502C472.142,444.685 471.084,444.354 441.5,444.343C436.771,444.341 438.148,442.196 438.17,437.502C438.201,430.732 434.708,436.415 425.306,441.145C357.045,475.491 286.21,408.034 305.863,339.605C321.679,284.539 370.873,277.453 372.42,277.083ZM388.501,311.113C384.998,311.191 362.481,311.696 348.885,329.813C315.927,373.73 358.062,423.486 397.582,413.863C456.799,399.443 448.001,313.637 388.501,311.113Z" style="fill:rgb(254,254,254);"/>
                            <path d="M621.423,277.062C627.428,276.159 665.367,270.454 694.124,298.871C758.208,362.194 700.197,464.742 620.466,448.673C552.6,434.995 533.227,351.858 570.784,307.736C589.789,285.409 604.735,281.04 621.423,277.062ZM635.498,311.113C580.651,313.623 569.337,386.262 613.65,409.214C664.587,435.597 713.862,366.637 670.352,324.652C657.412,312.165 638.486,311.257 635.498,311.113Z" style="fill:rgb(254,254,254);"/>
                        </g>
                    </g>
                </g>
            </g>
            <path d="M680.92,1492.148C680.92,1492.148 659.141,1557.439 651.46,1571.132C643.778,1584.824 613.387,1609.872 627.748,1646.943C627.748,1646.943 632.813,1667.259 655.968,1679.133C655.968,1679.133 660.718,1712.085 662.202,1717.132C662.202,1717.132 753.413,1734.275 851.302,1710.304C851.302,1710.304 860.802,1654.367 877.978,1613.909C877.978,1613.909 852.405,1625.359 830.268,1592.535C830.268,1592.535 816.146,1565.06 827.978,1528.413C827.978,1528.413 834.466,1502.071 850.878,1485.278L829.886,1474.591C829.886,1474.591 807.749,1503.598 781.413,1551.69C781.413,1551.69 768.054,1580.315 727.978,1586.804C727.978,1586.804 695.201,1591.67 686.423,1576.022C686.423,1576.022 679.887,1565.335 681.413,1552.739C681.413,1552.739 687.673,1510.735 698.36,1483.255L680.92,1492.148Z" style="fill:none;stroke:black;stroke-width:4.17px;"/>
            <path d="M684.175,1677.237C684.175,1677.237 723.717,1669.222 767.533,1682.046" style="fill:none;stroke:black;stroke-width:4.17px;"/>
        </g>
    </g>
</svg>
