<?xml version="1.0" encoding="UTF-8" standalone="no"?>
<svg width="100%" height="100%" viewBox="0 0 633 487" version="1.1" xmlns="http://www.w3.org/2000/svg" xmlns:xlink="http://www.w3.org/1999/xlink" xml:space="preserve" xmlns:serif="http://www.serif.com/" style="fill-rule:evenodd;clip-rule:evenodd;stroke-linecap:round;stroke-linejoin:round;stroke-miterlimit:1.5;">
    <g transform="matrix(1,0,0,1,-408.087407,-1524.289357)">
        <g>
            <g id="l-hand" serif:id="l hand" transform="matrix(1.029557,0,0,1.001941,84.328974,257.311645)">
                <path d="M497.702,1441.797C497.702,1441.797 486.23,1472.062 484.862,1476.337C483.495,1480.612 472.754,1508.436 472.754,1508.436L450.205,1566.119C450.205,1566.119 436.311,1617.844 433.533,1624.47C433.533,1624.47 419.266,1654.179 415.418,1660.592C415.418,1660.592 397.678,1695.111 395.327,1700.027L371.762,1739.688C371.762,1739.688 364.281,1723.859 343.762,1717.446C343.762,1717.446 318.776,1712.744 316.521,1714.668L320.037,1689.874L333.93,1615.92L339.487,1590.271C339.487,1590.271 349.533,1559.065 351.671,1555.859C353.808,1552.653 356.373,1532.775 356.373,1532.775L367.06,1488.745L377.533,1442.791L389.93,1389.57C389.93,1389.57 401.044,1360.074 411.945,1350.669C411.945,1350.669 438.235,1329.723 447.853,1326.516C457.472,1323.31 467.731,1321.411 467.731,1321.411L475.084,1321.411C475.084,1321.411 522.866,1327.404 497.702,1441.797Z" style="fill:rgb(34,34,34);"/>
                <path d="M474.154,1321.411C474.154,1321.411 404.307,1324.082 387.513,1398.891C387.513,1398.891 354.689,1541.257 352.399,1556.143C352.399,1556.143 340.949,1582.86 339.04,1591.639C337.132,1600.417 332.17,1625.99 324.536,1667.211C316.903,1708.432 316.521,1715.303 316.521,1715.303C316.521,1715.303 352.908,1709.35 371.61,1739.688C371.61,1739.688 392.331,1702.846 397.674,1693.94C403.018,1685.034 429.795,1633.172 433.06,1625.751C436.326,1618.329 449.388,1574.394 450.575,1566.082C450.575,1566.082 492.024,1458.6 497.702,1441.901" style="fill:none;stroke:black;stroke-width:4.17px;"/>
                <path d="M387.826,1543.968C387.826,1543.968 409.804,1568.677 411.005,1594.191" style="fill:none;stroke:black;stroke-width:4.17px;"/>
            </g>
            <g id="body">
                <path d="M718.774,2005.267C713.475,2017.63 471.464,2000.952 474.141,1982.367C474.141,1982.367 466.271,1939.619 498.332,1846.108C498.332,1846.108 507.874,1817.1 510.546,1812.52C510.546,1812.52 511.309,1802.596 509.019,1798.398C509.019,1798.398 489.625,1767.315 489.291,1749.949C489.291,1749.949 483.614,1719.891 500.312,1697.182C500.312,1697.182 518.012,1667.124 540.388,1653.098L546.734,1648.422L549.072,1641.075C549.072,1641.075 519.62,1607.284 554.865,1587.703C554.865,1587.703 661.573,1540.916 669.913,1538.467C669.913,1538.467 666.331,1563.57 685.3,1569.181C685.3,1569.181 702.052,1578.532 740.873,1565.441C740.873,1565.441 793.052,1542.343 804.006,1526.373C804.006,1526.373 872.403,1558.227 882.021,1558.761C882.021,1558.761 906.334,1565.441 911.678,1568.38C917.021,1571.318 940.75,1581.959 940.75,1581.959C940.75,1581.959 1000.83,1651.76 920.252,1694.263C920.252,1694.263 910.318,1765.658 910.912,1797.719L906.458,1835.866C906.458,1835.866 905.531,1930.411 913.287,1968.001C908.805,1974.35 761.068,2002.384 766.977,2002.697" style="fill:rgb(34,34,34);"/>
                <path d="M669.913,1538.467C669.913,1538.467 585.944,1575.108 558.463,1584.268C530.983,1593.429 669.913,1538.467 669.913,1538.467Z" style="fill:none;stroke:black;stroke-width:4.17px;"/>
                <path d="M669.913,1538.467C669.913,1538.467 656.733,1587.37 734.441,1567.689C734.441,1567.689 769.424,1559.436 804.157,1526.373C804.157,1526.373 861.266,1555.981 893.661,1561.883C893.661,1561.883 913.365,1567.411 936.742,1579.287" style="fill:none;stroke:black;stroke-width:4.17px;"/>
                <path d="M475.855,1987.26C475.855,1987.26 468.953,1966.865 482.846,1895.214C482.846,1895.214 501.682,1831.356 507.471,1819.778C507.471,1819.778 516.027,1807.469 505.721,1792.965C505.721,1792.965 478.24,1754.034 491.599,1715.103C491.599,1715.103 501.523,1676.553 546.943,1648.691C546.943,1648.691 551.523,1641.057 549.614,1636.859M918.63,1694.949C918.63,1694.949 897.256,1844.804 911.951,1967.704" style="fill:none;stroke:black;stroke-width:4.17px;"/>
                <path d="M475.855,1987.26C475.855,1987.26 675.156,2046.435 910.912,1968.001" style="fill:none;stroke:black;stroke-width:4.17px;"/>
                <path d="M554.865,1809.505C554.865,1809.505 627.517,1791.693 697.567,1825.535" style="fill:none;stroke:black;stroke-width:4.17px;"/>
            </g>
            <g id="r-hand" serif:id="r hand" transform="matrix(1.029557,0,0,1.001941,-127.746021,248.470439)">
                <path d="M1017.019,1712.43C1017.019,1712.43 1084.955,1709.515 1094.702,1727.527L1107.122,1686.843L1124.316,1632.641C1124.316,1632.641 1133.021,1599.084 1132.73,1595.451C1132.439,1591.817 1130.942,1567.451 1129.874,1561.466C1128.805,1555.481 1126.24,1519.573 1125.385,1515.939C1124.53,1512.306 1117.049,1471.054 1115.126,1465.711C1113.202,1460.367 1104.866,1419.329 1102.301,1413.986C1099.736,1408.642 1094.82,1386.199 1090.759,1380.428C1086.698,1374.657 1068.958,1347.085 1064.683,1344.52C1060.408,1341.955 1042.069,1327.08 1025.996,1324.611C1009.923,1322.142 939.976,1347.596 972.382,1443.645L989.458,1494.494C989.458,1494.494 1013.932,1568.876 1018.474,1576.143L1018.474,1585.761C1018.474,1585.761 1018.421,1649.669 1018.474,1658.219C1018.527,1666.768 1018.076,1708.718 1017.019,1712.43Z" style="fill:rgb(34,34,34);"/>
                <path d="M972.382,1445.376C972.382,1445.376 1008.069,1551.833 1019.138,1578.169L1017.849,1586.685C1017.849,1586.685 1020.855,1685.873 1016.847,1712.591C1016.847,1712.591 1077.481,1708.528 1093.512,1727.527C1093.512,1727.527 1119.636,1647.671 1122.901,1636.39C1126.166,1625.11 1134.479,1601.955 1132.401,1583.549C1130.322,1565.144 1127.948,1524.177 1121.714,1491.819C1121.714,1491.819 1111.323,1442.616 1099.152,1403.652C1099.152,1403.652 1084.606,1340.048 1027.312,1324.611" style="fill:none;stroke:black;stroke-width:4.17px;"/>
            </g>
        </g>
    </g>
</svg>
