<?xml version="1.0" encoding="UTF-8" standalone="no"?>
<svg width="100%" height="100%" viewBox="0 0 268 252" version="1.1" xmlns="http://www.w3.org/2000/svg" xmlns:xlink="http://www.w3.org/1999/xlink" xml:space="preserve" xmlns:serif="http://www.serif.com/" style="fill-rule:evenodd;clip-rule:evenodd;stroke-linecap:round;stroke-linejoin:round;stroke-miterlimit:1.5;">
    <g transform="matrix(1,0,0,1,-645.845997,-1592.834057)">
        <g transform="matrix(1,0,0,1,0,3)">
            <g id="body" transform="matrix(1,0,0,1,0,-3)">
                <path d="M735.08,1602.168C735.08,1602.168 710.031,1668.097 711.729,1677.715C711.729,1677.715 711.718,1697.807 728.817,1703.792C728.817,1703.792 744.588,1717.177 791.87,1690.112L809.495,1669.032C809.495,1669.032 824.19,1640.605 826.862,1636.33C826.862,1636.33 849.363,1598.658 856.146,1594.918L860.258,1592.834L874.016,1602.168C874.016,1602.168 855.497,1632.21 852.248,1644.18C852.248,1644.18 843.87,1680.601 853.787,1701.291C853.787,1701.291 866.954,1731.222 891.064,1732.843C891.064,1732.843 909.706,1731.043 911.157,1727.624L907.992,1739.935L891.368,1824.047C891.368,1824.047 848.7,1834.921 837.158,1835.348C837.158,1835.348 758.502,1843.898 749.311,1842.829C749.311,1842.829 697.373,1839.623 695.021,1838.448L690.533,1807.99C690.533,1807.99 673.006,1805.211 666.167,1795.165C666.167,1795.165 649.142,1782.555 647.929,1756.265C647.929,1756.265 646.503,1725.486 662.533,1705.395C662.533,1705.395 684.976,1679.105 686.258,1676.754L694.38,1656.876L711.729,1613.876L735.08,1602.168Z" style="fill:rgb(213,213,213);"/>
                <path d="M735.08,1602.168C728.371,1605.506 719.895,1609.742 711.729,1613.876" style="fill:none;stroke:black;stroke-width:4.17px;"/>
                <path d="M857.172,1595.057C860.261,1596.989 866.179,1598.381 874.016,1603.878" style="fill:none;stroke:black;stroke-width:4.17px;"/>
                <path d="M719.254,1803.577C719.254,1803.577 744.192,1791.108 798.072,1808.475" style="fill:none;stroke:black;stroke-width:2.08px;"/>
                <path d="M694.322,1838.448C693.01,1825.591 691.512,1812.73 690.455,1809.057C690.455,1809.057 665.123,1803.324 652.358,1774.826C652.358,1774.826 640.483,1745.139 655.623,1717.531C655.623,1717.531 661.264,1703.579 683.825,1678.94C683.825,1678.94 689.509,1672.076 689.608,1667.029M911.157,1725.949C906.312,1748.175 896.011,1796.112 890.951,1824.831" style="fill:none;stroke:black;stroke-width:4.17px;"/>
                <path d="M694.322,1838.448C694.322,1838.448 776.539,1852.729 890.951,1824.831" style="fill:none;stroke:black;stroke-width:4.17px;"/>
                <path d="M911.157,1726.061C911.157,1726.061 882.908,1752.167 853.519,1701.939C853.519,1701.939 841.764,1672.015 854.054,1638.351C854.054,1638.351 866.192,1608.427 874.016,1605.221" style="fill:none;stroke:black;stroke-width:4.17px;"/>
                <path d="M711.872,1615.775C711.872,1615.775 694.06,1659.402 689.608,1668.759" style="fill:none;stroke:black;stroke-width:4.17px;"/>
                <path d="M734.137,1605.221C734.137,1605.221 709.646,1669.655 711.872,1679.897C711.872,1679.897 717.549,1733.777 792.636,1689.248L808.946,1668.759C808.946,1668.759 844.124,1603.753 856.146,1595.737" style="fill:none;stroke:black;stroke-width:4.17px;"/>
            </g>
        </g>
    </g>
</svg>
