<?xml version="1.0" encoding="UTF-8" standalone="no"?>
<!DOCTYPE svg PUBLIC "-//W3C//DTD SVG 1.1//EN" "http://www.w3.org/Graphics/SVG/1.1/DTD/svg11.dtd">
<svg width="100%" height="100%" viewBox="0 0 268 252" version="1.1" xmlns="http://www.w3.org/2000/svg" xmlns:xlink="http://www.w3.org/1999/xlink" xml:space="preserve" xmlns:serif="http://www.serif.com/" style="fill-rule:evenodd;clip-rule:evenodd;stroke-linecap:round;stroke-linejoin:round;stroke-miterlimit:1.5;">
    <g transform="matrix(1,0,0,1,-645.845997,-1592.834057)">
        <g transform="matrix(1,0,0,1,0,3)">
            <g id="body" transform="matrix(1,0,0,1,0,-3)">
                <path d="M735.08,1602.168C735.08,1602.168 710.031,1668.097 711.729,1677.715C711.729,1677.715 711.718,1697.807 728.817,1703.792C728.817,1703.792 744.588,1717.177 791.87,1690.112L809.495,1669.032C809.495,1669.032 824.19,1640.605 826.862,1636.33C826.862,1636.33 849.363,1598.658 856.146,1594.918L860.258,1592.834L874.016,1602.168C874.016,1602.168 855.497,1632.21 852.248,1644.18C852.248,1644.18 843.87,1680.601 853.787,1701.291C853.787,1701.291 866.954,1731.222 891.064,1732.843C891.064,1732.843 909.706,1731.043 911.157,1727.624L907.992,1739.935L891.368,1824.047C891.368,1824.047 848.7,1834.921 837.158,1835.348C837.158,1835.348 758.502,1843.898 749.311,1842.829C749.311,1842.829 697.373,1839.623 695.021,1838.448L690.533,1807.99C690.533,1807.99 673.006,1805.211 666.167,1795.165C666.167,1795.165 649.142,1782.555 647.929,1756.265C647.929,1756.265 646.503,1725.486 662.533,1705.395C662.533,1705.395 684.976,1679.105 686.258,1676.754L694.38,1656.876L711.729,1613.876L735.08,1602.168Z" style="fill:rgb(34,34,34);"/>
                <clipPath id="_clip1">
                    <path d="M735.08,1602.168C735.08,1602.168 710.031,1668.097 711.729,1677.715C711.729,1677.715 711.718,1697.807 728.817,1703.792C728.817,1703.792 744.588,1717.177 791.87,1690.112L809.495,1669.032C809.495,1669.032 824.19,1640.605 826.862,1636.33C826.862,1636.33 849.363,1598.658 856.146,1594.918L860.258,1592.834L874.016,1602.168C874.016,1602.168 855.497,1632.21 852.248,1644.18C852.248,1644.18 843.87,1680.601 853.787,1701.291C853.787,1701.291 866.954,1731.222 891.064,1732.843C891.064,1732.843 909.706,1731.043 911.157,1727.624L907.992,1739.935L891.368,1824.047C891.368,1824.047 848.7,1834.921 837.158,1835.348C837.158,1835.348 758.502,1843.898 749.311,1842.829C749.311,1842.829 697.373,1839.623 695.021,1838.448L690.533,1807.99C690.533,1807.99 673.006,1805.211 666.167,1795.165C666.167,1795.165 649.142,1782.555 647.929,1756.265C647.929,1756.265 646.503,1725.486 662.533,1705.395C662.533,1705.395 684.976,1679.105 686.258,1676.754L694.38,1656.876L711.729,1613.876L735.08,1602.168Z"/>
                </clipPath>
                <g clip-path="url(#_clip1)">
                    <g transform="matrix(0.032,0,0,0.032,735.079534,1767.566271)">
                        <g transform="matrix(1,0,0,1,-3643.75,-5168.75)">
                            <g id="alo-yoga-1.jpg" transform="matrix(4.903158,0,0,4.903158,1383.333333,2983.333333)">
                                <path d="M526.5,163.05C530.783,163.219 531.899,161.739 532.591,164.475C532.776,165.206 532.68,441.658 532.639,442.524C532.514,445.183 523.948,444.34 521.5,444.34C500.215,444.34 498.333,445.156 498.31,441.506C498.309,441.322 498.303,166.24 498.313,165.49C498.356,162.433 500.048,163.05 526.5,163.05Z" style="fill:rgb(254,254,254);"/>
                                <path d="M372.42,277.083C376.079,276.525 397.741,273.223 418.467,281.584C436.251,288.758 434.854,291.27 436.465,291.624C440.904,292.6 434.476,281.303 441.499,281.304C470.944,281.31 472.28,280.858 472.538,283.497C472.55,283.625 472.602,441.955 472.51,442.502C472.142,444.685 471.084,444.354 441.5,444.343C436.771,444.341 438.148,442.196 438.17,437.502C438.201,430.732 434.708,436.415 425.306,441.145C357.045,475.491 286.21,408.034 305.863,339.605C321.679,284.539 370.873,277.453 372.42,277.083ZM388.501,311.113C384.998,311.191 362.481,311.696 348.885,329.813C315.927,373.73 358.062,423.486 397.582,413.863C456.799,399.443 448.001,313.637 388.501,311.113Z" style="fill:rgb(254,254,254);"/>
                                <path d="M621.423,277.062C627.428,276.159 665.367,270.454 694.124,298.871C758.208,362.194 700.197,464.742 620.466,448.673C552.6,434.995 533.227,351.858 570.784,307.736C589.789,285.409 604.735,281.04 621.423,277.062ZM635.498,311.113C580.651,313.623 569.337,386.262 613.65,409.214C664.587,435.597 713.862,366.637 670.352,324.652C657.412,312.165 638.486,311.257 635.498,311.113Z" style="fill:rgb(254,254,254);"/>
                            </g>
                        </g>
                    </g>
                </g>
                <path d="M735.08,1602.168C728.371,1605.506 719.895,1609.742 711.729,1613.876" style="fill:none;stroke:black;stroke-width:4.17px;"/>
                <path d="M857.172,1595.057C860.261,1596.989 866.179,1598.381 874.016,1603.878" style="fill:none;stroke:black;stroke-width:4.17px;"/>
                <path d="M719.254,1803.577C719.254,1803.577 744.192,1791.108 798.072,1808.475" style="fill:none;stroke:black;stroke-width:2.08px;"/>
                <path d="M694.322,1838.448C693.01,1825.591 691.512,1812.73 690.455,1809.057C690.455,1809.057 665.123,1803.324 652.358,1774.826C652.358,1774.826 640.483,1745.139 655.623,1717.531C655.623,1717.531 661.264,1703.579 683.825,1678.94C683.825,1678.94 689.509,1672.076 689.608,1667.029M911.157,1725.949C906.312,1748.175 896.011,1796.112 890.951,1824.831" style="fill:none;stroke:black;stroke-width:4.17px;"/>
                <path d="M694.322,1838.448C694.322,1838.448 776.539,1852.729 890.951,1824.831" style="fill:none;stroke:black;stroke-width:4.17px;"/>
                <path d="M911.157,1726.061C911.157,1726.061 882.908,1752.167 853.519,1701.939C853.519,1701.939 841.764,1672.015 854.054,1638.351C854.054,1638.351 866.192,1608.427 874.016,1605.221" style="fill:none;stroke:black;stroke-width:4.17px;"/>
                <path d="M711.872,1615.775C711.872,1615.775 694.06,1659.402 689.608,1668.759" style="fill:none;stroke:black;stroke-width:4.17px;"/>
                <path d="M734.137,1605.221C734.137,1605.221 709.646,1669.655 711.872,1679.897C711.872,1679.897 717.549,1733.777 792.636,1689.248L808.946,1668.759C808.946,1668.759 844.124,1603.753 856.146,1595.737" style="fill:none;stroke:black;stroke-width:4.17px;"/>
            </g>
        </g>
    </g>
</svg>
