<?xml version="1.0" encoding="UTF-8" standalone="no"?>
<svg width="100%" height="100%" viewBox="0 0 374 542" version="1.1" xmlns="http://www.w3.org/2000/svg" xmlns:xlink="http://www.w3.org/1999/xlink" xml:space="preserve" xmlns:serif="http://www.serif.com/" style="fill-rule:evenodd;clip-rule:evenodd;stroke-linecap:round;stroke-linejoin:round;stroke-miterlimit:1.5;">
    <g transform="matrix(1,0,0,1,-627.505615,-1578.029941)">
        <g transform="matrix(1,0,0,1,0,3)">
            <g id="l-hand" serif:id="l hand" transform="matrix(1,0,0,1,28.832602,-14.596884)">
                <path d="M663.175,1636.901C663.175,1636.901 616.283,1640.441 602.687,1695.438C602.687,1695.438 597.771,1732.414 604.611,1751.865C604.611,1751.865 600.336,1770.46 602.901,1790.124C628.153,1798.655 654.122,1802.165 680.514,1802.715L687.3,1749.086C687.3,1749.086 713.404,1632.146 663.175,1636.901Z" style="fill:rgb(34,34,34);"/>
                <g transform="matrix(1,0,0,1,-28.832602,11.596884)">
                    <path d="M631.866,1779.189C631.866,1779.189 671.943,1791.636 709.347,1791.102" style="fill:rgb(221,221,221);stroke:black;stroke-width:4.17px;"/>
                </g>
                <path d="M602.89,1790.786C602.422,1776.881 602.334,1759.106 604.539,1752.931C604.539,1752.931 592.325,1701.404 611.791,1672.397C611.791,1672.397 627.058,1641.862 663.318,1636.901M687.3,1749.273C687.3,1749.273 684.208,1774.164 680.514,1802.715" style="fill:none;stroke:black;stroke-width:4.17px;"/>
            </g>
            <g id="body" transform="matrix(1,0,0,1,0,-3)">
                <g>
                    <path d="M914.144,1713.591C914.144,1713.591 888.911,1836.194 888.911,1846.881C892.785,1858.481 903.776,1882.582 920.25,1918.359C940.061,1961.382 939.252,2015.28 942.138,2066.301C943.176,2084.643 942.254,2094.396 942.138,2104.666C930.133,2107.084 881.181,2115.238 823.726,2117.1C751.965,2119.425 672.042,2112.284 653,2102.483C646.701,2101.886 673.711,1901.393 697.797,1868.626L690.455,1808.475C690.455,1808.475 682.877,1805.465 679.67,1803.859C679.67,1803.859 660.006,1793.491 653.594,1777.674C653.594,1777.674 643.761,1755.445 649.853,1734.285C649.853,1734.285 657.014,1706.285 672.19,1692.605C672.19,1692.605 683.945,1678.926 685.655,1675.934L688.434,1666.175C688.434,1666.175 674.088,1638.196 690.448,1627.078C706.809,1615.959 748.052,1595.737 748.052,1595.737C748.052,1595.737 737.808,1621.813 760.037,1620.339C760.037,1620.339 784.617,1619.204 813.472,1595.737L819.029,1593.644L836.555,1580.113C836.555,1580.113 859.426,1595.053 869.471,1600.226C869.471,1600.226 905.612,1617.797 910.839,1617.583C910.839,1617.583 968.421,1647.408 914.144,1713.591Z" style="fill:rgb(34,34,34);"/>
                    <path d="M767.401,1861.071C767.401,1861.071 863.443,1850.372 886.837,1841.21L889.792,1848.827L892.356,1861.071C892.356,1861.071 832.133,1880.033 771.284,1883.693L771.284,1866.781L767.401,1861.071Z" style="fill:rgb(13,13,13);"/>
                    <path d="M736.645,1862.451C736.645,1862.451 703.717,1860.246 697.525,1854.282L697.525,1868.197L692.828,1875.434C692.828,1875.434 703.613,1885.082 734.77,1883.693L734.77,1873.327L736.645,1862.451Z" style="fill:rgb(13,13,13);"/>
                </g>
                <path d="M759.286,1854.282L746.248,1854.282L738.532,1861.071L734.77,1866.879L734.77,1884.405L743.683,1893.81L748.599,1896.585L758.644,1896.585L765.057,1891.637L771.284,1883.764L771.284,1875.434L769.36,1866.451L767.401,1861.071L759.286,1854.282Z" style="fill:rgb(255,185,0);"/>
                <path d="M748.052,1595.737C748.052,1595.737 707.725,1615.62 690.455,1624.854" style="fill:none;stroke:black;stroke-width:4.17px;"/>
                <path d="M748.052,1595.737C748.052,1595.737 730.711,1635.151 784.2,1614.205C784.2,1614.205 821.893,1595.161 837.453,1580.113C837.453,1580.113 858.131,1595.906 882.772,1607.503C891.868,1611.783 901.504,1615.492 910.839,1617.625" style="fill:none;stroke:black;stroke-width:4.17px;"/>
                <path d="M719.254,1803.577C719.254,1803.577 744.192,1791.108 798.072,1808.475" style="fill:none;stroke:black;stroke-width:2.08px;"/>
                <path d="M942.138,2104.654C761.822,2133.563 651.736,2103.051 651.736,2103.051C651.736,2103.051 654.197,2088.177 655.429,2065.037C657.867,2019.268 678.02,1893.774 697.165,1868.838C697.165,1868.838 692.762,1817.073 690.455,1809.057C690.455,1809.057 665.123,1803.324 652.358,1774.826C652.358,1774.826 640.483,1745.139 655.623,1717.531C655.623,1717.531 661.264,1703.579 683.825,1678.94C683.825,1678.94 689.564,1671.221 689.663,1666.175M913.789,1713.957C913.789,1713.957 889.624,1822.95 888.097,1844.324C888.097,1844.324 892.128,1863.718 904.151,1886.094C909.34,1895.751 929.231,1929.601 935.899,1973.015C944.68,2030.194 939.945,2099.254 942.138,2104.654" style="fill:none;stroke:black;stroke-width:4.17px;"/>
                <ellipse cx="753.027" cy="1875.434" rx="18.257" ry="21.151" style="fill:none;stroke:black;stroke-width:4.17px;"/>
                <path d="M767.401,1861.071C795.391,1859.09 833.986,1853.497 886.837,1841.21M697.525,1854.282C697.525,1854.282 705.989,1861.221 738.532,1861.91" style="fill:none;stroke:black;stroke-width:4.17px;"/>
                <path d="M771.284,1883.377C801.069,1881.204 840.644,1875.194 892.184,1861.966M692.592,1877.381C692.592,1877.381 704.413,1883.141 734.77,1884.223" style="fill:none;stroke:black;stroke-width:4.17px;"/>
            </g>
            <g id="r-hand" serif:id="r hand" transform="matrix(1,0,0,1,-95.47936,10.361494)">
                <path d="M984.315,1698.89L1000.688,1777.11C1000.688,1777.11 1095.566,1769.219 1094.284,1762.807L1084.967,1713.344C1084.967,1713.344 1086.891,1701.375 1085.395,1694.963C1085.395,1694.963 1079.41,1660.978 1076.631,1655.634C1076.631,1655.634 1061.456,1628.062 1057.822,1625.711C1057.822,1625.711 1031.746,1602.658 1005.67,1604.566C1005.67,1604.566 944.259,1611.497 984.315,1698.89Z" style="fill:rgb(34,34,34);"/>
                <path d="M1000.688,1777.11C994.665,1752.045 989.435,1726.486 987.941,1708.287L984.315,1699.668M1006.739,1604.566C1006.739,1604.566 1088.513,1603.946 1085.365,1714.108C1085.365,1714.108 1093.12,1736.23 1094.284,1762.807" style="fill:none;stroke:black;stroke-width:4.17px;"/>
                <g transform="matrix(1,0,0,1,95.47936,-13.361494)">
                    <path d="M905.208,1790.472C905.208,1790.472 970.846,1785.283 998.804,1776.169" style="fill:rgb(221,221,221);stroke:black;stroke-width:4.17px;"/>
                </g>
            </g>
        </g>
    </g>
</svg>
