<?xml version="1.0" encoding="UTF-8" standalone="no"?>
<!DOCTYPE svg PUBLIC "-//W3C//DTD SVG 1.1//EN" "http://www.w3.org/Graphics/SVG/1.1/DTD/svg11.dtd">
<svg width="100%" height="100%" viewBox="0 0 352 565" version="1.1" xmlns="http://www.w3.org/2000/svg" xmlns:xlink="http://www.w3.org/1999/xlink" xml:space="preserve" xmlns:serif="http://www.serif.com/" style="fill-rule:evenodd;clip-rule:evenodd;stroke-linecap:round;stroke-linejoin:round;stroke-miterlimit:1.5;">
    <g transform="matrix(1,0,0,1,-605.654577,-1458.992622)">
        <g>
            <g id="l-hand" serif:id="l hand" transform="matrix(1,0,0,1,57.245396,1.001905)">
                <path d="M619.215,1606.491L612.667,1657.643C612.667,1657.643 560.787,1655.375 550.493,1644.018C548.726,1642.069 553.779,1629.011 553.779,1627.494C553.779,1627.494 551.345,1575.914 555.204,1565.524C555.204,1565.524 562.922,1527.526 578.359,1515.948C578.359,1515.948 592.014,1502.19 601.811,1500.757C611.607,1499.324 654.015,1525.626 619.215,1606.491Z" style="fill:rgb(34,34,34);"/>
                <path d="M612.667,1657.643C616.39,1631.171 619.765,1606.595 619.14,1605.345M601.829,1500.757C601.829,1500.757 544.909,1508.522 552.246,1625.118C552.246,1625.118 551.538,1632.907 550.493,1644.018" style="fill:none;stroke:black;stroke-width:4.17px;"/>
                <g transform="matrix(1,0,0,1,-57.245396,-1.001905)">
                    <path d="M607.738,1645.02C607.738,1645.02 617.838,1656.154 669.913,1658.645" style="fill:none;stroke:black;stroke-width:4.17px;"/>
                </g>
            </g>
            <g id="body">
                <g>
                    <path d="M886.1,1500.757C886.1,1500.757 834.616,1477.573 810.838,1461.076C810.838,1461.076 781.689,1489.491 747.063,1495.048C747.063,1495.048 724.407,1499.536 719.277,1488.849C719.277,1488.849 715.66,1477.094 716.721,1474.315L708.376,1477.521C708.376,1477.521 667.255,1500.201 658.492,1501.759C658.492,1501.759 633.217,1513.044 651.522,1563.658L649.812,1569.429C649.812,1569.429 622.757,1610.895 624.101,1625.215C624.101,1625.215 622.239,1666.681 655.369,1676.94C655.369,1676.94 663.277,1734.009 665.415,1740.421C665.415,1740.421 650.697,1788.347 634.893,1845.476C628.267,1869.427 626.617,1894.908 624.565,1918.712C620.869,1961.607 619.535,1992.322 619.07,2003.441C633.818,2010.59 662.714,2017.711 708.124,2020.999C789.058,2026.86 889.21,2003.382 912.117,1993.569C912.117,1993.569 910.801,1959.616 912.117,1917.965C914.066,1856.236 876.529,1787.955 856.889,1760.15L852.881,1748.197L849.675,1733.236C849.675,1733.236 850.743,1717.739 852.881,1709.724C852.881,1709.724 863.568,1655.755 866.774,1649.343C866.774,1649.343 886.812,1593.236 890.018,1589.228C890.018,1589.228 939.58,1530.985 886.1,1500.757Z" style="fill:rgb(34,34,34);"/>
                    <path d="M722.899,1737.345C722.899,1737.345 802.922,1736.082 848.372,1727.027L849.84,1731.202L850.524,1739.971L853.089,1752.766C853.089,1752.766 742.116,1764.594 727.923,1762.029L728.265,1755.532L727.923,1747.495L722.899,1737.345Z" style="fill:rgb(13,13,13);"/>
                    <path d="M664.69,1731.202C664.69,1731.202 676.936,1735.935 692.539,1736.473L692.752,1737.345L687.409,1754.11L688.905,1760.095C688.905,1760.095 664.539,1756.248 662.615,1754.11L664.69,1741.501L664.69,1731.202Z" style="fill:rgb(13,13,13);"/>
                    <path d="M703.461,1731.202L695.766,1736.473L689.781,1742.846L688.081,1752.766L689.781,1760.15L694.354,1768.153L702.435,1773.796L709.445,1773.967L719.705,1770.034L726.374,1762.393L728.168,1750.883L726.374,1742.162L720.218,1733.837L712.523,1732.186L703.461,1731.202Z" style="fill:rgb(255,185,0);"/>
                </g>
                <path d="M717.112,1473.099C717.112,1473.099 710.767,1502.822 749.173,1494.139C749.173,1494.139 781.902,1487.125 810.289,1461.076C810.289,1461.076 853.371,1488.673 886.1,1500.757" style="fill:none;stroke:black;stroke-width:4.17px;"/>
                <path d="M717.112,1473.099C717.112,1473.099 677.417,1494.779 659.049,1500.757" style="fill:none;stroke:black;stroke-width:4.17px;"/>
                <path d="M912.117,1993.062C908.098,1984.612 921.255,1892.356 895.608,1832.247C884.327,1805.808 864.608,1771.508 861.308,1767.183C861.308,1767.183 848.331,1750.771 850.24,1725.962C850.24,1725.962 859.079,1649.065 890.108,1588.812M650.867,1553.132C650.867,1553.132 652.775,1563.819 650.485,1568.781C650.485,1568.781 624.531,1606.266 624.15,1625.118C624.15,1625.118 621.478,1667.254 655.829,1677.559C655.829,1677.559 662.007,1726.151 665.347,1741.18C665.347,1741.18 659.396,1765.204 654.298,1781.56C653.121,1785.338 651.989,1788.706 650.986,1791.275C650.515,1792.482 639.958,1818.044 633.303,1852.945C620.569,1919.724 622.313,1991.894 619.07,2003.801C619.07,2003.801 736.06,2048.886 912.117,1993.062" style="fill:none;stroke:black;stroke-width:4.17px;"/>
                <ellipse cx="708.124" cy="1752.766" rx="20.043" ry="21.565" style="fill:none;stroke:black;stroke-width:4.17px;"/>
                <path d="M722.899,1737.345C750.72,1737.223 790.933,1734.724 848.372,1727.027M664.69,1731.202C664.69,1731.202 671.466,1734.774 694.354,1736.473" style="fill:none;stroke:black;stroke-width:4.17px;"/>
                <path d="M728.168,1761.863C756.164,1761.669 795.845,1759.302 852.015,1752.766M661.875,1752.766C661.875,1752.766 665.112,1757.509 688.081,1760.15" style="fill:none;stroke:black;stroke-width:4.17px;"/>
                <path d="M688.081,1675.841C688.081,1675.841 725.409,1670.497 754.798,1683.856" style="fill:none;stroke:black;stroke-width:4.17px;"/>
            </g>
            <g id="r-hand" serif:id="r hand" transform="matrix(1,0,0,1,-72.314081,-9.168575)">
                <path d="M935.43,1601.314C935.43,1601.314 950.954,1665.922 952.428,1666.053C960.499,1666.768 1028.093,1643.984 1027.262,1642.01C1027.262,1642.01 1008.399,1548.789 1002.165,1541.07C1002.165,1541.07 979.603,1509.7 951.105,1507.87C951.105,1507.87 899.688,1507.785 935.43,1601.314Z" style="fill:rgb(34,34,34);"/>
                <g transform="matrix(1,0,0,1,72.314081,9.168575)">
                    <path d="M880.417,1656.884C880.417,1656.884 913.764,1655.071 954.948,1633.156" style="fill:none;stroke:black;stroke-width:4.17px;"/>
                </g>
                <path d="M952.428,1666.053C944.083,1635.917 936.403,1607.164 935.43,1600.046M951.015,1507.87C951.015,1507.87 1003.56,1514.995 1011.13,1568.43C1011.13,1568.43 1023.314,1619.834 1027.262,1642.01" style="fill:none;stroke:black;stroke-width:4.17px;"/>
            </g>
        </g>
    </g>
</svg>
