<?xml version="1.0" encoding="UTF-8" standalone="no"?>
<svg width="100%" height="100%" viewBox="0 0 352 387" version="1.1" xmlns="http://www.w3.org/2000/svg" xmlns:xlink="http://www.w3.org/1999/xlink" xml:space="preserve" xmlns:serif="http://www.serif.com/" style="fill-rule:evenodd;clip-rule:evenodd;stroke-linecap:round;stroke-linejoin:round;stroke-miterlimit:1.5;">
    <g transform="matrix(1,0,0,1,-605.654577,-1458.992622)">
        <g>
            <g id="l-hand" serif:id="l hand" transform="matrix(1,0,0,1,57.245396,1.001905)">
                <path d="M619.215,1606.491L612.667,1657.643C612.667,1657.643 560.787,1655.375 550.493,1644.018C548.726,1642.069 553.779,1629.011 553.779,1627.494C553.779,1627.494 551.345,1575.914 555.204,1565.524C555.204,1565.524 562.922,1527.526 578.359,1515.948C578.359,1515.948 592.014,1502.19 601.811,1500.757C611.607,1499.324 654.015,1525.626 619.215,1606.491Z" style="fill:rgb(221,221,221);"/>
                <path d="M612.667,1657.643C616.39,1631.171 619.765,1606.595 619.14,1605.345M601.829,1500.757C601.829,1500.757 544.909,1508.522 552.246,1625.118C552.246,1625.118 551.538,1632.907 550.493,1644.018" style="fill:none;stroke:black;stroke-width:4.17px;"/>
                <g transform="matrix(1,0,0,1,-57.245396,-1.001905)">
                    <path d="M607.738,1645.02C607.738,1645.02 617.838,1656.154 669.913,1658.645" style="fill:none;stroke:black;stroke-width:4.17px;"/>
                </g>
            </g>
            <g id="body">
                <path d="M886.1,1500.757C886.1,1500.757 834.616,1477.573 810.838,1461.076C810.838,1461.076 781.689,1489.491 747.063,1495.048C747.063,1495.048 724.407,1499.536 719.277,1488.849C719.277,1488.849 715.66,1477.094 716.721,1474.315L708.376,1477.521C708.376,1477.521 667.255,1500.201 658.492,1501.759C658.492,1501.759 633.217,1513.044 651.522,1563.658L649.812,1569.429C649.812,1569.429 622.757,1610.895 624.101,1625.215C624.101,1625.215 622.239,1666.681 655.369,1676.94C655.369,1676.94 663.277,1734.009 665.415,1740.421C665.415,1740.421 644.508,1817.715 641.516,1824.768C651.989,1836.459 692.324,1847.114 737.732,1843.798C803.823,1838.971 862.503,1817.123 885.409,1807.31C885.409,1807.31 863.835,1770.354 856.889,1762.348L852.881,1748.197L849.675,1733.236C849.675,1733.236 850.743,1717.739 852.881,1709.724C852.881,1709.724 863.568,1655.755 866.774,1649.343C866.774,1649.343 886.812,1593.236 890.018,1589.228C890.018,1589.228 939.58,1530.985 886.1,1500.757Z" style="fill:rgb(221,221,221);"/>
                <clipPath id="_clip1">
                    <path d="M886.1,1500.757C886.1,1500.757 834.616,1477.573 810.838,1461.076C810.838,1461.076 781.689,1489.491 747.063,1495.048C747.063,1495.048 724.407,1499.536 719.277,1488.849C719.277,1488.849 715.66,1477.094 716.721,1474.315L708.376,1477.521C708.376,1477.521 667.255,1500.201 658.492,1501.759C658.492,1501.759 633.217,1513.044 651.522,1563.658L649.812,1569.429C649.812,1569.429 622.757,1610.895 624.101,1625.215C624.101,1625.215 622.239,1666.681 655.369,1676.94C655.369,1676.94 663.277,1734.009 665.415,1740.421C665.415,1740.421 644.508,1817.715 641.516,1824.768C651.989,1836.459 692.324,1847.114 737.732,1843.798C803.823,1838.971 862.503,1817.123 885.409,1807.31C885.409,1807.31 863.835,1770.354 856.889,1762.348L852.881,1748.197L849.675,1733.236C849.675,1733.236 850.743,1717.739 852.881,1709.724C852.881,1709.724 863.568,1655.755 866.774,1649.343C866.774,1649.343 886.812,1593.236 890.018,1589.228C890.018,1589.228 939.58,1530.985 886.1,1500.757Z"/>
                </clipPath>
                <g clip-path="url(#_clip1)">
                    <g transform="matrix(0.036799,0,-0.001171,0.036799,733.875638,1627.497793)">
                        <g transform="matrix(1,0,0,1,-3643.75,-5168.75)">
                            <g id="_5a7f5f47abc3d121aba71181.png" serif:id="5a7f5f47abc3d121aba71181.png" transform="matrix(9.809338,0,0,9.809338,1487.916371,3540.618292)">
                                <path d="M68.5,2.034L374.5,2.034C380.228,1.997 377.965,4.825 377.966,10.5C377.971,125.615 377.931,125.602 378.034,129.495C378.115,132.53 376.364,131.966 345.5,131.966C7.396,131.966 7.4,131.958 4.505,132.034C2.224,132.095 2.044,130.955 2.035,129.512C1.968,119.35 1.206,3.811 2.483,2.483C2.979,1.967 3.134,2.034 68.5,2.034Z" style="fill:rgb(227,36,31);"/>
                                <path d="M131.908,46.381C133.181,46.559 133.23,46.931 134.237,46.096C142.771,39.013 156.65,41.486 161.526,50.484C175.436,76.149 142.517,105.234 127.284,89.739C123.632,86.025 125.05,91.603 121.092,115.436C120.525,118.854 117.019,118.398 108.534,118.196C105.957,118.134 107.621,112.401 107.761,111.541C118.48,45.713 117.115,43.654 120.503,43.541C130.398,43.21 131.81,42.973 131.908,46.381Z" style="fill:rgb(254,254,254);"/>
                                <path d="M303.935,61.531C303.934,60.823 303.926,54.362 300.541,53.363C286.181,49.127 288.392,89.962 284.333,92.047C283.837,92.301 272.861,92.251 272.605,92.132C268.421,90.19 281.877,56.107 272.538,53.37C259.576,49.57 259.998,82.28 257.572,90.52C256.756,93.293 243.399,93.064 243.666,90.502C243.715,90.035 250.879,45.057 250.992,44.692C251.593,42.738 263.815,43.515 264.262,43.842C264.904,44.312 264.047,48.491 266.707,45.911C270.1,42.62 277.748,40.606 283.649,43.139C288.949,45.414 288.559,50.733 292.806,46.858C298.682,41.496 310.238,39.854 315.44,45.555C317.864,48.212 320.64,51.255 313.431,90.482C312.985,92.906 306.42,92.26 301.516,92.215C297.789,92.18 300.305,89.827 303.935,61.531Z" style="fill:rgb(254,254,254);"/>
                                <path d="M31.534,94.12C24.437,92.448 23.744,93.497 18.721,88.276C10.687,79.927 14.616,78.172 14.886,77.95C19.728,73.96 23.153,69.353 24.833,73.35C29.157,83.637 39.907,82.6 44.084,77.155C54.882,63.076 34.131,57.494 33.627,57.244C31.505,56.191 14.844,47.923 25.818,28.684C39.127,5.351 70.443,19.701 66.017,25.15C60.919,31.428 59.199,34.206 57.147,31.837C51.166,24.932 42.528,28.407 39.923,31.856C32.396,41.822 48.092,46.359 51.301,47.896C70.258,56.982 61.991,76.538 55.01,85.06C47.775,93.892 33.547,94.092 31.534,94.12Z" style="fill:rgb(254,254,254);"/>
                                <path d="M319.92,72.513C320.168,70.685 321.868,58.142 327.954,50.895C331.622,46.526 337.314,43.723 340.612,42.917C366.657,36.557 369.802,60.597 367,68.69C365.695,72.46 335.593,67.786 334.678,71.55C332.429,80.805 342.682,87.783 350.436,79.439C353.217,76.447 353.736,76.32 363.572,78.326C366.432,78.909 360.859,84.983 360.438,85.441C352.064,94.567 321.689,103.426 319.92,72.513Z" style="fill:rgb(254,254,254);"/>
                                <path d="M215.5,70.122C214.815,70.238 214.102,70.09 213.417,70.206C210.818,70.648 210.769,82.986 219.509,83.134C225.758,83.239 229.223,77.863 229.555,77.56C230.97,76.267 243.183,77.261 241.642,80.565C234.059,96.83 197.48,101.595 197.311,73.501C197.072,33.796 252.797,31.215 244.44,68.482C243.982,70.526 243.114,70.122 215.5,70.122Z" style="fill:rgb(254,254,254);"/>
                                <path d="M79.084,74.5C80.325,87.292 92.578,83.241 94.823,72.576C97.799,58.434 97.797,43.633 101.503,43.542C106.551,43.417 113.528,42.841 113.173,45.479C108.891,77.371 106.773,80.66 105.1,83.258C95.049,98.868 61.59,99.663 64.941,73.552C65.245,71.179 68.522,45.642 70.152,44.11C70.784,43.515 83.598,42.102 83.337,45.491C83.017,49.651 79.894,63.977 79.084,74.5Z" style="fill:rgb(254,254,254);"/>
                                <path d="M165.894,78.56C170.717,48.561 171.05,44.652 171.903,43.986C172.258,43.709 185.648,41.921 185.003,45.608C184.052,51.043 189.498,41.679 197.511,41.95C206.416,42.252 202.117,48.154 201.71,49.562C200.558,53.543 200.444,55.85 197.4,54.808C181.133,49.239 180.124,77.564 178.131,89.442C177.57,92.785 174.602,92.44 165.534,92.211C163.063,92.149 164.829,85.167 165.894,78.56Z" style="fill:rgb(254,254,254);"/>
                                <path d="M127.087,69.483C130.477,49.759 145.369,53.163 148.499,58.5C158.395,75.371 128.239,94.607 127.087,69.483Z" style="fill:rgb(227,36,31);"/>
                                <path d="M217.342,55.359C225.06,47.705 231.811,53.354 232.381,59.506C232.506,60.858 232.127,62.303 215.516,61.444C212.97,61.312 217.041,55.769 217.342,55.359Z" style="fill:rgb(227,34,29);"/>
                                <path d="M338.382,57.427C346.774,45.716 355.013,54.425 354.939,59.5C354.92,60.824 354.542,61.939 338.501,61.491C335.7,61.412 337.402,60.017 338.382,57.427Z" style="fill:rgb(227,34,29);"/>
                            </g>
                        </g>
                    </g>
                </g>
                <path d="M717.112,1473.099C717.112,1473.099 710.767,1502.822 749.173,1494.139C749.173,1494.139 781.902,1487.125 810.289,1461.076C810.289,1461.076 853.371,1488.673 886.1,1500.757" style="fill:none;stroke:black;stroke-width:4.17px;"/>
                <path d="M717.112,1473.099C717.112,1473.099 677.417,1494.779 659.049,1500.757" style="fill:none;stroke:black;stroke-width:4.17px;"/>
                <path d="M884.865,1806.574C878.752,1793.721 870.94,1779.808 861.308,1767.183C861.308,1767.183 848.331,1750.771 850.24,1725.962C850.24,1725.962 859.079,1649.065 890.108,1588.812M650.867,1553.132C650.867,1553.132 652.775,1563.819 650.485,1568.781C650.485,1568.781 624.531,1606.266 624.15,1625.118C624.15,1625.118 621.478,1667.254 655.829,1677.559C655.829,1677.559 662.007,1726.151 665.347,1741.18C665.347,1741.18 656.33,1777.583 650.986,1791.275C650.986,1791.275 646.176,1805.705 640.979,1824.793C640.979,1824.793 706.671,1877.894 884.865,1806.574" style="fill:none;stroke:black;stroke-width:4.17px;"/>
                <path d="M688.081,1675.841C688.081,1675.841 725.409,1670.497 754.798,1683.856" style="fill:none;stroke:black;stroke-width:4.17px;"/>
            </g>
            <g id="r-hand" serif:id="r hand" transform="matrix(1,0,0,1,-72.314081,-9.168575)">
                <path d="M935.43,1601.314C935.43,1601.314 950.954,1665.922 952.428,1666.053C960.499,1666.768 1028.093,1643.984 1027.262,1642.01C1027.262,1642.01 1008.399,1548.789 1002.165,1541.07C1002.165,1541.07 979.603,1509.7 951.105,1507.87C951.105,1507.87 899.688,1507.785 935.43,1601.314Z" style="fill:rgb(221,221,221);"/>
                <g transform="matrix(1,0,0,1,72.314081,9.168575)">
                    <path d="M880.417,1656.884C880.417,1656.884 913.764,1655.071 954.948,1633.156" style="fill:none;stroke:black;stroke-width:4.17px;"/>
                </g>
                <path d="M952.428,1666.053C944.083,1635.917 936.403,1607.164 935.43,1600.046M951.015,1507.87C951.015,1507.87 1003.56,1514.995 1011.13,1568.43C1011.13,1568.43 1023.314,1619.834 1027.262,1642.01" style="fill:none;stroke:black;stroke-width:4.17px;"/>
            </g>
        </g>
    </g>
</svg>
