<?xml version="1.0" encoding="UTF-8" standalone="no"?>
<!DOCTYPE svg PUBLIC "-//W3C//DTD SVG 1.1//EN" "http://www.w3.org/Graphics/SVG/1.1/DTD/svg11.dtd">
<svg width="100%" height="100%" viewBox="0 0 401 452" version="1.1" xmlns="http://www.w3.org/2000/svg" xmlns:xlink="http://www.w3.org/1999/xlink" xml:space="preserve" xmlns:serif="http://www.serif.com/" style="fill-rule:evenodd;clip-rule:evenodd;stroke-linecap:round;stroke-linejoin:round;stroke-miterlimit:1.5;">
    <g transform="matrix(1,0,0,1,-571.439808,-1458.992622)">
        <g>
            <g id="l-hand" serif:id="l hand" transform="matrix(1,0,0,1,57.245396,1.001905)">
                <path d="M619.215,1606.491C619.215,1606.491 607.154,1699.111 605.67,1709.205L603.592,1728.501C603.592,1728.501 598.842,1776.295 597.358,1783.123C597.358,1783.123 558.172,1906.403 557.282,1907.697C557.282,1907.697 552.532,1901.274 548.079,1898.008C548.079,1898.008 529.896,1887.915 516.278,1887.915C516.278,1887.915 521.065,1853.182 521.658,1848.432C521.658,1848.432 529.377,1771.249 530.861,1765.311C530.861,1765.311 540.954,1720.485 542.736,1715.736C542.736,1715.736 552.532,1629.349 552.532,1625.49C552.532,1625.49 551.345,1575.914 555.204,1565.524C555.204,1565.524 562.922,1527.526 578.359,1515.948C578.359,1515.948 592.014,1502.19 601.811,1500.757C611.607,1499.324 654.015,1525.626 619.215,1606.491Z" style="fill:rgb(34,34,34);"/>
                <path d="M601.829,1500.757C601.829,1500.757 544.909,1508.522 552.246,1625.118C552.246,1625.118 545.667,1697.52 542.995,1715.777C542.995,1715.777 531.418,1754.962 528.746,1784.352C528.746,1784.352 518.949,1879.644 516.278,1888.55C516.278,1888.55 547.893,1890.331 556.354,1907.697C556.354,1907.697 593.313,1799.046 597.321,1782.125C597.321,1782.125 604.445,1730.471 604,1723.792C603.555,1717.113 620.476,1608.016 619.14,1605.345" style="fill:none;stroke:black;stroke-width:4.17px;"/>
            </g>
            <g id="body">
                <path d="M886.1,1500.757C886.1,1500.757 834.616,1477.573 810.838,1461.076C810.838,1461.076 781.689,1489.491 747.063,1495.048C747.063,1495.048 724.407,1499.536 719.277,1488.849C719.277,1488.849 715.66,1477.094 716.721,1474.315L708.376,1477.521C708.376,1477.521 667.255,1500.201 658.492,1501.759C658.492,1501.759 633.217,1513.044 651.522,1563.658L649.812,1569.429C649.812,1569.429 622.757,1610.895 624.101,1625.215C624.101,1625.215 622.239,1666.681 655.369,1676.94C655.369,1676.94 663.277,1734.009 665.415,1740.421C665.415,1740.421 644.508,1817.715 641.516,1824.768C651.989,1836.459 692.324,1847.114 737.732,1843.798C803.823,1838.971 862.503,1817.123 885.409,1807.31C885.409,1807.31 863.835,1770.354 856.889,1762.348L852.881,1748.197L849.675,1733.236C849.675,1733.236 850.743,1717.739 852.881,1709.724C852.881,1709.724 863.568,1655.755 866.774,1649.343C866.774,1649.343 886.812,1593.236 890.018,1589.228C890.018,1589.228 939.58,1530.985 886.1,1500.757Z" style="fill:rgb(34,34,34);"/>
                <path d="M717.112,1473.099C717.112,1473.099 710.767,1502.822 749.173,1494.139C749.173,1494.139 781.902,1487.125 810.289,1461.076C810.289,1461.076 853.371,1488.673 886.1,1500.757" style="fill:none;stroke:black;stroke-width:4.17px;"/>
                <path d="M717.112,1473.099C717.112,1473.099 677.417,1494.779 659.049,1500.757" style="fill:none;stroke:black;stroke-width:4.17px;"/>
                <path d="M884.865,1806.574C878.752,1793.721 870.94,1779.808 861.308,1767.183C861.308,1767.183 848.331,1750.771 850.24,1725.962C850.24,1725.962 859.079,1649.065 890.108,1588.812M650.867,1553.132C650.867,1553.132 652.775,1563.819 650.485,1568.781C650.485,1568.781 624.531,1606.266 624.15,1625.118C624.15,1625.118 621.478,1667.254 655.829,1677.559C655.829,1677.559 662.007,1726.151 665.347,1741.18C665.347,1741.18 656.33,1777.583 650.986,1791.275C650.986,1791.275 646.176,1805.705 640.979,1824.793C640.979,1824.793 706.671,1877.894 884.865,1806.574" style="fill:none;stroke:black;stroke-width:4.17px;"/>
                <path d="M688.081,1675.841C688.081,1675.841 725.409,1670.497 754.798,1683.856" style="fill:none;stroke:black;stroke-width:4.17px;"/>
            </g>
            <g id="r-hand" serif:id="r hand" transform="matrix(1,0,0,1,-72.314081,-9.168575)">
                <path d="M935.43,1601.314C935.43,1601.314 968.601,1726.886 974.612,1743.585L974.854,1748.873L975.744,1795.48C975.744,1795.48 980.791,1895.819 980.494,1900.569C980.494,1900.569 1002.462,1892.85 1013.149,1897.006L1033.335,1903.734L1037.194,1883.944L1042.243,1822.791C1042.243,1822.791 1045.51,1758.372 1042.243,1747.092C1042.243,1747.092 1033.929,1674.361 1032.148,1669.611C1032.148,1669.611 1018.789,1593.615 1016.414,1587.974C1016.414,1587.974 1008.399,1548.789 1002.165,1541.07C1002.165,1541.07 979.603,1509.7 951.105,1507.87C951.105,1507.87 899.688,1507.785 935.43,1601.314Z" style="fill:rgb(34,34,34);"/>
                <clipPath id="_clip1">
                    <path d="M935.43,1601.314C935.43,1601.314 968.601,1726.886 974.612,1743.585L974.854,1748.873L975.744,1795.48C975.744,1795.48 980.791,1895.819 980.494,1900.569C980.494,1900.569 1002.462,1892.85 1013.149,1897.006L1033.335,1903.734L1037.194,1883.944L1042.243,1822.791C1042.243,1822.791 1045.51,1758.372 1042.243,1747.092C1042.243,1747.092 1033.929,1674.361 1032.148,1669.611C1032.148,1669.611 1018.789,1593.615 1016.414,1587.974C1016.414,1587.974 1008.399,1548.789 1002.165,1541.07C1002.165,1541.07 979.603,1509.7 951.105,1507.87C951.105,1507.87 899.688,1507.785 935.43,1601.314Z"/>
                </clipPath>
                <g clip-path="url(#_clip1)">
                    <g transform="matrix(0.003066,0.052152,-0.052221,0.001887,988.836608,1719.227799)">
                        <g transform="matrix(1,0,0,1,-3643.75,-5168.75)">
                            <g id="Balenciaga-Logo-2017-present.jpg" transform="matrix(6.559246,0,0,6.559246,283.333333,2800)">
                                <g transform="matrix(0.994352,-0.106137,0.106137,0.994352,-29.254394,29.46749)">
                                    <path d="M420.896,335.5C420.896,232.572 420.895,232.58 420.903,232.527C421.335,229.788 422.659,229.997 455.499,230.516C459.569,230.58 458.206,232.812 478.785,291.392C490.394,324.437 486.472,327.292 489.468,327.293C491.073,327.293 489.841,318.388 489.785,317.493C488.903,303.406 489.234,232.193 489.507,231.503C490.067,230.089 490.533,230.189 508.499,230.51C510.978,230.555 510.734,232.599 510.736,233.497C510.757,242.62 510.999,346.184 510.632,347.537C510.292,348.787 509.788,348.991 478.495,348.91C475.561,348.902 475.291,348.338 472.687,340.439C461.067,305.19 447.952,273.72 443.321,250.577C443.02,249.073 441.094,248.995 441.292,251.473C441.896,259.052 443.361,277.402 442.632,346.506C442.603,349.279 441.197,349.044 423.487,348.908C419.677,348.879 420.917,341.085 420.896,335.5Z" style="fill:none;stroke:white;stroke-width:1.91px;stroke-linecap:butt;stroke-miterlimit:2;"/>
                                    <path d="M384.826,281.501C384.823,291.732 385.744,296.824 382.532,296.962C368.769,297.552 348.008,295.57 347.347,298.465C347.268,298.809 347.219,327.961 347.378,328.534C348.272,331.75 386.568,328.387 388.487,330.509C388.613,330.649 389.985,348.153 387.601,348.805C387.161,348.925 387.185,348.91 332.5,348.91C329.039,348.91 323.172,349.948 323.128,346.523C322.958,333.398 323.11,242.539 323.126,233.496C323.128,232.018 322.956,230.313 325.488,230.279C330.361,230.215 384.878,229.493 386.402,230.643C387.14,231.199 388.489,248.798 385.458,249.205C380.774,249.833 348.247,247.856 347.414,250.471C347.402,250.51 346.793,276.157 347.781,277.241C349.257,278.86 382.866,276.691 384.47,278.521C384.628,278.701 384.496,278.739 384.826,281.501Z" style="fill:none;stroke:white;stroke-width:1.91px;stroke-linecap:butt;stroke-miterlimit:2;"/>
                                    <path d="M290.5,348.91C236.997,348.91 236.968,348.939 236.395,348.731C235.31,348.337 235.311,341.164 235.311,340.5C235.327,232.306 235.216,232.295 235.523,231.51C236.219,229.732 258.022,230.258 258.874,231.159C260.058,232.41 259.095,321.706 259.408,327.505C259.569,330.497 261.206,329.826 295.498,329.855C299.156,329.858 298.418,333.236 298.319,345.499C298.276,350.732 295.737,348.653 290.5,348.91Z" style="fill:none;stroke:white;stroke-width:1.91px;stroke-linecap:butt;stroke-miterlimit:2;"/>
                                    <path d="M92.904,262.527C91.784,268.297 91.31,282.303 71.613,285.775C65.711,286.815 75.189,288.203 75.558,288.258C98.911,291.679 106.879,341.584 68.546,347.787C54.013,350.139 14.477,348.584 14.455,348.564C13.639,347.846 13.734,347.6 13.734,244.5C13.734,238.883 12.936,230.619 15.503,230.524C19.18,230.389 41.534,229.568 61.495,230.612C87.935,231.996 92.943,244.788 92.904,262.527ZM37.958,274.5C38.316,276.905 37.271,277.959 39.554,278.163C62.68,280.228 66.09,273.327 67.096,271.291C69.487,266.454 71.913,249.77 55.483,248.689C38.462,247.569 38.086,249.03 38.037,250.432C37.969,252.356 38.219,252.273 37.958,274.5ZM37.962,316.5C37.964,324.069 36.866,330.881 40.481,330.915C46.268,330.969 75.963,335.424 70.186,307.579C67.428,294.289 49.322,296.233 40.495,296.31C37.282,296.339 38.165,298.095 37.962,316.5Z" style="fill:none;stroke:white;stroke-width:1.91px;stroke-linecap:butt;stroke-miterlimit:2;"/>
                                    <path d="M137.979,341.64C136.544,346.751 137.775,348.869 132.503,348.911C113.684,349.062 111.865,349.153 112.556,346.512C112.609,346.307 132.728,272.445 142.961,234.624C144.544,228.774 146.467,230.503 152.5,230.504C177.015,230.51 178.524,229.699 179.547,233.486C181.944,242.366 209.221,343.423 209.508,344.498C210.277,347.379 211.552,348.814 208.564,348.91C206.793,348.967 189.091,349.536 186.413,348.791C182.904,347.815 180.463,322.788 176.521,322.349C176.044,322.296 145.231,322.208 144.475,322.393C142.829,322.795 142.386,325.033 137.979,341.64ZM150.91,289.598C148.262,301.098 147.146,303.859 149.405,303.96C151.337,304.046 172.161,304.976 173.581,303.587C175.04,302.159 163.162,261.148 161.978,251.139C161.171,244.314 159.484,254.153 159.427,254.484C158.738,258.5 151.616,286.795 150.91,289.598Z" style="fill:none;stroke:white;stroke-width:1.91px;stroke-linecap:butt;stroke-miterlimit:2;"/>
                                </g>
                                <g transform="matrix(0.997112,0.075947,-0.075947,0.997112,24.20603,-58.160838)">
                                    <path d="M862.5,302.9C858.461,302.742 856.498,304.489 856.476,300.501C856.394,286.027 856.156,284.161 858.438,284.034C859.985,283.948 893.668,283.823 894.641,284.175C895.944,284.646 895.811,285.226 895.801,335.5C895.799,340.728 897.578,342.725 890.398,345.211C879.123,349.114 827.615,361.799 815.729,325.428C812.398,315.234 806.998,265.577 820.797,244.705C837.125,220.009 893.338,220.33 896.055,259.513C896.277,262.712 891.352,261.881 876.5,261.882C872.625,261.882 872.291,261.379 871.552,257.491C868.708,242.532 841.462,238.716 838.341,268.481C838.335,268.538 834.883,309.379 840.825,322.354C848.104,338.249 871.625,331.495 872.364,328.467C872.492,327.941 872.764,304.625 872.192,303.69C871.713,302.908 863.278,302.9 862.5,302.9Z" style="fill:none;stroke:white;stroke-width:1.91px;stroke-linecap:butt;stroke-miterlimit:2;"/>
                                    <path d="M541.086,287.5C541.175,254.116 546.681,228.691 585.498,228.79C625.365,228.891 624.189,263.012 622.621,263.714C621.546,264.196 600.543,263.898 600.386,263.855C597.914,263.181 599.977,248.823 588.413,246.937C567.802,243.577 567.047,266.764 566.875,272.516C565.617,314.704 567.329,331.173 582.534,332.193C601.24,333.448 599.077,317.166 600.277,314.376C601.107,312.445 623.359,313.609 623.428,313.646C624.951,314.46 626.731,349.081 586.5,350.493C537.739,352.205 541.098,304.864 541.086,287.5Z" style="fill:none;stroke:white;stroke-width:1.91px;stroke-linecap:butt;stroke-miterlimit:2;"/>
                                    <path d="M674.071,234.5C674.057,347.519 674.197,347.739 673.465,348.46C673.135,348.785 650.9,350.1 650.183,347.608C650.099,347.318 649.803,232.627 650.337,231.407C650.979,229.944 673.156,229.999 673.745,231.349C673.846,231.581 673.769,231.582 674.071,234.5Z" style="fill:none;stroke:white;stroke-width:1.91px;stroke-linecap:butt;stroke-miterlimit:2;"/>
                                    <path d="M983.977,240.355C992.635,273.479 1013.572,347.355 1012.524,348.524C1012.447,348.61 988.94,350.339 987.575,347.461C985.709,343.527 982.187,323.07 979.522,322.403C979.258,322.337 947.481,322.004 946.548,322.602C943.824,324.347 940.421,347.956 937.585,348.777C937.25,348.874 916.162,349.235 915.454,348.555C914.11,347.263 927.689,301.722 939.854,255.589C946.08,231.977 945.603,231.379 947.573,230.696C949.911,229.885 949.995,230.437 978.5,230.506C982.576,230.516 983.005,236.811 983.977,240.355ZM954.082,287.38C950.644,301.769 949.558,303.916 952.45,303.968C975.538,304.382 976.75,304.431 976.587,302.503C976.25,298.523 967.586,268.464 964.707,251.399C963.623,244.969 962.162,254.093 962.112,254.407C961.88,255.853 954.734,284.744 954.082,287.38Z" style="fill:none;stroke:white;stroke-width:1.91px;stroke-linecap:butt;stroke-miterlimit:2;"/>
                                    <path d="M703.896,327.623C729.731,232.807 728.533,231.288 731.526,230.613C732.437,230.408 762.976,230.503 763.491,230.559C765.094,230.735 765.22,231.193 770.122,249.599C796.137,347.281 797.3,348.112 795.635,348.749C794.871,349.042 772.922,348.94 772.412,348.801C769.617,348.043 766.06,323.834 763.454,322.598C762.226,322.016 730.945,322.303 730.481,322.429C727.984,323.111 724.655,341.743 722.441,347.472C721.806,349.116 721.295,349.295 700.453,348.918C696.906,348.853 700.052,342.102 703.896,327.623ZM749.883,260.414C748.05,251.439 748.395,251.391 748.234,250.612C747.371,246.437 746.324,251.449 742.733,266.552C734.197,302.459 733.662,302.714 734.46,303.537C735.808,304.93 756.658,304.033 758.587,303.95C760.915,303.85 760.125,302.304 754.177,277.584C751.149,265.003 750.124,261.383 749.883,260.414Z" style="fill:none;stroke:white;stroke-width:1.91px;stroke-linecap:butt;stroke-miterlimit:2;"/>
                                </g>
                            </g>
                        </g>
                    </g>
                </g>
                <path d="M951.015,1507.87C951.015,1507.87 1003.56,1514.995 1011.13,1568.43C1011.13,1568.43 1025.379,1628.544 1028.051,1646.801C1028.051,1646.801 1039.183,1722.501 1040.519,1734.969C1040.519,1734.969 1044.081,1767.92 1040.964,1808.442C1040.964,1808.442 1036.066,1895.719 1033.394,1903.734C1033.394,1903.734 1001.333,1888.594 979.514,1901.508C979.514,1901.508 976.842,1829.371 976.397,1818.238C976.397,1818.238 974.171,1758.124 975.061,1746.101C975.061,1746.101 937.657,1616.345 935.43,1600.046" style="fill:none;stroke:black;stroke-width:4.17px;"/>
            </g>
        </g>
    </g>
</svg>
