<?xml version="1.0" encoding="UTF-8" standalone="no"?>
<svg width="100%" height="100%" viewBox="0 0 374 387" version="1.1" xmlns="http://www.w3.org/2000/svg" xmlns:xlink="http://www.w3.org/1999/xlink" xml:space="preserve" xmlns:serif="http://www.serif.com/" style="fill-rule:evenodd;clip-rule:evenodd;stroke-linecap:round;stroke-linejoin:round;stroke-miterlimit:1.5;">
    <g transform="matrix(1,0,0,1,-627.505615,-1578.029941)">
        <g transform="matrix(1,0,0,1,0,3)">
            <g id="l-hand" serif:id="l hand" transform="matrix(1,0,0,1,28.832602,-14.596884)">
                <path d="M663.175,1636.901C663.175,1636.901 616.283,1640.441 602.687,1695.438C602.687,1695.438 597.771,1732.414 604.611,1751.865C604.611,1751.865 600.336,1770.46 602.901,1790.124C628.153,1798.655 654.122,1802.165 680.514,1802.715L687.3,1749.086C687.3,1749.086 713.404,1632.146 663.175,1636.901Z" style="fill:rgb(221,221,221);"/>
                <g transform="matrix(1,0,0,1,-28.832602,11.596884)">
                    <path d="M631.866,1779.189C631.866,1779.189 671.943,1791.636 709.347,1791.102" style="fill:rgb(221,221,221);stroke:black;stroke-width:4.17px;"/>
                </g>
                <path d="M602.89,1790.786C602.422,1776.881 602.334,1759.106 604.539,1752.931C604.539,1752.931 592.325,1701.404 611.791,1672.397C611.791,1672.397 627.058,1641.862 663.318,1636.901M687.3,1749.273C687.3,1749.273 684.208,1774.164 680.514,1802.715" style="fill:none;stroke:black;stroke-width:4.17px;"/>
            </g>
            <g id="body" transform="matrix(1,0,0,1,0,-3)">
                <path d="M914.144,1713.591C914.144,1713.591 888.911,1836.194 888.911,1846.881C888.477,1850.354 915.984,1911.155 924.505,1929.705C919.179,1936.665 867.405,1952.262 810.368,1959.421C742.882,1967.892 681.868,1954.406 674.048,1944.071C674.048,1944.071 698.094,1871.892 697.797,1868.626L690.455,1808.475C690.455,1808.475 682.877,1805.465 679.67,1803.859C679.67,1803.859 660.006,1793.491 653.594,1777.674C653.594,1777.674 643.761,1755.445 649.853,1734.285C649.853,1734.285 657.014,1706.285 672.19,1692.605C672.19,1692.605 683.945,1678.926 685.655,1675.934L688.434,1666.175C688.434,1666.175 674.088,1638.196 690.448,1627.078C706.809,1615.959 748.052,1595.737 748.052,1595.737C748.052,1595.737 737.808,1621.813 760.037,1620.339C760.037,1620.339 784.617,1619.204 813.472,1595.737L819.029,1593.644L836.555,1580.113C836.555,1580.113 859.426,1595.053 869.471,1600.226C869.471,1600.226 905.612,1617.797 910.839,1617.583C910.839,1617.583 968.421,1647.408 914.144,1713.591Z" style="fill:rgb(221,221,221);"/>
                <clipPath id="_clip1">
                    <path d="M914.144,1713.591C914.144,1713.591 888.911,1836.194 888.911,1846.881C888.477,1850.354 915.984,1911.155 924.505,1929.705C919.179,1936.665 867.405,1952.262 810.368,1959.421C742.882,1967.892 681.868,1954.406 674.048,1944.071C674.048,1944.071 698.094,1871.892 697.797,1868.626L690.455,1808.475C690.455,1808.475 682.877,1805.465 679.67,1803.859C679.67,1803.859 660.006,1793.491 653.594,1777.674C653.594,1777.674 643.761,1755.445 649.853,1734.285C649.853,1734.285 657.014,1706.285 672.19,1692.605C672.19,1692.605 683.945,1678.926 685.655,1675.934L688.434,1666.175C688.434,1666.175 674.088,1638.196 690.448,1627.078C706.809,1615.959 748.052,1595.737 748.052,1595.737C748.052,1595.737 737.808,1621.813 760.037,1620.339C760.037,1620.339 784.617,1619.204 813.472,1595.737L819.029,1593.644L836.555,1580.113C836.555,1580.113 859.426,1595.053 869.471,1600.226C869.471,1600.226 905.612,1617.797 910.839,1617.583C910.839,1617.583 968.421,1647.408 914.144,1713.591Z"/>
                </clipPath>
                <g clip-path="url(#_clip1)">
                    <g transform="matrix(0.042362,-0.000658,-0.001416,0.042394,782.434276,1740.81676)">
                        <g transform="matrix(1,0,0,1,-3643.75,-5168.75)">
                            <g id="_5a7f5f47abc3d121aba71181.png" serif:id="5a7f5f47abc3d121aba71181.png" transform="matrix(9.809338,0,0,9.809338,1487.916371,3540.618292)">
                                <path d="M68.5,2.034L374.5,2.034C380.228,1.997 377.965,4.825 377.966,10.5C377.971,125.615 377.931,125.602 378.034,129.495C378.115,132.53 376.364,131.966 345.5,131.966C7.396,131.966 7.4,131.958 4.505,132.034C2.224,132.095 2.044,130.955 2.035,129.512C1.968,119.35 1.206,3.811 2.483,2.483C2.979,1.967 3.134,2.034 68.5,2.034Z" style="fill:rgb(227,36,31);"/>
                                <path d="M131.908,46.381C133.181,46.559 133.23,46.931 134.237,46.096C142.771,39.013 156.65,41.486 161.526,50.484C175.436,76.149 142.517,105.234 127.284,89.739C123.632,86.025 125.05,91.603 121.092,115.436C120.525,118.854 117.019,118.398 108.534,118.196C105.957,118.134 107.621,112.401 107.761,111.541C118.48,45.713 117.115,43.654 120.503,43.541C130.398,43.21 131.81,42.973 131.908,46.381Z" style="fill:rgb(254,254,254);"/>
                                <path d="M303.935,61.531C303.934,60.823 303.926,54.362 300.541,53.363C286.181,49.127 288.392,89.962 284.333,92.047C283.837,92.301 272.861,92.251 272.605,92.132C268.421,90.19 281.877,56.107 272.538,53.37C259.576,49.57 259.998,82.28 257.572,90.52C256.756,93.293 243.399,93.064 243.666,90.502C243.715,90.035 250.879,45.057 250.992,44.692C251.593,42.738 263.815,43.515 264.262,43.842C264.904,44.312 264.047,48.491 266.707,45.911C270.1,42.62 277.748,40.606 283.649,43.139C288.949,45.414 288.559,50.733 292.806,46.858C298.682,41.496 310.238,39.854 315.44,45.555C317.864,48.212 320.64,51.255 313.431,90.482C312.985,92.906 306.42,92.26 301.516,92.215C297.789,92.18 300.305,89.827 303.935,61.531Z" style="fill:rgb(254,254,254);"/>
                                <path d="M31.534,94.12C24.437,92.448 23.744,93.497 18.721,88.276C10.687,79.927 14.616,78.172 14.886,77.95C19.728,73.96 23.153,69.353 24.833,73.35C29.157,83.637 39.907,82.6 44.084,77.155C54.882,63.076 34.131,57.494 33.627,57.244C31.505,56.191 14.844,47.923 25.818,28.684C39.127,5.351 70.443,19.701 66.017,25.15C60.919,31.428 59.199,34.206 57.147,31.837C51.166,24.932 42.528,28.407 39.923,31.856C32.396,41.822 48.092,46.359 51.301,47.896C70.258,56.982 61.991,76.538 55.01,85.06C47.775,93.892 33.547,94.092 31.534,94.12Z" style="fill:rgb(254,254,254);"/>
                                <path d="M319.92,72.513C320.168,70.685 321.868,58.142 327.954,50.895C331.622,46.526 337.314,43.723 340.612,42.917C366.657,36.557 369.802,60.597 367,68.69C365.695,72.46 335.593,67.786 334.678,71.55C332.429,80.805 342.682,87.783 350.436,79.439C353.217,76.447 353.736,76.32 363.572,78.326C366.432,78.909 360.859,84.983 360.438,85.441C352.064,94.567 321.689,103.426 319.92,72.513Z" style="fill:rgb(254,254,254);"/>
                                <path d="M215.5,70.122C214.815,70.238 214.102,70.09 213.417,70.206C210.818,70.648 210.769,82.986 219.509,83.134C225.758,83.239 229.223,77.863 229.555,77.56C230.97,76.267 243.183,77.261 241.642,80.565C234.059,96.83 197.48,101.595 197.311,73.501C197.072,33.796 252.797,31.215 244.44,68.482C243.982,70.526 243.114,70.122 215.5,70.122Z" style="fill:rgb(254,254,254);"/>
                                <path d="M79.084,74.5C80.325,87.292 92.578,83.241 94.823,72.576C97.799,58.434 97.797,43.633 101.503,43.542C106.551,43.417 113.528,42.841 113.173,45.479C108.891,77.371 106.773,80.66 105.1,83.258C95.049,98.868 61.59,99.663 64.941,73.552C65.245,71.179 68.522,45.642 70.152,44.11C70.784,43.515 83.598,42.102 83.337,45.491C83.017,49.651 79.894,63.977 79.084,74.5Z" style="fill:rgb(254,254,254);"/>
                                <path d="M165.894,78.56C170.717,48.561 171.05,44.652 171.903,43.986C172.258,43.709 185.648,41.921 185.003,45.608C184.052,51.043 189.498,41.679 197.511,41.95C206.416,42.252 202.117,48.154 201.71,49.562C200.558,53.543 200.444,55.85 197.4,54.808C181.133,49.239 180.124,77.564 178.131,89.442C177.57,92.785 174.602,92.44 165.534,92.211C163.063,92.149 164.829,85.167 165.894,78.56Z" style="fill:rgb(254,254,254);"/>
                                <path d="M127.087,69.483C130.477,49.759 145.369,53.163 148.499,58.5C158.395,75.371 128.239,94.607 127.087,69.483Z" style="fill:rgb(227,36,31);"/>
                                <path d="M217.342,55.359C225.06,47.705 231.811,53.354 232.381,59.506C232.506,60.858 232.127,62.303 215.516,61.444C212.97,61.312 217.041,55.769 217.342,55.359Z" style="fill:rgb(227,34,29);"/>
                                <path d="M338.382,57.427C346.774,45.716 355.013,54.425 354.939,59.5C354.92,60.824 354.542,61.939 338.501,61.491C335.7,61.412 337.402,60.017 338.382,57.427Z" style="fill:rgb(227,34,29);"/>
                            </g>
                        </g>
                    </g>
                </g>
                <path d="M748.052,1595.737C748.052,1595.737 707.725,1615.62 690.455,1624.854" style="fill:none;stroke:black;stroke-width:4.17px;"/>
                <path d="M748.052,1595.737C748.052,1595.737 730.711,1635.151 784.2,1614.205C784.2,1614.205 821.893,1595.161 837.453,1580.113C837.453,1580.113 858.131,1595.906 882.772,1607.503C891.868,1611.783 901.504,1615.492 910.839,1617.625" style="fill:none;stroke:black;stroke-width:4.17px;"/>
                <path d="M719.254,1803.577C719.254,1803.577 744.192,1791.108 798.072,1808.475" style="fill:none;stroke:black;stroke-width:2.08px;"/>
                <path d="M924.505,1930.456C752.739,1992.495 673.644,1944.883 673.644,1944.883C673.644,1944.883 696.831,1881.862 697.165,1868.838C697.165,1868.838 692.762,1817.073 690.455,1809.057C690.455,1809.057 665.123,1803.324 652.358,1774.826C652.358,1774.826 640.483,1745.139 655.623,1717.531C655.623,1717.531 661.264,1703.579 683.825,1678.94C683.825,1678.94 689.564,1671.221 689.663,1666.175M913.789,1713.957C913.789,1713.957 889.624,1822.95 888.097,1844.324C888.097,1844.324 892.128,1863.718 904.151,1886.094C916.174,1908.47 920.646,1920.957 924.505,1930.456" style="fill:none;stroke:black;stroke-width:4.17px;"/>
            </g>
            <g id="r-hand" serif:id="r hand" transform="matrix(1,0,0,1,-95.47936,10.361494)">
                <path d="M984.315,1698.89L1000.688,1777.11C1000.688,1777.11 1095.566,1769.219 1094.284,1762.807L1084.967,1713.344C1084.967,1713.344 1086.891,1701.375 1085.395,1694.963C1085.395,1694.963 1079.41,1660.978 1076.631,1655.634C1076.631,1655.634 1061.456,1628.062 1057.822,1625.711C1057.822,1625.711 1031.746,1602.658 1005.67,1604.566C1005.67,1604.566 944.259,1611.497 984.315,1698.89Z" style="fill:rgb(221,221,221);"/>
                <path d="M1000.688,1777.11C994.665,1752.045 989.435,1726.486 987.941,1708.287L984.315,1699.668M1006.739,1604.566C1006.739,1604.566 1088.513,1603.946 1085.365,1714.108C1085.365,1714.108 1093.12,1736.23 1094.284,1762.807" style="fill:none;stroke:black;stroke-width:4.17px;"/>
                <g transform="matrix(1,0,0,1,95.47936,-13.361494)">
                    <path d="M905.208,1790.472C905.208,1790.472 970.846,1785.283 998.804,1776.169" style="fill:rgb(221,221,221);stroke:black;stroke-width:4.17px;"/>
                </g>
            </g>
        </g>
    </g>
</svg>
