<?xml version="1.0" encoding="UTF-8" standalone="no"?>
<svg width="100%" height="100%" viewBox="0 0 427 327" version="1.1" xmlns="http://www.w3.org/2000/svg" xmlns:xlink="http://www.w3.org/1999/xlink" xml:space="preserve" xmlns:serif="http://www.serif.com/" style="fill-rule:evenodd;clip-rule:evenodd;stroke-linecap:round;stroke-linejoin:round;stroke-miterlimit:1.5;">
    <g transform="matrix(1,0,0,1,-486.424722,-1538.618505)">
        <g>
            <path d="M863.973,1553.522C863.973,1553.522 827.496,1595.048 823.79,1644.319C823.79,1644.319 821.534,1679.428 829.216,1694.79C829.216,1694.79 847.25,1729.189 869.626,1735.868C869.626,1735.868 896.072,1745.219 911.236,1736.202L905.75,1837.153C905.75,1837.153 843.112,1849.622 827.676,1851.106C827.676,1851.106 716.946,1861.941 703.588,1863.203C703.588,1863.203 591.671,1860.012 583.062,1860.012C583.062,1860.012 501.426,1848.137 498.457,1845.762C498.457,1845.762 504.988,1823.498 508.847,1818.451C508.847,1818.451 511.519,1798.562 507.956,1794.702C507.956,1794.702 494.598,1773.922 492.52,1765.907C492.52,1765.907 485.684,1743.642 490.883,1722.565C490.883,1722.565 494.004,1695.551 514.191,1680.114C514.191,1680.114 545.658,1651.912 555.157,1642.116C555.157,1642.116 579.797,1616.289 582.765,1610.649C582.765,1610.649 610.67,1569.682 612.155,1565.823L625.217,1560.182L648.669,1549.198L636.2,1571.463C636.2,1571.463 589.89,1645.678 592.562,1667.646C592.562,1667.646 589.296,1689.614 622.545,1692.879C622.545,1692.879 677.167,1695.254 709.525,1681.302C709.525,1681.302 749.601,1662.302 756.726,1651.615C756.726,1651.615 782.256,1615.398 786.709,1607.68C786.709,1607.68 807.786,1574.432 811.942,1568.494C811.942,1568.494 828.566,1542.298 831.238,1540.702L852.018,1547.417L863.973,1553.522Z" style="fill:rgb(221,221,221);"/>
            <g>
                <path d="M864.481,1553.181C864.481,1553.181 804.366,1618.194 828.857,1696.565C828.857,1696.565 859.137,1756.234 911.236,1735.75C911.236,1735.75 905.358,1827.48 906.249,1836.832C906.249,1836.832 674.475,1890.044 497.917,1845.292C497.917,1845.292 506.346,1820.897 509.399,1816.316C509.399,1816.316 512.834,1799.904 505.964,1793.034C505.964,1793.034 490.315,1772.042 488.788,1749.141C488.788,1749.141 485.353,1719.37 502.529,1691.126C502.529,1691.126 526.193,1664.79 554.437,1643.035C554.437,1643.035 586.88,1611.613 612.452,1565.554C612.452,1565.554 644.966,1549.719 649.976,1548.383C649.976,1548.383 592.533,1640.892 593.201,1657.925C593.201,1657.925 586.856,1683.974 609.232,1689.652C609.232,1689.652 637.619,1702.009 699.737,1684.642C699.737,1684.642 734.47,1673.955 756.846,1651.245C756.846,1651.245 793.582,1598.812 805.605,1577.104C805.605,1577.104 825.977,1544.375 831.655,1540.702C831.655,1540.702 859.902,1550.966 864.481,1553.181Z" style="fill:none;stroke:black;stroke-width:4.17px;"/>
                <path d="M565.782,1809.179C565.782,1809.179 637.385,1796.395 692.423,1824.141" style="fill:none;stroke:black;stroke-width:4.17px;"/>
            </g>
        </g>
    </g>
</svg>
