<?xml version="1.0" encoding="UTF-8" standalone="no"?>
<!DOCTYPE svg PUBLIC "-//W3C//DTD SVG 1.1//EN" "http://www.w3.org/Graphics/SVG/1.1/DTD/svg11.dtd">
<svg width="100%" height="100%" viewBox="0 0 259 253" version="1.1" xmlns="http://www.w3.org/2000/svg" xmlns:xlink="http://www.w3.org/1999/xlink" xml:space="preserve" xmlns:serif="http://www.serif.com/" style="fill-rule:evenodd;clip-rule:evenodd;stroke-linecap:round;stroke-linejoin:round;stroke-miterlimit:1.5;">
    <g transform="matrix(1,0,0,1,-621.861752,-1472.507235)">
        <g>
            <path d="M850.625,1485.779C850.625,1485.779 837.8,1499.459 835.449,1508.222C835.449,1508.222 824.335,1538.787 823.907,1544.558C823.48,1550.329 823.48,1573.84 825.617,1580.039C825.617,1580.039 831.602,1603.978 846.564,1609.107C846.564,1609.107 866.216,1618.512 877.978,1615.092C877.978,1615.092 865.159,1649.718 863.663,1656.13C863.663,1656.13 851.48,1706.359 851.693,1710.206C851.693,1710.206 792.701,1721.826 770.9,1723.07C770.9,1723.07 686.259,1723.672 662.961,1717.26L656.121,1679.214C656.121,1679.214 643.725,1672.161 639.236,1666.603C639.236,1666.603 624.471,1645.443 623.945,1637.107C623.945,1637.107 622.778,1615.092 629.404,1603.978C629.404,1603.978 645.221,1578.543 649.923,1573.413C649.923,1573.413 660.396,1550.97 661.679,1546.482L680.488,1492.619L697.159,1483.856L693.312,1498.176C693.312,1498.176 680.274,1549.474 681.77,1559.306C683.266,1569.138 685.617,1579.397 695.022,1583.031C695.022,1583.031 718.533,1592.222 738.411,1584.313C738.411,1584.313 768.549,1574.695 777.953,1558.237C777.953,1558.237 798.045,1523.611 801.892,1517.413C801.892,1517.413 826.686,1476.012 829.464,1474.591L841.006,1480.65L850.625,1485.779Z" style="fill:rgb(213,213,213);"/>
            <path d="M680.92,1492.148C680.92,1492.148 659.141,1557.439 651.46,1571.132C643.778,1584.824 613.387,1609.872 627.748,1646.943C627.748,1646.943 632.813,1667.259 655.968,1679.133C655.968,1679.133 660.718,1712.085 662.202,1717.132C662.202,1717.132 753.413,1734.275 851.302,1710.304C851.302,1710.304 860.802,1654.367 877.978,1613.909C877.978,1613.909 852.405,1625.359 830.268,1592.535C830.268,1592.535 816.146,1565.06 827.978,1528.413C827.978,1528.413 834.466,1502.071 850.878,1485.278L829.886,1474.591C829.886,1474.591 807.749,1503.598 781.413,1551.69C781.413,1551.69 768.054,1580.315 727.978,1586.804C727.978,1586.804 695.201,1591.67 686.423,1576.022C686.423,1576.022 679.887,1565.335 681.413,1552.739C681.413,1552.739 687.673,1510.735 698.36,1483.255L680.92,1492.148Z" style="fill:none;stroke:black;stroke-width:4.17px;"/>
            <path d="M684.175,1677.237C684.175,1677.237 723.717,1669.222 767.533,1682.046" style="fill:none;stroke:black;stroke-width:4.17px;"/>
        </g>
    </g>
</svg>
