<?xml version="1.0" encoding="UTF-8" standalone="no"?>
<svg width="100%" height="100%" viewBox="0 0 408 604" version="1.1" xmlns="http://www.w3.org/2000/svg" xmlns:xlink="http://www.w3.org/1999/xlink" xml:space="preserve" xmlns:serif="http://www.serif.com/" style="fill-rule:evenodd;clip-rule:evenodd;stroke-linecap:round;stroke-linejoin:round;stroke-miterlimit:1.5;">
    <g transform="matrix(1,0,0,1,-601.899183,-1578.029941)">
        <g transform="matrix(1,0,0,1,0,3)">
            <g id="l-hand" serif:id="l hand" transform="matrix(1,0,0,1,28.832602,-14.596884)">
                <path d="M663.175,1636.901C663.175,1636.901 616.283,1640.441 602.687,1695.438C602.687,1695.438 597.771,1732.414 604.611,1751.865C604.611,1751.865 600.336,1770.46 602.901,1790.124C602.901,1790.124 603.328,1814.277 603.115,1819.62C603.115,1819.62 590.931,1886.735 589.649,1893.574C589.649,1893.574 582.596,1949.147 582.168,1955.559C581.741,1961.971 575.15,2020.108 575.15,2020.108C575.15,2020.108 608.031,2024.561 620.641,2040.716L637.74,2001.727C637.74,2001.727 658.687,1951.284 659.542,1947.437C660.397,1943.589 666.595,1912.17 666.595,1909.605C666.595,1907.04 669.374,1880.75 669.374,1880.75L676.427,1838.808L684.122,1772.384L687.3,1749.086C687.3,1749.086 713.404,1632.146 663.175,1636.901Z" style="fill:rgb(77,122,159);"/>
                <path d="M687.3,1749.273C687.3,1749.273 674.386,1855.984 669.806,1876.976C669.806,1876.976 665.226,1930.793 658.737,1949.877C658.737,1949.877 625.531,2032.701 620.951,2040.716C620.951,2040.716 603.776,2021.25 575.15,2019.724C575.15,2019.724 586.6,1899.877 590.417,1890.335C590.417,1890.335 598.051,1854.839 599.959,1843.388C599.959,1843.388 604.921,1816.671 603.776,1809.037C603.776,1809.037 600.722,1763.618 604.539,1752.931C604.539,1752.931 592.325,1701.404 611.791,1672.397C611.791,1672.397 627.058,1641.862 663.318,1636.901" style="fill:none;stroke:black;stroke-width:4.17px;"/>
                <path d="M621.651,1854.394C621.651,1854.394 638.127,1874.432 641.244,1892.689" style="fill:none;stroke:black;stroke-width:4.17px;"/>
                <g transform="matrix(1,0,0,1,-81.710925,13.772633)">
                    <path d="M659.653,1986.171C659.653,1986.171 702.133,1987.774 709.881,2008.614" style="fill:none;stroke:black;stroke-width:2.08px;"/>
                </g>
            </g>
            <g id="body" transform="matrix(1,0,0,1,0,-3)">
                <path d="M914.144,1713.591C914.144,1713.591 888.318,1831.741 888.318,1842.428C888.318,1842.428 894.255,1868.552 906.426,1889.629C906.426,1889.629 931.956,1945.439 934.331,1959.985C934.331,1959.985 944.175,2003.197 940.246,2042.067C940.246,2042.067 927.299,2165.765 925.629,2171.109C925.629,2171.109 865.682,2179.859 827.981,2179.241C827.981,2179.241 679.709,2176.174 670.496,2166.971L663.361,2124.817C663.361,2124.817 655.643,2066.039 659.502,2044.961C659.502,2044.961 666.626,1978.465 670.486,1969.559C670.486,1969.559 682.657,1917.905 687.407,1907.812C687.407,1907.812 698.094,1871.892 697.797,1868.626L690.455,1808.475C690.455,1808.475 682.877,1805.465 679.67,1803.859C679.67,1803.859 660.006,1793.491 653.594,1777.674C653.594,1777.674 643.761,1755.445 649.853,1734.285C649.853,1734.285 657.014,1706.285 672.19,1692.605C672.19,1692.605 683.945,1678.926 685.655,1675.934L688.434,1666.175C688.434,1666.175 674.088,1638.196 690.448,1627.078C706.809,1615.959 748.052,1595.737 748.052,1595.737C748.052,1595.737 737.808,1621.813 760.037,1620.339C760.037,1620.339 784.617,1619.204 813.472,1595.737L819.029,1593.644L836.555,1580.113C836.555,1580.113 859.426,1595.053 869.471,1600.226C869.471,1600.226 905.612,1617.797 910.839,1617.583C910.839,1617.583 968.421,1647.408 914.144,1713.591Z" style="fill:rgb(77,122,159);"/>
                <path d="M748.052,1595.737C748.052,1595.737 707.725,1615.62 690.455,1624.854" style="fill:none;stroke:black;stroke-width:4.17px;"/>
                <path d="M906.49,1709.639C906.49,1709.639 876.566,1824.524 878.704,1842.158C878.704,1842.158 890.459,1886.509 918.246,1942.616C918.246,1942.616 935.345,1992.845 927.864,2054.295C920.383,2115.745 917.177,2170.783 917.177,2170.783" style="fill:none;stroke:black;stroke-width:2.08px;"/>
                <path d="M748.052,1595.737C748.052,1595.737 730.711,1635.151 784.2,1614.205C784.2,1614.205 821.893,1595.161 837.453,1580.113C837.453,1580.113 858.131,1595.906 882.772,1607.503C891.868,1611.783 901.504,1615.492 910.839,1617.625" style="fill:none;stroke:black;stroke-width:4.17px;"/>
                <path d="M719.254,1803.577C719.254,1803.577 744.192,1791.108 798.072,1808.475" style="fill:none;stroke:black;stroke-width:2.08px;"/>
                <path d="M913.789,1713.957C913.789,1713.957 889.624,1822.95 888.097,1844.324C888.097,1844.324 892.128,1863.718 904.151,1886.094C916.174,1908.47 920.646,1920.957 924.505,1930.456C928.364,1939.956 939.96,1969.215 940.238,2011.796C940.517,2054.377 932.502,2115.493 931.166,2127.85C929.83,2140.207 925.488,2171.266 925.488,2171.266C925.488,2171.266 786.39,2191.916 669.501,2166.757C669.501,2166.757 653.081,2079.759 660.095,2029.997C660.095,2029.997 662.766,1999.793 677.461,1936.486C677.461,1936.486 696.831,1881.862 697.165,1868.838C697.165,1868.838 692.762,1817.073 690.455,1809.057C690.455,1809.057 665.123,1803.324 652.358,1774.826C652.358,1774.826 640.483,1745.139 655.623,1717.531C655.623,1717.531 661.264,1703.579 683.825,1678.94C683.825,1678.94 689.564,1671.221 689.663,1666.175" style="fill:none;stroke:black;stroke-width:4.17px;"/>
            </g>
            <g id="r-hand" serif:id="r hand" transform="matrix(1,0,0,1,-95.47936,10.361494)">
                <path d="M984.315,1698.89L987.822,1708.508C987.822,1708.508 994.502,1762.21 1005.189,1795.34C1005.189,1795.34 1022.983,1858.687 1023.837,1860.825C1024.692,1862.962 1023.624,1868.092 1023.624,1868.092C1023.624,1868.092 1024.906,1901.863 1026.402,1912.763L1028.967,1937.985L1031.318,2003.389C1031.318,2003.389 1055.257,1997.404 1071.501,2002.748L1088.387,2010.576L1090.311,1999.755L1098.433,1924.733L1102.552,1888.183C1102.552,1888.183 1098.646,1847.145 1097.791,1842.229C1096.936,1837.313 1095.013,1799.909 1095.013,1799.909C1095.013,1799.909 1093.944,1752.886 1092.662,1746.474L1084.967,1713.344C1084.967,1713.344 1086.891,1701.375 1085.395,1694.963C1085.395,1694.963 1079.41,1660.978 1076.631,1655.634C1076.631,1655.634 1061.456,1628.062 1057.822,1625.711C1057.822,1625.711 1031.746,1602.658 1005.67,1604.566C1005.67,1604.566 944.259,1611.497 984.315,1698.89Z" style="fill:rgb(77,122,159);"/>
                <path d="M1006.739,1604.566C1006.739,1604.566 1088.513,1603.946 1085.365,1714.108C1085.365,1714.108 1094.429,1739.966 1094.429,1769.356C1094.429,1769.356 1095.574,1821.646 1097.864,1843.02C1097.864,1843.02 1104.353,1880.424 1102.063,1897.218C1102.063,1897.218 1090.231,2005.614 1088.704,2010.576C1088.704,2010.576 1068.094,1993.401 1031.452,2004.469C1031.452,2004.469 1028.781,1921.645 1024.582,1896.073C1024.582,1896.073 1022.674,1868.974 1023.819,1862.103C1023.819,1862.103 992.012,1757.874 987.941,1708.287L984.315,1699.668" style="fill:none;stroke:black;stroke-width:4.17px;"/>
                <path d="M1030.804,1854.394C1030.804,1854.394 1040.422,1834.546 1048.971,1827.6" style="fill:none;stroke:black;stroke-width:4.17px;"/>
                <g transform="matrix(1,0,0,1,50.76319,-11.015241)">
                    <path d="M980.618,1994.751C980.618,1994.751 1025.504,1982.193 1040.198,2000.628" style="fill:none;stroke:black;stroke-width:2.08px;"/>
                </g>
            </g>
        </g>
    </g>
</svg>
