<?xml version="1.0" encoding="UTF-8" standalone="no"?>
<!DOCTYPE svg PUBLIC "-//W3C//DTD SVG 1.1//EN" "http://www.w3.org/Graphics/SVG/1.1/DTD/svg11.dtd">
<svg width="100%" height="100%" viewBox="0 0 559 487" version="1.1" xmlns="http://www.w3.org/2000/svg" xmlns:xlink="http://www.w3.org/1999/xlink" xml:space="preserve" xmlns:serif="http://www.serif.com/" style="fill-rule:evenodd;clip-rule:evenodd;stroke-linecap:round;stroke-linejoin:round;stroke-miterlimit:1.5;">
    <g transform="matrix(1,0,0,1,-465.589529,-1524.289357)">
        <g>
            <g id="l-hand" serif:id="l hand" transform="matrix(1.029557,0,0,1.001941,84.328974,257.311645)">
                <path d="M497.702,1441.797C497.702,1441.797 486.23,1472.062 484.862,1476.337C483.495,1480.612 471.592,1511.344 471.592,1511.344C445.807,1482.397 413.344,1471.402 372.372,1465.072L389.93,1389.57C389.93,1389.57 401.044,1360.074 411.945,1350.669C411.945,1350.669 438.235,1329.723 447.853,1326.516C457.472,1323.31 467.731,1321.411 467.731,1321.411L475.084,1321.411C475.084,1321.411 522.866,1327.404 497.702,1441.797Z" style="fill:rgb(221,221,221);"/>
                <path d="M471.592,1511.344C482.784,1482.079 494.827,1450.355 497.702,1441.901M474.154,1321.411C474.154,1321.411 404.307,1324.082 387.513,1398.891C387.513,1398.891 380.283,1430.25 372.372,1465.072" style="fill:none;stroke:black;stroke-width:4.17px;"/>
                <g transform="matrix(0.971291,0,0,0.998063,-81.908005,-256.813285)">
                    <path d="M467.708,1725.227C467.708,1725.227 542.201,1734.419 569.86,1771.588" style="fill:none;stroke:black;stroke-width:4.17px;"/>
                </g>
            </g>
            <g id="body">
                <path d="M718.774,2005.267C713.475,2017.63 471.464,2000.952 474.141,1982.367C474.141,1982.367 466.271,1939.619 498.332,1846.108C498.332,1846.108 507.874,1817.1 510.546,1812.52C510.546,1812.52 511.309,1802.596 509.019,1798.398C509.019,1798.398 489.625,1767.315 489.291,1749.949C489.291,1749.949 483.614,1719.891 500.312,1697.182C500.312,1697.182 518.012,1667.124 540.388,1653.098L546.734,1648.422L549.072,1641.075C549.072,1641.075 519.62,1607.284 554.865,1587.703C554.865,1587.703 661.573,1540.916 669.913,1538.467C669.913,1538.467 666.331,1563.57 685.3,1569.181C685.3,1569.181 702.052,1578.532 740.873,1565.441C740.873,1565.441 793.052,1542.343 804.006,1526.373C804.006,1526.373 872.403,1558.227 882.021,1558.761C882.021,1558.761 906.334,1565.441 911.678,1568.38C917.021,1571.318 940.75,1581.959 940.75,1581.959C940.75,1581.959 1000.83,1651.76 920.252,1694.263C920.252,1694.263 910.318,1765.658 910.912,1797.719L906.458,1835.866C906.458,1835.866 905.531,1930.411 913.287,1968.001C908.805,1974.35 761.068,2002.384 766.977,2002.697" style="fill:rgb(221,221,221);"/>
                <clipPath id="_clip1">
                    <path d="M718.774,2005.267C713.475,2017.63 471.464,2000.952 474.141,1982.367C474.141,1982.367 466.271,1939.619 498.332,1846.108C498.332,1846.108 507.874,1817.1 510.546,1812.52C510.546,1812.52 511.309,1802.596 509.019,1798.398C509.019,1798.398 489.625,1767.315 489.291,1749.949C489.291,1749.949 483.614,1719.891 500.312,1697.182C500.312,1697.182 518.012,1667.124 540.388,1653.098L546.734,1648.422L549.072,1641.075C549.072,1641.075 519.62,1607.284 554.865,1587.703C554.865,1587.703 661.573,1540.916 669.913,1538.467C669.913,1538.467 666.331,1563.57 685.3,1569.181C685.3,1569.181 702.052,1578.532 740.873,1565.441C740.873,1565.441 793.052,1542.343 804.006,1526.373C804.006,1526.373 872.403,1558.227 882.021,1558.761C882.021,1558.761 906.334,1565.441 911.678,1568.38C917.021,1571.318 940.75,1581.959 940.75,1581.959C940.75,1581.959 1000.83,1651.76 920.252,1694.263C920.252,1694.263 910.318,1765.658 910.912,1797.719L906.458,1835.866C906.458,1835.866 905.531,1930.411 913.287,1968.001C908.805,1974.35 761.068,2002.384 766.977,2002.697"/>
                </clipPath>
                <g clip-path="url(#_clip1)">
                    <g transform="matrix(0.058702,0,-0.004158,0.058702,675.275886,1745.903105)">
                        <g transform="matrix(1,0,0,1,-3643.75,-5168.75)">
                            <g id="_5a7f5f47abc3d121aba71181.png" serif:id="5a7f5f47abc3d121aba71181.png" transform="matrix(9.809338,0,0,9.809338,1487.916371,3540.618292)">
                                <path d="M68.5,2.034L374.5,2.034C380.228,1.997 377.965,4.825 377.966,10.5C377.971,125.615 377.931,125.602 378.034,129.495C378.115,132.53 376.364,131.966 345.5,131.966C7.396,131.966 7.4,131.958 4.505,132.034C2.224,132.095 2.044,130.955 2.035,129.512C1.968,119.35 1.206,3.811 2.483,2.483C2.979,1.967 3.134,2.034 68.5,2.034Z" style="fill:rgb(227,36,31);"/>
                                <path d="M131.908,46.381C133.181,46.559 133.23,46.931 134.237,46.096C142.771,39.013 156.65,41.486 161.526,50.484C175.436,76.149 142.517,105.234 127.284,89.739C123.632,86.025 125.05,91.603 121.092,115.436C120.525,118.854 117.019,118.398 108.534,118.196C105.957,118.134 107.621,112.401 107.761,111.541C118.48,45.713 117.115,43.654 120.503,43.541C130.398,43.21 131.81,42.973 131.908,46.381Z" style="fill:rgb(254,254,254);"/>
                                <path d="M303.935,61.531C303.934,60.823 303.926,54.362 300.541,53.363C286.181,49.127 288.392,89.962 284.333,92.047C283.837,92.301 272.861,92.251 272.605,92.132C268.421,90.19 281.877,56.107 272.538,53.37C259.576,49.57 259.998,82.28 257.572,90.52C256.756,93.293 243.399,93.064 243.666,90.502C243.715,90.035 250.879,45.057 250.992,44.692C251.593,42.738 263.815,43.515 264.262,43.842C264.904,44.312 264.047,48.491 266.707,45.911C270.1,42.62 277.748,40.606 283.649,43.139C288.949,45.414 288.559,50.733 292.806,46.858C298.682,41.496 310.238,39.854 315.44,45.555C317.864,48.212 320.64,51.255 313.431,90.482C312.985,92.906 306.42,92.26 301.516,92.215C297.789,92.18 300.305,89.827 303.935,61.531Z" style="fill:rgb(254,254,254);"/>
                                <path d="M31.534,94.12C24.437,92.448 23.744,93.497 18.721,88.276C10.687,79.927 14.616,78.172 14.886,77.95C19.728,73.96 23.153,69.353 24.833,73.35C29.157,83.637 39.907,82.6 44.084,77.155C54.882,63.076 34.131,57.494 33.627,57.244C31.505,56.191 14.844,47.923 25.818,28.684C39.127,5.351 70.443,19.701 66.017,25.15C60.919,31.428 59.199,34.206 57.147,31.837C51.166,24.932 42.528,28.407 39.923,31.856C32.396,41.822 48.092,46.359 51.301,47.896C70.258,56.982 61.991,76.538 55.01,85.06C47.775,93.892 33.547,94.092 31.534,94.12Z" style="fill:rgb(254,254,254);"/>
                                <path d="M319.92,72.513C320.168,70.685 321.868,58.142 327.954,50.895C331.622,46.526 337.314,43.723 340.612,42.917C366.657,36.557 369.802,60.597 367,68.69C365.695,72.46 335.593,67.786 334.678,71.55C332.429,80.805 342.682,87.783 350.436,79.439C353.217,76.447 353.736,76.32 363.572,78.326C366.432,78.909 360.859,84.983 360.438,85.441C352.064,94.567 321.689,103.426 319.92,72.513Z" style="fill:rgb(254,254,254);"/>
                                <path d="M215.5,70.122C214.815,70.238 214.102,70.09 213.417,70.206C210.818,70.648 210.769,82.986 219.509,83.134C225.758,83.239 229.223,77.863 229.555,77.56C230.97,76.267 243.183,77.261 241.642,80.565C234.059,96.83 197.48,101.595 197.311,73.501C197.072,33.796 252.797,31.215 244.44,68.482C243.982,70.526 243.114,70.122 215.5,70.122Z" style="fill:rgb(254,254,254);"/>
                                <path d="M79.084,74.5C80.325,87.292 92.578,83.241 94.823,72.576C97.799,58.434 97.797,43.633 101.503,43.542C106.551,43.417 113.528,42.841 113.173,45.479C108.891,77.371 106.773,80.66 105.1,83.258C95.049,98.868 61.59,99.663 64.941,73.552C65.245,71.179 68.522,45.642 70.152,44.11C70.784,43.515 83.598,42.102 83.337,45.491C83.017,49.651 79.894,63.977 79.084,74.5Z" style="fill:rgb(254,254,254);"/>
                                <path d="M165.894,78.56C170.717,48.561 171.05,44.652 171.903,43.986C172.258,43.709 185.648,41.921 185.003,45.608C184.052,51.043 189.498,41.679 197.511,41.95C206.416,42.252 202.117,48.154 201.71,49.562C200.558,53.543 200.444,55.85 197.4,54.808C181.133,49.239 180.124,77.564 178.131,89.442C177.57,92.785 174.602,92.44 165.534,92.211C163.063,92.149 164.829,85.167 165.894,78.56Z" style="fill:rgb(254,254,254);"/>
                                <path d="M127.087,69.483C130.477,49.759 145.369,53.163 148.499,58.5C158.395,75.371 128.239,94.607 127.087,69.483Z" style="fill:rgb(227,36,31);"/>
                                <path d="M217.342,55.359C225.06,47.705 231.811,53.354 232.381,59.506C232.506,60.858 232.127,62.303 215.516,61.444C212.97,61.312 217.041,55.769 217.342,55.359Z" style="fill:rgb(227,34,29);"/>
                                <path d="M338.382,57.427C346.774,45.716 355.013,54.425 354.939,59.5C354.92,60.824 354.542,61.939 338.501,61.491C335.7,61.412 337.402,60.017 338.382,57.427Z" style="fill:rgb(227,34,29);"/>
                            </g>
                        </g>
                    </g>
                </g>
                <path d="M669.913,1538.467C669.913,1538.467 585.944,1575.108 558.463,1584.268C530.983,1593.429 669.913,1538.467 669.913,1538.467Z" style="fill:none;stroke:black;stroke-width:4.17px;"/>
                <path d="M669.913,1538.467C669.913,1538.467 656.733,1587.37 734.441,1567.689C734.441,1567.689 769.424,1559.436 804.157,1526.373C804.157,1526.373 861.266,1555.981 893.661,1561.883C893.661,1561.883 913.365,1567.411 936.742,1579.287" style="fill:none;stroke:black;stroke-width:4.17px;"/>
                <path d="M475.855,1987.26C475.855,1987.26 468.953,1966.865 482.846,1895.214C482.846,1895.214 501.682,1831.356 507.471,1819.778C507.471,1819.778 516.027,1807.469 505.721,1792.965C505.721,1792.965 478.24,1754.034 491.599,1715.103C491.599,1715.103 501.523,1676.553 546.943,1648.691C546.943,1648.691 551.523,1641.057 549.614,1636.859M918.63,1694.949C918.63,1694.949 897.256,1844.804 911.951,1967.704" style="fill:none;stroke:black;stroke-width:4.17px;"/>
                <path d="M475.855,1987.26C475.855,1987.26 675.156,2046.435 910.912,1968.001" style="fill:none;stroke:black;stroke-width:4.17px;"/>
                <path d="M554.865,1809.505C554.865,1809.505 627.517,1791.693 697.567,1825.535" style="fill:none;stroke:black;stroke-width:4.17px;"/>
            </g>
            <g id="r-hand" serif:id="r hand" transform="matrix(1.029557,0,0,1.001941,-127.746021,248.470439)">
                <path d="M993.048,1506.068C993.048,1506.068 1075.174,1501.369 1117.137,1471.402C1120.124,1469.269 1115.751,1461.988 1113.828,1456.645C1111.904,1451.301 1104.866,1419.329 1102.301,1413.986C1099.736,1408.642 1094.82,1386.199 1090.759,1380.428C1086.698,1374.657 1068.958,1347.085 1064.683,1344.52C1060.408,1341.955 1042.069,1327.08 1025.996,1324.611C1009.923,1322.142 939.976,1347.596 972.382,1443.645L993.048,1506.068Z" style="fill:rgb(221,221,221);"/>
                <g transform="matrix(0.971291,0,0,0.998063,124.078609,-247.989203)">
                    <path d="M895.508,1757.461C895.508,1757.461 974.324,1752.117 1021.525,1722.728" style="fill:none;stroke:black;stroke-width:4.17px;"/>
                </g>
                <path d="M1117.137,1471.402C1112.967,1453.491 1106.373,1426.769 1099.152,1403.652C1099.152,1403.652 1084.606,1340.048 1027.312,1324.611M972.382,1445.376C972.382,1445.376 982.149,1474.511 993.048,1506.068" style="fill:none;stroke:black;stroke-width:4.17px;"/>
            </g>
        </g>
    </g>
</svg>
