<?xml version="1.0" encoding="UTF-8" standalone="no"?>
<svg width="100%" height="100%" viewBox="0 0 559 487" version="1.1" xmlns="http://www.w3.org/2000/svg" xmlns:xlink="http://www.w3.org/1999/xlink" xml:space="preserve" xmlns:serif="http://www.serif.com/" style="fill-rule:evenodd;clip-rule:evenodd;stroke-linecap:round;stroke-linejoin:round;stroke-miterlimit:1.5;">
    <g transform="matrix(1,0,0,1,-465.589529,-1524.289357)">
        <g>
            <g id="l-hand" serif:id="l hand" transform="matrix(1.029557,0,0,1.001941,84.328974,257.311645)">
                <path d="M497.702,1441.797C497.702,1441.797 486.23,1472.062 484.862,1476.337C483.495,1480.612 471.592,1511.344 471.592,1511.344C445.807,1482.397 413.344,1471.402 372.372,1465.072L389.93,1389.57C389.93,1389.57 401.044,1360.074 411.945,1350.669C411.945,1350.669 438.235,1329.723 447.853,1326.516C457.472,1323.31 467.731,1321.411 467.731,1321.411L475.084,1321.411C475.084,1321.411 522.866,1327.404 497.702,1441.797Z" style="fill:rgb(221,221,221);"/>
                <path d="M471.592,1511.344C482.784,1482.079 494.827,1450.355 497.702,1441.901M474.154,1321.411C474.154,1321.411 404.307,1324.082 387.513,1398.891C387.513,1398.891 380.283,1430.25 372.372,1465.072" style="fill:none;stroke:black;stroke-width:4.17px;"/>
                <g transform="matrix(0.971291,0,0,0.998063,-81.908005,-256.813285)">
                    <path d="M467.708,1725.227C467.708,1725.227 542.201,1734.419 569.86,1771.588" style="fill:none;stroke:black;stroke-width:4.17px;"/>
                </g>
            </g>
            <g id="body">
                <path d="M718.774,2005.267C713.475,2017.63 471.464,2000.952 474.141,1982.367C474.141,1982.367 466.271,1939.619 498.332,1846.108C498.332,1846.108 507.874,1817.1 510.546,1812.52C510.546,1812.52 511.309,1802.596 509.019,1798.398C509.019,1798.398 489.625,1767.315 489.291,1749.949C489.291,1749.949 483.614,1719.891 500.312,1697.182C500.312,1697.182 518.012,1667.124 540.388,1653.098L546.734,1648.422L549.072,1641.075C549.072,1641.075 519.62,1607.284 554.865,1587.703C554.865,1587.703 661.573,1540.916 669.913,1538.467C669.913,1538.467 666.331,1563.57 685.3,1569.181C685.3,1569.181 702.052,1578.532 740.873,1565.441C740.873,1565.441 793.052,1542.343 804.006,1526.373C804.006,1526.373 872.403,1558.227 882.021,1558.761C882.021,1558.761 906.334,1565.441 911.678,1568.38C917.021,1571.318 940.75,1581.959 940.75,1581.959C940.75,1581.959 1000.83,1651.76 920.252,1694.263C920.252,1694.263 910.318,1765.658 910.912,1797.719L906.458,1835.866C906.458,1835.866 905.531,1930.411 913.287,1968.001C908.805,1974.35 761.068,2002.384 766.977,2002.697" style="fill:rgb(221,221,221);"/>
                <path d="M669.913,1538.467C669.913,1538.467 585.944,1575.108 558.463,1584.268C530.983,1593.429 669.913,1538.467 669.913,1538.467Z" style="fill:none;stroke:black;stroke-width:4.17px;"/>
                <path d="M669.913,1538.467C669.913,1538.467 656.733,1587.37 734.441,1567.689C734.441,1567.689 769.424,1559.436 804.157,1526.373C804.157,1526.373 861.266,1555.981 893.661,1561.883C893.661,1561.883 913.365,1567.411 936.742,1579.287" style="fill:none;stroke:black;stroke-width:4.17px;"/>
                <path d="M475.855,1987.26C475.855,1987.26 468.953,1966.865 482.846,1895.214C482.846,1895.214 501.682,1831.356 507.471,1819.778C507.471,1819.778 516.027,1807.469 505.721,1792.965C505.721,1792.965 478.24,1754.034 491.599,1715.103C491.599,1715.103 501.523,1676.553 546.943,1648.691C546.943,1648.691 551.523,1641.057 549.614,1636.859M918.63,1694.949C918.63,1694.949 897.256,1844.804 911.951,1967.704" style="fill:none;stroke:black;stroke-width:4.17px;"/>
                <path d="M475.855,1987.26C475.855,1987.26 675.156,2046.435 910.912,1968.001" style="fill:none;stroke:black;stroke-width:4.17px;"/>
                <path d="M554.865,1809.505C554.865,1809.505 627.517,1791.693 697.567,1825.535" style="fill:none;stroke:black;stroke-width:4.17px;"/>
            </g>
            <g id="r-hand" serif:id="r hand" transform="matrix(1.029557,0,0,1.001941,-127.746021,248.470439)">
                <path d="M993.048,1506.068C993.048,1506.068 1075.174,1501.369 1117.137,1471.402C1120.124,1469.269 1115.751,1461.988 1113.828,1456.645C1111.904,1451.301 1104.866,1419.329 1102.301,1413.986C1099.736,1408.642 1094.82,1386.199 1090.759,1380.428C1086.698,1374.657 1068.958,1347.085 1064.683,1344.52C1060.408,1341.955 1042.069,1327.08 1025.996,1324.611C1009.923,1322.142 939.976,1347.596 972.382,1443.645L993.048,1506.068Z" style="fill:rgb(221,221,221);"/>
                <g transform="matrix(0.971291,0,0,0.998063,124.078609,-247.989203)">
                    <path d="M895.508,1757.461C895.508,1757.461 974.324,1752.117 1021.525,1722.728" style="fill:none;stroke:black;stroke-width:4.17px;"/>
                </g>
                <path d="M1117.137,1471.402C1112.967,1453.491 1106.373,1426.769 1099.152,1403.652C1099.152,1403.652 1084.606,1340.048 1027.312,1324.611M972.382,1445.376C972.382,1445.376 982.149,1474.511 993.048,1506.068" style="fill:none;stroke:black;stroke-width:4.17px;"/>
            </g>
        </g>
    </g>
</svg>
