<?xml version="1.0" encoding="UTF-8" standalone="no"?>
<svg width="100%" height="100%" viewBox="0 0 401 626" version="1.1" xmlns="http://www.w3.org/2000/svg" xmlns:xlink="http://www.w3.org/1999/xlink" xml:space="preserve" xmlns:serif="http://www.serif.com/" style="fill-rule:evenodd;clip-rule:evenodd;stroke-linecap:round;stroke-linejoin:round;stroke-miterlimit:1.5;">
    <g transform="matrix(1,0,0,1,-571.439808,-1458.992622)">
        <g>
            <g id="l-hand" serif:id="l hand" transform="matrix(1,0,0,1,57.245396,1.001905)">
                <path d="M619.215,1606.491C619.215,1606.491 607.154,1699.111 605.67,1709.205L603.592,1728.501C603.592,1728.501 598.842,1776.295 597.358,1783.123C597.358,1783.123 558.172,1906.403 557.282,1907.697C557.282,1907.697 552.532,1901.274 548.079,1898.008C548.079,1898.008 529.896,1887.915 516.278,1887.915C516.278,1887.915 521.065,1853.182 521.658,1848.432C521.658,1848.432 529.377,1771.249 530.861,1765.311C530.861,1765.311 540.954,1720.485 542.736,1715.736C542.736,1715.736 552.532,1629.349 552.532,1625.49C552.532,1625.49 551.345,1575.914 555.204,1565.524C555.204,1565.524 562.922,1527.526 578.359,1515.948C578.359,1515.948 592.014,1502.19 601.811,1500.757C611.607,1499.324 654.015,1525.626 619.215,1606.491Z" style="fill:rgb(77,122,159);"/>
                <path d="M601.829,1500.757C601.829,1500.757 544.909,1508.522 552.246,1625.118C552.246,1625.118 545.667,1697.52 542.995,1715.777C542.995,1715.777 531.418,1754.962 528.746,1784.352C528.746,1784.352 518.949,1879.644 516.278,1888.55C516.278,1888.55 547.893,1890.331 556.354,1907.697C556.354,1907.697 593.313,1799.046 597.321,1782.125C597.321,1782.125 604.445,1730.471 604,1723.792C603.555,1717.113 620.476,1608.016 619.14,1605.345" style="fill:none;stroke:black;stroke-width:4.17px;"/>
            </g>
            <g id="body">
                <path d="M886.1,1500.757C886.1,1500.757 834.616,1477.573 810.838,1461.076C810.838,1461.076 781.689,1489.491 747.063,1495.048C747.063,1495.048 724.407,1499.536 719.277,1488.849C719.277,1488.849 715.66,1477.094 716.721,1474.315L708.376,1477.521C708.376,1477.521 667.255,1500.201 658.492,1501.759C658.492,1501.759 633.217,1513.044 651.522,1563.658L649.812,1569.429C649.812,1569.429 622.757,1610.895 624.101,1625.215C624.101,1625.215 622.239,1666.681 655.369,1676.94C655.369,1676.94 663.277,1734.009 665.415,1740.421C665.415,1740.421 651.522,1793.001 648.529,1800.054C648.529,1800.054 629.293,1868.879 629.72,1877.856C629.72,1877.856 626.808,1926.882 633.22,1958.943C633.22,1958.943 645.054,2049.737 655.407,2071.445C655.407,2071.445 666.461,2077.357 691.308,2079.227C691.308,2079.227 742.606,2084.561 752.758,2082.695C752.758,2082.695 836.987,2080.028 868.712,2070.677L895.094,2065.067L902.575,1995.868C902.575,1995.868 908.028,1931.212 908.107,1923.464C908.107,1923.464 906.049,1865.22 903.644,1858.54C903.644,1858.54 887.881,1810.716 883.072,1802.968C883.072,1802.968 863.835,1770.354 856.889,1762.348L852.881,1748.197L849.675,1733.236C849.675,1733.236 850.743,1717.739 852.881,1709.724C852.881,1709.724 863.568,1655.755 866.774,1649.343C866.774,1649.343 886.812,1593.236 890.018,1589.228C890.018,1589.228 939.58,1530.985 886.1,1500.757Z" style="fill:rgb(77,122,159);"/>
                <path d="M717.112,1473.099C717.112,1473.099 710.767,1502.822 749.173,1494.139C749.173,1494.139 781.902,1487.125 810.289,1461.076C810.289,1461.076 853.371,1488.673 886.1,1500.757" style="fill:none;stroke:black;stroke-width:4.17px;"/>
                <path d="M717.112,1473.099C717.112,1473.099 677.417,1494.779 659.049,1500.757" style="fill:none;stroke:black;stroke-width:4.17px;"/>
                <path d="M650.867,1553.132C650.867,1553.132 652.775,1563.819 650.485,1568.781C650.485,1568.781 624.531,1606.266 624.15,1625.118C624.15,1625.118 621.478,1667.254 655.829,1677.559C655.829,1677.559 662.007,1726.151 665.347,1741.18C665.347,1741.18 656.33,1777.583 650.986,1791.275C650.986,1791.275 626.941,1863.412 628.276,1898.479C628.276,1898.479 631.783,1976.906 643.973,2026.723C643.973,2026.723 653.658,2065.352 655.662,2073.367C655.662,2073.367 747.024,2099.005 895.507,2065.274C895.507,2065.274 905.583,1967.183 905.965,1959.931C906.346,1952.679 912.453,1897.717 902.148,1852.298C902.148,1852.298 889.553,1804.206 861.308,1767.183C861.308,1767.183 848.331,1750.771 850.24,1725.962C850.24,1725.962 859.079,1649.065 890.108,1588.812" style="fill:none;stroke:black;stroke-width:4.17px;"/>
                <path d="M688.081,1675.841C688.081,1675.841 725.409,1670.497 754.798,1683.856" style="fill:none;stroke:black;stroke-width:4.17px;"/>
                <path d="M886.1,1587.651C886.1,1587.651 827.135,1703.604 844.769,1750.627C862.403,1797.65 879.969,1792.64 895.532,1863.375C895.532,1863.375 906.858,1877.669 886.1,2030.292L882.485,2065.582" style="fill:none;stroke:black;stroke-width:2.08px;"/>
            </g>
            <g id="r-hand" serif:id="r hand" transform="matrix(1,0,0,1,-72.314081,-9.168575)">
                <path d="M935.43,1601.314C935.43,1601.314 968.601,1726.886 974.612,1743.585L974.854,1748.873L975.744,1795.48C975.744,1795.48 980.791,1895.819 980.494,1900.569C980.494,1900.569 1002.462,1892.85 1013.149,1897.006L1033.335,1903.734L1037.194,1883.944L1042.243,1822.791C1042.243,1822.791 1045.51,1758.372 1042.243,1747.092C1042.243,1747.092 1033.929,1674.361 1032.148,1669.611C1032.148,1669.611 1018.789,1593.615 1016.414,1587.974C1016.414,1587.974 1008.399,1548.789 1002.165,1541.07C1002.165,1541.07 979.603,1509.7 951.105,1507.87C951.105,1507.87 899.688,1507.785 935.43,1601.314Z" style="fill:rgb(77,122,159);"/>
                <path d="M951.015,1507.87C951.015,1507.87 1003.56,1514.995 1011.13,1568.43C1011.13,1568.43 1025.379,1628.544 1028.051,1646.801C1028.051,1646.801 1039.183,1722.501 1040.519,1734.969C1040.519,1734.969 1044.081,1767.92 1040.964,1808.442C1040.964,1808.442 1036.066,1895.719 1033.394,1903.734C1033.394,1903.734 1001.333,1888.594 979.514,1901.508C979.514,1901.508 976.842,1829.371 976.397,1818.238C976.397,1818.238 974.171,1758.124 975.061,1746.101C975.061,1746.101 937.657,1616.345 935.43,1600.046" style="fill:none;stroke:black;stroke-width:4.17px;"/>
            </g>
        </g>
    </g>
</svg>
