<?xml version="1.0" encoding="UTF-8" standalone="no"?>
<svg width="100%" height="100%" viewBox="0 0 1447 1228" version="1.1" xmlns="http://www.w3.org/2000/svg" xmlns:xlink="http://www.w3.org/1999/xlink" xml:space="preserve" xmlns:serif="http://www.serif.com/" style="fill-rule:evenodd;clip-rule:evenodd;stroke-linecap:round;stroke-linejoin:round;stroke-miterlimit:1.5;">
    <g transform="matrix(1,0,0,1,-150.912065,-517.006772)">
        <g transform="matrix(0.631072,0,0,0.631072,874.015748,1130.987535)">
            <g transform="matrix(1,0,0,1,-1145.833333,-972.916667)">
                <clipPath id="_clip1">
                    <rect x="0" y="0" width="2291.667" height="1945.833"/>
                </clipPath>
                <g clip-path="url(#_clip1)">
                    <g transform="matrix(4.166667,0,0,4.166667,-2406.792871,-2188.053758)">
                        <g>
                            <g id="l-hand" serif:id="l hand" transform="matrix(1,0,0,1,73.808787,-19.943735)">
                                <path d="M505.905,776.055C505.905,776.055 508.88,746.189 512.086,744.052C512.086,744.052 500.775,653.168 545.216,627.831C545.216,627.831 550.173,624.685 557.001,622.495C557.001,622.495 640.751,590.047 617.43,738.318L615.13,774.693L611.911,794.161L583.439,794.161L543.087,789.245" style="fill:rgb(206,206,206);"/>
                                <path d="M611.852,794.161C614.314,781.817 616.376,768.017 617.073,754.245C617.073,754.245 617.133,741.584 617.43,738.318M563.259,619.488C563.259,619.488 496.335,634.824 512.543,744.632C512.543,744.632 507.154,746.971 505.905,776.055" style="fill:none;stroke:black;stroke-width:4.17px;"/>
                                <g transform="matrix(1,0,0,1,-73.808787,19.943735)">
                                    <path d="M579.714,756.111C579.714,756.111 613.639,776.936 685.72,773.919" style="fill:none;stroke:black;stroke-width:4.17px;"/>
                                </g>
                            </g>
                            <g id="body">
                                <path d="M637.068,602.437C637.068,602.437 604.804,615.558 629.337,670.641L627.238,681.166C627.238,681.166 610.206,741.758 642.935,773.341C642.935,773.341 643.269,827.536 656.961,860.697L657.073,877.401L653.659,928.981L653.659,950.986L652.026,975.662L679.634,982.193C679.634,982.193 788.291,1007.122 948.553,969.15L949.698,962.823L948.362,939.831L949.312,930.242L949.46,907.978L955.991,863.716L971.22,834.327L987.518,794.251L1005.566,738.07C1005.566,738.07 1075.415,621.499 1023.352,595.537L1001.871,584.198L898.007,527.216C898.007,527.216 879.572,569.403 816.518,580.624C816.518,580.624 778.045,587.838 760.679,571.273C760.679,571.273 753.732,563.525 760.679,546.159L701.9,569.937L644.725,595.537L637.068,602.437Z" style="fill:rgb(206,206,206);"/>
                                <clipPath id="_clip2">
                                    <path d="M637.068,602.437C637.068,602.437 604.804,615.558 629.337,670.641L627.238,681.166C627.238,681.166 610.206,741.758 642.935,773.341C642.935,773.341 643.269,827.536 656.961,860.697L657.073,877.401L653.659,928.981L653.659,950.986L652.026,975.662L679.634,982.193C679.634,982.193 788.291,1007.122 948.553,969.15L949.698,962.823L948.362,939.831L949.312,930.242L949.46,907.978L955.991,863.716L971.22,834.327L987.518,794.251L1005.566,738.07C1005.566,738.07 1075.415,621.499 1023.352,595.537L1001.871,584.198L898.007,527.216C898.007,527.216 879.572,569.403 816.518,580.624C816.518,580.624 778.045,587.838 760.679,571.273C760.679,571.273 753.732,563.525 760.679,546.159L701.9,569.937L644.725,595.537L637.068,602.437Z"/>
                                </clipPath>
                                <g clip-path="url(#_clip2)">
                                    <g transform="matrix(0.038834,0,0,0.038834,795.519591,683.632903)">
                                        <g transform="matrix(1,0,0,1,-3643.75,-5168.75)">
                                            <g id="Balenciaga-Logo-2017-present.jpg" transform="matrix(6.559246,0,0,6.559246,283.333333,2800)">
                                                <path d="M420.896,335.5C420.896,232.572 420.895,232.58 420.903,232.527C421.335,229.788 422.659,229.997 455.499,230.516C459.569,230.58 458.206,232.812 478.785,291.392C490.394,324.437 486.472,327.292 489.468,327.293C491.073,327.293 489.841,318.388 489.785,317.493C488.903,303.406 489.234,232.193 489.507,231.503C490.067,230.089 490.533,230.189 508.499,230.51C510.978,230.555 510.734,232.599 510.736,233.497C510.757,242.62 510.999,346.184 510.632,347.537C510.292,348.787 509.788,348.991 478.495,348.91C475.561,348.902 475.291,348.338 472.687,340.439C461.067,305.19 447.952,273.72 443.321,250.577C443.02,249.073 441.094,248.995 441.292,251.473C441.896,259.052 443.361,277.402 442.632,346.506C442.603,349.279 441.197,349.044 423.487,348.908C419.677,348.879 420.917,341.085 420.896,335.5Z"/>
                                                <path d="M862.5,302.9C858.461,302.742 856.498,304.489 856.476,300.501C856.394,286.027 856.156,284.161 858.438,284.034C859.985,283.948 893.668,283.823 894.641,284.175C895.944,284.646 895.811,285.226 895.801,335.5C895.799,340.728 897.578,342.725 890.398,345.211C879.123,349.114 827.615,361.799 815.729,325.428C812.398,315.234 806.998,265.577 820.797,244.705C837.125,220.009 893.338,220.33 896.055,259.513C896.277,262.712 891.352,261.881 876.5,261.882C872.625,261.882 872.291,261.379 871.552,257.491C868.708,242.532 841.462,238.716 838.341,268.481C838.335,268.538 834.883,309.379 840.825,322.354C848.104,338.249 871.625,331.495 872.364,328.467C872.492,327.941 872.764,304.625 872.192,303.69C871.713,302.908 863.278,302.9 862.5,302.9Z"/>
                                                <path d="M384.826,281.501C384.823,291.732 385.744,296.824 382.532,296.962C368.769,297.552 348.008,295.57 347.347,298.465C347.268,298.809 347.219,327.961 347.378,328.534C348.272,331.75 386.568,328.387 388.487,330.509C388.613,330.649 389.985,348.153 387.601,348.805C387.161,348.925 387.185,348.91 332.5,348.91C329.039,348.91 323.172,349.948 323.128,346.523C322.958,333.398 323.11,242.539 323.126,233.496C323.128,232.018 322.956,230.313 325.488,230.279C330.361,230.215 384.878,229.493 386.402,230.643C387.14,231.199 388.489,248.798 385.458,249.205C380.774,249.833 348.247,247.856 347.414,250.471C347.402,250.51 346.793,276.157 347.781,277.241C349.257,278.86 382.866,276.691 384.47,278.521C384.628,278.701 384.496,278.739 384.826,281.501Z"/>
                                                <path d="M541.086,287.5C541.175,254.116 546.681,228.691 585.498,228.79C625.365,228.891 624.189,263.012 622.621,263.714C621.546,264.196 600.543,263.898 600.386,263.855C597.914,263.181 599.977,248.823 588.413,246.937C567.802,243.577 567.047,266.764 566.875,272.516C565.617,314.704 567.329,331.173 582.534,332.193C601.24,333.448 599.077,317.166 600.277,314.376C601.107,312.445 623.359,313.609 623.428,313.646C624.951,314.46 626.731,349.081 586.5,350.493C537.739,352.205 541.098,304.864 541.086,287.5Z"/>
                                                <path d="M290.5,348.91C236.997,348.91 236.968,348.939 236.395,348.731C235.31,348.337 235.311,341.164 235.311,340.5C235.327,232.306 235.216,232.295 235.523,231.51C236.219,229.732 258.022,230.258 258.874,231.159C260.058,232.41 259.095,321.706 259.408,327.505C259.569,330.497 261.206,329.826 295.498,329.855C299.156,329.858 298.418,333.236 298.319,345.499C298.276,350.732 295.737,348.653 290.5,348.91Z"/>
                                                <path d="M674.071,234.5C674.057,347.519 674.197,347.739 673.465,348.46C673.135,348.785 650.9,350.1 650.183,347.608C650.099,347.318 649.803,232.627 650.337,231.407C650.979,229.944 673.156,229.999 673.745,231.349C673.846,231.581 673.769,231.582 674.071,234.5Z"/>
                                                <path d="M92.904,262.527C91.784,268.297 91.31,282.303 71.613,285.775C65.711,286.815 75.189,288.203 75.558,288.258C98.911,291.679 106.879,341.584 68.546,347.787C54.013,350.139 14.477,348.584 14.455,348.564C13.639,347.846 13.734,347.6 13.734,244.5C13.734,238.883 12.936,230.619 15.503,230.524C19.18,230.389 41.534,229.568 61.495,230.612C87.935,231.996 92.943,244.788 92.904,262.527ZM37.958,274.5C38.316,276.905 37.271,277.959 39.554,278.163C62.68,280.228 66.09,273.327 67.096,271.291C69.487,266.454 71.913,249.77 55.483,248.689C38.462,247.569 38.086,249.03 38.037,250.432C37.969,252.356 38.219,252.273 37.958,274.5ZM37.962,316.5C37.964,324.069 36.866,330.881 40.481,330.915C46.268,330.969 75.963,335.424 70.186,307.579C67.428,294.289 49.322,296.233 40.495,296.31C37.282,296.339 38.165,298.095 37.962,316.5Z"/>
                                                <path d="M983.977,240.355C992.635,273.479 1013.572,347.355 1012.524,348.524C1012.447,348.61 988.94,350.339 987.575,347.461C985.709,343.527 982.187,323.07 979.522,322.403C979.258,322.337 947.481,322.004 946.548,322.602C943.824,324.347 940.421,347.956 937.585,348.777C937.25,348.874 916.162,349.235 915.454,348.555C914.11,347.263 927.689,301.722 939.854,255.589C946.08,231.977 945.603,231.379 947.573,230.696C949.911,229.885 949.995,230.437 978.5,230.506C982.576,230.516 983.005,236.811 983.977,240.355ZM954.082,287.38C950.644,301.769 949.558,303.916 952.45,303.968C975.538,304.382 976.75,304.431 976.587,302.503C976.25,298.523 967.586,268.464 964.707,251.399C963.623,244.969 962.162,254.093 962.112,254.407C961.88,255.853 954.734,284.744 954.082,287.38Z" style="fill:rgb(1,1,1);"/>
                                                <path d="M703.896,327.623C729.731,232.807 728.533,231.288 731.526,230.613C732.437,230.408 762.976,230.503 763.491,230.559C765.094,230.735 765.22,231.193 770.122,249.599C796.137,347.281 797.3,348.112 795.635,348.749C794.871,349.042 772.922,348.94 772.412,348.801C769.617,348.043 766.06,323.834 763.454,322.598C762.226,322.016 730.945,322.303 730.481,322.429C727.984,323.111 724.655,341.743 722.441,347.472C721.806,349.116 721.295,349.295 700.453,348.918C696.906,348.853 700.052,342.102 703.896,327.623ZM749.883,260.414C748.05,251.439 748.395,251.391 748.234,250.612C747.371,246.437 746.324,251.449 742.733,266.552C734.197,302.459 733.662,302.714 734.46,303.537C735.808,304.93 756.658,304.033 758.587,303.95C760.915,303.85 760.125,302.304 754.177,277.584C751.149,265.003 750.124,261.383 749.883,260.414Z" style="fill:rgb(1,1,1);"/>
                                                <path d="M137.979,341.64C136.544,346.751 137.775,348.869 132.503,348.911C113.684,349.062 111.865,349.153 112.556,346.512C112.609,346.307 132.728,272.445 142.961,234.624C144.544,228.774 146.467,230.503 152.5,230.504C177.015,230.51 178.524,229.699 179.547,233.486C181.944,242.366 209.221,343.423 209.508,344.498C210.277,347.379 211.552,348.814 208.564,348.91C206.793,348.967 189.091,349.536 186.413,348.791C182.904,347.815 180.463,322.788 176.521,322.349C176.044,322.296 145.231,322.208 144.475,322.393C142.829,322.795 142.386,325.033 137.979,341.64ZM150.91,289.598C148.262,301.098 147.146,303.859 149.405,303.96C151.337,304.046 172.161,304.976 173.581,303.587C175.04,302.159 163.162,261.148 161.978,251.139C161.171,244.314 159.484,254.153 159.427,254.484C158.738,258.5 151.616,286.795 150.91,289.598Z" style="fill:rgb(1,1,1);"/>
                                            </g>
                                        </g>
                                    </g>
                                </g>
                                <path d="M761.521,547.827C761.521,547.827 739.765,585.995 805.414,581.796C805.414,581.796 869.535,577.598 897.398,527.216C897.398,527.216 978.314,569.201 1001.978,584.85L1023.352,595.537" style="fill:none;stroke:black;stroke-width:4.17px;"/>
                                <path d="M1005.566,738.132C1005.566,738.132 991.672,796.556 956.405,863.26C956.405,863.26 947.945,900.262 950.171,917.628C950.171,917.628 950.426,929.747 948.899,938.971C948.899,938.971 949.472,962.635 949.09,967.215C949.09,967.215 798.836,1011.744 651.381,976.375C651.381,976.375 653.9,952.406 652.831,947.597C652.831,947.597 653.798,943.315 653.353,934.41C653.353,934.41 656.661,875.504 656.661,861.255C656.661,861.255 640.185,807.82 643.302,773.978C643.302,773.978 618.811,753.049 622.819,703.176C622.819,703.176 629.498,664.436 635.287,655.53" style="fill:none;stroke:black;stroke-width:4.17px;"/>
                                <path d="M761.626,545.692C761.626,545.692 649.091,592.095 637.068,599.544" style="fill:none;stroke:black;stroke-width:4.17px;"/>
                            </g>
                            <g id="r-hand" serif:id="r hand" transform="matrix(1,0,0,1,-96.946246,-5.693117)">
                                <path d="M1068.973,801.342C1063.188,785.146 1061.543,763.375 1065.823,727.49C1065.823,727.49 1026.619,656.924 1068.604,599.487C1068.604,599.487 1098.279,594.119 1122.659,603.378L1151.38,622.495L1160.063,628.667L1171.826,641.451C1171.826,641.451 1196.169,682.329 1195.278,711.51C1195.278,711.51 1208.961,736.818 1215.034,751.802C1215.512,752.982 1222.992,773.045 1222.058,773.976C1218.524,777.5 1203.045,783.934 1190.976,787.659C1172.429,793.384 1130.736,796.343 1130.238,799.173" style="fill:rgb(206,206,206);"/>
                                <path d="M1222.139,773.976C1222.139,773.976 1223.94,762.156 1195.695,713.683C1195.695,713.683 1192.26,681.622 1186.535,670.172C1186.535,670.172 1174.321,624.752 1122.413,603.378M1065.823,727.49C1065.823,727.49 1058.46,758.286 1067.656,799.838" style="fill:none;stroke:black;stroke-width:4.17px;"/>
                                <path d="M1065.823,727.49C1065.823,727.49 1059.086,636.711 1122.413,603.378" style="fill:none;stroke:black;stroke-width:4.17px;"/>
                                <g transform="matrix(1,0,0,1,96.946246,5.693117)">
                                    <path d="M972.027,795C972.027,795 1061.731,802.252 1125.467,768.283" style="fill:none;stroke:black;stroke-width:4.17px;"/>
                                </g>
                            </g>
                        </g>
                    </g>
                </g>
            </g>
        </g>
    </g>
</svg>
