<?xml version='1.0' encoding='utf-8'?>
<svg xmlns="http://www.w3.org/2000/svg" xmlns:serif="http://www.serif.com/" width="100%" height="100%" viewBox="547.87 491.557 601.398 540.194" version="1.1" xml:space="preserve" style="fill-rule:evenodd;clip-rule:evenodd;stroke-linecap:round;stroke-linejoin:round;stroke-miterlimit:1.5;">
    <g>
        <g id="l-hand" serif:id="l hand" transform="matrix(1,0,0,1,73.808787,-19.943735)">
            <g>
                <path d="M505.905,776.055C505.905,776.055 508.88,746.189 512.086,744.052C512.086,744.052 500.775,653.168 545.216,627.831C545.216,627.831 550.173,624.685 557.001,622.495C557.001,622.495 640.751,590.047 617.43,738.318L615.13,774.693L611.911,794.161L583.439,794.161L543.087,789.245" style="fill:rgb(43,43,43);" />
                <g transform="matrix(1,0,0,1,-73.808787,19.943735)">
                    <path d="M581.26,743.297C581.26,743.297 619.176,764.282 687.712,762.168L685.608,774.327C685.608,774.327 630.722,781.053 579.714,756.126L581.26,743.297Z" style="fill:rgb(19,103,58);" />
                </g>
            </g>
            <path d="M611.852,794.161C614.314,781.817 616.376,768.017 617.073,754.245C617.073,754.245 617.133,741.584 617.43,738.318M563.259,619.488C563.259,619.488 496.335,634.824 512.543,744.632C512.543,744.632 507.154,746.971 505.905,776.055" style="fill:none;stroke:black;stroke-width:4.17px;" />
            <g transform="matrix(1,0,0,1,-73.808787,19.943735)">
                <path d="M579.714,756.111C579.714,756.111 613.639,776.936 685.72,773.919" style="fill:none;stroke:black;stroke-width:4.17px;" />
            </g>
        </g>
        <g id="body">
            <g>
                <path d="M637.068,602.437C637.068,602.437 604.804,615.558 629.337,670.641L627.238,681.166C627.238,681.166 610.206,741.758 642.935,773.341C642.935,773.341 643.269,827.536 656.961,860.697L657.073,877.401L653.659,928.981L653.659,950.986L652.026,975.662L679.634,982.193C679.634,982.193 788.291,1007.122 948.553,969.15L949.698,962.823L948.362,939.831L949.312,930.242L949.46,907.978L955.991,863.716L971.22,834.327L987.518,794.251L1005.566,738.07C1005.566,738.07 1075.415,621.499 1023.352,595.537L1001.871,584.198L910.404,534.056C910.404,534.056 902.811,511.564 894.445,515.956C880.808,523.115 861.038,555.245 813.312,563.739C813.312,563.739 803.428,583.233 782.837,595.319C780.309,596.803 780.71,600.295 779.107,599.544C773.514,596.927 776.601,582.391 775.726,571.155C775.726,571.155 762.59,554.654 765.433,536.603L757.89,537.636L739.927,555.192L701.9,569.937L644.725,595.537L637.068,602.437Z" style="fill:rgb(43,43,43);" />
                <path d="M810.417,568.59L828.459,568.59L840.749,581.953L874.016,605.464L878.005,603.653L886.822,595.319L896.975,577.368L906.86,550.485L910.6,534.188L904.99,525.638L902.318,515.388L893.501,515.388C893.501,515.388 872.395,543.272 831.383,558.768L813.349,565.961L810.417,568.59Z" style="fill:rgb(19,103,58);" />
                <path d="M765.792,536.603C765.792,536.603 762.051,555.562 775.41,570.256L775.838,574.291L766.647,569.161C766.647,569.161 747.624,592.672 726.25,594.81L726.464,587.97C726.464,587.97 733.298,565.955 739.927,556.978L749.975,545.863L757.028,537.314L763.441,536.031L765.792,536.603Z" style="fill:rgb(19,103,58);" />
                <path d="M753.144,542.022C753.144,542.022 753.181,569.759 756.601,577.368L743.777,588.184C743.777,588.184 741.425,557.833 746.983,549.711L753.144,542.022Z" style="fill:rgb(178,3,0);" />
                <path d="M903.102,522.699C903.102,522.699 878.833,561.94 843.433,583.314L857.385,594.81C857.385,594.81 906.961,555.738 905.774,528.711L903.102,522.699Z" style="fill:rgb(178,3,0);" />
            </g>
            <path d="M910.719,534.183C934.705,546.79 984.306,573.163 1001.978,584.85L1023.352,595.537" style="fill:none;stroke:black;stroke-width:4.17px;" />
            <path d="M1005.566,738.132C1005.566,738.132 991.672,796.556 956.405,863.26C956.405,863.26 947.945,900.262 950.171,917.628C950.171,917.628 950.426,929.747 948.899,938.971C948.899,938.971 949.472,962.635 949.09,967.215C949.09,967.215 798.836,1011.744 651.381,976.375C651.381,976.375 653.9,952.406 652.831,947.597C652.831,947.597 653.798,943.315 653.353,934.41C653.353,934.41 656.661,875.504 656.661,861.255C656.661,861.255 640.185,807.82 643.302,773.978C643.302,773.978 618.811,753.049 622.819,703.176C622.819,703.176 629.498,664.436 635.287,655.53" style="fill:none;stroke:black;stroke-width:4.17px;" />
            <path d="M739.927,555.192C706.269,569.221 645.586,594.267 637.068,599.544" style="fill:none;stroke:black;stroke-width:4.17px;" />
            <path d="M812.679,564.86C812.679,564.86 853.757,558.033 893.833,515.666L901.514,516.214C901.514,516.214 904.962,527.305 910.719,534.183C910.719,534.183 902.386,583.675 874.016,606.519C874.016,606.519 838.817,584.239 828.13,569.1L816.671,571.163" style="fill:none;stroke:black;stroke-width:4.17px;" />
            <path d="M812.679,564.86C812.679,564.86 802.511,583.842 783.007,595.537C783.007,595.537 754.954,662.002 754.954,673.758L770.717,675.361C770.717,675.361 794.496,604.147 797.435,599.544C797.435,599.544 814.534,589.561 826.29,572.015" style="fill:none;stroke:black;stroke-width:4.17px;" />
            <path d="M766.443,537.636C766.443,537.636 760.832,552.598 776.061,570.766C776.061,570.766 772.267,591.8 779.107,599.544" style="fill:none;stroke:black;stroke-width:4.17px;" />
            <path d="M769.916,572.235L765.433,568.59C765.433,568.59 747.259,592.327 725.031,595.319C725.031,595.319 732.511,565.823 741.061,554.495C741.061,554.495 754.74,542.579 757.305,537.636C757.305,537.636 764.37,535.312 765.433,537.636" style="fill:none;stroke:black;stroke-width:4.17px;" />
        </g>
        <g id="r-hand" serif:id="r hand" transform="matrix(1,0,0,1,-96.946246,-5.693117)">
            <g>
                <path d="M1068.973,801.342C1063.188,785.146 1061.543,763.375 1065.823,727.49C1065.823,727.49 1026.619,656.924 1068.604,599.487C1068.604,599.487 1098.279,594.119 1122.659,603.378L1151.38,622.495L1160.063,628.667L1171.826,641.451C1171.826,641.451 1196.169,682.329 1195.278,711.51C1195.278,711.51 1208.961,736.818 1215.034,751.802C1215.512,752.982 1222.992,773.045 1222.058,773.976C1218.524,777.5 1203.045,783.934 1190.976,787.659C1172.429,793.384 1130.736,796.343 1130.238,799.173" style="fill:rgb(43,43,43);" />
                <g transform="matrix(1,0,0,1,96.946246,5.693117)">
                    <path d="M968.144,780.33L972.027,795.649C972.027,795.649 1076.275,799.967 1125.192,768.283L1121.269,752.807C1121.269,752.807 1073.771,782.984 968.144,780.33Z" style="fill:rgb(19,103,58);" />
                </g>
            </g>
            <path d="M1222.139,773.976C1222.139,773.976 1223.94,762.156 1195.695,713.683C1195.695,713.683 1192.26,681.622 1186.535,670.172C1186.535,670.172 1174.321,624.752 1122.413,603.378M1065.823,727.49C1065.823,727.49 1058.46,758.286 1067.656,799.838" style="fill:none;stroke:black;stroke-width:4.17px;" />
            <path d="M1065.823,727.49C1065.823,727.49 1059.086,636.711 1122.413,603.378" style="fill:none;stroke:black;stroke-width:4.17px;" />
            <g transform="matrix(1,0,0,1,96.946246,5.693117)">
                <path d="M972.027,795C972.027,795 1061.731,802.252 1125.467,768.283" style="fill:none;stroke:black;stroke-width:4.17px;" />
            </g>
        </g>
    </g>
</svg>