<?xml version="1.0" encoding="UTF-8" standalone="no"?>
<!DOCTYPE svg PUBLIC "-//W3C//DTD SVG 1.1//EN" "http://www.w3.org/Graphics/SVG/1.1/DTD/svg11.dtd">
<svg width="100%" height="100%" viewBox="0 0 382 461" version="1.1" xmlns="http://www.w3.org/2000/svg" xmlns:xlink="http://www.w3.org/1999/xlink" xml:space="preserve" xmlns:serif="http://www.serif.com/" style="fill-rule:evenodd;clip-rule:evenodd;stroke-linecap:round;stroke-linejoin:round;stroke-miterlimit:1.5;">
    <g transform="matrix(1,0,0,1,-620.292219,-532.099529)">
        <g>
            <g id="body">
                <path d="M739.927,555.192L701.9,569.937L692.282,575.231L650.427,634.231C650.427,634.231 640.605,649.489 629.337,670.641L627.238,681.166C627.238,681.166 610.206,741.758 642.935,773.341C642.935,773.341 643.269,827.536 656.961,860.697L657.073,877.401L653.659,928.981L653.659,950.986L652.026,975.662L679.634,982.193C679.634,982.193 788.291,1007.122 948.553,969.15L949.698,962.823L948.362,939.831L949.312,930.242L949.46,907.978L955.991,863.716L971.22,834.327L987.518,794.251L1000.174,757.523L982.512,751.734C931.112,702.643 955.25,604.94 959.23,570.728L959.505,560.152L910.404,534.056C910.404,534.056 869.971,599.361 855.37,611.471C843.516,621.304 841.149,620.04 794.61,630.909C794.61,630.909 776.71,630.845 759.593,630.909C756.661,630.92 740.648,633.424 732.098,607.559C730.16,601.697 734.387,583.994 735.383,570.354C735.383,570.354 735.338,578.165 738.181,560.115" style="fill:rgb(188,188,188);"/>
                <path d="M910.719,534.183C923.119,540.7 942.364,550.897 960.505,560.841C960.505,560.841 919.804,739.392 998.532,757.337" style="fill:none;stroke:black;stroke-width:4.17px;"/>
                <path d="M1000.174,757.337C993.269,779.907 979.368,819.829 956.405,863.26C956.405,863.26 947.945,900.262 950.171,917.628C950.171,917.628 950.426,929.747 948.899,938.971C948.899,938.971 949.472,962.635 949.09,967.215C949.09,967.215 798.836,1011.744 651.381,976.375C651.381,976.375 653.9,952.406 652.831,947.597C652.831,947.597 653.798,943.315 653.353,934.41C653.353,934.41 656.661,875.504 656.661,861.255C656.661,861.255 640.185,807.82 643.302,773.978C643.302,773.978 618.811,753.049 622.819,703.176C622.819,703.176 625.501,688.469 629.392,674.087" style="fill:none;stroke:black;stroke-width:4.17px;"/>
                <path d="M691.978,575.2C691.978,575.2 637.047,647.057 628.108,677.353" style="fill:none;stroke:black;stroke-width:4.17px;"/>
                <path d="M739.927,555.192C739.927,555.192 713.062,629.914 758.863,630.296C758.863,630.296 822.603,636.403 856.191,610.067C856.191,610.067 888.912,574.795 910.719,534.183" style="fill:none;stroke:black;stroke-width:4.17px;"/>
                <path d="M739.927,555.192C726.554,560.766 708.916,568.079 691.978,575.2" style="fill:none;stroke:black;stroke-width:4.17px;"/>
            </g>
        </g>
    </g>
</svg>
