<?xml version="1.0" encoding="UTF-8" standalone="no"?>
<svg width="100%" height="100%" viewBox="0 0 572 517" version="1.1" xmlns="http://www.w3.org/2000/svg" xmlns:xlink="http://www.w3.org/1999/xlink" xml:space="preserve" xmlns:serif="http://www.serif.com/" style="fill-rule:evenodd;clip-rule:evenodd;stroke-linecap:round;stroke-linejoin:round;stroke-miterlimit:1.5;">
    <g transform="matrix(1,0,0,1,-556.549519,-525.132902)">
        <g>
            <g id="l-hand" serif:id="l hand" transform="matrix(1,0,0,1,73.808787,-19.943735)">
                <path d="M617.43,738.318L615.13,774.693L613.494,786.755L604.885,822.379L595.088,852.065C595.088,852.065 593.01,904.906 591.823,908.468C590.635,912.031 581.136,945.576 581.136,945.576L574.011,966.059L574.011,988.324L560.949,1002.87L556.971,1032.641L543.078,1025.654C543.078,1025.654 505.139,1021.914 497.926,1026.99L493.918,997.601L487.506,987.715L490.178,969.28C490.178,969.28 482.944,907.029 484.824,899.28C484.824,899.28 498.994,832.268 502.468,827.568C502.468,827.568 507.01,790.54 505.407,779.052C505.407,779.052 508.88,746.189 512.086,744.052C512.086,744.052 500.775,653.168 545.216,627.831C545.216,627.831 550.173,624.685 557.001,622.495C557.001,622.495 640.751,590.047 617.43,738.318Z" style="fill:rgb(126,126,126);"/>
                <path d="M563.259,619.488C563.259,619.488 496.335,634.824 512.543,744.632C512.543,744.632 504.528,753.922 505.53,800.01C505.53,800.01 505.53,807.357 502.19,827.061C502.19,827.061 484.824,882.5 484.824,901.536C484.824,920.572 489.5,958.645 490.168,969.666C490.168,969.666 486.685,981.021 487.687,988.702C487.687,988.702 493.03,994.713 494.032,998.721C494.032,998.721 496.043,1023.023 496.578,1026.229C496.578,1026.229 547.608,1020.084 556.425,1032.641C556.425,1032.641 559.364,1006.191 560.165,1003.786C560.165,1003.786 572.722,992.565 573.524,988.557C573.524,988.557 572.455,971.992 574.058,965.313C574.058,965.313 590.356,922.832 591.959,905.466C591.959,905.466 593.829,856.84 594.364,851.764C594.364,851.764 597.837,846.955 599.974,838.939C599.974,838.939 614.936,796.459 617.073,754.245C617.073,754.245 617.133,741.584 617.43,738.318" style="fill:none;stroke:black;stroke-width:4.17px;"/>
                <path d="M532.676,841.44C532.676,841.44 546.48,861.924 566.073,863.26" style="fill:none;stroke:black;stroke-width:4.17px;"/>
                <path d="M494.616,996.481C494.616,996.481 526.677,982.155 559.12,1004.013" style="fill:none;stroke:black;stroke-width:4.17px;"/>
            </g>
            <g id="body">
                <path d="M637.068,602.437C637.068,602.437 604.804,615.558 629.337,670.641L627.238,681.166C627.238,681.166 610.206,741.758 642.935,773.341C642.935,773.341 643.269,827.536 656.961,860.697L655.292,874.729L644.308,921.633L652.323,945.976L652.026,975.662L679.634,982.193C679.634,982.193 788.291,1007.122 948.553,969.15L949.698,962.823L947.174,934.784L949.312,930.242L955.991,906.197L955.991,863.716L971.22,834.327L987.518,794.251L1005.566,738.07C1005.566,738.07 1075.415,621.499 1023.352,595.537L1001.871,584.198L898.007,527.216C898.007,527.216 879.572,569.403 816.518,580.624C816.518,580.624 778.045,587.838 760.679,571.273C760.679,571.273 753.732,563.525 760.679,546.159L701.9,569.937L644.725,595.537L637.068,602.437Z" style="fill:rgb(126,126,126);"/>
                <path d="M761.521,547.827C761.521,547.827 739.765,585.995 805.414,581.796C805.414,581.796 869.535,577.598 897.398,527.216C897.398,527.216 978.314,569.201 1001.978,584.85L1023.352,595.537" style="fill:none;stroke:black;stroke-width:4.17px;"/>
                <path d="M1005.566,738.132C1005.566,738.132 991.672,796.556 956.405,863.26C956.405,863.26 954.179,889.575 956.405,906.941C956.405,906.941 951.762,930.192 947.563,933.627C947.563,933.627 949.472,962.635 949.09,967.215C949.09,967.215 798.836,1011.744 651.381,976.375C651.381,976.375 653.9,952.406 652.831,947.597C652.831,947.597 644.638,930.72 644.193,921.814C644.193,921.814 656.661,875.504 656.661,861.255C656.661,861.255 640.185,807.82 643.302,773.978C643.302,773.978 618.811,753.049 622.819,703.176C622.819,703.176 629.498,664.436 635.287,655.53" style="fill:none;stroke:black;stroke-width:4.17px;"/>
                <path d="M761.626,545.692C761.626,545.692 649.091,592.095 637.068,599.544" style="fill:none;stroke:black;stroke-width:4.17px;"/>
                <path d="M699.347,885.412C699.347,885.412 775.776,890.755 857.265,835.316" style="fill:none;stroke:black;stroke-width:4.17px;"/>
                <path d="M654.479,946.528C654.479,946.528 798.406,978.054 945.165,937.444" style="fill:none;stroke:black;stroke-width:4.17px;"/>
            </g>
            <g id="r-hand" serif:id="r hand" transform="matrix(1,0,0,1,-96.946246,-5.693117)">
                <path d="M1065.823,727.49C1065.823,727.49 1026.619,656.924 1068.604,599.487C1068.604,599.487 1098.279,594.119 1122.659,603.378L1151.38,622.495L1160.063,628.667L1171.826,641.451C1171.826,641.451 1196.169,682.329 1195.278,711.51C1195.278,711.51 1223.72,765.034 1222.413,772.455C1222.413,772.455 1221.828,873.481 1222.413,883.834C1222.413,883.834 1216.986,948.29 1202.96,972.67C1202.96,972.67 1196.043,1001.023 1197.913,1003.161C1197.913,1003.161 1185.623,1015.184 1182.684,1017.054C1182.684,1017.054 1167.989,1046.293 1166.653,1044.765C1166.653,1044.765 1156.617,1023.778 1091.577,1018.123L1093.332,987.234L1087.395,977.735L1094.519,965.267C1094.519,965.267 1090.957,925.784 1111.44,887.786L1106.394,879.177C1106.394,879.177 1060.074,839.889 1063.214,738.001L1065.823,727.49Z" style="fill:rgb(126,126,126);"/>
                <path d="M1065.823,727.49C1065.823,727.49 1046.675,814.73 1112.133,886.905C1112.133,886.905 1091.116,920.982 1094.932,964.493C1094.932,964.493 1087.776,974.631 1087.776,978.305C1087.776,978.305 1093.119,984.317 1093.453,987.99C1093.453,987.99 1090.448,1013.706 1090.782,1018.381C1090.782,1018.381 1155.237,1021.053 1166.258,1044.765C1166.258,1044.765 1178.615,1021.387 1181.621,1017.713C1181.621,1017.713 1195.982,1008.028 1197.651,1003.353C1197.651,1003.353 1199.321,981.311 1203.997,969.956C1203.997,969.956 1216.306,953.377 1222.413,881.24C1222.413,881.24 1222.413,809.102 1222.031,775.896C1222.031,775.896 1223.94,762.156 1195.695,713.683C1195.695,713.683 1192.26,681.622 1186.535,670.172C1186.535,670.172 1174.321,624.752 1122.413,603.378" style="fill:none;stroke:black;stroke-width:4.17px;"/>
                <path d="M1065.823,727.49C1065.823,727.49 1059.086,636.711 1122.413,603.378" style="fill:none;stroke:black;stroke-width:4.17px;"/>
                <path d="M1181.554,1016.85C1181.554,1016.85 1175.24,983.008 1094.014,984.344" style="fill:none;stroke:black;stroke-width:4.17px;"/>
            </g>
        </g>
    </g>
</svg>
