<?xml version="1.0" encoding="UTF-8" standalone="no"?>
<!DOCTYPE svg PUBLIC "-//W3C//DTD SVG 1.1//EN" "http://www.w3.org/Graphics/SVG/1.1/DTD/svg11.dtd">
<svg width="100%" height="100%" viewBox="0 0 550 467" version="1.1" xmlns="http://www.w3.org/2000/svg" xmlns:xlink="http://www.w3.org/1999/xlink" xml:space="preserve" xmlns:serif="http://www.serif.com/" style="fill-rule:evenodd;clip-rule:evenodd;stroke-linecap:round;stroke-linejoin:round;stroke-miterlimit:1.5;">
    <g transform="matrix(1,0,0,1,-577.630289,-525.132902)">
        <g>
            <g id="l-hand" serif:id="l hand" transform="matrix(1,0,0,1,73.808787,-19.943735)">
                <path d="M505.905,776.055C505.905,776.055 508.88,746.189 512.086,744.052C512.086,744.052 500.775,653.168 545.216,627.831C545.216,627.831 550.173,624.685 557.001,622.495C557.001,622.495 640.751,590.047 617.43,738.318L615.13,774.693L611.911,794.161L583.439,794.161L543.087,789.245" style="fill:rgb(206,206,206);"/>
                <path d="M611.852,794.161C614.314,781.817 616.376,768.017 617.073,754.245C617.073,754.245 617.133,741.584 617.43,738.318M563.259,619.488C563.259,619.488 496.335,634.824 512.543,744.632C512.543,744.632 507.154,746.971 505.905,776.055" style="fill:none;stroke:black;stroke-width:4.17px;"/>
                <g transform="matrix(1,0,0,1,-73.808787,19.943735)">
                    <path d="M579.714,756.111C579.714,756.111 613.639,776.936 685.72,773.919" style="fill:none;stroke:black;stroke-width:4.17px;"/>
                </g>
            </g>
            <g id="body">
                <path d="M637.068,602.437C637.068,602.437 604.804,615.558 629.337,670.641L627.238,681.166C627.238,681.166 610.206,741.758 642.935,773.341C642.935,773.341 643.269,827.536 656.961,860.697L657.073,877.401L653.659,928.981L653.659,950.986L652.026,975.662L679.634,982.193C679.634,982.193 788.291,1007.122 948.553,969.15L949.698,962.823L948.362,939.831L949.312,930.242L949.46,907.978L955.991,863.716L971.22,834.327L987.518,794.251L1005.566,738.07C1005.566,738.07 1075.415,621.499 1023.352,595.537L1001.871,584.198L898.007,527.216C898.007,527.216 879.572,569.403 816.518,580.624C816.518,580.624 778.045,587.838 760.679,571.273C760.679,571.273 753.732,563.525 760.679,546.159L701.9,569.937L644.725,595.537L637.068,602.437Z" style="fill:rgb(206,206,206);"/>
                <path d="M761.521,547.827C761.521,547.827 739.765,585.995 805.414,581.796C805.414,581.796 869.535,577.598 897.398,527.216C897.398,527.216 978.314,569.201 1001.978,584.85L1023.352,595.537" style="fill:none;stroke:black;stroke-width:4.17px;"/>
                <path d="M1005.566,738.132C1005.566,738.132 991.672,796.556 956.405,863.26C956.405,863.26 947.945,900.262 950.171,917.628C950.171,917.628 950.426,929.747 948.899,938.971C948.899,938.971 949.472,962.635 949.09,967.215C949.09,967.215 798.836,1011.744 651.381,976.375C651.381,976.375 653.9,952.406 652.831,947.597C652.831,947.597 653.798,943.315 653.353,934.41C653.353,934.41 656.661,875.504 656.661,861.255C656.661,861.255 640.185,807.82 643.302,773.978C643.302,773.978 618.811,753.049 622.819,703.176C622.819,703.176 629.498,664.436 635.287,655.53" style="fill:none;stroke:black;stroke-width:4.17px;"/>
                <path d="M761.626,545.692C761.626,545.692 649.091,592.095 637.068,599.544" style="fill:none;stroke:black;stroke-width:4.17px;"/>
            </g>
            <g id="r-hand" serif:id="r hand" transform="matrix(1,0,0,1,-96.946246,-5.693117)">
                <path d="M1068.973,801.342C1063.188,785.146 1061.543,763.375 1065.823,727.49C1065.823,727.49 1026.619,656.924 1068.604,599.487C1068.604,599.487 1098.279,594.119 1122.659,603.378L1151.38,622.495L1160.063,628.667L1171.826,641.451C1171.826,641.451 1196.169,682.329 1195.278,711.51C1195.278,711.51 1208.961,736.818 1215.034,751.802C1215.512,752.982 1222.992,773.045 1222.058,773.976C1218.524,777.5 1203.045,783.934 1190.976,787.659C1172.429,793.384 1130.736,796.343 1130.238,799.173" style="fill:rgb(206,206,206);"/>
                <path d="M1222.139,773.976C1222.139,773.976 1223.94,762.156 1195.695,713.683C1195.695,713.683 1192.26,681.622 1186.535,670.172C1186.535,670.172 1174.321,624.752 1122.413,603.378M1065.823,727.49C1065.823,727.49 1058.46,758.286 1067.656,799.838" style="fill:none;stroke:black;stroke-width:4.17px;"/>
                <path d="M1065.823,727.49C1065.823,727.49 1059.086,636.711 1122.413,603.378" style="fill:none;stroke:black;stroke-width:4.17px;"/>
                <g transform="matrix(1,0,0,1,96.946246,5.693117)">
                    <path d="M972.027,795C972.027,795 1061.731,802.252 1125.467,768.283" style="fill:none;stroke:black;stroke-width:4.17px;"/>
                </g>
            </g>
        </g>
    </g>
</svg>
