<?xml version='1.0' encoding='utf-8'?>
<svg xmlns="http://www.w3.org/2000/svg" xmlns:serif="http://www.serif.com/" width="100%" height="100%" viewBox="591.06 634.422 586.828 612.984" version="1.1" xml:space="preserve" style="fill-rule:evenodd;clip-rule:evenodd;stroke-linecap:round;stroke-linejoin:round;stroke-miterlimit:1.5;">
    <g>
        <g id="l-hand" serif:id="l hand" transform="matrix(1,0,0,1,88.914939,-17.622445)">
            <path d="M613.625,744.333L592.474,754.575L580.801,765.848C580.801,765.848 567.442,781.545 561.431,803.253C555.419,824.961 552.413,848.004 551.078,864.369C549.742,880.733 546.068,952.202 546.402,965.561C546.402,965.561 545.639,994.044 542.967,1011.41C542.967,1011.41 528.32,1112.937 525.457,1119.616C525.457,1119.616 530.053,1136.37 532.725,1140.526C532.725,1140.526 524.127,1182.68 525.457,1185.352C525.457,1185.352 523.879,1185.842 532.963,1184.773C532.963,1184.773 586.932,1176.915 599.756,1212.722C599.756,1212.722 609.909,1177.634 610.503,1173.478C610.503,1173.478 624.811,1160.193 626.949,1157.521C626.949,1157.521 626.414,1134.544 628.018,1126.529C628.018,1126.529 644.582,1065.346 646.185,1046.11C646.185,1046.11 654.735,964.621 653.399,955.805C653.399,955.805 657.714,873.767 659.49,864.564C659.49,864.564 691.779,727.427 613.625,744.333Z" style="fill:rgb(29,29,29);" />
            <path d="M613.625,744.333C613.625,744.333 568.74,751.279 555.915,823.951C543.091,896.622 550.973,929.551 542.557,1008.836C534.141,1088.12 525.457,1108.358 525.457,1121.717C525.457,1121.717 530.356,1136.99 533.027,1140.998C533.027,1140.998 524.376,1181.806 527.048,1185.622C527.048,1185.622 582.582,1171.787 600.33,1212.722C600.33,1212.722 609.172,1181.074 610.953,1173.059C610.953,1173.059 625.203,1161.927 626.984,1157.028C626.984,1157.028 626.093,1137.436 628.765,1123.186C628.765,1123.186 648.803,1057.684 652.009,986.615C652.009,986.615 656.818,882.952 659.49,863.715" style="fill:none;stroke:black;stroke-width:4.17px;" />
            <path d="M566.246,971.988C566.246,971.988 596.971,994.03 608.994,1028.094" style="fill:none;stroke:black;stroke-width:4.17px;" />
            <path d="M534.319,1140.642C534.319,1140.642 575.909,1126.838 608.994,1164.687" style="fill:none;stroke:black;stroke-width:4.17px;" />
        </g>
        <g id="body">
            <path d="M693.934,736.539C693.934,736.539 644.864,759.676 697.206,843.123L697.206,859.942C697.206,859.942 705.019,1001.282 707.691,1017.695C707.691,1017.695 701.607,1120.366 697.206,1130.671C697.206,1130.671 700.773,1147.489 704.78,1151.831C704.78,1151.831 705.782,1179.216 706.784,1184.225C706.784,1184.225 917.02,1223.675 1047.989,1172.945C1047.989,1172.945 1049.733,1144.645 1050.115,1138.538C1050.115,1138.538 1057.367,1125.943 1058.894,1116.019C1058.894,1116.019 1055.077,1031.286 1058.13,1007.622C1058.13,1007.622 1060.802,962.966 1075.306,924.417C1075.306,924.417 1082.939,900.753 1087.901,888.921C1087.901,888.921 1152.497,784.184 1081.696,741.126L1060.897,729.46C1060.897,729.46 968.054,668.466 955.029,657.125C955.029,657.125 933.099,681.393 899.851,696.531C899.851,696.531 860.962,716.418 828.307,709.887C828.307,709.887 818.511,712.86 803.074,696.531C803.074,696.531 795.194,686.484 796.908,663.601L747.346,696.531L699.136,729.46L693.934,736.539Z" style="fill:rgb(29,29,29);" />
            <clipPath id="_clip1">
                <path d="M693.934,736.539C693.934,736.539 644.864,759.676 697.206,843.123L697.206,859.942C697.206,859.942 705.019,1001.282 707.691,1017.695C707.691,1017.695 701.607,1120.366 697.206,1130.671C697.206,1130.671 700.773,1147.489 704.78,1151.831C704.78,1151.831 705.782,1179.216 706.784,1184.225C706.784,1184.225 917.02,1223.675 1047.989,1172.945C1047.989,1172.945 1049.733,1144.645 1050.115,1138.538C1050.115,1138.538 1057.367,1125.943 1058.894,1116.019C1058.894,1116.019 1055.077,1031.286 1058.13,1007.622C1058.13,1007.622 1060.802,962.966 1075.306,924.417C1075.306,924.417 1082.939,900.753 1087.901,888.921C1087.901,888.921 1152.497,784.184 1081.696,741.126L1060.897,729.46C1060.897,729.46 968.054,668.466 955.029,657.125C955.029,657.125 933.099,681.393 899.851,696.531C899.851,696.531 860.962,716.418 828.307,709.887C828.307,709.887 818.511,712.86 803.074,696.531C803.074,696.531 795.194,686.484 796.908,663.601L747.346,696.531L699.136,729.46L693.934,736.539Z" />
            </clipPath>
            <g clip-path="url(#_clip1)">
                <g transform="matrix(0.060318,0,0,0.060318,820.657058,867.679432)">
                    <g transform="matrix(1,0,0,1,-3643.75,-5168.75)">
                        <g id="alo-yoga-1.jpg" transform="matrix(4.903158,0,0,4.903158,1383.333333,2983.333333)">
                            <path d="M526.5,163.05C530.783,163.219 531.899,161.739 532.591,164.475C532.776,165.206 532.68,441.658 532.639,442.524C532.514,445.183 523.948,444.34 521.5,444.34C500.215,444.34 498.333,445.156 498.31,441.506C498.309,441.322 498.303,166.24 498.313,165.49C498.356,162.433 500.048,163.05 526.5,163.05Z" style="fill:rgb(254,254,254);" />
                            <path d="M372.42,277.083C376.079,276.525 397.741,273.223 418.467,281.584C436.251,288.758 434.854,291.27 436.465,291.624C440.904,292.6 434.476,281.303 441.499,281.304C470.944,281.31 472.28,280.858 472.538,283.497C472.55,283.625 472.602,441.955 472.51,442.502C472.142,444.685 471.084,444.354 441.5,444.343C436.771,444.341 438.148,442.196 438.17,437.502C438.201,430.732 434.708,436.415 425.306,441.145C357.045,475.491 286.21,408.034 305.863,339.605C321.679,284.539 370.873,277.453 372.42,277.083ZM388.501,311.113C384.998,311.191 362.481,311.696 348.885,329.813C315.927,373.73 358.062,423.486 397.582,413.863C456.799,399.443 448.001,313.637 388.501,311.113Z" style="fill:rgb(254,254,254);" />
                            <path d="M621.423,277.062C627.428,276.159 665.367,270.454 694.124,298.871C758.208,362.194 700.197,464.742 620.466,448.673C552.6,434.995 533.227,351.858 570.784,307.736C589.789,285.409 604.735,281.04 621.423,277.062ZM635.498,311.113C580.651,313.623 569.337,386.262 613.65,409.214C664.587,435.597 713.862,366.637 670.352,324.652C657.412,312.165 638.486,311.257 635.498,311.113Z" style="fill:rgb(254,254,254);" />
                        </g>
                    </g>
                </g>
            </g>
            <path d="M797.486,663.601C797.486,663.601 754.203,689.384 697.206,729.46" style="fill:none;stroke:black;stroke-width:4.17px;" />
            <path d="M797.486,663.601C797.486,663.601 787.868,715.458 847.091,711.005C847.091,711.005 897.409,712.341 954.852,657.125C954.852,657.125 1014.902,701 1064.521,729.46C1064.521,729.46 1079.788,738.454 1081.696,741.126" style="fill:none;stroke:black;stroke-width:4.17px;" />
            <path d="M785.437,683.728C785.437,683.728 779.649,728.882 838.427,729.46C838.427,729.46 912.345,730.671 960.882,673.486" style="fill:none;stroke:black;stroke-width:4.17px;" />
            <path d="M684.624,782.084C684.624,782.084 691.087,832.847 697.206,851.015C697.206,851.015 699.229,912.332 707.244,1017.42C707.244,1017.42 706.316,1079.984 697.206,1132.35C697.206,1132.35 700.692,1145.346 704.891,1151.437C704.891,1151.437 706.417,1178.139 705.654,1184.627C705.654,1184.627 906.735,1224.703 1048.337,1172.382C1048.337,1172.382 1049.584,1151.503 1049.584,1138.186C1049.584,1138.186 1057.065,1126.472 1059.202,1116.319C1059.202,1116.319 1047.18,1001.902 1070.557,939.784C1070.557,939.784 1083.916,895.032 1087.924,888.353" style="fill:none;stroke:black;stroke-width:4.17px;" />
            <path d="M704.891,1151.437C704.891,1151.437 845.463,1192.432 1030.704,1151.437" style="fill:none;stroke:black;stroke-width:4.17px;" />
            <path d="M753.51,1098.975C753.51,1098.975 805.609,1113.67 931.849,1062.907" style="fill:none;stroke:black;stroke-width:4.17px;" />
        </g>
        <g id="r-hand" serif:id="r hand" transform="matrix(1,0,0,1,-114.027409,-18.938826)">
            <path d="M1171.594,744.205C1171.594,744.205 1108.452,743.172 1113.528,876.33L1113.528,884.249L1121.053,906.514C1121.053,906.514 1146.435,1007.595 1146.88,1024.961C1146.88,1024.961 1139.756,1115.356 1138.865,1131.386C1138.865,1131.386 1140.201,1146.081 1144.209,1150.534C1144.209,1150.534 1141.728,1189.878 1143.636,1193.695L1148.598,1194.077C1148.598,1194.077 1238.292,1192.321 1241.727,1219.153C1241.727,1219.153 1250.124,1178.81 1252.414,1177.665C1252.414,1177.665 1264.284,1165.832 1270.181,1152.474C1270.181,1152.474 1266.613,1028.81 1268.865,1015.833C1268.865,1015.833 1252.414,881.482 1251.269,872.322C1251.269,872.322 1247.452,828.047 1239.819,811.635C1239.819,811.635 1225.697,770.414 1202.033,756.292L1171.594,744.205Z" style="fill:rgb(29,29,29);" />
            <path d="M1113.528,883.165C1113.528,883.165 1136.371,955.398 1146.123,1025.302C1146.123,1025.302 1141.047,1106.093 1137.841,1131.208C1137.841,1131.208 1138.375,1139.827 1144.609,1151.437C1144.609,1151.437 1141.938,1186.647 1143.273,1194.662C1143.273,1194.662 1235.805,1191.411 1242.128,1219.153C1242.128,1219.153 1251.034,1182.194 1251.924,1175.96C1251.924,1175.96 1269.736,1161.647 1270.181,1151.437C1270.181,1151.437 1267.064,1031.24 1267.51,1014.764C1267.51,1014.764 1250.321,858.244 1247.65,841.68C1247.65,841.68 1234.291,774.352 1197.421,754.046C1197.421,754.046 1183.172,746.432 1171.594,744.205" style="fill:none;stroke:black;stroke-width:4.17px;" />
            <path d="M1113.528,883.165C1113.528,883.165 1126.174,816.4 1156.899,782.084" style="fill:none;stroke:black;stroke-width:4.17px;" />
            <path d="M1156.899,1027.745C1156.899,1027.745 1190.074,974.31 1212.783,961.619" style="fill:none;stroke:black;stroke-width:4.17px;" />
            <path d="M1147.994,1151.437C1147.994,1151.437 1217.904,1140.021 1246.848,1169.657" style="fill:none;stroke:black;stroke-width:4.17px;" />
        </g>
    </g>
</svg>