<?xml version="1.0" encoding="UTF-8" standalone="no"?>
<!DOCTYPE svg PUBLIC "-//W3C//DTD SVG 1.1//EN" "http://www.w3.org/Graphics/SVG/1.1/DTD/svg11.dtd">
<svg width="100%" height="100%" viewBox="0 0 1144 1203" version="1.1" xmlns="http://www.w3.org/2000/svg" xmlns:xlink="http://www.w3.org/1999/xlink" xml:space="preserve" xmlns:serif="http://www.serif.com/" style="fill-rule:evenodd;clip-rule:evenodd;stroke-linecap:round;stroke-linejoin:round;stroke-miterlimit:1.5;">
    <g transform="matrix(1,0,0,1,-302.50004,-638.794724)">
        <g transform="matrix(0.530614,0,0,0.530614,874.015748,1240.15748)">
            <g transform="matrix(1,0,0,1,-1077.083333,-1133.333333)">
                <g transform="matrix(4.166667,0,0,4.166667,-2566.551904,-3146.27065)">
                    <g transform="matrix(0.65117,0,0,0.65117,565.309743,499.296471)">
                        <g id="l-hand" serif:id="l hand" transform="matrix(1,0,0,1,76.011195,1.335874)">
                            <path d="M247.236,615.991L233.694,615.991L212.8,624.335L194.395,640.365L185.489,654.021L179.255,668.27L175.395,681.926L170.943,711.909L164.412,768.312L157.816,813.435C157.816,813.435 184.598,835.106 268.016,824.122L272.766,745.157L275.284,711.612C275.284,711.612 289.984,615.663 252.282,615.991" style="fill:rgb(206,206,206);"/>
                            <path d="M233.694,615.991C233.694,615.991 189.343,621.767 174.915,681.08C174.915,681.08 161.022,794.362 157.816,814.667C157.816,814.667 179.101,832.88 267.714,825.31C267.714,825.31 273.057,726.455 275.284,711.315" style="fill:none;stroke:black;stroke-width:4.17px;"/>
                        </g>
                        <g id="body">
                            <g transform="matrix(0.368567,0,0,0.368567,77.802536,392.844114)">
                                <path d="M864.757,440.042L709.028,538.16L592.973,618.983C592.973,618.983 481.086,719.044 592.973,878.785L618.75,1205.193C618.75,1205.193 627.778,1427.415 627.778,1482.971C627.778,1482.971 632.986,1748.769 629.861,1765.436C629.861,1765.436 787.569,1805.418 963.403,1813.083C963.403,1813.083 1308.657,1807.415 1402.569,1784.082C1402.569,1784.082 1495.649,1769.915 1503.149,1764.082L1508.149,1598.248C1508.149,1598.248 1516.482,1281.582 1531.482,1241.582C1531.482,1241.582 1556.891,1053.248 1584.603,1039.082C1584.603,1039.082 1756.89,760.228 1584.603,649.811C1584.603,649.811 1298.09,439.127 1279.265,440.042C1279.265,440.042 1139.607,580.123 975.44,580.957C975.44,580.957 893.756,585.712 873.774,456.79C870.544,435.957 864.757,440.042 864.757,440.042Z" style="fill:rgb(206,206,206);"/>
                                <clipPath id="_clip1">
                                    <path d="M864.757,440.042L709.028,538.16L592.973,618.983C592.973,618.983 481.086,719.044 592.973,878.785L618.75,1205.193C618.75,1205.193 627.778,1427.415 627.778,1482.971C627.778,1482.971 632.986,1748.769 629.861,1765.436C629.861,1765.436 787.569,1805.418 963.403,1813.083C963.403,1813.083 1308.657,1807.415 1402.569,1784.082C1402.569,1784.082 1495.649,1769.915 1503.149,1764.082L1508.149,1598.248C1508.149,1598.248 1516.482,1281.582 1531.482,1241.582C1531.482,1241.582 1556.891,1053.248 1584.603,1039.082C1584.603,1039.082 1756.89,760.228 1584.603,649.811C1584.603,649.811 1298.09,439.127 1279.265,440.042C1279.265,440.042 1139.607,580.123 975.44,580.957C975.44,580.957 893.756,585.712 873.774,456.79C870.544,435.957 864.757,440.042 864.757,440.042Z"/>
                                </clipPath>
                                <g clip-path="url(#_clip1)">
                                    <g transform="matrix(0.109361,0,0,0.109361,991.457096,921.643294)">
                                        <g transform="matrix(1,0,0,1,-3643.75,-5168.75)">
                                            <g id="Balenciaga-Logo-2017-present.jpg" transform="matrix(6.559246,0,0,6.559246,283.333333,2800)">
                                                <path d="M420.896,335.5C420.896,232.572 420.895,232.58 420.903,232.527C421.335,229.788 422.659,229.997 455.499,230.516C459.569,230.58 458.206,232.812 478.785,291.392C490.394,324.437 486.472,327.292 489.468,327.293C491.073,327.293 489.841,318.388 489.785,317.493C488.903,303.406 489.234,232.193 489.507,231.503C490.067,230.089 490.533,230.189 508.499,230.51C510.978,230.555 510.734,232.599 510.736,233.497C510.757,242.62 510.999,346.184 510.632,347.537C510.292,348.787 509.788,348.991 478.495,348.91C475.561,348.902 475.291,348.338 472.687,340.439C461.067,305.19 447.952,273.72 443.321,250.577C443.02,249.073 441.094,248.995 441.292,251.473C441.896,259.052 443.361,277.402 442.632,346.506C442.603,349.279 441.197,349.044 423.487,348.908C419.677,348.879 420.917,341.085 420.896,335.5Z"/>
                                                <path d="M862.5,302.9C858.461,302.742 856.498,304.489 856.476,300.501C856.394,286.027 856.156,284.161 858.438,284.034C859.985,283.948 893.668,283.823 894.641,284.175C895.944,284.646 895.811,285.226 895.801,335.5C895.799,340.728 897.578,342.725 890.398,345.211C879.123,349.114 827.615,361.799 815.729,325.428C812.398,315.234 806.998,265.577 820.797,244.705C837.125,220.009 893.338,220.33 896.055,259.513C896.277,262.712 891.352,261.881 876.5,261.882C872.625,261.882 872.291,261.379 871.552,257.491C868.708,242.532 841.462,238.716 838.341,268.481C838.335,268.538 834.883,309.379 840.825,322.354C848.104,338.249 871.625,331.495 872.364,328.467C872.492,327.941 872.764,304.625 872.192,303.69C871.713,302.908 863.278,302.9 862.5,302.9Z"/>
                                                <path d="M384.826,281.501C384.823,291.732 385.744,296.824 382.532,296.962C368.769,297.552 348.008,295.57 347.347,298.465C347.268,298.809 347.219,327.961 347.378,328.534C348.272,331.75 386.568,328.387 388.487,330.509C388.613,330.649 389.985,348.153 387.601,348.805C387.161,348.925 387.185,348.91 332.5,348.91C329.039,348.91 323.172,349.948 323.128,346.523C322.958,333.398 323.11,242.539 323.126,233.496C323.128,232.018 322.956,230.313 325.488,230.279C330.361,230.215 384.878,229.493 386.402,230.643C387.14,231.199 388.489,248.798 385.458,249.205C380.774,249.833 348.247,247.856 347.414,250.471C347.402,250.51 346.793,276.157 347.781,277.241C349.257,278.86 382.866,276.691 384.47,278.521C384.628,278.701 384.496,278.739 384.826,281.501Z"/>
                                                <path d="M541.086,287.5C541.175,254.116 546.681,228.691 585.498,228.79C625.365,228.891 624.189,263.012 622.621,263.714C621.546,264.196 600.543,263.898 600.386,263.855C597.914,263.181 599.977,248.823 588.413,246.937C567.802,243.577 567.047,266.764 566.875,272.516C565.617,314.704 567.329,331.173 582.534,332.193C601.24,333.448 599.077,317.166 600.277,314.376C601.107,312.445 623.359,313.609 623.428,313.646C624.951,314.46 626.731,349.081 586.5,350.493C537.739,352.205 541.098,304.864 541.086,287.5Z"/>
                                                <path d="M290.5,348.91C236.997,348.91 236.968,348.939 236.395,348.731C235.31,348.337 235.311,341.164 235.311,340.5C235.327,232.306 235.216,232.295 235.523,231.51C236.219,229.732 258.022,230.258 258.874,231.159C260.058,232.41 259.095,321.706 259.408,327.505C259.569,330.497 261.206,329.826 295.498,329.855C299.156,329.858 298.418,333.236 298.319,345.499C298.276,350.732 295.737,348.653 290.5,348.91Z"/>
                                                <path d="M674.071,234.5C674.057,347.519 674.197,347.739 673.465,348.46C673.135,348.785 650.9,350.1 650.183,347.608C650.099,347.318 649.803,232.627 650.337,231.407C650.979,229.944 673.156,229.999 673.745,231.349C673.846,231.581 673.769,231.582 674.071,234.5Z"/>
                                                <path d="M92.904,262.527C91.784,268.297 91.31,282.303 71.613,285.775C65.711,286.815 75.189,288.203 75.558,288.258C98.911,291.679 106.879,341.584 68.546,347.787C54.013,350.139 14.477,348.584 14.455,348.564C13.639,347.846 13.734,347.6 13.734,244.5C13.734,238.883 12.936,230.619 15.503,230.524C19.18,230.389 41.534,229.568 61.495,230.612C87.935,231.996 92.943,244.788 92.904,262.527ZM37.958,274.5C38.316,276.905 37.271,277.959 39.554,278.163C62.68,280.228 66.09,273.327 67.096,271.291C69.487,266.454 71.913,249.77 55.483,248.689C38.462,247.569 38.086,249.03 38.037,250.432C37.969,252.356 38.219,252.273 37.958,274.5ZM37.962,316.5C37.964,324.069 36.866,330.881 40.481,330.915C46.268,330.969 75.963,335.424 70.186,307.579C67.428,294.289 49.322,296.233 40.495,296.31C37.282,296.339 38.165,298.095 37.962,316.5Z"/>
                                                <path d="M983.977,240.355C992.635,273.479 1013.572,347.355 1012.524,348.524C1012.447,348.61 988.94,350.339 987.575,347.461C985.709,343.527 982.187,323.07 979.522,322.403C979.258,322.337 947.481,322.004 946.548,322.602C943.824,324.347 940.421,347.956 937.585,348.777C937.25,348.874 916.162,349.235 915.454,348.555C914.11,347.263 927.689,301.722 939.854,255.589C946.08,231.977 945.603,231.379 947.573,230.696C949.911,229.885 949.995,230.437 978.5,230.506C982.576,230.516 983.005,236.811 983.977,240.355ZM954.082,287.38C950.644,301.769 949.558,303.916 952.45,303.968C975.538,304.382 976.75,304.431 976.587,302.503C976.25,298.523 967.586,268.464 964.707,251.399C963.623,244.969 962.162,254.093 962.112,254.407C961.88,255.853 954.734,284.744 954.082,287.38Z" style="fill:rgb(1,1,1);"/>
                                                <path d="M703.896,327.623C729.731,232.807 728.533,231.288 731.526,230.613C732.437,230.408 762.976,230.503 763.491,230.559C765.094,230.735 765.22,231.193 770.122,249.599C796.137,347.281 797.3,348.112 795.635,348.749C794.871,349.042 772.922,348.94 772.412,348.801C769.617,348.043 766.06,323.834 763.454,322.598C762.226,322.016 730.945,322.303 730.481,322.429C727.984,323.111 724.655,341.743 722.441,347.472C721.806,349.116 721.295,349.295 700.453,348.918C696.906,348.853 700.052,342.102 703.896,327.623ZM749.883,260.414C748.05,251.439 748.395,251.391 748.234,250.612C747.371,246.437 746.324,251.449 742.733,266.552C734.197,302.459 733.662,302.714 734.46,303.537C735.808,304.93 756.658,304.033 758.587,303.95C760.915,303.85 760.125,302.304 754.177,277.584C751.149,265.003 750.124,261.383 749.883,260.414Z" style="fill:rgb(1,1,1);"/>
                                                <path d="M137.979,341.64C136.544,346.751 137.775,348.869 132.503,348.911C113.684,349.062 111.865,349.153 112.556,346.512C112.609,346.307 132.728,272.445 142.961,234.624C144.544,228.774 146.467,230.503 152.5,230.504C177.015,230.51 178.524,229.699 179.547,233.486C181.944,242.366 209.221,343.423 209.508,344.498C210.277,347.379 211.552,348.814 208.564,348.91C206.793,348.967 189.091,349.536 186.413,348.791C182.904,347.815 180.463,322.788 176.521,322.349C176.044,322.296 145.231,322.208 144.475,322.393C142.829,322.795 142.386,325.033 137.979,341.64ZM150.91,289.598C148.262,301.098 147.146,303.859 149.405,303.96C151.337,304.046 172.161,304.976 173.581,303.587C175.04,302.159 163.162,261.148 161.978,251.139C161.171,244.314 159.484,254.153 159.427,254.484C158.738,258.5 151.616,286.795 150.91,289.598Z" style="fill:rgb(1,1,1);"/>
                                            </g>
                                        </g>
                                    </g>
                                </g>
                            </g>
                            <path d="M287.05,663.534C287.05,663.534 290.008,696.344 296.353,716.389C296.353,716.389 310.905,827.229 309.569,1043.326C309.569,1043.326 426.144,1083.2 631.737,1043.458C631.737,1043.458 632.174,801.219 661.835,774.502" style="fill:none;stroke:black;stroke-width:4.17px;"/>
                            <path d="M549.298,555.029C500.703,605.057 438.179,606.165 438.179,606.165C400.171,606.933 399.109,555.029 399.109,555.029C399.109,555.029 322.069,598.586 296.353,620.981" style="fill:none;stroke:black;stroke-width:4.17px;"/>
                            <path d="M662.51,632.858C662.51,632.858 599.616,583.973 549.298,555.029" style="fill:none;stroke:black;stroke-width:4.17px;"/>
                        </g>
                        <g id="r-hand" serif:id="r hand" transform="matrix(1,0,0,1,-90.604484,-2.226456)">
                            <path d="M692.003,767.224L703.56,818.337L713.167,860.098C713.167,860.098 805.852,857.049 836.352,840.425C836.352,840.425 813.119,702.978 808.963,693.182C808.963,693.182 788.183,643.781 747.81,632.858C747.81,632.858 694.618,633.921 690.823,756.116" style="fill:rgb(206,206,206);"/>
                            <path d="M690.823,762.182C690.823,762.182 707.477,832.85 711.93,860.012C711.93,860.012 772.823,862.461 836.352,841.088C836.352,841.088 817.352,720.432 808.15,693.845C808.15,693.845 794.272,647.553 748.518,632.858" style="fill:none;stroke:black;stroke-width:4.17px;"/>
                            <g>
                                <path d="M690.823,762.182C690.823,762.182 702.096,703.66 732.821,670.597" style="fill:none;stroke:black;stroke-width:4.17px;"/>
                            </g>
                        </g>
                    </g>
                </g>
            </g>
        </g>
    </g>
</svg>
