<?xml version="1.0" encoding="UTF-8" standalone="no"?>
<!DOCTYPE svg PUBLIC "-//W3C//DTD SVG 1.1//EN" "http://www.w3.org/Graphics/SVG/1.1/DTD/svg11.dtd">
<svg width="100%" height="100%" viewBox="0 0 1749 2481" version="1.1" xmlns="http://www.w3.org/2000/svg" xmlns:xlink="http://www.w3.org/1999/xlink" xml:space="preserve" xmlns:serif="http://www.serif.com/" style="fill-rule:evenodd;clip-rule:evenodd;stroke-linecap:round;stroke-linejoin:round;stroke-miterlimit:1.5;">
    <g>
        <g id="l-hand" serif:id="l hand" transform="matrix(1,0,0,1,88.025777,-10.546172)">
            <path d="M607.325,862.153C607.325,862.153 587.23,864.739 571.681,881.152C571.681,881.152 544.741,906.045 539.991,944.934C539.991,944.934 535.835,1012.024 533.757,1035.773C533.757,1035.773 530.232,1103.439 529.564,1110.118C529.564,1110.118 521.215,1161.215 521.549,1199.622C521.549,1199.622 516.892,1294.135 513.877,1300.146C513.877,1300.146 581.596,1304.691 588.81,1323.034C588.81,1323.034 606.176,1268.438 608.581,1255.88C608.581,1255.88 631.023,1179.468 630.756,1162.904C630.756,1162.904 634.764,1089.431 636.1,1081.95C636.1,1081.95 645.135,975.896 646.332,972.037C646.332,972.037 669.834,857.654 607.325,862.153Z" style="fill:rgb(81,81,81);"/>
            <path d="M607.325,862.153C607.325,862.153 552.554,870.162 539.64,945.861C539.64,945.861 531.18,1063.863 528.953,1108.838C528.953,1108.838 522.719,1161.382 522.274,1174.295C522.274,1174.295 518.075,1281.197 513.877,1300.663C513.877,1300.663 577.789,1302.352 589.001,1323.034C589.001,1323.034 629.793,1195.529 631.383,1151.541C631.383,1151.541 636.536,1070.148 637.871,1062.133C637.871,1062.133 645.441,975.301 646.332,971.293" style="fill:none;stroke:black;stroke-width:4.17px;"/>
            <path d="M551.129,1121.286C551.129,1121.286 577.846,1138.144 587.465,1156.312" style="fill:none;stroke:black;stroke-width:4.17px;"/>
        </g>
        <g id="body">
            <path id="_-" serif:id=" " d="M1069.346,1006.16C1069.346,1006.16 1053.697,1044.189 1050.262,1065.181C1050.262,1065.181 1039.575,1110.219 1040.338,1139.608L1039.575,1224.723L1039.193,1310.219C1039.193,1310.219 969.394,1323.029 954.031,1324.698C938.669,1326.368 824.656,1339.738 691.421,1312.23L693.586,1199.126C693.586,1199.126 692.584,1124.651 690.246,1111.627C690.246,1111.627 684.235,1018.116 682.231,1010.434C682.231,1010.434 679.225,981.379 678.557,977.037C678.557,977.037 626.396,910.411 666.237,869.871C666.237,869.871 664.168,868.872 677.145,857.032C699.631,836.516 755.338,798.358 779.057,788.012L782.063,784.672L779.057,788.012L782.063,784.672L782.063,788.046C782.063,788.046 776.265,833.984 830.17,831.649C830.17,831.649 902.035,826.627 939.113,777.482L995.754,816.341L1057.531,855.987C1057.531,855.987 1131.368,898.955 1069.346,1006.16Z" style="fill:rgb(81,81,81);"/>
            <clipPath id="_clip1">
                <path id="_-1" serif:id=" " d="M1069.346,1006.16C1069.346,1006.16 1053.697,1044.189 1050.262,1065.181C1050.262,1065.181 1039.575,1110.219 1040.338,1139.608L1039.575,1224.723L1039.193,1310.219C1039.193,1310.219 969.394,1323.029 954.031,1324.698C938.669,1326.368 824.656,1339.738 691.421,1312.23L693.586,1199.126C693.586,1199.126 692.584,1124.651 690.246,1111.627C690.246,1111.627 684.235,1018.116 682.231,1010.434C682.231,1010.434 679.225,981.379 678.557,977.037C678.557,977.037 626.396,910.411 666.237,869.871C666.237,869.871 664.168,868.872 677.145,857.032C699.631,836.516 755.338,798.358 779.057,788.012L782.063,784.672L779.057,788.012L782.063,784.672L782.063,788.046C782.063,788.046 776.265,833.984 830.17,831.649C830.17,831.649 902.035,826.627 939.113,777.482L995.754,816.341L1057.531,855.987C1057.531,855.987 1131.368,898.955 1069.346,1006.16Z"/>
            </clipPath>
            <g clip-path="url(#_clip1)">
                <g transform="matrix(0.025852,0,0,0.025852,923.6537,948.294275)">
                    <g transform="matrix(1,0,0,1,-1331.25,-1368.75)">
                        <g transform="matrix(4.166667,0,0,4.166667,-2467.293738,-3625.25265)">
                            <g transform="matrix(2.279712,0,0,2.279712,587.524604,865.438005)">
                                <path d="M114.872,228.832C100.847,268.683 98.007,270.845 101.544,271.096C104.448,271.302 188.9,271.857 196.497,271.907C211.09,272.002 230.626,278.422 251.853,235.676C262.908,213.413 263.372,213.472 264.471,213.291C264.877,213.224 280.232,213.179 280.591,213.289C282.75,213.943 281.008,215.08 264.251,254.392C263.061,257.184 250.007,287.807 249.115,289.176C248.533,290.07 248.205,289.96 17.5,289.962C16.512,289.962 6.747,290.732 7.398,288.488C7.466,288.251 15.538,268.95 15.757,268.655C19.481,263.65 50.853,272.926 60.092,262.13C63.142,258.567 63.169,258.483 84.704,196.571C90.123,180.99 91.168,179.243 90.107,176.66C84.794,163.729 39.707,59.924 35.268,47.58C27.314,25.455 2.936,29.404 2.239,27.636C1.904,26.786 2.08,14.535 2.044,11.499C1.976,5.738 4.739,7.747 10.5,7.747C85.95,7.754 86.283,7.623 86.661,8.369C87.245,9.519 87.477,9.977 86.346,24.492C85.841,30.974 75.285,24.555 74.323,34.477C73.62,41.725 75.577,41.459 98.701,90.403C99.75,92.624 111.725,117.971 111.845,118.15C113.01,119.886 113.247,117.58 120.776,93.587C128.097,70.256 134.697,56.722 123.533,55.243C122.169,55.062 114.204,57.258 115.362,53.466C119.51,39.885 119.962,38.095 122.486,38.081C130.146,38.036 176.724,38.755 203.488,38.923C204.351,38.928 206.368,38.841 205.599,41.524C203.316,49.496 202.406,54.859 199.469,55.294C184.578,57.498 175.986,53.126 165.293,83.426C134.763,169.935 134.312,170.211 135.361,172.561C136.854,175.905 153.79,213.846 154.798,214.002C156.069,214.199 155.885,213.336 181.435,150.473C185.176,141.269 228.155,35.521 228.189,35.409C230.757,26.851 223.251,20.09 217.506,20.065C210.705,20.035 210.283,21.19 208.63,19.397C208.246,18.98 207.211,2.819 209.365,2.158C210.171,1.91 273.85,2.104 278.501,2.044C283.63,1.978 281.94,4.405 281.962,9.5C281.975,12.511 282.715,19.73 280.424,20.193C278.679,20.547 267.521,20.551 257.625,28.649C250.453,34.518 251.493,35.43 237.734,69.594C163.559,253.769 164.469,255.248 161.549,255.787C159.107,256.239 159.096,255.7 130.517,255.039C127.679,254.973 127.526,254.301 118.983,235.284C117.872,232.81 116.35,228.836 116.24,228.797C115.81,228.643 115.301,228.985 114.872,228.832Z" style="fill:rgb(204,204,204);"/>
                            </g>
                        </g>
                    </g>
                </g>
            </g>
            <path d="M782.063,784.672C782.063,784.672 688.107,841.224 670.295,862.153" style="fill:none;stroke:black;stroke-width:4.17px;"/>
            <path d="M782.063,784.672C782.063,784.672 774.048,834.449 829.773,831.396C829.773,831.396 908.271,822.824 939.887,777.794C939.887,777.794 1003.755,825.48 1057.189,856.777" style="fill:none;stroke:black;stroke-width:4.17px;"/>
            <path d="M815.798,830.956C815.798,830.956 802.05,929.831 802.941,938.736C802.941,938.736 815.664,939.85 817.954,940.231C817.954,940.231 830.167,834.506 832.457,831.453" style="fill:none;stroke:black;stroke-width:4.17px;"/>
            <path d="M666.237,912.909C666.237,912.909 676.033,967.68 678.705,978.367C678.705,978.367 690.193,1098.618 692.865,1150.717C692.865,1150.717 692.999,1302.205 690.995,1312.892C690.995,1312.892 851.745,1352.501 1038.322,1309.976C1038.322,1309.976 1038.099,1144.617 1040.103,1121.239C1040.103,1121.239 1045.446,1057.117 1069.492,1007.69" style="fill:none;stroke:black;stroke-width:4.17px;"/>
        </g>
        <g id="r-hand" serif:id="r hand" transform="matrix(1,0,0,1,-117.126724,-13.366212)">
            <path d="M1167.564,867.121C1167.564,867.121 1088.455,840.587 1101.42,1006.16L1117.724,1073.546L1131.655,1142.98L1130.51,1202.903L1133.182,1255.193L1132.8,1318.934L1139.288,1319.673L1159.66,1319.005L1194.549,1324.015L1211.092,1327.688L1222.113,1334.368L1229.46,1343.029L1231.798,1327.354C1231.798,1327.354 1259.158,1192.216 1254.567,1165.499C1254.567,1165.499 1245.777,1063.973 1245.395,1055.576C1245.395,1055.576 1235.471,963.973 1229.364,946.416C1229.364,946.416 1212.189,890.691 1181.273,873.134L1167.564,867.121Z" style="fill:rgb(81,81,81);"/>
            <path d="M1101.42,1006.16C1101.42,1006.16 1131.343,1132.266 1130.809,1146.694C1130.809,1146.694 1128.137,1197.991 1131.877,1245.014C1131.877,1245.014 1133.748,1310.873 1131.076,1319.333C1131.076,1319.333 1218.862,1316.025 1228.213,1343.029C1228.213,1343.029 1256.266,1203.048 1254.485,1165.199C1254.485,1165.199 1240.503,994.608 1233.557,969.493C1233.557,969.493 1221.266,888.183 1167.564,867.121" style="fill:none;stroke:black;stroke-width:4.17px;"/>
            <path d="M1101.42,1006.16C1101.42,1006.16 1100.771,957.07 1143.073,908.978" style="fill:none;stroke:black;stroke-width:4.17px;"/>
            <path d="M1150.732,1149.658C1150.732,1149.658 1177.984,1109.582 1194.549,1097.292" style="fill:none;stroke:black;stroke-width:4.17px;"/>
        </g>
    </g>
</svg>
