<?xml version='1.0' encoding='utf-8'?>
<svg xmlns="http://www.w3.org/2000/svg" xmlns:serif="http://www.serif.com/" width="100%" height="100%" viewBox="597.579 731.162 552.874 609.735" version="1.1" xml:space="preserve" style="fill-rule:evenodd;clip-rule:evenodd;stroke-linecap:round;stroke-linejoin:round;stroke-miterlimit:1.5;">
    <g transform="matrix(1,0,0,1,384.228636,235.113715)">
        <g id="l-hand" serif:id="l hand" transform="matrix(1,0,0,1,76.011195,1.335874)">
            <path d="M247.236,615.991L233.694,615.991L212.8,624.335L194.395,640.365L185.489,654.021L179.255,668.27L175.395,681.926L170.943,711.909L164.412,768.312L157.816,813.435C157.816,813.435 184.598,835.106 268.016,824.122L272.766,745.157L275.284,711.612C275.284,711.612 289.984,615.663 252.282,615.991" style="fill:rgb(43,43,43);" />
            <clipPath id="_clip1">
                <path d="M247.236,615.991L233.694,615.991L212.8,624.335L194.395,640.365L185.489,654.021L179.255,668.27L175.395,681.926L170.943,711.909L164.412,768.312L157.816,813.435C157.816,813.435 184.598,835.106 268.016,824.122L272.766,745.157L275.284,711.612C275.284,711.612 289.984,615.663 252.282,615.991" />
            </clipPath>
            <g clip-path="url(#_clip1)">
                <g transform="matrix(1,0,0,1,-460.239831,-236.449589)">
                    <path d="M620.046,1036.268L618.056,1049.885L635.086,1057.897L665.01,1063.601L688.521,1063.601C688.521,1063.601 720.315,1062.706 726.727,1061.371C733.139,1060.035 728.33,1047.21 728.33,1047.21C728.33,1047.21 678.212,1055.516 620.046,1036.268Z" style="fill:rgb(19,103,58);" />
                </g>
            </g>
            <path d="M233.694,615.991C233.694,615.991 189.343,621.767 174.915,681.08C174.915,681.08 161.022,794.362 157.816,814.667C157.816,814.667 179.101,832.88 267.714,825.31C267.714,825.31 273.057,726.455 275.284,711.315" style="fill:none;stroke:black;stroke-width:4.17px;" />
        </g>
        <g id="body">
            <path id="_-" serif:id=" " d="M383.858,564.468L365.912,573.182L312.477,607.914L296.828,621.334C296.828,621.334 259.271,651.907 293.775,708.677L298.355,726.953L302.029,772.904L306.036,841.368L308.708,906.491C308.708,906.491 311.141,1036.127 309.996,1042.615C309.996,1042.615 448.196,1082.548 632.324,1042.584C632.324,1042.584 634.639,798.965 659.753,775.988C659.753,775.988 733.048,685.326 663.494,633.361C663.494,633.361 566.153,563.304 558.138,559.869C558.138,559.869 547.069,524.356 549.359,522.075C549.359,522.075 547.069,518.631 543.634,522.075C543.634,522.075 520.945,556.466 455.085,577.426L422.909,607.218C422.909,607.218 410.895,581.094 404.958,576.938C404.958,576.938 395.311,547.952 396.424,548.196L388.334,555.268L383.858,564.468Z" style="fill:rgb(43,43,43);" />
            <clipPath id="_clip2">
                <path id="_-1" serif:id=" " d="M383.858,564.468L365.912,573.182L312.477,607.914L296.828,621.334C296.828,621.334 259.271,651.907 293.775,708.677L298.355,726.953L302.029,772.904L306.036,841.368L308.708,906.491C308.708,906.491 311.141,1036.127 309.996,1042.615C309.996,1042.615 448.196,1082.548 632.324,1042.584C632.324,1042.584 634.639,798.965 659.753,775.988C659.753,775.988 733.048,685.326 663.494,633.361C663.494,633.361 566.153,563.304 558.138,559.869C558.138,559.869 547.069,524.356 549.359,522.075C549.359,522.075 547.069,518.631 543.634,522.075C543.634,522.075 520.945,556.466 455.085,577.426L422.909,607.218C422.909,607.218 410.895,581.094 404.958,576.938C404.958,576.938 395.311,547.952 396.424,548.196L388.334,555.268L383.858,564.468Z" />
            </clipPath>
            <g clip-path="url(#_clip2)">
                <g transform="matrix(1,0,0,1,-384.228636,-235.113715)">
                    <path d="M839.314,812.54L847.679,827.144L858.366,833.823L855.154,831.816C855.154,831.816 917.144,798.422 933.842,769.701L932.21,757.188L927.46,757.188C927.46,757.188 921.523,777.512 842.855,811.058" style="fill:rgb(19,103,58);" />
                </g>
                <g transform="matrix(1,0,0,1,-384.228636,-235.113715)">
                    <path d="M874.016,847.577C874.016,847.577 933.397,805.417 937.85,784.34L941.116,795.506L937.553,800.667C937.553,800.667 906.553,848.165 886.578,859.446L874.016,847.577Z" style="fill:rgb(19,103,58);" />
                </g>
                <g transform="matrix(1,0,0,1,-384.228636,-235.113715)">
                    <path d="M792.461,814.917L779.326,821.893C779.326,821.893 771.905,794.137 774.28,789.98C776.655,785.824 781.108,784.34 781.108,784.34C781.108,784.34 786.893,810.464 792.461,814.917" style="fill:rgb(19,103,58);" />
                </g>
                <g transform="matrix(1,0,0,1,-384.228636,-235.113715)">
                    <path d="M766.561,833.823C766.561,833.823 764.483,802.812 768.936,795.506L761.515,817.207C761.515,817.207 750.232,847.217 751.717,851.105C753.203,854.993 761.515,836.996 766.561,833.823Z" style="fill:rgb(19,103,58);" />
                </g>
                <g transform="matrix(1,0,0,1,-384.228636,-235.113715)">
                    <path d="M933.842,770.284C933.842,770.284 885.692,817.948 856.302,831.2L874.016,847.577C874.016,847.577 922.027,815.436 936.989,787.116L933.842,770.284Z" style="fill:rgb(178,3,0);" />
                </g>
                <g transform="matrix(1,0,0,1,-384.228636,-235.113715)">
                    <path d="M773.811,791.417C773.811,791.417 775.759,812.827 779.428,820.824L766.425,833.823C766.425,833.823 764.929,815.97 765.997,808.93L768.936,795.506C768.936,795.506 772.648,792.7 773.811,791.417Z" style="fill:rgb(178,3,0);" />
                </g>
            </g>
            <path d="M422.909,608.058C422.909,608.058 418.585,593.949 408.232,580.591C408.232,580.591 401.887,575.915 397.546,548.196C397.546,548.196 391.868,551.201 387.527,556.879C387.527,556.879 374.168,581.593 367.489,615.991C367.489,615.991 395.542,583.93 399.55,584.598" style="fill:none;stroke:black;stroke-width:4.17px;" />
            <path d="M384.52,563.018C384.52,563.018 322.069,598.586 296.353,620.981" style="fill:none;stroke:black;stroke-width:4.17px;" />
            <path d="M287.05,663.534C287.05,663.534 290.008,696.344 296.353,716.389C296.353,716.389 310.905,827.229 309.569,1043.326C309.569,1043.326 426.144,1083.2 631.737,1043.458C631.737,1043.458 632.174,801.219 661.835,774.502" style="fill:none;stroke:black;stroke-width:4.17px;" />
            <path d="M662.51,632.858C662.51,632.858 607.294,588.964 556.976,560.02C556.976,560.02 548.452,529.326 548.452,524.365C548.452,524.365 545.017,522.075 542.727,522.075C542.727,522.075 535.475,545.357 454.941,577.8C454.941,577.8 427.126,604.112 416.105,614.465C416.105,614.465 407.517,689.918 408.28,702.513C408.28,702.513 424.311,703.276 426.601,702.513C426.601,702.513 431.181,629.231 433.471,625.796C433.471,625.796 457.899,591.063 460.57,590.3C463.242,589.536 500.074,619.617 502.078,625.629C502.078,625.629 527.38,606.958 556.976,560.02" style="fill:none;stroke:black;stroke-width:4.17px;" />
        </g>
        <g id="r-hand" serif:id="r hand" transform="matrix(1,0,0,1,-90.604484,-2.226456)">
            <path d="M692.003,767.224L703.56,818.337L713.167,860.098C713.167,860.098 805.852,857.049 836.352,840.425C836.352,840.425 813.119,702.978 808.963,693.182C808.963,693.182 788.183,643.781 747.81,632.858C747.81,632.858 694.618,633.921 690.823,756.116" style="fill:rgb(43,43,43);" />
            <clipPath id="_clip3">
                <path d="M692.003,767.224L703.56,818.337L713.167,860.098C713.167,860.098 805.852,857.049 836.352,840.425C836.352,840.425 813.119,702.978 808.963,693.182C808.963,693.182 788.183,643.781 747.81,632.858C747.81,632.858 694.618,633.921 690.823,756.116" />
            </clipPath>
            <g clip-path="url(#_clip3)">
                <g transform="matrix(1,0,0,1,-293.624152,-232.887259)">
                    <path d="M1003.925,1080.524L1006.792,1092.985L1030.793,1092.985L1071.67,1087.621L1108.808,1080.14L1129.976,1072.659L1126.441,1055.292C1126.441,1055.292 1106.29,1070.18 1003.274,1077.468" style="fill:rgb(19,103,58);" />
                </g>
            </g>
            <path d="M690.823,762.182C690.823,762.182 707.477,832.85 711.93,860.012C711.93,860.012 772.823,862.461 836.352,841.088C836.352,841.088 817.352,720.432 808.15,693.845C808.15,693.845 794.272,647.553 748.518,632.858" style="fill:none;stroke:black;stroke-width:4.17px;" />
            <g>
                <path d="M690.823,762.182C690.823,762.182 702.096,703.66 732.821,670.597" style="fill:none;stroke:black;stroke-width:4.17px;" />
            </g>
        </g>
    </g>
</svg>