<?xml version="1.0" encoding="UTF-8" standalone="no"?>
<!DOCTYPE svg PUBLIC "-//W3C//DTD SVG 1.1//EN" "http://www.w3.org/Graphics/SVG/1.1/DTD/svg11.dtd">
<svg width="100%" height="100%" viewBox="0 0 1144 1203" version="1.1" xmlns="http://www.w3.org/2000/svg" xmlns:xlink="http://www.w3.org/1999/xlink" xml:space="preserve" xmlns:serif="http://www.serif.com/" style="fill-rule:evenodd;clip-rule:evenodd;stroke-linecap:round;stroke-linejoin:round;stroke-miterlimit:1.5;">
    <g transform="matrix(1,0,0,1,-302.50004,-638.794724)">
        <g transform="matrix(0.530614,0,0,0.530614,874.015748,1240.15748)">
            <g transform="matrix(1,0,0,1,-1077.083333,-1133.333333)">
                <g transform="matrix(4.166667,0,0,4.166667,-2566.551904,-3146.27065)">
                    <g transform="matrix(0.65117,0,0,0.65117,565.309743,499.296471)">
                        <g id="l-hand" serif:id="l hand" transform="matrix(1,0,0,1,76.011195,1.335874)">
                            <path d="M247.236,615.991L233.694,615.991L212.8,624.335L194.395,640.365L185.489,654.021L179.255,668.27L175.395,681.926L170.943,711.909L164.412,768.312L157.816,813.435C157.816,813.435 184.598,835.106 268.016,824.122L272.766,745.157L275.284,711.612C275.284,711.612 289.984,615.663 252.282,615.991" style="fill:rgb(206,206,206);"/>
                            <path d="M233.694,615.991C233.694,615.991 189.343,621.767 174.915,681.08C174.915,681.08 161.022,794.362 157.816,814.667C157.816,814.667 179.101,832.88 267.714,825.31C267.714,825.31 273.057,726.455 275.284,711.315" style="fill:none;stroke:black;stroke-width:4.17px;"/>
                        </g>
                        <g id="body">
                            <g transform="matrix(0.368567,0,0,0.368567,77.802536,392.844114)">
                                <path d="M864.757,440.042L709.028,538.16L592.973,618.983C592.973,618.983 481.086,719.044 592.973,878.785L618.75,1205.193C618.75,1205.193 627.778,1427.415 627.778,1482.971C627.778,1482.971 632.986,1748.769 629.861,1765.436C629.861,1765.436 787.569,1805.418 963.403,1813.083C963.403,1813.083 1308.657,1807.415 1402.569,1784.082C1402.569,1784.082 1495.649,1769.915 1503.149,1764.082L1508.149,1598.248C1508.149,1598.248 1516.482,1281.582 1531.482,1241.582C1531.482,1241.582 1556.891,1053.248 1584.603,1039.082C1584.603,1039.082 1756.89,760.228 1584.603,649.811C1584.603,649.811 1298.09,439.127 1279.265,440.042C1279.265,440.042 1139.607,580.123 975.44,580.957C975.44,580.957 893.756,585.712 873.774,456.79C870.544,435.957 864.757,440.042 864.757,440.042Z" style="fill:rgb(206,206,206);"/>
                            </g>
                            <path d="M287.05,663.534C287.05,663.534 290.008,696.344 296.353,716.389C296.353,716.389 310.905,827.229 309.569,1043.326C309.569,1043.326 426.144,1083.2 631.737,1043.458C631.737,1043.458 632.174,801.219 661.835,774.502" style="fill:none;stroke:black;stroke-width:4.17px;"/>
                            <path d="M549.298,555.029C500.703,605.057 438.179,606.165 438.179,606.165C400.171,606.933 399.109,555.029 399.109,555.029C399.109,555.029 322.069,598.586 296.353,620.981" style="fill:none;stroke:black;stroke-width:4.17px;"/>
                            <path d="M662.51,632.858C662.51,632.858 599.616,583.973 549.298,555.029" style="fill:none;stroke:black;stroke-width:4.17px;"/>
                        </g>
                        <g id="r-hand" serif:id="r hand" transform="matrix(1,0,0,1,-90.604484,-2.226456)">
                            <path d="M692.003,767.224L703.56,818.337L713.167,860.098C713.167,860.098 805.852,857.049 836.352,840.425C836.352,840.425 813.119,702.978 808.963,693.182C808.963,693.182 788.183,643.781 747.81,632.858C747.81,632.858 694.618,633.921 690.823,756.116" style="fill:rgb(206,206,206);"/>
                            <path d="M690.823,762.182C690.823,762.182 707.477,832.85 711.93,860.012C711.93,860.012 772.823,862.461 836.352,841.088C836.352,841.088 817.352,720.432 808.15,693.845C808.15,693.845 794.272,647.553 748.518,632.858" style="fill:none;stroke:black;stroke-width:4.17px;"/>
                            <g>
                                <path d="M690.823,762.182C690.823,762.182 702.096,703.66 732.821,670.597" style="fill:none;stroke:black;stroke-width:4.17px;"/>
                            </g>
                        </g>
                    </g>
                </g>
            </g>
        </g>
    </g>
</svg>
