<?xml version="1.0" encoding="UTF-8" standalone="no"?>
<!DOCTYPE svg PUBLIC "-//W3C//DTD SVG 1.1//EN" "http://www.w3.org/Graphics/SVG/1.1/DTD/svg11.dtd">
<svg width="100%" height="100%" viewBox="0 0 351 515" version="1.1" xmlns="http://www.w3.org/2000/svg" xmlns:xlink="http://www.w3.org/1999/xlink" xml:space="preserve" xmlns:serif="http://www.serif.com/" style="fill-rule:evenodd;clip-rule:evenodd;stroke-linecap:round;stroke-linejoin:round;stroke-miterlimit:1.5;">
    <g transform="matrix(1,0,0,1,-506.058157,-586.388091)">
        <g>
            <path d="M596.153,595.818L535.864,632.841L525.559,676.352C525.559,676.352 507.9,743.527 508.141,750.779C508.383,758.031 521.742,998.685 525.215,1076.567C525.215,1076.567 713.207,1129.623 844.845,1074.741C844.845,1074.741 847.864,906.577 854.598,849.468C854.598,849.468 785.008,863.307 776.28,743.355C776.28,743.355 775.924,688.586 818.672,621.667C818.672,621.667 766.128,590.133 763.011,588.471C763.011,588.471 714.601,679.399 645.517,676.727C645.517,676.727 621.472,682.07 601.243,671.765C601.243,671.765 569.909,663.002 596.153,595.818Z" style="fill:rgb(188,188,188);"/>
            <path d="M597.156,594.197C597.156,594.197 555.553,674.349 623.491,677.402C691.43,680.456 720.438,652.438 762.804,588.471C762.804,588.471 811.182,617.96 818.195,621.3C818.195,621.3 778.453,679.911 775.781,742.196C775.781,742.196 779.343,856.58 854.598,848.12C854.598,848.12 842.842,947.019 845.336,1074.55C845.336,1074.55 730.515,1127.095 523.479,1077.578C523.479,1077.578 514.503,811.078 508.141,751.536C508.141,751.536 530.362,643.286 536.15,633.044C536.15,633.044 583.352,601.659 597.156,594.197Z" style="fill:none;stroke:black;stroke-width:4.17px;"/>
        </g>
    </g>
</svg>
