<?xml version="1.0" encoding="UTF-8" standalone="no"?>
<!DOCTYPE svg PUBLIC "-//W3C//DTD SVG 1.1//EN" "http://www.w3.org/Graphics/SVG/1.1/DTD/svg11.dtd">
<svg width="100%" height="100%" viewBox="0 0 540 557" version="1.1" xmlns="http://www.w3.org/2000/svg" xmlns:xlink="http://www.w3.org/1999/xlink" xml:space="preserve" xmlns:serif="http://www.serif.com/" style="fill-rule:evenodd;clip-rule:evenodd;stroke-linecap:round;stroke-linejoin:round;stroke-miterlimit:1.5;">
    <g transform="matrix(1,0,0,1,-599.819443,-775.710495)">
        <g>
            <g id="l-hand" serif:id="l hand" transform="matrix(1,0,0,1,88.025777,-10.546172)">
                <path d="M607.325,862.153C607.325,862.153 587.23,864.739 571.681,881.152C571.681,881.152 544.741,906.045 539.991,944.934C539.991,944.934 535.835,1012.024 533.757,1035.773C533.757,1035.773 530.232,1103.439 529.564,1110.118C529.564,1110.118 521.215,1161.215 521.549,1199.622C521.549,1199.622 516.892,1294.135 513.877,1300.146C513.877,1300.146 581.596,1304.691 588.81,1323.034C588.81,1323.034 606.176,1268.438 608.581,1255.88C608.581,1255.88 631.023,1179.468 630.756,1162.904C630.756,1162.904 634.764,1089.431 636.1,1081.95C636.1,1081.95 645.135,975.896 646.332,972.037C646.332,972.037 669.834,857.654 607.325,862.153Z" style="fill:rgb(81,81,81);"/>
                <path d="M607.325,862.153C607.325,862.153 552.554,870.162 539.64,945.861C539.64,945.861 531.18,1063.863 528.953,1108.838C528.953,1108.838 522.719,1161.382 522.274,1174.295C522.274,1174.295 518.075,1281.197 513.877,1300.663C513.877,1300.663 577.789,1302.352 589.001,1323.034C589.001,1323.034 629.793,1195.529 631.383,1151.541C631.383,1151.541 636.536,1070.148 637.871,1062.133C637.871,1062.133 645.441,975.301 646.332,971.293" style="fill:none;stroke:black;stroke-width:4.17px;"/>
                <path d="M551.129,1121.286C551.129,1121.286 577.846,1138.144 587.465,1156.312" style="fill:none;stroke:black;stroke-width:4.17px;"/>
            </g>
            <g id="body">
                <path id="_-" serif:id=" " d="M1069.346,1006.16C1069.346,1006.16 1053.697,1044.189 1050.262,1065.181C1050.262,1065.181 1039.575,1110.219 1040.338,1139.608L1039.575,1224.723L1039.193,1310.219C1039.193,1310.219 969.394,1323.029 954.031,1324.698C938.669,1326.368 824.656,1339.738 691.421,1312.23L693.586,1199.126C693.586,1199.126 692.584,1124.651 690.246,1111.627C690.246,1111.627 684.235,1018.116 682.231,1010.434C682.231,1010.434 679.225,981.379 678.557,977.037C678.557,977.037 626.396,910.411 666.237,869.871C666.237,869.871 664.168,868.872 677.145,857.032C699.631,836.516 755.338,798.358 779.057,788.012L782.063,784.672L779.057,788.012L782.063,784.672L782.063,788.046C782.063,788.046 776.265,833.984 830.17,831.649C830.17,831.649 902.035,826.627 939.113,777.482L995.754,816.341L1057.531,855.987C1057.531,855.987 1131.368,898.955 1069.346,1006.16Z" style="fill:rgb(81,81,81);"/>
                <path d="M782.063,784.672C782.063,784.672 688.107,841.224 670.295,862.153" style="fill:none;stroke:black;stroke-width:4.17px;"/>
                <path d="M782.063,784.672C782.063,784.672 774.048,834.449 829.773,831.396C829.773,831.396 908.271,822.824 939.887,777.794C939.887,777.794 1003.755,825.48 1057.189,856.777" style="fill:none;stroke:black;stroke-width:4.17px;"/>
                <path d="M815.798,830.956C815.798,830.956 802.05,929.831 802.941,938.736C802.941,938.736 815.664,939.85 817.954,940.231C817.954,940.231 830.167,834.506 832.457,831.453" style="fill:none;stroke:black;stroke-width:4.17px;"/>
                <path d="M666.237,912.909C666.237,912.909 676.033,967.68 678.705,978.367C678.705,978.367 690.193,1098.618 692.865,1150.717C692.865,1150.717 692.999,1302.205 690.995,1312.892C690.995,1312.892 851.745,1352.501 1038.322,1309.976C1038.322,1309.976 1038.099,1144.617 1040.103,1121.239C1040.103,1121.239 1045.446,1057.117 1069.492,1007.69" style="fill:none;stroke:black;stroke-width:4.17px;"/>
            </g>
            <g id="r-hand" serif:id="r hand" transform="matrix(1,0,0,1,-117.126724,-13.366212)">
                <path d="M1167.564,867.121C1167.564,867.121 1088.455,840.587 1101.42,1006.16L1117.724,1073.546L1131.655,1142.98L1130.51,1202.903L1133.182,1255.193L1132.8,1318.934L1139.288,1319.673L1159.66,1319.005L1194.549,1324.015L1211.092,1327.688L1222.113,1334.368L1229.46,1343.029L1231.798,1327.354C1231.798,1327.354 1259.158,1192.216 1254.567,1165.499C1254.567,1165.499 1245.777,1063.973 1245.395,1055.576C1245.395,1055.576 1235.471,963.973 1229.364,946.416C1229.364,946.416 1212.189,890.691 1181.273,873.134L1167.564,867.121Z" style="fill:rgb(81,81,81);"/>
                <path d="M1101.42,1006.16C1101.42,1006.16 1131.343,1132.266 1130.809,1146.694C1130.809,1146.694 1128.137,1197.991 1131.877,1245.014C1131.877,1245.014 1133.748,1310.873 1131.076,1319.333C1131.076,1319.333 1218.862,1316.025 1228.213,1343.029C1228.213,1343.029 1256.266,1203.048 1254.485,1165.199C1254.485,1165.199 1240.503,994.608 1233.557,969.493C1233.557,969.493 1221.266,888.183 1167.564,867.121" style="fill:none;stroke:black;stroke-width:4.17px;"/>
                <path d="M1101.42,1006.16C1101.42,1006.16 1100.771,957.07 1143.073,908.978" style="fill:none;stroke:black;stroke-width:4.17px;"/>
                <path d="M1150.732,1149.658C1150.732,1149.658 1177.984,1109.582 1194.549,1097.292" style="fill:none;stroke:black;stroke-width:4.17px;"/>
            </g>
        </g>
    </g>
</svg>
