<?xml version="1.0" encoding="UTF-8" standalone="no"?>
<svg width="100%" height="100%" viewBox="0 0 552 1744" version="1.1" xmlns="http://www.w3.org/2000/svg" xmlns:xlink="http://www.w3.org/1999/xlink" xml:space="preserve" xmlns:serif="http://www.serif.com/" style="fill-rule:evenodd;clip-rule:evenodd;stroke-linecap:round;stroke-linejoin:round;stroke-miterlimit:1.5;">
    <g transform="matrix(1,0,0,1,-1204.134699,-553.227925)">
        <g>
            <g id="r-hand" serif:id="r hand" transform="matrix(1.037752,-0.000375,0.000391,0.994909,1136.593664,33.118205)">
                <path d="M171.47,1009.436C171.47,1009.436 258.82,946.208 237.446,1103.981C237.446,1103.981 228.985,1200.511 228.603,1213.488C228.222,1226.465 227.84,1258.526 225.168,1273.03C222.497,1287.534 216.488,1329.137 209.569,1342.877C209.569,1342.877 183.17,1455.69 182.032,1458.634C182.032,1458.634 189.291,1475.963 187.955,1487.318C187.955,1487.318 181.83,1522.797 182.588,1526.805C182.588,1526.805 188.476,1553.789 192.858,1555.659C192.858,1555.659 195.925,1576.012 187.445,1574.345L187.445,1588.281L182.032,1592.27L174.048,1592.27L165.285,1584.862L160.155,1587.854L154.17,1592.27L149.468,1592.27L141.987,1586.358L121.896,1563.915L113.774,1546.602L106.488,1508.77L108.216,1495.946L110.781,1468.587L117.193,1418.786L121.254,1372.404L125.102,1311.275L130.018,1249.718L134.293,1196.71L138.983,1136.222L138.983,1101.81L143.911,1069.535L151.819,1039.184L162.506,1018.665L171.47,1009.436Z" style="fill:rgb(241,188,12);"/>
                <g id="r-hand1" serif:id="r hand">
                    <path d="M171.478,1009.436C171.478,1009.436 152.375,1021.726 143.292,1074.093C134.208,1126.459 141.154,1117.375 134.742,1202.336C134.742,1202.336 128.152,1255.381 119.78,1397.908C119.78,1397.908 109.16,1484.997 106.488,1507.439C106.488,1507.439 109.561,1549.341 125.257,1568.489C125.257,1568.489 147.108,1599.214 155.505,1590.817C155.505,1590.817 167.719,1588.527 163.902,1574.786C163.902,1574.786 163.52,1566.389 155.124,1556.084C155.124,1556.084 147.872,1554.557 145.582,1543.87C143.292,1533.183 137.566,1501.504 132.986,1496.542" style="fill:none;stroke:black;stroke-width:4.12px;"/>
                    <path d="M163.93,1583.912C163.93,1583.912 173.126,1593.507 177.579,1592.27C182.032,1591.034 192.422,1591.331 185.594,1574.113C185.594,1574.113 170.721,1551.849 171.478,1546.802" style="fill:none;stroke:black;stroke-width:4.12px;"/>
                    <path d="M185.594,1574.113C185.594,1574.113 196.578,1577.675 191.531,1556.895C191.531,1556.895 181.735,1536.709 183.516,1522.163C185.297,1507.616 188.336,1493.367 187.856,1482.977C187.856,1482.977 186.188,1463.978 182.032,1458.634" style="fill:none;stroke:black;stroke-width:4.12px;"/>
                    <path d="M163.93,1437.854C163.93,1437.854 187.473,1449.644 171.478,1510.882C171.478,1510.882 175.02,1539.16 171.478,1546.802C171.478,1546.802 166.266,1560.455 155.579,1555.445" style="fill:none;stroke:black;stroke-width:4.12px;"/>
                    <path d="M182.032,1458.634C182.032,1458.634 216.266,1326.809 221.075,1300.853C221.075,1300.853 228.556,1252.455 228.022,1218.257C228.022,1218.257 236.037,1112.455 237.106,1104.44" style="fill:none;stroke:black;stroke-width:4.12px;"/>
                </g>
            </g>
            <g id="body">
                <g>
                    <path d="M1559.097,964.55L1580.471,987.408L1596.756,1000.258L1626.442,1018.96L1648.112,1029.647L1667.408,1042.709L1677.203,1054.693C1677.203,1054.693 1734.732,1099.15 1687.415,1188.097L1669.709,1240.157L1661.185,1286.821L1655.078,1343.694L1651.261,1420.412L1651.261,1431.48L1652.025,1439.877L1650.498,1531.862L1648.971,1621.938L1648.208,1652.472L1646.681,1748.655L1643.628,1863.158L1647.826,1900.181L1649.353,1923.845L1652.788,1991.02L1655.46,2057.814L1658.513,2131.86L1668.437,2179.188L1673.223,2208.577L1673.223,2229.927L1664.763,2235.27L1655.412,2240.614L1626.023,2252.303L1599.305,2263.658L1558.092,2280.022L1534.85,2288.705L1519.821,2291.711L1488.762,2295.069L1465.05,2295.069L1446.801,2290.041L1437.331,2284.698L1431.987,2279.02L1428.314,2269.669L1425.976,2261.988L1428.982,2250.633L1442.006,2230.595L1456.367,2213.229L1478.409,2192.856L1498.765,2175.156L1510.804,2162.465L1526.166,2147.437L1540.527,2129.069L1534.182,2043.907L1527.168,1979.451L1518.485,1921.674L1507.798,1852.543L1498.765,1797.104L1491.768,1741.665L1483.418,1674.204L1481.415,1655.167L1478.743,1657.839L1474.401,1682.887L1461.376,1805.787L1454.697,1881.264L1458.371,1909.317L1459.373,1954.403L1458.037,1986.464L1452.693,2034.555L1452.359,2071.292L1455.031,2118.382L1462.044,2136.75L1470.728,2160.128L1474.067,2178.83L1474.735,2190.519L1472.462,2198.352L1453.027,2204.545L1400.928,2212.227L1371.873,2221.912L1321.11,2234.269L1288.715,2240.614L1243.963,2239.946L1221.253,2235.27L1209.898,2223.582L1206.186,2214.564L1206.186,2203.209L1215.576,2189.851L1230.938,2174.488L1249.975,2161.129L1279.698,2140.423L1328.791,2107.695L1332.131,2105.691L1330.461,2047.246L1324.307,1972.103L1320.108,1880.93L1318.104,1849.537L1316.434,1795.768L1316.768,1694.576L1317.436,1641.141L1320.108,1569.004L1321.444,1506.552L1324.307,1432.454L1324.307,1405.693L1327.455,1330.884L1328.791,1240.157L1321.444,1229.358L1312.761,1201.638L1311.091,1177.927L1311.425,1139.186C1311.425,1139.186 1266.205,1086.332 1317.303,1037.351L1336.175,1024.061L1363.487,1009.292L1384.564,993.187L1402.672,981.016L1409.447,976.344L1409.447,959.627L1405.7,958.291L1391.273,955.085L1382.99,950.81L1376.578,944.665L1373.906,939.856L1367.227,919.016L1363.474,904.322L1355.739,896.039L1351.197,890.162L1349.059,877.07L1342.555,873.33L1337.838,864.513L1338.105,854.093L1339.975,843.406L1330.891,823.902L1324.307,810.543L1324.307,793.444L1327.418,774.742L1324.307,766.727L1317.5,756.574L1312.991,740.811L1314.326,726.918L1318.868,712.535L1324.307,702.605L1324.307,679.895L1326.884,658.788L1338.907,625.926L1354.403,601.079C1354.403,601.079 1384.593,559.833 1458.601,554.59C1458.601,554.59 1533.61,557.696 1568.343,600.11C1568.343,600.11 1598.4,636.847 1602.742,674.585C1607.083,712.323 1600.404,730.358 1600.404,730.358L1597.064,758.077L1614.134,774.015L1615.024,783.811L1613.837,800.435L1609.384,813.2L1598.4,829.528L1583.854,837.84L1563.667,843.86L1558.092,892.759L1558.092,931.054L1556.435,955.397L1559.097,964.55Z" style="fill:rgb(241,188,12);"/>
                    <path d="M1324.307,683.594L1335.223,677.439L1340.866,675.387L1351.98,674.532L1362.582,676.071L1374.722,678.977L1377.458,679.49L1378.655,677.268L1377.458,673.506L1374.551,670.257L1365.488,665.469L1354.306,660.51L1344.627,659.826L1337.104,661.536L1331.461,664.956L1326.16,669.402L1324.307,683.594Z"/>
                    <path d="M1430.764,667.307L1428.713,671.71L1429.91,674.66L1434.184,674.318L1439.827,671.71L1450.771,665.768L1461.885,663.716L1475.564,662.348L1485.311,663.374L1495.57,667.136L1504.12,671.71L1509.763,676.199L1511.964,674.66L1507.369,667.991L1501.213,662.519L1492.664,656.66L1483.601,653.97L1473.17,651.576L1461.885,651.576L1449.745,654.825L1440.169,659.826L1430.764,667.307Z"/>
                    <path d="M1324.307,1432.757L1324.307,1516.249L1320.642,1544.302L1320.308,1576.697L1319.64,1605.085L1317.303,1640.819L1327.878,1644.437L1354.002,1649.187L1392.891,1652.452L1439.201,1654.234L1478.924,1653.343L1482.543,1653.328L1482.81,1657.069L1484.146,1660.008L1492.962,1661.878L1535.71,1662.679L1583.268,1660.275L1622.008,1654.664L1647.122,1649.588L1648.191,1628.214L1649.794,1550.733L1650.863,1480.466L1652.199,1432.454L1642.847,1434.779L1573.382,1446.268L1525.825,1451.077L1472.924,1454.55L1428.713,1455.619L1401.909,1454.096L1374.123,1449.608L1354.673,1444.905L1337.36,1439.134L1324.307,1432.757Z" style="fill:white;"/>
                    <path d="M1452.894,693.217L1436.062,704.705L1426.443,718.518L1423.237,733.694L1422.775,744.167L1429.436,758.062L1436.917,771.098L1453.802,781.144L1467.369,783.445L1484.794,779.434L1498.046,771.098L1506.382,758.062L1511.964,744.381L1511.964,728.35L1504.886,712.106L1495.268,700.564L1480.733,693.297L1467.369,690.93L1452.894,693.217Z" style="fill:white;"/>
                    <path d="M1394.65,718.865L1385.833,704.972L1371.459,694.846L1356.711,690.93L1344.955,693.564L1333.627,699.121L1323.795,705.747L1317.383,717.717L1313.963,730.755L1313.963,746.785L1318.665,759.823L1326.146,770.51L1331.703,776.281L1343.245,781.411L1353.291,783.445L1358.848,776.709L1369.321,765.167L1380.222,751.487L1388.558,737.187L1393.26,725.411L1394.65,718.865Z" style="fill:white;"/>
                </g>
                <g transform="matrix(0.239901,0,0,0.239901,1031.90821,61.258702)">
                    <g transform="matrix(4.166667,0,0,4.166667,0,0)">
                        <path d="M293.449,643.637C293.449,643.637 273.408,505.281 429.285,494.264C429.285,494.264 548.998,489.019 571.804,613.78C571.804,613.78 572.433,669.81 564.418,697.062" style="fill:none;stroke:black;stroke-width:4.12px;"/>
                    </g>
                    <g transform="matrix(4.166667,0,0,4.166667,0,0)">
                        <path d="M524.743,721.475C524.743,721.475 555.802,671.38 582.853,714.796C582.853,714.796 594.876,775.578 528.416,782.925" style="fill:none;stroke:black;stroke-width:4.12px;"/>
                    </g>
                    <g transform="matrix(4.147802,0,0,4.155065,15.200639,22.568403)">
                        <path d="M289.29,1370.16C289.29,1370.16 286.862,1541.453 283.125,1574.583C283.125,1574.583 280.679,1765.279 285.71,1808.695C285.71,1808.695 301.48,2026.442 297.781,2046.48C297.781,2046.48 219.718,2097.577 200.125,2110.936C200.125,2110.936 178.751,2127.412 173.853,2143.442C173.853,2143.442 168.51,2153.239 173.853,2162.144C173.853,2162.144 180.087,2175.949 193.446,2177.284C193.446,2177.284 225.062,2184.409 256.677,2180.847C256.677,2180.847 315.456,2170.605 366.664,2153.239C366.664,2153.239 423.662,2145.669 432.122,2140.771C432.122,2140.771 440.137,2139.435 441.473,2131.419C441.473,2131.419 445.036,2116.402 420.99,2058.837C420.99,2058.837 414.756,1988.804 422.326,1945.611C422.326,1945.611 431.232,1876.971 421.435,1821.82C421.435,1821.82 439.158,1610.191 445.57,1592.515C445.57,1592.515 322.402,1596.702 285.71,1580.672" style="fill:none;stroke:black;stroke-width:4.12px;"/>
                    </g>
                    <g transform="matrix(4.147802,0,0,4.155065,15.200639,22.568403)">
                        <path d="M358.115,1521.448C358.115,1521.448 415.468,1556.181 445.57,1556.626C445.57,1556.626 448.235,1609.156 460.747,1701.329C464.885,1731.813 470.1,1766.632 476.651,1805.321C476.651,1805.321 501.588,1936.838 507.822,2070.537C507.822,2070.537 489.787,2094.248 472.688,2108.141C455.589,2122.034 441.162,2138.065 422.994,2153.561C422.994,2153.561 383.108,2194.661 395.481,2212.918C395.481,2212.918 397.167,2229.839 425.665,2233.402C425.665,2233.402 454.164,2240.081 500.474,2229.839C500.474,2229.839 573.057,2201.786 592.204,2193.326C611.352,2184.865 635.843,2178.631 639.405,2169.28C642.967,2159.929 638.96,2146.57 637.179,2129.204C635.398,2111.837 627.382,2086.01 626.046,2072.652C624.711,2059.293 618.744,1883.358 616.606,1865.725C614.469,1848.091 616.606,1838.473 611.263,1802.672C611.263,1802.672 619.367,1380.135 619.367,1371.229C619.367,1371.229 370.906,1421.458 290.185,1370.16C290.185,1370.16 295.841,1193.122 294.767,1177.247" style="fill:none;stroke:black;stroke-width:4.12px;"/>
                    </g>
                    <g transform="matrix(4.168388,0,0,4.168388,-4301.393655,-255.350031)">
                        <path d="M1418.014,1163.818C1418.014,1163.818 1418.014,1208.793 1423.357,1222.151C1423.357,1222.151 1430.036,1233.729 1446.512,1235.51" style="fill:none;stroke:black;stroke-width:2.08px;"/>
                    </g>
                    <g transform="matrix(4.168388,0,0,4.168388,-4301.393655,-255.350031)">
                        <path d="M1505.736,1235.51C1505.736,1235.51 1559.171,1239.072 1602.809,1204.785" style="fill:none;stroke:black;stroke-width:2.08px;"/>
                    </g>
                    <g transform="matrix(4.168388,0,0,4.168388,-4301.393655,-255.350031)">
                        <path d="M1314.261,1123.297C1314.261,1123.297 1297.34,1217.698 1335.635,1247.978" style="fill:none;stroke:black;stroke-width:4.12px;"/>
                    </g>
                    <g transform="matrix(4.147802,0,0,4.155065,15.200639,22.568403)">
                        <path d="M448.926,1599.416C448.926,1599.416 536.621,1607.846 615.337,1589.127" style="fill:none;stroke:black;stroke-width:4.12px;"/>
                    </g>
                    <g transform="matrix(4.166667,0,0,4.166667,0,0)">
                        <path d="M527.414,774.91C527.414,774.91 526.079,833.744 476.985,856.732" style="fill:none;stroke:black;stroke-width:4.12px;"/>
                    </g>
                    <g transform="matrix(4.166667,0,0,4.166667,0,0)">
                        <path d="M379.08,897.643C379.08,897.643 379.101,923.783 377.616,928.533M317.984,815.821C317.984,815.821 313.643,827.025 329.339,843.723C329.339,843.723 338.023,862.092 342.03,880.46C342.03,880.46 358.707,918.532 432.024,881.462" style="fill:none;stroke:black;stroke-width:4.12px;"/>
                    </g>
                    <g transform="matrix(4.166667,0,0,4.166667,0,0)">
                        <path d="M531.39,782.925C531.39,782.925 520.003,888.499 527.414,905.293" style="fill:none;stroke:black;stroke-width:4.12px;"/>
                    </g>
                    <g transform="matrix(4.166667,0,0,4.166667,0,0)">
                        <path d="M297.231,714.008C297.231,714.008 283.109,745.735 309.444,782.925C309.444,782.925 297.894,810.501 317.434,815.821C317.434,815.821 372.708,826.818 434.826,805.444" style="fill:none;stroke:black;stroke-width:4.12px;"/>
                    </g>
                    <g transform="matrix(4.166667,0,0,4.166667,0,0)">
                        <path d="M374.729,760.359C374.729,760.359 336.019,778.352 321.133,751.795C321.133,751.795 311.21,734.077 328.767,714.008C328.767,714.008 366.683,677.146 364.137,646.612" style="fill:none;stroke:black;stroke-width:4.12px;"/>
                    </g>
                    <g transform="matrix(4.168388,0,0,4.168388,-4301.393655,-255.350031)">
                        <path d="M1650.678,1430.214C1650.678,1430.214 1651.346,1250.836 1687.415,1189.088" style="fill:none;stroke:black;stroke-width:4.17px;"/>
                    </g>
                    <g transform="matrix(4.166667,0,0,4.166667,0,0)">
                        <path d="M568.604,721.779C568.604,721.779 557.249,705.08 535.207,742.819C535.207,742.819 559.587,735.137 545.226,766.53" style="fill:none;stroke:black;stroke-width:2.24px;"/>
                    </g>
                    <g transform="matrix(4.166667,0,0,4.166667,0,0)">
                        <path d="M401.211,613.592C401.211,613.592 442.772,586.28 475.427,614.482C475.427,614.482 487.895,622.794 472.755,604.983C472.755,604.983 434.163,570.844 397.946,607.654C397.946,607.654 394.591,616.248 401.211,613.592Z" style="fill:none;stroke:black;stroke-width:4.12px;"/>
                    </g>
                    <g transform="matrix(4.166667,0,0,4.166667,0,0)">
                        <path d="M344.511,618.95C344.511,618.95 311.114,606.125 294.549,622.156" style="fill:none;stroke:black;stroke-width:4.12px;"/>
                    </g>
                    <g transform="matrix(4.166667,0,0,4.166667,0,0)">
                        <path d="M344.511,618.95C344.511,618.95 351.458,619.217 344.511,611.202C344.511,611.202 311.916,585.286 294.549,609.332" style="fill:none;stroke:black;stroke-width:4.12px;"/>
                    </g>
                    <g transform="matrix(4.166667,0,0,4.166667,0,0)">
                        <ellipse cx="435.641" cy="676.208" rx="44.613" ry="46.277" style="fill:none;stroke:black;stroke-width:4.12px;"/>
                    </g>
                    <g transform="matrix(4.166667,0,0,4.166667,0,0)">
                        <path d="M362.427,656.653C362.427,656.653 339.142,607.266 293.449,642.666C293.449,642.666 263.452,679.483 297.851,714.008C297.851,714.008 310.44,723.487 322.013,722.485" style="fill:none;stroke:black;stroke-width:4.12px;"/>
                    </g>
                    <g transform="matrix(4.166667,0,0,4.166667,0,0)">
                        <ellipse cx="335.441" cy="681.499" rx="8.015" ry="8.461" style="stroke:black;stroke-width:4.12px;"/>
                    </g>
                    <g transform="matrix(4.166667,0,0,4.166667,0,0)">
                        <ellipse cx="440.082" cy="678.828" rx="7.869" ry="8.461" style="stroke:black;stroke-width:4.12px;"/>
                    </g>
                    <g transform="matrix(4.166667,0,0,4.166667,0,0)">
                        <path d="M377.695,915.463C377.695,915.463 335.329,947.384 285.71,974.101" style="fill:none;stroke:black;stroke-width:4.12px;"/>
                    </g>
                    <g transform="matrix(4.166667,0,0,4.166667,0,0)">
                        <path d="M526.401,903.005C526.401,903.005 547.709,935.601 615.337,968.73C615.337,968.73 640.752,982.089 645.561,993.845" style="fill:none;stroke:black;stroke-width:4.12px;"/>
                    </g>
                </g>
            </g>
            <g id="l-hand" serif:id="l hand" transform="matrix(1.037752,0,0,0.994909,892.979653,50.717873)">
                <path d="M748.69,999.455C748.69,999.455 731.099,991.707 725.373,999.455C719.648,1007.204 665.45,1012.767 690.641,1141.555C715.831,1270.342 709.597,1225.145 709.597,1225.145L718.296,1275.432C718.296,1275.432 719.934,1309.401 718.296,1314.744C716.658,1320.088 718.296,1351.385 718.296,1351.385C718.296,1351.385 715.513,1439.171 713.605,1442.988C711.697,1446.805 686.887,1487.263 687.269,1495.66C687.269,1495.66 679.02,1557.492 675.893,1560.545C672.765,1563.599 675.893,1567.153 675.893,1567.153L681.639,1570.962L687.651,1570.962L697.094,1567.821L708.023,1553.794L711.697,1549.453L712.031,1568.155L712.031,1595.874L711.697,1607.229L718.296,1618.38L725.612,1619.567L735.408,1615.411L742.533,1620.498L748.69,1624.614L754.407,1624.02L761.235,1620.498L772.219,1599.129L778.75,1594.334L788.828,1582.757L795.077,1568.21L801.608,1545.946L806.655,1514.182L806.061,1477.371L804.577,1461.341L812.889,1429.28L820.607,1381.782L826.841,1332.206L829.216,1281.146L829.216,1242.851L821.498,1166.855L809.327,1100.655L796.858,1056.719L782.906,1034.158L763.907,1011.893L748.69,999.455Z" style="fill:rgb(241,188,12);"/>
                <g id="l-hand-" serif:id="l hand ">
                    <path d="M748.69,999.455C748.69,999.455 786.095,1026.173 801.057,1070.524C816.018,1114.875 830.446,1228.691 828.843,1270.905C828.843,1270.905 831.648,1355.933 804.263,1461.668C804.263,1461.668 817.532,1565.732 773.894,1599.129" style="fill:none;stroke:black;stroke-width:4.12px;"/>
                    <path d="M784.263,1542.036C784.263,1542.036 773.423,1630.204 748.69,1625.242C748.69,1625.242 741.515,1623.715 735.408,1616.082C735.408,1616.082 754.873,1588.219 752.583,1543.181" style="fill:none;stroke:black;stroke-width:4.12px;"/>
                    <path d="M735.408,1616.082C735.408,1616.082 719.759,1629.822 711.744,1608.83C711.744,1608.83 712.126,1588.219 712.507,1569.517C712.507,1569.517 712.507,1530.586 710.98,1521.426" style="fill:none;stroke:black;stroke-width:4.12px;"/>
                    <path d="M712.302,1548.133C712.302,1548.133 701.057,1570.88 683.5,1570.962C683.5,1570.962 673.958,1568.754 676.248,1558.067C676.248,1558.067 687.698,1508.067 686.553,1496.617C686.553,1496.617 694.568,1469.518 712.889,1443.945C712.889,1443.945 720.077,1344.295 716.07,1315.351C716.07,1315.351 717.851,1283.29 718.296,1275.72C718.296,1275.72 699.148,1171.968 690.243,1140.797" style="fill:none;stroke:black;stroke-width:4.12px;"/>
                </g>
            </g>
        </g>
    </g>
</svg>
