<?xml version="1.0" encoding="UTF-8" standalone="no"?>
<!DOCTYPE svg PUBLIC "-//W3C//DTD SVG 1.1//EN" "http://www.w3.org/Graphics/SVG/1.1/DTD/svg11.dtd">
<svg viewBox="1100 545 720 1770" version="1.1" xmlns="http://www.w3.org/2000/svg" xmlns:xlink="http://www.w3.org/1999/xlink" xml:space="preserve" xmlns:serif="http://www.serif.com/" style="fill-rule:evenodd;clip-rule:evenodd;stroke-linecap:round;stroke-linejoin:round;stroke-miterlimit:1.5;">
    <g>
        <g id="r-hand" serif:id="r hand" transform="matrix(1.037752,-0.000375,0.000391,0.994909,1007.048014,62.422398)">
            <g id="r-hand1" serif:id="r hand" transform="matrix(1,-0,0,1,36.047275,-9.385376)">
                <g transform="matrix(0.963621,0.000363,-0.000379,1.005117,-875.524546,-69.805306)">
                    <path d="M1086.951,1073.354L1073.859,1087.519L1067.068,1109.299L1055.457,1137.686L1048.455,1185.11L1043.847,1207.819L1026.413,1300.997L1018.398,1326.044L1010.383,1359.441L1003.035,1414.212L999.028,1466.311L993.35,1515.07L987.673,1562.828L984.206,1582.198L988.362,1607.802L994.352,1627.618L999.102,1637.878L1009.492,1650.94L1022.851,1662.814L1030.272,1668.595L1035.579,1668.496L1043.847,1662.221L1048.084,1662.517L1055.457,1668.496L1060.849,1668.496L1067.068,1663.408L1067.068,1650.643L1071.833,1649.159L1074.208,1645.923L1073.02,1633.722L1067.068,1623.251L1064.871,1612.66L1063.521,1601.661L1067.068,1578.224L1067.068,1541.635L1081.184,1510.094L1106.39,1447.308L1115.382,1414.179L1123.13,1381.049L1122.863,1365.018L1137.558,1315.057L1145.711,1281.091C1145.711,1281.091 1153.741,1208.352 1149.288,1194.994C1144.835,1181.635 1129.25,1079.982 1095.853,1073.811L1086.951,1073.354Z" style="fill:rgb(241,188,12);"/>
                </g>
                <path d="M171.478,1009.436C171.478,1009.436 153.924,1022.044 143.292,1074.093C128.536,1146.329 126.207,1156.039 113.617,1238.313C113.617,1238.313 90.846,1285.751 85.569,1413.24C85.569,1413.24 74.949,1500.329 72.277,1522.771C72.277,1522.771 75.35,1564.673 91.046,1583.821C91.046,1583.821 112.897,1614.546 121.294,1606.149C121.294,1606.149 133.508,1603.859 129.691,1590.118C129.691,1590.118 129.309,1581.721 120.913,1571.416C120.913,1571.416 113.661,1569.889 111.371,1559.202C109.081,1548.515 103.355,1516.836 98.775,1511.874" style="fill:none;stroke:black;stroke-width:4.12px;"/>
                <path d="M129.719,1599.244C129.719,1599.244 138.915,1608.839 143.368,1607.602C147.821,1606.366 156.373,1604.409 149.545,1587.191C149.545,1587.191 136.51,1567.181 137.267,1562.134" style="fill:none;stroke:black;stroke-width:4.12px;"/>
                <path d="M151.383,1589.445C151.383,1589.445 162.367,1593.007 157.32,1572.227C157.32,1572.227 147.524,1552.041 149.305,1537.495C151.086,1522.948 154.125,1508.699 153.645,1498.309C153.645,1498.309 151.977,1479.31 147.821,1473.966" style="fill:none;stroke:black;stroke-width:4.12px;"/>
                <path d="M129.719,1453.186C129.719,1453.186 153.262,1464.976 137.267,1526.214C137.267,1526.214 140.354,1555.131 136.812,1562.773C136.812,1562.773 131.6,1576.426 120.913,1571.416" style="fill:none;stroke:black;stroke-width:4.12px;"/>
                <path d="M152.141,1480.106C152.141,1480.106 209.82,1352.989 206.271,1302.861C206.271,1302.861 219.801,1255.674 228.022,1218.257" style="fill:none;stroke:black;stroke-width:4.12px;"/>
            </g>
        </g>
        <g id="body">
            <g>
                <path d="M1347.56,990.309L1312.824,1005.084L1278.868,1021.478L1258.978,1031.572L1240.87,1044.04L1224.437,1057.304C1224.437,1057.304 1210.59,1074.683 1207.918,1133.692L1204.059,1145.796L1195.747,1179.935L1194.856,1199.825L1196.34,1214.965L1201.684,1226.839L1209.996,1236.339L1205.543,1240.157L1191.888,1259.494L1176.154,1286.805L1158.342,1326.881L1149.14,1360.427L1142.312,1399.315L1137.011,1434.345L1137.011,1475.905L1143.202,1507.076L1151.811,1538.84L1163.092,1570.901L1166.061,1580.4L1166.951,1597.025L1173.482,1673.021L1181.201,1744.564L1191.591,1810.764L1204.653,1870.433L1215.636,1921.79L1225.328,1972.553L1238.198,2033.41L1248.885,2094.563L1250.963,2116.531L1245.916,2121.578L1213.558,2141.467L1184.466,2161.06L1163.389,2176.2L1148.546,2185.996L1137.011,2198.761L1128.359,2212.417L1124.253,2223.994L1128.953,2237.056L1137.011,2245.072L1144.687,2247.743L1168.139,2252.765L1193.075,2252.765L1215.636,2249.821L1245.322,2244.478L1318.647,2224.291L1355.458,2218.651L1381.285,2213.308L1390.191,2209.151L1393.456,2202.621L1392.862,2193.418L1383.66,2158.091L1372.973,2129.593L1385.441,2061.612L1398.222,1985.912L1398.222,1952.664L1394.94,1905.166L1389.894,1874.293L1386.034,1858.262L1382.175,1855.293L1384.253,1825.607L1390.191,1781.375L1398.222,1726.456L1407.705,1756.142L1430.86,1825.904L1448.375,1865.141L1458.172,1885.87L1469.452,1922.384L1492.014,1989.178L1511.013,2046.769L1538.621,2130.483L1525.262,2148.889L1506.263,2166.997L1488.155,2184.809L1466.484,2204.402L1452.531,2217.464L1438.579,2234.088L1429.673,2249.228L1425.517,2262.586L1427.595,2273.867L1436.204,2286.929L1447.188,2291.976L1467.968,2296.183L1511.903,2296.183L1535.059,2289.007L1581.369,2269.711L1611.649,2259.321L1636.288,2248.337L1658.85,2240.025L1666.568,2234.681L1670.997,2226.073L1670.997,2209.745L1661.224,2154.826L1657.068,2133.155L1659.443,2061.315L1659.146,1973.741L1657.959,1946.133L1645.788,1883.495L1637.772,1837.779L1640.147,1800.374L1646.381,1725.268L1652.615,1637.695L1661.224,1533.793L1668.349,1449.188L1680.52,1359.833L1692.988,1264.203L1698.035,1224.167C1698.035,1224.167 1779.462,1112.144 1713.59,1055.433L1644.473,1024.041L1583.023,993.125L1541.849,972.234L1538.176,950.448L1539.178,922.729L1541.849,893.674L1541.849,870.596L1545.419,851.093L1555.037,846.551L1568.396,837.734L1575.343,828.917L1582.022,817.161L1584.159,802.734L1584.159,784.566L1574.541,774.413L1565.457,767.2L1571.068,737.811L1573.205,698.002L1572.671,681.437L1561.984,646.17L1553.434,629.872L1527.518,599.414L1502.938,581.781L1449.503,565.083L1429.465,565.083L1404.004,568.155L1373.091,578.04L1351.985,588.727L1331.679,604.49L1312.977,626.666L1303.893,646.437L1296.145,674.223L1295.076,697.734L1295.343,714.032L1290,721.513L1284.657,735.139L1282.786,747.963L1287.546,768.803L1297.748,783.23L1291.336,801.131L1287.546,821.703L1290.534,840.94L1299.618,859.108L1302.29,871.665L1308.702,881.016L1316.183,885.825L1318.588,889.366L1314.58,892.772L1313.779,899.718L1319.389,912.276L1323.931,917.352L1323.13,927.505L1324.466,944.069L1329.809,954.756L1340.496,963.039L1349.764,966.527L1347.56,990.309Z" style="fill:rgb(241,188,12);"/>
                <path d="M1436.275,700.436L1422.118,702.677L1410.897,708.288L1405.82,713.364L1392.495,732.066L1392.495,752.372L1398.222,773.478L1417.309,788.44L1429.332,793.242L1446.698,793.242L1465.133,784.768L1476.889,767.066L1481.684,751.57L1481.684,733.402L1472.881,717.906L1464.064,708.288L1449.103,700.726L1436.275,700.436Z" style="fill:white;"/>
                <path d="M1362.092,728.326L1357.462,718.173L1348.378,708.822L1337.691,700.726L1325.935,700.436L1317.385,700.726L1308.301,705.616L1296.546,712.83L1287.908,723.25L1284.523,733.669L1282.92,746.984L1285.324,760.654L1294.408,778.288L1302.958,787.104L1315.515,793.242L1324.332,793.242L1329.408,784.768L1341.164,772.944L1350.248,759.852L1359.065,744.624L1362.092,734.204L1364.943,730.463L1362.092,728.326Z" style="fill:white;"/>
                <path d="M1345.706,680.234L1348.645,686.647L1346.775,689.051L1340.897,687.982L1329.675,685.578L1319.79,684.776L1309.905,684.776L1301.355,689.318L1295.744,693.593L1296.279,678.899L1299.218,675.425L1309.37,669.547L1318.187,669.28L1328.34,671.685L1339.027,676.227L1345.706,680.234Z"/>
                <path d="M1409.828,669.28L1402.881,674.301L1398.56,679.166L1398.56,684.509L1402.614,683.708L1411.431,678.899L1427.461,674.301L1440.122,671.15L1448.568,671.952L1456.851,674.301L1466.736,677.563L1475.82,683.975L1479.56,687.22L1481.684,681.437L1475.553,674.301L1468.072,669.28L1457.385,664.471L1443.225,661.383L1432.805,661.383L1422.118,663.937L1412.767,669.28L1409.828,669.28Z"/>
                <path d="M1665.361,1464.64L1629.102,1469.602L1568.654,1478.977L1491.173,1489.998L1440.122,1495.341L1381.965,1498.681L1322.195,1500.685L1262.739,1501.353L1228.34,1498.013L1196.279,1494.006L1172.233,1489.33L1137.011,1476.639L1139.69,1492.02L1142.955,1509.535L1150.674,1538.627L1165.22,1575.438L1166.704,1594.734L1170.267,1643.419L1173.235,1671.621L1195.203,1679.636L1238.841,1687.652L1295.744,1691.808L1354.617,1690.323L1385.194,1689.136L1389.053,1687.948L1398.56,1690.026L1466.83,1694.479L1510.469,1693.886L1564.201,1690.323L1609.324,1683.792L1637.228,1678.449L1649.103,1676.074L1654.743,1617.889L1658.602,1564.158L1662.462,1516.957L1665.727,1475.99L1665.361,1464.64Z" style="fill:white;"/>
            </g>
            <g id="body1" serif:id="body" transform="matrix(1,0,0,1,-30.279798,9.796405)">
                <g transform="matrix(0.239901,0,0,0.239901,1031.90821,61.258702)">
                    <g transform="matrix(4.166667,0,0,4.166667,0,0)">
                        <path d="M293.449,643.637C293.449,643.637 273.408,505.281 429.285,494.264C429.285,494.264 548.998,489.019 571.804,613.78C571.804,613.78 572.433,669.81 564.418,697.062" style="fill:none;stroke:black;stroke-width:4.12px;"/>
                    </g>
                    <g transform="matrix(4.166667,0,0,4.166667,0,0)">
                        <path d="M524.743,721.475C524.743,721.475 555.802,671.38 582.853,714.796C582.853,714.796 594.876,775.578 528.416,782.925" style="fill:none;stroke:black;stroke-width:4.12px;"/>
                    </g>
                    <g transform="matrix(4.147802,0,0,4.155065,15.200639,22.568403)">
                        <path d="M381.069,1617.568C328.958,1623.096 227.542,1623.945 167.778,1601.13M161.73,1505.74C161.73,1505.74 164.776,1660.188 200.685,1802.441C200.685,1802.441 249.57,2027.872 245.871,2047.91C245.871,2047.91 167.808,2099.007 148.215,2112.366C148.215,2112.366 126.841,2128.842 121.943,2144.872C121.943,2144.872 116.6,2154.669 121.943,2163.574C121.943,2163.574 128.177,2177.379 141.536,2178.714C141.536,2178.714 173.152,2185.839 204.767,2182.277C204.767,2182.277 263.546,2172.035 314.754,2154.669C314.754,2154.669 371.752,2147.099 380.212,2142.201C380.212,2142.201 388.227,2140.865 389.563,2132.849C389.563,2132.849 393.126,2117.832 369.08,2060.267C369.08,2060.267 386.184,1960.661 393.754,1917.468C393.754,1917.468 400.354,1851.508 381.831,1786.976C381.831,1786.976 374.204,1796.302 383.014,1736.951C389.497,1693.282 390.343,1671.807 393.754,1655.687M132.39,1405.54C132.39,1405.54 140.148,1480.672 179.119,1534.984" style="fill:none;stroke:black;stroke-width:4.12px;"/>
                    </g>
                    <g transform="matrix(4.147802,0,0,4.155065,15.200639,22.568403)">
                        <path d="M275.551,1563.663C275.551,1563.663 338.945,1579.634 369.047,1580.079C369.047,1580.079 387.411,1634.387 416.444,1722.772C429.98,1763.976 438.551,1781.374 453.828,1813.362C453.828,1813.362 497.56,1948.899 536.015,2061.826C536.015,2061.826 517.98,2085.537 500.881,2099.43C483.782,2113.323 469.355,2129.354 451.187,2144.85C451.187,2144.85 411.301,2185.95 423.674,2204.207C423.674,2204.207 425.36,2221.128 453.858,2224.691C453.858,2224.691 482.357,2231.37 528.667,2221.128C528.667,2221.128 601.25,2193.075 620.397,2184.615C639.545,2176.154 664.036,2169.92 667.598,2160.569C671.16,2151.218 667.153,2137.859 665.372,2120.493C663.591,2103.126 655.575,2077.299 654.239,2063.941C652.904,2050.582 660.138,1990.571 655.986,1884.487C655.291,1866.738 639.859,1802.959 634.516,1767.158C634.516,1767.158 663.821,1400.942 663.821,1392.036C663.821,1392.036 254.063,1467.716 132.844,1404.468C132.844,1404.468 121.853,1248.544 208.041,1162.31" style="fill:none;stroke:black;stroke-width:4.12px;"/>
                    </g>
                    <g transform="matrix(4.168388,0,0,4.168388,-4175.175711,-296.185248)">
                        <path d="M1212.289,1235.065C1212.289,1235.065 1220.7,1225.426 1267.79,1226.428" style="fill:none;stroke:black;stroke-width:4.17px;"/>
                    </g>
                    <g transform="matrix(4.168388,0,0,4.168388,-4301.393655,-255.350031)">
                        <path d="M1427.365,1219.479C1427.365,1219.479 1541.359,1255.993 1607.262,1195.434" style="fill:none;stroke:black;stroke-width:2.08px;"/>
                    </g>
                    <g transform="matrix(4.168388,0,0,4.168388,-4301.393655,-255.350031)">
                        <path d="M1248.358,1101.477C1248.358,1101.477 1201.157,1194.988 1239.452,1225.268" style="fill:none;stroke:black;stroke-width:4.12px;"/>
                    </g>
                    <g transform="matrix(4.147802,0,0,4.155065,15.200639,22.568403)">
                        <path d="M382.136,1616.503C382.136,1616.503 510.308,1637.559 645.793,1605.056" style="fill:none;stroke:black;stroke-width:4.12px;"/>
                    </g>
                    <g transform="matrix(4.166667,0,0,4.166667,0,0)">
                        <path d="M527.414,774.91C527.414,774.91 526.079,833.744 476.985,856.732" style="fill:none;stroke:black;stroke-width:4.12px;"/>
                    </g>
                    <g transform="matrix(4.166667,0,0,4.166667,0,0)">
                        <path d="M317.984,815.821C317.984,815.821 308.714,825.062 313.922,835.091C315.722,838.559 318.433,842.487 322.466,846.778C322.466,846.778 317.404,862.092 327.138,882.751C327.138,882.751 348.779,918.15 432.024,881.462" style="fill:none;stroke:black;stroke-width:4.12px;"/>
                    </g>
                    <g transform="matrix(4.168388,0,0,4.168388,-4175.175711,-296.185248)">
                        <path d="M1349.764,966.527C1349.764,966.527 1349.23,984.632 1347.56,990.309C1347.56,990.309 1316.167,1001.998 1267.074,1027.38C1267.074,1027.38 1232.007,1047.752 1225.328,1055.433" style="fill:none;stroke:black;stroke-width:4.17px;"/>
                    </g>
                    <g transform="matrix(4.166667,0,0,4.166667,51.229633,-15.591627)">
                        <path d="M531.39,782.925C531.39,782.925 520.003,888.499 527.414,905.293" style="fill:none;stroke:black;stroke-width:4.12px;"/>
                    </g>
                    <g transform="matrix(4.166667,0,0,4.166667,0,0)">
                        <path d="M297.231,714.008C297.231,714.008 272.083,752.417 298.418,789.607C298.418,789.607 297.894,810.501 317.434,815.821C317.434,815.821 372.708,826.818 434.826,805.444" style="fill:none;stroke:black;stroke-width:4.12px;"/>
                    </g>
                    <g transform="matrix(4.166667,0,0,4.166667,0,0)">
                        <path d="M374.729,760.359C374.729,760.359 336.019,778.352 321.133,751.795C321.133,751.795 311.21,734.077 328.767,714.008C328.767,714.008 366.683,677.146 364.137,646.612" style="fill:none;stroke:black;stroke-width:4.12px;"/>
                    </g>
                    <g transform="matrix(4.168388,0,0,4.168388,-4301.393655,-255.350031)">
                        <path d="M1696.098,1454.259C1696.098,1454.259 1710.125,1353.783 1727.491,1216.559" style="fill:none;stroke:black;stroke-width:4.17px;"/>
                    </g>
                    <g transform="matrix(4.166667,0,0,4.166667,0,0)">
                        <path d="M568.604,721.779C568.604,721.779 557.249,705.08 535.207,742.819C535.207,742.819 559.587,735.137 545.226,766.53" style="fill:none;stroke:black;stroke-width:2.24px;"/>
                    </g>
                    <g transform="matrix(4.166667,0,0,4.166667,0,0)">
                        <path d="M401.211,613.592C401.211,613.592 442.772,586.28 475.427,614.482C475.427,614.482 487.895,622.794 472.755,604.983C472.755,604.983 434.163,570.844 397.946,607.654C397.946,607.654 394.591,616.248 401.211,613.592Z" style="fill:none;stroke:black;stroke-width:4.12px;"/>
                    </g>
                    <g transform="matrix(4.166667,0,0,4.166667,0,0)">
                        <path d="M344.511,618.95C344.511,618.95 311.114,606.125 294.549,622.156" style="fill:none;stroke:black;stroke-width:4.12px;"/>
                    </g>
                    <g transform="matrix(4.166667,0,0,4.166667,0,0)">
                        <path d="M344.511,618.95C344.511,618.95 351.458,619.217 344.511,611.202C344.511,611.202 311.916,585.286 294.549,609.332" style="fill:none;stroke:black;stroke-width:4.12px;"/>
                    </g>
                    <g transform="matrix(4.166667,0,0,4.166667,0,0)">
                        <ellipse cx="435.641" cy="676.208" rx="44.613" ry="46.277" style="fill:none;stroke:black;stroke-width:4.12px;"/>
                    </g>
                    <g transform="matrix(4.166667,0,0,4.166667,0,0)">
                        <path d="M362.427,656.653C362.427,656.653 339.142,607.266 293.449,642.666C293.449,642.666 263.452,679.483 297.851,714.008C297.851,714.008 310.44,723.487 322.013,722.485" style="fill:none;stroke:black;stroke-width:4.12px;"/>
                    </g>
                    <g transform="matrix(4.166667,0,0,4.166667,0,0)">
                        <ellipse cx="335.441" cy="681.499" rx="8.015" ry="8.461" style="stroke:black;stroke-width:4.12px;"/>
                    </g>
                    <g transform="matrix(4.166667,0,0,4.166667,0,0)">
                        <ellipse cx="440.082" cy="678.828" rx="7.869" ry="8.461" style="stroke:black;stroke-width:4.12px;"/>
                    </g>
                    <g transform="matrix(4.168388,0,0,4.168388,-4175.175711,-296.185248)">
                        <path d="M1541.849,972.234C1541.849,972.234 1634.773,1022.047 1713.59,1056.112" style="fill:none;stroke:black;stroke-width:4.17px;"/>
                    </g>
                </g>
            </g>
        </g>
        <g id="l-hand" serif:id="l hand" transform="matrix(1.037752,0,0,0.994909,939.117395,79.688283)">
            <g id="l-hand-" serif:id="l hand ">
                <g transform="matrix(0.963621,0,0,1.005117,-1042.863837,-102.506527)">
                    <path d="M1863.937,1085.037L1841.64,1075.665C1841.64,1075.665 1675.754,1053.038 1753.937,1246.592L1793.443,1366.481L1792.298,1411.52L1795.733,1438.237L1799.55,1479.458L1803.334,1519.534L1803.334,1538.237L1794.206,1551.142L1786.599,1565.187L1776.209,1588.046L1775.319,1599.92L1771.756,1621.888L1767.6,1643.559L1765.522,1653.355L1767.006,1658.105L1770.866,1660.998L1778.635,1660.998L1789.271,1652.168L1798.771,1642.074L1799.958,1666.12L1799.661,1689.572L1799.661,1700.853L1803.334,1710.723L1808.923,1712.594L1815.335,1711.258L1819.519,1710.189L1826.557,1715.8L1830.832,1718.189L1837.511,1715.533L1845.941,1712.059L1851.137,1704.311L1855.698,1694.499L1865.831,1690.151L1872.364,1683.472L1881.06,1668.777L1888.541,1651.143L1892.015,1636.927L1894.419,1615.876L1895.221,1582.747L1893.885,1558.167L1910.717,1510.342L1927.282,1449.427L1936.9,1402.938L1942.32,1360.992L1942.32,1303.816L1935.03,1258.397L1923.808,1201.488L1908.847,1144.046L1895.488,1120.267L1877.053,1096.756L1863.937,1085.037Z" style="fill:rgb(241,188,12);"/>
                </g>
                <g transform="matrix(1,0,0,1,-28.079464,-8.056256)">
                    <path d="M773.406,989.653C773.406,989.653 810.811,1016.371 825.773,1060.722C827.857,1066.902 829.932,1074.43 831.954,1082.926C841.086,1121.294 852.756,1181.537 855.893,1224.2C857.047,1239.885 857.019,1267.986 856.648,1277.753C856.648,1277.753 849.119,1365.447 810.406,1472.793C810.406,1472.793 812.309,1504.895 810.585,1536.067C808.797,1568.406 791.224,1606.292 774.52,1608.72" style="fill:none;stroke:black;stroke-width:4.12px;"/>
                </g>
                <g transform="matrix(1,0,0,1,-17.112,-4.987206)">
                    <path d="M778.498,1549.325C778.498,1549.325 773.062,1583.521 762.917,1606.634C753.537,1628.006 745.084,1627.309 737.723,1629.462C737.723,1629.462 733.682,1628.702 727.575,1621.069C727.575,1621.069 732.657,1623.006 737.723,1600.989C740.178,1590.32 747.705,1562.486 746.957,1547.785" style="fill:none;stroke:black;stroke-width:4.12px;"/>
                </g>
                <g transform="matrix(0.692857,0,0,0.927718,211.078222,109.97153)">
                    <path d="M720.762,1623.112C720.762,1623.112 701.022,1635.611 693.007,1614.619C693.007,1614.619 692.858,1598.41 693.239,1579.708C693.239,1579.708 692.178,1536.789 690.651,1527.629" style="fill:none;stroke:black;stroke-width:4.12px;"/>
                </g>
                <path d="M689.709,1548.11C689.709,1548.11 680.093,1562.632 665.478,1566.934C665.478,1566.934 655.936,1568.306 658.226,1557.619C658.226,1557.619 667.345,1517.799 668.493,1501.093C668.632,1499.079 668.654,1497.401 668.531,1496.169C668.531,1496.169 669.154,1494.063 670.45,1490.471C673.801,1481.178 681.654,1461.941 694.867,1443.497C694.867,1443.497 693.302,1372.223 683.631,1317.499C683.631,1317.499 684.659,1280.605 685.104,1273.035C685.104,1273.035 656.172,1181.636 647.267,1150.465" style="fill:none;stroke:black;stroke-width:4.12px;"/>
            </g>
        </g>
    </g>
</svg>
