<?xml version="1.0" encoding="UTF-8" standalone="no"?>
<!DOCTYPE svg PUBLIC "-//W3C//DTD SVG 1.1//EN" "http://www.w3.org/Graphics/SVG/1.1/DTD/svg11.dtd">
<svg width="100%" height="100%" viewBox="0 0 672 1540" version="1.1" xmlns="http://www.w3.org/2000/svg" xmlns:xlink="http://www.w3.org/1999/xlink" xml:space="preserve" xmlns:serif="http://www.serif.com/" style="fill-rule:evenodd;clip-rule:evenodd;stroke-linecap:round;stroke-linejoin:round;stroke-miterlimit:1.5;">
    <g transform="matrix(1,0,0,1,-446.448709,-594.302796)">
        <g>
            <g id="l-hand" serif:id="l hand" transform="matrix(1,0,0,1,-59.392548,4.095606)">
                <path d="M690.748,986.714C690.748,986.714 773.996,987.855 722.898,1116.382C722.898,1116.382 667.109,1259.63 667.064,1260.017C667.064,1260.017 657.21,1322.877 621.913,1365.892C621.913,1365.892 567.359,1441.903 564.779,1446.178C564.779,1446.178 571.935,1471.984 559.795,1498.4C559.795,1498.4 555.862,1505.322 557.914,1513.359C557.914,1513.359 560.308,1521.738 564.241,1524.816C564.241,1524.816 569.542,1531.806 564.412,1535.759C564.412,1535.759 565.78,1548.262 553.981,1545.868C553.981,1545.868 553.981,1548.604 550.219,1550.485L547.484,1552.125L542.354,1550.656L535.343,1547.749C535.343,1547.749 520.689,1536.976 507.925,1508.079C507.925,1508.079 508.497,1482.943 510.72,1476.445C512.943,1469.948 516.192,1447.548 519.441,1440.708C522.69,1433.868 524.4,1424.635 525.939,1416.598C527.478,1408.562 535.856,1342.046 536.369,1337.6C536.667,1335.019 540.745,1313.731 541.103,1311.866C541.958,1307.42 566.371,1229.854 567.055,1225.579C567.479,1222.926 569.592,1207.158 575.649,1180.454C579.928,1161.589 584.872,1143.995 584.872,1143.995C584.872,1143.995 591.469,1109.474 597.638,1091.158C603.37,1074.135 603.462,1062.838 613.775,1042.105C613.775,1042.105 619.803,1022.401 663.512,995.79L690.748,986.714Z" style="fill:rgb(241,188,12);"/>
                <path d="M522.662,1430.402C522.662,1430.402 504.246,1485.387 508.587,1509.433C508.587,1509.433 526.25,1551.828 547.327,1552.125C547.327,1552.125 559.475,1548.545 544.086,1532.728C544.086,1532.728 535.109,1523.751 535.322,1521.186" style="fill:none;stroke:black;stroke-width:4.17px;"/>
                <g transform="matrix(1,0,0,1,-82.066905,13.015016)">
                    <path d="M772.815,973.699C772.815,973.699 707.357,983.94 685.538,1055.187C685.538,1055.187 654.562,1180.314 649.121,1211.039C649.121,1211.039 626.314,1287.184 620.971,1307.222C620.971,1307.222 609.393,1391.293 605.386,1417.387" style="fill:none;stroke:black;stroke-width:4.17px;"/>
                </g>
                <g transform="matrix(1,0,0,1,-82.066905,13.015016)">
                    <path d="M804.965,1103.367C804.965,1103.367 756.874,1221.815 749.749,1244.079C749.749,1244.079 742.815,1299.836 715.335,1337.622C715.335,1337.622 650.011,1425.308 646.652,1433.576" style="fill:none;stroke:black;stroke-width:4.17px;"/>
                </g>
                <path d="M551.81,1545.078C551.81,1545.078 556.91,1546.835 559.261,1546.194C561.612,1545.553 567.383,1542.988 560.971,1534.011C560.971,1534.011 547.506,1520.331 546.864,1514.774" style="fill:none;stroke:black;stroke-width:4.17px;"/>
                <path d="M563.9,1536.148C563.9,1536.148 570.677,1532.515 563.9,1523.965C563.9,1523.965 551.139,1515.202 560.544,1495.751C560.544,1495.751 572.6,1472.454 563.9,1446.591" style="fill:none;stroke:black;stroke-width:4.17px;"/>
                <path d="M546.864,1438.033C546.864,1438.033 560.207,1449.922 551.123,1481.449C551.123,1481.449 549.092,1493.872 550.161,1503.49C550.161,1503.49 542.253,1524.223 531.352,1519.735C531.352,1519.735 525.367,1519.307 528.573,1507.551C528.573,1507.551 530.069,1500.284 528.787,1494.941C528.787,1494.941 530.069,1476.987 527.077,1472.284" style="fill:none;stroke:black;stroke-width:4.17px;"/>
            </g>
            <g id="body">
                <g>
                    <path d="M1001.817,1125.516L998.887,1130.876C998.887,1130.876 1058.237,1027.781 1013.703,1000.783C964.332,970.853 943.368,971.935 926.242,965.736C911.882,960.539 880.749,947.221 869.558,936.107C869.558,936.107 861.153,915.144 860.543,905.221C859.663,890.901 859.474,885.701 860.543,858.184C860.543,858.184 860.317,856.892 863.865,854.968C863.865,854.968 884.683,852.575 892.72,840.092C900.756,827.61 902.979,823.506 903.834,810.169C904.689,796.831 893.233,783.299 886.393,781.858C886.393,781.858 886.703,778.877 889.198,773.405C891.694,767.934 898.37,733.735 898.708,726.725C899.046,719.714 896.62,682.096 889.198,671.152C881.776,660.209 884.79,650.589 854.93,626.865C854.93,626.865 823.842,602.207 793.277,598.573C793.277,598.573 753.933,593.016 721.88,606.268C721.88,606.268 680.85,623.794 671.018,647.519C671.018,647.519 653.033,672.1 650.27,699.672C650.27,699.672 650.468,713.351 650.27,720.405L648.362,725.962L642.591,736.863C642.591,736.863 633.614,756.17 648.148,780.821C648.148,780.821 642.407,796.069 648.392,814.023C648.392,814.023 649.858,832.103 650.285,839.734C650.285,839.734 643.307,850.57 667.032,864.096C667.032,864.096 667.812,884.129 679.14,888.404C679.14,888.404 700.888,916.434 713.926,922.466L721.595,922.466L728.701,922.264C728.701,922.264 729.262,936.709 727.499,952.419C727.499,952.419 700.802,961.467 693.505,965.092C686.207,968.717 667.479,975.897 662.342,977.607C657.205,979.317 626.679,989.785 626.679,989.785C626.679,989.785 566.182,1018.909 594.502,1054.443L594.502,1063.788L589.06,1078.188L571.168,1090.033L553.116,1107.386L539.03,1123.478L530.184,1141.634L526.073,1157.385L523.938,1175.749L528.2,1194.87L534.598,1209.559L547.906,1226.022L563.926,1236.816C563.926,1236.816 564.816,1238.241 557.81,1249.237C551.695,1258.833 542.007,1276.346 539.228,1285.964L521.747,1329.222C521.747,1329.222 508.744,1369.605 509.528,1402.853C509.736,1411.674 508.187,1453.379 526.919,1494.973C534.61,1512.053 529.621,1520.435 534.754,1547.892C540.564,1578.976 543.779,1588.944 550.885,1612.375C550.885,1612.375 568.813,1668.048 578.431,1678.26C578.431,1678.26 595.392,1709.742 606.079,1724.971C606.079,1724.971 611.242,1753.281 621.87,1775.427C625.807,1783.631 632.156,1859.966 635.85,1879.403C639.401,1898.092 653.711,1965.588 654.246,1973.603C654.78,1981.618 657.627,1997.203 656.024,2002.012C654.421,2006.821 647.047,2015.237 640.849,2019.726C634.65,2024.214 606.864,2041.955 592.116,2047.085C577.368,2052.214 559.841,2060.123 556.421,2062.901C553.001,2065.68 547.017,2071.665 544.879,2078.291C542.742,2084.917 542.528,2090.474 545.948,2092.611C549.368,2094.749 562.834,2099.878 565.612,2098.81C568.391,2097.741 572.879,2103.261 586.131,2102.211C599.383,2101.161 613.49,2100.092 625.032,2096.031C636.574,2091.97 645.337,2086.199 649.612,2085.558C653.887,2084.917 680.818,2078.504 690.436,2080.642C700.054,2082.779 724.848,2077.436 729.551,2073.588C734.253,2069.741 737.673,2069.1 737.886,2062.901C738.1,2056.703 737.245,2041.955 734.039,2036.611C730.833,2031.268 721.001,1999.207 720.787,1993.863C720.573,1988.52 732.514,1949.222 732.941,1944.734C733.369,1940.245 751.529,1889.551 753.239,1883.994C754.949,1878.436 761.383,1821.901 753.958,1779.58C752.9,1773.552 744.935,1743.128 739.702,1729.212C735.764,1718.74 751.12,1655.666 751.334,1649.254C751.548,1642.842 762.528,1607.402 763.383,1604.196C763.855,1602.425 767.049,1613.457 767.649,1618.423C768.238,1623.305 785.94,1669.922 788.306,1676.252C794.237,1692.122 804.734,1715.319 809.864,1727.128C812.357,1732.867 826.213,1768.709 834.157,1781.593C836.574,1785.512 844.942,1821.464 848.307,1835.617C852.849,1854.72 863.202,1893.995 866.141,1907.621C869.08,1921.247 878.164,1968.069 880.435,1981.161C881.76,1988.799 886.714,2016.628 885.912,2021.704C885.11,2026.781 872.019,2049.945 866.034,2056.143C860.049,2062.342 839.53,2081.151 832.477,2085.212C825.424,2089.273 808.538,2101.134 805.546,2104.501C802.553,2107.868 794.859,2118.769 811.958,2125.822L823.714,2125.822C823.714,2125.822 851.714,2136.082 870.095,2129.67C870.095,2129.67 900.233,2123.685 909.637,2117.7C909.637,2117.7 929.729,2105.836 936.782,2104.501C936.782,2104.501 954.95,2099.532 956.446,2097.181C957.942,2094.83 960.935,2090.128 960.293,2083.929C959.652,2077.731 952.599,2046.525 952.171,2043.105C951.744,2039.685 949.298,2038.664 949.725,2030.114C950.153,2021.565 961.778,1988.335 971.004,1955.412C980.801,1920.454 988.293,1874.144 988.555,1863.267C988.746,1855.315 988.017,1801.104 980.277,1771.311C978.212,1763.363 975.847,1752.698 976.604,1745.91C977.518,1737.717 979.328,1696.478 979.756,1690.066C980.183,1683.654 985.812,1644.017 991.369,1608.75C996.926,1573.483 1003.76,1535.99 1003.547,1530.646C1003.333,1525.303 1003.333,1475.639 1003.547,1472.006C1003.76,1468.372 1000.106,1424.931 999.424,1419.567C994.492,1380.743 991.025,1362.089 990.714,1354.213C988.461,1297.198 988.909,1289.424 987.453,1273.995C987.055,1269.771 990.077,1200.954 995.075,1157.243C997.038,1140.077 995.654,1153.746 998.887,1130.876" style="fill:rgb(241,188,12);"/>
                    <path d="M648.596,1000.924L662.342,977.607L678.306,970.786L690.703,966.298L693.054,966.084L690.489,971.855L674.886,997.076L660.565,1024.221L646.255,1047.946L632.352,1078.188C632.352,1078.188 626.153,1094.114 650.947,1104.587C675.741,1115.061 688.993,1112.282 688.993,1112.282L739.435,1107.58L779.618,1098.603L816.595,1084.923L831.343,1078.188L837.114,1066.969L849.939,1044.74L874.016,1011.397L895.252,983.183L913.419,960.527L920.045,962.023L933.297,967.153L939.709,969.29L924.106,988.313L901.664,1019.519L885.419,1047.519L874.016,1078.188L881.786,1098.175L899.674,1124.251L915.129,1138.786L932.228,1149.259L949.541,1154.602L962.152,1156.74L976.686,1157.381L988.87,1155.457L995.282,1154.602L988.442,1223.442L981.602,1223.442L948.686,1230.266L925.389,1232.404L902.946,1232.404L892.473,1231.549L871.526,1245.228L852.931,1252.495L828.137,1259.121C828.137,1259.121 793.725,1270.022 740.076,1252.495C686.428,1234.969 704.382,1238.602 690.489,1234.114L675.527,1233.259L652.229,1234.541L596.871,1245.656C596.871,1245.656 581.482,1246.297 562.886,1236.037C544.291,1225.778 540.657,1218.083 534.886,1208.465C534.886,1208.465 522.703,1190.083 524.413,1168.496C524.413,1168.496 522.276,1150.969 538.306,1124.679C538.306,1124.679 552.413,1103.519 562.245,1097.534L574.001,1087.916L581.054,1083.213L587.039,1078.188L594.306,1074.664L597.94,1070.816L603.497,1064.618L610.336,1055.641L618.459,1046.023L625.701,1037.046L633.42,1024.221L639.405,1014.389L648.596,1000.924Z" style="fill:white;"/>
                    <path d="M509.494,1399.695C509.494,1399.695 510.547,1442.897 516.745,1465.126L526.15,1492.699L530.184,1505.067L530.184,1510.653L538.119,1560.027L539.615,1567.294L547.737,1570.714C547.737,1570.714 569.966,1580.973 605.447,1583.538C605.447,1583.538 689.019,1590.164 704.195,1587.813C704.195,1587.813 755.925,1588.051 758.273,1585.367L761.734,1594.289L767.376,1595.144C767.376,1595.144 834.918,1598.222 849.794,1597.196C864.671,1596.17 929.648,1592.066 938.71,1590.356C947.773,1588.646 988.757,1580.476 995.282,1578.235C995.282,1578.235 1004.029,1539.401 1002.832,1519.224C1002.832,1519.224 1004.884,1462.626 1001.635,1450.998C1001.635,1450.998 996.163,1390.467 993.257,1381.062L950.851,1394.229C950.851,1394.229 903.315,1408.25 884.164,1412.183C865.013,1416.116 823.462,1426.033 808.927,1428.085C794.393,1430.137 743.95,1435.267 734.204,1436.122C724.457,1436.977 669.911,1437.148 658.626,1436.977C647.34,1436.806 605.105,1430.65 595.188,1428.769C585.27,1426.888 558.424,1419.194 549.704,1416.971C540.983,1414.748 521.148,1406.369 517.044,1404.317C512.941,1402.265 509.494,1399.695 509.494,1399.695Z" style="fill:white;"/>
                    <path d="M755.042,712.945C755.042,712.945 717.37,736.189 740.614,774.662C740.614,774.662 760.064,802.528 788.064,789.918C788.064,789.918 811.576,784.36 815.637,757.215C815.637,757.215 821.408,733.063 796.4,715.109C796.4,715.109 780.156,701.376 755.042,712.945Z" style="fill:white;"/>
                    <path d="M711.332,737.979C711.332,737.979 703.851,714.681 682.263,711.903C682.263,711.903 660.675,707.414 646.355,728.788C646.355,728.788 632.248,756.788 646.996,777.521C646.996,777.521 661.317,796.041 685.897,793.193C685.897,793.193 700.859,778.589 705.133,768.116C705.133,768.116 713.206,744.177 712.589,740.971L711.332,737.979Z" style="fill:white;"/>
                    <path d="M749.12,688.583C749.12,688.583 748.354,693.398 758.203,689.13C758.203,689.13 775.493,684.315 784.358,687.051C784.358,687.051 808.324,690.334 821.018,699.417L821.566,697.447L818.83,693.945L806.792,684.425L795.411,679.172L783.811,676.326L774.626,676.764L767.833,678.077L762.361,680.157L754.482,684.753L749.12,688.583Z"/>
                    <path d="M696.746,693.232L695.635,694.108L689.835,692.228L681.956,690.168L674.619,690.606L668.277,692.228L662.148,694.874L658.537,697.063L651.533,702.311L652.491,697.063L654.707,693.123L661.71,686.995L669.816,682.144L678.454,682.144L686.114,684.149L691.203,687.872L695.745,691.044L696.746,693.232Z"/>
                </g>
                <path d="M651.55,719.379C651.55,719.379 645.539,702.347 659.565,668.616C659.565,668.616 678.861,603.27 764.209,597.017C764.209,597.017 816.642,587.777 869.483,640.025C869.483,640.025 902.896,668.783 898.268,730.018C898.268,730.018 893.259,765.978 885.837,780.821" style="fill:none;stroke:black;stroke-width:4.17px;"/>
                <path d="M856.138,797.772C856.138,797.772 887.278,760.418 902.648,800.166C902.648,800.166 914.931,847.112 862.03,853.791C862.03,853.791 854.036,854.94 843.777,846.22" style="fill:none;stroke:black;stroke-width:4.17px;"/>
                <path d="M893.365,812.705C893.365,812.705 889.945,785.175 858.311,821.597" style="fill:none;stroke:black;stroke-width:2.08px;"/>
                <path d="M863.612,817.849C863.612,817.849 878.317,820.913 866.177,837.157" style="fill:none;stroke:black;stroke-width:2.08px;"/>
                <path d="M541.971,1568.537C541.971,1568.537 585.193,1595.663 758.273,1585.755" style="fill:none;stroke:black;stroke-width:4.17px;"/>
                <path d="M765.649,1594.75C765.649,1594.75 889.274,1607.222 995.075,1579.345" style="fill:none;stroke:black;stroke-width:4.17px;"/>
                <path d="M652.491,702.311C652.491,702.311 669.9,681.279 695.72,694.788L696.746,693.078C696.746,693.078 688.881,680.595 670.071,682.305C670.071,682.305 656.456,688.461 652.491,696.84" style="fill:none;stroke:black;stroke-width:2.08px;"/>
                <path d="M748.899,688.604C748.899,688.604 749.07,692.223 753.686,690.855C753.686,690.855 779.976,677.026 821.399,699.575C821.399,699.575 824.99,697.883 808.028,685.434C808.028,685.434 790.655,671.892 767.674,677.911C767.674,677.911 755.431,682.061 748.899,688.604Z" style="fill:none;stroke:black;stroke-width:2.08px;"/>
                <path d="M712.158,725.913C712.158,725.913 719.876,776.676 670.004,805.472C670.004,805.472 668.888,808.874 672.094,812.507C675.3,816.141 682.781,824.69 695.178,828.538" style="fill:none;stroke:black;stroke-width:4.17px;"/>
                <path d="M829.86,858.774C829.86,858.774 826.921,871.331 801.806,888.163" style="fill:none;stroke:black;stroke-width:4.17px;"/>
                <path d="M647.409,780.821C647.409,780.821 644.144,795.893 648.597,817.441C648.597,817.441 649.814,834.214 649.814,848.795C649.814,848.795 658.512,873.172 720.229,867.057C720.229,867.057 759.504,865.444 772.328,853.841" style="fill:none;stroke:black;stroke-width:4.17px;"/>
                <path d="M667.032,864.096C667.032,864.096 666.972,880.148 678.461,888.46C678.461,888.46 705.208,925.152 722.04,922.213C722.04,922.213 740.03,925.419 776.158,909.003" style="fill:none;stroke:black;stroke-width:4.17px;"/>
                <path d="M712.589,739.419C712.589,739.419 692.944,690.259 652.628,720.45C652.628,720.45 626.595,749.841 648.976,779.363C648.976,779.363 661.472,796.182 684.449,792.915" style="fill:none;stroke:black;stroke-width:4.17px;"/>
                <ellipse cx="774.648" cy="750.711" rx="41.572" ry="42.204" style="fill:none;stroke:black;stroke-width:4.17px;"/>
                <ellipse cx="770.913" cy="755.102" rx="7.273" ry="7.908" style="stroke:black;stroke-width:4.17px;"/>
                <g transform="matrix(1,0,0,1,-95.541664,1.709918)">
                    <ellipse cx="770.913" cy="755.102" rx="7.273" ry="7.908" style="stroke:black;stroke-width:4.17px;"/>
                </g>
                <path d="M633.985,730.672C633.985,730.672 636.892,735.289 641.68,735.46" style="fill:none;stroke:black;stroke-width:4.17px;"/>
                <path d="M637.833,725.913C637.833,725.913 642.022,729.304 645.784,728.107" style="fill:none;stroke:black;stroke-width:4.17px;"/>
                <path d="M809.765,727.138C809.765,727.138 813.869,728.164 818.828,725.913" style="fill:none;stroke:black;stroke-width:4.17px;"/>
                <path d="M812.501,733.066C812.501,733.066 819.682,734.605 824.983,730.672" style="fill:none;stroke:black;stroke-width:4.17px;"/>
                <path d="M862.488,853.146C862.488,853.146 855.173,903.177 868.913,934.093C868.913,934.093 903.248,961.709 959.355,974.734C959.355,974.734 999.988,987.981 1016.018,1000.783" style="fill:none;stroke:black;stroke-width:4.17px;"/>
                <path d="M728.694,925.768C728.694,925.768 729.903,928.925 727.189,951.656C727.189,951.656 687.815,968.916 646.255,981.681C646.255,981.681 621.04,990.831 614.212,995.543" style="fill:none;stroke:black;stroke-width:4.17px;"/>
                <g transform="matrix(1,0,0,1,-80.102421,-2.226456)">
                    <path d="M735.463,2002.538C735.463,2002.538 736.422,2010.633 715.345,2025.179C715.345,2025.179 698.305,2038.434 637.39,2063.815C637.39,2063.815 621.466,2074.689 622.107,2089.437C622.107,2089.437 620.184,2098.842 645.191,2100.979C645.191,2100.979 656.658,2106.964 679.886,2103.33C679.886,2103.33 709.099,2099.056 724.489,2089.865C724.489,2089.865 749.127,2081.529 769.083,2083.239C769.083,2083.239 800.58,2084.094 815.542,2070.201C815.542,2070.201 821.954,2064.002 811.481,2037.498C811.481,2037.498 802.944,2012.878 801.234,2000.695" style="fill:none;stroke:black;stroke-width:4.17px;"/>
                </g>
                <g transform="matrix(1,0,0,1,-9.746418,1.335873)">
                    <path d="M773.13,1599.766C773.13,1599.766 745.324,1707.838 749.449,1744.575" style="fill:none;stroke:black;stroke-width:4.17px;"/>
                </g>
                <g transform="matrix(1,0,0,1,-9.746418,1.335873)">
                    <path d="M751.505,1734.288C751.505,1734.288 783.627,1810.433 758.273,1896.597C758.273,1896.597 734.387,1966.747 731.216,1992.898C731.024,1994.479 730.908,1995.899 730.878,1997.133" style="fill:none;stroke:black;stroke-width:4.17px;"/>
                </g>
                <path d="M886.138,2018.875C886.138,2018.875 887.855,2034.814 854.993,2067.143C854.993,2067.143 840.084,2082.452 814.649,2096.345C814.649,2096.345 785.367,2114.085 811.657,2126.482C811.657,2126.482 817.471,2126.247 824.139,2126.76C824.139,2126.76 852.247,2135.822 874.016,2128.812C874.016,2128.812 899.547,2125.05 921.263,2111.2C921.263,2111.2 945.543,2101.282 954.093,2099.059C954.093,2099.059 962.472,2096.323 959.394,2079.224C956.316,2062.125 951.186,2038.357 949.818,2031.175" style="fill:none;stroke:black;stroke-width:4.17px;"/>
                <path d="M999.312,1130.876C999.312,1130.876 977.27,1238.971 993.3,1379.683C993.3,1379.683 1014.318,1494.39 996.15,1578.817C996.15,1578.817 972.104,1722.022 976.379,1757.824C976.379,1757.824 992.944,1812.327 988.135,1871.106C983.326,1929.884 950.73,2016.449 949.662,2030.342" style="fill:none;stroke:black;stroke-width:4.17px;"/>
                <path d="M751.505,1558.319C751.505,1558.319 778.268,1669.74 833.494,1780.297C833.494,1780.297 863.962,1876.124 886.227,2018.875" style="fill:none;stroke:black;stroke-width:4.17px;"/>
                <path d="M751.505,1558.319C751.505,1558.319 706.151,1554.427 665.54,1542.672" style="fill:none;stroke:black;stroke-width:4.17px;"/>
                <path d="M588.06,1078.188C588.06,1078.188 523.938,1112.387 523.938,1171.699C523.938,1171.699 524.472,1238.616 596.609,1245.501C596.609,1245.501 663.225,1229.008 693.505,1234.797" style="fill:none;stroke:black;stroke-width:4.17px;"/>
                <path d="M671.431,1223.442C671.431,1223.442 751.583,1269.244 812.652,1261.61C812.652,1261.61 862.652,1259.702 899.674,1224.587" style="fill:none;stroke:black;stroke-width:4.17px;"/>
                <path d="M891.98,1231.285C891.98,1231.285 914.743,1237.946 987.842,1223.442" style="fill:none;stroke:black;stroke-width:4.17px;"/>
                <path d="M993.32,1155.09C993.32,1155.09 906.11,1175.395 874.016,1078.188C874.016,1078.188 874.924,1045.994 939.911,969.849" style="fill:none;stroke:black;stroke-width:4.17px;"/>
                <path d="M914.059,959.607C914.059,959.607 846.82,1040.027 831.68,1078.188C831.68,1078.188 751.082,1116.795 676.718,1111.006C676.718,1111.006 625.955,1105.485 632.635,1078.188C632.635,1078.188 644.388,1046.105 693.505,967.444" style="fill:none;stroke:black;stroke-width:4.17px;"/>
                <path d="M662.342,977.607C662.342,977.607 623.792,1046.709 589.06,1078.188" style="fill:none;stroke:black;stroke-width:4.17px;"/>
                <path d="M589.06,1078.188C589.06,1078.188 595.119,1065.13 594.451,1054.443" style="fill:none;stroke:black;stroke-width:4.17px;"/>
                <path d="M621.87,1775.427C621.87,1775.427 628.487,1843.156 639.676,1897.927C639.676,1897.927 658.435,1974.217 655.764,1998.468" style="fill:none;stroke:black;stroke-width:4.17px;"/>
                <path d="M563.926,1240.157C563.926,1240.157 459.194,1385.417 540.415,1521.008" style="fill:none;stroke:black;stroke-width:4.17px;"/>
                <path d="M509.704,1399.702C509.704,1399.702 654.181,1496.734 993.009,1380.583" style="fill:none;stroke:black;stroke-width:4.17px;"/>
                <g transform="matrix(1,0,0,1,-9.746418,1.335873)">
                    <path d="M539.931,1503.731C539.931,1503.731 546.387,1626.186 614.072,1720.031C614.072,1720.031 622.176,1757.547 636.425,1780.257" style="fill:none;stroke:black;stroke-width:4.17px;"/>
                </g>
            </g>
            <g id="r-hand" serif:id="r hand" transform="matrix(1,0,0,1,-38.096833,-10.603582)">
                <path d="M1004.911,1004.703C1004.911,1004.703 918.064,1013.41 984.828,1117.499C984.828,1117.499 978.103,1130.576 979.705,1139.037C984.716,1165.49 999.722,1198.521 1001.92,1208.292C1004.926,1221.651 1025.342,1273.252 1029.951,1282.27C1029.951,1282.27 1029.011,1314.379 1027.408,1337.385C1027.408,1337.385 1040.594,1429.557 1037.254,1443.25C1037.254,1443.25 1023.428,1473.514 1022.145,1479.071C1022.145,1479.071 1020.008,1504.292 1018.298,1511.132C1016.588,1517.972 1018.298,1514.124 1018.298,1514.124L1018.298,1511.132C1018.298,1511.132 1013.596,1527.804 1013.809,1531.651C1013.809,1531.651 1013.809,1540.842 1026.634,1531.01C1026.634,1531.01 1033.687,1522.46 1034.542,1519.254C1034.542,1519.254 1035.825,1507.712 1038.817,1507.499L1042.237,1510.063L1045.443,1525.239L1044.802,1545.544L1040.099,1561.788C1040.099,1561.788 1034.115,1583.861 1039.672,1584.687L1047.153,1580.598L1052.069,1584.687L1058.163,1584.687L1065.107,1576.75L1071.02,1576.536L1077.29,1571.62L1084.985,1564.781L1092.679,1552.384L1105.237,1506.834L1101.811,1446.025L1119.29,1409.926L1142.139,1345.53L1153.634,1287.315L1148.198,1226.944L1139.884,1175.295L1130.155,1133.828L1116.608,1089.969C1116.608,1089.969 1110.082,1064.863 1106.726,1059.432C1101.889,1051.601 1095.056,1043.46 1087.505,1035.774C1079.697,1027.825 1066.804,1018.173 1066.804,1018.173C1066.804,1018.173 1053.854,1008.466 1037.823,1001.413L1020.115,1001.413L1004.911,1004.703Z" style="fill:rgb(241,188,12);"/>
                <path d="M1036.499,1443.304C1036.499,1443.304 1027.53,1465.696 1021.852,1479.202C1021.852,1479.202 1020.553,1499.665 1018.772,1507.086C1018.772,1507.086 1018.475,1517.773 1014.319,1526.976C1014.319,1526.976 1009.57,1540.928 1025.006,1531.726C1025.006,1531.726 1034.506,1523.117 1035.1,1515.102C1035.1,1515.102 1037.771,1505.899 1040.146,1506.493C1040.146,1506.493 1049.052,1518.07 1045.193,1545.975C1045.193,1545.975 1038.157,1565.88 1037.89,1573.628C1037.89,1573.628 1034.951,1597.406 1051.783,1575.231C1051.783,1575.231 1065.142,1553.857 1066.478,1548.513C1066.478,1548.513 1067.012,1523.132 1071.02,1512.979M979.705,1139.037C979.705,1139.037 1011.257,1238.72 1030.532,1283.376" style="fill:none;stroke:black;stroke-width:4.17px;"/>
                <g transform="matrix(1,0,0,1,98.058834,26.272177)">
                    <path d="M937.63,1381.412C937.63,1381.412 940.523,1409.14 938.44,1417.031" style="fill:none;stroke:black;stroke-width:4.17px;"/>
                </g>
                <path d="M1090.524,1516.185C1090.524,1516.185 1084.379,1542.101 1083.844,1549.849C1083.844,1549.849 1065.409,1582.656 1052.852,1584.687C1052.852,1584.687 1048.043,1584.047 1048.577,1580.574" style="fill:none;stroke:black;stroke-width:4.17px;"/>
                <path d="M1102.279,1516.185C1102.279,1516.185 1096.134,1539.974 1092.928,1552.125C1092.928,1552.125 1076.898,1578.17 1064.073,1577.902" style="fill:none;stroke:black;stroke-width:4.17px;"/>
                <g transform="matrix(1,0,0,1,86.455452,21.824919)">
                    <path d="M949.233,979.588C949.233,979.588 1010.372,1001.069 1027.166,1057.45C1043.959,1113.832 1051.593,1128.304 1059.608,1189.022C1059.608,1189.022 1066.733,1248.405 1067.178,1266.217C1067.178,1266.217 1055.665,1352.715 1015.824,1421.479C1015.824,1421.479 1019.643,1481.803 1018.496,1487.532L1015.824,1494.36" style="fill:none;stroke:black;stroke-width:4.17px;"/>
                </g>
                <g transform="matrix(1,0,0,1,98.058834,26.272177)">
                    <path d="M932.075,1257.104C932.075,1257.104 928.047,1292.099 929.785,1316.145C929.785,1316.145 935.34,1361.564 937.63,1381.412" style="fill:none;stroke:black;stroke-width:4.17px;"/>
                </g>
            </g>
        </g>
    </g>
</svg>
