<?xml version="1.0" encoding="UTF-8" standalone="no"?>
<svg width="100%" height="100%" viewBox="0 0 436 1540" version="1.1" xmlns="http://www.w3.org/2000/svg" xmlns:xlink="http://www.w3.org/1999/xlink" xml:space="preserve" xmlns:serif="http://www.serif.com/" style="fill-rule:evenodd;clip-rule:evenodd;stroke-linecap:round;stroke-linejoin:round;stroke-miterlimit:1.5;">
    <g transform="matrix(1,0,0,1,-587.908162,-594.302796)">
        <g>
            <g id="l-hand" serif:id="l hand" transform="matrix(1,0,0,1,82.066905,-13.015016)">
                <path d="M617.451,994.878C617.451,994.878 693.641,993.834 642.544,1122.361C642.544,1122.361 626.816,1258.621 625.801,1267.438C625.801,1267.438 621.846,1324.213 613.564,1343.182C613.564,1343.182 567.359,1441.903 564.779,1446.178C564.779,1446.178 571.935,1471.984 559.795,1498.4C559.795,1498.4 555.862,1505.322 557.914,1513.359C557.914,1513.359 560.308,1521.738 564.241,1524.816C564.241,1524.816 569.542,1531.806 564.412,1535.759C564.412,1535.759 565.78,1548.262 553.981,1545.868C553.981,1545.868 553.981,1548.604 550.219,1550.485L547.484,1552.125L542.354,1550.656L535.343,1547.749C535.343,1547.749 520.689,1536.976 507.925,1508.079C507.925,1508.079 508.497,1482.943 510.72,1476.445C512.943,1469.948 516.192,1447.548 519.441,1440.708C522.69,1433.868 524.4,1424.635 525.939,1416.598C527.478,1408.562 535.856,1342.046 536.369,1337.6C536.882,1333.154 541.584,1275.167 542.439,1270.721C543.294,1266.275 553.319,1221.839 554.003,1217.564C554.427,1214.911 556.744,1185.256 554.008,1158.011C552.409,1142.086 557.086,1125.025 557.086,1125.025C557.086,1125.025 553.475,1098.995 553.287,1079.67C553.142,1064.784 562.05,1037.99 575.302,1020.464C575.302,1020.464 598.012,998.288 609.126,996.792L617.451,994.878Z" style="fill:rgb(241,188,12);"/>
                <g transform="matrix(1,0,0,1,-81.888788,10.663879)">
                    <path d="M699.34,1266.017C699.34,1266.017 706.202,1255.664 707.204,1246.646" style="fill:none;stroke:black;stroke-width:2.08px;"/>
                </g>
                <path d="M617.451,994.878C617.451,994.878 533.062,1011.35 558.243,1124.935C558.243,1124.935 552.878,1140.231 554.023,1158.233C554.023,1158.233 557.558,1180.559 555.738,1205.016C553.772,1231.432 543.713,1266.06 542.127,1272.005C542.127,1272.005 534.494,1349.104 532.203,1373.532C532.203,1373.532 526.478,1418.951 522.662,1430.402C522.662,1430.402 504.246,1485.387 508.587,1509.433C508.587,1509.433 526.25,1551.828 547.327,1552.125C547.327,1552.125 559.475,1548.545 544.086,1532.728C544.086,1532.728 535.109,1523.751 535.322,1521.186" style="fill:none;stroke:black;stroke-width:4.17px;"/>
                <path d="M551.81,1545.078C551.81,1545.078 556.91,1546.835 559.261,1546.194C561.612,1545.553 567.383,1542.988 560.971,1534.011C560.971,1534.011 547.506,1520.331 546.864,1514.774" style="fill:none;stroke:black;stroke-width:4.17px;"/>
                <path d="M563.9,1536.148C563.9,1536.148 570.677,1532.515 563.9,1523.965C563.9,1523.965 551.139,1515.202 560.544,1495.751C560.544,1495.751 572.6,1472.454 563.9,1446.591C563.9,1446.591 607.766,1361.209 614.78,1335.605C614.78,1335.605 626.518,1292.221 625.848,1260.16C625.848,1260.16 639.539,1139.393 642.544,1122.361" style="fill:none;stroke:black;stroke-width:4.17px;"/>
                <g transform="matrix(1,0,0,1,-81.888788,10.663879)">
                    <path d="M652.099,1233.956C652.099,1233.956 667.462,1251.99 671.136,1272.362" style="fill:none;stroke:black;stroke-width:2.08px;"/>
                </g>
                <path d="M546.864,1438.033C546.864,1438.033 560.207,1449.922 551.123,1481.449C551.123,1481.449 549.092,1493.872 550.161,1503.49C550.161,1503.49 542.253,1524.223 531.352,1519.735C531.352,1519.735 525.367,1519.307 528.573,1507.551C528.573,1507.551 530.069,1500.284 528.787,1494.941C528.787,1494.941 530.069,1476.987 527.077,1472.284" style="fill:none;stroke:black;stroke-width:4.17px;"/>
            </g>
            <g id="body">
                <g>
                    <path d="M688.425,989.251C688.425,989.251 649.582,1011.219 677.903,1046.753L676.34,1056.949L654.859,1085.409L641.274,1110.979L638.184,1135.6L642.908,1155.967L653.488,1172.84L670.988,1185.812L685.469,1195.199L687.008,1202.137L687.991,1210.842L688.12,1218.541L695.829,1263.533C695.829,1263.533 693.356,1277.427 689.616,1289.61C686.276,1300.487 679.157,1317.61 676.378,1327.228L668.99,1353.565C668.99,1353.565 656.878,1393.354 653.209,1414.728C651.716,1423.424 647.669,1456.966 652.746,1496.483C655.132,1515.062 654.006,1537.653 659.138,1565.11C664.949,1596.194 676.179,1627.833 688.926,1645.921C688.926,1645.921 699.323,1669.532 700.926,1676.479C700.926,1676.479 704.934,1729.112 715.621,1744.341C715.621,1744.341 717.224,1790.295 717.758,1799.379C718.293,1808.463 719.322,1848.539 724.017,1866.974C728.712,1885.41 733.521,1943.654 734.056,1951.669C734.59,1959.684 736.728,1999.493 735.125,2004.302C733.521,2009.111 726.147,2017.527 719.949,2022.016C713.751,2026.505 685.964,2044.245 671.216,2049.375C656.468,2054.504 638.942,2062.413 635.522,2065.191C632.102,2067.97 626.117,2073.955 623.98,2080.581C621.842,2087.207 621.629,2092.764 625.049,2094.901C628.468,2097.039 641.934,2102.168 644.713,2101.1C647.491,2100.031 651.98,2105.551 665.232,2104.501C678.484,2103.451 692.59,2102.382 704.132,2098.321C715.674,2094.26 724.438,2088.489 728.712,2087.848C732.987,2087.207 759.918,2080.794 769.537,2082.932C779.155,2085.069 803.949,2079.726 808.651,2075.878C813.353,2072.031 816.773,2071.39 816.987,2065.191C817.201,2058.993 816.346,2044.245 813.14,2038.901C809.933,2033.558 800.101,2001.497 799.888,1996.153C799.674,1990.81 806.941,1933.955 807.369,1929.467C807.796,1924.978 816.987,1872.184 818.697,1866.627C820.407,1861.07 824.837,1810.36 817.412,1768.04C816.354,1762.012 807.044,1734.078 806.086,1725.773C804.804,1714.658 806.115,1663.681 806.329,1657.269C806.543,1650.857 807.289,1633.585 808.144,1630.379C808.616,1628.608 811.4,1637.77 812,1642.735C812.589,1647.618 814.273,1651.042 816.092,1657.55C820.153,1672.084 834.727,1716.796 835.582,1722.994C836.437,1729.193 840.24,1738.49 848.184,1751.374C850.6,1755.293 856.79,1809.835 858.66,1824.262C860.53,1838.69 868.546,1889.987 871.485,1903.613C874.423,1917.239 883.507,1971.743 883.775,1979.491C884.042,1987.239 886.714,2016.628 885.912,2021.704C885.11,2026.781 872.019,2049.945 866.034,2056.143C860.049,2062.342 839.53,2081.151 832.477,2085.212C825.424,2089.273 808.538,2101.134 805.546,2104.501C802.553,2107.868 794.859,2118.769 811.958,2125.822L823.714,2125.822C823.714,2125.822 851.714,2136.082 870.095,2129.67C870.095,2129.67 900.233,2123.685 909.637,2117.7C909.637,2117.7 929.729,2105.836 936.782,2104.501C936.782,2104.501 954.95,2099.532 956.446,2097.181C957.942,2094.83 960.935,2090.128 960.293,2083.929C959.652,2077.731 952.599,2046.525 952.171,2043.105C951.744,2039.685 948.11,2023.227 948.538,2014.678C948.965,2006.128 947.255,1987.105 952.599,1953.334C957.942,1919.563 961.576,1898.189 962.431,1890.281C963.286,1882.373 966.347,1821.884 965.137,1813.762C963.927,1805.64 953.454,1757.976 951.103,1751.564C948.751,1745.152 938.064,1709.243 938.492,1702.831C938.919,1696.419 937.423,1660.938 942.981,1625.671C948.538,1590.404 950.461,1565.824 950.248,1560.481C950.034,1555.137 952.171,1499.351 952.385,1495.717C952.599,1492.084 953.418,1473.252 954.672,1467.992C962.097,1436.85 960.952,1402.814 960.323,1394.957C955.732,1337.608 933.805,1319.148 928.675,1307.392C926.978,1303.503 929.925,1293.241 903.197,1249.529C894.183,1234.789 906.15,1226.673 909.383,1203.802C909.383,1203.802 914.577,1166.956 919.122,1145.567C922.18,1131.175 923.489,1112.292 924.664,1107.697C927.015,1098.506 925.08,1102.894 926.416,1096.749L927.603,1092.974C927.603,1092.974 993.049,1014.295 939.08,989.982C885.11,965.67 902.263,976.223 889.198,968.315C876.133,960.406 854.7,948.223 843.508,937.109C843.508,937.109 837.497,913.597 838.968,903.765C840.439,893.933 840.011,871.594 845.996,848.565C845.996,848.565 853.05,854.968 860.231,853.258C860.231,853.258 884.683,852.575 892.72,840.092C900.756,827.61 902.979,823.506 903.834,810.169C904.689,796.831 893.233,783.299 886.393,781.858C886.393,781.858 886.703,778.877 889.198,773.405C891.694,767.934 898.37,733.735 898.708,726.725C899.046,719.714 896.62,682.096 889.198,671.152C881.776,660.209 884.79,650.589 854.93,626.865C854.93,626.865 823.842,602.207 793.277,598.573C793.277,598.573 753.933,593.016 721.88,606.268C721.88,606.268 680.85,623.794 671.018,647.519C671.018,647.519 653.033,672.1 650.27,699.672C650.27,699.672 650.468,713.351 650.27,720.405L648.362,725.962L642.591,736.863C642.591,736.863 633.614,756.17 648.148,780.821C648.148,780.821 642.804,797.565 655.415,820.862C655.415,820.862 659.476,846.21 659.904,853.841C659.904,853.841 659.476,863.703 682.56,868.252C682.56,868.252 688.117,884.771 694.957,887.549C694.957,887.549 704.789,925.286 733.858,922.127L752.453,916.404L753.735,921.748C753.735,921.748 757.583,940.984 751.812,957.228C751.812,957.228 728.789,969.215 721.491,972.84C714.193,976.465 702.513,982.449 697.376,984.159C692.238,985.868 688.425,989.251 688.425,989.251Z" style="fill:rgb(241,188,12);"/>
                    <path d="M717.768,975.618C717.768,975.618 708.523,988.972 700.775,1013.285C700.775,1013.285 693.743,1028.594 686.775,1043.171C686.775,1043.171 678.335,1054.278 669.366,1064.687C661.024,1074.371 644.925,1087.42 640.189,1118.464C633.223,1164.119 650.779,1166.788 667.753,1184.354C691.337,1208.762 746.421,1185.557 753.475,1179.572C753.475,1179.572 816.615,1225.563 864.364,1183.499L878.457,1170.554C878.457,1170.554 907.951,1164.192 915.165,1160.238C915.165,1160.238 922.83,1125.24 923.898,1123.102C923.898,1123.102 926.677,1110.304 923.898,1110.518C905.085,1111.965 886.836,1107.713 880.424,1103.866C880.424,1103.866 851.034,1077.611 844.622,1062.863C844.622,1062.863 842.378,1046.797 849.645,1023.072C849.645,1023.072 865.676,979.042 886.408,968.782C886.408,968.782 876.157,962.156 874.016,961.301C874.016,961.301 860.352,967.072 838.968,1004.69C838.968,1004.69 822.5,1051.286 810.958,1062.4C810.958,1062.4 776.546,1094.903 736.577,1094.896C736.577,1094.896 716.547,1096.599 704.333,1070.095C704.333,1070.095 708.577,1033.759 712.852,1024.996C717.126,1016.232 722.684,986.95 732.302,968.996L717.768,975.618Z" style="fill:white;"/>
                    <path d="M678.382,1324.534C678.382,1324.534 661.883,1381.603 655.217,1410.725C655.217,1410.725 649.29,1439.793 650.786,1456.038C652.282,1472.282 652.078,1503.915 652.933,1507.763C652.933,1507.763 671.778,1526.364 743.986,1519.518C816.195,1512.673 777.379,1515.345 790.071,1523.253L806.399,1523.777C806.399,1523.777 829.138,1528.896 848.107,1526.224C848.107,1526.224 912.593,1527.614 951.76,1505.866C951.76,1505.866 952.663,1481.789 954.587,1468.067C954.587,1468.067 966.834,1401.042 957.055,1371.946C957.055,1371.946 948.334,1331.066 927.762,1306.219L905.165,1316.715C905.165,1316.715 869.578,1330.535 838.211,1338.283C838.211,1338.283 791.121,1351.211 748.373,1347.39C748.373,1347.39 710.845,1339.843 700.426,1335.568C700.426,1335.568 680.596,1327.179 678.382,1324.534Z" style="fill:white;"/>
                    <path d="M755.042,712.945C755.042,712.945 717.37,736.189 740.614,774.662C740.614,774.662 760.064,802.528 788.064,789.918C788.064,789.918 811.576,784.36 815.637,757.215C815.637,757.215 821.408,733.063 796.4,715.109C796.4,715.109 780.156,701.376 755.042,712.945Z" style="fill:white;"/>
                    <path d="M711.332,737.979C711.332,737.979 703.851,714.681 682.263,711.903C682.263,711.903 660.675,707.414 646.355,728.788C646.355,728.788 632.248,756.788 646.996,777.521C646.996,777.521 661.317,796.041 685.897,793.193C685.897,793.193 700.859,778.589 705.133,768.116C705.133,768.116 713.206,744.177 712.589,740.971L711.332,737.979Z" style="fill:white;"/>
                    <path d="M749.12,688.583C749.12,688.583 748.354,693.398 758.203,689.13C758.203,689.13 775.493,684.315 784.358,687.051C784.358,687.051 808.324,690.334 821.018,699.417L821.566,697.447L818.83,693.945L806.792,684.425L795.411,679.172L783.811,676.326L774.626,676.764L767.833,678.077L762.361,680.157L754.482,684.753L749.12,688.583Z"/>
                    <path d="M696.746,693.232L695.635,694.108L689.835,692.228L681.956,690.168L674.619,690.606L668.277,692.228L662.148,694.874L658.537,697.063L651.533,702.311L652.491,697.063L654.707,693.123L661.71,686.995L669.816,682.144L678.454,682.144L686.114,684.149L691.203,687.872L695.745,691.044L696.746,693.232Z"/>
                </g>
                <path d="M651.55,719.379C651.55,719.379 645.539,702.347 659.565,668.616C659.565,668.616 678.861,603.27 764.209,597.017C764.209,597.017 816.642,587.777 869.483,640.025C869.483,640.025 902.896,668.783 898.268,730.018C898.268,730.018 893.259,765.978 885.837,780.821" style="fill:none;stroke:black;stroke-width:4.17px;"/>
                <path d="M856.138,797.772C856.138,797.772 887.278,760.418 902.648,800.166C902.648,800.166 914.931,847.112 862.03,853.791C862.03,853.791 854.036,854.94 843.777,846.22" style="fill:none;stroke:black;stroke-width:4.17px;"/>
                <path d="M893.365,812.705C893.365,812.705 889.945,785.175 858.311,821.597" style="fill:none;stroke:black;stroke-width:2.08px;"/>
                <path d="M863.612,817.849C863.612,817.849 878.317,820.913 866.177,837.157" style="fill:none;stroke:black;stroke-width:2.08px;"/>
                <path d="M652.491,702.311C652.491,702.311 669.9,681.279 695.72,694.788L696.746,693.078C696.746,693.078 688.881,680.595 670.071,682.305C670.071,682.305 656.456,688.461 652.491,696.84" style="fill:none;stroke:black;stroke-width:2.08px;"/>
                <path d="M748.899,688.604C748.899,688.604 749.07,692.223 753.686,690.855C753.686,690.855 779.976,677.026 821.399,699.575C821.399,699.575 824.99,697.883 808.028,685.434C808.028,685.434 790.655,671.892 767.674,677.911C767.674,677.911 755.431,682.061 748.899,688.604Z" style="fill:none;stroke:black;stroke-width:2.08px;"/>
                <path d="M712.158,725.913C712.158,725.913 719.876,776.676 670.004,805.472C670.004,805.472 668.888,808.874 672.094,812.507C675.3,816.141 682.781,824.69 695.178,828.538" style="fill:none;stroke:black;stroke-width:4.17px;"/>
                <path d="M829.86,858.774C829.86,858.774 826.921,871.331 801.806,888.163" style="fill:none;stroke:black;stroke-width:4.17px;"/>
                <path d="M647.409,780.821C647.409,780.821 643.253,794.706 655.424,821.597C655.424,821.597 659.313,839.26 659.313,853.841C659.313,853.841 658.512,873.172 720.229,867.057C720.229,867.057 759.504,865.444 772.328,853.841" style="fill:none;stroke:black;stroke-width:4.17px;"/>
                <path d="M683.359,868.252C683.359,868.252 683.893,879.851 695.382,888.163C695.382,888.163 708.473,924.262 725.305,921.323C725.305,921.323 742.405,924.529 777.939,903.956" style="fill:none;stroke:black;stroke-width:4.17px;"/>
                <path d="M702.275,885.174C702.275,885.174 712.428,887.739 730.649,884.105" style="fill:none;stroke:black;stroke-width:2.08px;"/>
                <path d="M712.589,739.419C712.589,739.419 692.944,690.259 652.628,720.45C652.628,720.45 626.595,749.841 648.976,779.363C648.976,779.363 661.472,796.182 684.449,792.915" style="fill:none;stroke:black;stroke-width:4.17px;"/>
                <ellipse cx="774.648" cy="750.711" rx="41.572" ry="42.204" style="fill:none;stroke:black;stroke-width:4.17px;"/>
                <ellipse cx="770.913" cy="755.102" rx="7.273" ry="7.908" style="stroke:black;stroke-width:4.17px;"/>
                <g transform="matrix(1,0,0,1,-95.541664,1.709918)">
                    <ellipse cx="770.913" cy="755.102" rx="7.273" ry="7.908" style="stroke:black;stroke-width:4.17px;"/>
                </g>
                <path d="M633.985,730.672C633.985,730.672 636.892,735.289 641.68,735.46" style="fill:none;stroke:black;stroke-width:4.17px;"/>
                <path d="M637.833,725.913C637.833,725.913 642.022,729.304 645.784,728.107" style="fill:none;stroke:black;stroke-width:4.17px;"/>
                <path d="M809.765,727.138C809.765,727.138 813.869,728.164 818.828,725.913" style="fill:none;stroke:black;stroke-width:4.17px;"/>
                <path d="M812.501,733.066C812.501,733.066 819.682,734.605 824.983,730.672" style="fill:none;stroke:black;stroke-width:4.17px;"/>
                <path d="M845.695,848.565C845.695,848.565 831.127,906.612 844.868,937.528C844.868,937.528 868.961,965.271 918.388,980.968C918.388,980.968 932.749,986.645 939.428,990.987" style="fill:none;stroke:black;stroke-width:4.17px;"/>
                <path d="M752.74,915.844C752.74,915.844 758.529,934.268 751.998,956.236C751.998,956.236 740.42,969.298 698.86,982.063C698.86,982.063 694.704,982.434 687.876,987.146" style="fill:none;stroke:black;stroke-width:4.17px;"/>
                <g transform="matrix(1.043458,0,0,1.009605,-32.298617,-9.370518)">
                    <path d="M717.48,975.618C717.48,975.618 706.85,1000.462 694.258,1033.705C694.258,1033.705 685.26,1049.968 674.424,1060.77C662.615,1072.543 600.588,1151.661 690.336,1192.721C690.336,1192.721 721.788,1196.892 753.047,1177.923" style="fill:none;stroke:black;stroke-width:4.06px;"/>
                </g>
                <g transform="matrix(1.086774,0,0,1.098503,-63.8194,-113.247776)">
                    <path d="M752.037,1177.056C752.037,1177.056 832.383,1234.872 878.216,1148.841" style="fill:none;stroke:black;stroke-width:3.81px;"/>
                </g>
                <path d="M880.595,1169.835C880.595,1169.835 902.074,1166.067 914.431,1159.793" style="fill:none;stroke:black;stroke-width:4.17px;"/>
                <path d="M732.052,970.457C732.052,970.457 710.678,1017.907 704.333,1069.98C704.333,1069.98 723.777,1130.42 811.054,1063.032C811.054,1063.032 825.915,1041.065 838.968,1006.035C838.968,1006.035 859.497,965.662 874.016,961.506" style="fill:none;stroke:black;stroke-width:4.17px;"/>
                <path d="M886.754,969.224C886.754,969.224 863.599,978.23 848.162,1028.201C848.162,1028.201 842.84,1047.484 844.622,1063.515C844.622,1063.515 862.68,1087.924 877.035,1100.377C888.091,1109.969 905.17,1112.276 923.898,1109.305" style="fill:none;stroke:black;stroke-width:4.17px;"/>
                <path d="M675.433,1056.947C675.433,1056.947 678.105,1049.074 674.246,1039.871" style="fill:none;stroke:black;stroke-width:4.17px;"/>
                <path d="M739.945,1094.896C739.945,1094.896 742.081,1076.678 764.939,1062.726" style="fill:none;stroke:black;stroke-width:4.17px;"/>
                <path d="M680.39,1630.311C686.495,1642.311 691.947,1649.598 697.209,1663.523C697.209,1663.523 701.35,1668.569 703.259,1697.577C703.259,1697.577 707.076,1728.111 715.472,1744.905C715.472,1744.905 717.222,1821.622 719.973,1841.851C719.973,1841.851 735.988,1932.614 735.463,2002.538C735.463,2002.538 736.422,2010.633 715.345,2025.179C715.345,2025.179 698.305,2038.434 637.39,2063.815C637.39,2063.815 621.466,2074.689 622.107,2089.437C622.107,2089.437 620.184,2098.842 645.191,2100.979C645.191,2100.979 656.658,2106.964 679.886,2103.33C679.886,2103.33 709.099,2099.056 724.489,2089.865C724.489,2089.865 749.127,2081.529 769.083,2083.239C769.083,2083.239 800.58,2084.094 815.542,2070.201C815.542,2070.201 821.954,2064.002 811.481,2037.498C811.481,2037.498 801.649,2008.644 799.939,1996.46C799.939,1996.46 798.068,1983.178 809.557,1912.274C809.557,1912.274 822.649,1861.14 821.58,1824.805C821.58,1824.805 825.168,1787.699 806.694,1726.103C806.694,1726.103 804.633,1675.667 806.542,1629.011M685.752,1195.199C685.752,1195.199 686.478,1209.716 695.829,1264.153C695.829,1264.153 693.619,1273.437 688.35,1292.844C688.35,1292.844 675.087,1323.956 655.635,1405.856" style="fill:none;stroke:black;stroke-width:4.17px;"/>
                <path d="M745.515,1200.633C745.515,1200.633 745.07,1241.32 756.814,1261.692C756.814,1261.692 770.715,1268.037 789.174,1263.362" style="fill:none;stroke:black;stroke-width:2.08px;"/>
                <path d="M718.464,1260.69C718.464,1260.69 747.742,1267.703 756.814,1261.692C756.814,1261.692 746.513,1286.406 745.513,1303.104" style="fill:none;stroke:black;stroke-width:2.08px;"/>
                <path d="M815.314,1341.844C815.314,1341.844 832.013,1319.802 841.698,1310.785" style="fill:none;stroke:black;stroke-width:2.08px;"/>
                <path d="M718.464,1341.844C718.464,1341.844 707.443,1322.474 705.773,1310.785" style="fill:none;stroke:black;stroke-width:2.08px;"/>
                <path d="M700.763,1221.426C700.763,1221.426 711.722,1204.784 726.114,1196.502" style="fill:none;stroke:black;stroke-width:2.08px;"/>
                <path d="M769.895,1196.502C769.895,1196.502 804.628,1204.583 823.33,1218.61" style="fill:none;stroke:black;stroke-width:2.08px;"/>
                <path d="M700.763,1623.636C700.763,1623.636 716.438,1646.613 746.361,1657.834" style="fill:none;stroke:black;stroke-width:2.08px;"/>
                <path d="M851.628,1647.681C851.628,1647.681 861.781,1670.124 890.101,1677.071" style="fill:none;stroke:black;stroke-width:2.08px;"/>
                <path d="M655.635,1405.856C655.635,1405.856 644.724,1446.286 655.635,1541.233C655.635,1541.233 662.882,1603.661 680.439,1630.379" style="fill:none;stroke:black;stroke-width:4.17px;"/>
                <path d="M954.234,1468.609C979.453,1363.981 927.762,1306.219 927.762,1306.219C929.88,1296.451 910.313,1261.478 910.313,1261.478C895.285,1241.774 901.568,1231.445 901.568,1231.445C901.568,1231.445 899.299,1240.546 909.011,1199.309C909.011,1199.309 921.273,1133.39 927.762,1092.974M724.106,1461.06C724.106,1461.06 759.784,1481.607 786.503,1483.134C786.503,1483.134 787.839,1526.417 793.426,1563.874C797.655,1592.221 807.695,1645.107 825.794,1685.875C825.794,1685.875 832.513,1705.136 838.429,1730.947C838.429,1730.947 841.195,1742.66 848.876,1752.345C848.876,1752.345 860.899,1842.182 865.241,1869.902C865.241,1869.902 885.221,1963.452 886.138,2018.875C886.138,2018.875 887.855,2034.814 854.993,2067.143C854.993,2067.143 840.084,2082.452 814.649,2096.345C814.649,2096.345 785.367,2114.085 811.657,2126.482C811.657,2126.482 817.471,2126.247 824.139,2126.76C824.139,2126.76 852.247,2135.822 874.016,2128.812C874.016,2128.812 899.547,2125.05 921.263,2111.2C921.263,2111.2 945.543,2101.282 954.093,2099.059C954.093,2099.059 962.472,2096.323 959.394,2079.224C956.316,2062.125 951.186,2038.357 949.818,2031.175C948.45,2023.994 946.74,1999.713 948.45,1989.624C948.45,1989.624 947.454,1978.211 957.844,1922.995C957.844,1922.995 967.938,1854.42 964.375,1822.656C964.375,1822.656 964.969,1806.711 952.501,1755.651C952.501,1755.651 944.783,1734.277 937.955,1702.81C937.955,1702.81 933.576,1684.797 945.026,1601.517C945.026,1601.517 951.324,1545.193 951.658,1501.968C951.658,1501.968 952.135,1487.884 954.234,1468.609" style="fill:none;stroke:black;stroke-width:4.17px;"/>
                <path d="M678.382,1325.755C678.382,1325.755 756.976,1385.602 927.762,1306.219" style="fill:none;stroke:black;stroke-width:4.17px;"/>
                <path d="M788.369,1523.921C788.369,1523.921 882.733,1537.577 950.195,1507.52" style="fill:none;stroke:black;stroke-width:4.17px;"/>
                <path d="M653.557,1507.52C653.557,1507.52 674.82,1533.599 788.369,1515.141" style="fill:none;stroke:black;stroke-width:4.17px;"/>
            </g>
            <g id="r-hand" serif:id="r hand" transform="matrix(1,0,0,1,-86.455452,-21.824919)">
                <path d="M1009.72,1006.039C1009.72,1006.039 918.064,1013.41 984.828,1117.499C984.828,1117.499 985.556,1123.312 987.158,1131.773C992.169,1158.226 1001.503,1198.224 1003.701,1207.995C1006.707,1221.354 1021.869,1261.23 1026.478,1270.247C1026.478,1270.247 1024.081,1305.562 1025.684,1332.309C1025.684,1332.309 1040.594,1429.557 1037.254,1443.25C1037.254,1443.25 1023.428,1473.514 1022.145,1479.071C1022.145,1479.071 1020.008,1504.292 1018.298,1511.132C1016.588,1517.972 1018.298,1514.124 1018.298,1514.124L1018.298,1511.132C1018.298,1511.132 1013.596,1527.804 1013.809,1531.651C1013.809,1531.651 1013.809,1540.842 1026.634,1531.01C1026.634,1531.01 1033.687,1522.46 1034.542,1519.254C1034.542,1519.254 1035.825,1507.712 1038.817,1507.499L1042.237,1510.063L1045.443,1525.239L1044.802,1545.544L1040.099,1561.788C1040.099,1561.788 1034.115,1583.861 1039.672,1584.687L1047.153,1580.598L1052.069,1584.687L1058.163,1584.687L1065.107,1576.75L1071.02,1576.536L1077.29,1571.62L1084.985,1564.781L1092.679,1552.384L1102.298,1516.185L1094.389,1451.071L1100.588,1395.499L1106.605,1325.392L1107.547,1294.528L1099.305,1240.837L1099.006,1205.753L1098.361,1165.088L1088.02,1123.365C1088.02,1123.365 1087.448,1111.766 1087.223,1105.386C1086.927,1097.02 1086.492,1085.33 1084.299,1074.781C1082.369,1065.497 1077.224,1052.105 1077.224,1052.105C1077.224,1052.105 1056.258,1023.72 1040.228,1016.667L1020.649,1007.989L1009.72,1006.039Z" style="fill:rgb(241,188,12);"/>
                <path d="M1036.499,1443.304C1036.499,1443.304 1027.53,1465.696 1021.852,1479.202C1021.852,1479.202 1020.553,1499.665 1018.772,1507.086C1018.772,1507.086 1018.475,1517.773 1014.319,1526.976C1014.319,1526.976 1009.57,1540.928 1025.006,1531.726C1025.006,1531.726 1034.506,1523.117 1035.1,1515.102C1035.1,1515.102 1037.771,1505.899 1040.146,1506.493C1040.146,1506.493 1049.052,1518.07 1045.193,1545.975C1045.193,1545.975 1038.157,1565.88 1037.89,1573.628C1037.89,1573.628 1034.951,1597.406 1051.783,1575.231C1051.783,1575.231 1065.142,1553.857 1066.478,1548.513C1066.478,1548.513 1067.012,1523.132 1071.02,1512.979M984.667,1120.716C984.667,1120.716 1004.26,1230.384 1026.97,1270.461" style="fill:none;stroke:black;stroke-width:4.17px;"/>
                <g transform="matrix(1,0,0,1,98.058834,26.272177)">
                    <path d="M937.63,1381.412C937.63,1381.412 940.523,1409.14 938.44,1417.031" style="fill:none;stroke:black;stroke-width:4.17px;"/>
                </g>
                <g transform="matrix(1,0,0,1,98.058834,26.272177)">
                    <path d="M943.816,1257.104C943.816,1257.104 953.501,1232.815 969.866,1221.248" style="fill:none;stroke:black;stroke-width:2.08px;"/>
                </g>
                <g transform="matrix(1,0,0,1,98.058834,26.272177)">
                    <path d="M874.016,1072.01C874.016,1072.01 884.195,1092.451 894.118,1099.406" style="fill:none;stroke:black;stroke-width:4.17px;"/>
                </g>
                <path d="M1090.524,1516.185C1090.524,1516.185 1084.379,1542.101 1083.844,1549.849C1083.844,1549.849 1065.409,1582.656 1052.852,1584.687C1052.852,1584.687 1048.043,1584.047 1048.577,1580.574" style="fill:none;stroke:black;stroke-width:4.17px;"/>
                <path d="M1102.279,1516.185C1102.279,1516.185 1096.134,1539.974 1092.928,1552.125C1092.928,1552.125 1076.898,1578.17 1064.073,1577.902" style="fill:none;stroke:black;stroke-width:4.17px;"/>
                <path d="M1086.182,1126.854C1086.182,1126.854 1092.878,1088.529 1078.518,1055.132C1078.518,1055.132 1055.808,1012.05 1009.72,1006.039M1102.279,1516.185C1102.279,1516.185 1093.997,1458.208 1094.531,1450.193" style="fill:none;stroke:black;stroke-width:4.17px;"/>
                <g transform="matrix(1,0,0,1,98.058834,26.272177)">
                    <path d="M1001.761,1179.481C1001.761,1179.481 999.099,1200.293 1001.761,1220.693C1001.761,1220.693 1010.53,1253.307 1009.385,1280.788C1009.385,1280.788 1009.961,1314.618 1002.803,1355.457C1002.803,1355.457 995.342,1406.888 996.448,1423.921" style="fill:none;stroke:black;stroke-width:4.17px;"/>
                </g>
                <g transform="matrix(1,0,0,1,98.058834,26.272177)">
                    <path d="M929.785,1243.626C929.785,1243.626 924.23,1284.084 929.785,1316.145C929.785,1316.145 935.34,1361.564 937.63,1381.412" style="fill:none;stroke:black;stroke-width:4.17px;"/>
                </g>
                <g transform="matrix(1,0,0,1,98.058834,26.272177)">
                    <path d="M988.908,1094.444C988.908,1094.444 1005.425,1133.326 1001.012,1179.481" style="fill:none;stroke:black;stroke-width:4.17px;"/>
                </g>
            </g>
        </g>
    </g>
</svg>
