<?xml version="1.0" encoding="UTF-8" standalone="no"?>
<!DOCTYPE svg PUBLIC "-//W3C//DTD SVG 1.1//EN" "http://www.w3.org/Graphics/SVG/1.1/DTD/svg11.dtd">
<svg viewBox="1128 559 700 1770" version="1.1" xmlns="http://www.w3.org/2000/svg" xmlns:xlink="http://www.w3.org/1999/xlink" xml:space="preserve" xmlns:serif="http://www.serif.com/" style="fill-rule:evenodd;clip-rule:evenodd;stroke-linecap:round;stroke-linejoin:round;stroke-miterlimit:1.5;">
    <g>
        <g id="r-hand" serif:id="r hand" transform="matrix(1.037752,-0.000375,0.000391,0.994909,1072.306623,75.513958)">
            <g transform="matrix(0.963621,0.000363,-0.000379,1.005117,-944.62635,-109.197643)">
                <path d="M1149.67,1082.871L1139.947,1082.871L1121.425,1094.353L1100.433,1114.964L1091.273,1130.994L1086.121,1158.475L1086.121,1199.696L1090.891,1215.345L1086.121,1228.704L1080.586,1244.734L1079.823,1257.712L1080.586,1280.231L1079.441,1297.406L1076.387,1316.49L1070.662,1335.574L1061.12,1366.871L1055.932,1389.772L1055.932,1432.52L1060.357,1452.367L1061.12,1470.688L1064.555,1502.749L1068.372,1527.659L1065.319,1553.13L1055.932,1621.832L1055.932,1636.742L1062.361,1654.442L1067.37,1670.139L1076.387,1685.167L1086.121,1696.856L1096.092,1704.537L1102.437,1707.662L1109.186,1704.537L1116.309,1699.528L1119.803,1702.2L1126.483,1707.662L1132.431,1707.662L1139.947,1702.533L1139.947,1695.427L1137.541,1689.814L1142.291,1689.814L1145.585,1685.037L1145.585,1674.053L1139.947,1661.882L1134.309,1645.926L1136.502,1634.705L1139.947,1612.262L1139.947,1594.361L1134.309,1574.694L1134.309,1556.155L1139.947,1527.659L1149.593,1499.247L1162.418,1460.507L1169.909,1442.873L1175.776,1408.675L1178.715,1369.667L1178.448,1349.362L1186.731,1333.331L1193.143,1312.759L1201.158,1277.225L1205.904,1248.904L1205.904,1240.157C1205.904,1240.157 1209.648,1227.497 1208.646,1200.445C1207.644,1173.394 1164.166,1081.852 1149.67,1082.871Z" style="fill:rgb(241,188,12);"/>
            </g>
            <path d="M84.706,1426.667C84.706,1426.667 74.949,1500.329 72.277,1522.771C72.277,1522.771 75.35,1564.673 91.046,1583.821C91.046,1583.821 112.897,1614.546 121.294,1606.149C121.294,1606.149 133.508,1603.859 129.691,1590.118C129.691,1590.118 129.309,1581.721 120.913,1571.416C120.913,1571.416 113.661,1569.889 111.371,1559.202C109.081,1548.515 103.355,1516.836 98.775,1511.874" style="fill:none;stroke:black;stroke-width:4.12px;"/>
            <g transform="matrix(0.963621,0.000363,-0.000379,1.005117,-944.62635,-109.197643)">
                <path d="M1145.585,1082.871C1145.585,1082.871 1061.674,1100.571 1091.063,1216.013C1091.063,1216.013 1078.372,1240.059 1079.708,1262.323C1079.708,1262.323 1081.489,1292.158 1075.7,1316.204C1069.912,1340.249 1055.312,1376.318 1055.932,1407.043C1055.932,1407.043 1064.123,1512.907 1067.24,1527.659" style="fill:none;stroke:black;stroke-width:4.17px;"/>
            </g>
            <path d="M129.719,1599.244C129.719,1599.244 138.915,1608.839 143.368,1607.602C147.821,1606.366 156.373,1604.409 149.545,1587.191C149.545,1587.191 136.51,1567.181 137.267,1562.134" style="fill:none;stroke:black;stroke-width:4.12px;"/>
            <g transform="matrix(0.963621,0.000363,-0.000379,1.005117,-944.62635,-109.197643)">
                <path d="M1205.904,1240.157C1205.904,1240.157 1199.491,1328.984 1172.774,1356.77L1178.385,1349.647C1178.385,1349.647 1181.323,1418.22 1162.621,1462.571C1162.621,1462.571 1130.026,1545.929 1134.301,1572.112" style="fill:none;stroke:black;stroke-width:4.17px;"/>
            </g>
            <g transform="matrix(0.963621,0.000363,-0.000379,1.005117,-944.62635,-109.197643)">
                <path d="M1109.186,1346.083C1109.186,1346.083 1124.148,1370.128 1155.675,1356.77" style="fill:none;stroke:black;stroke-width:2.12px;"/>
            </g>
            <path d="M151.383,1589.445C151.383,1589.445 162.367,1593.007 157.32,1572.227C157.32,1572.227 147.524,1552.041 149.305,1537.495C151.086,1522.948 154.125,1508.699 153.645,1498.309C153.645,1498.309 151.977,1479.31 147.821,1473.966" style="fill:none;stroke:black;stroke-width:4.12px;"/>
            <path d="M129.719,1453.186C129.719,1453.186 153.262,1464.976 137.267,1526.214C137.267,1526.214 140.354,1555.131 136.812,1562.773C136.812,1562.773 131.6,1576.426 120.913,1571.416" style="fill:none;stroke:black;stroke-width:4.12px;"/>
        </g>
        <g id="body">
            <g>
                <path d="M1374.041,998.035L1332.194,1013.175C1332.194,1013.175 1278.344,1032.485 1264.183,1040.501C1250.023,1048.516 1252.962,1043.44 1252.962,1043.44L1234.794,1049.852L1224.407,1060.755C1224.407,1060.755 1205.672,1065.081 1203.535,1077.638C1201.397,1090.195 1209.746,1117.447 1226.411,1141.493C1226.411,1141.493 1215.676,1171.995 1215.676,1185.948C1215.676,1185.948 1211.224,1228.399 1239.425,1251.851C1239.425,1251.851 1237.941,1279.821 1242.691,1292.702C1242.691,1292.702 1255.456,1349.815 1259.612,1354.861C1259.612,1354.861 1239.425,1434.42 1251.893,1449.857L1250.112,1466.481C1250.112,1466.481 1235.158,1562.237 1233.822,1572.924C1232.486,1583.611 1229.814,1643.725 1229.814,1643.725L1229.814,1687.809L1231.818,1729.221L1238.832,1780.652L1246.179,1805.366L1258.202,1863.477L1260.206,1893.2L1262.209,1925.929L1267.553,1988.047L1273.23,2025.785L1283.917,2096.253L1286.612,2119.964L1286.612,2123.879L1277.461,2131.014L1254.899,2146.737L1226.411,2162.471L1207.105,2177.314L1186.621,2191.267L1178.309,2198.48L1165.514,2209.39L1155.896,2225.42L1152.162,2236.642L1155.095,2247.329L1164.179,2257.481L1172.194,2260.687L1192.766,2265.945L1224.026,2265.945L1245.934,2262.558L1276.125,2256.145L1346.392,2237.443L1375.986,2233.168L1408.376,2226.222L1416.391,2221.947L1421.009,2216.604L1421.009,2205.115L1414.521,2181.604L1399.025,2140.993L1403.834,2089.696L1411.849,2042.406L1416.659,2011.146L1417.46,1978.818L1414.788,1944.353L1412.651,1928.857L1398.758,1878.895L1388.071,1850.04L1390.208,1824.926L1395.285,1780.575L1404.903,1723.934L1414.254,1674.773L1417.46,1661.147L1421.009,1677.445L1435.123,1728.075L1451.154,1778.838L1468.669,1831.976L1485.293,1886.005L1492.121,1937.955L1500.136,1996.14L1514.088,2047.497L1525.369,2083.12L1531.306,2119.634L1534.275,2146.055L1520.916,2164.163L1501.026,2180.787L1487.668,2193.256L1471.637,2209.286L1452.252,2227.914L1442.634,2238.601L1433.016,2251.158L1425,2265.945L1421.009,2277.341L1421.009,2287.494L1423.932,2289.364L1428.206,2297.112L1438.626,2304.059L1450.382,2307.799L1465.077,2309.135L1484.313,2309.402L1506.221,2308.066L1531.069,2303.257L1583.168,2283.486L1614.694,2270.395L1637.939,2261.044L1655.305,2253.028L1664.122,2247.151L1667.862,2238.334L1667.061,2222.303L1661.183,2187.838L1652.9,2145.891L1654.503,2086.579L1656.374,1999.213L1652.9,1960.739L1641.679,1916.388L1627.786,1880.587L1613.626,1847.457L1612.023,1838.106L1615.496,1794.022L1616.832,1721.351L1611.755,1665.778L1601.603,1588.565L1602.672,1570.664L1601.068,1543.145L1594.656,1495.855L1584.236,1449.634L1588.244,1427.993L1589.847,1393.527L1590.114,1351.047L1597.328,1344.367L1611.221,1329.94L1623.778,1309.367L1636.336,1281.848L1640.878,1269.291L1651.565,1215.589L1663.201,1185.71C1663.201,1185.71 1719.16,1107.828 1680.687,1056.174L1644.418,1041.892L1610.687,1019.608L1577.624,999.812L1526.616,971.979L1523.521,962.408L1523.187,944.039L1526.616,906.635L1529.866,867.561L1538.817,864.922L1554.658,858.777L1565,851.296L1572.481,842.212L1578.626,828.854L1581.03,810.419L1580.496,798.396L1572.748,788.243L1562.863,782.633L1565.534,764.465L1568.473,736.678L1569.542,695.801L1564.198,675.228L1550.038,642.9L1536.145,624.999L1506.221,601.221L1482.977,589.732L1449.848,581.717L1432.481,579.847L1408.436,581.45L1379.581,588.931L1359.543,596.679L1341.375,607.099L1324.276,622.061L1309.314,642.099L1301.198,661.87L1293.283,682.175L1290.612,711.03L1291.68,727.862L1286.585,737.213L1282.062,748.434L1279.39,757.785L1279.925,770.343L1286.585,783.968L1294.886,798.663L1291.994,806.945L1291.994,839.274L1301.198,865.991L1301.198,881.487L1303.681,892.976L1307.604,900.791L1315.369,900.791L1311.451,907.109L1310.169,914.376L1313.589,923.353L1319.573,931.048L1332.398,951.353L1341.588,966.101L1347.573,971.979L1353.344,977.643L1363.604,981.063L1374.504,983.042L1375.986,985.979L1375.986,995.384L1374.041,998.035Z" style="fill:rgb(241,188,12);"/>
                <path d="M1432.516,715.244L1421.009,717.619L1408.173,722.962L1398.971,732.759L1393.627,741.071L1390.065,753.836L1389.768,767.491L1393.924,780.85L1401.939,793.021L1412.923,799.75L1423.177,806.38L1437.563,807.271L1447.656,804.896L1463.39,795.693L1471.702,785.303C1471.702,785.303 1488.326,762.742 1470.811,734.243C1470.811,734.243 1456.859,715.244 1437.266,714.65C1417.673,714.056 1432.516,715.244 1432.516,715.244Z" style="fill:white;"/>
                <path d="M1360.082,741.664C1360.082,741.664 1343.256,704.067 1303.681,719.029C1303.681,719.029 1288.954,726.243 1284.145,738.265C1284.145,738.265 1272.194,765.784 1286.585,788.494C1286.585,788.494 1293.496,804.673 1318.611,807.271L1323.42,802.387L1332.236,793.036L1340.252,782.616L1353.076,763.647L1360.29,747.082L1360.082,741.664Z" style="fill:white;"/>
                <path d="M1396.198,692.481L1395.557,698.038L1398.122,699.107L1403.679,695.687L1412.656,691.198L1430.61,686.71L1443.221,686.496L1456.045,689.916L1466.518,694.618L1474.641,700.389L1478.833,700.175L1474.213,692.908L1468.656,687.351L1454.763,680.725L1442.58,676.236L1428.259,675.595L1417.145,678.16L1406.458,684.358L1398.763,689.702L1396.198,692.481Z"/>
                <path d="M1345.756,700.389L1342.435,703.174L1335.496,700.389L1322.458,699.144L1315.191,699.144L1305.572,700.389L1297.664,703.174L1290.611,707.204L1292.493,694.404L1300.443,687.992L1308.137,683.504L1317.464,683.717L1327.16,687.992L1335.923,691.839L1342.435,696.542L1345.756,700.389Z"/>
                <path d="M1252.16,1451.486L1274.202,1466.515L1292.493,1474.196L1319.889,1481.543L1345.756,1484.215C1345.756,1484.215 1437.846,1489.892 1504.974,1469.854C1504.974,1469.854 1579.783,1453.49 1582.454,1450.818L1585.46,1457.497L1594.477,1496.906L1602.159,1552.678L1603.161,1578.06L1601.491,1586.743L1605.832,1622.144L1610.174,1655.541L1602.827,1657.878L1573.437,1667.898C1573.437,1667.898 1481.646,1689.605 1423.177,1668.565L1420.925,1670.235L1417.808,1660.55L1414.468,1666.912L1412.799,1671.905C1412.799,1671.905 1357.36,1681.256 1321.291,1674.577C1321.291,1674.577 1251.826,1668.231 1230.452,1650.197L1229.784,1625.818L1233.458,1582.736L1236.463,1553.346L1241.807,1518.614L1247.484,1481.543L1252.16,1451.486Z" style="fill:white;"/>
            </g>
            <g id="body1" serif:id="body" transform="matrix(1,0,0,1,-30.279798,9.796405)">
                <g transform="matrix(0.239901,0,0,0.239901,1028.345881,75.508019)">
                    <g transform="matrix(4.166667,0,0,4.166667,0,0)">
                        <path d="M293.449,643.637C293.449,643.637 273.408,505.281 429.285,494.264C429.285,494.264 548.998,489.019 571.804,613.78C571.804,613.78 572.433,669.81 564.418,697.062" style="fill:none;stroke:black;stroke-width:4.12px;"/>
                    </g>
                    <g transform="matrix(4.166667,0,0,4.166667,0,0)">
                        <path d="M524.743,721.475C524.743,721.475 555.802,671.38 582.853,714.796C582.853,714.796 594.876,775.578 528.416,782.925" style="fill:none;stroke:black;stroke-width:4.12px;"/>
                    </g>
                    <g transform="matrix(4.147802,0,0,4.155065,15.200639,22.568403)">
                        <path d="M277.499,2046.837C277.499,2046.837 199.436,2097.934 179.843,2111.293C179.843,2111.293 158.469,2127.769 153.571,2143.799C153.571,2143.799 148.228,2153.596 153.571,2162.501C153.571,2162.501 159.805,2176.306 173.164,2177.641C173.164,2177.641 204.78,2184.766 236.395,2181.204C236.395,2181.204 295.174,2170.962 346.382,2153.596C346.382,2153.596 403.38,2146.026 411.84,2141.128C411.84,2141.128 419.855,2139.792 421.191,2131.776C421.191,2131.776 424.754,2116.759 400.708,2059.194" style="fill:none;stroke:black;stroke-width:4.12px;"/>
                    </g>
                    <g transform="matrix(4.147802,0,0,4.155065,15.200639,22.568403)">
                        <path d="M536.015,2061.826C536.015,2061.826 517.98,2085.537 500.881,2099.43C483.782,2113.323 469.355,2129.354 451.187,2144.85C451.187,2144.85 411.301,2185.95 423.674,2204.207C423.674,2204.207 425.36,2221.128 453.858,2224.691C453.858,2224.691 482.357,2231.37 528.667,2221.128C528.667,2221.128 601.25,2193.075 620.397,2184.615C639.545,2176.154 664.036,2169.92 667.598,2160.569C671.16,2151.218 667.153,2137.859 665.372,2120.493C663.591,2103.126 655.575,2077.299 654.239,2063.941" style="fill:none;stroke:black;stroke-width:4.12px;"/>
                    </g>
                    <g transform="matrix(4.168388,0,0,4.407324,-4206.7302,-531.823538)">
                        <path d="M1427.365,1219.479C1427.365,1219.479 1541.359,1255.993 1607.262,1195.434" style="fill:none;stroke:black;stroke-width:2.02px;"/>
                    </g>
                    <g transform="matrix(4.168388,0,0,4.168388,-4203.94598,-293.51798)">
                        <path d="M1248.358,1101.477C1248.358,1101.477 1196.259,1191.871 1250.139,1236.846C1250.139,1236.846 1244.348,1269.806 1270.264,1340.59C1270.264,1340.59 1251.027,1405.897 1262.605,1436.622C1262.605,1436.622 1251.829,1507.557 1244.882,1556.717C1244.882,1556.717 1228.14,1709.077 1255.569,1788.625C1255.569,1788.625 1269.463,1842.88 1270.531,1864.254C1270.531,1864.254 1272.669,1940.131 1277.478,1975.933C1277.478,1975.933 1297.919,2096.696 1297.05,2107.917L1288.833,2116.125" style="fill:none;stroke:black;stroke-width:4.12px;"/>
                    </g>
                    <g transform="matrix(4.168388,0,0,4.168388,-4160.326541,-355.581927)">
                        <path d="M1416.232,1663.323C1416.232,1663.323 1383.635,1823.628 1389.513,1853.017C1389.513,1853.017 1413.567,1920.345 1415.166,1945.46C1416.765,1970.574 1421.04,1998.895 1411.421,2045.917C1411.421,2045.917 1399.131,2107.902 1399.666,2141.566" style="fill:none;stroke:black;stroke-width:4.17px;"/>
                    </g>
                    <g transform="matrix(4.168388,0,0,4.168388,-4160.326541,-355.581927)">
                        <path d="M1411.421,1630.193C1411.421,1630.193 1424.112,1706.806 1461.116,1807.597C1461.116,1807.597 1477.146,1861.7 1485.162,1886.28C1485.162,1886.28 1493.177,1946.662 1500.123,1995.822C1500.123,1995.822 1509.742,2036.967 1525.238,2081.852C1525.238,2081.852 1532.719,2118.683 1533.253,2145.954" style="fill:none;stroke:black;stroke-width:4.17px;"/>
                    </g>
                    <g transform="matrix(4.168388,0,0,4.168388,-4160.326541,-355.581927)">
                        <path d="M1652.413,2145.954C1652.413,2145.954 1653.482,2055.135 1655.085,2013.456C1655.085,2013.456 1663.634,1962.692 1626.764,1878.265C1626.764,1878.265 1615.008,1854.219 1611.802,1839.258C1611.802,1839.258 1621.955,1742.273 1613.94,1691.109C1613.94,1691.109 1605.925,1614.297 1601.115,1588.648C1601.115,1588.648 1611.446,1559.615 1583.482,1450.251C1583.482,1450.251 1593.1,1426.74 1588.825,1351.397C1588.825,1351.397 1620.352,1331.259 1640.123,1270.794L1651.211,1215.672" style="fill:none;stroke:black;stroke-width:4.17px;"/>
                    </g>
                    <g transform="matrix(4.168388,0,0,4.168388,-4160.326541,-355.581927)">
                        <path d="M1411.421,1630.193C1411.421,1630.193 1386.307,1623.959 1371.879,1612.738" style="fill:none;stroke:black;stroke-width:4.17px;"/>
                    </g>
                    <g transform="matrix(4.168388,0,0,4.168388,-4160.326541,-355.581927)">
                        <path d="M1229.921,1650.899C1229.921,1650.899 1290.124,1686.968 1411.421,1673.164" style="fill:none;stroke:black;stroke-width:4.17px;"/>
                    </g>
                    <g transform="matrix(4.168388,0,0,4.168388,-4160.326541,-355.581927)">
                        <path d="M1420.925,1669.602C1420.925,1669.602 1512.235,1694.538 1608.418,1656.243" style="fill:none;stroke:black;stroke-width:4.17px;"/>
                    </g>
                    <g transform="matrix(4.168388,0,0,4.168388,-4160.326541,-355.581927)">
                        <path d="M1252.72,1451.365C1252.72,1451.365 1311.854,1530.626 1583.482,1450.296" style="fill:none;stroke:black;stroke-width:4.17px;"/>
                    </g>
                    <g transform="matrix(4.168388,0,0,4.168388,-4160.326541,-355.581927)">
                        <path d="M1383.813,1083.732C1383.813,1083.732 1335.9,1194.877 1371.879,1234.953" style="fill:none;stroke:black;stroke-width:2.08px;"/>
                    </g>
                    <g transform="matrix(4.168388,0,0,4.168388,-4160.326541,-355.581927)">
                        <path d="M1240.608,1251.562C1240.608,1251.562 1257.974,1253.344 1265.989,1250.672" style="fill:none;stroke:black;stroke-width:2.08px;"/>
                    </g>
                    <g transform="matrix(4.168388,0,0,4.168388,-4160.326541,-355.581927)">
                        <path d="M1265.989,1316.575C1265.989,1316.575 1283.356,1275.608 1300.277,1268.929" style="fill:none;stroke:black;stroke-width:2.08px;"/>
                    </g>
                    <g transform="matrix(4.168388,0,0,4.168388,-4160.326541,-355.581927)">
                        <path d="M1413.381,1268.929C1413.381,1268.929 1442.325,1277.204 1471.714,1324.145" style="fill:none;stroke:black;stroke-width:2.08px;"/>
                    </g>
                    <g transform="matrix(4.168388,0,0,4.168388,-4160.326541,-355.581927)">
                        <path d="M1554.658,1292.702C1554.658,1292.702 1577.942,1282.103 1583.482,1268.929" style="fill:none;stroke:black;stroke-width:2.08px;"/>
                    </g>
                    <g transform="matrix(4.168388,0,0,4.168388,-4160.326541,-355.581927)">
                        <path d="M1345.892,1258.872C1345.892,1258.872 1339.913,1296.722 1358.488,1331.454C1358.488,1331.454 1349.009,1366.045 1357.915,1399.139" style="fill:none;stroke:black;stroke-width:2.08px;"/>
                    </g>
                    <g transform="matrix(4.168388,0,0,4.168388,-4160.326541,-355.581927)">
                        <path d="M1358.488,1331.454C1358.488,1331.454 1378.007,1336.94 1413.381,1336.05" style="fill:none;stroke:black;stroke-width:2.08px;"/>
                    </g>
                    <g transform="matrix(4.168388,0,0,4.168388,-4160.326541,-355.581927)">
                        <path d="M1358.488,1331.454C1358.488,1331.454 1331.198,1338.026 1310.714,1336.148" style="fill:none;stroke:black;stroke-width:2.08px;"/>
                    </g>
                    <g transform="matrix(4.168388,0,0,4.168388,-4160.326541,-355.581927)">
                        <path d="M1279.544,1405.07C1279.544,1405.07 1286.669,1445.142 1297.356,1469.192" style="fill:none;stroke:black;stroke-width:2.08px;"/>
                    </g>
                    <g transform="matrix(4.168388,0,0,4.168388,-4160.326541,-355.581927)">
                        <path d="M1434.951,1474.094C1434.951,1474.094 1463.894,1415.307 1476.363,1405.07" style="fill:none;stroke:black;stroke-width:2.08px;"/>
                    </g>
                    <g transform="matrix(4.168388,0,0,4.168388,-4160.326541,-355.581927)">
                        <path d="M1427.47,1052.626C1427.47,1052.626 1502.813,1037.665 1599.53,1042.474" style="fill:none;stroke:black;stroke-width:2.08px;"/>
                    </g>
                    <g transform="matrix(4.168388,0,0,4.168388,-4160.326541,-355.581927)">
                        <path d="M1378.309,1052.626C1378.309,1052.626 1325.587,1041.521 1296.91,1047.074" style="fill:none;stroke:black;stroke-width:2.08px;"/>
                    </g>
                    <g transform="matrix(4.166667,0,0,4.166667,0,0)">
                        <path d="M527.414,774.91C527.414,774.91 526.079,833.744 476.985,856.732" style="fill:none;stroke:black;stroke-width:4.12px;"/>
                    </g>
                    <g transform="matrix(4.166667,0,0,4.166667,0,0)">
                        <path d="M322.466,846.778C327.843,855.529 345.467,882.751 345.467,882.751C345.467,882.751 356.416,914.332 432.024,881.462M317.984,815.821C317.984,815.821 308.714,825.062 313.922,835.091C315.722,838.559 318.433,842.487 322.466,846.778" style="fill:none;stroke:black;stroke-width:4.12px;"/>
                    </g>
                    <g transform="matrix(4.168388,0,0,4.168388,-4160.326541,-355.581927)">
                        <path d="M1296.322,799.75C1296.322,799.75 1284.299,822.665 1300.329,867.982C1300.329,867.982 1299.662,877.885 1302.667,890.416C1302.667,890.416 1300.351,900.968 1315.369,900.789" style="fill:none;stroke:black;stroke-width:4.17px;"/>
                    </g>
                    <g transform="matrix(4.168388,0,0,4.168388,-4175.175711,-296.185248)">
                        <path d="M1379.488,968.793C1379.488,968.793 1379.955,978.954 1378.285,984.632C1378.285,984.632 1316.167,1001.998 1267.074,1027.38C1267.074,1027.38 1240.938,1030.904 1227.913,1040.589" style="fill:none;stroke:black;stroke-width:4.17px;"/>
                    </g>
                    <g transform="matrix(4.166667,0,0,4.166667,51.229633,-15.591627)">
                        <path d="M519.553,786.743C519.553,786.743 508.548,877.808 515.959,894.602" style="fill:none;stroke:black;stroke-width:4.12px;"/>
                    </g>
                    <g transform="matrix(4.166667,0,0,4.166667,0,0)">
                        <path d="M317.434,815.821C317.434,815.821 372.708,826.818 434.826,805.444" style="fill:none;stroke:black;stroke-width:4.12px;"/>
                    </g>
                    <g transform="matrix(4.166667,0,0,4.166667,0,0)">
                        <path d="M374.729,760.359C374.729,760.359 336.019,778.352 321.133,751.795C321.133,751.795 311.21,734.077 328.767,714.008C328.767,714.008 366.683,677.146 364.137,646.612" style="fill:none;stroke:black;stroke-width:4.12px;"/>
                    </g>
                    <g transform="matrix(4.166667,0,0,4.166667,0,0)">
                        <path d="M568.604,721.779C568.604,721.779 557.249,705.08 535.207,742.819C535.207,742.819 559.587,735.137 545.226,766.53" style="fill:none;stroke:black;stroke-width:2.24px;"/>
                    </g>
                    <g transform="matrix(4.166667,0,0,4.166667,0,0)">
                        <path d="M401.211,613.592C401.211,613.592 442.772,586.28 475.427,614.482C475.427,614.482 487.895,622.794 472.755,604.983C472.755,604.983 434.163,570.844 397.946,607.654C397.946,607.654 394.591,616.248 401.211,613.592Z" style="fill:none;stroke:black;stroke-width:4.12px;"/>
                    </g>
                    <g transform="matrix(4.166667,0,0,4.166667,0,0)">
                        <path d="M344.511,618.95C344.511,618.95 311.114,606.125 294.549,622.156" style="fill:none;stroke:black;stroke-width:4.12px;"/>
                    </g>
                    <g transform="matrix(4.166667,0,0,4.166667,0,0)">
                        <path d="M344.511,618.95C344.511,618.95 351.458,619.217 344.511,611.202C344.511,611.202 311.916,585.286 294.549,609.332" style="fill:none;stroke:black;stroke-width:4.12px;"/>
                    </g>
                    <g transform="matrix(4.166667,0,0,4.166667,0,0)">
                        <ellipse cx="435.641" cy="676.208" rx="44.613" ry="46.277" style="fill:none;stroke:black;stroke-width:4.12px;"/>
                    </g>
                    <g transform="matrix(4.166667,0,0,4.166667,0,0)">
                        <path d="M362.427,656.653C362.427,656.653 339.142,607.266 293.449,642.666C293.449,642.666 263.452,679.483 297.851,714.008C297.851,714.008 310.44,723.487 322.013,722.485" style="fill:none;stroke:black;stroke-width:4.12px;"/>
                    </g>
                    <g transform="matrix(4.166667,0,0,4.166667,0,0)">
                        <ellipse cx="335.441" cy="681.499" rx="8.015" ry="8.461" style="stroke:black;stroke-width:4.12px;"/>
                    </g>
                    <g transform="matrix(4.166667,0,0,4.166667,0,0)">
                        <ellipse cx="440.082" cy="678.828" rx="7.869" ry="8.461" style="stroke:black;stroke-width:4.12px;"/>
                    </g>
                    <g transform="matrix(4.168388,0,0,4.168388,-4175.175711,-296.185248)">
                        <path d="M1530.179,957.73C1530.179,957.73 1571.033,977.773 1648.323,1026.723C1648.323,1026.723 1666.947,1032.28 1684.123,1041.925" style="fill:none;stroke:black;stroke-width:4.17px;"/>
                    </g>
                </g>
            </g>
        </g>
        <g id="l-hand" serif:id="l hand" transform="matrix(1,0,0,1,-97.152793,-9.262056)">
            <path d="M1760.625,1054.832L1744.595,1054.832L1725.423,1059.674C1725.423,1059.674 1647.283,1124.155 1725.423,1202.803L1725.423,1248.556C1725.423,1248.556 1733.399,1341.725 1778.85,1382.978L1774.095,1391.781L1767.082,1419.166L1763.408,1441.542L1762.406,1490.635L1757.603,1518.689L1753.937,1537.725L1752.137,1550.18C1752.137,1550.18 1727.589,1581.345 1725.423,1601.235L1722.07,1614.296L1718.062,1638.928L1712.571,1666.247L1714.055,1670.997L1720.586,1673.075L1725.423,1670.403L1737.832,1663.278L1745.819,1653.482L1747.303,1676.043L1747.007,1712.854L1752.137,1722.057L1753.937,1724.135L1762.146,1723.541L1767.49,1722.354L1776.099,1730.072L1787.083,1726.51L1792.129,1723.541L1799.254,1713.151L1803.803,1706.546L1811.836,1702.167L1818.55,1696.824L1826.565,1684.652L1835.471,1663.575L1841.979,1643.092L1841.979,1571.311L1863.673,1530.582L1881.781,1485.162L1895.734,1435.586L1902.562,1394.916L1903.749,1358.402L1900.484,1339.7L1899.593,1292.702L1899.89,1252.72L1895.437,1228.081L1886.234,1200.769L1869.734,1176.427L1869.734,1154.162L1861.595,1131.551L1847.642,1106.665L1834.877,1092.415L1816.769,1078.463L1791.536,1065.401L1763.334,1054.832" style="fill:rgb(241,188,12);"/>
            <g id="l-hand-" serif:id="l hand " transform="matrix(1.037752,0,0,0.994909,1029.182418,114.031447)">
                <g transform="matrix(1,0,0,1,-28.079464,-8.056256)">
                    <path d="M810.406,1472.793C810.406,1472.793 812.309,1504.895 810.585,1536.067C808.797,1568.406 791.224,1606.292 774.52,1608.72" style="fill:none;stroke:black;stroke-width:4.12px;"/>
                </g>
                <g transform="matrix(0.963621,0,0,1.005117,-991.742229,-114.614974)">
                    <path d="M1750.282,1550.18C1750.282,1550.18 1764.202,1522.788 1763.288,1444.23C1763.288,1444.23 1769.944,1393.28 1778.85,1383.929C1778.85,1383.929 1717.4,1324.055 1726.306,1208.27" style="fill:none;stroke:black;stroke-width:4.17px;"/>
                </g>
                <g transform="matrix(0.963621,0,0,1.005117,-992.477816,-113.084271)">
                    <path d="M1718.825,1194.19C1718.825,1194.19 1724.899,1202.998 1740.253,1211.454C1745.265,1214.215 1751.266,1216.938 1758.367,1219.305" style="fill:none;stroke:black;stroke-width:4.17px;"/>
                </g>
                <g transform="matrix(0.963621,0,0,1.005117,-991.742229,-114.614974)">
                    <path d="M1753.937,1054.832C1753.937,1054.832 1868.176,1070.715 1869.734,1176.396L1867.508,1208.27" style="fill:none;stroke:black;stroke-width:4.17px;"/>
                </g>
                <g transform="matrix(0.963621,0,0,1.005117,-991.742229,-114.614974)">
                    <path d="M1869.734,1176.396C1869.734,1176.396 1907.762,1218.467 1899.569,1297.328C1899.569,1297.328 1898.144,1341.59 1903.487,1359.402L1902.597,1380.776C1902.597,1380.776 1902.925,1465.728 1841.979,1571.311" style="fill:none;stroke:black;stroke-width:4.17px;"/>
                </g>
                <g transform="matrix(1,0,0,1,-17.112,-4.987206)">
                    <path d="M778.498,1549.325C778.498,1549.325 773.062,1583.521 762.917,1606.634C753.537,1628.006 745.084,1627.309 737.723,1629.462C737.723,1629.462 733.682,1628.702 727.575,1621.069C727.575,1621.069 732.657,1623.006 737.723,1600.989C740.178,1590.32 747.705,1562.486 746.957,1547.785" style="fill:none;stroke:black;stroke-width:4.12px;"/>
                </g>
                <g transform="matrix(0.692857,0,0,0.927718,211.078222,109.97153)">
                    <path d="M720.762,1623.112C720.762,1623.112 701.022,1635.611 693.007,1614.619C693.007,1614.619 692.858,1598.41 693.239,1579.708C693.239,1579.708 692.178,1536.789 690.651,1527.629" style="fill:none;stroke:black;stroke-width:4.12px;"/>
                </g>
                <path d="M689.709,1548.11C689.709,1548.11 680.093,1562.632 665.478,1566.934C665.478,1566.934 655.936,1568.306 658.226,1557.619C658.226,1557.619 667.345,1517.799 668.493,1501.093C668.632,1499.079 668.654,1497.401 668.531,1496.169C668.531,1496.169 669.154,1494.063 670.45,1490.471C673.801,1481.178 681.654,1461.941 694.867,1443.497" style="fill:none;stroke:black;stroke-width:4.12px;"/>
            </g>
        </g>
    </g>
</svg>
