<?xml version="1.0" encoding="UTF-8" standalone="no"?>
<svg viewBox="151 474 587 1781" version="1.1" xmlns="http://www.w3.org/2000/svg" xmlns:xlink="http://www.w3.org/1999/xlink" xml:space="preserve" xmlns:serif="http://www.serif.com/" style="fill-rule:evenodd;clip-rule:evenodd;stroke-linecap:round;stroke-linejoin:round;stroke-miterlimit:1.5;">
    <g id="old-male" serif:id="old male">
        <g id="r-hand" serif:id="r hand" transform="matrix(1,-0.000377,0.000377,1,112.467157,-34.22182)">
            <path d="M171.47,1009.436C171.47,1009.436 258.82,946.208 237.446,1103.981C237.446,1103.981 228.985,1200.511 228.603,1213.488C228.222,1226.465 227.84,1258.526 225.168,1273.03C222.497,1287.534 216.488,1329.137 209.569,1342.877C209.569,1342.877 183.17,1455.69 182.032,1458.634C182.032,1458.634 189.291,1475.963 187.955,1487.318C187.955,1487.318 181.83,1522.797 182.588,1526.805C182.588,1526.805 188.476,1553.789 192.858,1555.659C192.858,1555.659 195.925,1576.012 187.445,1574.345L187.445,1588.281L182.032,1592.27L174.048,1592.27L165.285,1584.862L160.155,1587.854L154.17,1592.27L149.468,1592.27L141.987,1586.358L121.896,1563.915L113.774,1546.602L106.488,1508.77L108.216,1495.946L110.781,1468.587L117.193,1418.786L121.254,1372.404L125.102,1311.275L130.018,1249.718L134.293,1196.71L138.983,1136.222L138.983,1101.81L143.911,1069.535L151.819,1039.184L162.506,1018.665L171.47,1009.436Z" style="fill:rgb(241,188,12);"/>
            <g id="r-hand1" serif:id="r hand">
                <path d="M171.478,1009.436C171.478,1009.436 152.375,1021.726 143.292,1074.093C134.208,1126.459 141.154,1117.375 134.742,1202.336C134.742,1202.336 128.152,1255.381 119.78,1397.908C119.78,1397.908 109.16,1484.997 106.488,1507.439C106.488,1507.439 109.561,1549.341 125.257,1568.489C125.257,1568.489 147.108,1599.214 155.505,1590.817C155.505,1590.817 167.719,1588.527 163.902,1574.786C163.902,1574.786 163.52,1566.389 155.124,1556.084C155.124,1556.084 147.872,1554.557 145.582,1543.87C143.292,1533.183 137.566,1501.504 132.986,1496.542" style="fill:none;stroke:black;stroke-width:4.12px;"/>
                <path d="M163.93,1583.912C163.93,1583.912 173.126,1593.507 177.579,1592.27C182.032,1591.034 192.422,1591.331 185.594,1574.113C185.594,1574.113 170.721,1551.849 171.478,1546.802" style="fill:none;stroke:black;stroke-width:4.12px;"/>
                <path d="M185.594,1574.113C185.594,1574.113 196.578,1577.675 191.531,1556.895C191.531,1556.895 181.735,1536.709 183.516,1522.163C185.297,1507.616 188.336,1493.367 187.856,1482.977C187.856,1482.977 186.188,1463.978 182.032,1458.634" style="fill:none;stroke:black;stroke-width:4.12px;"/>
                <path d="M163.93,1437.854C163.93,1437.854 187.473,1449.644 171.478,1510.882C171.478,1510.882 175.02,1539.16 171.478,1546.802C171.478,1546.802 166.266,1560.455 155.579,1555.445" style="fill:none;stroke:black;stroke-width:4.12px;"/>
                <path d="M182.032,1458.634C182.032,1458.634 216.266,1326.809 221.075,1300.853C221.075,1300.853 228.556,1252.455 228.022,1218.257C228.022,1218.257 236.037,1112.455 237.106,1104.44" style="fill:none;stroke:black;stroke-width:4.12px;"/>
            </g>
        </g>
        <g id="body">
            <g id="body-color" serif:id="body color">
                <path d="M390.333,499.695L365.218,509.046C365.218,509.046 347.585,517.328 339.302,524.007C331.02,530.687 305.905,556.603 299.76,583.587C293.615,610.572 296.415,589.925 292.61,618.951C288.806,647.977 297.086,640.763 294.549,642.099C294.549,642.099 288.005,648.511 285.867,654.656C283.73,660.801 281.332,673.091 281.332,673.091L281.332,685.381L285.333,694.732L292.61,704.885L297.089,713.434L294.549,725.457C294.549,725.457 289.073,752.442 309.112,781.831C309.112,781.831 299.493,813.09 317.661,815.762C317.661,815.762 316.592,830.991 329.417,842.48C329.417,842.48 340.905,871.602 342.776,880.151C342.776,880.151 348.653,896.182 378.043,898.319C378.043,898.319 379.646,914.884 378.577,914.617C377.508,914.35 377.695,915.463 377.695,915.463C377.695,915.463 296.865,971.314 286.602,975.15C286.602,975.15 278.386,986.687 274.112,993.367C269.837,1000.046 266.779,1010.988 265.762,1015.448C264,1023.182 264.427,1015.943 266.831,1034.912C269.236,1053.882 278.072,1061.912 285.71,1085.341C285.71,1085.341 275.269,1150.61 300.829,1167.817L301.453,1184.43C301.453,1184.43 301.896,1212.335 294.549,1245.881C287.203,1279.426 285.405,1291.894 285.71,1304.956C286.016,1318.018 281.843,1357.797 285.71,1367.297C289.578,1376.796 285.71,1377.687 285.71,1377.687L285.71,1578.365L281.332,1637.143C281.332,1637.143 281.936,1745.108 282.881,1767.483C283.826,1789.859 289.17,1841.958 289.17,1856.319C289.17,1870.68 301.304,2018.349 298.521,2045.345C298.521,2045.345 212.728,2102.435 202.635,2108.966C192.542,2115.497 183.042,2127.668 180.667,2132.121C178.292,2136.574 171.195,2146.074 171.478,2151.417C171.762,2156.761 172.652,2164.776 177.996,2168.041C183.339,2171.307 180.667,2175.166 191.948,2176.353C203.229,2177.541 223.118,2182.882 247.461,2181.844C271.804,2180.806 288.428,2174.869 305.943,2170.416C323.457,2165.963 362.94,2154.386 367.986,2152.308C373.033,2150.23 423.115,2145.777 432.213,2141.027C441.311,2136.277 441.311,2136.277 441.905,2130.637C442.499,2124.997 439.53,2106.294 435.374,2096.201C431.218,2086.108 422.609,2063.546 421.421,2058.203C420.234,2052.859 418.453,1991.112 418.75,1981.019C419.047,1970.926 425.874,1927.584 425.577,1922.241C425.281,1916.897 425.874,1862.869 425.874,1862.869C425.874,1862.869 422.312,1827.839 421.718,1822.792C421.125,1817.746 426.468,1762.53 426.765,1758.374C427.062,1754.217 437.309,1638.201 439.647,1632.189C441.984,1626.178 444.146,1593.449 445.57,1592.447L448.463,1592.881L449.265,1601.163L459.239,1690.801L469.629,1760.266L483.285,1840.122C483.285,1840.122 512.25,2056.067 508.052,2069.425L480.094,2102.226L463.272,2116.92L445.57,2131.281L427.661,2149.649L413.634,2166.014C413.634,2166.014 384.579,2195.403 394.932,2211.767C405.285,2228.132 395.266,2221.119 405.285,2226.462C415.304,2231.805 420.981,2233.726 427.995,2234.269C435.008,2234.811 464.397,2237.483 499.13,2230.136C499.13,2230.136 541.544,2213.771 567.928,2203.418C594.311,2193.065 614.349,2184.316 629.378,2178.171C644.406,2172.025 635.591,2174.029 640.833,2169.353C640.833,2169.353 639.932,2151.653 638.162,2141.3C636.391,2130.947 634.053,2109.239 632.049,2100.89C630.046,2092.541 626.038,2077.178 626.038,2071.835C626.038,2066.491 622.03,1977.656 622.03,1977.656L619.025,1888.486C619.025,1888.486 613.347,1808.723 611.677,1802.851C610.008,1796.979 612.679,1733.191 612.679,1733.191L614.683,1622.647L616.687,1526.13L618.691,1416.589L619.025,1370.16L623.366,1335.1L619.347,1308.049L619.347,1237.248L623.37,1180.473L627.393,1160.027C627.393,1160.027 643.07,1108.67 661.105,1071.933C661.105,1071.933 677.326,1036.303 644.263,993.165C644.263,993.165 637.067,980.858 623.37,974.101C609.674,967.345 585.962,953.551 580.952,948.425C575.943,943.299 525.806,909.635 527.181,903.005L524.908,885.096L526.401,839.973L531.39,782.925L549.74,777.21C549.74,777.21 559.572,774.646 564.916,768.875C570.259,763.104 586.278,754.26 582.443,714.371C582.443,714.371 573.56,699.514 565.545,698.575C565.545,698.575 572.373,648.952 570.889,641.234C569.404,633.515 574.748,627.281 569.998,601.751C569.998,601.751 553.671,551.878 541.203,544.457C541.203,544.457 517.751,511.802 473.518,499.631C473.518,499.631 435.094,488.477 390.333,499.695Z" style="fill:rgb(241,188,12);"/>
                <path d="M285.71,1370.16L312.739,1382.359C312.739,1382.359 348.235,1390.756 363.12,1390.756C378.006,1390.756 408.158,1395.336 426.86,1392.664C445.563,1389.993 592.89,1382.007 618.081,1370.16C618.081,1370.16 615.409,1587.702 615.028,1588.465C614.646,1589.229 605.867,1591.137 605.867,1591.137C605.867,1591.137 539.647,1605.195 448.926,1599.323L448.926,1591.781C448.926,1591.781 300.714,1595.789 285.71,1579.09L285.71,1574.415C285.71,1574.415 285.686,1473.222 285.71,1469.215C285.735,1465.207 285.71,1370.16 285.71,1370.16Z" style="fill:rgb(235,235,235);"/>
                <path d="M439.227,629.429L416.784,634.479C416.784,634.479 403.105,644.524 400.326,649.227C397.547,653.929 389.852,664.188 391.028,683.211C392.204,702.234 406.097,710.784 411.227,713.562C411.227,713.562 425.761,728.31 449.272,719.974C449.272,719.974 475.99,709.929 477.914,689.41C477.914,689.41 485.608,671.456 471.715,647.517C471.715,647.517 462.097,632.288 439.227,629.429Z" style="fill:white;"/>
                <path d="M362.494,655.639C362.494,655.639 343.258,632.982 338.342,632.341C333.426,631.7 319.746,630.362 312.265,632.527C304.784,634.692 297.945,638.54 294.525,642.173C291.105,645.807 280.749,662.684 281.332,676.368C281.332,676.368 283.197,700.952 297.517,713.349C297.517,713.349 313.326,725.423 322.734,722.485C322.734,722.485 330.433,711.211 338.769,703.517C338.769,703.517 353.945,685.349 355.654,678.295C355.654,678.295 364.498,660.769 364.137,658.417C363.777,656.066 362.494,655.639 362.494,655.639Z" style="fill:white;"/>
                <path d="M480.039,615.963L473.799,613.399L459.051,605.063L448.792,601.857L439.601,601.857L424.425,603.495L414.593,607.628L404.12,611.902L397.096,614.253L397.096,606.986L405.402,600.36L415.234,594.589L425.066,590.571L446.654,590.571L459.906,596.727L473.372,603.495L480.039,615.963Z"/>
                <path d="M293.189,622.589L303.235,616.419L313.067,614.04L329.739,615.963L342.563,618.315L346.534,616.419L343.632,610.834L338.288,606.986L328.67,603.267L315.204,599.292L306.655,600.574L299.601,603.495L295.113,608.91L293.403,615.963L293.189,622.589Z" style="stroke:black;stroke-width:4.12px;"/>
            </g>
            <g id="body1" serif:id="body">
                <path d="M293.449,643.637C293.449,643.637 273.408,505.281 429.285,494.264C429.285,494.264 548.998,489.019 571.804,613.78C571.804,613.78 572.433,669.81 564.418,697.062" style="fill:none;stroke:black;stroke-width:4.12px;"/>
                <path d="M524.743,721.475C524.743,721.475 555.802,671.38 582.853,714.796C582.853,714.796 594.876,775.578 528.416,782.925" style="fill:none;stroke:black;stroke-width:4.12px;"/>
                <path d="M527.414,774.91C527.414,774.91 526.079,833.744 476.985,856.732" style="fill:none;stroke:black;stroke-width:4.12px;"/>
                <path d="M379.08,897.643C379.08,897.643 379.101,923.783 377.616,928.533M317.984,815.821C317.984,815.821 313.643,827.025 329.339,843.723C329.339,843.723 338.023,862.092 342.03,880.46C342.03,880.46 358.707,918.532 432.024,881.462" style="fill:none;stroke:black;stroke-width:4.12px;"/>
                <path d="M531.39,782.925C531.39,782.925 520.003,888.499 527.414,905.293" style="fill:none;stroke:black;stroke-width:4.12px;"/>
                <path d="M297.231,714.008C297.231,714.008 283.109,745.735 309.444,782.925C309.444,782.925 297.894,810.501 317.434,815.821C317.434,815.821 372.708,826.818 434.826,805.444" style="fill:none;stroke:black;stroke-width:4.12px;"/>
                <path d="M349.664,844.109C349.664,844.109 360.685,835.835 388.738,847.858" style="fill:none;stroke:black;stroke-width:2.24px;"/>
                <path d="M374.729,760.359C374.729,760.359 336.019,778.352 321.133,751.795C321.133,751.795 311.21,734.077 328.767,714.008C328.767,714.008 366.683,677.146 364.137,646.612" style="fill:none;stroke:black;stroke-width:4.12px;"/>
                <path d="M398.948,742.819C398.948,742.819 429.339,757.847 449.043,777.217" style="fill:none;stroke:black;stroke-width:2.24px;"/>
                <path d="M318.339,755.51C318.339,755.51 312.116,764.193 312.45,771.206" style="fill:none;stroke:black;stroke-width:2.24px;"/>
                <path d="M300.427,725.118C300.427,725.118 308.083,731.798 312.437,730.796" style="fill:none;stroke:black;stroke-width:2.24px;"/>
                <path d="M407.965,721.779C407.965,721.779 423.996,743.255 461.4,728.008" style="fill:none;stroke:black;stroke-width:2.24px;"/>
                <path d="M484.11,710.424C484.11,710.424 493.127,699.737 494.129,697.399C494.129,697.399 504.148,695.395 507.488,698.067" style="fill:none;stroke:black;stroke-width:2.24px;"/>
                <path d="M568.604,721.779C568.604,721.779 557.249,705.08 535.207,742.819C535.207,742.819 559.587,735.137 545.226,766.53" style="fill:none;stroke:black;stroke-width:2.24px;"/>
                <path d="M401.211,613.592C401.211,613.592 442.772,586.28 475.427,614.482C475.427,614.482 487.895,622.794 472.755,604.983C472.755,604.983 434.163,570.844 397.946,607.654C397.946,607.654 394.591,616.248 401.211,613.592Z" style="fill:none;stroke:black;stroke-width:4.12px;"/>
                <path d="M344.511,618.95C344.511,618.95 311.114,606.125 294.549,622.156" style="fill:none;stroke:black;stroke-width:4.12px;"/>
                <path d="M344.511,618.95C344.511,618.95 351.458,619.217 344.511,611.202C344.511,611.202 311.916,585.286 294.549,609.332" style="fill:none;stroke:black;stroke-width:4.12px;"/>
                <ellipse cx="435.641" cy="676.208" rx="44.613" ry="46.277" style="fill:none;stroke:black;stroke-width:4.12px;"/>
                <path d="M362.427,656.653C362.427,656.653 339.142,607.266 293.449,642.666C293.449,642.666 263.452,679.483 297.851,714.008C297.851,714.008 310.44,723.487 322.013,722.485" style="fill:none;stroke:black;stroke-width:4.12px;"/>
                <ellipse cx="335.441" cy="681.499" rx="8.015" ry="8.461" style="stroke:black;stroke-width:4.12px;"/>
                <ellipse cx="440.082" cy="678.828" rx="7.869" ry="8.461" style="stroke:black;stroke-width:4.12px;"/>
                <path d="M395.481,896.983C395.481,896.983 401.27,913.014 402.16,921.474C402.16,921.474 409.73,933.942 416.855,933.942" style="fill:none;stroke:black;stroke-width:2.24px;"/>
                <path d="M377.695,915.463C377.695,915.463 335.329,947.384 285.71,974.101" style="fill:none;stroke:black;stroke-width:4.12px;"/>
                <path d="M289.909,1063.414C289.909,1063.414 264.355,1159.979 312.437,1173.719" style="fill:none;stroke:black;stroke-width:4.12px;"/>
                <path d="M301.418,1168.313C301.418,1168.313 302.364,1212.828 290.609,1265.729C290.609,1265.729 278.14,1324.507 285.71,1369.927C285.71,1369.927 286.862,1541.453 283.125,1574.583C283.125,1574.583 280.679,1765.279 285.71,1808.695C285.71,1808.695 301.48,2026.442 297.781,2046.48C297.781,2046.48 219.718,2097.577 200.125,2110.936C200.125,2110.936 178.751,2127.412 173.853,2143.442C173.853,2143.442 168.51,2153.239 173.853,2162.144C173.853,2162.144 180.087,2175.949 193.446,2177.284C193.446,2177.284 225.062,2184.409 256.677,2180.847C256.677,2180.847 315.456,2170.605 366.664,2153.239C366.664,2153.239 423.662,2145.669 432.122,2140.771C432.122,2140.771 440.137,2139.435 441.473,2131.419C441.473,2131.419 445.036,2116.402 420.99,2058.837C420.99,2058.837 414.756,1988.804 422.326,1945.611C422.326,1945.611 431.232,1876.971 421.435,1821.82C421.435,1821.82 439.158,1610.191 445.57,1592.515C445.57,1592.515 322.402,1596.702 285.71,1580.672" style="fill:none;stroke:black;stroke-width:4.12px;"/>
                <path d="M358.115,1521.448C358.115,1521.448 415.468,1556.181 445.57,1556.626C445.57,1556.626 450.29,1649.647 476.651,1805.321C476.651,1805.321 501.588,1936.838 507.822,2070.537C507.822,2070.537 489.787,2094.248 472.688,2108.141C455.589,2122.034 441.162,2138.065 422.994,2153.561C422.994,2153.561 383.108,2194.661 395.481,2212.918C395.481,2212.918 397.167,2229.839 425.665,2233.402C425.665,2233.402 454.164,2240.081 500.474,2229.839C500.474,2229.839 573.057,2201.786 592.204,2193.326C611.352,2184.865 635.843,2178.631 639.405,2169.28C642.967,2159.929 638.96,2146.57 637.179,2129.204C635.398,2111.837 627.382,2086.01 626.046,2072.652C624.711,2059.293 618.744,1883.358 616.606,1865.725C614.469,1848.091 616.606,1838.473 611.263,1802.672C611.263,1802.672 619.367,1380.135 619.367,1371.229C619.367,1371.229 366.431,1421.458 285.71,1370.16" style="fill:none;stroke:black;stroke-width:4.12px;"/>
                <path d="M448.926,1599.416C448.926,1599.416 536.621,1607.846 615.337,1589.127" style="fill:none;stroke:black;stroke-width:4.12px;"/>
                <path d="M526.401,903.005C526.401,903.005 547.709,935.601 615.337,968.73C615.337,968.73 640.752,982.089 645.561,993.845" style="fill:none;stroke:black;stroke-width:4.12px;"/>
                <path d="M391.923,1126.542C391.923,1126.542 401.541,1167.686 436.808,1173.564" style="fill:none;stroke:black;stroke-width:2.24px;"/>
                <path d="M578.411,1142.572C578.411,1142.572 559.709,1173.03 506.274,1178.373" style="fill:none;stroke:black;stroke-width:2.24px;"/>
                <path d="M348.641,1217.381C348.641,1217.381 386.045,1197.61 443.221,1218.45" style="fill:none;stroke:black;stroke-width:2.24px;"/>
                <path d="M627.393,1160.027C627.393,1160.027 612.899,1263.157 622.818,1335.294C622.818,1335.294 621.871,1358.137 619.645,1370.16" style="fill:none;stroke:black;stroke-width:4.12px;"/>
            </g>
        </g>
        <g id="l-hand" serif:id="l hand" transform="matrix(1,0,0,1,-111.257052,-16.077445)">
            <path d="M748.69,999.455C748.69,999.455 731.099,991.707 725.373,999.455C719.648,1007.204 665.45,1012.767 690.641,1141.555C715.831,1270.342 709.597,1225.145 709.597,1225.145L718.296,1275.432C718.296,1275.432 719.934,1309.401 718.296,1314.744C716.658,1320.088 718.296,1351.385 718.296,1351.385C718.296,1351.385 715.513,1439.171 713.605,1442.988C711.697,1446.805 686.887,1487.263 687.269,1495.66C687.269,1495.66 679.02,1557.492 675.893,1560.545C672.765,1563.599 675.893,1567.153 675.893,1567.153L681.639,1570.962L687.651,1570.962L697.094,1567.821L708.023,1553.794L711.697,1549.453L712.031,1568.155L712.031,1595.874L711.697,1607.229L718.296,1618.38L725.612,1619.567L735.408,1615.411L742.533,1620.498L748.69,1624.614L754.407,1624.02L761.235,1620.498L772.219,1599.129L778.75,1594.334L788.828,1582.757L795.077,1568.21L801.608,1545.946L806.655,1514.182L806.061,1477.371L804.577,1461.341L812.889,1429.28L820.607,1381.782L826.841,1332.206L829.216,1281.146L829.216,1242.851L821.498,1166.855L809.327,1100.655L796.858,1056.719L782.906,1034.158L763.907,1011.893L748.69,999.455Z" style="fill:rgb(241,188,12);"/>
            <g id="l-hand-" serif:id="l hand ">
                <path d="M748.69,999.455C748.69,999.455 786.095,1026.173 801.057,1070.524C816.018,1114.875 830.446,1228.691 828.843,1270.905C828.843,1270.905 831.648,1355.933 804.263,1461.668C804.263,1461.668 817.532,1565.732 773.894,1599.129" style="fill:none;stroke:black;stroke-width:4.12px;"/>
                <path d="M784.263,1542.036C784.263,1542.036 773.423,1630.204 748.69,1625.242C748.69,1625.242 741.515,1623.715 735.408,1616.082C735.408,1616.082 754.873,1588.219 752.583,1543.181" style="fill:none;stroke:black;stroke-width:4.12px;"/>
                <path d="M735.408,1616.082C735.408,1616.082 719.759,1629.822 711.744,1608.83C711.744,1608.83 712.126,1588.219 712.507,1569.517C712.507,1569.517 712.507,1530.586 710.98,1521.426" style="fill:none;stroke:black;stroke-width:4.12px;"/>
                <path d="M712.302,1548.133C712.302,1548.133 701.057,1570.88 683.5,1570.962C683.5,1570.962 673.958,1568.754 676.248,1558.067C676.248,1558.067 687.698,1508.067 686.553,1496.617C686.553,1496.617 694.568,1469.518 712.889,1443.945C712.889,1443.945 720.077,1344.295 716.07,1315.351C716.07,1315.351 717.851,1283.29 718.296,1275.72C718.296,1275.72 699.148,1171.968 690.243,1140.797" style="fill:none;stroke:black;stroke-width:4.12px;"/>
            </g>
        </g>
    </g>
</svg>
