<?xml version="1.0" encoding="UTF-8" standalone="no"?>
<svg width="100%" height="100%" viewBox="0 0 441 1540" version="1.1" xmlns="http://www.w3.org/2000/svg" xmlns:xlink="http://www.w3.org/1999/xlink" xml:space="preserve" xmlns:serif="http://www.serif.com/" style="fill-rule:evenodd;clip-rule:evenodd;stroke-linecap:round;stroke-linejoin:round;stroke-miterlimit:1.5;">
    <g transform="matrix(1,0,0,1,-587.730046,-594.302796)">
        <g>
            <g id="l-hand" serif:id="l hand" transform="matrix(1,0,0,1,81.888788,-10.663879)">
                <path d="M617.451,994.878C617.451,994.878 687.816,988.342 636.719,1116.869C636.719,1116.869 618.467,1242.591 617.451,1251.408C617.451,1251.408 616.169,1302.171 607.886,1321.14C607.886,1321.14 567.359,1441.903 564.779,1446.178C564.779,1446.178 571.935,1471.984 559.795,1498.4C559.795,1498.4 555.862,1505.322 557.914,1513.359C557.914,1513.359 560.308,1521.738 564.241,1524.816C564.241,1524.816 569.542,1531.806 564.412,1535.759C564.412,1535.759 565.78,1548.262 553.981,1545.868C553.981,1545.868 553.981,1548.604 550.219,1550.485L547.484,1552.125L542.354,1550.656L535.343,1547.749C535.343,1547.749 520.689,1536.976 507.925,1508.079C507.925,1508.079 508.497,1482.943 510.72,1476.445C512.943,1469.948 516.192,1447.548 519.441,1440.708C522.69,1433.868 524.4,1424.635 525.939,1416.598C527.478,1408.562 535.856,1342.046 536.369,1337.6C536.882,1333.154 543.722,1271.426 544.577,1266.98C545.432,1262.535 557.059,1221.839 557.743,1217.564C558.427,1213.289 562.688,1140.789 562.688,1140.789C562.688,1140.789 564.668,1073.952 566.378,1067.112C568.088,1060.273 569.798,1035.051 583.05,1017.525C583.05,1017.525 598.012,998.288 609.126,996.792L617.451,994.878Z" style="fill:rgb(241,188,12);"/>
                <path d="M617.451,994.878C617.451,994.878 563.215,995.32 564.35,1107.759C564.35,1107.759 561.656,1195.574 556.313,1222.737C556.313,1222.737 547.852,1254.83 544.799,1266.28C544.799,1266.28 534.494,1349.104 532.203,1373.532C532.203,1373.532 526.478,1418.951 522.662,1430.402C522.662,1430.402 504.246,1485.387 508.587,1509.433C508.587,1509.433 526.25,1551.828 547.327,1552.125C547.327,1552.125 559.475,1548.545 544.086,1532.728C544.086,1532.728 535.109,1523.751 535.322,1521.186" style="fill:none;stroke:black;stroke-width:4.17px;"/>
                <path d="M551.81,1545.078C551.81,1545.078 556.91,1546.835 559.261,1546.194C561.612,1545.553 567.383,1542.988 560.971,1534.011C560.971,1534.011 547.506,1520.331 546.864,1514.774" style="fill:none;stroke:black;stroke-width:4.17px;"/>
                <path d="M563.9,1536.148C563.9,1536.148 570.677,1532.515 563.9,1523.965C563.9,1523.965 551.139,1515.202 560.544,1495.751C560.544,1495.751 572.6,1472.454 563.9,1446.591C563.9,1446.591 604.016,1336.877 609.36,1317.285C609.36,1317.285 618.122,1283.442 617.451,1251.381C617.451,1251.381 633.813,1133.287 636.819,1116.254" style="fill:none;stroke:black;stroke-width:4.17px;"/>
                <path d="M546.864,1438.033C546.864,1438.033 560.207,1449.922 551.123,1481.449C551.123,1481.449 549.092,1493.872 550.161,1503.49C550.161,1503.49 542.253,1524.223 531.352,1519.735C531.352,1519.735 525.367,1519.307 528.573,1507.551C528.573,1507.551 530.069,1500.284 528.787,1494.941C528.787,1494.941 530.069,1476.987 527.077,1472.284" style="fill:none;stroke:black;stroke-width:4.17px;"/>
            </g>
            <g id="body">
                <g>
                    <path d="M688.425,989.251C688.425,989.251 652.735,1013.239 681.056,1048.773L682.979,1059.701L682.124,1067.908L672.891,1082.1L660.75,1101.765L652.885,1122.967L651.688,1145.538L655.62,1155.798L663.828,1166.57L673.917,1175.633L685.544,1182.131L685.501,1200.32L690.631,1249.694C690.631,1249.694 688.28,1266.152 682.936,1276.198C677.593,1286.243 671.181,1310.396 668.402,1320.014L662.845,1337.968C662.845,1337.968 649.931,1401.102 650.27,1409.918C650.608,1418.735 646.066,1459.905 652.746,1496.483C659.425,1533.061 671.639,1601.749 690.595,1643.583C690.595,1643.583 699.323,1669.532 700.926,1676.479C700.926,1676.479 704.934,1729.112 715.621,1744.341C715.621,1744.341 717.224,1790.295 717.758,1799.379C718.293,1808.463 719.322,1848.539 724.017,1866.974C728.712,1885.41 733.521,1943.654 734.056,1951.669C734.59,1959.684 736.728,1999.493 735.125,2004.302C733.521,2009.111 726.147,2017.527 719.949,2022.016C713.751,2026.505 685.964,2044.245 671.216,2049.375C656.468,2054.504 638.942,2062.413 635.522,2065.191C632.102,2067.97 626.117,2073.955 623.98,2080.581C621.842,2087.207 621.629,2092.764 625.049,2094.901C628.468,2097.039 641.934,2102.168 644.713,2101.1C647.491,2100.031 651.98,2105.551 665.232,2104.501C678.484,2103.451 692.59,2102.382 704.132,2098.321C715.674,2094.26 724.438,2088.489 728.712,2087.848C732.987,2087.207 759.918,2080.794 769.537,2082.932C779.155,2085.069 803.949,2079.726 808.651,2075.878C813.353,2072.031 816.773,2071.39 816.987,2065.191C817.201,2058.993 816.346,2044.245 813.14,2038.901C809.933,2033.558 800.101,2001.497 799.888,1996.153C799.674,1990.81 806.941,1933.955 807.369,1929.467C807.796,1924.978 816.987,1872.184 818.697,1866.627C820.407,1861.07 822.967,1804.215 821.687,1798.23C820.407,1792.246 810.575,1732.826 806.086,1725.773C801.598,1718.719 805.017,1677.895 805.231,1671.483C805.445,1665.071 806.941,1612.491 807.796,1609.285C808.651,1606.078 821.048,1660.582 825.109,1675.116C829.17,1689.651 837.933,1725.345 838.788,1731.544C839.643,1737.742 846.697,1747.36 848.407,1751.635C850.117,1755.91 856.79,1809.835 858.66,1824.262C860.53,1838.69 868.546,1889.987 871.485,1903.613C874.423,1917.239 883.507,1971.743 883.775,1979.491C884.042,1987.239 886.714,2016.628 885.912,2021.704C885.11,2026.781 872.019,2049.945 866.034,2056.143C860.049,2062.342 839.53,2081.151 832.477,2085.212C825.424,2089.273 808.538,2101.134 805.546,2104.501C802.553,2107.868 794.859,2118.769 811.958,2125.822L823.714,2125.822C823.714,2125.822 851.714,2136.082 870.095,2129.67C870.095,2129.67 900.233,2123.685 909.637,2117.7C909.637,2117.7 929.729,2105.836 936.782,2104.501C936.782,2104.501 954.95,2099.532 956.446,2097.181C957.942,2094.83 960.935,2090.128 960.293,2083.929C959.652,2077.731 952.599,2046.525 952.171,2043.105C951.744,2039.685 948.11,2023.227 948.538,2014.678C948.965,2006.128 947.255,1987.105 952.599,1953.334C957.942,1919.563 961.576,1898.189 962.431,1890.281C963.286,1882.373 966.347,1821.884 965.137,1813.762C963.927,1805.64 953.454,1757.976 951.103,1751.564C948.751,1745.152 938.064,1709.243 938.492,1702.831C938.919,1696.419 937.423,1660.938 942.981,1625.671C948.538,1590.404 950.461,1565.824 950.248,1560.481C950.034,1555.137 954.736,1499.351 954.95,1495.717C955.164,1492.084 957.942,1445.061 959.652,1439.931C961.362,1434.802 959.225,1384.145 957.515,1376.451C955.805,1368.756 937.637,1304.42 934.858,1301.214C932.08,1298.008 917.545,1265.306 916.904,1261.031C916.263,1256.756 912.416,1224.268 914.981,1217.428C914.981,1217.428 922.248,1163.78 924.599,1154.589C926.95,1145.398 935.339,1098.723 936.675,1092.578L937.21,1085.977C937.21,1085.977 993.049,1014.295 939.08,989.982C885.11,965.67 902.263,976.223 889.198,968.315C876.133,960.406 854.7,948.223 843.508,937.109C843.508,937.109 837.497,913.597 838.968,903.765C840.439,893.933 840.011,871.594 845.996,848.565C845.996,848.565 853.05,854.968 860.231,853.258C860.231,853.258 884.683,852.575 892.72,840.092C900.756,827.61 902.979,823.506 903.834,810.169C904.689,796.831 893.233,783.299 886.393,781.858C886.393,781.858 886.703,778.877 889.198,773.405C891.694,767.934 898.37,733.735 898.708,726.725C899.046,719.714 896.62,682.096 889.198,671.152C881.776,660.209 884.79,650.589 854.93,626.865C854.93,626.865 823.842,602.207 793.277,598.573C793.277,598.573 753.933,593.016 721.88,606.268C721.88,606.268 680.85,623.794 671.018,647.519C671.018,647.519 653.033,672.1 650.27,699.672C650.27,699.672 650.468,713.351 650.27,720.405L648.362,725.962L642.591,736.863C642.591,736.863 633.614,756.17 648.148,780.821C648.148,780.821 642.804,797.565 655.415,820.862C655.415,820.862 659.476,846.21 659.904,853.841C659.904,853.841 659.476,863.703 682.56,868.252C682.56,868.252 688.117,884.771 694.957,887.549C694.957,887.549 704.789,925.286 733.858,922.127L752.453,916.404L753.735,921.748C753.735,921.748 757.583,940.984 751.812,957.228C751.812,957.228 728.789,969.215 721.491,972.84C714.193,976.465 702.513,982.449 697.376,984.159C692.238,985.868 688.425,989.251 688.425,989.251Z" style="fill:rgb(241,188,12);"/>
                    <path d="M717.768,975.618C717.768,975.618 708.951,993.674 701.203,1017.987C701.203,1017.987 696.394,1043.128 684.852,1064.929C684.852,1064.929 664.546,1094.247 660.058,1104.079C655.569,1113.911 650.05,1137.85 652.703,1147.896C655.356,1157.942 663.478,1174.186 685.707,1181.881C707.936,1189.575 739.569,1177.392 746.623,1171.407C746.623,1171.407 783.6,1202.827 835.752,1175.896L840.882,1173.673C840.882,1173.673 916.012,1162.856 923.225,1158.903C923.225,1158.903 929.37,1116.904 930.439,1114.766C930.439,1114.766 921.034,1118.614 902.225,1117.118C883.416,1115.621 877.431,1108.782 871.019,1104.934C871.019,1104.934 849.859,1087.408 843.447,1072.66C843.447,1072.66 842.378,1046.797 849.645,1023.072C849.645,1023.072 865.676,979.042 886.408,968.782C886.408,968.782 876.157,962.156 874.016,961.301C874.016,961.301 860.352,967.072 838.968,1004.69C838.968,1004.69 822.5,1051.286 810.958,1062.4C810.958,1062.4 776.546,1094.903 736.577,1094.896C736.577,1094.896 716.547,1096.599 704.333,1070.095C704.333,1070.095 708.577,1033.759 712.852,1024.996C717.126,1016.232 722.684,986.95 732.302,968.996L717.768,975.618Z" style="fill:white;"/>
                    <path d="M668.109,1320.74C668.109,1320.74 650.662,1378.45 652.011,1408.374C652.011,1408.374 647.59,1440.007 649.086,1456.251C650.582,1472.496 654.429,1502.847 655.284,1506.694C655.284,1506.694 671.778,1526.364 743.986,1519.518C816.195,1512.673 787.51,1515.003 791.225,1512.866L793.917,1522.751C793.917,1522.751 829.138,1528.896 848.107,1526.224C848.107,1526.224 925.588,1523.553 953.641,1506.721C953.641,1506.721 957.115,1454.622 958.985,1447.675C958.985,1447.675 962.992,1390.767 955.779,1372.332C955.779,1372.332 944.023,1320.767 934.405,1301.53L926.657,1305.004C926.657,1305.004 866.542,1332.523 835.817,1337.065C835.817,1337.065 791.466,1348.714 748.718,1344.893C748.718,1344.893 708.642,1338.133 698.222,1333.859C698.222,1333.859 670.323,1323.385 668.109,1320.74Z" style="fill:white;"/>
                    <path d="M755.042,712.945C755.042,712.945 717.37,736.189 740.614,774.662C740.614,774.662 760.064,802.528 788.064,789.918C788.064,789.918 811.576,784.36 815.637,757.215C815.637,757.215 821.408,733.063 796.4,715.109C796.4,715.109 780.156,701.376 755.042,712.945Z" style="fill:white;"/>
                    <path d="M711.332,737.979C711.332,737.979 703.851,714.681 682.263,711.903C682.263,711.903 660.675,707.414 646.355,728.788C646.355,728.788 632.248,756.788 646.996,777.521C646.996,777.521 661.317,796.041 685.897,793.193C685.897,793.193 700.859,778.589 705.133,768.116C705.133,768.116 713.206,744.177 712.589,740.971L711.332,737.979Z" style="fill:white;"/>
                    <path d="M749.12,688.583C749.12,688.583 748.354,693.398 758.203,689.13C758.203,689.13 775.493,684.315 784.358,687.051C784.358,687.051 808.324,690.334 821.018,699.417L821.566,697.447L818.83,693.945L806.792,684.425L795.411,679.172L783.811,676.326L774.626,676.764L767.833,678.077L762.361,680.157L754.482,684.753L749.12,688.583Z"/>
                    <path d="M696.746,693.232L695.635,694.108L689.835,692.228L681.956,690.168L674.619,690.606L668.277,692.228L662.148,694.874L658.537,697.063L651.533,702.311L652.491,697.063L654.707,693.123L661.71,686.995L669.816,682.144L678.454,682.144L686.114,684.149L691.203,687.872L695.745,691.044L696.746,693.232Z"/>
                </g>
                <path d="M651.55,719.379C651.55,719.379 645.539,702.347 659.565,668.616C659.565,668.616 678.861,603.27 764.209,597.017C764.209,597.017 816.642,587.777 869.483,640.025C869.483,640.025 902.896,668.783 898.268,730.018C898.268,730.018 893.259,765.978 885.837,780.821" style="fill:none;stroke:black;stroke-width:4.17px;"/>
                <path d="M856.138,797.772C856.138,797.772 887.278,760.418 902.648,800.166C902.648,800.166 914.931,847.112 862.03,853.791C862.03,853.791 854.036,854.94 843.777,846.22" style="fill:none;stroke:black;stroke-width:4.17px;"/>
                <path d="M893.365,812.705C893.365,812.705 889.945,785.175 858.311,821.597" style="fill:none;stroke:black;stroke-width:2.08px;"/>
                <path d="M863.612,817.849C863.612,817.849 878.317,820.913 866.177,837.157" style="fill:none;stroke:black;stroke-width:2.08px;"/>
                <path d="M750.299,796.916C750.299,796.916 770.818,814.699 800.057,798.797" style="fill:none;stroke:black;stroke-width:2.08px;"/>
                <path d="M816.473,784.947C816.473,784.947 821.944,781.185 823.312,776.226C823.312,776.226 825.877,774.345 832.546,779.817" style="fill:none;stroke:black;stroke-width:2.08px;"/>
                <g transform="matrix(1,0,0,1,0.136793,-1.094348)">
                    <path d="M652.491,794.009C652.491,794.009 657.45,804.445 672.839,802.733" style="fill:none;stroke:black;stroke-width:2.08px;"/>
                </g>
                <path d="M652.491,702.311C652.491,702.311 669.9,681.279 695.72,694.788L696.746,693.078C696.746,693.078 688.881,680.595 670.071,682.305C670.071,682.305 656.456,688.461 652.491,696.84" style="fill:none;stroke:black;stroke-width:2.08px;"/>
                <path d="M748.899,688.604C748.899,688.604 749.07,692.223 753.686,690.855C753.686,690.855 779.976,677.026 821.399,699.575C821.399,699.575 824.99,697.883 808.028,685.434C808.028,685.434 790.655,671.892 767.674,677.911C767.674,677.911 755.431,682.061 748.899,688.604Z" style="fill:none;stroke:black;stroke-width:2.08px;"/>
                <path d="M760.674,914.7C760.674,914.7 761.861,928.653 771.064,935.184" style="fill:none;stroke:black;stroke-width:2.08px;"/>
                <path d="M771.064,935.184C771.064,935.184 772.251,943.496 779.079,947.355" style="fill:none;stroke:black;stroke-width:2.08px;"/>
                <path d="M771.064,971.995C771.064,971.995 774.912,979.119 785.308,973.479" style="fill:none;stroke:black;stroke-width:2.08px;"/>
                <path d="M712.158,725.913C712.158,725.913 719.876,776.676 670.004,805.472C670.004,805.472 668.888,808.874 672.094,812.507C675.3,816.141 682.781,824.69 695.178,828.538" style="fill:none;stroke:black;stroke-width:4.17px;"/>
                <path d="M829.86,858.774C829.86,858.774 826.921,871.331 801.806,888.163" style="fill:none;stroke:black;stroke-width:4.17px;"/>
                <path d="M647.409,780.821C647.409,780.821 643.253,794.706 655.424,821.597C655.424,821.597 659.313,839.26 659.313,853.841C659.313,853.841 658.512,873.172 720.229,867.057C720.229,867.057 759.504,865.444 772.328,853.841" style="fill:none;stroke:black;stroke-width:4.17px;"/>
                <path d="M683.359,868.252C683.359,868.252 683.893,879.851 695.382,888.163C695.382,888.163 708.473,924.262 725.305,921.323C725.305,921.323 742.405,924.529 777.939,903.956" style="fill:none;stroke:black;stroke-width:4.17px;"/>
                <path d="M702.275,885.174C702.275,885.174 712.428,887.739 730.649,884.105" style="fill:none;stroke:black;stroke-width:2.08px;"/>
                <path d="M712.589,739.419C712.589,739.419 692.944,690.259 652.628,720.45C652.628,720.45 626.595,749.841 648.976,779.363C648.976,779.363 661.472,796.182 684.449,792.915" style="fill:none;stroke:black;stroke-width:4.17px;"/>
                <ellipse cx="774.648" cy="750.711" rx="41.572" ry="42.204" style="fill:none;stroke:black;stroke-width:4.17px;"/>
                <ellipse cx="770.913" cy="755.102" rx="7.273" ry="7.908" style="stroke:black;stroke-width:4.17px;"/>
                <g transform="matrix(1,0,0,1,-95.541664,1.709918)">
                    <ellipse cx="770.913" cy="755.102" rx="7.273" ry="7.908" style="stroke:black;stroke-width:4.17px;"/>
                </g>
                <path d="M633.985,730.672C633.985,730.672 636.892,735.289 641.68,735.46" style="fill:none;stroke:black;stroke-width:4.17px;"/>
                <path d="M637.833,725.913C637.833,725.913 642.022,729.304 645.784,728.107" style="fill:none;stroke:black;stroke-width:4.17px;"/>
                <path d="M809.765,727.138C809.765,727.138 813.869,728.164 818.828,725.913" style="fill:none;stroke:black;stroke-width:4.17px;"/>
                <path d="M812.501,733.066C812.501,733.066 819.682,734.605 824.983,730.672" style="fill:none;stroke:black;stroke-width:4.17px;"/>
                <path d="M845.695,848.565C845.695,848.565 831.127,906.612 844.868,937.528C844.868,937.528 868.961,965.271 918.388,980.968C918.388,980.968 932.749,986.645 939.428,990.987" style="fill:none;stroke:black;stroke-width:4.17px;"/>
                <path d="M752.74,915.844C752.74,915.844 758.529,934.268 751.998,956.236C751.998,956.236 740.42,969.298 698.86,982.063C698.86,982.063 694.704,982.434 687.876,987.146" style="fill:none;stroke:black;stroke-width:4.17px;"/>
                <path d="M717.48,975.618C717.48,975.618 706.281,999.874 697.672,1032.529C697.672,1032.529 691.141,1055.981 682.533,1068.746C673.924,1081.511 614.848,1149.492 684.611,1180.959C684.611,1180.959 711.951,1192.166 743.211,1173.196" style="fill:none;stroke:black;stroke-width:4.17px;"/>
                <path d="M735.463,1157.7C735.463,1157.7 779.005,1228.635 874.016,1149.685" style="fill:none;stroke:black;stroke-width:4.17px;"/>
                <path d="M838.968,1173.673C838.968,1173.673 910.868,1165.176 923.225,1158.903" style="fill:none;stroke:black;stroke-width:4.17px;"/>
                <path d="M732.052,970.457C732.052,970.457 710.678,1017.907 704.333,1069.98C704.333,1069.98 723.777,1130.42 811.054,1063.032C811.054,1063.032 825.915,1041.065 838.968,1006.035C838.968,1006.035 859.497,965.662 874.016,961.506" style="fill:none;stroke:black;stroke-width:4.17px;"/>
                <path d="M886.754,969.224C886.754,969.224 863.599,978.23 848.162,1028.201C848.162,1028.201 841.631,1056.501 843.412,1072.532C843.412,1072.532 875.176,1133.091 929.502,1114.686" style="fill:none;stroke:black;stroke-width:4.17px;"/>
                <path d="M682.855,1067.04C682.855,1067.04 683.745,1055.759 679.886,1046.556" style="fill:none;stroke:black;stroke-width:4.17px;"/>
                <path d="M735.463,1094.896C735.463,1094.896 746.977,1081.883 753.805,1061.399" style="fill:none;stroke:black;stroke-width:4.17px;"/>
                <path d="M719.973,1223.409C719.973,1223.409 737.479,1204.038 789.174,1222.407" style="fill:none;stroke:black;stroke-width:2.08px;"/>
                <path d="M685.908,1182.664C685.908,1182.664 682.903,1187.006 689.582,1236.433C689.582,1236.433 692.588,1253.132 686.242,1267.158C686.242,1267.158 655.962,1334.787 651.176,1410.097C651.176,1410.097 634.48,1497.504 697.209,1663.523C697.209,1663.523 701.35,1668.569 703.259,1697.577C703.259,1697.577 707.076,1728.111 715.472,1744.905C715.472,1744.905 717.222,1821.622 719.973,1841.851C719.973,1841.851 735.988,1932.614 735.463,2002.538C735.463,2002.538 736.422,2010.633 715.345,2025.179C715.345,2025.179 698.305,2038.434 637.39,2063.815C637.39,2063.815 621.466,2074.689 622.107,2089.437C622.107,2089.437 620.184,2098.842 645.191,2100.979C645.191,2100.979 656.658,2106.964 679.886,2103.33C679.886,2103.33 709.099,2099.056 724.489,2089.865C724.489,2089.865 749.127,2081.529 769.083,2083.239C769.083,2083.239 800.58,2084.094 815.542,2070.201C815.542,2070.201 821.954,2064.002 811.481,2037.498C811.481,2037.498 801.649,2008.644 799.939,1996.46C799.939,1996.46 798.068,1983.178 809.557,1912.274C809.557,1912.274 822.649,1861.14 821.58,1824.805C821.58,1824.805 824.023,1785.409 805.549,1723.813C805.549,1723.813 802.725,1654.675 807.687,1610.69" style="fill:none;stroke:black;stroke-width:4.17px;"/>
                <path d="M721.88,1459.391C721.88,1459.391 762.456,1480.383 789.174,1481.91C789.174,1481.91 799.188,1578.832 814.328,1635.223C814.328,1635.223 834.659,1711.386 839.239,1733.523C839.239,1733.523 842.197,1743.328 848.542,1753.013C848.542,1753.013 860.899,1842.182 865.241,1869.902C865.241,1869.902 885.221,1963.452 886.138,2018.875C886.138,2018.875 887.855,2034.814 854.993,2067.143C854.993,2067.143 840.084,2082.452 814.649,2096.345C814.649,2096.345 785.367,2114.085 811.657,2126.482C811.657,2126.482 817.471,2126.247 824.139,2126.76C824.139,2126.76 852.247,2135.822 874.016,2128.812C874.016,2128.812 899.547,2125.05 921.263,2111.2C921.263,2111.2 945.543,2101.282 954.093,2099.059C954.093,2099.059 962.472,2096.323 959.394,2079.224C956.316,2062.125 951.186,2038.357 949.818,2031.175C948.45,2023.994 946.74,1999.713 948.45,1989.624C948.45,1989.624 947.454,1978.211 957.844,1922.995C957.844,1922.995 967.938,1854.42 964.375,1822.656C964.375,1822.656 964.969,1806.711 952.501,1755.651C952.501,1755.651 944.783,1734.277 937.955,1702.81C937.955,1702.81 935.58,1680.456 947.03,1597.175C947.03,1597.175 951.992,1539.849 954.664,1495.956C954.664,1495.956 956.763,1469.563 958.29,1454.678C958.29,1454.678 965.16,1398.189 952.183,1354.296C952.183,1354.296 941.878,1312.367 916.687,1261.195C916.687,1261.195 911.725,1234.481 915.923,1207.748C915.923,1207.748 930.427,1111.549 937.679,1085.977" style="fill:none;stroke:black;stroke-width:4.17px;"/>
                <path d="M668.214,1320.263C668.214,1320.263 763.48,1386.779 934.409,1301.193" style="fill:none;stroke:black;stroke-width:4.17px;"/>
                <path d="M795.234,1524.218C795.234,1524.218 885.405,1536.575 952.867,1506.518" style="fill:none;stroke:black;stroke-width:4.17px;"/>
                <path d="M655.635,1506.518C655.635,1506.518 678.679,1532.411 792.228,1513.954" style="fill:none;stroke:black;stroke-width:4.17px;"/>
            </g>
            <g id="r-hand" serif:id="r hand" transform="matrix(1,0,0,1,-80.603108,-18.479582)">
                <path d="M1009.72,1006.039C1009.72,1006.039 935.698,999.517 995.248,1121.239C995.248,1121.239 1015.657,1190.361 1018.663,1203.72C1021.669,1217.079 1034.694,1258.825 1035.028,1265.17C1035.028,1265.17 1032.096,1312.241 1034.768,1336.584C1034.768,1336.584 1040.594,1429.557 1037.254,1443.25C1037.254,1443.25 1023.428,1473.514 1022.145,1479.071C1022.145,1479.071 1020.008,1504.292 1018.298,1511.132C1016.588,1517.972 1018.298,1514.124 1018.298,1514.124L1018.298,1511.132C1018.298,1511.132 1013.596,1527.804 1013.809,1531.651C1013.809,1531.651 1013.809,1540.842 1026.634,1531.01C1026.634,1531.01 1033.687,1522.46 1034.542,1519.254C1034.542,1519.254 1035.825,1507.712 1038.817,1507.499L1042.237,1510.063L1045.443,1525.239L1044.802,1545.544L1040.099,1561.788C1040.099,1561.788 1034.115,1583.861 1039.672,1584.687L1047.153,1580.598L1052.069,1584.687L1058.163,1584.687L1065.107,1576.75L1071.02,1576.536L1077.29,1571.62L1084.985,1564.781L1092.679,1552.384L1102.298,1516.185L1094.389,1451.071L1100.588,1395.499L1106.605,1325.392L1106.605,1268.538L1102.725,1247.164L1094.389,1187.958L1083.916,1127.469L1069.53,1062.706C1069.53,1062.706 1055.916,1025.088 1039.886,1018.035L1020.649,1007.989L1009.72,1006.039Z" style="fill:rgb(241,188,12);"/>
                <path d="M991.792,1108.82C991.792,1108.82 1031.868,1246.415 1034.54,1265.562C1034.54,1265.562 1032.491,1309.65 1036.054,1363.929C1036.054,1363.929 1039.171,1422.311 1036.499,1443.304C1036.499,1443.304 1027.53,1465.696 1021.852,1479.202C1021.852,1479.202 1020.553,1499.665 1018.772,1507.086C1018.772,1507.086 1018.475,1517.773 1014.319,1526.976C1014.319,1526.976 1009.57,1540.928 1025.006,1531.726C1025.006,1531.726 1034.506,1523.117 1035.1,1515.102C1035.1,1515.102 1037.771,1505.899 1040.146,1506.493C1040.146,1506.493 1049.052,1518.07 1045.193,1545.975C1045.193,1545.975 1038.157,1565.88 1037.89,1573.628C1037.89,1573.628 1034.951,1597.406 1051.783,1575.231C1051.783,1575.231 1065.142,1553.857 1066.478,1548.513C1066.478,1548.513 1067.012,1523.132 1071.02,1512.979" style="fill:none;stroke:black;stroke-width:4.17px;"/>
                <path d="M1090.524,1516.185C1090.524,1516.185 1084.379,1542.101 1083.844,1549.849C1083.844,1549.849 1065.409,1582.656 1052.852,1584.687C1052.852,1584.687 1048.043,1584.047 1048.577,1580.574" style="fill:none;stroke:black;stroke-width:4.17px;"/>
                <path d="M1102.279,1516.185C1102.279,1516.185 1096.134,1539.974 1092.928,1552.125C1092.928,1552.125 1076.898,1578.17 1064.073,1577.902" style="fill:none;stroke:black;stroke-width:4.17px;"/>
                <path d="M1102.279,1516.185C1102.279,1516.185 1093.997,1458.208 1094.531,1450.193C1094.531,1450.193 1110.96,1310.371 1105.49,1266.701C1105.49,1266.701 1090.825,1158.031 1079.169,1108.82C1079.169,1108.82 1072.506,1073.5 1066.829,1057.136C1066.829,1057.136 1055.808,1012.05 1009.72,1006.039" style="fill:none;stroke:black;stroke-width:4.17px;"/>
            </g>
        </g>
    </g>
</svg>
