<?xml version="1.0" encoding="UTF-8" standalone="no"?>
<!DOCTYPE svg PUBLIC "-//W3C//DTD SVG 1.1//EN" "http://www.w3.org/Graphics/SVG/1.1/DTD/svg11.dtd">
<svg width="100%" height="100%" viewBox="0 0 423 1540" version="1.1" xmlns="http://www.w3.org/2000/svg" xmlns:xlink="http://www.w3.org/1999/xlink" xml:space="preserve" xmlns:serif="http://www.serif.com/" style="fill-rule:evenodd;clip-rule:evenodd;stroke-linecap:round;stroke-linejoin:round;stroke-miterlimit:1.5;">
    <g transform="matrix(1,0,0,1,-587.730046,-594.302796)">
        <g>
            <g id="l-hand" serif:id="l hand" transform="matrix(1,0,0,1,81.888788,-10.663879)">
                <path d="M617.451,994.878C617.451,994.878 687.816,988.342 636.719,1116.869C636.719,1116.869 618.467,1242.591 617.451,1251.408C617.451,1251.408 616.169,1302.171 607.886,1321.14C607.886,1321.14 567.359,1441.903 564.779,1446.178C564.779,1446.178 571.935,1471.984 559.795,1498.4C559.795,1498.4 555.862,1505.322 557.914,1513.359C557.914,1513.359 560.308,1521.738 564.241,1524.816C564.241,1524.816 569.542,1531.806 564.412,1535.759C564.412,1535.759 565.78,1548.262 553.981,1545.868C553.981,1545.868 553.981,1548.604 550.219,1550.485L547.484,1552.125L542.354,1550.656L535.343,1547.749C535.343,1547.749 520.689,1536.976 507.925,1508.079C507.925,1508.079 508.497,1482.943 510.72,1476.445C512.943,1469.948 516.192,1447.548 519.441,1440.708C522.69,1433.868 524.4,1424.635 525.939,1416.598C527.478,1408.562 535.856,1342.046 536.369,1337.6C536.882,1333.154 543.722,1271.426 544.577,1266.98C545.432,1262.535 557.059,1221.839 557.743,1217.564C558.427,1213.289 562.688,1140.789 562.688,1140.789C562.688,1140.789 564.668,1073.952 566.378,1067.112C568.088,1060.273 569.798,1035.051 583.05,1017.525C583.05,1017.525 598.012,998.288 609.126,996.792L617.451,994.878Z" style="fill:rgb(241,188,12);"/>
                <path d="M617.451,994.878C617.451,994.878 563.215,995.32 564.35,1107.759C564.35,1107.759 561.656,1195.574 556.313,1222.737C556.313,1222.737 547.852,1254.83 544.799,1266.28C544.799,1266.28 534.494,1349.104 532.203,1373.532C532.203,1373.532 526.478,1418.951 522.662,1430.402C522.662,1430.402 504.246,1485.387 508.587,1509.433C508.587,1509.433 526.25,1551.828 547.327,1552.125C547.327,1552.125 559.475,1548.545 544.086,1532.728C544.086,1532.728 535.109,1523.751 535.322,1521.186" style="fill:none;stroke:black;stroke-width:4.17px;"/>
                <path d="M551.81,1545.078C551.81,1545.078 556.91,1546.835 559.261,1546.194C561.612,1545.553 567.383,1542.988 560.971,1534.011C560.971,1534.011 547.506,1520.331 546.864,1514.774" style="fill:none;stroke:black;stroke-width:4.17px;"/>
                <path d="M563.9,1536.148C563.9,1536.148 570.677,1532.515 563.9,1523.965C563.9,1523.965 551.139,1515.202 560.544,1495.751C560.544,1495.751 572.6,1472.454 563.9,1446.591C563.9,1446.591 604.016,1336.877 609.36,1317.285C609.36,1317.285 618.122,1283.442 617.451,1251.381C617.451,1251.381 633.813,1133.287 636.819,1116.254" style="fill:none;stroke:black;stroke-width:4.17px;"/>
                <path d="M546.864,1438.033C546.864,1438.033 560.207,1449.922 551.123,1481.449C551.123,1481.449 549.092,1493.872 550.161,1503.49C550.161,1503.49 542.253,1524.223 531.352,1519.735C531.352,1519.735 525.367,1519.307 528.573,1507.551C528.573,1507.551 530.069,1500.284 528.787,1494.941C528.787,1494.941 530.069,1476.987 527.077,1472.284" style="fill:none;stroke:black;stroke-width:4.17px;"/>
            </g>
            <g id="body">
                <g>
                    <path d="M688.425,989.251C688.425,989.251 653.59,1012.555 681.91,1048.089L684.689,1056.281L687.254,1067.053L678.382,1087.23L673.746,1106.21L672.891,1128.952L675.456,1144.341L680.072,1155.622L685.202,1164.526L691.016,1172.213L694.136,1175.575L694.265,1203.312L700.677,1257.388C700.677,1257.388 696.562,1281.167 691.219,1291.213C685.875,1301.259 677.821,1316.808 675.042,1326.426L666.852,1350.092C666.852,1350.092 655.809,1389.079 652.14,1410.453C650.647,1419.149 647.669,1456.966 652.746,1496.483C657.483,1533.363 671.639,1601.749 690.595,1643.583C690.595,1643.583 699.323,1669.532 700.926,1676.479C700.926,1676.479 704.934,1729.112 715.621,1744.341C715.621,1744.341 717.224,1790.295 717.758,1799.379C718.293,1808.463 719.322,1848.539 724.017,1866.974C728.712,1885.41 733.521,1943.654 734.056,1951.669C734.59,1959.684 736.728,1999.493 735.125,2004.302C733.521,2009.111 726.147,2017.527 719.949,2022.016C713.751,2026.505 685.964,2044.245 671.216,2049.375C656.468,2054.504 638.942,2062.413 635.522,2065.191C632.102,2067.97 626.117,2073.955 623.98,2080.581C621.842,2087.207 621.629,2092.764 625.049,2094.901C628.468,2097.039 641.934,2102.168 644.713,2101.1C647.491,2100.031 651.98,2105.551 665.232,2104.501C678.484,2103.451 692.59,2102.382 704.132,2098.321C715.674,2094.26 724.438,2088.489 728.712,2087.848C732.987,2087.207 759.918,2080.794 769.537,2082.932C779.155,2085.069 803.949,2079.726 808.651,2075.878C813.353,2072.031 816.773,2071.39 816.987,2065.191C817.201,2058.993 816.346,2044.245 813.14,2038.901C809.933,2033.558 800.101,2001.497 799.888,1996.153C799.674,1990.81 806.941,1933.955 807.369,1929.467C807.796,1924.978 816.987,1872.184 818.697,1866.627C820.407,1861.07 824.837,1810.36 817.412,1768.04C816.354,1762.012 807.044,1734.078 806.086,1725.773C804.804,1714.658 802.108,1666.353 802.321,1659.941C802.535,1653.529 803.95,1530.71 804.805,1527.504C805.66,1524.298 822.384,1627.987 826.445,1642.521C830.506,1657.055 840.071,1718.131 840.926,1724.33C841.781,1730.528 849.146,1751.849 850.856,1756.124C852.566,1760.399 856.79,1809.835 858.66,1824.262C860.53,1838.69 868.546,1889.987 871.485,1903.613C874.423,1917.239 883.507,1971.743 883.775,1979.491C884.042,1987.239 886.714,2016.628 885.912,2021.704C885.11,2026.781 872.019,2049.945 866.034,2056.143C860.049,2062.342 839.53,2081.151 832.477,2085.212C825.424,2089.273 808.538,2101.134 805.546,2104.501C802.553,2107.868 794.859,2118.769 811.958,2125.822L823.714,2125.822C823.714,2125.822 851.714,2136.082 870.095,2129.67C870.095,2129.67 900.233,2123.685 909.637,2117.7C909.637,2117.7 929.729,2105.836 936.782,2104.501C936.782,2104.501 954.95,2099.532 956.446,2097.181C957.942,2094.83 960.935,2090.128 960.293,2083.929C959.652,2077.731 952.599,2046.525 952.171,2043.105C951.744,2039.685 948.11,2023.227 948.538,2014.678C948.965,2006.128 947.255,1987.105 952.599,1953.334C957.942,1919.563 961.576,1898.189 962.431,1890.281C963.286,1882.373 966.347,1821.884 965.137,1813.762C963.927,1805.64 953.454,1757.976 951.103,1751.564C948.751,1745.152 938.064,1709.243 938.492,1702.831C938.919,1696.419 937.423,1660.938 942.981,1625.671C948.538,1590.404 950.461,1565.824 950.248,1560.481C950.034,1555.137 952.171,1499.351 952.385,1495.717C952.599,1492.084 949.975,1454.351 950.331,1448.956C951.744,1427.499 935.297,1376.853 932.27,1369.575C921.333,1343.285 906.419,1321.151 901.289,1309.396C899.593,1305.507 894.858,1293.909 885.496,1272.573C878.554,1256.751 886.446,1211.978 889.011,1205.138C889.011,1205.138 893.5,1172.596 900.42,1155.363C905.902,1141.71 908.942,1123.276 910.118,1118.681C912.469,1109.49 919.736,1096.066 921.072,1089.921C921.072,1089.921 993.049,1014.295 939.08,989.982C885.11,965.67 902.263,976.223 889.198,968.315C876.133,960.406 854.7,948.223 843.508,937.109C843.508,937.109 837.497,913.597 838.968,903.765C840.439,893.933 840.011,871.594 845.996,848.565C845.996,848.565 853.05,854.968 860.231,853.258C860.231,853.258 884.683,852.575 892.72,840.092C900.756,827.61 902.979,823.506 903.834,810.169C904.689,796.831 893.233,783.299 886.393,781.858C886.393,781.858 886.703,778.877 889.198,773.405C891.694,767.934 898.37,733.735 898.708,726.725C899.046,719.714 896.62,682.096 889.198,671.152C881.776,660.209 884.79,650.589 854.93,626.865C854.93,626.865 823.842,602.207 793.277,598.573C793.277,598.573 753.933,593.016 721.88,606.268C721.88,606.268 680.85,623.794 671.018,647.519C671.018,647.519 653.033,672.1 650.27,699.672C650.27,699.672 650.468,713.351 650.27,720.405L648.362,725.962L642.591,736.863C642.591,736.863 633.614,756.17 648.148,780.821C648.148,780.821 642.804,797.565 655.415,820.862C655.415,820.862 659.476,846.21 659.904,853.841C659.904,853.841 659.476,863.703 682.56,868.252C682.56,868.252 688.117,884.771 694.957,887.549C694.957,887.549 704.789,925.286 733.858,922.127L752.453,916.404L753.735,921.748C753.735,921.748 757.583,940.984 751.812,957.228C751.812,957.228 728.789,969.215 721.491,972.84C714.193,976.465 702.513,982.449 697.376,984.159C692.238,985.868 688.425,989.251 688.425,989.251Z" style="fill:rgb(241,188,12);"/>
                    <path d="M717.768,975.618C717.768,975.618 708.951,993.674 701.203,1017.987C701.203,1017.987 695.026,1040.563 690.836,1059.629C690.836,1059.629 680.737,1077.811 676.42,1092.26C673.325,1102.615 671.52,1125.518 674.173,1135.563C676.826,1145.609 675.661,1145.453 688.485,1168.537C699.909,1189.1 740.937,1170.381 747.99,1164.397C747.99,1164.397 774.935,1189.655 854.104,1168.537L868.411,1164.355C868.411,1164.355 892.134,1159.917 899.348,1155.964C899.348,1155.964 909.022,1117.759 910.091,1115.621C910.091,1115.621 921.034,1118.614 902.225,1117.118C883.416,1115.621 877.431,1108.782 871.019,1104.934C871.019,1104.934 849.859,1087.408 843.447,1072.66C843.447,1072.66 842.378,1046.797 849.645,1023.072C849.645,1023.072 865.676,979.042 886.408,968.782C886.408,968.782 876.157,962.156 874.016,961.301C874.016,961.301 860.352,967.072 838.968,1004.69C838.968,1004.69 822.5,1051.286 810.958,1062.4C810.958,1062.4 776.546,1094.903 736.577,1094.896C736.577,1094.896 716.547,1096.599 704.333,1070.095C704.333,1070.095 708.577,1033.759 712.852,1024.996C717.126,1016.232 722.684,986.95 732.302,968.996L717.768,975.618Z" style="fill:white;"/>
                    <path d="M675.042,1324.748C675.042,1324.748 658.677,1379.252 652.011,1408.374C652.011,1408.374 647.59,1440.007 649.086,1456.251C650.582,1472.496 654.429,1502.847 655.284,1506.694C655.284,1506.694 671.778,1526.364 743.986,1519.518C816.195,1512.673 799.822,1515.345 803.536,1513.208L806.399,1523.777C806.399,1523.777 829.138,1528.896 848.107,1526.224C848.107,1526.224 912.593,1527.614 951.76,1505.866C951.76,1505.866 951.327,1449.995 949.777,1438.945C949.777,1438.945 942.521,1398.637 932.742,1369.541C932.742,1369.541 915.988,1337.287 906.369,1318.051L904.898,1318.051C904.898,1318.051 869.417,1331.657 838.692,1336.199C838.692,1336.199 791.655,1347.415 748.907,1343.594C748.907,1343.594 710.845,1339.843 700.426,1335.568C700.426,1335.568 677.257,1327.393 675.042,1324.748Z" style="fill:white;"/>
                    <path d="M755.042,712.945C755.042,712.945 717.37,736.189 740.614,774.662C740.614,774.662 760.064,802.528 788.064,789.918C788.064,789.918 811.576,784.36 815.637,757.215C815.637,757.215 821.408,733.063 796.4,715.109C796.4,715.109 780.156,701.376 755.042,712.945Z" style="fill:white;"/>
                    <path d="M711.332,737.979C711.332,737.979 703.851,714.681 682.263,711.903C682.263,711.903 660.675,707.414 646.355,728.788C646.355,728.788 632.248,756.788 646.996,777.521C646.996,777.521 661.317,796.041 685.897,793.193C685.897,793.193 700.859,778.589 705.133,768.116C705.133,768.116 713.206,744.177 712.589,740.971L711.332,737.979Z" style="fill:white;"/>
                    <path d="M749.12,688.583C749.12,688.583 748.354,693.398 758.203,689.13C758.203,689.13 775.493,684.315 784.358,687.051C784.358,687.051 808.324,690.334 821.018,699.417L821.566,697.447L818.83,693.945L806.792,684.425L795.411,679.172L783.811,676.326L774.626,676.764L767.833,678.077L762.361,680.157L754.482,684.753L749.12,688.583Z"/>
                    <path d="M696.746,693.232L695.635,694.108L689.835,692.228L681.956,690.168L674.619,690.606L668.277,692.228L662.148,694.874L658.537,697.063L651.533,702.311L652.491,697.063L654.707,693.123L661.71,686.995L669.816,682.144L678.454,682.144L686.114,684.149L691.203,687.872L695.745,691.044L696.746,693.232Z"/>
                </g>
                <path d="M651.55,719.379C651.55,719.379 645.539,702.347 659.565,668.616C659.565,668.616 678.861,603.27 764.209,597.017C764.209,597.017 816.642,587.777 869.483,640.025C869.483,640.025 902.896,668.783 898.268,730.018C898.268,730.018 893.259,765.978 885.837,780.821" style="fill:none;stroke:black;stroke-width:4.17px;"/>
                <path d="M856.138,797.772C856.138,797.772 887.278,760.418 902.648,800.166C902.648,800.166 914.931,847.112 862.03,853.791C862.03,853.791 854.036,854.94 843.777,846.22" style="fill:none;stroke:black;stroke-width:4.17px;"/>
                <path d="M893.365,812.705C893.365,812.705 889.945,785.175 858.311,821.597" style="fill:none;stroke:black;stroke-width:2.08px;"/>
                <path d="M863.612,817.849C863.612,817.849 878.317,820.913 866.177,837.157" style="fill:none;stroke:black;stroke-width:2.08px;"/>
                <path d="M652.491,702.311C652.491,702.311 669.9,681.279 695.72,694.788L696.746,693.078C696.746,693.078 688.881,680.595 670.071,682.305C670.071,682.305 656.456,688.461 652.491,696.84" style="fill:none;stroke:black;stroke-width:2.08px;"/>
                <path d="M748.899,688.604C748.899,688.604 749.07,692.223 753.686,690.855C753.686,690.855 779.976,677.026 821.399,699.575C821.399,699.575 824.99,697.883 808.028,685.434C808.028,685.434 790.655,671.892 767.674,677.911C767.674,677.911 755.431,682.061 748.899,688.604Z" style="fill:none;stroke:black;stroke-width:2.08px;"/>
                <path d="M712.158,725.913C712.158,725.913 719.876,776.676 670.004,805.472C670.004,805.472 668.888,808.874 672.094,812.507C675.3,816.141 682.781,824.69 695.178,828.538" style="fill:none;stroke:black;stroke-width:4.17px;"/>
                <path d="M829.86,858.774C829.86,858.774 826.921,871.331 801.806,888.163" style="fill:none;stroke:black;stroke-width:4.17px;"/>
                <path d="M647.409,780.821C647.409,780.821 643.253,794.706 655.424,821.597C655.424,821.597 659.313,839.26 659.313,853.841C659.313,853.841 658.512,873.172 720.229,867.057C720.229,867.057 759.504,865.444 772.328,853.841" style="fill:none;stroke:black;stroke-width:4.17px;"/>
                <path d="M683.359,868.252C683.359,868.252 683.893,879.851 695.382,888.163C695.382,888.163 708.473,924.262 725.305,921.323C725.305,921.323 742.405,924.529 777.939,903.956" style="fill:none;stroke:black;stroke-width:4.17px;"/>
                <path d="M702.275,885.174C702.275,885.174 712.428,887.739 730.649,884.105" style="fill:none;stroke:black;stroke-width:2.08px;"/>
                <path d="M712.589,739.419C712.589,739.419 692.944,690.259 652.628,720.45C652.628,720.45 626.595,749.841 648.976,779.363C648.976,779.363 661.472,796.182 684.449,792.915" style="fill:none;stroke:black;stroke-width:4.17px;"/>
                <ellipse cx="774.648" cy="750.711" rx="41.572" ry="42.204" style="fill:none;stroke:black;stroke-width:4.17px;"/>
                <ellipse cx="770.913" cy="755.102" rx="7.273" ry="7.908" style="stroke:black;stroke-width:4.17px;"/>
                <g transform="matrix(1,0,0,1,-95.541664,1.709918)">
                    <ellipse cx="770.913" cy="755.102" rx="7.273" ry="7.908" style="stroke:black;stroke-width:4.17px;"/>
                </g>
                <path d="M633.985,730.672C633.985,730.672 636.892,735.289 641.68,735.46" style="fill:none;stroke:black;stroke-width:4.17px;"/>
                <path d="M637.833,725.913C637.833,725.913 642.022,729.304 645.784,728.107" style="fill:none;stroke:black;stroke-width:4.17px;"/>
                <path d="M809.765,727.138C809.765,727.138 813.869,728.164 818.828,725.913" style="fill:none;stroke:black;stroke-width:4.17px;"/>
                <path d="M812.501,733.066C812.501,733.066 819.682,734.605 824.983,730.672" style="fill:none;stroke:black;stroke-width:4.17px;"/>
                <path d="M845.695,848.565C845.695,848.565 831.127,906.612 844.868,937.528C844.868,937.528 868.961,965.271 918.388,980.968C918.388,980.968 932.749,986.645 939.428,990.987" style="fill:none;stroke:black;stroke-width:4.17px;"/>
                <path d="M752.74,915.844C752.74,915.844 758.529,934.268 751.998,956.236C751.998,956.236 740.42,969.298 698.86,982.063C698.86,982.063 694.704,982.434 687.876,987.146" style="fill:none;stroke:black;stroke-width:4.17px;"/>
                <g transform="matrix(1.043458,0,0,1.009605,-32.298617,-9.370518)">
                    <path d="M717.48,975.618C717.48,975.618 706.281,999.874 697.672,1032.529C697.672,1032.529 697.116,1056.275 688.507,1069.04C679.898,1081.805 662.359,1132.144 695.137,1171.55C695.137,1171.55 714.427,1182.668 745.686,1163.699" style="fill:none;stroke:black;stroke-width:4.06px;"/>
                </g>
                <g transform="matrix(1.086774,0,0,1.098503,-63.8194,-113.247776)">
                    <path d="M744.969,1160.943C744.969,1160.943 775.181,1193.504 867.46,1158.873" style="fill:none;stroke:black;stroke-width:3.81px;"/>
                </g>
                <path d="M864.231,1164.826C864.231,1164.826 886.043,1162.059 898.4,1155.786" style="fill:none;stroke:black;stroke-width:4.17px;"/>
                <path d="M732.052,970.457C732.052,970.457 710.678,1017.907 704.333,1069.98C704.333,1069.98 723.777,1130.42 811.054,1063.032C811.054,1063.032 825.915,1041.065 838.968,1006.035C838.968,1006.035 859.497,965.662 874.016,961.506" style="fill:none;stroke:black;stroke-width:4.17px;"/>
                <path d="M886.754,969.224C886.754,969.224 863.599,978.23 848.162,1028.201C848.162,1028.201 841.631,1056.501 843.412,1072.532C843.412,1072.532 867.161,1121.811 910.206,1114.983" style="fill:none;stroke:black;stroke-width:4.17px;"/>
                <path d="M687.011,1064.665C687.011,1064.665 685.823,1053.978 681.964,1044.775" style="fill:none;stroke:black;stroke-width:4.17px;"/>
                <path d="M743.211,1092.115C743.211,1092.115 749.502,1076.678 764.939,1062.726" style="fill:none;stroke:black;stroke-width:4.17px;"/>
                <path d="M693.471,1175.575C693.471,1175.575 691.586,1201.701 700.937,1256.138C700.937,1256.138 698.963,1271.359 691.615,1291.063C691.615,1291.063 669.737,1328.79 652.066,1411.581C652.066,1411.581 634.48,1497.504 697.209,1663.523C697.209,1663.523 701.35,1668.569 703.259,1697.577C703.259,1697.577 707.076,1728.111 715.472,1744.905C715.472,1744.905 717.222,1821.622 719.973,1841.851C719.973,1841.851 735.988,1932.614 735.463,2002.538C735.463,2002.538 736.422,2010.633 715.345,2025.179C715.345,2025.179 698.305,2038.434 637.39,2063.815C637.39,2063.815 621.466,2074.689 622.107,2089.437C622.107,2089.437 620.184,2098.842 645.191,2100.979C645.191,2100.979 656.658,2106.964 679.886,2103.33C679.886,2103.33 709.099,2099.056 724.489,2089.865C724.489,2089.865 749.127,2081.529 769.083,2083.239C769.083,2083.239 800.58,2084.094 815.542,2070.201C815.542,2070.201 821.954,2064.002 811.481,2037.498C811.481,2037.498 801.649,2008.644 799.939,1996.46C799.939,1996.46 798.068,1983.178 809.557,1912.274C809.557,1912.274 822.649,1861.14 821.58,1824.805C821.58,1824.805 825.168,1787.699 806.694,1726.103C806.694,1726.103 800.435,1651.24 802.343,1604.583C802.343,1604.583 803.819,1530.828 804.964,1522.813" style="fill:none;stroke:black;stroke-width:4.17px;"/>
                <path d="M736.574,1466.404C736.574,1466.404 775.814,1483.389 802.533,1484.915C802.533,1484.915 803.869,1514.84 809.457,1552.296C813.686,1580.643 821.499,1624.623 828.021,1648.916C828.021,1648.916 840.862,1710.718 843.104,1733.523C843.104,1733.523 846.204,1747.001 852.55,1756.686C852.55,1756.686 860.899,1842.182 865.241,1869.902C865.241,1869.902 885.221,1963.452 886.138,2018.875C886.138,2018.875 887.855,2034.814 854.993,2067.143C854.993,2067.143 840.084,2082.452 814.649,2096.345C814.649,2096.345 785.367,2114.085 811.657,2126.482C811.657,2126.482 817.471,2126.247 824.139,2126.76C824.139,2126.76 852.247,2135.822 874.016,2128.812C874.016,2128.812 899.547,2125.05 921.263,2111.2C921.263,2111.2 945.543,2101.282 954.093,2099.059C954.093,2099.059 962.472,2096.323 959.394,2079.224C956.316,2062.125 951.186,2038.357 949.818,2031.175C948.45,2023.994 946.74,1999.713 948.45,1989.624C948.45,1989.624 947.454,1978.211 957.844,1922.995C957.844,1922.995 967.938,1854.42 964.375,1822.656C964.375,1822.656 964.969,1806.711 952.501,1755.651C952.501,1755.651 944.783,1734.277 937.955,1702.81C937.955,1702.81 933.576,1684.797 945.026,1601.517C945.026,1601.517 951.324,1545.193 951.658,1501.968C951.658,1501.968 953.28,1478.342 950.799,1459.449C950.799,1459.449 951.589,1421.811 932.124,1368.758C932.124,1368.758 908.799,1323.436 884.838,1273.748C884.838,1273.748 880.979,1235.966 890.69,1194.728C890.69,1194.728 905.279,1124.993 920.546,1089.921" style="fill:none;stroke:black;stroke-width:4.17px;"/>
                <path d="M678.382,1325.755C678.382,1325.755 740.982,1372.243 904.898,1318.051" style="fill:none;stroke:black;stroke-width:4.17px;"/>
                <path d="M806.514,1524.812C806.514,1524.812 882.733,1537.577 950.195,1507.52" style="fill:none;stroke:black;stroke-width:4.17px;"/>
                <path d="M655.635,1506.518C655.635,1506.518 688.772,1532.114 802.321,1513.657" style="fill:none;stroke:black;stroke-width:4.17px;"/>
            </g>
            <g id="r-hand" serif:id="r hand" transform="matrix(1,0,0,1,-98.058834,-26.272177)">
                <path d="M1009.72,1006.039C1009.72,1006.039 935.698,999.517 995.248,1121.239C995.248,1121.239 1015.657,1190.361 1018.663,1203.72C1021.669,1217.079 1034.694,1258.825 1035.028,1265.17C1035.028,1265.17 1032.096,1312.241 1034.768,1336.584C1034.768,1336.584 1040.594,1429.557 1037.254,1443.25C1037.254,1443.25 1023.428,1473.514 1022.145,1479.071C1022.145,1479.071 1020.008,1504.292 1018.298,1511.132C1016.588,1517.972 1018.298,1514.124 1018.298,1514.124L1018.298,1511.132C1018.298,1511.132 1013.596,1527.804 1013.809,1531.651C1013.809,1531.651 1013.809,1540.842 1026.634,1531.01C1026.634,1531.01 1033.687,1522.46 1034.542,1519.254C1034.542,1519.254 1035.825,1507.712 1038.817,1507.499L1042.237,1510.063L1045.443,1525.239L1044.802,1545.544L1040.099,1561.788C1040.099,1561.788 1034.115,1583.861 1039.672,1584.687L1047.153,1580.598L1052.069,1584.687L1058.163,1584.687L1065.107,1576.75L1071.02,1576.536L1077.29,1571.62L1084.985,1564.781L1092.679,1552.384L1102.298,1516.185L1094.389,1451.071L1100.588,1395.499L1106.605,1325.392L1106.605,1268.538L1102.725,1247.164L1094.389,1187.958L1083.916,1127.469L1069.53,1062.706C1069.53,1062.706 1055.916,1025.088 1039.886,1018.035L1020.649,1007.989L1009.72,1006.039Z" style="fill:rgb(241,188,12);"/>
                <path d="M991.792,1108.82C991.792,1108.82 1031.868,1246.415 1034.54,1265.562C1034.54,1265.562 1032.491,1309.65 1036.054,1363.929C1036.054,1363.929 1039.171,1422.311 1036.499,1443.304C1036.499,1443.304 1027.53,1465.696 1021.852,1479.202C1021.852,1479.202 1020.553,1499.665 1018.772,1507.086C1018.772,1507.086 1018.475,1517.773 1014.319,1526.976C1014.319,1526.976 1009.57,1540.928 1025.006,1531.726C1025.006,1531.726 1034.506,1523.117 1035.1,1515.102C1035.1,1515.102 1037.771,1505.899 1040.146,1506.493C1040.146,1506.493 1049.052,1518.07 1045.193,1545.975C1045.193,1545.975 1038.157,1565.88 1037.89,1573.628C1037.89,1573.628 1034.951,1597.406 1051.783,1575.231C1051.783,1575.231 1065.142,1553.857 1066.478,1548.513C1066.478,1548.513 1067.012,1523.132 1071.02,1512.979" style="fill:none;stroke:black;stroke-width:4.17px;"/>
                <path d="M1090.524,1516.185C1090.524,1516.185 1084.379,1542.101 1083.844,1549.849C1083.844,1549.849 1065.409,1582.656 1052.852,1584.687C1052.852,1584.687 1048.043,1584.047 1048.577,1580.574" style="fill:none;stroke:black;stroke-width:4.17px;"/>
                <path d="M1102.279,1516.185C1102.279,1516.185 1096.134,1539.974 1092.928,1552.125C1092.928,1552.125 1076.898,1578.17 1064.073,1577.902" style="fill:none;stroke:black;stroke-width:4.17px;"/>
                <path d="M1102.279,1516.185C1102.279,1516.185 1093.997,1458.208 1094.531,1450.193C1094.531,1450.193 1110.96,1310.371 1105.49,1266.701C1105.49,1266.701 1090.825,1158.031 1079.169,1108.82C1079.169,1108.82 1072.506,1073.5 1066.829,1057.136C1066.829,1057.136 1055.808,1012.05 1009.72,1006.039" style="fill:none;stroke:black;stroke-width:4.17px;"/>
            </g>
        </g>
    </g>
</svg>
