<?xml version="1.0" encoding="UTF-8" standalone="no"?>
<svg width="100%" height="100%" viewBox="0 0 541 379" version="1.1" xmlns="http://www.w3.org/2000/svg" xmlns:xlink="http://www.w3.org/1999/xlink" xml:space="preserve" xmlns:serif="http://www.serif.com/" style="fill-rule:evenodd;clip-rule:evenodd;stroke-linecap:round;stroke-linejoin:round;stroke-miterlimit:1.5;">
    <g transform="matrix(1,0,0,1,-562.811307,-1229.612342)">
        <g>
            <g>
                <path d="M564.895,1240.157C564.895,1240.157 568.054,1274.367 584.131,1315.779L585.551,1337.839L587.081,1352.064L580.958,1361.401L572.338,1395.132L569.652,1414.475C569.652,1414.475 568.314,1416.696 571.207,1419.439C572.955,1421.095 575.811,1411.019 575.773,1416.818C575.716,1425.474 571.322,1438.919 571.322,1438.919L571.322,1481.645L579.614,1519.518C579.614,1519.518 584.03,1529.703 591.698,1536.676C595.749,1540.36 606.722,1543.561 612.074,1549.066C614.516,1551.578 613.571,1551.496 614.297,1555.292C617.058,1569.73 620.396,1590.448 620.396,1590.448L624.737,1591.712C624.737,1591.712 708.452,1608.279 760.105,1601.155C760.105,1601.155 804.234,1595.331 813.34,1591.712L816.212,1569.391L819.478,1529.165L823.337,1500.816L826.134,1504.972L833.727,1529.165L860.444,1601.155C860.444,1601.155 915.067,1609.249 960.486,1605.647C960.486,1605.647 1037.937,1600.225 1060.959,1590.448L1060.959,1578.178L1064.032,1538.175L1078.121,1526.982L1087.306,1512.477L1094.682,1486.313L1096.923,1452.279L1094.157,1418.759L1101.567,1414.951L1082.889,1348.725L1083.684,1341.402L1087.373,1267.483L1087.373,1231.696C1087.373,1231.696 1004.125,1247.297 964.346,1252.047C924.566,1256.796 874.694,1260.062 845.601,1261.843C816.509,1263.624 770.199,1265.108 732.497,1263.921C694.796,1262.734 668.376,1260.952 635.721,1255.609C603.066,1250.265 582.88,1244.922 572.193,1242.547C561.506,1240.172 564.895,1240.157 564.895,1240.157Z" style="fill:rgb(88,133,15);"/>
            </g>
            <g>
                <path d="M564.895,1240.157C564.895,1240.157 568.101,1290.43 603.368,1354.552" style="fill:none;stroke:black;stroke-width:4.17px;"/>
                <path d="M584.131,1313.858C584.131,1313.858 594.328,1468.769 621.58,1590.244C621.58,1590.244 713.248,1614.29 814.48,1592.382C814.48,1592.382 817.125,1536.854 824.25,1497.668" style="fill:none;stroke:black;stroke-width:4.17px;"/>
                <path d="M1083.056,1345.705C1083.188,1344.546 1083.321,1343.39 1083.454,1342.239C1083.454,1342.239 1087.862,1265.36 1087.328,1231.696C1087.328,1231.696 923.639,1266.785 750.154,1263.222C750.154,1263.222 659.724,1266.297 564.895,1240.157M696.897,1385.009C696.897,1385.009 744.543,1400.149 792.634,1406.383C792.634,1406.383 842.418,1556.302 860.675,1601.594C860.675,1601.594 963.359,1615.893 1059.542,1590.778C1059.542,1590.778 1061.274,1569.633 1064.103,1537.568" style="fill:none;stroke:black;stroke-width:4.17px;"/>
                <path d="M755.156,1263.314C755.156,1263.314 753.086,1320.759 773.528,1403.471" style="fill:none;stroke:black;stroke-width:2.08px;"/>
                <path d="M710.612,1263.314C710.612,1263.314 720.23,1343.683 729.848,1360.429C729.848,1360.429 753.892,1370.764 764.313,1368.092" style="fill:none;stroke:black;stroke-width:2.08px;"/>
                <path d="M969.237,1252.138C969.237,1252.138 976.718,1288.602 986.336,1297.354C986.336,1297.354 1054.198,1298.627 1068.091,1289.543" style="fill:none;stroke:black;stroke-width:2.08px;"/>
                <path d="M1053.259,1541.114C1051.749,1557.621 1050.148,1574.13 1048.454,1590.448M1073.435,1235.703C1073.435,1235.703 1071.499,1283.36 1067.353,1352.064" style="fill:none;stroke:black;stroke-width:2.08px;"/>
                <path d="M813.34,1467.882C813.34,1467.882 801.318,1547.366 798.646,1590.448" style="fill:none;stroke:black;stroke-width:2.08px;"/>
                <path d="M1011.856,1365.746C1011.856,1365.746 1011.856,1524.448 1008.116,1545.287C1008.116,1545.287 1043.383,1551.165 1065.291,1536.738C1065.291,1536.738 1108.039,1520.894 1094.146,1418.671" style="fill:none;stroke:black;stroke-width:4.17px;"/>
                <path d="M1011.856,1365.746C1011.856,1365.746 1064.133,1355.056 1082.39,1345.705C1082.39,1345.705 1102.428,1413.267 1101.538,1414.219C1101.538,1414.219 1081.945,1429.42 1040.533,1433.873C1040.533,1433.873 1029.401,1392.461 1019.159,1373.313" style="fill:none;stroke:black;stroke-width:4.17px;"/>
                <path d="M1040.533,1433.873L1037.416,1438.326C1037.416,1438.326 1062.352,1537.626 1015.597,1542.524" style="fill:none;stroke:black;stroke-width:4.17px;"/>
                <path d="M587.248,1345.705C587.248,1345.705 563.67,1408.235 571.307,1418.671L576.272,1416.818C576.272,1416.818 580.769,1387.429 584.131,1378.879" style="fill:none;stroke:black;stroke-width:4.17px;"/>
                <path d="M576.272,1416.818C576.272,1416.818 551.692,1532.92 612.074,1546.472" style="fill:none;stroke:black;stroke-width:4.17px;"/>
            </g>
        </g>
    </g>
</svg>
