<?xml version="1.0" encoding="UTF-8" standalone="no"?>
<svg width="100%" height="100%" viewBox="0 0 527 379" version="1.1" xmlns="http://www.w3.org/2000/svg" xmlns:xlink="http://www.w3.org/1999/xlink" xml:space="preserve" xmlns:serif="http://www.serif.com/" style="fill-rule:evenodd;clip-rule:evenodd;stroke-linecap:round;stroke-linejoin:round;stroke-miterlimit:1.5;">
    <g transform="matrix(1,0,0,1,-562.811307,-1229.612342)">
        <g>
            <path d="M564.895,1240.157C564.895,1240.157 568.054,1274.367 584.131,1315.779L585.551,1337.839L596.535,1439.959L605.738,1505.269L620.396,1590.448L624.737,1591.712C624.737,1591.712 708.452,1608.279 760.105,1601.155C760.105,1601.155 804.234,1595.331 813.34,1591.712L816.212,1569.391L819.478,1529.165L823.337,1500.816L826.134,1504.972L833.727,1529.165L860.444,1601.155C860.444,1601.155 915.067,1609.249 960.486,1605.647C960.486,1605.647 1037.937,1600.225 1060.959,1590.448L1060.959,1578.178L1071.512,1453.615L1083.684,1341.402L1087.373,1267.483L1087.373,1231.696C1087.373,1231.696 1004.125,1247.297 964.346,1252.047C924.566,1256.796 874.694,1260.062 845.601,1261.843C816.509,1263.624 770.199,1265.108 732.497,1263.921C694.796,1262.734 668.376,1260.952 635.721,1255.609C603.066,1250.265 582.88,1244.922 572.193,1242.547C561.506,1240.172 564.895,1240.157 564.895,1240.157Z" style="fill:rgb(83,101,187);"/>
            <g>
                <path d="M564.895,1240.157C564.895,1240.157 568.101,1290.43 603.368,1354.552" style="fill:none;stroke:black;stroke-width:4.17px;"/>
                <path d="M584.131,1313.858C584.131,1313.858 594.328,1468.769 621.58,1590.244C621.58,1590.244 713.248,1614.29 814.48,1592.382C814.48,1592.382 817.125,1536.854 824.25,1497.668" style="fill:none;stroke:black;stroke-width:4.17px;"/>
                <path d="M696.897,1385.009C696.897,1385.009 744.543,1400.149 792.634,1406.383C792.634,1406.383 842.418,1556.302 860.675,1601.594C860.675,1601.594 963.359,1615.893 1059.542,1590.778C1059.542,1590.778 1071.208,1448.33 1083.454,1342.239C1083.454,1342.239 1087.862,1265.36 1087.328,1231.696C1087.328,1231.696 923.639,1266.785 750.154,1263.222C750.154,1263.222 659.724,1266.297 564.895,1240.157" style="fill:none;stroke:black;stroke-width:4.17px;"/>
                <path d="M755.156,1263.314C755.156,1263.314 753.086,1320.759 773.528,1403.471" style="fill:none;stroke:black;stroke-width:2.08px;"/>
                <path d="M710.612,1263.314C710.612,1263.314 720.23,1343.683 729.848,1360.429C729.848,1360.429 753.892,1370.764 764.313,1368.092" style="fill:none;stroke:black;stroke-width:2.08px;"/>
                <path d="M969.237,1252.138C969.237,1252.138 976.718,1288.602 986.336,1297.354C986.336,1297.354 1054.198,1298.627 1068.091,1289.543" style="fill:none;stroke:black;stroke-width:2.08px;"/>
                <path d="M1073.435,1235.703C1073.435,1235.703 1065.82,1423.13 1048.454,1590.448" style="fill:none;stroke:black;stroke-width:2.08px;"/>
                <path d="M813.34,1467.882C813.34,1467.882 801.318,1547.366 798.646,1590.448" style="fill:none;stroke:black;stroke-width:2.08px;"/>
                <path d="M620.396,1571.81C620.396,1571.81 689.861,1596.925 812.227,1576.619" style="fill:none;stroke:black;stroke-width:2.08px;"/>
                <path d="M856.044,1584.546C856.044,1584.546 895.54,1604.317 1060.959,1578.178" style="fill:none;stroke:black;stroke-width:2.08px;"/>
            </g>
        </g>
    </g>
</svg>
