<?xml version="1.0" encoding="UTF-8" standalone="no"?>
<svg width="100%" height="100%" viewBox="0 0 527 407" version="1.1" xmlns="http://www.w3.org/2000/svg" xmlns:xlink="http://www.w3.org/1999/xlink" xml:space="preserve" xmlns:serif="http://www.serif.com/" style="fill-rule:evenodd;clip-rule:evenodd;stroke-linecap:round;stroke-linejoin:round;stroke-miterlimit:1.5;">
    <g transform="matrix(1,0,0,1,-562.811307,-1229.612342)">
        <g>
            <g>
                <path d="M564.895,1240.157C564.895,1240.157 568.054,1274.367 584.131,1315.779L585.551,1337.839L596.535,1439.959L605.738,1505.269L620.396,1590.448L624.737,1591.712C624.737,1591.712 708.452,1608.279 760.105,1601.155C760.105,1601.155 804.234,1595.331 813.34,1591.712L816.212,1569.391L819.478,1529.165L823.337,1500.816L826.134,1504.972L833.727,1529.165L860.444,1601.155C860.444,1601.155 915.067,1609.249 960.486,1605.647C960.486,1605.647 1037.937,1600.225 1060.959,1590.448L1060.959,1578.178L1071.512,1453.615L1083.684,1341.402L1087.373,1267.483L1087.373,1231.696C1087.373,1231.696 1004.125,1247.297 964.346,1252.047C924.566,1256.796 874.694,1260.062 845.601,1261.843C816.509,1263.624 770.199,1265.108 732.497,1263.921C694.796,1262.734 668.376,1260.952 635.721,1255.609C603.066,1250.265 582.88,1244.922 572.193,1242.547C561.506,1240.172 564.895,1240.157 564.895,1240.157Z" style="fill:rgb(67,108,168);"/>
                <clipPath id="_clip1">
                    <path d="M564.895,1240.157C564.895,1240.157 568.054,1274.367 584.131,1315.779L585.551,1337.839L596.535,1439.959L605.738,1505.269L620.396,1590.448L624.737,1591.712C624.737,1591.712 708.452,1608.279 760.105,1601.155C760.105,1601.155 804.234,1595.331 813.34,1591.712L816.212,1569.391L819.478,1529.165L823.337,1500.816L826.134,1504.972L833.727,1529.165L860.444,1601.155C860.444,1601.155 915.067,1609.249 960.486,1605.647C960.486,1605.647 1037.937,1600.225 1060.959,1590.448L1060.959,1578.178L1071.512,1453.615L1083.684,1341.402L1087.373,1267.483L1087.373,1231.696C1087.373,1231.696 1004.125,1247.297 964.346,1252.047C924.566,1256.796 874.694,1260.062 845.601,1261.843C816.509,1263.624 770.199,1265.108 732.497,1263.921C694.796,1262.734 668.376,1260.952 635.721,1255.609C603.066,1250.265 582.88,1244.922 572.193,1242.547C561.506,1240.172 564.895,1240.157 564.895,1240.157Z"/>
                </clipPath>
                <g clip-path="url(#_clip1)">
                    <g transform="matrix(0.029165,0,0,0.029165,1017.936212,1353.794591)">
                        <g transform="matrix(1,0,0,1,-1331.25,-1368.75)">
                            <g transform="matrix(4.166667,0,0,4.166667,-2467.293738,-3625.25265)">
                                <g transform="matrix(2.279712,0,0,2.279712,587.524604,865.438005)">
                                    <path d="M114.872,228.832C100.847,268.683 98.007,270.845 101.544,271.096C104.448,271.302 188.9,271.857 196.497,271.907C211.09,272.002 230.626,278.422 251.853,235.676C262.908,213.413 263.372,213.472 264.471,213.291C264.877,213.224 280.232,213.179 280.591,213.289C282.75,213.943 281.008,215.08 264.251,254.392C263.061,257.184 250.007,287.807 249.115,289.176C248.533,290.07 248.205,289.96 17.5,289.962C16.512,289.962 6.747,290.732 7.398,288.488C7.466,288.251 15.538,268.95 15.757,268.655C19.481,263.65 50.853,272.926 60.092,262.13C63.142,258.567 63.169,258.483 84.704,196.571C90.123,180.99 91.168,179.243 90.107,176.66C84.794,163.729 39.707,59.924 35.268,47.58C27.314,25.455 2.936,29.404 2.239,27.636C1.904,26.786 2.08,14.535 2.044,11.499C1.976,5.738 4.739,7.747 10.5,7.747C85.95,7.754 86.283,7.623 86.661,8.369C87.245,9.519 87.477,9.977 86.346,24.492C85.841,30.974 75.285,24.555 74.323,34.477C73.62,41.725 75.577,41.459 98.701,90.403C99.75,92.624 111.725,117.971 111.845,118.15C113.01,119.886 113.247,117.58 120.776,93.587C128.097,70.256 134.697,56.722 123.533,55.243C122.169,55.062 114.204,57.258 115.362,53.466C119.51,39.885 119.962,38.095 122.486,38.081C130.146,38.036 176.724,38.755 203.488,38.923C204.351,38.928 206.368,38.841 205.599,41.524C203.316,49.496 202.406,54.859 199.469,55.294C184.578,57.498 175.986,53.126 165.293,83.426C134.763,169.935 134.312,170.211 135.361,172.561C136.854,175.905 153.79,213.846 154.798,214.002C156.069,214.199 155.885,213.336 181.435,150.473C185.176,141.269 228.155,35.521 228.189,35.409C230.757,26.851 223.251,20.09 217.506,20.065C210.705,20.035 210.283,21.19 208.63,19.397C208.246,18.98 207.211,2.819 209.365,2.158C210.171,1.91 273.85,2.104 278.501,2.044C283.63,1.978 281.94,4.405 281.962,9.5C281.975,12.511 282.715,19.73 280.424,20.193C278.679,20.547 267.521,20.551 257.625,28.649C250.453,34.518 251.493,35.43 237.734,69.594C163.559,253.769 164.469,255.248 161.549,255.787C159.107,256.239 159.096,255.7 130.517,255.039C127.679,254.973 127.526,254.301 118.983,235.284C117.872,232.81 116.35,228.836 116.24,228.797C115.81,228.643 115.301,228.985 114.872,228.832Z" style="fill:rgb(171,185,255);"/>
                                </g>
                            </g>
                        </g>
                    </g>
                </g>
                <path d="M859.25,1597.937L854.54,1605.647C854.54,1605.647 861.498,1614.827 864.17,1629.789C864.17,1629.789 944.818,1638.953 974.208,1634.285C974.208,1634.285 1037.897,1627.963 1063.817,1616.682C1063.817,1616.682 1063.594,1595.605 1066.276,1590.558L1061.536,1585.913L1059.755,1590.558C1059.755,1590.558 1008.304,1604.772 960.408,1606.571C960.408,1606.571 909.141,1609.158 891.827,1605.647C891.827,1605.647 864.42,1603.62 861.749,1601.542L859.25,1597.937Z" style="fill:rgb(67,108,168);"/>
                <path d="M815.141,1591.746C815.141,1591.746 797.27,1600.103 722.996,1601.706C722.996,1601.706 674.103,1600.904 654.065,1596.095C654.065,1596.095 625.21,1591.82 622.004,1590.217L620.935,1585.913L615.859,1589.416C615.859,1589.416 622.004,1612.125 620.134,1618.805C620.134,1618.805 683.988,1635.637 726.469,1630.828C726.469,1630.828 815.493,1621.744 821.477,1617.202C821.477,1617.202 818.966,1600.37 821.477,1594.225L815.141,1591.746Z" style="fill:rgb(67,108,168);"/>
            </g>
            <g>
                <path d="M564.895,1240.157C564.895,1240.157 568.101,1290.43 603.368,1354.552" style="fill:none;stroke:black;stroke-width:4.17px;"/>
                <path d="M584.131,1313.858C584.131,1313.858 594.328,1468.769 621.58,1590.244C621.58,1590.244 713.248,1614.29 814.48,1592.382C814.48,1592.382 817.125,1536.854 824.25,1497.668" style="fill:none;stroke:black;stroke-width:4.17px;"/>
                <path d="M696.897,1385.009C696.897,1385.009 744.543,1400.149 792.634,1406.383C792.634,1406.383 842.418,1556.302 860.675,1601.594C860.675,1601.594 963.359,1615.893 1059.542,1590.778C1059.542,1590.778 1071.208,1448.33 1083.454,1342.239C1083.454,1342.239 1087.862,1265.36 1087.328,1231.696C1087.328,1231.696 923.639,1266.785 750.154,1263.222C750.154,1263.222 659.724,1266.297 564.895,1240.157" style="fill:none;stroke:black;stroke-width:4.17px;"/>
                <path d="M755.156,1263.314C755.156,1263.314 753.086,1320.759 773.528,1403.471" style="fill:none;stroke:black;stroke-width:2.08px;"/>
                <path d="M710.612,1263.314C710.612,1263.314 720.23,1343.683 729.848,1360.429C729.848,1360.429 753.892,1370.764 764.313,1368.092" style="fill:none;stroke:black;stroke-width:2.08px;"/>
                <path d="M969.237,1252.138C969.237,1252.138 976.718,1288.602 986.336,1297.354C986.336,1297.354 1054.198,1298.627 1068.091,1289.543" style="fill:none;stroke:black;stroke-width:2.08px;"/>
                <path d="M1073.435,1235.703C1073.435,1235.703 1065.82,1423.13 1048.454,1590.448" style="fill:none;stroke:black;stroke-width:2.08px;"/>
                <path d="M813.34,1467.882C813.34,1467.882 801.318,1547.366 798.646,1590.448" style="fill:none;stroke:black;stroke-width:2.08px;"/>
                <path d="M619.962,1585.913L615.286,1590.448C615.286,1590.448 620.63,1608.957 619.962,1618.976C619.962,1618.976 704.991,1646.529 821.011,1616.639C821.011,1616.639 819.139,1601.276 821.477,1594.263L816.134,1590.448" style="fill:none;stroke:black;stroke-width:4.17px;"/>
                <path d="M858.882,1597.602L854.54,1605.647C854.54,1605.647 862.889,1619.429 863.891,1630.557C863.891,1630.557 991.801,1645.36 1063.938,1615.971C1063.938,1615.971 1063.938,1594.315 1066.276,1590.448L1061.6,1585.913" style="fill:none;stroke:black;stroke-width:4.17px;"/>
            </g>
        </g>
    </g>
</svg>
