<?xml version="1.0" encoding="UTF-8" standalone="no"?>
<!DOCTYPE svg PUBLIC "-//W3C//DTD SVG 1.1//EN" "http://www.w3.org/Graphics/SVG/1.1/DTD/svg11.dtd">
<svg width="100%" height="100%" viewBox="0 0 527 379" version="1.1" xmlns="http://www.w3.org/2000/svg" xmlns:xlink="http://www.w3.org/1999/xlink" xml:space="preserve" xmlns:serif="http://www.serif.com/" style="fill-rule:evenodd;clip-rule:evenodd;stroke-linecap:round;stroke-linejoin:round;stroke-miterlimit:1.5;">
    <g transform="matrix(1,0,0,1,-562.811307,-1229.612342)">
        <g>
            <g>
                <path d="M564.895,1240.157C564.895,1240.157 568.054,1274.367 584.131,1315.779L585.551,1337.839L596.535,1439.959L605.738,1505.269L620.396,1590.448L624.737,1591.712C624.737,1591.712 708.452,1608.279 760.105,1601.155C760.105,1601.155 804.234,1595.331 813.34,1591.712L816.212,1569.391L819.478,1529.165L823.337,1500.816L826.134,1504.972L833.727,1529.165L860.444,1601.155C860.444,1601.155 915.067,1609.249 960.486,1605.647C960.486,1605.647 1037.937,1600.225 1060.959,1590.448L1060.959,1578.178L1071.512,1453.615L1083.684,1341.402L1087.373,1267.483L1087.373,1231.696C1087.373,1231.696 1004.125,1247.297 964.346,1252.047C924.566,1256.796 874.694,1260.062 845.601,1261.843C816.509,1263.624 770.199,1265.108 732.497,1263.921C694.796,1262.734 668.376,1260.952 635.721,1255.609C603.066,1250.265 582.88,1244.922 572.193,1242.547C561.506,1240.172 564.895,1240.157 564.895,1240.157Z" style="fill:rgb(23,23,23);"/>
                <clipPath id="_clip1">
                    <path d="M564.895,1240.157C564.895,1240.157 568.054,1274.367 584.131,1315.779L585.551,1337.839L596.535,1439.959L605.738,1505.269L620.396,1590.448L624.737,1591.712C624.737,1591.712 708.452,1608.279 760.105,1601.155C760.105,1601.155 804.234,1595.331 813.34,1591.712L816.212,1569.391L819.478,1529.165L823.337,1500.816L826.134,1504.972L833.727,1529.165L860.444,1601.155C860.444,1601.155 915.067,1609.249 960.486,1605.647C960.486,1605.647 1037.937,1600.225 1060.959,1590.448L1060.959,1578.178L1071.512,1453.615L1083.684,1341.402L1087.373,1267.483L1087.373,1231.696C1087.373,1231.696 1004.125,1247.297 964.346,1252.047C924.566,1256.796 874.694,1260.062 845.601,1261.843C816.509,1263.624 770.199,1265.108 732.497,1263.921C694.796,1262.734 668.376,1260.952 635.721,1255.609C603.066,1250.265 582.88,1244.922 572.193,1242.547C561.506,1240.172 564.895,1240.157 564.895,1240.157Z"/>
                </clipPath>
                <g clip-path="url(#_clip1)">
                    <g transform="matrix(0.039949,0,0,0.039949,1019.581422,1361.676166)">
                        <g transform="matrix(1,0,0,1,-3643.75,-5168.75)">
                            <g id="alo-yoga-1.jpg" transform="matrix(4.903158,0,0,4.903158,1383.333333,2983.333333)">
                                <path d="M526.5,163.05C530.783,163.219 531.899,161.739 532.591,164.475C532.776,165.206 532.68,441.658 532.639,442.524C532.514,445.183 523.948,444.34 521.5,444.34C500.215,444.34 498.333,445.156 498.31,441.506C498.309,441.322 498.303,166.24 498.313,165.49C498.356,162.433 500.048,163.05 526.5,163.05Z" style="fill:rgb(254,254,254);"/>
                                <path d="M372.42,277.083C376.079,276.525 397.741,273.223 418.467,281.584C436.251,288.758 434.854,291.27 436.465,291.624C440.904,292.6 434.476,281.303 441.499,281.304C470.944,281.31 472.28,280.858 472.538,283.497C472.55,283.625 472.602,441.955 472.51,442.502C472.142,444.685 471.084,444.354 441.5,444.343C436.771,444.341 438.148,442.196 438.17,437.502C438.201,430.732 434.708,436.415 425.306,441.145C357.045,475.491 286.21,408.034 305.863,339.605C321.679,284.539 370.873,277.453 372.42,277.083ZM388.501,311.113C384.998,311.191 362.481,311.696 348.885,329.813C315.927,373.73 358.062,423.486 397.582,413.863C456.799,399.443 448.001,313.637 388.501,311.113Z" style="fill:rgb(254,254,254);"/>
                                <path d="M621.423,277.062C627.428,276.159 665.367,270.454 694.124,298.871C758.208,362.194 700.197,464.742 620.466,448.673C552.6,434.995 533.227,351.858 570.784,307.736C589.789,285.409 604.735,281.04 621.423,277.062ZM635.498,311.113C580.651,313.623 569.337,386.262 613.65,409.214C664.587,435.597 713.862,366.637 670.352,324.652C657.412,312.165 638.486,311.257 635.498,311.113Z" style="fill:rgb(254,254,254);"/>
                            </g>
                        </g>
                    </g>
                </g>
                <path d="M714.953,1263.283L708.307,1290.903L702.75,1318.982L698.903,1342.414L696.966,1363.361C696.966,1363.361 696.765,1374.475 707.452,1362.933L708.628,1355.497L712.224,1333.054L718.353,1301.714L721.773,1283.547L724.124,1272.218L727.481,1264.524L727.481,1268.585L735.025,1300.432L741.651,1329.073L743.779,1345.745L749.773,1368.057C749.773,1368.057 756.83,1385.218 760.077,1368.057L757.339,1352.777L751.525,1322.511L743.779,1289.168L739.214,1262.348L714.953,1263.283Z" style="fill:white;"/>
            </g>
            <g>
                <path d="M564.895,1240.157C564.895,1240.157 568.101,1290.43 603.368,1354.552" style="fill:none;stroke:black;stroke-width:4.17px;"/>
                <path d="M584.131,1313.858C584.131,1313.858 594.328,1468.769 621.58,1590.244C621.58,1590.244 713.248,1614.29 814.48,1592.382C814.48,1592.382 817.125,1536.854 824.25,1497.668" style="fill:none;stroke:black;stroke-width:4.17px;"/>
                <path d="M696.897,1385.009C696.897,1385.009 744.543,1400.149 792.634,1406.383C792.634,1406.383 842.418,1556.302 860.675,1601.594C860.675,1601.594 963.359,1615.893 1059.542,1590.778C1059.542,1590.778 1071.208,1448.33 1083.454,1342.239C1083.454,1342.239 1087.862,1265.36 1087.328,1231.696C1087.328,1231.696 923.639,1266.785 750.154,1263.222C750.154,1263.222 659.724,1266.297 564.895,1240.157" style="fill:none;stroke:black;stroke-width:4.17px;"/>
                <path d="M727.481,1263.951L749.39,1368.057C749.39,1368.057 755.802,1385.064 760.077,1368.057C760.077,1368.057 741.909,1273.035 738.703,1262.348" style="fill:none;stroke:black;stroke-width:2.08px;"/>
                <path d="M714.657,1262.348C714.657,1262.348 696.489,1337.157 697.558,1359.599C697.558,1359.599 693.283,1376.699 707.71,1362.271C707.71,1362.271 721.069,1271.432 727.481,1263.951" style="fill:none;stroke:black;stroke-width:2.08px;"/>
                <path d="M969.237,1252.138C969.237,1252.138 976.718,1288.602 986.336,1297.354C986.336,1297.354 1073.48,1290.611 1087.373,1281.527" style="fill:none;stroke:black;stroke-width:2.08px;"/>
            </g>
        </g>
    </g>
</svg>
