<?xml version="1.0" encoding="UTF-8" standalone="no"?>
<svg width="100%" height="100%" viewBox="0 0 527 407" version="1.1" xmlns="http://www.w3.org/2000/svg" xmlns:xlink="http://www.w3.org/1999/xlink" xml:space="preserve" xmlns:serif="http://www.serif.com/" style="fill-rule:evenodd;clip-rule:evenodd;stroke-linecap:round;stroke-linejoin:round;stroke-miterlimit:1.5;">
    <g transform="matrix(1,0,0,1,-562.811307,-1229.612342)">
        <g>
            <g>
                <path d="M564.895,1240.157C564.895,1240.157 568.054,1274.367 584.131,1315.779L585.551,1337.839L596.535,1439.959L605.738,1505.269L620.396,1590.448L624.737,1591.712C624.737,1591.712 708.452,1608.279 760.105,1601.155C760.105,1601.155 804.234,1595.331 813.34,1591.712L816.212,1569.391L819.478,1529.165L823.337,1500.816L826.134,1504.972L833.727,1529.165L860.444,1601.155C860.444,1601.155 915.067,1609.249 960.486,1605.647C960.486,1605.647 1037.937,1600.225 1060.959,1590.448L1060.959,1578.178L1071.512,1453.615L1083.684,1341.402L1087.373,1267.483L1087.373,1231.696C1087.373,1231.696 1004.125,1247.297 964.346,1252.047C924.566,1256.796 874.694,1260.062 845.601,1261.843C816.509,1263.624 770.199,1265.108 732.497,1263.921C694.796,1262.734 668.376,1260.952 635.721,1255.609C603.066,1250.265 582.88,1244.922 572.193,1242.547C561.506,1240.172 564.895,1240.157 564.895,1240.157Z" style="fill:rgb(69,122,200);"/>
                <path d="M859.25,1597.937L854.54,1605.647C854.54,1605.647 861.498,1614.827 864.17,1629.789C864.17,1629.789 944.818,1638.953 974.208,1634.285C974.208,1634.285 1037.897,1627.963 1063.817,1616.682C1063.817,1616.682 1063.594,1595.605 1066.276,1590.558L1061.536,1585.913L1059.755,1590.558C1059.755,1590.558 1008.304,1604.772 960.408,1606.571C960.408,1606.571 909.141,1609.158 891.827,1605.647C891.827,1605.647 864.42,1603.62 861.749,1601.542L859.25,1597.937Z" style="fill:rgb(143,182,238);"/>
                <path d="M815.141,1591.746C815.141,1591.746 797.27,1600.103 722.996,1601.706C722.996,1601.706 674.103,1600.904 654.065,1596.095C654.065,1596.095 625.21,1591.82 622.004,1590.217L620.935,1585.913L615.859,1589.416C615.859,1589.416 622.004,1612.125 620.134,1618.805C620.134,1618.805 683.988,1635.637 726.469,1630.828C726.469,1630.828 815.493,1621.744 821.477,1617.202C821.477,1617.202 818.966,1600.37 821.477,1594.225L815.141,1591.746Z" style="fill:rgb(143,182,238);"/>
            </g>
            <g>
                <path d="M564.895,1240.157C564.895,1240.157 568.101,1290.43 603.368,1354.552" style="fill:none;stroke:black;stroke-width:4.17px;"/>
                <path d="M584.131,1313.858C584.131,1313.858 594.328,1468.769 621.58,1590.244C621.58,1590.244 713.248,1614.29 814.48,1592.382C814.48,1592.382 817.125,1536.854 824.25,1497.668" style="fill:none;stroke:black;stroke-width:4.17px;"/>
                <path d="M696.897,1385.009C696.897,1385.009 744.543,1400.149 792.634,1406.383C792.634,1406.383 842.418,1556.302 860.675,1601.594C860.675,1601.594 963.359,1615.893 1059.542,1590.778C1059.542,1590.778 1071.208,1448.33 1083.454,1342.239C1083.454,1342.239 1087.862,1265.36 1087.328,1231.696C1087.328,1231.696 923.639,1266.785 750.154,1263.222C750.154,1263.222 659.724,1266.297 564.895,1240.157" style="fill:none;stroke:black;stroke-width:4.17px;"/>
                <path d="M755.156,1263.314C755.156,1263.314 753.086,1320.759 773.528,1403.471" style="fill:none;stroke:black;stroke-width:2.08px;"/>
                <path d="M710.612,1263.314C710.612,1263.314 720.23,1343.683 729.848,1360.429C729.848,1360.429 753.892,1370.764 764.313,1368.092" style="fill:none;stroke:black;stroke-width:2.08px;"/>
                <path d="M969.237,1252.138C969.237,1252.138 976.718,1288.602 986.336,1297.354C986.336,1297.354 1054.198,1298.627 1068.091,1289.543" style="fill:none;stroke:black;stroke-width:2.08px;"/>
                <path d="M1073.435,1235.703C1073.435,1235.703 1065.82,1423.13 1048.454,1590.448" style="fill:none;stroke:black;stroke-width:2.08px;"/>
                <path d="M813.34,1467.882C813.34,1467.882 801.318,1547.366 798.646,1590.448" style="fill:none;stroke:black;stroke-width:2.08px;"/>
                <path d="M619.962,1585.913L615.286,1590.448C615.286,1590.448 620.63,1608.957 619.962,1618.976C619.962,1618.976 704.991,1646.529 821.011,1616.639C821.011,1616.639 819.139,1601.276 821.477,1594.263L816.134,1590.448" style="fill:none;stroke:black;stroke-width:4.17px;"/>
                <path d="M858.882,1597.602L854.54,1605.647C854.54,1605.647 862.889,1619.429 863.891,1630.557C863.891,1630.557 991.801,1645.36 1063.938,1615.971C1063.938,1615.971 1063.938,1594.315 1066.276,1590.448L1061.6,1585.913" style="fill:none;stroke:black;stroke-width:4.17px;"/>
            </g>
        </g>
    </g>
</svg>
