<?xml version="1.0" encoding="UTF-8" standalone="no"?>
<!DOCTYPE svg PUBLIC "-//W3C//DTD SVG 1.1//EN" "http://www.w3.org/Graphics/SVG/1.1/DTD/svg11.dtd">
<svg width="100%" height="100%" viewBox="0 0 583 433" version="1.1" xmlns="http://www.w3.org/2000/svg" xmlns:xlink="http://www.w3.org/1999/xlink" xml:space="preserve" xmlns:serif="http://www.serif.com/" style="fill-rule:evenodd;clip-rule:evenodd;stroke-linecap:round;stroke-linejoin:round;stroke-miterlimit:1.5;">
    <g transform="matrix(1,0,0,1,-1074.571659,-1234.332229)">
        <g id="fat">
            <g>
                <path d="M1076.655,1257.759C1076.655,1257.759 1163.934,1289.972 1193.857,1292.257C1223.781,1294.541 1218.488,1300.181 1227.839,1300.181C1237.191,1300.181 1358.221,1298.281 1368.641,1296.945C1379.06,1295.61 1447.381,1295.915 1494.213,1284.388C1504.963,1281.742 1545.586,1270.991 1554.136,1267.785C1562.686,1264.579 1613.029,1247.48 1618.907,1245.075C1624.785,1242.671 1640.423,1236.416 1640.423,1236.416C1640.423,1236.416 1641.902,1235.729 1642.57,1243.076C1643.238,1250.424 1648.581,1291.168 1648.581,1295.175C1648.581,1299.183 1655.076,1344.937 1654.5,1350.948C1653.925,1356.96 1655.744,1387.017 1654.5,1391.358C1653.849,1393.632 1653.513,1401.72 1652.747,1409.658C1652.051,1416.876 1651.579,1423.849 1651.587,1427.093C1651.627,1442.616 1648.546,1447.063 1648.019,1467.3C1647.812,1475.256 1647.064,1481.25 1646.546,1483.526C1644.876,1490.873 1642.641,1507.833 1641.305,1516.516C1640.195,1523.733 1633.159,1577.608 1630.455,1595.549C1629.905,1599.196 1628.955,1598.277 1629.235,1607.146C1629.419,1613.013 1564.919,1620.497 1546.733,1622.039C1528.564,1623.58 1455.967,1627.858 1434.301,1625.612C1415.63,1623.677 1411.931,1626.6 1407.419,1610.237C1405.572,1603.538 1384.858,1547.6 1383.967,1543.741C1383.076,1539.881 1371.202,1503.664 1371.202,1503.664L1362.89,1544.631C1362.89,1544.631 1348.306,1601.877 1347.712,1612.564C1347.434,1617.581 1281.073,1625.783 1234.657,1620.116C1221.558,1618.516 1163.896,1613.789 1162.627,1610.213C1159.688,1601.931 1150.931,1583.517 1148.794,1576.838C1146.657,1570.158 1135.702,1545.097 1132.496,1535.212C1131.504,1532.152 1126.788,1512.464 1123.234,1506.388C1115.309,1492.835 1111.777,1468.808 1110.855,1464.197C1110.103,1460.436 1105.388,1443.731 1103.677,1434.781C1101.624,1424.041 1099.149,1408.788 1098.565,1406.22C1097.229,1400.342 1093.582,1386.716 1093.802,1380.037C1094.023,1373.357 1093.222,1369.884 1091.351,1364.541C1089.481,1359.197 1083.603,1341.296 1082.802,1334.617C1082,1327.938 1076.485,1293.205 1076.571,1287.594C1076.657,1281.984 1077.103,1274.147 1076.655,1269.872" style="fill:rgb(81,107,174);"/>
                <path d="M1161.072,1606.167L1158.896,1612.422C1158.896,1612.422 1177.117,1644.27 1177.972,1651.75C1177.972,1651.75 1220.934,1656.951 1237.819,1656.595C1254.705,1656.239 1292.964,1658.019 1308.567,1656.595C1324.17,1655.17 1345.972,1650.254 1348.536,1648.972L1349.178,1643.415C1349.178,1643.415 1352.858,1617.125 1353.583,1614.132L1349.605,1610.213L1347.681,1613.277C1347.681,1613.277 1315.621,1622.254 1278.216,1622.254C1278.216,1622.254 1223.285,1622.254 1213.239,1619.048C1213.239,1619.048 1165.361,1611.851 1163.224,1610.213C1161.087,1608.575 1161.072,1606.167 1161.072,1606.167Z" style="fill:rgb(99,154,207);"/>
                <path d="M1409.325,1614.544L1406.931,1624.291C1406.931,1624.291 1422.834,1652.334 1423.689,1659.002L1426.082,1660.883C1426.082,1660.883 1479.945,1667.21 1503.371,1664.645C1503.371,1664.645 1567.835,1659.756 1582.54,1657.156C1582.54,1657.156 1621.013,1651.65 1623.065,1650.453C1623.065,1650.453 1631.615,1612.892 1632.982,1610.213L1628.708,1606.167L1627.511,1610.213C1627.511,1610.213 1570.912,1619.959 1552.274,1622.039C1552.274,1622.039 1498.925,1627.527 1488.665,1626.251C1488.665,1626.251 1415.31,1623.036 1413.087,1622.039L1409.325,1614.544Z" style="fill:rgb(99,154,207);"/>
            </g>
            <g id="fat1" serif:id="fat">
                <path d="M1076.701,1257.759C1076.148,1295.72 1080.335,1350.832 1103.867,1395.073" style="fill:none;stroke:black;stroke-width:4.17px;"/>
                <path d="M1347.712,1612.564C1348.61,1604.942 1350.462,1601.417 1351.983,1595.142C1355.546,1580.448 1369.35,1514.544 1370.686,1502.522M1093.802,1372.597C1093.802,1372.597 1100.444,1472.313 1162.627,1610.213" style="fill:none;stroke:black;stroke-width:4.17px;"/>
                <path d="M1641.066,1236.416C1641.066,1236.416 1518.166,1291.1 1418.421,1295.374C1318.676,1299.647 1307.322,1301.428 1226.39,1298.756C1226.39,1298.756 1147.456,1287.268 1076.655,1259.17M1627.835,1610.213C1648.262,1475.633 1652.866,1416.657 1653.089,1414.087C1653.98,1403.845 1655.761,1354.418 1653.089,1336.606C1650.418,1318.794 1643.293,1248.438 1641.066,1236.416M1243.778,1423.26C1243.778,1423.26 1285.19,1440.181 1354.21,1447.751C1354.21,1447.751 1383.516,1545.851 1411.916,1622.039" style="fill:none;stroke:black;stroke-width:4.17px;"/>
                <g transform="matrix(0.999283,0.037867,-0.037867,0.999283,698.419677,-36.163633)">
                    <path d="M966.193,1248.676C975.215,1268.746 977.002,1309.152 979.349,1323.863C984.041,1353.263 982.378,1506.048 966.218,1614.523" style="fill:none;stroke:black;stroke-width:2.08px;"/>
                </g>
                <g transform="matrix(1,0,0,1.011964,523.740108,-92.67187)">
                    <path d="M810.643,1520.177C810.643,1520.177 797.231,1627.471 796.987,1669.292C796.964,1673.193 797.056,1676.525 797.284,1679.146" style="fill:none;stroke:black;stroke-width:2.07px;"/>
                </g>
                <g transform="matrix(1,0,0,1,537.911695,46.310278)">
                    <path d="M766.263,1253.871C766.263,1253.871 767.672,1322.505 782.812,1395.63" style="fill:none;stroke:black;stroke-width:2.08px;"/>
                </g>
                <g transform="matrix(1,0,0,1,538.09769,99.745217)">
                    <path d="M743.092,1200.436C743.092,1200.436 748.97,1291.275 755.204,1312.649L778.359,1322.446" style="fill:none;stroke:black;stroke-width:2.08px;"/>
                </g>
                <g transform="matrix(1.110247,0,0,1.091405,564.15605,-7.579731)">
                    <path d="M955.397,1209.732C955.397,1209.732 889.742,1219.584 874.016,1174.164" style="fill:none;stroke:black;stroke-width:1.89px;"/>
                </g>
                <g transform="matrix(1,0,0,1,415.545693,51.653772)">
                    <path d="M693.531,1218.248C693.531,1218.248 679.505,1240.401 661.025,1246.19" style="fill:none;stroke:black;stroke-width:2.08px;"/>
                </g>
                <path d="M1165.143,1610.213C1165.143,1610.213 1249.748,1634.259 1347.712,1613.775" style="fill:none;stroke:black;stroke-width:4.17px;"/>
                <path d="M1414.506,1622.039C1414.506,1622.039 1515.057,1635.483 1627.578,1610.213" style="fill:none;stroke:black;stroke-width:4.17px;"/>
                <path d="M1408.821,1616.213L1406.627,1624.993C1406.627,1624.993 1423.325,1653.832 1423.325,1660.512C1423.325,1660.512 1489.097,1675.755 1624.04,1651.16C1624.04,1651.16 1631.63,1613.665 1633.708,1610.213L1627.578,1606.167" style="fill:none;stroke:black;stroke-width:4.17px;"/>
                <path d="M1350.206,1610.213L1353.583,1614.405C1353.583,1614.405 1349.13,1636.967 1349.724,1649.138C1349.724,1649.138 1308.308,1663.517 1178.556,1652.341C1178.556,1652.341 1162.161,1615.89 1158.896,1612.921L1160.974,1606.167" style="fill:none;stroke:black;stroke-width:4.17px;"/>
            </g>
        </g>
    </g>
</svg>
