<?xml version="1.0" encoding="UTF-8" standalone="no"?>
<!DOCTYPE svg PUBLIC "-//W3C//DTD SVG 1.1//EN" "http://www.w3.org/Graphics/SVG/1.1/DTD/svg11.dtd">
<svg width="100%" height="100%" viewBox="0 0 369 433" version="1.1" xmlns="http://www.w3.org/2000/svg" xmlns:xlink="http://www.w3.org/1999/xlink" xml:space="preserve" xmlns:serif="http://www.serif.com/" style="fill-rule:evenodd;clip-rule:evenodd;stroke-linecap:round;stroke-linejoin:round;stroke-miterlimit:1.5;">
    <g transform="matrix(1,0,0,1,-634.571726,-1160.175531)">
        <g id="normal">
            <path d="M931.535,1162.259C931.535,1162.259 903.768,1172.775 864.564,1178.707C823.953,1184.852 805.043,1187.463 775.832,1188.265C775.832,1188.265 722.189,1187.91 713.105,1185.238L688.573,1178.375L661.273,1240.157L647.766,1277.468L636.655,1331.794L636.655,1404.946L642.53,1435.201L644.093,1450.012L649.361,1483.219L658.4,1517.114L662.33,1530.364L666.316,1543.679L674.911,1571.455L677.886,1580.984L680.744,1583.102L718.489,1589.519L768.265,1589.171L822.131,1582.583L823.508,1585.016L860.615,1590.759L924.107,1589.117L978.291,1582.583L983.061,1576.883L983.563,1561.234L985.39,1551.561L986.83,1542.577L989.791,1518.032L993.261,1491.167L995.172,1466.312L997.01,1449.644L998.7,1422.071L1001.404,1395.159L1001.404,1379.247L1002.069,1340.269L998.596,1312.216L981.349,1259.82L931.535,1162.259Z" style="fill:rgb(29,29,29);"/>
            <g id="normal1" serif:id="normal" transform="matrix(1,0,0,1,-189.026092,13.830082)">
                <path d="M877.451,1164.331C868.478,1181.667 846.215,1236.881 843.048,1245.196C843.048,1245.196 826.572,1292.281 825.681,1341.824C825.681,1341.824 827.462,1432.334 845.719,1496.456C855.155,1529.597 861.974,1551.319 867.652,1568.753" style="fill:none;stroke:black;stroke-width:4.17px;"/>
                <path d="M1120.973,1148.429C1120.973,1148.429 1063.085,1171.648 966.711,1173.81C966.711,1173.81 913.89,1179.495 877.451,1163.58M1174.416,1537.731C1174.798,1530.86 1201.316,1363.555 1185.286,1291.494C1175.395,1247.035 1130.133,1163.696 1120.973,1148.429M911.177,1368.434C911.177,1368.434 951.699,1391.59 985.095,1397.378C985.095,1397.378 1002.074,1535.065 1013.206,1572.48" style="fill:none;stroke:black;stroke-width:4.17px;"/>
                <g transform="matrix(1,0,0,1,189.026092,-13.830082)">
                    <path d="M824.18,1585.47C824.18,1585.47 860.604,1599.108 982.005,1582.583" style="fill:none;stroke:black;stroke-width:4.17px;"/>
                </g>
                <g transform="matrix(1,0,0,1,189.026092,-10.339197)">
                    <path d="M678.837,1579.632C678.837,1579.632 749.136,1594.038 821.273,1579.611" style="fill:none;stroke:black;stroke-width:4.17px;"/>
                </g>
                <g transform="matrix(1,0,0,1,189.026092,-13.830082)">
                    <path d="M974.657,1551.593C972.771,1568.713 971.338,1581.132 971.006,1585.47M920.574,1168.372C920.574,1168.372 954.338,1231.028 966.628,1262.554C978.919,1294.081 999.67,1378.265 976.333,1551.561" style="fill:none;stroke:black;stroke-width:2.08px;"/>
                </g>
                <g transform="matrix(1,0,0,1,189.026092,-13.830082)">
                    <path d="M810.643,1520.177C810.643,1520.177 807.004,1549.293 803.482,1583.102" style="fill:none;stroke:black;stroke-width:2.08px;"/>
                </g>
                <g transform="matrix(1,0,0,1,189.026092,-13.830082)">
                    <path d="M985.39,1551.561C984.128,1563.9 982.959,1574.74 982.005,1582.583" style="fill:none;stroke:black;stroke-width:4.17px;"/>
                </g>
            </g>
        </g>
    </g>
</svg>
