<?xml version="1.0" encoding="UTF-8" standalone="no"?>
<svg width="100%" height="100%" viewBox="0 0 598 394" version="1.1" xmlns="http://www.w3.org/2000/svg" xmlns:xlink="http://www.w3.org/1999/xlink" xml:space="preserve" xmlns:serif="http://www.serif.com/" style="fill-rule:evenodd;clip-rule:evenodd;stroke-linecap:round;stroke-linejoin:round;stroke-miterlimit:1.5;">
    <g transform="matrix(1,0,0,1,-1074.571659,-1234.332229)">
        <g id="fat">
            <g>
                <path d="M1076.655,1257.759C1076.655,1257.759 1163.934,1289.972 1193.857,1292.257C1223.781,1294.541 1218.488,1300.181 1227.839,1300.181C1237.191,1300.181 1358.221,1298.281 1368.641,1296.945C1379.06,1295.61 1447.381,1295.915 1494.213,1284.388C1504.963,1281.742 1545.586,1270.991 1554.136,1267.785C1562.686,1264.579 1613.029,1247.48 1618.907,1245.075C1624.785,1242.671 1640.423,1236.416 1640.423,1236.416C1640.423,1236.416 1641.902,1235.729 1642.57,1243.076C1643.238,1250.424 1648.581,1291.168 1648.581,1295.175C1648.581,1299.183 1655.076,1344.937 1654.5,1350.948C1653.925,1356.96 1655.744,1387.017 1654.5,1391.358C1653.849,1393.632 1670.722,1432.178 1669.957,1440.116C1669.261,1447.334 1661.045,1439.345 1661.054,1442.589C1661.093,1458.112 1660.344,1454.223 1659.818,1474.46C1659.61,1482.416 1659.546,1504.676 1659.029,1506.952C1657.359,1514.299 1655.836,1544.596 1654.5,1553.28C1653.878,1557.328 1646.554,1560.898 1635.921,1561.879C1633.068,1562.142 1635.432,1562.018 1634.778,1566.328C1633.528,1574.565 1631.234,1590.377 1630.455,1595.549C1629.905,1599.196 1628.955,1598.277 1629.235,1607.146C1629.419,1613.013 1564.919,1620.497 1546.733,1622.039C1528.564,1623.58 1455.967,1627.858 1434.301,1625.612C1415.63,1623.677 1411.931,1626.6 1407.419,1610.237C1405.572,1603.538 1384.858,1547.6 1383.967,1543.741C1383.076,1539.881 1371.202,1503.664 1371.202,1503.664L1362.89,1544.631C1362.89,1544.631 1348.306,1601.877 1347.712,1612.564C1347.434,1617.581 1281.073,1625.783 1234.657,1620.116C1221.558,1618.516 1163.896,1613.789 1162.627,1610.213C1159.688,1601.931 1150.931,1583.517 1148.794,1576.838C1148.059,1574.541 1147.884,1573.372 1145.737,1568.091C1141.641,1558.018 1128.806,1573.758 1125.015,1568.091C1118.679,1558.619 1109.421,1519.678 1105.868,1513.601C1097.943,1500.049 1098.152,1469.343 1097.229,1464.731C1096.477,1460.97 1085.835,1464.808 1084.124,1455.858C1082.071,1445.118 1086.839,1426.47 1088.66,1411.345C1089.381,1405.36 1093.582,1386.716 1093.802,1380.037C1094.023,1373.357 1093.222,1369.884 1091.351,1364.541C1089.481,1359.197 1083.603,1341.296 1082.802,1334.617C1082,1327.938 1076.485,1293.205 1076.571,1287.594C1076.657,1281.984 1077.103,1274.147 1076.655,1269.872" style="fill:rgb(70,86,22);"/>
            </g>
            <g id="fat1" serif:id="fat">
                <path d="M1076.701,1257.759C1076.148,1295.72 1080.335,1350.832 1103.867,1395.073" style="fill:none;stroke:black;stroke-width:4.17px;"/>
                <path d="M1347.712,1612.564C1348.61,1604.942 1350.462,1601.417 1351.983,1595.142C1355.546,1580.448 1369.35,1514.544 1370.686,1502.522M1093.802,1372.597C1093.802,1372.597 1100.444,1472.313 1162.627,1610.213" style="fill:none;stroke:black;stroke-width:4.17px;"/>
                <path d="M1641.066,1236.416C1641.066,1236.416 1518.166,1291.1 1418.421,1295.374C1318.676,1299.647 1307.322,1301.428 1226.39,1298.756C1226.39,1298.756 1147.456,1287.268 1076.655,1259.17M1654.318,1384.29C1654.687,1366.814 1654.598,1346.667 1653.089,1336.606C1650.418,1318.794 1643.293,1248.438 1641.066,1236.416M1627.835,1610.213C1630.55,1592.33 1632.985,1575.781 1635.167,1560.523M1243.778,1423.26C1243.778,1423.26 1285.19,1440.181 1354.21,1447.751C1354.21,1447.751 1383.516,1545.851 1411.916,1622.039" style="fill:none;stroke:black;stroke-width:4.17px;"/>
                <g transform="matrix(0.999283,0.037867,-0.037867,0.999283,698.419677,-36.163633)">
                    <path d="M972.337,1565.256C970.583,1582.265 968.552,1598.856 966.218,1614.523M966.193,1248.676C975.215,1268.746 977.002,1309.152 979.349,1323.863C980.847,1333.248 981.697,1355.202 981.635,1384.275" style="fill:none;stroke:black;stroke-width:2.08px;"/>
                </g>
                <g transform="matrix(1,0,0,1.011964,523.740108,-92.67187)">
                    <path d="M810.643,1520.177C810.643,1520.177 797.231,1627.471 796.987,1669.292C796.964,1673.193 797.056,1676.525 797.284,1679.146" style="fill:none;stroke:black;stroke-width:2.07px;"/>
                </g>
                <g transform="matrix(1,0,0,1,537.911695,46.310278)">
                    <path d="M766.263,1253.871C766.263,1253.871 767.672,1322.505 782.812,1395.63" style="fill:none;stroke:black;stroke-width:2.08px;"/>
                </g>
                <g transform="matrix(1,0,0,1,538.09769,99.745217)">
                    <path d="M743.092,1200.436C743.092,1200.436 748.97,1291.275 755.204,1312.649L778.359,1322.446" style="fill:none;stroke:black;stroke-width:2.08px;"/>
                </g>
                <g transform="matrix(1.110247,0,0,1.091405,564.15605,-7.579731)">
                    <path d="M955.397,1209.732C955.397,1209.732 889.742,1219.584 874.016,1174.164" style="fill:none;stroke:black;stroke-width:1.89px;"/>
                </g>
                <g transform="matrix(1,0,0,1,415.545693,51.653772)">
                    <path d="M693.531,1218.248C693.531,1218.248 679.505,1240.401 661.025,1246.19" style="fill:none;stroke:black;stroke-width:2.08px;"/>
                </g>
                <path d="M1165.143,1610.213C1165.143,1610.213 1249.748,1634.259 1347.712,1613.775" style="fill:none;stroke:black;stroke-width:4.17px;"/>
                <path d="M1414.506,1622.039C1414.506,1622.039 1515.057,1635.483 1627.578,1610.213" style="fill:none;stroke:black;stroke-width:4.17px;"/>
                <g transform="matrix(1.295735,0,0,1.137626,961.743057,-214.429125)">
                    <path d="M532.909,1405.172L479.474,1405.172C479.474,1405.172 472.126,1510.65 474.798,1552.062L475.199,1563.974C475.199,1563.974 524.054,1562.447 531.687,1559.394C539.321,1556.34 538.176,1461.684 539.702,1456.722L546.573,1455.959C546.573,1455.959 539.855,1416.981 532.909,1405.172Z" style="fill:none;stroke:black;stroke-width:4.17px;"/>
                </g>
                <g transform="matrix(1.294245,-0.066064,0.116613,1.062667,695.811045,-69.946434)">
                    <path d="M182.315,1384.277C182.315,1384.277 170.095,1436.396 169.561,1448.34L173.835,1451.675" style="fill:none;stroke:black;stroke-width:4.17px;"/>
                </g>
                <g transform="matrix(1.294245,-0.066064,0.116613,1.062667,695.811045,-69.946434)">
                    <path d="M180.716,1405.172C180.716,1405.172 179.808,1414.948 179.251,1429.931C178.828,1441.314 178.608,1455.702 179.142,1471.093C179.51,1481.669 180.233,1492.719 181.493,1503.591C183.591,1521.7 187.174,1539.319 193.072,1553.443L205.012,1551.078" style="fill:none;stroke:black;stroke-width:4.17px;"/>
                </g>
                <g transform="matrix(1.664758,0.196558,0.232932,1.171523,457.985593,-275.511705)">
                    <path d="M175.138,1451.675L178.827,1453.86" style="fill:none;stroke:black;stroke-width:3.07px;"/>
                </g>
                <g transform="matrix(1.295735,0,0,1.137626,961.743057,-214.429125)">
                    <path d="M539.702,1456.722C539.702,1456.722 495.714,1457.891 491.039,1459.561C491.039,1459.561 482.689,1410.23 480.352,1405.172" style="fill:none;stroke:black;stroke-width:2.08px;"/>
                </g>
                <g transform="matrix(1.295735,0,0,1.137626,961.743057,-214.429125)">
                    <path d="M486.222,1432.367C486.222,1432.367 491.706,1552.586 490.037,1563.974L480.352,1559.331C480.352,1559.331 481.163,1425.075 480.352,1412.385" style="fill:none;stroke:black;stroke-width:2.08px;"/>
                </g>
            </g>
        </g>
    </g>
</svg>
