<?xml version="1.0" encoding="UTF-8" standalone="no"?>
<svg width="100%" height="100%" viewBox="0 0 368 443" version="1.1" xmlns="http://www.w3.org/2000/svg" xmlns:xlink="http://www.w3.org/1999/xlink" xml:space="preserve" xmlns:serif="http://www.serif.com/" style="fill-rule:evenodd;clip-rule:evenodd;stroke-linecap:round;stroke-linejoin:round;stroke-miterlimit:1.5;">
    <g transform="matrix(1,0,0,1,-177.086719,-1131.459795)">
        <g>
            <path d="M491.215,1133.543C491.215,1133.543 520.925,1192.292 523.276,1204.262L532.04,1227.987L539.948,1257.91L542.35,1278.429C542.35,1278.429 541.23,1308.139 539.734,1321.391C538.238,1334.643 535.032,1369.483 533.963,1375.467C532.895,1381.452 533.322,1424.414 533.322,1432.963C533.322,1441.513 530.971,1480.627 530.971,1491.528C530.971,1502.429 530.757,1549.033 531.612,1551.166C531.612,1551.166 486.941,1560.352 477.536,1561.635C468.131,1562.917 420.468,1568.688 405.292,1568.474C390.116,1568.261 345.017,1573.081 339.033,1571.633C333.048,1570.184 281.109,1569.329 277.476,1569.116C273.842,1568.902 238.361,1565.482 234.3,1564.413C230.239,1563.345 201.598,1558.642 201.598,1558.642L199.888,1554.154L194.758,1515.681C194.758,1515.681 183.163,1421.662 182.896,1415.784C182.629,1409.906 177.849,1331.357 179.17,1321.204C180.491,1311.051 181.026,1284.868 189.575,1259.754C198.125,1234.64 195.72,1234.105 195.72,1234.105L205.071,1204.983L213.356,1179.067L222.438,1155.823C222.438,1155.823 251.827,1173.724 292.705,1172.655C292.705,1172.655 353.62,1171.882 381.407,1163.986C381.407,1163.986 439.651,1152.617 449.269,1149.411C449.269,1149.411 486.941,1136.912 491.215,1133.543Z" style="fill:rgb(77,75,75);"/>
            <g>
                <path d="M491.108,1133.543C491.108,1133.543 544.925,1232.684 542.253,1285.069C542.253,1285.069 539.582,1349.032 534.238,1374.859C534.238,1374.859 533.348,1424.732 533.348,1438.981C533.348,1453.23 528.449,1541.398 532.012,1551.64C532.012,1551.64 361.465,1591.048 200.715,1559.21C200.715,1559.21 193.679,1505.641 192.076,1493.351C190.473,1481.061 180.321,1419.077 179.252,1351.749C178.183,1284.42 187.802,1272.841 194.214,1240.157C194.214,1240.157 219.634,1159.612 223.069,1155.795C223.069,1155.795 263.527,1188.619 389.48,1162.665C389.48,1162.665 478.997,1145.261 491.108,1133.543Z" style="fill:none;stroke:black;stroke-width:4.17px;"/>
                <path d="M213.356,1181.431C213.356,1181.431 260.868,1234.009 506.28,1163.986" style="fill:none;stroke:black;stroke-width:2.08px;"/>
                <path d="M241.389,1319.392C241.389,1319.392 268.107,1379.506 346.255,1380.842" style="fill:none;stroke:black;stroke-width:2.08px;"/>
                <path d="M494.938,1167.192C494.938,1167.192 541.961,1261.281 523.259,1362.14C523.259,1362.14 513.907,1514.429 521.255,1551.166" style="fill:none;stroke:black;stroke-width:2.08px;"/>
            </g>
        </g>
    </g>
</svg>
