<?xml version="1.0" encoding="UTF-8" standalone="no"?>
<svg width="100%" height="100%" viewBox="0 0 582 441" version="1.1" xmlns="http://www.w3.org/2000/svg" xmlns:xlink="http://www.w3.org/1999/xlink" xml:space="preserve" xmlns:serif="http://www.serif.com/" style="fill-rule:evenodd;clip-rule:evenodd;stroke-linecap:round;stroke-linejoin:round;stroke-miterlimit:1.5;">
    <g transform="matrix(1,0,0,1,-1073.96225,-1187.162459)">
        <g id="fat">
            <g id="fat1" serif:id="fat">
                <path d="M1076.989,1214.009C1076.989,1214.009 1158.452,1237.167 1193.969,1240.157C1223.208,1242.62 1282.276,1248.082 1291.627,1248.082C1300.979,1248.082 1382.266,1243.956 1392.686,1242.62C1403.106,1241.284 1453.318,1239.808 1500.15,1228.282C1510.9,1225.636 1555.68,1217.853 1564.229,1214.647C1572.779,1211.441 1612.138,1203.248 1618.016,1200.843C1623.894,1198.439 1640.423,1189.246 1640.423,1189.246C1640.423,1189.246 1644.871,1235.729 1645.538,1243.076C1646.206,1250.424 1648.581,1291.168 1648.581,1295.175C1648.581,1299.183 1655.076,1344.937 1654.5,1350.948C1653.925,1356.96 1651.975,1388.501 1650.732,1392.843C1650.08,1395.116 1649.942,1416.444 1649.176,1424.382C1648.48,1431.6 1647.152,1453.772 1647.161,1457.017C1647.2,1472.539 1644.314,1470.787 1643.787,1491.025C1643.58,1498.981 1641.111,1514.829 1640.594,1517.105C1638.924,1524.452 1638.203,1540.856 1636.867,1549.539C1636.244,1553.587 1637.203,1551.28 1635.921,1561.879C1635.577,1564.723 1635.432,1562.018 1634.778,1566.328C1633.528,1574.565 1631.234,1590.377 1630.455,1595.549C1629.905,1599.196 1628.955,1598.277 1629.235,1607.146C1629.419,1613.013 1564.919,1620.497 1546.733,1622.039C1528.564,1623.58 1455.967,1627.858 1434.301,1625.612C1415.63,1623.677 1411.931,1626.6 1407.419,1610.237C1405.572,1603.538 1384.858,1547.6 1383.967,1543.741C1383.076,1539.881 1371.202,1503.664 1371.202,1503.664L1362.89,1544.631C1362.89,1544.631 1348.306,1601.877 1347.712,1612.564C1347.434,1617.581 1281.073,1625.783 1234.657,1620.116C1221.558,1618.516 1163.896,1613.789 1162.627,1610.213C1159.688,1601.931 1150.931,1583.517 1148.794,1576.838C1148.059,1574.541 1147.884,1573.372 1145.737,1568.091C1141.641,1558.018 1137.618,1553.176 1135.435,1546.717C1130.969,1533.504 1123.568,1512.621 1121.631,1505.853C1116.378,1487.492 1110.174,1463.198 1109.252,1458.586C1108.5,1454.825 1105.339,1445.572 1103.628,1436.621C1101.574,1425.882 1099.931,1427.271 1099.08,1409.742C1098.788,1403.721 1093.582,1386.716 1093.802,1380.037C1094.023,1373.357 1093.222,1369.884 1091.351,1364.541C1089.481,1359.197 1083.603,1341.296 1082.802,1334.617C1082,1327.938 1076.485,1293.205 1076.571,1287.594C1076.657,1281.984 1077.437,1218.284 1076.989,1214.009Z" style="fill:rgb(29,29,29);"/>
                <path d="M1076.655,1214.566C1076.102,1252.527 1070.984,1341.035 1103.867,1395.073" style="fill:none;stroke:black;stroke-width:4.17px;"/>
                <path d="M1347.712,1612.564C1348.61,1604.942 1350.462,1601.417 1351.983,1595.142C1355.546,1580.448 1369.35,1514.544 1370.686,1502.522M1093.802,1372.597C1093.802,1372.597 1100.444,1472.313 1162.627,1610.213" style="fill:none;stroke:black;stroke-width:4.17px;"/>
                <path d="M1641.066,1189.246C1641.066,1189.246 1618.914,1200.134 1610.788,1202.021C1563.673,1212.962 1512.681,1231.601 1414.506,1240.157C1286.698,1251.296 1329.587,1249.063 1225.499,1244.165C1225.499,1244.165 1147.456,1240.098 1076.655,1212M1635.167,1560.523C1647.782,1478.591 1654.598,1346.667 1653.089,1336.606C1650.418,1318.794 1643.293,1201.269 1641.066,1189.246M1627.835,1610.213C1630.55,1592.33 1632.985,1575.781 1635.167,1560.523M1243.778,1423.26C1243.778,1423.26 1285.19,1440.181 1354.21,1447.751C1354.21,1447.751 1383.516,1545.851 1411.916,1622.039" style="fill:none;stroke:black;stroke-width:4.17px;"/>
                <g transform="matrix(0.999283,0.037867,-0.037867,0.999283,698.419677,-36.163633)">
                    <path d="M972.337,1565.256C970.583,1582.265 968.552,1598.856 966.218,1614.523M962.496,1204.032C971.518,1224.103 977.002,1309.152 979.349,1323.863C980.847,1333.248 989.817,1459.591 972.337,1565.256" style="fill:none;stroke:black;stroke-width:2.08px;"/>
                </g>
                <g transform="matrix(1,0,0,1.011964,523.740108,-92.67187)">
                    <path d="M810.643,1520.177C810.643,1520.177 797.231,1627.471 796.987,1669.292C796.964,1673.193 797.056,1676.525 797.284,1679.146" style="fill:none;stroke:black;stroke-width:2.07px;"/>
                </g>
                <path d="M1165.143,1610.213C1165.143,1610.213 1249.748,1634.259 1347.712,1613.775" style="fill:none;stroke:black;stroke-width:4.17px;"/>
                <path d="M1414.506,1622.039C1414.506,1622.039 1515.057,1635.483 1627.578,1610.213" style="fill:none;stroke:black;stroke-width:4.17px;"/>
            </g>
        </g>
    </g>
</svg>
