<?xml version="1.0" encoding="UTF-8" standalone="no"?>
<!DOCTYPE svg PUBLIC "-//W3C//DTD SVG 1.1//EN" "http://www.w3.org/Graphics/SVG/1.1/DTD/svg11.dtd">
<svg width="100%" height="100%" viewBox="0 0 402 364" version="1.1" xmlns="http://www.w3.org/2000/svg" xmlns:xlink="http://www.w3.org/1999/xlink" xml:space="preserve" xmlns:serif="http://www.serif.com/" style="fill-rule:evenodd;clip-rule:evenodd;stroke-linecap:round;stroke-linejoin:round;stroke-miterlimit:1.5;">
    <g transform="matrix(1,0,0,1,-157.438407,-1171.799861)">
        <g id="muscle">
            <path d="M208.056,1199.683L203.5,1213.242L190.067,1256.862L183.833,1287.438C183.833,1287.438 181.833,1301.492 180.836,1321.014C180.107,1335.277 165.618,1353.13 166.182,1359.773C166.59,1364.581 158.742,1370.955 159.796,1381.487C160.462,1388.143 170.717,1383.748 170.401,1389.007C169.611,1402.166 169.024,1416.954 170.401,1425.895C171.822,1435.116 171.912,1457.22 171.912,1457.22C171.912,1457.22 177.135,1474.699 178.87,1484.657C180.224,1492.43 187.757,1482.229 190.07,1486.654C194.913,1495.914 195.391,1514.906 198.288,1515.639C208.427,1518.204 216.076,1520.877 250.327,1525.898C278.49,1530.027 316.544,1524.241 350.158,1527.7C353.891,1528.084 348.441,1527.336 352.181,1527.7C383.155,1530.707 411.629,1532.253 438.929,1533.173C478.753,1534.514 526.256,1523.378 526.343,1520.687C526.529,1514.91 528.504,1497.093 528.504,1497.093C528.504,1497.093 539.917,1495.213 540.249,1492.561C540.542,1490.216 544.592,1469.247 544.962,1465.183C545.791,1456.069 546.069,1437.703 546.069,1433.919C546.069,1432.453 547.823,1397.569 547.779,1394.4C547.654,1385.378 556.375,1392.949 555.503,1388.371C547.844,1348.152 538.332,1342.476 539.223,1337.43C540.114,1332.383 541.55,1312.375 541.55,1306.734C541.55,1301.094 540.363,1260.127 538.879,1253.596C537.394,1247.065 518.253,1195.34 514.097,1187.325C509.941,1179.31 509.107,1181.076 506.435,1173.883C506.435,1173.883 462.799,1198.348 440.238,1201.92C417.676,1205.493 356.717,1220.387 313.72,1217.691C313.72,1217.691 260.958,1216.453 247.302,1213.188C247.302,1213.188 224.598,1210.863 218.958,1206.113L208.056,1199.683Z" style="fill:rgb(70,86,22);"/>
            <g id="muscle1" serif:id="muscle" transform="matrix(1,0,0,1,-187.02228,19.514246)">
                <path d="M395.175,1179.664C384.685,1211.327 372.266,1251.986 370.263,1272.515C370.263,1272.515 364.029,1351.777 371.153,1419.461C371.153,1419.461 373.963,1456.279 384.387,1496.125" style="fill:none;stroke:black;stroke-width:4.17px;"/>
                <path d="M693.115,1154.369C693.115,1154.369 660.004,1187.957 521.98,1197.594C521.98,1197.594 425.368,1203.106 396.98,1180.563M725.683,1318.634C727.484,1307.284 729.231,1294.506 729.231,1280.418C729.231,1254.082 729.279,1214.817 693.115,1154.369M453.723,1336.525C453.723,1336.525 507.158,1360.189 522.807,1361.716C522.807,1361.716 523.899,1436.152 538.676,1508.185" style="fill:none;stroke:black;stroke-width:4.17px;"/>
                <g transform="matrix(1,0,0,1,-275.857861,-30.646525)">
                    <path d="M980.948,1507.13C980.158,1516.397 979.344,1525.13 978.519,1533.359M944.953,1200.322C944.953,1200.322 954.338,1231.028 966.628,1262.554C977.302,1289.935 983.139,1307.642 985.89,1349.28" style="fill:none;stroke:black;stroke-width:2.08px;"/>
                </g>
                <g transform="matrix(1,0,0,1,-275.857861,-30.646525)">
                    <path d="M810.643,1520.177C810.643,1520.177 809.74,1527.402 808.398,1538.832" style="fill:none;stroke:black;stroke-width:2.08px;"/>
                </g>
                <g transform="matrix(1,0,0,1,-275.857861,-30.646525)">
                    <path d="M774.463,1228.823C774.463,1228.823 770.6,1309.355 779.564,1386.635" style="fill:none;stroke:black;stroke-width:2.08px;"/>
                </g>
                <g transform="matrix(1,0,0,1,-275.857861,-30.646525)">
                    <path d="M754.314,1228.823C754.314,1228.823 749.972,1308.642 756.206,1330.016L773.635,1338.699" style="fill:none;stroke:black;stroke-width:2.08px;"/>
                </g>
                <g transform="matrix(1,0,0,1,-275.857861,-30.646525)">
                    <path d="M959.98,1246.467C959.98,1246.467 901.765,1262.665 886.039,1217.246" style="fill:none;stroke:black;stroke-width:2.08px;"/>
                </g>
                <g transform="matrix(1,0,0,1,-275.857861,-30.646525)">
                    <path d="M688.077,1221.587C688.077,1221.587 674.384,1249.529 661.025,1246.19" style="fill:none;stroke:black;stroke-width:2.08px;"/>
                </g>
                <g transform="matrix(1,0,0,1,187.02228,-19.514246)">
                    <path d="M527.659,1496.361C527.025,1505.379 526.359,1514.171 525.678,1522.226" style="fill:none;stroke:black;stroke-width:4.17px;"/>
                </g>
                <g transform="matrix(1,0,0,1,187.02228,-19.514246)">
                    <path d="M198.288,1515.639C198.288,1515.639 255.464,1534.875 352.181,1526.86" style="fill:none;stroke:black;stroke-width:4.17px;"/>
                </g>
                <g transform="matrix(1,0,0,1,187.02228,-19.514246)">
                    <path d="M352.181,1526.86C352.181,1526.86 427.262,1543.776 525.678,1522.226" style="fill:none;stroke:black;stroke-width:4.17px;"/>
                </g>
                <g transform="matrix(1.245437,0,0,1.014693,63.029017,-106.691925)">
                    <path d="M532.909,1405.172L479.474,1405.172C479.474,1405.172 472.126,1510.65 474.798,1552.062L475.199,1563.974C475.199,1563.974 524.054,1562.447 531.687,1559.394C539.321,1556.34 538.176,1461.684 539.702,1456.722L546.573,1455.959C546.573,1455.959 539.855,1416.981 532.909,1405.172Z" style="fill:none;stroke:black;stroke-width:4.17px;"/>
                </g>
                <g transform="matrix(1.23314,0.163241,-0.085599,0.95021,261.701794,-41.274616)">
                    <path d="M182.315,1384.277C182.315,1384.277 170.095,1436.396 169.561,1448.34L173.835,1451.675" style="fill:none;stroke:black;stroke-width:4.17px;"/>
                </g>
                <g transform="matrix(1.23314,0.163241,-0.085599,0.95021,261.701794,-41.274616)">
                    <path d="M180.716,1405.172C180.716,1405.172 177.904,1435.444 179.142,1471.093C179.51,1481.669 180.233,1492.719 181.493,1503.591C183.591,1521.7 187.174,1539.319 193.072,1553.443L202.69,1550.665" style="fill:none;stroke:black;stroke-width:4.17px;"/>
                </g>
                <g transform="matrix(1.534336,0.456438,0.004097,1.065375,75.178841,-261.856675)">
                    <path d="M175.138,1451.675L178.827,1453.86" style="fill:none;stroke:black;stroke-width:3.07px;"/>
                </g>
                <g transform="matrix(1.245437,0,0,1.014693,63.029017,-106.691925)">
                    <path d="M539.702,1456.722C539.702,1456.722 495.714,1457.891 491.039,1459.561C491.039,1459.561 482.689,1410.23 480.352,1405.172" style="fill:none;stroke:black;stroke-width:2.08px;"/>
                </g>
                <g transform="matrix(1.245437,0,0,1.014693,63.029017,-106.691925)">
                    <path d="M486.222,1432.367C486.222,1432.367 491.706,1552.586 490.037,1563.974L480.352,1559.331C480.352,1559.331 481.163,1425.075 480.352,1412.385" style="fill:none;stroke:black;stroke-width:2.08px;"/>
                </g>
            </g>
        </g>
    </g>
</svg>
