<?xml version="1.0" encoding="UTF-8" standalone="no"?>
<svg width="100%" height="100%" viewBox="0 0 584 454" version="1.1" xmlns="http://www.w3.org/2000/svg" xmlns:xlink="http://www.w3.org/1999/xlink" xml:space="preserve" xmlns:serif="http://www.serif.com/" style="fill-rule:evenodd;clip-rule:evenodd;stroke-linecap:round;stroke-linejoin:round;stroke-miterlimit:1.5;">
    <g transform="matrix(1,0,0,1,-1075.170858,-1186.173043)">
        <g>
            <path d="M1638.113,1188.256C1638.113,1188.256 1648.266,1267.428 1648.8,1278.115C1649.334,1288.802 1659.386,1345.71 1656.097,1355.328L1656.097,1386.053L1650.67,1437.618L1647.999,1479.03L1644.258,1530.06L1642.655,1574.679L1642.121,1608.877C1642.121,1608.877 1609.525,1618.762 1591.625,1621.167C1573.724,1623.572 1505.327,1633.19 1497.579,1633.19C1497.579,1633.19 1424.908,1639.359 1414.488,1638.011C1404.068,1636.663 1311.359,1638.29 1303.076,1635.339C1303.076,1635.339 1219.45,1629.717 1214.641,1628.648C1209.832,1627.579 1150.519,1620.633 1150.519,1620.633L1146.779,1605.404L1131.817,1536.205L1117.39,1480.366C1117.39,1480.366 1107.237,1449.374 1105.634,1442.694C1104.031,1436.015 1091.741,1375.099 1091.741,1370.557L1087.199,1356.664L1080.252,1322.199C1080.252,1322.199 1076.928,1271.97 1077.254,1265.29C1077.581,1258.611 1079.985,1215.596 1079.985,1215.596C1079.985,1215.596 1142.237,1232.161 1171.893,1235.634C1171.893,1235.634 1275.023,1247.39 1298,1246.321C1298,1246.321 1400.595,1242.544 1416.091,1240.157C1416.091,1240.157 1522.961,1224.68 1533.648,1221.207C1533.648,1221.207 1618.342,1200.192 1638.113,1188.256Z" style="fill:rgb(77,75,75);"/>
            <g id="fat">
                <path d="M1637.885,1188.256C1637.885,1188.256 1659.259,1343.218 1655.696,1384.184C1655.696,1384.184 1637.885,1594.251 1642.56,1608.945C1642.56,1608.945 1460.588,1665.386 1150.291,1620.968C1150.291,1620.968 1122.532,1490.72 1115.852,1477.362C1109.173,1464.003 1091.806,1384.518 1091.806,1370.492C1091.806,1370.492 1069.987,1331.299 1079.784,1215.53C1079.784,1215.53 1211.367,1260.659 1417.092,1240.157C1417.092,1240.157 1569.328,1223.049 1637.885,1188.256Z" style="fill:none;stroke:black;stroke-width:4.17px;"/>
                <path d="M1077.519,1254.333C1077.519,1254.333 1305.446,1327.171 1643.665,1232.948" style="fill:none;stroke:black;stroke-width:2.08px;"/>
                <g transform="matrix(1,0,0,1,-18.702228,3.288116)">
                    <path d="M1187.902,1366.268C1187.902,1366.268 1256.477,1464.232 1401.642,1430.39" style="fill:none;stroke:black;stroke-width:2.08px;"/>
                </g>
                <path d="M1625.297,1240.157C1625.297,1240.157 1637.32,1347.967 1635.316,1381.364C1633.312,1414.76 1627.969,1458.844 1627.969,1497.585C1627.969,1536.325 1625.965,1600.447 1629.305,1610.466" style="fill:none;stroke:black;stroke-width:2.08px;"/>
            </g>
        </g>
    </g>
</svg>
