<?xml version="1.0" encoding="UTF-8" standalone="no"?>
<svg width="100%" height="100%" viewBox="0 0 369 433" version="1.1" xmlns="http://www.w3.org/2000/svg" xmlns:xlink="http://www.w3.org/1999/xlink" xml:space="preserve" xmlns:serif="http://www.serif.com/" style="fill-rule:evenodd;clip-rule:evenodd;stroke-linecap:round;stroke-linejoin:round;stroke-miterlimit:1.5;">
    <g transform="matrix(1,0,0,1,-634.571726,-1160.175531)">
        <g id="normal">
            <path d="M931.535,1162.259C931.535,1162.259 903.768,1172.775 864.564,1178.707C823.953,1184.852 805.043,1187.463 775.832,1188.265C775.832,1188.265 722.189,1187.91 713.105,1185.238L688.573,1178.375L661.273,1240.157L647.766,1277.468L636.655,1331.794L636.655,1404.946L642.53,1435.201L644.093,1450.012L649.361,1483.219L658.4,1517.114L662.33,1530.364L666.316,1543.679L674.911,1571.455L677.886,1580.984L680.744,1583.102L718.489,1589.519L768.265,1589.171L822.131,1582.583L823.508,1585.016L860.615,1590.759L924.107,1589.117L978.291,1582.583L983.061,1576.883L983.563,1561.234L985.39,1551.561L986.83,1542.577L989.791,1518.032L993.261,1491.167L995.172,1466.312L997.01,1449.644L998.7,1422.071L1001.404,1395.159L1001.404,1379.247L1002.069,1340.269L998.596,1312.216L981.349,1259.82L931.535,1162.259Z" style="fill:rgb(29,29,29);"/>
            <clipPath id="_clip1">
                <path d="M931.535,1162.259C931.535,1162.259 903.768,1172.775 864.564,1178.707C823.953,1184.852 805.043,1187.463 775.832,1188.265C775.832,1188.265 722.189,1187.91 713.105,1185.238L688.573,1178.375L661.273,1240.157L647.766,1277.468L636.655,1331.794L636.655,1404.946L642.53,1435.201L644.093,1450.012L649.361,1483.219L658.4,1517.114L662.33,1530.364L666.316,1543.679L674.911,1571.455L677.886,1580.984L680.744,1583.102L718.489,1589.519L768.265,1589.171L822.131,1582.583L823.508,1585.016L860.615,1590.759L924.107,1589.117L978.291,1582.583L983.061,1576.883L983.563,1561.234L985.39,1551.561L986.83,1542.577L989.791,1518.032L993.261,1491.167L995.172,1466.312L997.01,1449.644L998.7,1422.071L1001.404,1395.159L1001.404,1379.247L1002.069,1340.269L998.596,1312.216L981.349,1259.82L931.535,1162.259Z"/>
            </clipPath>
            <g clip-path="url(#_clip1)">
                <g transform="matrix(0.028456,0,0,0.028456,910.724319,1283.796014)">
                    <g transform="matrix(1,0,0,1,-3643.75,-5168.75)">
                        <g id="alo-yoga-1.jpg" transform="matrix(4.903158,0,0,4.903158,1383.333333,2983.333333)">
                            <path d="M526.5,163.05C530.783,163.219 531.899,161.739 532.591,164.475C532.776,165.206 532.68,441.658 532.639,442.524C532.514,445.183 523.948,444.34 521.5,444.34C500.215,444.34 498.333,445.156 498.31,441.506C498.309,441.322 498.303,166.24 498.313,165.49C498.356,162.433 500.048,163.05 526.5,163.05Z" style="fill:rgb(254,254,254);"/>
                            <path d="M372.42,277.083C376.079,276.525 397.741,273.223 418.467,281.584C436.251,288.758 434.854,291.27 436.465,291.624C440.904,292.6 434.476,281.303 441.499,281.304C470.944,281.31 472.28,280.858 472.538,283.497C472.55,283.625 472.602,441.955 472.51,442.502C472.142,444.685 471.084,444.354 441.5,444.343C436.771,444.341 438.148,442.196 438.17,437.502C438.201,430.732 434.708,436.415 425.306,441.145C357.045,475.491 286.21,408.034 305.863,339.605C321.679,284.539 370.873,277.453 372.42,277.083ZM388.501,311.113C384.998,311.191 362.481,311.696 348.885,329.813C315.927,373.73 358.062,423.486 397.582,413.863C456.799,399.443 448.001,313.637 388.501,311.113Z" style="fill:rgb(254,254,254);"/>
                            <path d="M621.423,277.062C627.428,276.159 665.367,270.454 694.124,298.871C758.208,362.194 700.197,464.742 620.466,448.673C552.6,434.995 533.227,351.858 570.784,307.736C589.789,285.409 604.735,281.04 621.423,277.062ZM635.498,311.113C580.651,313.623 569.337,386.262 613.65,409.214C664.587,435.597 713.862,366.637 670.352,324.652C657.412,312.165 638.486,311.257 635.498,311.113Z" style="fill:rgb(254,254,254);"/>
                        </g>
                    </g>
                </g>
            </g>
            <g id="normal1" serif:id="normal" transform="matrix(1,0,0,1,-189.026092,13.830082)">
                <path d="M877.451,1164.331C868.478,1181.667 846.215,1236.881 843.048,1245.196C843.048,1245.196 826.572,1292.281 825.681,1341.824C825.681,1341.824 827.462,1432.334 845.719,1496.456C855.155,1529.597 861.974,1551.319 867.652,1568.753" style="fill:none;stroke:black;stroke-width:4.17px;"/>
                <path d="M1120.973,1148.429C1120.973,1148.429 1063.085,1171.648 966.711,1173.81C966.711,1173.81 913.89,1179.495 877.451,1163.58M1174.416,1537.731C1174.798,1530.86 1201.316,1363.555 1185.286,1291.494C1175.395,1247.035 1130.133,1163.696 1120.973,1148.429M911.177,1368.434C911.177,1368.434 951.699,1391.59 985.095,1397.378C985.095,1397.378 1002.074,1535.065 1013.206,1572.48" style="fill:none;stroke:black;stroke-width:4.17px;"/>
                <g transform="matrix(1,0,0,1,189.026092,-13.830082)">
                    <path d="M824.18,1585.47C824.18,1585.47 860.604,1599.108 982.005,1582.583" style="fill:none;stroke:black;stroke-width:4.17px;"/>
                </g>
                <g transform="matrix(1,0,0,1,189.026092,-10.339197)">
                    <path d="M678.837,1579.632C678.837,1579.632 749.136,1594.038 821.273,1579.611" style="fill:none;stroke:black;stroke-width:4.17px;"/>
                </g>
                <g transform="matrix(1,0,0,1,189.026092,-13.830082)">
                    <path d="M974.657,1551.593C972.771,1568.713 971.338,1581.132 971.006,1585.47M920.574,1168.372C920.574,1168.372 954.338,1231.028 966.628,1262.554C978.919,1294.081 999.67,1378.265 976.333,1551.561" style="fill:none;stroke:black;stroke-width:2.08px;"/>
                </g>
                <g transform="matrix(1,0,0,1,189.026092,-13.830082)">
                    <path d="M810.643,1520.177C810.643,1520.177 807.004,1549.293 803.482,1583.102" style="fill:none;stroke:black;stroke-width:2.08px;"/>
                </g>
                <g transform="matrix(1,0,0,1,189.026092,-13.830082)">
                    <path d="M985.39,1551.561C984.128,1563.9 982.959,1574.74 982.005,1582.583" style="fill:none;stroke:black;stroke-width:4.17px;"/>
                </g>
            </g>
        </g>
    </g>
</svg>
