<?xml version="1.0" encoding="UTF-8" standalone="no"?>
<!DOCTYPE svg PUBLIC "-//W3C//DTD SVG 1.1//EN" "http://www.w3.org/Graphics/SVG/1.1/DTD/svg11.dtd">
<svg width="100%" height="100%" viewBox="0 0 371 386" version="1.1" xmlns="http://www.w3.org/2000/svg" xmlns:xlink="http://www.w3.org/1999/xlink" xml:space="preserve" xmlns:serif="http://www.serif.com/" style="fill-rule:evenodd;clip-rule:evenodd;stroke-linecap:round;stroke-linejoin:round;stroke-miterlimit:1.5;">
    <g transform="matrix(1,0,0,1,-634.571726,-1207.821683)">
        <g id="normal">
            <path d="M955.581,1209.905C955.581,1209.905 894.862,1234.225 855.658,1240.157C815.047,1246.302 780.404,1248.617 757.426,1246.746C757.426,1246.746 706.455,1242.829 697.372,1240.157L664.527,1230.029L661.273,1240.157L647.766,1277.468L636.655,1331.794L636.655,1386.713L639.157,1398.587L640.125,1421.522L649.949,1480.654L653.751,1497.289L664.628,1536.081L674.911,1571.455L677.886,1580.984L680.744,1583.102L718.489,1589.519L768.265,1589.171L822.131,1582.583L823.508,1585.016L860.615,1590.759L924.107,1589.117L978.291,1582.583L983.061,1576.883L983.563,1561.234L990.148,1500.089L993.593,1477.001L993.814,1463.805L997.096,1430.554L999.398,1415.345L1003.138,1379.544L1002.069,1340.269L998.596,1312.216L988.176,1273.475L967.604,1232.063" style="fill:rgb(81,107,174);"/>
            <clipPath id="_clip1">
                <path d="M955.581,1209.905C955.581,1209.905 894.862,1234.225 855.658,1240.157C815.047,1246.302 780.404,1248.617 757.426,1246.746C757.426,1246.746 706.455,1242.829 697.372,1240.157L664.527,1230.029L661.273,1240.157L647.766,1277.468L636.655,1331.794L636.655,1386.713L639.157,1398.587L640.125,1421.522L649.949,1480.654L653.751,1497.289L664.628,1536.081L674.911,1571.455L677.886,1580.984L680.744,1583.102L718.489,1589.519L768.265,1589.171L822.131,1582.583L823.508,1585.016L860.615,1590.759L924.107,1589.117L978.291,1582.583L983.061,1576.883L983.563,1561.234L990.148,1500.089L993.593,1477.001L993.814,1463.805L997.096,1430.554L999.398,1415.345L1003.138,1379.544L1002.069,1340.269L998.596,1312.216L988.176,1273.475L967.604,1232.063"/>
            </clipPath>
            <g clip-path="url(#_clip1)">
                <g transform="matrix(-0.00366,0.040655,-0.040944,-0.000444,903.803308,1512.925649)">
                    <g transform="matrix(1,0,0,1,-3643.75,-5168.75)">
                        <g id="_5a7f5f47abc3d121aba71181.png" serif:id="5a7f5f47abc3d121aba71181.png" transform="matrix(9.809338,0,0,9.809338,1487.916371,3540.618292)">
                            <path d="M68.5,2.034L374.5,2.034C380.228,1.997 377.965,4.825 377.966,10.5C377.971,125.615 377.931,125.602 378.034,129.495C378.115,132.53 376.364,131.966 345.5,131.966C7.396,131.966 7.4,131.958 4.505,132.034C2.224,132.095 2.044,130.955 2.035,129.512C1.968,119.35 1.206,3.811 2.483,2.483C2.979,1.967 3.134,2.034 68.5,2.034Z" style="fill:rgb(227,36,31);"/>
                            <path d="M131.908,46.381C133.181,46.559 133.23,46.931 134.237,46.096C142.771,39.013 156.65,41.486 161.526,50.484C175.436,76.149 142.517,105.234 127.284,89.739C123.632,86.025 125.05,91.603 121.092,115.436C120.525,118.854 117.019,118.398 108.534,118.196C105.957,118.134 107.621,112.401 107.761,111.541C118.48,45.713 117.115,43.654 120.503,43.541C130.398,43.21 131.81,42.973 131.908,46.381Z" style="fill:rgb(254,254,254);"/>
                            <path d="M303.935,61.531C303.934,60.823 303.926,54.362 300.541,53.363C286.181,49.127 288.392,89.962 284.333,92.047C283.837,92.301 272.861,92.251 272.605,92.132C268.421,90.19 281.877,56.107 272.538,53.37C259.576,49.57 259.998,82.28 257.572,90.52C256.756,93.293 243.399,93.064 243.666,90.502C243.715,90.035 250.879,45.057 250.992,44.692C251.593,42.738 263.815,43.515 264.262,43.842C264.904,44.312 264.047,48.491 266.707,45.911C270.1,42.62 277.748,40.606 283.649,43.139C288.949,45.414 288.559,50.733 292.806,46.858C298.682,41.496 310.238,39.854 315.44,45.555C317.864,48.212 320.64,51.255 313.431,90.482C312.985,92.906 306.42,92.26 301.516,92.215C297.789,92.18 300.305,89.827 303.935,61.531Z" style="fill:rgb(254,254,254);"/>
                            <path d="M31.534,94.12C24.437,92.448 23.744,93.497 18.721,88.276C10.687,79.927 14.616,78.172 14.886,77.95C19.728,73.96 23.153,69.353 24.833,73.35C29.157,83.637 39.907,82.6 44.084,77.155C54.882,63.076 34.131,57.494 33.627,57.244C31.505,56.191 14.844,47.923 25.818,28.684C39.127,5.351 70.443,19.701 66.017,25.15C60.919,31.428 59.199,34.206 57.147,31.837C51.166,24.932 42.528,28.407 39.923,31.856C32.396,41.822 48.092,46.359 51.301,47.896C70.258,56.982 61.991,76.538 55.01,85.06C47.775,93.892 33.547,94.092 31.534,94.12Z" style="fill:rgb(254,254,254);"/>
                            <path d="M319.92,72.513C320.168,70.685 321.868,58.142 327.954,50.895C331.622,46.526 337.314,43.723 340.612,42.917C366.657,36.557 369.802,60.597 367,68.69C365.695,72.46 335.593,67.786 334.678,71.55C332.429,80.805 342.682,87.783 350.436,79.439C353.217,76.447 353.736,76.32 363.572,78.326C366.432,78.909 360.859,84.983 360.438,85.441C352.064,94.567 321.689,103.426 319.92,72.513Z" style="fill:rgb(254,254,254);"/>
                            <path d="M215.5,70.122C214.815,70.238 214.102,70.09 213.417,70.206C210.818,70.648 210.769,82.986 219.509,83.134C225.758,83.239 229.223,77.863 229.555,77.56C230.97,76.267 243.183,77.261 241.642,80.565C234.059,96.83 197.48,101.595 197.311,73.501C197.072,33.796 252.797,31.215 244.44,68.482C243.982,70.526 243.114,70.122 215.5,70.122Z" style="fill:rgb(254,254,254);"/>
                            <path d="M79.084,74.5C80.325,87.292 92.578,83.241 94.823,72.576C97.799,58.434 97.797,43.633 101.503,43.542C106.551,43.417 113.528,42.841 113.173,45.479C108.891,77.371 106.773,80.66 105.1,83.258C95.049,98.868 61.59,99.663 64.941,73.552C65.245,71.179 68.522,45.642 70.152,44.11C70.784,43.515 83.598,42.102 83.337,45.491C83.017,49.651 79.894,63.977 79.084,74.5Z" style="fill:rgb(254,254,254);"/>
                            <path d="M165.894,78.56C170.717,48.561 171.05,44.652 171.903,43.986C172.258,43.709 185.648,41.921 185.003,45.608C184.052,51.043 189.498,41.679 197.511,41.95C206.416,42.252 202.117,48.154 201.71,49.562C200.558,53.543 200.444,55.85 197.4,54.808C181.133,49.239 180.124,77.564 178.131,89.442C177.57,92.785 174.602,92.44 165.534,92.211C163.063,92.149 164.829,85.167 165.894,78.56Z" style="fill:rgb(254,254,254);"/>
                            <path d="M127.087,69.483C130.477,49.759 145.369,53.163 148.499,58.5C158.395,75.371 128.239,94.607 127.087,69.483Z" style="fill:rgb(227,36,31);"/>
                            <path d="M217.342,55.359C225.06,47.705 231.811,53.354 232.381,59.506C232.506,60.858 232.127,62.303 215.516,61.444C212.97,61.312 217.041,55.769 217.342,55.359Z" style="fill:rgb(227,34,29);"/>
                            <path d="M338.382,57.427C346.774,45.716 355.013,54.425 354.939,59.5C354.92,60.824 354.542,61.939 338.501,61.491C335.7,61.412 337.402,60.017 338.382,57.427Z" style="fill:rgb(227,34,29);"/>
                        </g>
                    </g>
                </g>
            </g>
            <g id="normal1" serif:id="normal" transform="matrix(1,0,0,1,-189.026092,13.830082)">
                <path d="M854.3,1214.204C850.225,1225.751 846.215,1236.881 843.048,1245.196C843.048,1245.196 826.572,1292.281 825.681,1341.824C825.681,1341.824 827.462,1432.334 845.719,1496.456C855.155,1529.597 861.974,1551.319 867.652,1568.753" style="fill:none;stroke:black;stroke-width:4.17px;"/>
                <path d="M1144.128,1196.075C1144.128,1196.075 1053.289,1238.441 963.594,1233.479C963.594,1233.479 892.961,1232.484 856.522,1216.57M1186.339,1416.724C1186.892,1411.788 1187.335,1408.064 1187.576,1406.38C1188.721,1398.364 1190.629,1381.952 1191.011,1375.082C1191.392,1368.212 1195.973,1335.769 1185.286,1291.494C1174.599,1247.22 1153.288,1211.342 1144.128,1196.075M911.177,1368.434C911.177,1368.434 951.699,1391.59 985.095,1397.378C985.095,1397.378 1002.074,1535.065 1013.206,1572.48" style="fill:none;stroke:black;stroke-width:4.17px;"/>
                <g transform="matrix(1,0,0,1,189.026092,-13.830082)">
                    <path d="M824.18,1585.47C824.18,1585.47 860.604,1599.108 982.005,1582.583" style="fill:none;stroke:black;stroke-width:4.17px;"/>
                </g>
                <g transform="matrix(1,0,0,1,189.026092,-10.339197)">
                    <path d="M678.837,1579.632C678.837,1579.632 749.136,1594.038 821.273,1579.611" style="fill:none;stroke:black;stroke-width:4.17px;"/>
                </g>
                <g transform="matrix(1,0,0,1,189.026092,-13.830082)">
                    <path d="M945.065,1216.464C945.065,1216.464 954.338,1231.028 966.628,1262.554C978.919,1294.081 984.469,1312.796 986.934,1369.958C989.684,1433.73 972.278,1568.856 971.006,1585.47" style="fill:none;stroke:black;stroke-width:2.08px;"/>
                </g>
                <g transform="matrix(1,0,0,1,189.026092,-13.830082)">
                    <path d="M810.643,1520.177C810.643,1520.177 807.004,1549.293 803.482,1583.102" style="fill:none;stroke:black;stroke-width:2.08px;"/>
                </g>
                <g transform="matrix(1,0,0,1,189.026092,-13.830082)">
                    <path d="M774.797,1246.746C774.797,1246.746 767.672,1332.047 782.812,1405.172" style="fill:none;stroke:black;stroke-width:2.08px;"/>
                </g>
                <g transform="matrix(1,0,0,1,192.64187,36.996697)">
                    <path d="M745.853,1195.92C745.853,1195.92 748.97,1291.275 755.204,1312.649L774.351,1320.665" style="fill:none;stroke:black;stroke-width:2.08px;"/>
                </g>
                <g transform="matrix(1,0,0,1,189.026092,-13.830082)">
                    <path d="M971.081,1269.547C971.081,1269.547 919.577,1280.652 903.85,1235.232" style="fill:none;stroke:black;stroke-width:2.08px;"/>
                </g>
                <g transform="matrix(1,0,0,1,189.026092,-13.830082)">
                    <path d="M685.643,1235.232C685.643,1235.232 672.762,1273.098 648.43,1281.304" style="fill:none;stroke:black;stroke-width:2.08px;"/>
                </g>
                <g transform="matrix(1,0,0,1,189.026092,-13.830082)">
                    <path d="M997.096,1427.303C997.096,1427.303 986.815,1543.041 982.005,1582.583" style="fill:none;stroke:black;stroke-width:4.17px;"/>
                </g>
            </g>
        </g>
    </g>
</svg>
