<?xml version="1.0" encoding="UTF-8" standalone="no"?>
<!DOCTYPE svg PUBLIC "-//W3C//DTD SVG 1.1//EN" "http://www.w3.org/Graphics/SVG/1.1/DTD/svg11.dtd">
<svg width="100%" height="100%" viewBox="0 0 371 386" version="1.1" xmlns="http://www.w3.org/2000/svg" xmlns:xlink="http://www.w3.org/1999/xlink" xml:space="preserve" xmlns:serif="http://www.serif.com/" style="fill-rule:evenodd;clip-rule:evenodd;stroke-linecap:round;stroke-linejoin:round;stroke-miterlimit:1.5;">
    <g transform="matrix(1,0,0,1,-634.571726,-1207.821683)">
        <g id="normal">
            <path d="M955.581,1209.905C955.581,1209.905 894.862,1234.225 855.658,1240.157C815.047,1246.302 780.404,1248.617 757.426,1246.746C757.426,1246.746 706.455,1242.829 697.372,1240.157L664.527,1230.029L661.273,1240.157L647.766,1277.468L636.655,1331.794L636.655,1386.713L639.157,1398.587L640.125,1421.522L649.949,1480.654L653.751,1497.289L664.628,1536.081L674.911,1571.455L677.886,1580.984L680.744,1583.102L718.489,1589.519L768.265,1589.171L822.131,1582.583L823.508,1585.016L860.615,1590.759L924.107,1589.117L978.291,1582.583L983.061,1576.883L983.563,1561.234L990.148,1500.089L993.593,1477.001L993.814,1463.805L997.096,1430.554L999.398,1415.345L1003.138,1379.544L1002.069,1340.269L998.596,1312.216L988.176,1273.475L967.604,1232.063" style="fill:rgb(81,107,174);"/>
            <g id="normal1" serif:id="normal" transform="matrix(1,0,0,1,-189.026092,13.830082)">
                <path d="M854.3,1214.204C850.225,1225.751 846.215,1236.881 843.048,1245.196C843.048,1245.196 826.572,1292.281 825.681,1341.824C825.681,1341.824 827.462,1432.334 845.719,1496.456C855.155,1529.597 861.974,1551.319 867.652,1568.753" style="fill:none;stroke:black;stroke-width:4.17px;"/>
                <path d="M1144.128,1196.075C1144.128,1196.075 1053.289,1238.441 963.594,1233.479C963.594,1233.479 892.961,1232.484 856.522,1216.57M1186.339,1416.724C1186.892,1411.788 1187.335,1408.064 1187.576,1406.38C1188.721,1398.364 1190.629,1381.952 1191.011,1375.082C1191.392,1368.212 1195.973,1335.769 1185.286,1291.494C1174.599,1247.22 1153.288,1211.342 1144.128,1196.075M911.177,1368.434C911.177,1368.434 951.699,1391.59 985.095,1397.378C985.095,1397.378 1002.074,1535.065 1013.206,1572.48" style="fill:none;stroke:black;stroke-width:4.17px;"/>
                <g transform="matrix(1,0,0,1,189.026092,-13.830082)">
                    <path d="M824.18,1585.47C824.18,1585.47 860.604,1599.108 982.005,1582.583" style="fill:none;stroke:black;stroke-width:4.17px;"/>
                </g>
                <g transform="matrix(1,0,0,1,189.026092,-10.339197)">
                    <path d="M678.837,1579.632C678.837,1579.632 749.136,1594.038 821.273,1579.611" style="fill:none;stroke:black;stroke-width:4.17px;"/>
                </g>
                <g transform="matrix(1,0,0,1,189.026092,-13.830082)">
                    <path d="M945.065,1216.464C945.065,1216.464 954.338,1231.028 966.628,1262.554C978.919,1294.081 984.469,1312.796 986.934,1369.958C989.684,1433.73 972.278,1568.856 971.006,1585.47" style="fill:none;stroke:black;stroke-width:2.08px;"/>
                </g>
                <g transform="matrix(1,0,0,1,189.026092,-13.830082)">
                    <path d="M810.643,1520.177C810.643,1520.177 807.004,1549.293 803.482,1583.102" style="fill:none;stroke:black;stroke-width:2.08px;"/>
                </g>
                <g transform="matrix(1,0,0,1,189.026092,-13.830082)">
                    <path d="M774.797,1246.746C774.797,1246.746 767.672,1332.047 782.812,1405.172" style="fill:none;stroke:black;stroke-width:2.08px;"/>
                </g>
                <g transform="matrix(1,0,0,1,192.64187,36.996697)">
                    <path d="M745.853,1195.92C745.853,1195.92 748.97,1291.275 755.204,1312.649L774.351,1320.665" style="fill:none;stroke:black;stroke-width:2.08px;"/>
                </g>
                <g transform="matrix(1,0,0,1,189.026092,-13.830082)">
                    <path d="M971.081,1269.547C971.081,1269.547 919.577,1280.652 903.85,1235.232" style="fill:none;stroke:black;stroke-width:2.08px;"/>
                </g>
                <g transform="matrix(1,0,0,1,189.026092,-13.830082)">
                    <path d="M685.643,1235.232C685.643,1235.232 672.762,1273.098 648.43,1281.304" style="fill:none;stroke:black;stroke-width:2.08px;"/>
                </g>
                <g transform="matrix(1,0,0,1,189.026092,-13.830082)">
                    <path d="M997.096,1427.303C997.096,1427.303 986.815,1543.041 982.005,1582.583" style="fill:none;stroke:black;stroke-width:4.17px;"/>
                </g>
            </g>
        </g>
    </g>
</svg>
