<?xml version="1.0" encoding="UTF-8" standalone="no"?>
<!DOCTYPE svg PUBLIC "-//W3C//DTD SVG 1.1//EN" "http://www.w3.org/Graphics/SVG/1.1/DTD/svg11.dtd">
<svg width="100%" height="100%" viewBox="0 0 366 401" version="1.1" xmlns="http://www.w3.org/2000/svg" xmlns:xlink="http://www.w3.org/1999/xlink" xml:space="preserve" xmlns:serif="http://www.serif.com/" style="fill-rule:evenodd;clip-rule:evenodd;stroke-linecap:round;stroke-linejoin:round;stroke-miterlimit:1.5;">
    <g transform="matrix(1,0,0,1,-178.632658,-1134.777082)">
        <g id="muscle">
            <path d="M208.056,1199.683L203.5,1213.242L190.067,1256.862L183.833,1287.438C183.833,1287.438 181.833,1301.492 180.836,1321.014C180.107,1335.277 180.152,1347.787 180.716,1354.429C181.124,1359.238 179.662,1363.463 180.716,1373.995C181.382,1380.651 180.505,1380.964 180.716,1386.228C181.422,1403.876 181.903,1409.259 182.64,1421.62C183.195,1430.933 184.737,1451.876 184.737,1451.876C184.737,1451.876 186.326,1464.225 188.061,1474.184C189.415,1481.957 187.757,1482.229 190.07,1486.654C194.913,1495.914 195.391,1514.906 198.288,1515.639C208.427,1518.204 216.076,1520.877 250.327,1525.898C278.49,1530.027 316.544,1524.241 350.158,1527.7C353.891,1528.084 348.441,1527.336 352.181,1527.7C383.155,1530.707 411.629,1532.253 438.929,1533.173C478.753,1534.514 526.256,1523.378 526.343,1520.687C526.529,1514.91 528.504,1497.093 528.504,1497.093C528.504,1497.093 529.626,1492.274 529.957,1489.622C530.25,1487.277 529.587,1472.453 529.957,1468.389C530.787,1459.275 533.259,1443.808 532.711,1440.064C531.909,1434.59 533.502,1409.111 533.458,1405.942C533.334,1396.92 532.964,1374.7 533.998,1370.156C539.164,1347.464 538.332,1342.476 539.223,1337.43C540.114,1332.383 541.55,1312.375 541.55,1306.734C541.55,1301.094 539.175,1262.799 537.691,1256.268C536.207,1249.737 516.115,1184.921 511.959,1176.905C507.803,1168.89 492.809,1144.053 490.137,1136.86C490.137,1136.86 461.196,1146.516 435.429,1154.363C413.577,1161.018 384.236,1167.753 342.04,1171.737C342.04,1171.737 290.228,1174.418 265.618,1172.221C265.618,1172.221 228.957,1161.561 223.317,1156.812L208.056,1199.683Z" style="fill:rgb(29,29,29);"/>
            <clipPath id="_clip1">
                <path d="M208.056,1199.683L203.5,1213.242L190.067,1256.862L183.833,1287.438C183.833,1287.438 181.833,1301.492 180.836,1321.014C180.107,1335.277 180.152,1347.787 180.716,1354.429C181.124,1359.238 179.662,1363.463 180.716,1373.995C181.382,1380.651 180.505,1380.964 180.716,1386.228C181.422,1403.876 181.903,1409.259 182.64,1421.62C183.195,1430.933 184.737,1451.876 184.737,1451.876C184.737,1451.876 186.326,1464.225 188.061,1474.184C189.415,1481.957 187.757,1482.229 190.07,1486.654C194.913,1495.914 195.391,1514.906 198.288,1515.639C208.427,1518.204 216.076,1520.877 250.327,1525.898C278.49,1530.027 316.544,1524.241 350.158,1527.7C353.891,1528.084 348.441,1527.336 352.181,1527.7C383.155,1530.707 411.629,1532.253 438.929,1533.173C478.753,1534.514 526.256,1523.378 526.343,1520.687C526.529,1514.91 528.504,1497.093 528.504,1497.093C528.504,1497.093 529.626,1492.274 529.957,1489.622C530.25,1487.277 529.587,1472.453 529.957,1468.389C530.787,1459.275 533.259,1443.808 532.711,1440.064C531.909,1434.59 533.502,1409.111 533.458,1405.942C533.334,1396.92 532.964,1374.7 533.998,1370.156C539.164,1347.464 538.332,1342.476 539.223,1337.43C540.114,1332.383 541.55,1312.375 541.55,1306.734C541.55,1301.094 539.175,1262.799 537.691,1256.268C536.207,1249.737 516.115,1184.921 511.959,1176.905C507.803,1168.89 492.809,1144.053 490.137,1136.86C490.137,1136.86 461.196,1146.516 435.429,1154.363C413.577,1161.018 384.236,1167.753 342.04,1171.737C342.04,1171.737 290.228,1174.418 265.618,1172.221C265.618,1172.221 228.957,1161.561 223.317,1156.812L208.056,1199.683Z"/>
            </clipPath>
            <g clip-path="url(#_clip1)">
                <g transform="matrix(0.028456,0,0,0.028456,457.027183,1249.063303)">
                    <g transform="matrix(1,0,0,1,-3643.75,-5168.75)">
                        <g id="alo-yoga-1.jpg" transform="matrix(4.903158,0,0,4.903158,1383.333333,2983.333333)">
                            <path d="M526.5,163.05C530.783,163.219 531.899,161.739 532.591,164.475C532.776,165.206 532.68,441.658 532.639,442.524C532.514,445.183 523.948,444.34 521.5,444.34C500.215,444.34 498.333,445.156 498.31,441.506C498.309,441.322 498.303,166.24 498.313,165.49C498.356,162.433 500.048,163.05 526.5,163.05Z" style="fill:rgb(254,254,254);"/>
                            <path d="M372.42,277.083C376.079,276.525 397.741,273.223 418.467,281.584C436.251,288.758 434.854,291.27 436.465,291.624C440.904,292.6 434.476,281.303 441.499,281.304C470.944,281.31 472.28,280.858 472.538,283.497C472.55,283.625 472.602,441.955 472.51,442.502C472.142,444.685 471.084,444.354 441.5,444.343C436.771,444.341 438.148,442.196 438.17,437.502C438.201,430.732 434.708,436.415 425.306,441.145C357.045,475.491 286.21,408.034 305.863,339.605C321.679,284.539 370.873,277.453 372.42,277.083ZM388.501,311.113C384.998,311.191 362.481,311.696 348.885,329.813C315.927,373.73 358.062,423.486 397.582,413.863C456.799,399.443 448.001,313.637 388.501,311.113Z" style="fill:rgb(254,254,254);"/>
                            <path d="M621.423,277.062C627.428,276.159 665.367,270.454 694.124,298.871C758.208,362.194 700.197,464.742 620.466,448.673C552.6,434.995 533.227,351.858 570.784,307.736C589.789,285.409 604.735,281.04 621.423,277.062ZM635.498,311.113C580.651,313.623 569.337,386.262 613.65,409.214C664.587,435.597 713.862,366.637 670.352,324.652C657.412,312.165 638.486,311.257 635.498,311.113Z" style="fill:rgb(254,254,254);"/>
                        </g>
                    </g>
                </g>
            </g>
            <g id="muscle1" serif:id="muscle" transform="matrix(1,0,0,1,-187.02228,19.514246)">
                <path d="M410.339,1137.297C392.216,1181.174 372.266,1251.986 370.263,1272.515C370.263,1272.515 364.029,1351.777 371.153,1419.461C371.153,1419.461 373.963,1456.279 384.387,1496.125" style="fill:none;stroke:black;stroke-width:4.17px;"/>
                <path d="M676.703,1117.346C676.703,1117.346 666.816,1120.527 629.458,1132.038C603.186,1140.133 570.953,1148.958 513.965,1152.938C513.965,1152.938 438.726,1159.595 410.339,1137.051M720.339,1353.367C726.949,1329.727 729.231,1294.506 729.231,1280.418C729.231,1254.082 720.5,1184.665 676.703,1117.346M453.723,1336.525C453.723,1336.525 507.158,1360.189 522.807,1361.716C522.807,1361.716 523.899,1436.152 538.676,1508.185" style="fill:none;stroke:black;stroke-width:4.17px;"/>
                <g transform="matrix(1,0,0,1,-275.857861,-30.646525)">
                    <path d="M980.948,1507.13C980.158,1516.397 979.344,1525.13 978.519,1533.359M937.472,1157.574C937.472,1157.574 952.201,1195.76 964.491,1227.287C975.165,1254.668 990.844,1284.704 980.948,1507.13" style="fill:none;stroke:black;stroke-width:2.08px;"/>
                </g>
                <g transform="matrix(1,0,0,1,-275.857861,-30.646525)">
                    <path d="M810.643,1520.177C810.643,1520.177 809.74,1527.402 808.398,1538.832" style="fill:none;stroke:black;stroke-width:2.08px;"/>
                </g>
                <g transform="matrix(1,0,0,1,187.02228,-19.514246)">
                    <path d="M534.071,1373.995C535.575,1414.005 526.359,1514.171 525.678,1522.226" style="fill:none;stroke:black;stroke-width:4.17px;"/>
                </g>
                <g transform="matrix(1,0,0,1,187.02228,-19.514246)">
                    <path d="M198.288,1515.639C198.288,1515.639 255.464,1534.875 352.181,1526.86" style="fill:none;stroke:black;stroke-width:4.17px;"/>
                </g>
                <g transform="matrix(1,0,0,1,187.02228,-19.514246)">
                    <path d="M352.181,1526.86C352.181,1526.86 427.262,1543.776 525.678,1522.226" style="fill:none;stroke:black;stroke-width:4.17px;"/>
                </g>
            </g>
        </g>
    </g>
</svg>
