<?xml version="1.0" encoding="UTF-8" standalone="no"?>
<!DOCTYPE svg PUBLIC "-//W3C//DTD SVG 1.1//EN" "http://www.w3.org/Graphics/SVG/1.1/DTD/svg11.dtd">
<svg width="100%" height="100%" viewBox="0 0 405 386" version="1.1" xmlns="http://www.w3.org/2000/svg" xmlns:xlink="http://www.w3.org/1999/xlink" xml:space="preserve" xmlns:serif="http://www.serif.com/" style="fill-rule:evenodd;clip-rule:evenodd;stroke-linecap:round;stroke-linejoin:round;stroke-miterlimit:1.5;">
    <g transform="matrix(1,0,0,1,-618.711609,-1207.821683)">
        <g id="normal">
            <path d="M955.581,1209.905C955.581,1209.905 894.862,1234.225 855.658,1240.157C815.047,1246.302 780.404,1248.617 757.426,1246.746C757.426,1246.746 706.455,1242.829 697.372,1240.157L664.527,1230.029L661.273,1240.157L647.766,1277.468L636.655,1331.794L636.655,1386.713L629.539,1403.076L620.888,1444.819L632.071,1450.814L635.201,1488.563L641.568,1524.862L651.376,1546.127L666.316,1543.679L674.911,1571.455L677.886,1580.984L680.744,1583.102L718.489,1589.519L768.265,1589.171L822.131,1582.583L823.508,1585.016L860.615,1590.759L924.107,1589.117L978.291,1582.583L983.061,1576.883L983.563,1561.234L985.39,1551.561L1004.048,1549.999L1009.384,1516.547L1010.479,1477.215L1013.28,1446.422L1020.722,1444.301L1012.058,1413.722L1003.138,1393.971L1003.138,1379.544L1002.069,1340.269L998.596,1312.216L988.176,1273.475L967.604,1232.063" style="fill:rgb(70,86,22);"/>
            <g id="normal1" serif:id="normal" transform="matrix(1,0,0,1,-189.026092,13.830082)">
                <path d="M854.3,1214.204C850.225,1225.751 846.215,1236.881 843.048,1245.196C843.048,1245.196 826.572,1292.281 825.681,1341.824C825.681,1341.824 827.462,1432.334 845.719,1496.456C855.155,1529.597 861.974,1551.319 867.652,1568.753" style="fill:none;stroke:black;stroke-width:4.17px;"/>
                <path d="M1144.128,1196.075C1144.128,1196.075 1053.289,1238.441 963.594,1233.479C963.594,1233.479 892.961,1232.484 856.522,1216.57M1191.011,1380.027C1191.392,1373.157 1195.973,1335.769 1185.286,1291.494C1174.599,1247.22 1153.288,1211.342 1144.128,1196.075M911.177,1368.434C911.177,1368.434 951.699,1391.59 985.095,1397.378C985.095,1397.378 1002.074,1535.065 1013.206,1572.48" style="fill:none;stroke:black;stroke-width:4.17px;"/>
                <g transform="matrix(1,0,0,1,189.026092,-13.830082)">
                    <path d="M824.18,1585.47C824.18,1585.47 860.604,1599.108 982.005,1582.583" style="fill:none;stroke:black;stroke-width:4.17px;"/>
                </g>
                <g transform="matrix(1,0,0,1,189.026092,-10.339197)">
                    <path d="M678.837,1579.632C678.837,1579.632 749.136,1594.038 821.273,1579.611" style="fill:none;stroke:black;stroke-width:4.17px;"/>
                </g>
                <g transform="matrix(1,0,0,1,189.026092,-13.830082)">
                    <path d="M974.657,1551.593C972.771,1568.713 971.338,1581.132 971.006,1585.47M945.065,1216.464C945.065,1216.464 954.338,1231.028 966.628,1262.554C978.919,1294.081 990.575,1328.8 985.407,1390.951" style="fill:none;stroke:black;stroke-width:2.08px;"/>
                </g>
                <g transform="matrix(1,0,0,1,189.026092,-13.830082)">
                    <path d="M810.643,1520.177C810.643,1520.177 807.004,1549.293 803.482,1583.102" style="fill:none;stroke:black;stroke-width:2.08px;"/>
                </g>
                <g transform="matrix(1,0,0,1,189.026092,-13.830082)">
                    <path d="M774.797,1246.746C774.797,1246.746 767.672,1332.047 782.812,1405.172" style="fill:none;stroke:black;stroke-width:2.08px;"/>
                </g>
                <g transform="matrix(1,0,0,1,192.64187,36.996697)">
                    <path d="M745.853,1195.92C745.853,1195.92 748.97,1291.275 755.204,1312.649L774.351,1320.665" style="fill:none;stroke:black;stroke-width:2.08px;"/>
                </g>
                <g transform="matrix(1,0,0,1,189.026092,-13.830082)">
                    <path d="M971.081,1269.547C971.081,1269.547 919.577,1280.652 903.85,1235.232" style="fill:none;stroke:black;stroke-width:2.08px;"/>
                </g>
                <g transform="matrix(1,0,0,1,189.026092,-13.830082)">
                    <path d="M685.643,1235.232C685.643,1235.232 672.762,1273.098 648.43,1281.304" style="fill:none;stroke:black;stroke-width:2.08px;"/>
                </g>
                <g transform="matrix(1.245437,0,0,1.014693,529.026186,-45.791662)">
                    <path d="M532.909,1405.172L479.474,1405.172C479.474,1405.172 472.126,1510.65 474.798,1552.062L475.199,1563.974C475.199,1563.974 524.054,1562.447 531.687,1559.394C539.321,1556.34 538.176,1461.684 539.702,1456.722L546.573,1455.959C546.573,1455.959 539.855,1416.981 532.909,1405.172Z" style="fill:none;stroke:black;stroke-width:4.17px;"/>
                </g>
                <g transform="matrix(1.243321,0.037885,0.010791,0.953997,583.647804,43.009802)">
                    <path d="M182.315,1384.277C182.315,1384.277 170.095,1436.396 169.561,1448.34L173.835,1451.675" style="fill:none;stroke:black;stroke-width:4.17px;"/>
                </g>
                <g transform="matrix(1.243321,0.037885,0.010791,0.953997,583.647804,43.009802)">
                    <path d="M180.716,1405.172C180.716,1405.172 179.808,1414.948 179.251,1429.931C178.828,1441.314 178.608,1455.702 179.142,1471.093C179.51,1481.669 180.233,1492.719 181.493,1503.591C183.591,1521.7 187.174,1539.319 193.072,1553.443L202.69,1550.665" style="fill:none;stroke:black;stroke-width:4.17px;"/>
                </g>
                <g transform="matrix(1.572584,0.299168,0.111658,1.059515,375.803952,-157.609711)">
                    <path d="M175.138,1451.675L178.827,1453.86" style="fill:none;stroke:black;stroke-width:3.07px;"/>
                </g>
                <g transform="matrix(1.245437,0,0,1.014693,529.026186,-45.791662)">
                    <path d="M539.702,1456.722C539.702,1456.722 495.714,1457.891 491.039,1459.561C491.039,1459.561 482.689,1410.23 480.352,1405.172" style="fill:none;stroke:black;stroke-width:2.08px;"/>
                </g>
                <g transform="matrix(1.245437,0,0,1.014693,529.026186,-45.791662)">
                    <path d="M486.222,1432.367C486.222,1432.367 491.706,1552.586 490.037,1563.974L480.352,1559.331C480.352,1559.331 481.163,1425.075 480.352,1412.385" style="fill:none;stroke:black;stroke-width:2.08px;"/>
                </g>
                <g transform="matrix(1,0,0,1,189.026092,-13.830082)">
                    <path d="M985.39,1551.561C984.128,1563.9 982.959,1574.74 982.005,1582.583" style="fill:none;stroke:black;stroke-width:4.17px;"/>
                </g>
            </g>
        </g>
    </g>
</svg>
