<?xml version="1.0" encoding="UTF-8" standalone="no"?>
<!DOCTYPE svg PUBLIC "-//W3C//DTD SVG 1.1//EN" "http://www.w3.org/Graphics/SVG/1.1/DTD/svg11.dtd">
<svg width="100%" height="100%" viewBox="0 0 370 471" version="1.1" xmlns="http://www.w3.org/2000/svg" xmlns:xlink="http://www.w3.org/1999/xlink" xml:space="preserve" xmlns:serif="http://www.serif.com/" style="fill-rule:evenodd;clip-rule:evenodd;stroke-linecap:round;stroke-linejoin:round;stroke-miterlimit:1.5;">
    <g transform="matrix(1,0,0,1,-636.979692,-1157.636556)">
        <g>
            <path d="M932.38,1159.72C932.38,1159.72 951.617,1198.719 955.357,1204.597C959.098,1210.475 964.388,1218.891 964.388,1218.891L982.769,1260.57L993.029,1293.272L1004.613,1355.257L1004.613,1392.682L1001.792,1434.768C1001.792,1434.768 997.945,1473.028 997.517,1475.379C997.09,1477.73 993.884,1515.776 993.67,1518.554C993.456,1521.333 992.388,1554.676 992.388,1554.676L989.823,1603.836L946.434,1613.241L910.739,1619.226L859.655,1625.645L791.258,1625.645L733.976,1622.859L678.618,1614.951L665.793,1550.188L652.755,1484.997C652.755,1484.997 640.999,1427.287 641.213,1413.822C641.213,1413.822 637.982,1365.303 639.063,1348.631C639.063,1348.631 645.06,1311.013 646.557,1306.311L656.389,1264.204L666.007,1231.929L678.19,1199.013L686.953,1176.998C686.953,1176.998 738.251,1189.822 764.968,1188.54C791.686,1187.258 812.419,1187.899 826.526,1184.051C826.526,1184.051 893.854,1172.723 902.617,1168.662L932.38,1159.72Z" style="fill:rgb(77,75,75);"/>
            <g id="normal">
                <path d="M686.727,1175.906C686.727,1175.906 655.557,1250.27 646.651,1304.595C646.651,1304.595 629.285,1367.894 647.096,1456.44C647.096,1456.44 675.773,1602.428 677.911,1614.718C677.911,1614.718 813.992,1644.976 989.882,1604.788C989.882,1604.788 993.444,1498.141 998.787,1466.971C1004.131,1435.8 1005.467,1373.46 1004.131,1354.312C1002.795,1335.165 986.319,1243.88 955.594,1206.475C955.594,1206.475 935.111,1167.735 932.439,1159.72C932.439,1159.72 864.755,1182.875 786.383,1187.773C786.383,1187.773 724.221,1190.311 686.727,1175.906Z" style="fill:none;stroke:black;stroke-width:4.17px;"/>
                <path d="M938.124,1187.743C938.124,1187.743 989.421,1281.908 992.093,1356.182C994.765,1430.457 985.146,1463.587 981.94,1499.922C978.734,1536.258 974.459,1592.365 977.665,1605.723" style="fill:none;stroke:black;stroke-width:2.08px;"/>
                <path d="M675.575,1204.505C675.575,1204.505 729.386,1241.259 945.857,1187.743" style="fill:none;stroke:black;stroke-width:2.08px;"/>
                <g transform="matrix(1,0,0,1,5.778433,10.686987)">
                    <path d="M700.783,1339.951C700.783,1339.951 730.954,1405.603 816.059,1405.172" style="fill:none;stroke:black;stroke-width:2.08px;"/>
                </g>
            </g>
        </g>
    </g>
</svg>
