<?xml version="1.0" encoding="UTF-8" standalone="no"?>
<svg width="100%" height="100%" viewBox="0 0 366 401" version="1.1" xmlns="http://www.w3.org/2000/svg" xmlns:xlink="http://www.w3.org/1999/xlink" xml:space="preserve" xmlns:serif="http://www.serif.com/" style="fill-rule:evenodd;clip-rule:evenodd;stroke-linecap:round;stroke-linejoin:round;stroke-miterlimit:1.5;">
    <g transform="matrix(1,0,0,1,-178.632658,-1134.777082)">
        <g id="muscle">
            <path d="M208.056,1199.683L203.5,1213.242L190.067,1256.862L183.833,1287.438C183.833,1287.438 181.833,1301.492 180.836,1321.014C180.107,1335.277 180.152,1347.787 180.716,1354.429C181.124,1359.238 179.662,1363.463 180.716,1373.995C181.382,1380.651 180.505,1380.964 180.716,1386.228C181.422,1403.876 181.903,1409.259 182.64,1421.62C183.195,1430.933 184.737,1451.876 184.737,1451.876C184.737,1451.876 186.326,1464.225 188.061,1474.184C189.415,1481.957 187.757,1482.229 190.07,1486.654C194.913,1495.914 195.391,1514.906 198.288,1515.639C208.427,1518.204 216.076,1520.877 250.327,1525.898C278.49,1530.027 316.544,1524.241 350.158,1527.7C353.891,1528.084 348.441,1527.336 352.181,1527.7C383.155,1530.707 411.629,1532.253 438.929,1533.173C478.753,1534.514 526.256,1523.378 526.343,1520.687C526.529,1514.91 528.504,1497.093 528.504,1497.093C528.504,1497.093 529.626,1492.274 529.957,1489.622C530.25,1487.277 529.587,1472.453 529.957,1468.389C530.787,1459.275 533.259,1443.808 532.711,1440.064C531.909,1434.59 533.502,1409.111 533.458,1405.942C533.334,1396.92 532.964,1374.7 533.998,1370.156C539.164,1347.464 538.332,1342.476 539.223,1337.43C540.114,1332.383 541.55,1312.375 541.55,1306.734C541.55,1301.094 539.175,1262.799 537.691,1256.268C536.207,1249.737 516.115,1184.921 511.959,1176.905C507.803,1168.89 492.809,1144.053 490.137,1136.86C490.137,1136.86 461.196,1146.516 435.429,1154.363C413.577,1161.018 384.236,1167.753 342.04,1171.737C342.04,1171.737 290.228,1174.418 265.618,1172.221C265.618,1172.221 228.957,1161.561 223.317,1156.812L208.056,1199.683Z" style="fill:rgb(29,29,29);"/>
            <g id="muscle1" serif:id="muscle" transform="matrix(1,0,0,1,-187.02228,19.514246)">
                <path d="M410.339,1137.297C392.216,1181.174 372.266,1251.986 370.263,1272.515C370.263,1272.515 364.029,1351.777 371.153,1419.461C371.153,1419.461 373.963,1456.279 384.387,1496.125" style="fill:none;stroke:black;stroke-width:4.17px;"/>
                <path d="M676.703,1117.346C676.703,1117.346 666.816,1120.527 629.458,1132.038C603.186,1140.133 570.953,1148.958 513.965,1152.938C513.965,1152.938 438.726,1159.595 410.339,1137.051M720.339,1353.367C726.949,1329.727 729.231,1294.506 729.231,1280.418C729.231,1254.082 720.5,1184.665 676.703,1117.346M453.723,1336.525C453.723,1336.525 507.158,1360.189 522.807,1361.716C522.807,1361.716 523.899,1436.152 538.676,1508.185" style="fill:none;stroke:black;stroke-width:4.17px;"/>
                <g transform="matrix(1,0,0,1,-275.857861,-30.646525)">
                    <path d="M980.948,1507.13C980.158,1516.397 979.344,1525.13 978.519,1533.359M937.472,1157.574C937.472,1157.574 952.201,1195.76 964.491,1227.287C975.165,1254.668 990.844,1284.704 980.948,1507.13" style="fill:none;stroke:black;stroke-width:2.08px;"/>
                </g>
                <g transform="matrix(1,0,0,1,-275.857861,-30.646525)">
                    <path d="M810.643,1520.177C810.643,1520.177 809.74,1527.402 808.398,1538.832" style="fill:none;stroke:black;stroke-width:2.08px;"/>
                </g>
                <g transform="matrix(1,0,0,1,187.02228,-19.514246)">
                    <path d="M534.071,1373.995C535.575,1414.005 526.359,1514.171 525.678,1522.226" style="fill:none;stroke:black;stroke-width:4.17px;"/>
                </g>
                <g transform="matrix(1,0,0,1,187.02228,-19.514246)">
                    <path d="M198.288,1515.639C198.288,1515.639 255.464,1534.875 352.181,1526.86" style="fill:none;stroke:black;stroke-width:4.17px;"/>
                </g>
                <g transform="matrix(1,0,0,1,187.02228,-19.514246)">
                    <path d="M352.181,1526.86C352.181,1526.86 427.262,1543.776 525.678,1522.226" style="fill:none;stroke:black;stroke-width:4.17px;"/>
                </g>
            </g>
        </g>
    </g>
</svg>
