<?xml version="1.0" encoding="UTF-8" standalone="no"?>
<!DOCTYPE svg PUBLIC "-//W3C//DTD SVG 1.1//EN" "http://www.w3.org/Graphics/SVG/1.1/DTD/svg11.dtd">
<svg width="100%" height="100%" viewBox="0 0 366 364" version="1.1" xmlns="http://www.w3.org/2000/svg" xmlns:xlink="http://www.w3.org/1999/xlink" xml:space="preserve" xmlns:serif="http://www.serif.com/" style="fill-rule:evenodd;clip-rule:evenodd;stroke-linecap:round;stroke-linejoin:round;stroke-miterlimit:1.5;">
    <g transform="matrix(1,0,0,1,-178.632658,-1171.799861)">
        <g id="muscle">
            <path d="M208.056,1199.683L203.5,1213.242L190.067,1256.862L183.833,1287.438C183.833,1287.438 179.38,1345.92 180.716,1361.654C181.124,1366.462 179.662,1380.531 180.716,1391.062C183.002,1413.909 180.745,1411.91 182.689,1424.527C184.11,1433.748 185.037,1440.154 185.079,1441.146C185.295,1446.358 186.711,1456.573 188.446,1466.532C192.634,1490.574 194.007,1514.556 198.288,1515.639C208.427,1518.204 216.076,1520.877 250.327,1525.898C278.49,1530.027 316.544,1524.241 350.158,1527.7C353.891,1528.084 348.441,1527.336 352.181,1527.7C383.155,1530.707 411.629,1532.253 438.929,1533.173C478.753,1534.514 524.375,1524.917 524.462,1522.226C524.759,1513.024 528.586,1473.182 529.476,1466.057C529.77,1463.712 530.571,1455.91 530.94,1451.846C531.77,1442.732 532.903,1424.194 532.903,1420.411C532.903,1418.945 532.604,1408.341 532.561,1405.172C532.436,1396.15 532.282,1382.595 532.941,1377.981C533.832,1371.747 537.691,1343.545 538.582,1338.499C539.472,1333.452 541.55,1312.375 541.55,1306.734C541.55,1301.094 540.363,1260.127 538.879,1253.596C537.394,1247.065 518.253,1195.34 514.097,1187.325C509.941,1179.31 509.107,1181.076 506.435,1173.883C506.435,1173.883 462.799,1198.348 440.238,1201.92C417.676,1205.493 356.717,1220.387 313.72,1217.691C313.72,1217.691 260.958,1216.453 247.302,1213.188C247.302,1213.188 224.598,1210.863 218.958,1206.113L208.056,1199.683Z" style="fill:rgb(81,107,174);"/>
            <g id="muscle1" serif:id="muscle" transform="matrix(1,0,0,1,-187.02228,19.514246)">
                <path d="M395.175,1179.664C384.685,1211.327 372.266,1251.986 370.263,1272.515C370.263,1272.515 364.029,1351.777 371.153,1419.461C371.153,1419.461 373.963,1456.279 384.387,1496.125" style="fill:none;stroke:black;stroke-width:4.17px;"/>
                <path d="M693.115,1154.369C693.115,1154.369 660.004,1187.957 521.98,1197.594C521.98,1197.594 425.368,1203.106 396.98,1180.563M720.071,1386.47C720.071,1347.975 720.834,1361.334 721.979,1344.922C723.124,1328.51 729.231,1306.754 729.231,1280.418C729.231,1254.082 729.279,1214.817 693.115,1154.369M453.723,1336.525C453.723,1336.525 507.158,1360.189 522.807,1361.716C522.807,1361.716 523.899,1436.152 538.676,1508.185" style="fill:none;stroke:black;stroke-width:4.17px;"/>
                <g transform="matrix(1,0,0,1,-275.857861,-30.646525)">
                    <path d="M986.71,1416.304C984.622,1463.699 981.647,1502.149 978.519,1533.359M944.953,1200.322C944.953,1200.322 954.338,1231.028 966.628,1262.554C978.919,1294.081 984.796,1312.783 986.934,1369.958C987.621,1388.351 987.369,1403.26 986.71,1416.304" style="fill:none;stroke:black;stroke-width:2.08px;"/>
                </g>
                <g transform="matrix(1,0,0,1,-275.857861,-30.646525)">
                    <path d="M810.643,1520.177C810.643,1520.177 809.74,1527.402 808.398,1538.832" style="fill:none;stroke:black;stroke-width:2.08px;"/>
                </g>
                <g transform="matrix(1,0,0,1,-275.857861,-30.646525)">
                    <path d="M774.463,1228.823C774.463,1228.823 770.6,1309.355 779.564,1386.635" style="fill:none;stroke:black;stroke-width:2.08px;"/>
                </g>
                <g transform="matrix(1,0,0,1,-275.857861,-30.646525)">
                    <path d="M754.314,1228.823C754.314,1228.823 749.972,1308.642 756.206,1330.016L773.635,1338.699" style="fill:none;stroke:black;stroke-width:2.08px;"/>
                </g>
                <g transform="matrix(1,0,0,1,-275.857861,-30.646525)">
                    <path d="M959.98,1246.467C959.98,1246.467 901.765,1262.665 886.039,1217.246" style="fill:none;stroke:black;stroke-width:2.08px;"/>
                </g>
                <g transform="matrix(1,0,0,1,-275.857861,-30.646525)">
                    <path d="M688.077,1221.587C688.077,1221.587 674.384,1249.529 661.025,1246.19" style="fill:none;stroke:black;stroke-width:2.08px;"/>
                </g>
                <g transform="matrix(1,0,0,1,187.02228,-19.514246)">
                    <path d="M532.903,1407.099C532.903,1407.099 529.545,1476.518 525.678,1522.226" style="fill:none;stroke:black;stroke-width:4.17px;"/>
                </g>
                <g transform="matrix(1,0,0,1,187.02228,-19.514246)">
                    <path d="M198.288,1515.639C198.288,1515.639 255.464,1534.875 352.181,1526.86" style="fill:none;stroke:black;stroke-width:4.17px;"/>
                </g>
                <g transform="matrix(1,0,0,1,187.02228,-19.514246)">
                    <path d="M352.181,1526.86C352.181,1526.86 427.262,1543.776 525.678,1522.226" style="fill:none;stroke:black;stroke-width:4.17px;"/>
                </g>
            </g>
        </g>
    </g>
</svg>
