<?xml version="1.0" encoding="UTF-8" standalone="no"?>
<svg width="100%" height="100%" viewBox="0 0 366 364" version="1.1" xmlns="http://www.w3.org/2000/svg" xmlns:xlink="http://www.w3.org/1999/xlink" xml:space="preserve" xmlns:serif="http://www.serif.com/" style="fill-rule:evenodd;clip-rule:evenodd;stroke-linecap:round;stroke-linejoin:round;stroke-miterlimit:1.5;">
    <g transform="matrix(1,0,0,1,-178.632658,-1171.799861)">
        <g id="muscle">
            <path d="M208.056,1199.683L203.5,1213.242L190.067,1256.862L183.833,1287.438C183.833,1287.438 179.38,1345.92 180.716,1361.654C181.124,1366.462 179.662,1380.531 180.716,1391.062C183.002,1413.909 180.745,1411.91 182.689,1424.527C184.11,1433.748 185.037,1440.154 185.079,1441.146C185.295,1446.358 186.711,1456.573 188.446,1466.532C192.634,1490.574 194.007,1514.556 198.288,1515.639C208.427,1518.204 216.076,1520.877 250.327,1525.898C278.49,1530.027 316.544,1524.241 350.158,1527.7C353.891,1528.084 348.441,1527.336 352.181,1527.7C383.155,1530.707 411.629,1532.253 438.929,1533.173C478.753,1534.514 524.375,1524.917 524.462,1522.226C524.759,1513.024 528.586,1473.182 529.476,1466.057C529.77,1463.712 530.571,1455.91 530.94,1451.846C531.77,1442.732 532.903,1424.194 532.903,1420.411C532.903,1418.945 532.604,1408.341 532.561,1405.172C532.436,1396.15 532.282,1382.595 532.941,1377.981C533.832,1371.747 537.691,1343.545 538.582,1338.499C539.472,1333.452 541.55,1312.375 541.55,1306.734C541.55,1301.094 540.363,1260.127 538.879,1253.596C537.394,1247.065 518.253,1195.34 514.097,1187.325C509.941,1179.31 509.107,1181.076 506.435,1173.883C506.435,1173.883 462.799,1198.348 440.238,1201.92C417.676,1205.493 356.717,1220.387 313.72,1217.691C313.72,1217.691 260.958,1216.453 247.302,1213.188C247.302,1213.188 224.598,1210.863 218.958,1206.113L208.056,1199.683Z" style="fill:rgb(81,107,174);"/>
            <clipPath id="_clip1">
                <path d="M208.056,1199.683L203.5,1213.242L190.067,1256.862L183.833,1287.438C183.833,1287.438 179.38,1345.92 180.716,1361.654C181.124,1366.462 179.662,1380.531 180.716,1391.062C183.002,1413.909 180.745,1411.91 182.689,1424.527C184.11,1433.748 185.037,1440.154 185.079,1441.146C185.295,1446.358 186.711,1456.573 188.446,1466.532C192.634,1490.574 194.007,1514.556 198.288,1515.639C208.427,1518.204 216.076,1520.877 250.327,1525.898C278.49,1530.027 316.544,1524.241 350.158,1527.7C353.891,1528.084 348.441,1527.336 352.181,1527.7C383.155,1530.707 411.629,1532.253 438.929,1533.173C478.753,1534.514 524.375,1524.917 524.462,1522.226C524.759,1513.024 528.586,1473.182 529.476,1466.057C529.77,1463.712 530.571,1455.91 530.94,1451.846C531.77,1442.732 532.903,1424.194 532.903,1420.411C532.903,1418.945 532.604,1408.341 532.561,1405.172C532.436,1396.15 532.282,1382.595 532.941,1377.981C533.832,1371.747 537.691,1343.545 538.582,1338.499C539.472,1333.452 541.55,1312.375 541.55,1306.734C541.55,1301.094 540.363,1260.127 538.879,1253.596C537.394,1247.065 518.253,1195.34 514.097,1187.325C509.941,1179.31 509.107,1181.076 506.435,1173.883C506.435,1173.883 462.799,1198.348 440.238,1201.92C417.676,1205.493 356.717,1220.387 313.72,1217.691C313.72,1217.691 260.958,1216.453 247.302,1213.188C247.302,1213.188 224.598,1210.863 218.958,1206.113L208.056,1199.683Z"/>
            </clipPath>
            <g clip-path="url(#_clip1)">
                <g transform="matrix(-0.001697,0.040784,-0.040913,0.001398,447.977996,1454.948381)">
                    <g transform="matrix(1,0,0,1,-3643.75,-5168.75)">
                        <g id="_5a7f5f47abc3d121aba71181.png" serif:id="5a7f5f47abc3d121aba71181.png" transform="matrix(9.809338,0,0,9.809338,1487.916371,3540.618292)">
                            <path d="M68.5,2.034L374.5,2.034C380.228,1.997 377.965,4.825 377.966,10.5C377.971,125.615 377.931,125.602 378.034,129.495C378.115,132.53 376.364,131.966 345.5,131.966C7.396,131.966 7.4,131.958 4.505,132.034C2.224,132.095 2.044,130.955 2.035,129.512C1.968,119.35 1.206,3.811 2.483,2.483C2.979,1.967 3.134,2.034 68.5,2.034Z" style="fill:rgb(227,36,31);"/>
                            <path d="M131.908,46.381C133.181,46.559 133.23,46.931 134.237,46.096C142.771,39.013 156.65,41.486 161.526,50.484C175.436,76.149 142.517,105.234 127.284,89.739C123.632,86.025 125.05,91.603 121.092,115.436C120.525,118.854 117.019,118.398 108.534,118.196C105.957,118.134 107.621,112.401 107.761,111.541C118.48,45.713 117.115,43.654 120.503,43.541C130.398,43.21 131.81,42.973 131.908,46.381Z" style="fill:rgb(254,254,254);"/>
                            <path d="M303.935,61.531C303.934,60.823 303.926,54.362 300.541,53.363C286.181,49.127 288.392,89.962 284.333,92.047C283.837,92.301 272.861,92.251 272.605,92.132C268.421,90.19 281.877,56.107 272.538,53.37C259.576,49.57 259.998,82.28 257.572,90.52C256.756,93.293 243.399,93.064 243.666,90.502C243.715,90.035 250.879,45.057 250.992,44.692C251.593,42.738 263.815,43.515 264.262,43.842C264.904,44.312 264.047,48.491 266.707,45.911C270.1,42.62 277.748,40.606 283.649,43.139C288.949,45.414 288.559,50.733 292.806,46.858C298.682,41.496 310.238,39.854 315.44,45.555C317.864,48.212 320.64,51.255 313.431,90.482C312.985,92.906 306.42,92.26 301.516,92.215C297.789,92.18 300.305,89.827 303.935,61.531Z" style="fill:rgb(254,254,254);"/>
                            <path d="M31.534,94.12C24.437,92.448 23.744,93.497 18.721,88.276C10.687,79.927 14.616,78.172 14.886,77.95C19.728,73.96 23.153,69.353 24.833,73.35C29.157,83.637 39.907,82.6 44.084,77.155C54.882,63.076 34.131,57.494 33.627,57.244C31.505,56.191 14.844,47.923 25.818,28.684C39.127,5.351 70.443,19.701 66.017,25.15C60.919,31.428 59.199,34.206 57.147,31.837C51.166,24.932 42.528,28.407 39.923,31.856C32.396,41.822 48.092,46.359 51.301,47.896C70.258,56.982 61.991,76.538 55.01,85.06C47.775,93.892 33.547,94.092 31.534,94.12Z" style="fill:rgb(254,254,254);"/>
                            <path d="M319.92,72.513C320.168,70.685 321.868,58.142 327.954,50.895C331.622,46.526 337.314,43.723 340.612,42.917C366.657,36.557 369.802,60.597 367,68.69C365.695,72.46 335.593,67.786 334.678,71.55C332.429,80.805 342.682,87.783 350.436,79.439C353.217,76.447 353.736,76.32 363.572,78.326C366.432,78.909 360.859,84.983 360.438,85.441C352.064,94.567 321.689,103.426 319.92,72.513Z" style="fill:rgb(254,254,254);"/>
                            <path d="M215.5,70.122C214.815,70.238 214.102,70.09 213.417,70.206C210.818,70.648 210.769,82.986 219.509,83.134C225.758,83.239 229.223,77.863 229.555,77.56C230.97,76.267 243.183,77.261 241.642,80.565C234.059,96.83 197.48,101.595 197.311,73.501C197.072,33.796 252.797,31.215 244.44,68.482C243.982,70.526 243.114,70.122 215.5,70.122Z" style="fill:rgb(254,254,254);"/>
                            <path d="M79.084,74.5C80.325,87.292 92.578,83.241 94.823,72.576C97.799,58.434 97.797,43.633 101.503,43.542C106.551,43.417 113.528,42.841 113.173,45.479C108.891,77.371 106.773,80.66 105.1,83.258C95.049,98.868 61.59,99.663 64.941,73.552C65.245,71.179 68.522,45.642 70.152,44.11C70.784,43.515 83.598,42.102 83.337,45.491C83.017,49.651 79.894,63.977 79.084,74.5Z" style="fill:rgb(254,254,254);"/>
                            <path d="M165.894,78.56C170.717,48.561 171.05,44.652 171.903,43.986C172.258,43.709 185.648,41.921 185.003,45.608C184.052,51.043 189.498,41.679 197.511,41.95C206.416,42.252 202.117,48.154 201.71,49.562C200.558,53.543 200.444,55.85 197.4,54.808C181.133,49.239 180.124,77.564 178.131,89.442C177.57,92.785 174.602,92.44 165.534,92.211C163.063,92.149 164.829,85.167 165.894,78.56Z" style="fill:rgb(254,254,254);"/>
                            <path d="M127.087,69.483C130.477,49.759 145.369,53.163 148.499,58.5C158.395,75.371 128.239,94.607 127.087,69.483Z" style="fill:rgb(227,36,31);"/>
                            <path d="M217.342,55.359C225.06,47.705 231.811,53.354 232.381,59.506C232.506,60.858 232.127,62.303 215.516,61.444C212.97,61.312 217.041,55.769 217.342,55.359Z" style="fill:rgb(227,34,29);"/>
                            <path d="M338.382,57.427C346.774,45.716 355.013,54.425 354.939,59.5C354.92,60.824 354.542,61.939 338.501,61.491C335.7,61.412 337.402,60.017 338.382,57.427Z" style="fill:rgb(227,34,29);"/>
                        </g>
                    </g>
                </g>
            </g>
            <g id="muscle1" serif:id="muscle" transform="matrix(1,0,0,1,-187.02228,19.514246)">
                <path d="M395.175,1179.664C384.685,1211.327 372.266,1251.986 370.263,1272.515C370.263,1272.515 364.029,1351.777 371.153,1419.461C371.153,1419.461 373.963,1456.279 384.387,1496.125" style="fill:none;stroke:black;stroke-width:4.17px;"/>
                <path d="M693.115,1154.369C693.115,1154.369 660.004,1187.957 521.98,1197.594C521.98,1197.594 425.368,1203.106 396.98,1180.563M720.071,1386.47C720.071,1347.975 720.834,1361.334 721.979,1344.922C723.124,1328.51 729.231,1306.754 729.231,1280.418C729.231,1254.082 729.279,1214.817 693.115,1154.369M453.723,1336.525C453.723,1336.525 507.158,1360.189 522.807,1361.716C522.807,1361.716 523.899,1436.152 538.676,1508.185" style="fill:none;stroke:black;stroke-width:4.17px;"/>
                <g transform="matrix(1,0,0,1,-275.857861,-30.646525)">
                    <path d="M986.71,1416.304C984.622,1463.699 981.647,1502.149 978.519,1533.359M944.953,1200.322C944.953,1200.322 954.338,1231.028 966.628,1262.554C978.919,1294.081 984.796,1312.783 986.934,1369.958C987.621,1388.351 987.369,1403.26 986.71,1416.304" style="fill:none;stroke:black;stroke-width:2.08px;"/>
                </g>
                <g transform="matrix(1,0,0,1,-275.857861,-30.646525)">
                    <path d="M810.643,1520.177C810.643,1520.177 809.74,1527.402 808.398,1538.832" style="fill:none;stroke:black;stroke-width:2.08px;"/>
                </g>
                <g transform="matrix(1,0,0,1,-275.857861,-30.646525)">
                    <path d="M774.463,1228.823C774.463,1228.823 770.6,1309.355 779.564,1386.635" style="fill:none;stroke:black;stroke-width:2.08px;"/>
                </g>
                <g transform="matrix(1,0,0,1,-275.857861,-30.646525)">
                    <path d="M754.314,1228.823C754.314,1228.823 749.972,1308.642 756.206,1330.016L773.635,1338.699" style="fill:none;stroke:black;stroke-width:2.08px;"/>
                </g>
                <g transform="matrix(1,0,0,1,-275.857861,-30.646525)">
                    <path d="M959.98,1246.467C959.98,1246.467 901.765,1262.665 886.039,1217.246" style="fill:none;stroke:black;stroke-width:2.08px;"/>
                </g>
                <g transform="matrix(1,0,0,1,-275.857861,-30.646525)">
                    <path d="M688.077,1221.587C688.077,1221.587 674.384,1249.529 661.025,1246.19" style="fill:none;stroke:black;stroke-width:2.08px;"/>
                </g>
                <g transform="matrix(1,0,0,1,187.02228,-19.514246)">
                    <path d="M532.903,1407.099C532.903,1407.099 529.545,1476.518 525.678,1522.226" style="fill:none;stroke:black;stroke-width:4.17px;"/>
                </g>
                <g transform="matrix(1,0,0,1,187.02228,-19.514246)">
                    <path d="M198.288,1515.639C198.288,1515.639 255.464,1534.875 352.181,1526.86" style="fill:none;stroke:black;stroke-width:4.17px;"/>
                </g>
                <g transform="matrix(1,0,0,1,187.02228,-19.514246)">
                    <path d="M352.181,1526.86C352.181,1526.86 427.262,1543.776 525.678,1522.226" style="fill:none;stroke:black;stroke-width:4.17px;"/>
                </g>
            </g>
        </g>
    </g>
</svg>
