<?xml version="1.0" encoding="UTF-8" standalone="no"?>
<!DOCTYPE svg PUBLIC "-//W3C//DTD SVG 1.1//EN" "http://www.w3.org/Graphics/SVG/1.1/DTD/svg11.dtd">
<svg width="100%" height="100%" viewBox="0 0 489 615" version="1.1" xmlns="http://www.w3.org/2000/svg" xmlns:xlink="http://www.w3.org/1999/xlink" xml:space="preserve" xmlns:serif="http://www.serif.com/" style="fill-rule:evenodd;clip-rule:evenodd;stroke-linecap:round;stroke-linejoin:round;stroke-miterlimit:1.5;">
    <g transform="matrix(1,0,0,1,-666.010443,-1054.487876)">
        <g>
            <path d="M709.387,1056.571L707.718,1097.697L705.38,1135.769L703.376,1192.21L702.04,1227.611L702.708,1234.624L698.919,1240.157L688.347,1265.203L678.662,1286.055L673.653,1307.927C673.653,1307.927 664.079,1332.718 675.063,1344.295L671.797,1360.326L668.094,1386.746L668.094,1425.932L670.61,1449.384L675.36,1464.227L681,1475.826L688.718,1482.039L698.919,1487.226L698.919,1534.88L706.53,1537.552L728.795,1544.083L760.262,1549.129L798.557,1553.582L832.102,1554.473L856.742,1552.692L891.474,1550.317L901.568,1549.426L903.646,1555.067L930.66,1559.282L961.83,1559.282L997.454,1556.848L1036.936,1554.77L1065.028,1549.426L1101.355,1541.411L1123.323,1534.88L1129.328,1528.646L1132.822,1529.24L1129.328,1504.897L1129.328,1475.826L1138.463,1469.571L1144.735,1459.477L1148.853,1440.478L1152.725,1418.511L1152.725,1387.043L1148.853,1357.951L1144.735,1325.296L1149.743,1320.547L1152.725,1310.453L1150.337,1293.829L1144.735,1278.392L1134.603,1249.3L1129.328,1240.157L1124.807,1185.475L1119.167,1131.149L1117.089,1096.713L1115.011,1081.87L1110.558,1069.699L1098.295,1072.074L1060.388,1074.449L998.047,1077.714L943.722,1079.496L852.586,1079.496L821.118,1079.199L776.589,1073.558L745.419,1069.402L721.076,1062.574L709.387,1056.571Z" style="fill:rgb(12,12,12);"/>
            <g>
                <g transform="matrix(0.420987,0,0,0.423947,508.912446,746.450465)">
                    <path d="M1473.718,1168.406L1441.964,800.136C1438.174,779.348 1433.785,767.452 1428.71,766.727C1428.71,766.727 621.536,830.679 475.035,731.509C475.035,731.509 443.66,1275.828 453.113,1861.831C453.113,1861.831 608.622,1926.82 922.107,1897.331L932.438,1895.184L936.713,1908.008C936.713,1908.008 1181.712,1948.618 1462.245,1860.006" style="fill:none;stroke:black;stroke-width:9.86px;"/>
                </g>
                <path d="M1060.13,1258.551C1051.669,1261.668 1121.936,1247.744 1129.328,1241.793" style="fill:none;stroke:black;stroke-width:4.17px;"/>
                <path d="M1060.13,1258.551C1060.13,1258.551 1077.051,1457.596 1073.043,1482.087C1073.043,1482.087 1122.916,1486.095 1134.493,1472.736C1134.493,1472.736 1166.777,1455.561 1144.735,1325.344L1149.188,1320.589C1149.188,1320.589 1165.129,1310.849 1129.328,1240.157" style="fill:none;stroke:black;stroke-width:4.17px;"/>
                <path d="M1065.028,1265.203C1065.028,1265.203 1087.738,1311.514 1086.402,1339.567C1086.402,1339.567 1132.267,1337.341 1144.735,1323.982" style="fill:none;stroke:black;stroke-width:4.17px;"/>
                <path d="M1086.402,1339.567C1086.402,1339.567 1116.682,1467.366 1080.613,1475.826" style="fill:none;stroke:black;stroke-width:4.17px;"/>
                <path d="M698.919,1240.157C698.919,1240.157 653.935,1327.134 675.309,1344.127C675.309,1344.127 648.255,1473.333 698.919,1487.226" style="fill:none;stroke:black;stroke-width:4.17px;"/>
                <path d="M698.919,1276.692C698.919,1276.692 654.469,1445.012 694.011,1465.852" style="fill:none;stroke:black;stroke-width:4.17px;"/>
                <path d="M1129.001,1477.904C1129.001,1477.904 1131.376,1524.764 1132.267,1529.217L1125.142,1534.115" style="fill:none;stroke:black;stroke-width:4.17px;"/>
                <g transform="matrix(0.420987,0,0,0.423947,508.912446,746.450465)">
                    <path d="M936.713,1908.008C936.713,1908.008 863.551,1208.545 874.016,1172.921C874.016,1172.921 765.855,1152.46 687.706,1093.682" style="fill:none;stroke:black;stroke-width:9.86px;"/>
                </g>
                <g transform="matrix(0.420987,0,0,0.423947,508.912446,746.450465)">
                    <path d="M850.683,789.437C850.683,789.437 832.547,1022.378 854.305,1168.406" style="fill:none;stroke:black;stroke-width:9.86px;"/>
                </g>
                <g transform="matrix(0.420987,0,0,0.423947,508.912446,746.450465)">
                    <path d="M757.171,789.437C757.171,789.437 741.141,924.36 767.858,1009.856C767.858,1009.856 797.772,1061.955 843.597,1077.985" style="fill:none;stroke:black;stroke-width:9.86px;"/>
                </g>
                <g transform="matrix(0.420987,0,0,0.423947,508.912446,746.450465)">
                    <path d="M1177.971,789.437L1204.689,865.581C1204.689,865.581 1392.219,888.291 1442.474,862.91" style="fill:none;stroke:black;stroke-width:9.86px;"/>
                </g>
                <g transform="matrix(0.420987,0,0,0.423947,508.912446,746.450465)">
                    <path d="M562.962,766.727L553.611,818.826C553.611,818.826 508.191,838.859 472.123,832.182" style="fill:none;stroke:black;stroke-width:9.86px;"/>
                </g>
            </g>
            <g transform="matrix(0.023855,-0.002662,0.002662,0.023855,1039.368176,1535.637859)">
                <g transform="matrix(1,0,0,1,-3643.75,-5168.75)">
                    <g id="Balenciaga-Logo-2017-present.jpg" transform="matrix(6.559246,0,0,6.559246,283.333333,2800)">
                        <path d="M420.896,335.5C420.896,232.572 420.895,232.58 420.903,232.527C421.335,229.788 422.659,229.997 455.499,230.516C459.569,230.58 458.206,232.812 478.785,291.392C490.394,324.437 486.472,327.292 489.468,327.293C491.073,327.293 489.841,318.388 489.785,317.493C488.903,303.406 489.234,232.193 489.507,231.503C490.067,230.089 490.533,230.189 508.499,230.51C510.978,230.555 510.734,232.599 510.736,233.497C510.757,242.62 510.999,346.184 510.632,347.537C510.292,348.787 509.788,348.991 478.495,348.91C475.561,348.902 475.291,348.338 472.687,340.439C461.067,305.19 447.952,273.72 443.321,250.577C443.02,249.073 441.094,248.995 441.292,251.473C441.896,259.052 443.361,277.402 442.632,346.506C442.603,349.279 441.197,349.044 423.487,348.908C419.677,348.879 420.917,341.085 420.896,335.5Z" style="fill:white;"/>
                        <path d="M862.5,302.9C858.461,302.742 856.498,304.489 856.476,300.501C856.394,286.027 856.156,284.161 858.438,284.034C859.985,283.948 893.668,283.823 894.641,284.175C895.944,284.646 895.811,285.226 895.801,335.5C895.799,340.728 897.578,342.725 890.398,345.211C879.123,349.114 827.615,361.799 815.729,325.428C812.398,315.234 806.998,265.577 820.797,244.705C837.125,220.009 893.338,220.33 896.055,259.513C896.277,262.712 891.352,261.881 876.5,261.882C872.625,261.882 872.291,261.379 871.552,257.491C868.708,242.532 841.462,238.716 838.341,268.481C838.335,268.538 834.883,309.379 840.825,322.354C848.104,338.249 871.625,331.495 872.364,328.467C872.492,327.941 872.764,304.625 872.192,303.69C871.713,302.908 863.278,302.9 862.5,302.9Z" style="fill:white;"/>
                        <path d="M384.826,281.501C384.823,291.732 385.744,296.824 382.532,296.962C368.769,297.552 348.008,295.57 347.347,298.465C347.268,298.809 347.219,327.961 347.378,328.534C348.272,331.75 386.568,328.387 388.487,330.509C388.613,330.649 389.985,348.153 387.601,348.805C387.161,348.925 387.185,348.91 332.5,348.91C329.039,348.91 323.172,349.948 323.128,346.523C322.958,333.398 323.11,242.539 323.126,233.496C323.128,232.018 322.956,230.313 325.488,230.279C330.361,230.215 384.878,229.493 386.402,230.643C387.14,231.199 388.489,248.798 385.458,249.205C380.774,249.833 348.247,247.856 347.414,250.471C347.402,250.51 346.793,276.157 347.781,277.241C349.257,278.86 382.866,276.691 384.47,278.521C384.628,278.701 384.496,278.739 384.826,281.501Z" style="fill:white;"/>
                        <path d="M541.086,287.5C541.175,254.116 546.681,228.691 585.498,228.79C625.365,228.891 624.189,263.012 622.621,263.714C621.546,264.196 600.543,263.898 600.386,263.855C597.914,263.181 599.977,248.823 588.413,246.937C567.802,243.577 567.047,266.764 566.875,272.516C565.617,314.704 567.329,331.173 582.534,332.193C601.24,333.448 599.077,317.166 600.277,314.376C601.107,312.445 623.359,313.609 623.428,313.646C624.951,314.46 626.731,349.081 586.5,350.493C537.739,352.205 541.098,304.864 541.086,287.5Z" style="fill:white;"/>
                        <path d="M290.5,348.91C236.997,348.91 236.968,348.939 236.395,348.731C235.31,348.337 235.311,341.164 235.311,340.5C235.327,232.306 235.216,232.295 235.523,231.51C236.219,229.732 258.022,230.258 258.874,231.159C260.058,232.41 259.095,321.706 259.408,327.505C259.569,330.497 261.206,329.826 295.498,329.855C299.156,329.858 298.418,333.236 298.319,345.499C298.276,350.732 295.737,348.653 290.5,348.91Z" style="fill:white;"/>
                        <path d="M674.071,234.5C674.057,347.519 674.197,347.739 673.465,348.46C673.135,348.785 650.9,350.1 650.183,347.608C650.099,347.318 649.803,232.627 650.337,231.407C650.979,229.944 673.156,229.999 673.745,231.349C673.846,231.581 673.769,231.582 674.071,234.5Z" style="fill:white;"/>
                        <path d="M92.904,262.527C91.784,268.297 91.31,282.303 71.613,285.775C65.711,286.815 75.189,288.203 75.558,288.258C98.911,291.679 106.879,341.584 68.546,347.787C54.013,350.139 14.477,348.584 14.455,348.564C13.639,347.846 13.734,347.6 13.734,244.5C13.734,238.883 12.936,230.619 15.503,230.524C19.18,230.389 41.534,229.568 61.495,230.612C87.935,231.996 92.943,244.788 92.904,262.527ZM37.958,274.5C38.316,276.905 37.271,277.959 39.554,278.163C62.68,280.228 66.09,273.327 67.096,271.291C69.487,266.454 71.913,249.77 55.483,248.689C38.462,247.569 38.086,249.03 38.037,250.432C37.969,252.356 38.219,252.273 37.958,274.5ZM37.962,316.5C37.964,324.069 36.866,330.881 40.481,330.915C46.268,330.969 75.963,335.424 70.186,307.579C67.428,294.289 49.322,296.233 40.495,296.31C37.282,296.339 38.165,298.095 37.962,316.5Z" style="fill:white;"/>
                        <path d="M983.977,240.355C992.635,273.479 1013.572,347.355 1012.524,348.524C1012.447,348.61 988.94,350.339 987.575,347.461C985.709,343.527 982.187,323.07 979.522,322.403C979.258,322.337 947.481,322.004 946.548,322.602C943.824,324.347 940.421,347.956 937.585,348.777C937.25,348.874 916.162,349.235 915.454,348.555C914.11,347.263 927.689,301.722 939.854,255.589C946.08,231.977 945.603,231.379 947.573,230.696C949.911,229.885 949.995,230.437 978.5,230.506C982.576,230.516 983.005,236.811 983.977,240.355ZM954.082,287.38C950.644,301.769 949.558,303.916 952.45,303.968C975.538,304.382 976.75,304.431 976.587,302.503C976.25,298.523 967.586,268.464 964.707,251.399C963.623,244.969 962.162,254.093 962.112,254.407C961.88,255.853 954.734,284.744 954.082,287.38Z" style="fill:white;"/>
                        <path d="M703.896,327.623C729.731,232.807 728.533,231.288 731.526,230.613C732.437,230.408 762.976,230.503 763.491,230.559C765.094,230.735 765.22,231.193 770.122,249.599C796.137,347.281 797.3,348.112 795.635,348.749C794.871,349.042 772.922,348.94 772.412,348.801C769.617,348.043 766.06,323.834 763.454,322.598C762.226,322.016 730.945,322.303 730.481,322.429C727.984,323.111 724.655,341.743 722.441,347.472C721.806,349.116 721.295,349.295 700.453,348.918C696.906,348.853 700.052,342.102 703.896,327.623ZM749.883,260.414C748.05,251.439 748.395,251.391 748.234,250.612C747.371,246.437 746.324,251.449 742.733,266.552C734.197,302.459 733.662,302.714 734.46,303.537C735.808,304.93 756.658,304.033 758.587,303.95C760.915,303.85 760.125,302.304 754.177,277.584C751.149,265.003 750.124,261.383 749.883,260.414Z" style="fill:white;"/>
                        <path d="M137.979,341.64C136.544,346.751 137.775,348.869 132.503,348.911C113.684,349.062 111.865,349.153 112.556,346.512C112.609,346.307 132.728,272.445 142.961,234.624C144.544,228.774 146.467,230.503 152.5,230.504C177.015,230.51 178.524,229.699 179.547,233.486C181.944,242.366 209.221,343.423 209.508,344.498C210.277,347.379 211.552,348.814 208.564,348.91C206.793,348.967 189.091,349.536 186.413,348.791C182.904,347.815 180.463,322.788 176.521,322.349C176.044,322.296 145.231,322.208 144.475,322.393C142.829,322.795 142.386,325.033 137.979,341.64ZM150.91,289.598C148.262,301.098 147.146,303.859 149.405,303.96C151.337,304.046 172.161,304.976 173.581,303.587C175.04,302.159 163.162,261.148 161.978,251.139C161.171,244.314 159.484,254.153 159.427,254.484C158.738,258.5 151.616,286.795 150.91,289.598Z" style="fill:white;"/>
                    </g>
                </g>
            </g>
        </g>
    </g>
</svg>
