<?xml version="1.0" encoding="UTF-8" standalone="no"?>
<!DOCTYPE svg PUBLIC "-//W3C//DTD SVG 1.1//EN" "http://www.w3.org/Graphics/SVG/1.1/DTD/svg11.dtd">
<svg width="100%" height="100%" viewBox="0 0 454 548" version="1.1" xmlns="http://www.w3.org/2000/svg" xmlns:xlink="http://www.w3.org/1999/xlink" xml:space="preserve" xmlns:serif="http://www.serif.com/" style="fill-rule:evenodd;clip-rule:evenodd;stroke-linecap:round;stroke-linejoin:round;stroke-miterlimit:1.5;">
    <g transform="matrix(1,0,0,1,-571.698115,-959.509593)">
        <g>
            <path d="M579.659,1428.128L573.781,1434.585L577.099,1457.852L579.659,1472.323L579.659,1476.999L586.45,1479.337L610.162,1486.35L630.534,1489.022L643.559,1490.692L662.929,1494.767L742.747,1494.767L777.814,1491.026L789.503,1489.022L789.503,1499.041L809.207,1502.381L828.911,1505.426L895.705,1505.426L936.783,1498.707L963.5,1494.767L997.565,1482.343L1022.858,1471.99L1022.858,1428.128L1012.148,1421.654L1012.148,1428.128L1004.578,1436.923L983.872,1442.6L958.825,1446.608L882.012,1457.852L829.245,1457.852L786.551,1452.619L786.551,1447.276L759.78,1449.614L680.166,1449.614L642.223,1447.944L615.171,1442.6L579.659,1434.251L579.659,1428.128Z" style="fill:rgb(143,182,238);"/>
            <path d="M591.682,962.074L585.003,1062.433L581.997,1103.511L581.663,1164.961L580.661,1211.383L580.995,1274.169L579.659,1309.904L580.995,1338.959L580.327,1369.016L582.665,1428.128L582.999,1433.806L601.367,1439.483L631.628,1446.831L665.823,1448.166L740.966,1450.504L786.551,1447.498L786.551,1451.84L802.082,1455.18L828.8,1457.852L874.016,1456.182L925.984,1450.504L988.103,1442.823L1007.139,1436.144L1012.148,1428.128L1010.812,1380.705L1008.141,1276.507L1005.469,1141.583L1002.463,1037.719L995.116,976.269L969.066,977.939L904.704,984.618L883.904,984.618L786.551,985.286L748.981,983.95L691.873,981.947L651.129,976.937L627.751,973.054L604.707,968.922L591.682,962.074Z" style="fill:rgb(69,122,200);"/>
            <g>
                <g transform="matrix(0.983922,0,0,0.973694,352.286021,567.005441)">
                    <path d="M402.292,429.07C402.394,428.147 403.227,427.48 404.151,427.583C405.075,427.685 405.741,428.518 405.639,429.442C399.162,487.736 400.177,501.293 405.112,585.187C405.166,586.115 404.457,586.913 403.53,586.967C402.602,587.022 401.804,586.313 401.75,585.385C396.797,501.184 395.791,487.578 402.292,429.07Z"/>
                </g>
                <g transform="matrix(0.983922,0,0,0.973694,352.286021,567.005441)">
                    <path d="M362.481,427.432C362.579,426.508 363.408,425.837 364.332,425.934C365.257,426.031 365.928,426.861 365.831,427.785C362.389,460.477 364.882,499.815 367.488,516.08C367.866,518.445 368.244,520.307 368.609,521.568C368.774,522.14 368.882,522.55 369.033,522.74C375.686,531.055 390.503,542.43 393.853,544.105C396.301,545.329 397.148,546.398 397.991,547.465C398.603,548.238 399.212,549.011 400.978,549.893C401.809,550.309 402.146,551.321 401.731,552.153C401.315,552.984 400.303,553.321 399.472,552.906C397.035,551.687 396.194,550.621 395.35,549.554C394.738,548.78 394.123,548.005 392.347,547.117C388.85,545.368 373.35,533.526 366.404,524.843C366.151,524.528 365.855,523.977 365.584,523.178C365.131,521.841 364.641,519.599 364.162,516.612C361.53,500.184 359.006,460.452 362.481,427.432Z"/>
                </g>
                <g transform="matrix(0.983922,0,0,0.973694,352.286021,567.005441)">
                    <path d="M654.722,457.221C654.925,456.988 655.385,456.556 656.18,456.291C657.062,455.997 658.016,456.474 658.31,457.356C658.604,458.238 658.127,459.192 657.245,459.486C657.224,459.493 657.198,459.503 657.177,459.511L656.671,460.007L655.909,460.376C655.343,460.565 655.454,460.4 654.794,460.73C647.954,464.15 614.418,472.877 563.316,462.657C560.953,462.184 559.43,461.647 558.347,460.98C556.922,460.103 556.152,459.009 555.428,457.413C554.865,456.171 554.312,454.561 553.235,452.407C546.584,439.106 548.704,438.448 545.219,431.479C544.804,430.647 545.141,429.635 545.972,429.22C546.804,428.804 547.816,429.141 548.232,429.973C551.716,436.942 549.596,437.6 556.247,450.901C557.201,452.809 557.761,454.303 558.267,455.499C558.636,456.371 558.943,457.055 559.461,457.594C560.267,458.433 561.544,458.868 563.977,459.354C613.865,469.332 646.61,461.057 653.288,457.718C654.166,457.279 654.062,457.428 654.722,457.221ZM657.257,459.432C657.277,459.415 657.293,459.4 657.303,459.388L657.257,459.432ZM654.608,457.365C654.6,457.375 654.597,457.382 654.597,457.382C654.597,457.382 654.6,457.376 654.608,457.365Z"/>
                </g>
                <g transform="matrix(0.983922,0,0,0.973694,352.286021,567.005441)">
                    <path d="M280.716,417.95C281.132,417.118 282.144,416.781 282.976,417.197C283.807,417.612 284.144,418.625 283.729,419.456C282.406,422.101 282.453,424.892 282.237,427.619C281.848,432.525 280.886,437.284 273.179,441.138C272.91,441.272 268.929,445.254 242.031,450.634C241.12,450.816 240.232,450.224 240.05,449.313C239.868,448.402 240.46,447.514 241.371,447.331C267.53,442.1 271.411,438.256 271.673,438.125C277.811,435.056 278.57,431.26 278.88,427.352C279.13,424.204 279.19,421.004 280.716,417.95Z"/>
                </g>
                <g transform="matrix(0.983922,0,0,0.973694,352.286021,567.005441)">
                    <path d="M668.293,837.566C669.783,833.353 668.392,841.543 668.442,843.422C668.932,862.028 669.422,873.835 669.912,888.097L664.95,893.059L644.34,899.547L620.676,902.982L583.653,907.944L534.035,913.669L485.562,915.196L442.578,910.608L442.578,905.275L405.027,906.799L358.081,907.181L295.168,905.113L267.114,900.215L233.272,890.864L230.467,764.758L233.272,550.016L243.291,405.742C281.173,436.775 561.197,429.034 561.197,429.034L615.968,423.69L653.195,420.618L660.676,485.808C660.676,485.808 668.378,800.8 668.293,837.566Z" style="fill:none;stroke:black;stroke-width:5.24px;"/>
                </g>
                <g transform="matrix(0.983922,0,0,0.973694,352.286021,567.005441)">
                    <path d="M336.841,558.842C336.841,558.842 402.108,588.613 417.375,589.377C417.375,589.377 439.62,889.231 442.578,910.967" style="fill:none;stroke:black;stroke-width:5.24px;"/>
                </g>
                <path d="M581.666,1428.128L573.781,1434.705C573.781,1434.705 578.781,1461.878 577.951,1473.233C577.121,1484.588 680.941,1502.344 786.551,1491.267" style="fill:none;stroke:black;stroke-width:4.17px;"/>
                <path d="M786.551,1451.788L786.551,1458.127C786.551,1458.127 791.09,1492.627 788.749,1499.879C788.749,1499.879 913.049,1524.001 1022.667,1471.635C1022.667,1471.635 1019.184,1438.748 1022.858,1428.128L1011.427,1421.654" style="fill:none;stroke:black;stroke-width:4.17px;"/>
            </g>
        </g>
    </g>
</svg>
