<?xml version='1.0' encoding='utf-8'?>
<svg xmlns="http://www.w3.org/2000/svg" width="100%" height="100%" viewBox="548.458 954.779 378.386 437.44" version="1.1" xml:space="preserve" style="fill-rule:evenodd;clip-rule:evenodd;stroke-linecap:round;stroke-linejoin:round;stroke-miterlimit:1.5;">
    <g transform="matrix(1.029546,0,0,1.029546,-305.011556,159.274798)">
        <path d="M854.021,788.411L848.677,874.023L847.342,897.178L846.896,924.19L846.415,937.16L843.541,947.095L843.541,1112.821L845.682,1124.321L846.896,1162.977L859.921,1167.319L876.953,1170.324L892.984,1173.998L924.043,1175L959.11,1175.668L1006.867,1173.998L1007.201,1178.34L1017.554,1178.674L1039.93,1181.824L1088.689,1181.824L1141.122,1172.662L1169.176,1167.653L1179.195,1164.981L1182.891,1160.639L1180.584,1120.448L1182.891,1107.728L1180.007,1088.366L1179.719,1049.863L1179.719,1029.253L1179.431,1020.643L1178.312,1003.664L1179.327,973.282L1179.863,941.42L1179.863,909.495L1177.191,867.749L1174.185,827.673L1170.178,798.618L1093.588,807.505L1054.216,806.985L993.36,806.095L947.05,804.611L912.317,801.939L879.959,798.08L860.663,792.736L854.021,788.411Z" style="fill:rgb(129,129,129);" />
        <g transform="matrix(0.772224,0,0,0.772224,665.568536,475.088098)">
            <path d="M402.292,429.07C402.394,428.147 403.227,427.48 404.151,427.583C405.075,427.685 405.741,428.518 405.639,429.442C399.162,487.736 400.177,501.293 405.112,585.187C405.166,586.115 404.457,586.913 403.53,586.967C402.602,587.022 401.804,586.313 401.75,585.385C396.797,501.184 395.791,487.578 402.292,429.07Z" />
            <path d="M362.481,427.432C362.579,426.508 363.408,425.837 364.332,425.934C365.257,426.031 365.928,426.861 365.831,427.785C362.389,460.477 364.882,499.815 367.488,516.08C367.866,518.445 368.244,520.307 368.609,521.568C368.774,522.14 368.882,522.55 369.033,522.74C375.686,531.055 390.503,542.43 393.853,544.105C396.301,545.329 397.148,546.398 397.991,547.465C398.603,548.238 399.212,549.011 400.978,549.893C401.809,550.309 402.146,551.321 401.731,552.153C401.315,552.984 400.303,553.321 399.472,552.906C397.035,551.687 396.194,550.621 395.35,549.554C394.738,548.78 394.123,548.005 392.347,547.117C388.85,545.368 373.35,533.526 366.404,524.843C366.151,524.528 365.855,523.977 365.584,523.178C365.131,521.841 364.641,519.599 364.162,516.612C361.53,500.184 359.006,460.452 362.481,427.432Z" />
            <path d="M654.722,457.221C654.925,456.988 655.385,456.556 656.18,456.291C657.062,455.997 658.016,456.474 658.31,457.356C658.604,458.238 658.127,459.192 657.245,459.486C657.224,459.493 657.198,459.503 657.177,459.511L656.671,460.007L655.909,460.376C655.343,460.565 655.454,460.4 654.794,460.73C647.954,464.15 614.418,472.877 563.316,462.657C560.953,462.184 559.43,461.647 558.347,460.98C556.922,460.103 556.152,459.009 555.428,457.413C554.865,456.171 554.312,454.561 553.235,452.407C546.584,439.106 548.704,438.448 545.219,431.479C544.804,430.647 545.141,429.635 545.972,429.22C546.804,428.804 547.816,429.141 548.232,429.973C551.716,436.942 549.596,437.6 556.247,450.901C557.201,452.809 557.761,454.303 558.267,455.499C558.636,456.371 558.943,457.055 559.461,457.594C560.267,458.433 561.544,458.868 563.977,459.354C613.865,469.332 646.61,461.057 653.288,457.718C654.166,457.279 654.062,457.428 654.722,457.221ZM657.257,459.432C657.277,459.415 657.293,459.4 657.303,459.388L657.257,459.432ZM654.608,457.365C654.6,457.375 654.597,457.382 654.597,457.382C654.597,457.382 654.6,457.376 654.608,457.365Z" />
            <path d="M280.716,417.95C281.132,417.118 282.144,416.781 282.976,417.197C283.807,417.612 284.144,418.625 283.729,419.456C282.406,422.101 282.453,424.892 282.237,427.619C281.848,432.525 280.886,437.284 273.179,441.138C272.91,441.272 268.929,445.254 242.031,450.634C241.12,450.816 240.232,450.224 240.05,449.313C239.868,448.402 240.46,447.514 241.371,447.331C267.53,442.1 271.411,438.256 271.673,438.125C277.811,435.056 278.57,431.26 278.88,427.352C279.13,424.204 279.19,421.004 280.716,417.95Z" />
            <path d="M229.708,866.413C229.234,865.938 229.234,865.167 229.708,864.692C230.183,864.217 230.954,864.217 231.429,864.692C238.052,871.316 251.199,876.595 268.621,880.541C309.844,889.877 374.816,891.493 435.252,883.938C435.918,883.855 436.527,884.328 436.61,884.994C436.693,885.661 436.22,886.269 435.554,886.352C374.813,893.945 309.514,892.297 268.084,882.914C250.082,878.837 236.552,873.256 229.708,866.413Z" />
            <path d="M442.099,888.045C441.482,887.78 441.195,887.064 441.46,886.447C441.724,885.83 442.44,885.544 443.057,885.808C449.627,888.624 463.919,890.408 483.031,890.883C528.036,892.001 599.556,885.706 660.537,867.412C661.18,867.219 661.859,867.585 662.052,868.228C662.245,868.871 661.879,869.55 661.236,869.743C599.994,888.115 528.168,894.438 482.97,893.316C463.424,892.83 448.818,890.924 442.099,888.045Z" />
            <path d="M668.293,837.566C669.783,833.353 668.392,841.543 668.442,843.422C668.932,862.028 669.422,873.835 669.912,888.097L664.95,893.059L644.34,899.547L620.676,902.982L583.653,907.944L534.035,913.669L485.562,915.196L442.578,910.608L442.578,905.275L405.027,906.799L358.081,907.181L295.168,905.113L267.114,900.215L233.272,890.864L230.467,764.758L233.272,550.016L243.291,405.742C281.173,436.775 561.197,429.034 561.197,429.034L615.968,423.69L653.195,420.618L660.676,485.808C660.676,485.808 668.378,800.8 668.293,837.566Z" style="fill:none;stroke:black;stroke-width:5.24px;" />
            <g transform="matrix(1.257798,0,0,1.257798,-478.242524,-815.556234)">
                <path d="M809.321,1020.307C809.321,1020.307 815.555,1315.981 820.899,1338.245" style="fill:none;stroke:black;stroke-width:1.25px;" />
            </g>
            <g transform="matrix(1.257798,0,0,1.257798,-478.242524,-815.556234)">
                <path d="M605.378,1020.307C605.378,1020.307 593.8,1308.856 601.815,1338.245" style="fill:none;stroke:black;stroke-width:1.25px;" />
            </g>
            <path d="M336.841,558.842C336.841,558.842 402.108,588.613 417.375,589.377C417.375,589.377 439.62,889.231 442.578,910.967" style="fill:none;stroke:black;stroke-width:5.24px;" />
        </g>
    </g>
</svg>