<?xml version="1.0" encoding="UTF-8" standalone="no"?>
<!DOCTYPE svg PUBLIC "-//W3C//DTD SVG 1.1//EN" "http://www.w3.org/Graphics/SVG/1.1/DTD/svg11.dtd">
<svg width="100%" height="100%" viewBox="0 0 1059 1152" version="1.1" xmlns="http://www.w3.org/2000/svg" xmlns:xlink="http://www.w3.org/1999/xlink" xml:space="preserve" xmlns:serif="http://www.serif.com/" style="fill-rule:evenodd;clip-rule:evenodd;stroke-linecap:round;stroke-linejoin:round;stroke-miterlimit:1.5;">
    <g transform="matrix(1,0,0,1,-449.004839,-531.650887)">
        <g>
            <path d="M482.188,687.824L469.364,860.373L459.211,1009.882L459.211,1187.82L454.413,1334.901L454.413,1627.59L519.424,1646.292L593.867,1656.444L700.737,1659.651L809.744,1653.238L891.09,1641.483L891.09,1665.954L980.736,1678.149L1083.331,1678.149L1230.277,1656.979L1311.498,1645.757L1361.116,1630.261L1361.116,1567.742L1354.781,1396.751L1350.506,1182.986L1345.697,988.508L1343.025,848.508L1332.872,769.959L1326.46,716.524L1238.293,726.677L1119.133,737.898L1078.522,737.898L874.016,738.967L788.37,734.692L680.432,727.745L564.721,719.73L519.424,706.906L495.013,695.684L482.188,687.824Z" style="fill:rgb(23,23,23);"/>
            <g transform="matrix(0.623114,0,0,0.623114,449.004352,682.414346)">
                <g transform="matrix(3.312667,0,0,3.312667,-754.780504,-1335.406917)">
                    <path d="M654.722,457.221C654.925,456.988 655.385,456.556 656.18,456.291C657.062,455.997 658.016,456.474 658.31,457.356C658.604,458.238 658.127,459.192 657.245,459.486C657.224,459.493 657.198,459.503 657.177,459.511L656.671,460.007L655.909,460.376C655.343,460.565 655.454,460.4 654.794,460.73C647.954,464.15 614.418,472.877 563.316,462.657C560.953,462.184 559.43,461.647 558.347,460.98C556.922,460.103 556.152,459.009 555.428,457.413C554.865,456.171 554.312,454.561 553.235,452.407C546.584,439.106 548.704,438.448 545.219,431.479C544.804,430.647 545.141,429.635 545.972,429.22C546.804,428.804 547.816,429.141 548.232,429.973C551.716,436.942 549.596,437.6 556.247,450.901C557.201,452.809 557.761,454.303 558.267,455.499C558.636,456.371 558.943,457.055 559.461,457.594C560.267,458.433 561.544,458.868 563.977,459.354C613.865,469.332 646.61,461.057 653.288,457.718C654.166,457.279 654.062,457.428 654.722,457.221ZM657.257,459.432C657.277,459.415 657.293,459.4 657.303,459.388L657.257,459.432ZM654.608,457.365C654.6,457.375 654.597,457.382 654.597,457.382C654.597,457.382 654.6,457.376 654.608,457.365Z"/>
                </g>
                <g transform="matrix(4.166666,0,0,4.166666,-4097.938874,-4031.507172)">
                    <path d="M1082.666,985.378C1082.666,985.378 1072.981,1076.217 1076.989,1084.567C1076.989,1084.567 1084.67,1088.908 1086.34,1085.569C1088.01,1082.229 1090.014,994.729 1092.685,985.378" style="fill:white;stroke:black;stroke-width:1.25px;"/>
                </g>
                <g transform="matrix(4.166666,0,0,4.166666,-4097.938874,-4031.507172)">
                    <path d="M1124.078,989.508C1124.078,989.508 1135.767,1077.407 1135.433,1086.831C1135.099,1096.256 1144.116,1095.254 1146.788,1090.578C1149.46,1085.903 1136.101,995.308 1134.097,989.508" style="fill:white;stroke:black;stroke-width:1.25px;"/>
                </g>
                <g transform="matrix(3.312667,0,0,3.312667,-754.780504,-1335.406917)">
                    <path d="M280.716,417.95C281.132,417.118 282.144,416.781 282.976,417.197C283.807,417.612 284.144,418.625 283.729,419.456C282.406,422.101 282.453,424.892 282.237,427.619C281.848,432.525 280.886,437.284 273.179,441.138C272.91,441.272 268.929,445.254 242.031,450.634C241.12,450.816 240.232,450.224 240.05,449.313C239.868,448.402 240.46,447.514 241.371,447.331C267.53,442.1 271.411,438.256 271.673,438.125C277.811,435.056 278.57,431.26 278.88,427.352C279.13,424.204 279.19,421.004 280.716,417.95Z"/>
                </g>
                <g transform="matrix(3.312667,0,0,3.312667,-754.780504,-1335.406917)">
                    <path d="M668.293,837.566C669.783,833.353 668.392,841.543 668.442,843.422C668.932,862.028 669.235,849.378 669.725,863.64L665.51,863.374L644.9,869.863L621.236,873.298L584.213,878.26L534.595,883.985L486.122,885.511L443.138,880.923L439.778,867.686L403.347,873.194L354.721,876.376L292.927,874.869L264.874,869.971L231.032,860.619L230.467,764.758L233.272,550.016L243.291,405.742C281.173,436.775 561.197,429.034 561.197,429.034L615.968,423.69L653.195,420.618L660.676,485.808C660.676,485.808 668.378,800.8 668.293,837.566Z" style="fill:none;stroke:black;stroke-width:5.24px;"/>
                </g>
                <g transform="matrix(3.312667,0,0,3.312667,-754.780504,-1335.406917)">
                    <path d="M336.841,558.842C336.841,558.842 402.108,588.613 417.375,589.377C417.375,589.377 439.06,857.866 442.018,879.603" style="fill:none;stroke:black;stroke-width:5.24px;"/>
                </g>
            </g>
            <g transform="matrix(0.08694,0,0,0.08694,1190.802043,981.020126)">
                <g transform="matrix(1,0,0,1,-3643.75,-5168.75)">
                    <g id="alo-yoga-1.jpg" transform="matrix(4.903158,0,0,4.903158,1383.333333,2983.333333)">
                        <path d="M526.5,163.05C530.783,163.219 531.899,161.739 532.591,164.475C532.776,165.206 532.68,441.658 532.639,442.524C532.514,445.183 523.948,444.34 521.5,444.34C500.215,444.34 498.333,445.156 498.31,441.506C498.309,441.322 498.303,166.24 498.313,165.49C498.356,162.433 500.048,163.05 526.5,163.05Z" style="fill:rgb(254,254,254);"/>
                        <path d="M372.42,277.083C376.079,276.525 397.741,273.223 418.467,281.584C436.251,288.758 434.854,291.27 436.465,291.624C440.904,292.6 434.476,281.303 441.499,281.304C470.944,281.31 472.28,280.858 472.538,283.497C472.55,283.625 472.602,441.955 472.51,442.502C472.142,444.685 471.084,444.354 441.5,444.343C436.771,444.341 438.148,442.196 438.17,437.502C438.201,430.732 434.708,436.415 425.306,441.145C357.045,475.491 286.21,408.034 305.863,339.605C321.679,284.539 370.873,277.453 372.42,277.083ZM388.501,311.113C384.998,311.191 362.481,311.696 348.885,329.813C315.927,373.73 358.062,423.486 397.582,413.863C456.799,399.443 448.001,313.637 388.501,311.113Z" style="fill:rgb(254,254,254);"/>
                        <path d="M621.423,277.062C627.428,276.159 665.367,270.454 694.124,298.871C758.208,362.194 700.197,464.742 620.466,448.673C552.6,434.995 533.227,351.858 570.784,307.736C589.789,285.409 604.735,281.04 621.423,277.062ZM635.498,311.113C580.651,313.623 569.337,386.262 613.65,409.214C664.587,435.597 713.862,366.637 670.352,324.652C657.412,312.165 638.486,311.257 635.498,311.113Z" style="fill:rgb(254,254,254);"/>
                    </g>
                </g>
            </g>
        </g>
    </g>
</svg>
