<?xml version="1.0" encoding="UTF-8" standalone="no"?>
<!DOCTYPE svg PUBLIC "-//W3C//DTD SVG 1.1//EN" "http://www.w3.org/Graphics/SVG/1.1/DTD/svg11.dtd">
<svg width="100%" height="100%" viewBox="0 0 354 386" version="1.1" xmlns="http://www.w3.org/2000/svg" xmlns:xlink="http://www.w3.org/1999/xlink" xml:space="preserve" xmlns:serif="http://www.serif.com/" style="fill-rule:evenodd;clip-rule:evenodd;stroke-linecap:round;stroke-linejoin:round;stroke-miterlimit:1.5;">
    <g transform="matrix(1,0,0,1,-697.244161,-974.686294)">
        <g transform="matrix(1.029546,0,0,1.029546,-169.136584,165.063583)">
            <path d="M854.021,788.411L848.677,874.023L847.342,897.178L846.896,924.19L846.415,937.16L843.541,947.095L843.541,1112.821L845.682,1124.321L845.599,1140.054L858.623,1144.396L875.656,1147.401L891.686,1151.075L922.745,1152.077L957.812,1152.745L1006.905,1145.452L1005.904,1155.417L1016.257,1155.751L1038.632,1158.901L1087.392,1158.901L1139.825,1149.739L1167.878,1144.73L1177.897,1142.058L1181.593,1137.716L1180.584,1120.448L1182.891,1107.728L1180.007,1088.366L1179.719,1049.863L1179.719,1029.253L1179.431,1020.643L1178.312,1003.664L1179.327,973.282L1179.863,941.42L1179.863,909.495L1177.191,867.749L1174.185,827.673L1170.178,798.618L1093.588,807.505L1054.216,806.985L993.36,806.095L947.05,804.611L912.317,801.939L879.959,798.08L860.663,792.736L854.021,788.411Z" style="fill:rgb(55,68,86);"/>
            <g transform="matrix(0.772224,0,0,0.772224,665.568536,475.088098)">
                <path d="M654.722,457.221C654.925,456.988 655.385,456.556 656.18,456.291C657.062,455.997 658.016,456.474 658.31,457.356C658.604,458.238 658.127,459.192 657.245,459.486C657.224,459.493 657.198,459.503 657.177,459.511L656.671,460.007L655.909,460.376C655.343,460.565 655.454,460.4 654.794,460.73C647.954,464.15 614.418,472.877 563.316,462.657C560.953,462.184 559.43,461.647 558.347,460.98C556.922,460.103 556.152,459.009 555.428,457.413C554.865,456.171 554.312,454.561 553.235,452.407C546.584,439.106 548.704,438.448 545.219,431.479C544.804,430.647 545.141,429.635 545.972,429.22C546.804,428.804 547.816,429.141 548.232,429.973C551.716,436.942 549.596,437.6 556.247,450.901C557.201,452.809 557.761,454.303 558.267,455.499C558.636,456.371 558.943,457.055 559.461,457.594C560.267,458.433 561.544,458.868 563.977,459.354C613.865,469.332 646.61,461.057 653.288,457.718C654.166,457.279 654.062,457.428 654.722,457.221ZM657.257,459.432C657.277,459.415 657.293,459.4 657.303,459.388L657.257,459.432ZM654.608,457.365C654.6,457.375 654.597,457.382 654.597,457.382C654.597,457.382 654.6,457.376 654.608,457.365Z"/>
                <g transform="matrix(1.257798,0,0,1.257798,-1009.204414,-813.875975)">
                    <path d="M1082.666,985.378C1082.666,985.378 1072.981,1076.217 1076.989,1084.567C1076.989,1084.567 1084.67,1088.908 1086.34,1085.569C1088.01,1082.229 1090.014,994.729 1092.685,985.378" style="fill:white;stroke:black;stroke-width:1.25px;"/>
                </g>
                <g transform="matrix(1.257798,0,0,1.257798,-1009.204414,-813.875975)">
                    <path d="M1124.078,989.508C1124.078,989.508 1135.767,1077.407 1135.433,1086.831C1135.099,1096.256 1144.116,1095.254 1146.788,1090.578C1149.46,1085.903 1136.101,995.308 1134.097,989.508" style="fill:white;stroke:black;stroke-width:1.25px;"/>
                </g>
                <path d="M280.716,417.95C281.132,417.118 282.144,416.781 282.976,417.197C283.807,417.612 284.144,418.625 283.729,419.456C282.406,422.101 282.453,424.892 282.237,427.619C281.848,432.525 280.886,437.284 273.179,441.138C272.91,441.272 268.929,445.254 242.031,450.634C241.12,450.816 240.232,450.224 240.05,449.313C239.868,448.402 240.46,447.514 241.371,447.331C267.53,442.1 271.411,438.256 271.673,438.125C277.811,435.056 278.57,431.26 278.88,427.352C279.13,424.204 279.19,421.004 280.716,417.95Z"/>
                <path d="M668.293,837.566C669.783,833.353 668.392,841.543 668.442,843.422C668.932,862.028 669.235,849.378 669.725,863.64L665.51,863.374L644.9,869.863L621.236,873.298L584.213,878.26L534.595,883.985L486.122,885.511L443.138,880.923L439.778,867.686L403.347,873.194L354.721,876.376L292.927,874.869L264.874,869.971L231.032,860.619L230.467,764.758L233.272,550.016L243.291,405.742C281.173,436.775 561.197,429.034 561.197,429.034L615.968,423.69L653.195,420.618L660.676,485.808C660.676,485.808 668.378,800.8 668.293,837.566Z" style="fill:none;stroke:black;stroke-width:5.24px;"/>
                <path d="M336.841,558.842C336.841,558.842 402.108,588.613 417.375,589.377C417.375,589.377 439.06,857.866 442.018,879.603" style="fill:none;stroke:black;stroke-width:5.24px;"/>
            </g>
        </g>
    </g>
</svg>
