<?xml version="1.0" encoding="UTF-8" standalone="no"?>
<svg width="100%" height="100%" viewBox="0 0 344 398" version="1.1" xmlns="http://www.w3.org/2000/svg" xmlns:xlink="http://www.w3.org/1999/xlink" xml:space="preserve" xmlns:serif="http://www.serif.com/" style="fill-rule:evenodd;clip-rule:evenodd;stroke-linecap:round;stroke-linejoin:round;stroke-miterlimit:1.5;">
    <g transform="matrix(1,0,0,1,-841.457318,-786.328143)">
        <g>
            <path d="M854.021,788.411L848.677,874.023L847.342,897.178L846.896,924.19L843.541,1014.695L843.541,1080.821L846.896,1162.977L859.921,1167.319L876.953,1170.324L892.984,1173.998L924.043,1175L959.11,1175.668L1006.867,1173.998L1007.201,1178.34L1017.554,1178.674L1039.93,1181.824L1088.689,1181.824L1141.122,1172.662L1169.176,1167.653L1179.195,1164.981L1182.891,1160.639L1182.891,1009.686L1179.863,954.915L1179.863,909.495L1177.191,867.749L1174.185,827.673L1170.178,798.618L1093.588,807.505L1054.216,806.985L993.36,806.095L947.05,804.611L912.317,801.939L879.959,798.08L860.663,792.736L854.021,788.411Z" style="fill:rgb(83,101,187);"/>
            <g transform="matrix(0.772224,0,0,0.772224,665.568536,475.088098)">
                <path d="M402.242,429.065C402.348,428.114 403.206,427.427 404.157,427.533C405.108,427.639 405.794,428.497 405.688,429.448C399.211,487.739 400.227,501.294 405.161,585.184C405.218,586.14 404.488,586.961 403.533,587.017C402.577,587.073 401.756,586.343 401.7,585.388C396.747,501.182 395.741,487.575 402.242,429.065Z"/>
                <path d="M362.432,427.427C362.532,426.476 363.386,425.784 364.338,425.885C365.289,425.985 365.98,426.839 365.88,427.79C362.439,460.477 364.931,499.809 367.537,516.072C367.915,518.434 368.292,520.295 368.657,521.555C368.819,522.117 368.923,522.522 369.072,522.709C375.72,531.019 390.528,542.386 393.875,544.06C396.334,545.289 397.183,546.363 398.03,547.434C398.639,548.203 399.244,548.971 401,549.849C401.856,550.277 402.203,551.319 401.775,552.175C401.347,553.031 400.305,553.378 399.449,552.95C397.466,551.959 396.532,551.055 395.794,550.181C394.979,549.217 394.526,548.262 392.325,547.161C388.825,545.412 373.315,533.562 366.365,524.874C366.11,524.556 365.81,524.001 365.537,523.194C365.083,521.856 364.592,519.61 364.113,516.62C361.481,500.19 358.956,460.452 362.432,427.427Z"/>
                <path d="M654.693,457.178C654.903,456.94 655.369,456.509 656.164,456.244C657.072,455.941 658.054,456.432 658.357,457.34C658.66,458.248 658.168,459.23 657.261,459.533C657.243,459.539 657.222,459.547 657.203,459.554L656.699,460.048L655.925,460.424C655.362,460.611 655.472,460.447 654.816,460.775C647.974,464.196 614.426,472.929 563.307,462.705C560.935,462.231 559.408,461.691 558.321,461.022C556.887,460.14 556.112,459.039 555.383,457.433C554.82,456.192 554.267,454.583 553.19,452.43C546.539,439.128 548.659,438.47 545.175,431.501C544.747,430.645 545.094,429.603 545.95,429.175C546.806,428.747 547.848,429.095 548.276,429.95C551.761,436.919 549.641,437.578 556.291,450.879C557.246,452.788 557.806,454.283 558.313,455.479C558.679,456.345 558.982,457.025 559.496,457.559C560.298,458.393 561.569,458.822 563.987,459.305C613.857,469.28 646.59,461.011 653.265,457.674C654.142,457.235 654.044,457.38 654.693,457.178ZM657.292,459.467C657.313,459.449 657.331,459.432 657.342,459.419L657.292,459.467ZM654.562,457.344C654.559,457.348 654.558,457.35 654.558,457.35C654.558,457.35 654.559,457.348 654.562,457.344Z"/>
                <path d="M280.672,417.927C281.1,417.072 282.142,416.724 282.998,417.152C283.854,417.58 284.201,418.622 283.773,419.478C282.454,422.117 282.502,424.902 282.287,427.623C281.896,432.544 280.931,437.317 273.201,441.182C272.932,441.317 268.949,445.301 242.041,450.683C241.103,450.87 240.189,450.261 240.001,449.323C239.813,448.384 240.423,447.47 241.361,447.283C267.51,442.053 271.389,438.212 271.651,438.081C277.766,435.023 278.521,431.242 278.83,427.348C279.081,424.194 279.142,420.987 280.672,417.927Z"/>
                <path d="M640.768,422.354C640.728,421.797 641.068,421.262 641.622,421.077C642.278,420.858 642.987,421.213 643.206,421.869L643.275,422.306C643.311,422.963 643.5,426.518 643.808,432.518C646.894,492.506 662.018,797.008 657.964,894.309C657.935,895 657.351,895.537 656.66,895.509C655.97,895.48 655.432,894.896 655.461,894.205C659.513,796.952 644.391,492.604 641.307,432.647C640.998,426.653 640.81,423.102 640.774,422.446L640.768,422.354Z"/>
                <path d="M229.683,866.438C229.194,865.949 229.194,865.156 229.683,864.667C230.172,864.178 230.966,864.178 231.454,864.667C238.075,871.287 251.216,876.562 268.629,880.506C309.849,889.841 374.816,891.456 435.247,883.902C435.933,883.817 436.56,884.304 436.646,884.99C436.731,885.676 436.244,886.302 435.558,886.388C374.813,893.981 309.509,892.333 268.076,882.949C250.066,878.87 236.53,873.285 229.683,866.438Z"/>
                <path d="M442.085,888.078C441.449,887.805 441.154,887.068 441.427,886.433C441.699,885.798 442.436,885.503 443.071,885.775C465.123,895.226 546.727,899.333 633.643,873.259C634.305,873.06 635.004,873.436 635.202,874.098C635.401,874.76 635.025,875.459 634.362,875.658C546.675,901.964 464.332,897.612 442.085,888.078Z"/>
                <path d="M243.291,405.742L233.272,550.016L230.467,764.758L233.272,890.864L267.114,900.215L295.168,905.113L358.081,907.181L405.027,906.799L442.578,905.275L442.578,910.608L485.562,915.196L534.035,913.669L583.653,907.944L620.676,902.982L644.34,899.547L664.95,893.059L669.912,888.097L668.004,824.738L668.004,718.25L665.714,638.861L666.019,567.564L660.676,485.808L653.195,420.618L615.968,423.69L561.197,429.034C561.197,429.034 281.173,436.775 243.291,405.742" style="fill:none;stroke:black;stroke-width:5.4px;"/>
                <path d="M336.841,558.842C336.841,558.842 402.108,588.613 417.375,589.377C417.375,589.377 439.62,889.231 442.578,910.967" style="fill:none;stroke:black;stroke-width:5.4px;"/>
            </g>
        </g>
    </g>
</svg>
