<?xml version="1.0" encoding="UTF-8" standalone="no"?>
<!DOCTYPE svg PUBLIC "-//W3C//DTD SVG 1.1//EN" "http://www.w3.org/Graphics/SVG/1.1/DTD/svg11.dtd">
<svg width="100%" height="100%" viewBox="0 0 454 548" version="1.1" xmlns="http://www.w3.org/2000/svg" xmlns:xlink="http://www.w3.org/1999/xlink" xml:space="preserve" xmlns:serif="http://www.serif.com/" style="fill-rule:evenodd;clip-rule:evenodd;stroke-linecap:round;stroke-linejoin:round;stroke-miterlimit:1.5;">
    <g transform="matrix(1,0,0,1,-571.698115,-959.509593)">
        <g>
            <path d="M592.461,962.074L582.665,1097.11L582.665,1152.771L579.048,1233.75L579.048,1324.654L582.665,1421.654L579.048,1429.297L582.665,1433.75L573.781,1432.86L573.781,1445.02L579.048,1469.066L579.048,1474.113L583.937,1478.565L601.749,1484.206L627.279,1488.956L667.652,1494.767L746.617,1494.767L786.551,1489.846L789.662,1490.737L789.365,1497.268L790.849,1500.236L812.817,1505.426L874.016,1505.426L904.704,1502.314L930.671,1499.643L965.106,1494.767L992.715,1483.612L1017.057,1474.706L1022.858,1471.144L1022.858,1428.128L1011.427,1421.654L1011.427,1395.148L1009.042,1356.259L1007.966,1257.72L1004.96,1162.873L1002.956,1037.634L999.617,1014.925L994.607,976.184L904.704,985.535L808.587,985.535L742.461,984.867L693.034,981.862L651.288,978.188L617.223,972.511L599.522,965.831L592.461,962.074Z" style="fill:rgb(67,108,168);"/>
            <g>
                <g transform="matrix(0.983922,0,0,0.973694,352.286021,567.005441)">
                    <path d="M402.292,429.07C402.394,428.147 403.227,427.48 404.151,427.583C405.075,427.685 405.741,428.518 405.639,429.442C399.162,487.736 400.177,501.293 405.112,585.187C405.166,586.115 404.457,586.913 403.53,586.967C402.602,587.022 401.804,586.313 401.75,585.385C396.797,501.184 395.791,487.578 402.292,429.07Z"/>
                </g>
                <g transform="matrix(0.983922,0,0,0.973694,352.286021,567.005441)">
                    <path d="M362.481,427.432C362.579,426.508 363.408,425.837 364.332,425.934C365.257,426.031 365.928,426.861 365.831,427.785C362.389,460.477 364.882,499.815 367.488,516.08C367.866,518.445 368.244,520.307 368.609,521.568C368.774,522.14 368.882,522.55 369.033,522.74C375.686,531.055 390.503,542.43 393.853,544.105C396.301,545.329 397.148,546.398 397.991,547.465C398.603,548.238 399.212,549.011 400.978,549.893C401.809,550.309 402.146,551.321 401.731,552.153C401.315,552.984 400.303,553.321 399.472,552.906C397.035,551.687 396.194,550.621 395.35,549.554C394.738,548.78 394.123,548.005 392.347,547.117C388.85,545.368 373.35,533.526 366.404,524.843C366.151,524.528 365.855,523.977 365.584,523.178C365.131,521.841 364.641,519.599 364.162,516.612C361.53,500.184 359.006,460.452 362.481,427.432Z"/>
                </g>
                <g transform="matrix(0.983922,0,0,0.973694,352.286021,567.005441)">
                    <path d="M654.722,457.221C654.925,456.988 655.385,456.556 656.18,456.291C657.062,455.997 658.016,456.474 658.31,457.356C658.604,458.238 658.127,459.192 657.245,459.486C657.224,459.493 657.198,459.503 657.177,459.511L656.671,460.007L655.909,460.376C655.343,460.565 655.454,460.4 654.794,460.73C647.954,464.15 614.418,472.877 563.316,462.657C560.953,462.184 559.43,461.647 558.347,460.98C556.922,460.103 556.152,459.009 555.428,457.413C554.865,456.171 554.312,454.561 553.235,452.407C546.584,439.106 548.704,438.448 545.219,431.479C544.804,430.647 545.141,429.635 545.972,429.22C546.804,428.804 547.816,429.141 548.232,429.973C551.716,436.942 549.596,437.6 556.247,450.901C557.201,452.809 557.761,454.303 558.267,455.499C558.636,456.371 558.943,457.055 559.461,457.594C560.267,458.433 561.544,458.868 563.977,459.354C613.865,469.332 646.61,461.057 653.288,457.718C654.166,457.279 654.062,457.428 654.722,457.221ZM657.257,459.432C657.277,459.415 657.293,459.4 657.303,459.388L657.257,459.432ZM654.608,457.365C654.6,457.375 654.597,457.382 654.597,457.382C654.597,457.382 654.6,457.376 654.608,457.365Z"/>
                </g>
                <g transform="matrix(0.983922,0,0,0.973694,352.286021,567.005441)">
                    <path d="M280.716,417.95C281.132,417.118 282.144,416.781 282.976,417.197C283.807,417.612 284.144,418.625 283.729,419.456C282.406,422.101 282.453,424.892 282.237,427.619C281.848,432.525 280.886,437.284 273.179,441.138C272.91,441.272 268.929,445.254 242.031,450.634C241.12,450.816 240.232,450.224 240.05,449.313C239.868,448.402 240.46,447.514 241.371,447.331C267.53,442.1 271.411,438.256 271.673,438.125C277.811,435.056 278.57,431.26 278.88,427.352C279.13,424.204 279.19,421.004 280.716,417.95Z"/>
                </g>
                <g transform="matrix(0.983922,0,0,0.973694,352.286021,567.005441)">
                    <path d="M668.293,837.566C669.783,833.353 668.392,841.543 668.442,843.422C668.932,862.028 669.422,873.835 669.912,888.097L664.95,893.059L644.34,899.547L620.676,902.982L583.653,907.944L534.035,913.669L485.562,915.196L442.578,910.608L442.578,905.275L405.027,906.799L358.081,907.181L295.168,905.113L267.114,900.215L233.272,890.864L230.467,764.758L233.272,550.016L243.291,405.742C281.173,436.775 561.197,429.034 561.197,429.034L615.968,423.69L653.195,420.618L660.676,485.808C660.676,485.808 668.378,800.8 668.293,837.566Z" style="fill:none;stroke:black;stroke-width:5.24px;"/>
                </g>
                <g transform="matrix(0.983922,0,0,0.973694,352.286021,567.005441)">
                    <path d="M336.841,558.842C336.841,558.842 402.108,588.613 417.375,589.377C417.375,589.377 439.62,889.231 442.578,910.967" style="fill:none;stroke:black;stroke-width:5.24px;"/>
                </g>
                <path d="M581.666,1428.128L573.781,1434.705C573.781,1434.705 578.781,1461.878 577.951,1473.233C577.121,1484.588 680.941,1502.344 786.551,1491.267" style="fill:none;stroke:black;stroke-width:4.17px;"/>
                <path d="M786.551,1451.788L786.551,1458.127C786.551,1458.127 791.09,1492.627 788.749,1499.879C788.749,1499.879 913.049,1524.001 1022.667,1471.635C1022.667,1471.635 1019.184,1438.748 1022.858,1428.128L1011.427,1421.654" style="fill:none;stroke:black;stroke-width:4.17px;"/>
            </g>
            <g transform="matrix(0.02926,0,0,0.02926,943.656895,1102.900915)">
                <g transform="matrix(1,0,0,1,-1331.25,-1368.75)">
                    <g transform="matrix(4.166667,0,0,4.166667,-2467.293738,-3625.25265)">
                        <g transform="matrix(2.279712,0,0,2.279712,587.524604,865.438005)">
                            <path d="M114.872,228.832C100.847,268.683 98.007,270.845 101.544,271.096C104.448,271.302 188.9,271.857 196.497,271.907C211.09,272.002 230.626,278.422 251.853,235.676C262.908,213.413 263.372,213.472 264.471,213.291C264.877,213.224 280.232,213.179 280.591,213.289C282.75,213.943 281.008,215.08 264.251,254.392C263.061,257.184 250.007,287.807 249.115,289.176C248.533,290.07 248.205,289.96 17.5,289.962C16.512,289.962 6.747,290.732 7.398,288.488C7.466,288.251 15.538,268.95 15.757,268.655C19.481,263.65 50.853,272.926 60.092,262.13C63.142,258.567 63.169,258.483 84.704,196.571C90.123,180.99 91.168,179.243 90.107,176.66C84.794,163.729 39.707,59.924 35.268,47.58C27.314,25.455 2.936,29.404 2.239,27.636C1.904,26.786 2.08,14.535 2.044,11.499C1.976,5.738 4.739,7.747 10.5,7.747C85.95,7.754 86.283,7.623 86.661,8.369C87.245,9.519 87.477,9.977 86.346,24.492C85.841,30.974 75.285,24.555 74.323,34.477C73.62,41.725 75.577,41.459 98.701,90.403C99.75,92.624 111.725,117.971 111.845,118.15C113.01,119.886 113.247,117.58 120.776,93.587C128.097,70.256 134.697,56.722 123.533,55.243C122.169,55.062 114.204,57.258 115.362,53.466C119.51,39.885 119.962,38.095 122.486,38.081C130.146,38.036 176.724,38.755 203.488,38.923C204.351,38.928 206.368,38.841 205.599,41.524C203.316,49.496 202.406,54.859 199.469,55.294C184.578,57.498 175.986,53.126 165.293,83.426C134.763,169.935 134.312,170.211 135.361,172.561C136.854,175.905 153.79,213.846 154.798,214.002C156.069,214.199 155.885,213.336 181.435,150.473C185.176,141.269 228.155,35.521 228.189,35.409C230.757,26.851 223.251,20.09 217.506,20.065C210.705,20.035 210.283,21.19 208.63,19.397C208.246,18.98 207.211,2.819 209.365,2.158C210.171,1.91 273.85,2.104 278.501,2.044C283.63,1.978 281.94,4.405 281.962,9.5C281.975,12.511 282.715,19.73 280.424,20.193C278.679,20.547 267.521,20.551 257.625,28.649C250.453,34.518 251.493,35.43 237.734,69.594C163.559,253.769 164.469,255.248 161.549,255.787C159.107,256.239 159.096,255.7 130.517,255.039C127.679,254.973 127.526,254.301 118.983,235.284C117.872,232.81 116.35,228.836 116.24,228.797C115.81,228.643 115.301,228.985 114.872,228.832Z" style="fill:rgb(171,185,255);"/>
                        </g>
                    </g>
                </g>
            </g>
        </g>
    </g>
</svg>
