<?xml version="1.0" encoding="UTF-8" standalone="no"?>
<svg width="100%" height="100%" viewBox="0 0 489 507" version="1.1" xmlns="http://www.w3.org/2000/svg" xmlns:xlink="http://www.w3.org/1999/xlink" xml:space="preserve" xmlns:serif="http://www.serif.com/" style="fill-rule:evenodd;clip-rule:evenodd;stroke-linecap:round;stroke-linejoin:round;stroke-miterlimit:1.5;">
    <g transform="matrix(1,0,0,1,-666.010443,-1054.487876)">
        <g>
            <path d="M904.833,1554.657C901.537,1556.706 902.928,1553.546 902.928,1553.546L906.936,1555.884C906.936,1555.884 1050.994,1569.765 1125.142,1534.115L1132.267,1528.618L1129.328,1477.904L1137.22,1471.39L1141.896,1463.04L1148.241,1445.006C1148.241,1445.006 1151.881,1431.328 1152.725,1410.293C1153.801,1383.479 1151.598,1346.142 1145.235,1325.446L1152.725,1318.237L1152.725,1296.529L1147.907,1281.166L1132.267,1249.439L1129.328,1240.157L1120.522,1138.896L1115.512,1083.123L1111.504,1070.766L1106.427,1071.434L1045.379,1075.776L883.261,1080.523L858.452,1079.378L803.49,1077.088L771.429,1073.653L747.765,1069.836L729.445,1065.637L714.177,1060.294L709.049,1056.571L705.376,1144.286L703.706,1177.683L702.37,1236.462L698.919,1240.157L688.272,1265.517L677.625,1294.906L671.979,1307.927L668.094,1324.295C668.094,1324.295 673.894,1343.331 675.441,1346.671C676.988,1350.011 673.055,1355.224 673.055,1355.224C673.055,1355.224 650.866,1472.578 698.919,1487.226L698.919,1534.115C698.919,1534.115 770.945,1566.473 903.73,1547.959" style="fill:rgb(88,133,15);"/>
            <g>
                <g transform="matrix(0.420987,0,0,0.423947,508.912446,746.450465)">
                    <path d="M1473.718,1168.406L1441.964,800.136C1438.174,779.348 1433.785,767.452 1428.71,766.727C1428.71,766.727 621.536,830.679 475.035,731.509C475.035,731.509 443.66,1275.828 453.113,1861.831C453.113,1861.831 608.622,1926.82 922.107,1897.331L932.438,1895.184L936.713,1908.008C936.713,1908.008 1181.712,1948.618 1462.245,1860.006" style="fill:none;stroke:black;stroke-width:9.86px;"/>
                </g>
                <path d="M1060.13,1258.551C1051.669,1261.668 1121.936,1247.744 1129.328,1241.793" style="fill:none;stroke:black;stroke-width:4.17px;"/>
                <path d="M1060.13,1258.551C1060.13,1258.551 1077.051,1457.596 1073.043,1482.087C1073.043,1482.087 1122.916,1486.095 1134.493,1472.736C1134.493,1472.736 1166.777,1455.561 1144.735,1325.344L1149.188,1320.589C1149.188,1320.589 1165.129,1310.849 1129.328,1240.157" style="fill:none;stroke:black;stroke-width:4.17px;"/>
                <path d="M1065.028,1265.203C1065.028,1265.203 1087.738,1311.514 1086.402,1339.567C1086.402,1339.567 1132.267,1337.341 1144.735,1323.982" style="fill:none;stroke:black;stroke-width:4.17px;"/>
                <path d="M1086.402,1339.567C1086.402,1339.567 1116.682,1467.366 1080.613,1475.826" style="fill:none;stroke:black;stroke-width:4.17px;"/>
                <path d="M698.919,1240.157C698.919,1240.157 653.935,1327.134 675.309,1344.127C675.309,1344.127 648.255,1473.333 698.919,1487.226" style="fill:none;stroke:black;stroke-width:4.17px;"/>
                <path d="M698.919,1276.692C698.919,1276.692 654.469,1445.012 694.011,1465.852" style="fill:none;stroke:black;stroke-width:4.17px;"/>
                <path d="M1129.001,1477.904C1129.001,1477.904 1131.376,1524.764 1132.267,1529.217L1125.142,1534.115" style="fill:none;stroke:black;stroke-width:4.17px;"/>
                <g transform="matrix(0.420987,0,0,0.423947,508.912446,746.450465)">
                    <path d="M936.713,1908.008C936.713,1908.008 863.551,1208.545 874.016,1172.921C874.016,1172.921 765.855,1152.46 687.706,1093.682" style="fill:none;stroke:black;stroke-width:9.86px;"/>
                </g>
                <g transform="matrix(0.420987,0,0,0.423947,508.912446,746.450465)">
                    <path d="M850.683,789.437C850.683,789.437 832.547,1022.378 854.305,1168.406" style="fill:none;stroke:black;stroke-width:9.86px;"/>
                </g>
                <g transform="matrix(0.420987,0,0,0.423947,508.912446,746.450465)">
                    <path d="M757.171,789.437C757.171,789.437 741.141,924.36 767.858,1009.856C767.858,1009.856 797.772,1061.955 843.597,1077.985" style="fill:none;stroke:black;stroke-width:9.86px;"/>
                </g>
                <g transform="matrix(0.420987,0,0,0.423947,508.912446,746.450465)">
                    <path d="M1177.971,789.437L1204.689,865.581C1204.689,865.581 1392.219,888.291 1442.474,862.91" style="fill:none;stroke:black;stroke-width:9.86px;"/>
                </g>
                <g transform="matrix(0.420987,0,0,0.423947,508.912446,746.450465)">
                    <path d="M562.962,766.727L553.611,818.826C553.611,818.826 508.191,838.859 472.123,832.182" style="fill:none;stroke:black;stroke-width:9.86px;"/>
                </g>
            </g>
        </g>
    </g>
</svg>
