<?xml version="1.0" encoding="UTF-8" standalone="no"?>
<svg width="100%" height="100%" viewBox="0 0 779 901" version="1.1" xmlns="http://www.w3.org/2000/svg" xmlns:xlink="http://www.w3.org/1999/xlink" xml:space="preserve" xmlns:serif="http://www.serif.com/" style="fill-rule:evenodd;clip-rule:evenodd;stroke-linecap:round;stroke-linejoin:round;stroke-miterlimit:1.5;">
    <g transform="matrix(1,0,0,1,-535.068957,-744.420854)">
        <g transform="matrix(1,0,0,1,-210.177414,-24.936303)">
            <g transform="matrix(0.543301,0,0,0.543301,1134.612085,1219.844233)">
                <g transform="matrix(1,0,0,1,-716.666667,-829.166667)">
                    <clipPath id="_clip1">
                        <rect x="0" y="0" width="1433.333" height="1658.333"/>
                    </clipPath>
                    <g clip-path="url(#_clip1)">
                        <g transform="matrix(4.166667,0,0,4.166667,-3506.072158,-3276.367262)">
                            <g>
                                <path d="M854.021,788.411L848.677,874.023L847.342,897.178L846.896,924.19L843.541,1014.695L843.541,1080.821L846.896,1162.977L859.921,1167.319L876.953,1170.324L892.984,1173.998L924.043,1175L959.11,1175.668L1006.867,1173.998L1007.201,1178.34L1017.554,1178.674L1039.93,1181.824L1088.689,1181.824L1141.122,1172.662L1169.176,1167.653L1179.195,1164.981L1182.891,1160.639L1182.891,1009.686L1179.863,954.915L1179.863,909.495L1177.191,867.749L1174.185,827.673L1170.178,798.618L1093.588,807.505L1054.216,806.985L993.36,806.095L947.05,804.611L912.317,801.939L879.959,798.08L860.663,792.736L854.021,788.411Z" style="fill:rgb(83,101,187);"/>
                                <g transform="matrix(0.772224,0,0,0.772224,665.568536,475.088098)">
                                    <path d="M402.242,429.065C402.348,428.114 403.206,427.427 404.157,427.533C405.108,427.639 405.794,428.497 405.688,429.448C399.211,487.739 400.227,501.294 405.161,585.184C405.218,586.14 404.488,586.961 403.533,587.017C402.577,587.073 401.756,586.343 401.7,585.388C396.747,501.182 395.741,487.575 402.242,429.065Z"/>
                                    <path d="M362.432,427.427C362.532,426.476 363.386,425.784 364.338,425.885C365.289,425.985 365.98,426.839 365.88,427.79C362.439,460.477 364.931,499.809 367.537,516.072C367.915,518.434 368.292,520.295 368.657,521.555C368.819,522.117 368.923,522.522 369.072,522.709C375.72,531.019 390.528,542.386 393.875,544.06C396.334,545.289 397.183,546.363 398.03,547.434C398.639,548.203 399.244,548.971 401,549.849C401.856,550.277 402.203,551.319 401.775,552.175C401.347,553.031 400.305,553.378 399.449,552.95C397.466,551.959 396.532,551.055 395.794,550.181C394.979,549.217 394.526,548.262 392.325,547.161C388.825,545.412 373.315,533.562 366.365,524.874C366.11,524.556 365.81,524.001 365.537,523.194C365.083,521.856 364.592,519.61 364.113,516.62C361.481,500.19 358.956,460.452 362.432,427.427Z"/>
                                    <path d="M654.693,457.178C654.903,456.94 655.369,456.509 656.164,456.244C657.072,455.941 658.054,456.432 658.357,457.34C658.66,458.248 658.168,459.23 657.261,459.533C657.243,459.539 657.222,459.547 657.203,459.554L656.699,460.048L655.925,460.424C655.362,460.611 655.472,460.447 654.816,460.775C647.974,464.196 614.426,472.929 563.307,462.705C560.935,462.231 559.408,461.691 558.321,461.022C556.887,460.14 556.112,459.039 555.383,457.433C554.82,456.192 554.267,454.583 553.19,452.43C546.539,439.128 548.659,438.47 545.175,431.501C544.747,430.645 545.094,429.603 545.95,429.175C546.806,428.747 547.848,429.095 548.276,429.95C551.761,436.919 549.641,437.578 556.291,450.879C557.246,452.788 557.806,454.283 558.313,455.479C558.679,456.345 558.982,457.025 559.496,457.559C560.298,458.393 561.569,458.822 563.987,459.305C613.857,469.28 646.59,461.011 653.265,457.674C654.142,457.235 654.044,457.38 654.693,457.178ZM657.292,459.467C657.313,459.449 657.331,459.432 657.342,459.419L657.292,459.467ZM654.562,457.344C654.559,457.348 654.558,457.35 654.558,457.35C654.558,457.35 654.559,457.348 654.562,457.344Z"/>
                                    <path d="M280.672,417.927C281.1,417.072 282.142,416.724 282.998,417.152C283.854,417.58 284.201,418.622 283.773,419.478C282.454,422.117 282.502,424.902 282.287,427.623C281.896,432.544 280.931,437.317 273.201,441.182C272.932,441.317 268.949,445.301 242.041,450.683C241.103,450.87 240.189,450.261 240.001,449.323C239.813,448.384 240.423,447.47 241.361,447.283C267.51,442.053 271.389,438.212 271.651,438.081C277.766,435.023 278.521,431.242 278.83,427.348C279.081,424.194 279.142,420.987 280.672,417.927Z"/>
                                    <path d="M640.768,422.354C640.728,421.797 641.068,421.262 641.622,421.077C642.278,420.858 642.987,421.213 643.206,421.869L643.275,422.306C643.311,422.963 643.5,426.518 643.808,432.518C646.894,492.506 662.018,797.008 657.964,894.309C657.935,895 657.351,895.537 656.66,895.509C655.97,895.48 655.432,894.896 655.461,894.205C659.513,796.952 644.391,492.604 641.307,432.647C640.998,426.653 640.81,423.102 640.774,422.446L640.768,422.354Z"/>
                                    <path d="M229.683,866.438C229.194,865.949 229.194,865.156 229.683,864.667C230.172,864.178 230.966,864.178 231.454,864.667C238.075,871.287 251.216,876.562 268.629,880.506C309.849,889.841 374.816,891.456 435.247,883.902C435.933,883.817 436.56,884.304 436.646,884.99C436.731,885.676 436.244,886.302 435.558,886.388C374.813,893.981 309.509,892.333 268.076,882.949C250.066,878.87 236.53,873.285 229.683,866.438Z"/>
                                    <path d="M442.085,888.078C441.449,887.805 441.154,887.068 441.427,886.433C441.699,885.798 442.436,885.503 443.071,885.775C465.123,895.226 546.727,899.333 633.643,873.259C634.305,873.06 635.004,873.436 635.202,874.098C635.401,874.76 635.025,875.459 634.362,875.658C546.675,901.964 464.332,897.612 442.085,888.078Z"/>
                                    <path d="M243.291,405.742L233.272,550.016L230.467,764.758L233.272,890.864L267.114,900.215L295.168,905.113L358.081,907.181L405.027,906.799L442.578,905.275L442.578,910.608L485.562,915.196L534.035,913.669L583.653,907.944L620.676,902.982L644.34,899.547L664.95,893.059L669.912,888.097L668.004,824.738L668.004,718.25L665.714,638.861L666.019,567.564L660.676,485.808L653.195,420.618L615.968,423.69L561.197,429.034C561.197,429.034 281.173,436.775 243.291,405.742" style="fill:none;stroke:black;stroke-width:5.4px;"/>
                                    <path d="M336.841,558.842C336.841,558.842 402.108,588.613 417.375,589.377C417.375,589.377 439.62,889.231 442.578,910.967" style="fill:none;stroke:black;stroke-width:5.4px;"/>
                                </g>
                            </g>
                        </g>
                    </g>
                </g>
            </g>
            <g transform="matrix(0.028048,0.571664,-0.571664,0.028048,1831.659835,868.459655)">
                <g transform="matrix(2.354241,0,0,2.354241,325.038968,611.49372)">
                    <path d="M303.935,61.531C303.934,60.823 303.926,54.362 300.541,53.363C286.181,49.127 288.392,89.962 284.333,92.047C283.837,92.301 272.861,92.251 272.605,92.132C268.421,90.19 281.877,56.107 272.538,53.37C259.576,49.57 259.998,82.28 257.572,90.52C256.756,93.293 243.399,93.064 243.666,90.502C243.715,90.035 250.879,45.057 250.992,44.692C251.593,42.738 263.815,43.515 264.262,43.842C264.904,44.312 264.047,48.491 266.707,45.911C270.1,42.62 277.748,40.606 283.649,43.139C288.949,45.414 288.559,50.733 292.806,46.858C298.682,41.496 310.238,39.854 315.44,45.555C317.864,48.212 320.64,51.255 313.431,90.482C312.985,92.906 306.42,92.26 301.516,92.215C297.789,92.18 300.305,89.827 303.935,61.531Z" style="fill:rgb(254,254,254);"/>
                </g>
                <g transform="matrix(2.354241,0,0,2.354241,325.038968,611.49372)">
                    <path d="M31.534,94.12C24.437,92.448 23.744,93.497 18.721,88.276C10.687,79.927 14.616,78.172 14.886,77.95C19.728,73.96 23.153,69.353 24.833,73.35C29.157,83.637 39.907,82.6 44.084,77.155C54.882,63.076 34.131,57.494 33.627,57.244C31.505,56.191 14.844,47.923 25.818,28.684C39.127,5.351 70.443,19.701 66.017,25.15C60.919,31.428 59.199,34.206 57.147,31.837C51.166,24.932 42.528,28.407 39.923,31.856C32.396,41.822 48.092,46.359 51.301,47.896C70.258,56.982 61.991,76.538 55.01,85.06C47.775,93.892 33.547,94.092 31.534,94.12Z" style="fill:rgb(254,254,254);"/>
                </g>
                <g transform="matrix(2.354241,0,0,2.354241,325.038968,611.49372)">
                    <path d="M79.084,74.5C80.325,87.292 92.578,83.241 94.823,72.576C97.799,58.434 97.797,43.633 101.503,43.542C106.551,43.417 113.528,42.841 113.173,45.479C108.891,77.371 106.773,80.66 105.1,83.258C95.049,98.868 61.59,99.663 64.941,73.552C65.245,71.179 68.522,45.642 70.152,44.11C70.784,43.515 83.598,42.102 83.337,45.491C83.017,49.651 79.894,63.977 79.084,74.5Z" style="fill:rgb(254,254,254);"/>
                </g>
                <g transform="matrix(2.354241,0,0,2.354241,325.038968,611.49372)">
                    <path d="M165.894,78.56C170.717,48.561 171.05,44.652 171.903,43.986C172.258,43.709 185.648,41.921 185.003,45.608C184.052,51.043 189.498,41.679 197.511,41.95C206.416,42.252 202.117,48.154 201.71,49.562C200.558,53.543 200.444,55.85 197.4,54.808C181.133,49.239 180.124,77.564 178.131,89.442C177.57,92.785 174.602,92.44 165.534,92.211C163.063,92.149 164.829,85.167 165.894,78.56Z" style="fill:rgb(254,254,254);"/>
                </g>
                <g transform="matrix(2.354241,0,0,2.354241,325.038968,611.49372)">
                    <path d="M131.908,46.381C133.181,46.559 133.23,46.931 134.237,46.096C142.771,39.013 156.65,41.486 161.526,50.484C175.436,76.149 142.517,105.234 127.284,89.739C123.632,86.025 125.05,91.603 121.092,115.436C120.525,118.854 117.019,118.398 108.534,118.196C105.957,118.134 107.621,112.401 107.761,111.541C118.48,45.713 117.115,43.654 120.503,43.541C130.398,43.21 131.81,42.973 131.908,46.381ZM129.872,65.988L130.021,74.504L133.42,80.383L143.322,80.869L148.072,76.524L152.255,72.191L154.769,67.21L155.923,61.027L154.406,57.266L150.88,53.973L146.112,52.889L141.544,53.515L137.673,55.594L133.938,58.247L130.283,63.387L129.872,65.988Z" style="fill:rgb(254,254,254);"/>
                </g>
                <g transform="matrix(2.354241,0,0,2.354241,325.038968,611.49372)">
                    <path d="M319.92,72.513C320.168,70.685 321.868,58.142 327.954,50.895C331.622,46.526 337.314,43.723 340.612,42.917C366.657,36.557 369.802,60.597 367,68.69C365.695,72.46 335.593,67.786 334.678,71.55C332.429,80.805 342.682,87.783 350.436,79.439C353.217,76.447 353.736,76.32 363.572,78.326C366.432,78.909 360.859,84.983 360.438,85.441C352.064,94.567 321.689,103.426 319.92,72.513ZM337.446,60.929L349.353,61.017L357.051,60.899L359.576,60.03L358.508,56.503L356.481,52.293L339.647,51.467L336.512,54.68L335.575,58.604L337.446,60.929Z" style="fill:rgb(254,254,254);"/>
                </g>
                <g transform="matrix(2.354241,0,0,2.354241,325.038968,611.49372)">
                    <path d="M215.5,70.122C214.815,70.238 214.102,70.09 213.417,70.206C210.818,70.648 210.769,82.986 219.509,83.134C225.758,83.239 229.223,77.863 229.555,77.56C230.97,76.267 243.183,77.261 241.642,80.565C234.059,96.83 197.48,101.595 197.311,73.501C197.072,33.796 252.797,31.215 244.44,68.482C243.982,70.526 243.114,70.122 215.5,70.122ZM228.249,52.098L222.053,51.793L216.947,53.776L214.005,58.099L213.624,60.81L221.628,60.458L229.727,61.352L236.188,61.172L237.299,58.745L235.254,54.923L232.12,53.032L228.249,52.098Z" style="fill:rgb(254,254,254);"/>
                </g>
            </g>
        </g>
    </g>
</svg>
