<?xml version="1.0" encoding="UTF-8" standalone="no"?>
<!DOCTYPE svg PUBLIC "-//W3C//DTD SVG 1.1//EN" "http://www.w3.org/Graphics/SVG/1.1/DTD/svg11.dtd">
<svg width="100%" height="100%" viewBox="0 0 274 259" version="1.1" xmlns="http://www.w3.org/2000/svg" xmlns:xlink="http://www.w3.org/1999/xlink" xml:space="preserve" xmlns:serif="http://www.serif.com/" style="fill-rule:evenodd;clip-rule:evenodd;stroke-linecap:round;stroke-linejoin:round;stroke-miterlimit:1.5;">
    <g transform="matrix(1,0,0,1,-403.461002,-1699.809179)">
        <g>
            <path d="M420.077,1709.206L412.81,1771.802L409.749,1793.844L405.544,1855.294L405.544,1898.71L407.968,1924.036L412.81,1946.801C412.81,1946.801 470.806,1959.985 524.59,1950.916L527.016,1939.947L534.208,1883.662L539.974,1863.773L545.422,1889.6L555.812,1943.628L558.762,1953.128C558.762,1953.128 600.335,1966.545 674.405,1939.947L671.291,1870.601L669.51,1807.072L667.432,1757.794L657.635,1721.873L652.588,1701.893C652.588,1701.893 594.701,1722.17 516.033,1721.28C516.033,1721.28 435.211,1714.699 421.786,1709.206" style="fill:rgb(83,101,187);"/>
            <g>
                <path d="M534.208,1837.115C534.208,1837.115 516.574,1926.885 514.971,1948.259" style="fill:none;stroke:black;stroke-width:2.08px;"/>
                <path d="M420.077,1709.206C420.077,1709.206 394.313,1874.363 411.393,1946.801" style="fill:none;stroke:black;stroke-width:4.17px;"/>
                <path d="M522.961,1721.663C522.961,1721.663 517.172,1780.887 521.625,1820.073" style="fill:none;stroke:black;stroke-width:2.08px;"/>
                <path d="M519.942,1798.254L504.259,1790.684C504.259,1790.684 494.017,1771.536 503.368,1721.663" style="fill:none;stroke:black;stroke-width:2.08px;"/>
                <path d="M446.816,1715.429C446.816,1715.429 442.764,1737.694 420.077,1735.022" style="fill:none;stroke:black;stroke-width:2.08px;"/>
                <path d="M612.465,1715.429L616.472,1735.245C616.472,1735.245 636.51,1742.147 658.33,1733.018" style="fill:none;stroke:black;stroke-width:2.08px;"/>
                <path d="M647.865,1709.206C647.865,1709.206 665.12,1754.478 666.011,1942.793" style="fill:none;stroke:black;stroke-width:2.08px;"/>
                <path d="M411.816,1937.808C411.816,1937.808 456.702,1952.235 522.961,1941.548" style="fill:none;stroke:black;stroke-width:2.08px;"/>
                <path d="M558.762,1945.49C558.762,1945.49 615.225,1951.166 665.009,1933.533" style="fill:none;stroke:black;stroke-width:2.08px;"/>
                <path d="M411.393,1947.17C411.393,1947.17 446.082,1958.391 525.232,1951.712C525.232,1951.712 536.587,1866.372 538.257,1862.698" style="fill:none;stroke:black;stroke-width:4.17px;"/>
                <path d="M493.616,1813.215C493.616,1813.215 510.537,1821.676 531.911,1825.683C531.911,1825.683 555.512,1944.657 558.184,1953.834C558.184,1953.834 607.166,1963.457 674.405,1940.747C674.405,1940.747 667.725,1770.913 666.835,1759.78C666.835,1759.78 653.921,1706.791 652.585,1701.893C652.585,1701.893 545.137,1739.787 420.077,1709.206" style="fill:none;stroke:black;stroke-width:4.17px;"/>
            </g>
        </g>
    </g>
</svg>
