<?xml version="1.0" encoding="UTF-8" standalone="no"?>
<!DOCTYPE svg PUBLIC "-//W3C//DTD SVG 1.1//EN" "http://www.w3.org/Graphics/SVG/1.1/DTD/svg11.dtd">
<svg width="100%" height="100%" viewBox="0 0 279 269" version="1.1" xmlns="http://www.w3.org/2000/svg" xmlns:xlink="http://www.w3.org/1999/xlink" xml:space="preserve" xmlns:serif="http://www.serif.com/" style="fill-rule:evenodd;clip-rule:evenodd;stroke-linecap:round;stroke-linejoin:round;stroke-miterlimit:1.5;">
    <g transform="matrix(1,0,0,1,-287.009054,-1783.523914)">
        <g transform="matrix(1,0,0,1,-115.642111,83.714735)">
            <g>
                <path d="M420.077,1709.206L412.81,1771.802L409.749,1793.844L405.544,1855.294L405.544,1898.71L407.968,1924.036L410.439,1937.598C410.439,1937.598 470.509,1950.486 524.293,1941.417L527.016,1939.947L534.208,1883.662L539.974,1863.773L545.422,1889.6L555.812,1943.628C555.812,1943.628 599.38,1956.81 673.45,1930.211L671.291,1870.601L669.51,1807.072L667.432,1757.794L657.635,1721.873L652.588,1701.893C652.588,1701.893 594.701,1722.17 516.033,1721.28C516.033,1721.28 435.211,1714.699 421.786,1709.206" style="fill:rgb(67,108,168);"/>
                <clipPath id="_clip1">
                    <path d="M420.077,1709.206L412.81,1771.802L409.749,1793.844L405.544,1855.294L405.544,1898.71L407.968,1924.036L410.439,1937.598C410.439,1937.598 470.509,1950.486 524.293,1941.417L527.016,1939.947L534.208,1883.662L539.974,1863.773L545.422,1889.6L555.812,1943.628C555.812,1943.628 599.38,1956.81 673.45,1930.211L671.291,1870.601L669.51,1807.072L667.432,1757.794L657.635,1721.873L652.588,1701.893C652.588,1701.893 594.701,1722.17 516.033,1721.28C516.033,1721.28 435.211,1714.699 421.786,1709.206"/>
                </clipPath>
                <g clip-path="url(#_clip1)">
                    <g transform="matrix(0.015561,0,0,0.015561,636.324533,1780.248123)">
                        <g transform="matrix(1,0,0,1,-1331.25,-1368.75)">
                            <g transform="matrix(4.166667,0,0,4.166667,-2467.293738,-3625.25265)">
                                <g transform="matrix(2.279712,0,0,2.279712,587.524604,865.438005)">
                                    <path d="M114.872,228.832C100.847,268.683 98.007,270.845 101.544,271.096C104.448,271.302 188.9,271.857 196.497,271.907C211.09,272.002 230.626,278.422 251.853,235.676C262.908,213.413 263.372,213.472 264.471,213.291C264.877,213.224 280.232,213.179 280.591,213.289C282.75,213.943 281.008,215.08 264.251,254.392C263.061,257.184 250.007,287.807 249.115,289.176C248.533,290.07 248.205,289.96 17.5,289.962C16.512,289.962 6.747,290.732 7.398,288.488C7.466,288.251 15.538,268.95 15.757,268.655C19.481,263.65 50.853,272.926 60.092,262.13C63.142,258.567 63.169,258.483 84.704,196.571C90.123,180.99 91.168,179.243 90.107,176.66C84.794,163.729 39.707,59.924 35.268,47.58C27.314,25.455 2.936,29.404 2.239,27.636C1.904,26.786 2.08,14.535 2.044,11.499C1.976,5.738 4.739,7.747 10.5,7.747C85.95,7.754 86.283,7.623 86.661,8.369C87.245,9.519 87.477,9.977 86.346,24.492C85.841,30.974 75.285,24.555 74.323,34.477C73.62,41.725 75.577,41.459 98.701,90.403C99.75,92.624 111.725,117.971 111.845,118.15C113.01,119.886 113.247,117.58 120.776,93.587C128.097,70.256 134.697,56.722 123.533,55.243C122.169,55.062 114.204,57.258 115.362,53.466C119.51,39.885 119.962,38.095 122.486,38.081C130.146,38.036 176.724,38.755 203.488,38.923C204.351,38.928 206.368,38.841 205.599,41.524C203.316,49.496 202.406,54.859 199.469,55.294C184.578,57.498 175.986,53.126 165.293,83.426C134.763,169.935 134.312,170.211 135.361,172.561C136.854,175.905 153.79,213.846 154.798,214.002C156.069,214.199 155.885,213.336 181.435,150.473C185.176,141.269 228.155,35.521 228.189,35.409C230.757,26.851 223.251,20.09 217.506,20.065C210.705,20.035 210.283,21.19 208.63,19.397C208.246,18.98 207.211,2.819 209.365,2.158C210.171,1.91 273.85,2.104 278.501,2.044C283.63,1.978 281.94,4.405 281.962,9.5C281.975,12.511 282.715,19.73 280.424,20.193C278.679,20.547 267.521,20.551 257.625,28.649C250.453,34.518 251.493,35.43 237.734,69.594C163.559,253.769 164.469,255.248 161.549,255.787C159.107,256.239 159.096,255.7 130.517,255.039C127.679,254.973 127.526,254.301 118.983,235.284C117.872,232.81 116.35,228.836 116.24,228.797C115.81,228.643 115.301,228.985 114.872,228.832Z" style="fill:rgb(171,185,255);"/>
                                </g>
                            </g>
                        </g>
                    </g>
                </g>
                <g transform="matrix(1,0,0,1,115.642111,-83.714735)">
                    <path d="M294.323,2018.714L290.224,2023.614C290.224,2023.614 295.398,2037.293 294.797,2041.568L333.524,2045.415L354.524,2047.419C354.524,2047.419 405.287,2045.816 410.631,2043.144C410.631,2043.144 412.234,2028.45 413.837,2024.977L411.432,2018.714L408.761,2024.977L390.593,2027.689L349.448,2027.689L318.723,2025.511L300.555,2022.038L296.763,2022.305L294.323,2018.714Z" style="fill:rgb(67,108,168);"/>
                </g>
                <g transform="matrix(1,0,0,1,115.642111,-83.714735)">
                    <path d="M439.523,2021.103L436.094,2027.689C436.094,2027.689 441.957,2042.61 441.423,2047.419L473.216,2050.089L496.728,2050.089C496.728,2050.089 541.613,2045.966 561.117,2033.067C561.117,2033.067 562.022,2017.496 563.841,2013.221L557.808,2009.25L557.808,2012.601C557.808,2012.601 526.384,2026.347 481.766,2029.67C481.766,2029.67 448.636,2029.333 442.224,2027.689L439.523,2021.103Z" style="fill:rgb(67,108,168);"/>
                </g>
            </g>
            <g>
                <path d="M420.077,1709.206C420.077,1709.206 393.359,1862.561 410.439,1934.999" style="fill:none;stroke:black;stroke-width:4.17px;"/>
                <path d="M522.961,1721.663C522.961,1721.663 517.172,1780.887 521.625,1820.073" style="fill:none;stroke:black;stroke-width:2.08px;"/>
                <g transform="matrix(1,0,0,1,115.642111,-83.714735)">
                    <path d="M439.36,2021.733L436.094,2027.689C436.094,2027.689 440.844,2041.264 441.438,2046.935C441.438,2046.935 504.446,2060.039 561.963,2032.825C561.963,2032.825 562.505,2018.869 563.841,2013.525L557.808,2009.25" style="fill:none;stroke:black;stroke-width:4.17px;"/>
                </g>
                <path d="M519.942,1798.254L504.259,1790.684C504.259,1790.684 494.017,1771.536 503.368,1721.663" style="fill:none;stroke:black;stroke-width:2.08px;"/>
                <path d="M446.816,1715.429C446.816,1715.429 442.764,1737.694 420.077,1735.022" style="fill:none;stroke:black;stroke-width:2.08px;"/>
                <path d="M612.465,1715.429L616.472,1735.245C616.472,1735.245 636.51,1742.147 658.33,1733.018" style="fill:none;stroke:black;stroke-width:2.08px;"/>
                <path d="M410.439,1937.31C410.439,1937.31 445.127,1948.531 524.278,1941.852C524.278,1941.852 536.587,1866.372 538.257,1862.698" style="fill:none;stroke:black;stroke-width:4.17px;"/>
                <path d="M493.616,1813.215C493.616,1813.215 510.537,1821.676 531.911,1825.683C531.911,1825.683 554.558,1934.797 557.229,1943.974C557.229,1943.974 606.211,1953.597 673.45,1930.887C673.45,1930.887 667.725,1770.913 666.835,1759.78C666.835,1759.78 653.921,1706.791 652.585,1701.893C652.585,1701.893 545.137,1739.787 420.077,1709.206" style="fill:none;stroke:black;stroke-width:4.17px;"/>
                <g transform="matrix(1,0,0,1,115.642111,-83.714735)">
                    <path d="M409.639,2019.449L413.81,2024.595C413.81,2024.595 411.472,2034.623 411.472,2042.634C411.472,2042.634 382.193,2051.579 304.434,2043.67C301.301,2043.351 298.089,2043.005 294.797,2042.63C294.797,2042.63 293.938,2031.182 290.224,2023.761L294.797,2018.714" style="fill:none;stroke:black;stroke-width:4.17px;"/>
                </g>
            </g>
        </g>
    </g>
</svg>
