<?xml version="1.0" encoding="UTF-8" standalone="no"?>
<!DOCTYPE svg PUBLIC "-//W3C//DTD SVG 1.1//EN" "http://www.w3.org/Graphics/SVG/1.1/DTD/svg11.dtd">
<svg width="100%" height="100%" viewBox="0 0 279 269" version="1.1" xmlns="http://www.w3.org/2000/svg" xmlns:xlink="http://www.w3.org/1999/xlink" xml:space="preserve" xmlns:serif="http://www.serif.com/" style="fill-rule:evenodd;clip-rule:evenodd;stroke-linecap:round;stroke-linejoin:round;stroke-miterlimit:1.5;">
    <g transform="matrix(1,0,0,1,-287.009054,-1783.523914)">
        <g transform="matrix(1,0,0,1,-115.642111,83.714735)">
            <g>
                <path d="M420.077,1709.206L412.81,1771.802L409.749,1793.844L405.544,1855.294L405.544,1898.71L407.968,1924.036L410.439,1937.598C410.439,1937.598 470.509,1950.486 524.293,1941.417L527.016,1939.947L534.208,1883.662L539.974,1863.773L545.422,1889.6L555.812,1943.628C555.812,1943.628 599.38,1956.81 673.45,1930.211L671.291,1870.601L669.51,1807.072L667.432,1757.794L657.635,1721.873L652.588,1701.893C652.588,1701.893 594.701,1722.17 516.033,1721.28C516.033,1721.28 435.211,1714.699 421.786,1709.206" style="fill:rgb(69,122,200);"/>
                <g transform="matrix(1,0,0,1,115.642111,-83.714735)">
                    <path d="M294.323,2018.714L290.224,2023.614C290.224,2023.614 295.398,2037.293 294.797,2041.568L333.524,2045.415L354.524,2047.419C354.524,2047.419 405.287,2045.816 410.631,2043.144C410.631,2043.144 412.234,2028.45 413.837,2024.977L411.432,2018.714L408.761,2024.977L390.593,2027.689L349.448,2027.689L318.723,2025.511L300.555,2022.038L296.763,2022.305L294.323,2018.714Z" style="fill:rgb(143,182,238);"/>
                </g>
                <g transform="matrix(1,0,0,1,115.642111,-83.714735)">
                    <path d="M439.523,2021.103L436.094,2027.689C436.094,2027.689 441.957,2042.61 441.423,2047.419L473.216,2050.089L496.728,2050.089C496.728,2050.089 541.613,2045.966 561.117,2033.067C561.117,2033.067 562.022,2017.496 563.841,2013.221L557.808,2009.25L557.808,2012.601C557.808,2012.601 526.384,2026.347 481.766,2029.67C481.766,2029.67 448.636,2029.333 442.224,2027.689L439.523,2021.103Z" style="fill:rgb(143,182,238);"/>
                </g>
            </g>
            <g>
                <path d="M420.077,1709.206C420.077,1709.206 393.359,1862.561 410.439,1934.999" style="fill:none;stroke:black;stroke-width:4.17px;"/>
                <path d="M522.961,1721.663C522.961,1721.663 517.172,1780.887 521.625,1820.073" style="fill:none;stroke:black;stroke-width:2.08px;"/>
                <g transform="matrix(1,0,0,1,115.642111,-83.714735)">
                    <path d="M439.36,2021.733L436.094,2027.689C436.094,2027.689 440.844,2041.264 441.438,2046.935C441.438,2046.935 504.446,2060.039 561.963,2032.825C561.963,2032.825 562.505,2018.869 563.841,2013.525L557.808,2009.25" style="fill:none;stroke:black;stroke-width:4.17px;"/>
                </g>
                <path d="M519.942,1798.254L504.259,1790.684C504.259,1790.684 494.017,1771.536 503.368,1721.663" style="fill:none;stroke:black;stroke-width:2.08px;"/>
                <path d="M446.816,1715.429C446.816,1715.429 442.764,1737.694 420.077,1735.022" style="fill:none;stroke:black;stroke-width:2.08px;"/>
                <path d="M612.465,1715.429L616.472,1735.245C616.472,1735.245 636.51,1742.147 658.33,1733.018" style="fill:none;stroke:black;stroke-width:2.08px;"/>
                <path d="M410.439,1937.31C410.439,1937.31 445.127,1948.531 524.278,1941.852C524.278,1941.852 536.587,1866.372 538.257,1862.698" style="fill:none;stroke:black;stroke-width:4.17px;"/>
                <path d="M493.616,1813.215C493.616,1813.215 510.537,1821.676 531.911,1825.683C531.911,1825.683 554.558,1934.797 557.229,1943.974C557.229,1943.974 606.211,1953.597 673.45,1930.887C673.45,1930.887 667.725,1770.913 666.835,1759.78C666.835,1759.78 653.921,1706.791 652.585,1701.893C652.585,1701.893 545.137,1739.787 420.077,1709.206" style="fill:none;stroke:black;stroke-width:4.17px;"/>
                <g transform="matrix(1,0,0,1,115.642111,-83.714735)">
                    <path d="M409.639,2019.449L413.81,2024.595C413.81,2024.595 411.472,2034.623 411.472,2042.634C411.472,2042.634 382.193,2051.579 304.434,2043.67C301.301,2043.351 298.089,2043.005 294.797,2042.63C294.797,2042.63 293.938,2031.182 290.224,2023.761L294.797,2018.714" style="fill:none;stroke:black;stroke-width:4.17px;"/>
                </g>
            </g>
        </g>
    </g>
</svg>
