<?xml version="1.0" encoding="UTF-8" standalone="no"?>
<svg width="100%" height="100%" viewBox="0 0 274 259" version="1.1" xmlns="http://www.w3.org/2000/svg" xmlns:xlink="http://www.w3.org/1999/xlink" xml:space="preserve" xmlns:serif="http://www.serif.com/" style="fill-rule:evenodd;clip-rule:evenodd;stroke-linecap:round;stroke-linejoin:round;stroke-miterlimit:1.5;">
    <g transform="matrix(1,0,0,1,-287.818891,-1783.523914)">
        <g transform="matrix(1,0,0,1,-115.642111,83.714735)">
            <path d="M420.077,1709.206L412.81,1771.802L409.749,1793.844L405.544,1855.294L405.544,1898.71L407.968,1924.036L412.81,1946.801C412.81,1946.801 470.806,1959.985 524.59,1950.916L527.016,1939.947L534.208,1883.662L539.974,1863.773L545.422,1889.6L555.812,1943.628L558.762,1953.128C558.762,1953.128 600.335,1966.545 674.405,1939.947L671.291,1870.601L669.51,1807.072L667.432,1757.794L657.635,1721.873L652.588,1701.893C652.588,1701.893 594.701,1722.17 516.033,1721.28C516.033,1721.28 435.211,1714.699 421.786,1709.206" style="fill:rgb(83,101,187);"/>
            <clipPath id="_clip1">
                <path d="M420.077,1709.206L412.81,1771.802L409.749,1793.844L405.544,1855.294L405.544,1898.71L407.968,1924.036L412.81,1946.801C412.81,1946.801 470.806,1959.985 524.59,1950.916L527.016,1939.947L534.208,1883.662L539.974,1863.773L545.422,1889.6L555.812,1943.628L558.762,1953.128C558.762,1953.128 600.335,1966.545 674.405,1939.947L671.291,1870.601L669.51,1807.072L667.432,1757.794L657.635,1721.873L652.588,1701.893C652.588,1701.893 594.701,1722.17 516.033,1721.28C516.033,1721.28 435.211,1714.699 421.786,1709.206"/>
            </clipPath>
            <g clip-path="url(#_clip1)">
                <g transform="matrix(0.001482,0.025913,-0.025913,0.001482,611.88568,1888.301013)">
                    <g transform="matrix(1,0,0,1,-3643.75,-5168.75)">
                        <g id="_5a7f5f47abc3d121aba71181.png" serif:id="5a7f5f47abc3d121aba71181.png" transform="matrix(9.809338,0,0,9.809338,1487.916371,3540.618292)">
                            <path d="M68.5,2.034L374.5,2.034C380.228,1.997 377.965,4.825 377.966,10.5C377.971,125.615 377.931,125.602 378.034,129.495C378.115,132.53 376.364,131.966 345.5,131.966C7.396,131.966 7.4,131.958 4.505,132.034C2.224,132.095 2.044,130.955 2.035,129.512C1.968,119.35 1.206,3.811 2.483,2.483C2.979,1.967 3.134,2.034 68.5,2.034Z" style="fill:rgb(227,36,31);"/>
                            <path d="M131.908,46.381C133.181,46.559 133.23,46.931 134.237,46.096C142.771,39.013 156.65,41.486 161.526,50.484C175.436,76.149 142.517,105.234 127.284,89.739C123.632,86.025 125.05,91.603 121.092,115.436C120.525,118.854 117.019,118.398 108.534,118.196C105.957,118.134 107.621,112.401 107.761,111.541C118.48,45.713 117.115,43.654 120.503,43.541C130.398,43.21 131.81,42.973 131.908,46.381Z" style="fill:rgb(254,254,254);"/>
                            <path d="M303.935,61.531C303.934,60.823 303.926,54.362 300.541,53.363C286.181,49.127 288.392,89.962 284.333,92.047C283.837,92.301 272.861,92.251 272.605,92.132C268.421,90.19 281.877,56.107 272.538,53.37C259.576,49.57 259.998,82.28 257.572,90.52C256.756,93.293 243.399,93.064 243.666,90.502C243.715,90.035 250.879,45.057 250.992,44.692C251.593,42.738 263.815,43.515 264.262,43.842C264.904,44.312 264.047,48.491 266.707,45.911C270.1,42.62 277.748,40.606 283.649,43.139C288.949,45.414 288.559,50.733 292.806,46.858C298.682,41.496 310.238,39.854 315.44,45.555C317.864,48.212 320.64,51.255 313.431,90.482C312.985,92.906 306.42,92.26 301.516,92.215C297.789,92.18 300.305,89.827 303.935,61.531Z" style="fill:rgb(254,254,254);"/>
                            <path d="M31.534,94.12C24.437,92.448 23.744,93.497 18.721,88.276C10.687,79.927 14.616,78.172 14.886,77.95C19.728,73.96 23.153,69.353 24.833,73.35C29.157,83.637 39.907,82.6 44.084,77.155C54.882,63.076 34.131,57.494 33.627,57.244C31.505,56.191 14.844,47.923 25.818,28.684C39.127,5.351 70.443,19.701 66.017,25.15C60.919,31.428 59.199,34.206 57.147,31.837C51.166,24.932 42.528,28.407 39.923,31.856C32.396,41.822 48.092,46.359 51.301,47.896C70.258,56.982 61.991,76.538 55.01,85.06C47.775,93.892 33.547,94.092 31.534,94.12Z" style="fill:rgb(254,254,254);"/>
                            <path d="M319.92,72.513C320.168,70.685 321.868,58.142 327.954,50.895C331.622,46.526 337.314,43.723 340.612,42.917C366.657,36.557 369.802,60.597 367,68.69C365.695,72.46 335.593,67.786 334.678,71.55C332.429,80.805 342.682,87.783 350.436,79.439C353.217,76.447 353.736,76.32 363.572,78.326C366.432,78.909 360.859,84.983 360.438,85.441C352.064,94.567 321.689,103.426 319.92,72.513Z" style="fill:rgb(254,254,254);"/>
                            <path d="M215.5,70.122C214.815,70.238 214.102,70.09 213.417,70.206C210.818,70.648 210.769,82.986 219.509,83.134C225.758,83.239 229.223,77.863 229.555,77.56C230.97,76.267 243.183,77.261 241.642,80.565C234.059,96.83 197.48,101.595 197.311,73.501C197.072,33.796 252.797,31.215 244.44,68.482C243.982,70.526 243.114,70.122 215.5,70.122Z" style="fill:rgb(254,254,254);"/>
                            <path d="M79.084,74.5C80.325,87.292 92.578,83.241 94.823,72.576C97.799,58.434 97.797,43.633 101.503,43.542C106.551,43.417 113.528,42.841 113.173,45.479C108.891,77.371 106.773,80.66 105.1,83.258C95.049,98.868 61.59,99.663 64.941,73.552C65.245,71.179 68.522,45.642 70.152,44.11C70.784,43.515 83.598,42.102 83.337,45.491C83.017,49.651 79.894,63.977 79.084,74.5Z" style="fill:rgb(254,254,254);"/>
                            <path d="M165.894,78.56C170.717,48.561 171.05,44.652 171.903,43.986C172.258,43.709 185.648,41.921 185.003,45.608C184.052,51.043 189.498,41.679 197.511,41.95C206.416,42.252 202.117,48.154 201.71,49.562C200.558,53.543 200.444,55.85 197.4,54.808C181.133,49.239 180.124,77.564 178.131,89.442C177.57,92.785 174.602,92.44 165.534,92.211C163.063,92.149 164.829,85.167 165.894,78.56Z" style="fill:rgb(254,254,254);"/>
                            <path d="M127.087,69.483C130.477,49.759 145.369,53.163 148.499,58.5C158.395,75.371 128.239,94.607 127.087,69.483Z" style="fill:rgb(227,36,31);"/>
                            <path d="M217.342,55.359C225.06,47.705 231.811,53.354 232.381,59.506C232.506,60.858 232.127,62.303 215.516,61.444C212.97,61.312 217.041,55.769 217.342,55.359Z" style="fill:rgb(227,34,29);"/>
                            <path d="M338.382,57.427C346.774,45.716 355.013,54.425 354.939,59.5C354.92,60.824 354.542,61.939 338.501,61.491C335.7,61.412 337.402,60.017 338.382,57.427Z" style="fill:rgb(227,34,29);"/>
                        </g>
                    </g>
                </g>
            </g>
            <g>
                <path d="M534.208,1837.115C534.208,1837.115 516.574,1926.885 514.971,1948.259" style="fill:none;stroke:black;stroke-width:2.08px;"/>
                <path d="M420.077,1709.206C420.077,1709.206 394.313,1874.363 411.393,1946.801" style="fill:none;stroke:black;stroke-width:4.17px;"/>
                <path d="M522.961,1721.663C522.961,1721.663 517.172,1780.887 521.625,1820.073" style="fill:none;stroke:black;stroke-width:2.08px;"/>
                <path d="M519.942,1798.254L504.259,1790.684C504.259,1790.684 494.017,1771.536 503.368,1721.663" style="fill:none;stroke:black;stroke-width:2.08px;"/>
                <path d="M446.816,1715.429C446.816,1715.429 442.764,1737.694 420.077,1735.022" style="fill:none;stroke:black;stroke-width:2.08px;"/>
                <path d="M612.465,1715.429L616.472,1735.245C616.472,1735.245 636.51,1742.147 658.33,1733.018" style="fill:none;stroke:black;stroke-width:2.08px;"/>
                <path d="M647.865,1709.206C647.865,1709.206 665.12,1754.478 666.011,1942.793" style="fill:none;stroke:black;stroke-width:2.08px;"/>
                <path d="M411.816,1937.808C411.816,1937.808 456.702,1952.235 522.961,1941.548" style="fill:none;stroke:black;stroke-width:2.08px;"/>
                <path d="M558.762,1945.49C558.762,1945.49 615.225,1951.166 665.009,1933.533" style="fill:none;stroke:black;stroke-width:2.08px;"/>
                <path d="M411.393,1947.17C411.393,1947.17 446.082,1958.391 525.232,1951.712C525.232,1951.712 536.587,1866.372 538.257,1862.698" style="fill:none;stroke:black;stroke-width:4.17px;"/>
                <path d="M493.616,1813.215C493.616,1813.215 510.537,1821.676 531.911,1825.683C531.911,1825.683 555.512,1944.657 558.184,1953.834C558.184,1953.834 607.166,1963.457 674.405,1940.747C674.405,1940.747 667.725,1770.913 666.835,1759.78C666.835,1759.78 653.921,1706.791 652.585,1701.893C652.585,1701.893 545.137,1739.787 420.077,1709.206" style="fill:none;stroke:black;stroke-width:4.17px;"/>
            </g>
        </g>
    </g>
</svg>
