<?xml version="1.0" encoding="UTF-8" standalone="no"?>
<!DOCTYPE svg PUBLIC "-//W3C//DTD SVG 1.1//EN" "http://www.w3.org/Graphics/SVG/1.1/DTD/svg11.dtd">
<svg width="100%" height="100%" viewBox="0 0 299 249" version="1.1" xmlns="http://www.w3.org/2000/svg" xmlns:xlink="http://www.w3.org/1999/xlink" xml:space="preserve" xmlns:serif="http://www.serif.com/" style="fill-rule:evenodd;clip-rule:evenodd;stroke-linecap:round;stroke-linejoin:round;stroke-miterlimit:1.5;">
    <g transform="matrix(1,0,0,1,-273.23667,-1783.523914)">
        <g transform="matrix(1,0,0,1,-115.642111,83.714735)">
            <g>
                <path d="M420.077,1709.206L412.81,1771.802L409.749,1793.844L406.547,1803.642L399.649,1813.339L392.752,1833.642L390.962,1849.534L394.841,1849.534L392.752,1868.406L392.752,1897.85L399.649,1912.389L407.29,1916.951L407.968,1924.036L410.439,1937.598C410.439,1937.598 470.509,1950.486 524.293,1941.417L527.016,1939.947L534.208,1883.662L539.974,1863.773L545.422,1889.6L555.812,1943.628C555.812,1943.628 599.38,1956.81 673.45,1930.211L672.726,1910.215L681.978,1902.068L685.677,1885.498L685.677,1862.642L678.954,1839.533L682.106,1836.984C682.106,1836.984 679.813,1821.174 678.239,1817.436C676.14,1812.451 668.013,1796.312 668.013,1796.312L667.432,1757.794L657.635,1721.873L652.588,1701.893C652.588,1701.893 594.701,1722.17 516.033,1721.28C516.033,1721.28 435.211,1714.699 421.786,1709.206" style="fill:rgb(88,133,15);"/>
            </g>
            <g>
                <path d="M420.077,1709.206C420.077,1709.206 393.359,1862.561 410.439,1934.999" style="fill:none;stroke:black;stroke-width:4.17px;"/>
                <path d="M522.961,1721.663C522.961,1721.663 518.914,1763.07 520.191,1799.546C520.441,1806.694 520.896,1813.652 521.625,1820.073" style="fill:none;stroke:black;stroke-width:2.08px;"/>
                <g transform="matrix(1,0,0,1,115.642111,-83.714735)">
                    <path d="M286.898,1907.66C286.898,1907.66 262.407,1986.175 290.905,2000.665" style="fill:none;stroke:black;stroke-width:4.17px;"/>
                </g>
                <g transform="matrix(1,0,0,1,115.642111,-83.714735)">
                    <path d="M290.905,1887.357C290.905,1887.357 275.765,1905.667 275.32,1933.249L278.882,1933.249" style="fill:none;stroke:black;stroke-width:4.17px;"/>
                </g>
                <g transform="matrix(1,0,0,1,115.642111,-83.714735)">
                    <path d="M552.532,1880.074C551.961,1879.504 514.079,1884.235 510.185,1888.356C510.185,1888.356 519.488,1990.646 523.496,2000.665C523.496,2000.665 556.052,1996.658 557.808,1993.318C557.808,1993.318 581.558,1984.42 562.856,1925.713" style="fill:none;stroke:black;stroke-width:4.17px;"/>
                </g>
                <g transform="matrix(1,0,0,1,115.642111,-83.714735)">
                    <path d="M514.797,1892.719C514.797,1892.719 525.992,1919.339 527.477,1929.432C527.477,1929.432 564.033,1925.318 565.814,1921.756C565.814,1921.756 570.343,1912.896 552.532,1880.074" style="fill:none;stroke:black;stroke-width:4.17px;"/>
                </g>
                <g transform="matrix(1,0,0,1,115.642111,-83.714735)">
                    <path d="M529.767,1933.249C529.767,1933.249 546.391,1977.566 532.735,1994.487" style="fill:none;stroke:black;stroke-width:4.17px;"/>
                </g>
                <path d="M519.942,1798.254L504.259,1790.684C504.259,1790.684 494.017,1771.536 503.368,1721.663" style="fill:none;stroke:black;stroke-width:2.08px;"/>
                <path d="M446.816,1715.429C446.816,1715.429 442.764,1737.694 420.077,1735.022" style="fill:none;stroke:black;stroke-width:2.08px;"/>
                <path d="M612.465,1715.429L616.472,1735.245C616.472,1735.245 636.51,1742.147 658.33,1733.018" style="fill:none;stroke:black;stroke-width:2.08px;"/>
                <path d="M410.439,1937.31C410.439,1937.31 445.127,1948.531 524.278,1941.852C524.278,1941.852 536.587,1866.372 538.257,1862.698" style="fill:none;stroke:black;stroke-width:4.17px;"/>
                <path d="M668.449,1796.359C667.691,1777.184 667.08,1762.844 666.835,1759.78C666.835,1759.78 653.921,1706.791 652.585,1701.893C652.585,1701.893 545.137,1739.787 420.077,1709.206M493.616,1813.215C493.616,1813.215 510.537,1821.676 531.911,1825.683C531.911,1825.683 554.558,1934.797 557.229,1943.974C557.229,1943.974 606.211,1953.597 673.45,1930.887C673.45,1930.887 673.171,1923.07 672.725,1910.772" style="fill:none;stroke:black;stroke-width:4.17px;"/>
            </g>
        </g>
    </g>
</svg>
