<?xml version="1.0" encoding="UTF-8" standalone="no"?>
<svg width="100%" height="100%" viewBox="0 0 273 249" version="1.1" xmlns="http://www.w3.org/2000/svg" xmlns:xlink="http://www.w3.org/1999/xlink" xml:space="preserve" xmlns:serif="http://www.serif.com/" style="fill-rule:evenodd;clip-rule:evenodd;stroke-linecap:round;stroke-linejoin:round;stroke-miterlimit:1.5;">
    <g transform="matrix(1,0,0,1,-287.009054,-1783.523914)">
        <g transform="matrix(1,0,0,1,-115.642111,83.714735)">
            <g>
                <path d="M420.077,1709.206L412.81,1771.802L409.749,1793.844L405.544,1855.294L405.544,1898.71L407.968,1924.036L410.439,1937.598C410.439,1937.598 470.509,1950.486 524.293,1941.417L527.016,1939.947L534.208,1883.662L539.974,1863.773L545.422,1889.6L555.812,1943.628C555.812,1943.628 599.38,1956.81 673.45,1930.211L671.291,1870.601L669.51,1807.072L667.432,1757.794L657.635,1721.873L652.588,1701.893C652.588,1701.893 594.701,1722.17 516.033,1721.28C516.033,1721.28 435.211,1714.699 421.786,1709.206" style="fill:rgb(55,68,86);"/>
                <g transform="matrix(1,0,0,1,115.642111,-83.714735)">
                    <path d="M392.557,1805.437C392.557,1805.437 374.331,1863.61 374.809,1867.542L376.381,1869.988L377.886,1871.256L379.391,1869.988L380.895,1866.431L384.452,1852.888L388.966,1840.714L394.301,1822.657L397.447,1812.945L399.478,1808.567L401.141,1817.596L404.698,1841.945L407.642,1855.761L410.032,1871.256L413.042,1873.197L415.806,1873.197L415.806,1871.256L414.41,1861.37L410.443,1835.242L407.642,1819.374L405.245,1805.437L392.557,1805.437Z" style="fill:white;"/>
                </g>
            </g>
            <g>
                <path d="M420.077,1709.206C420.077,1709.206 393.359,1862.561 410.439,1934.999" style="fill:none;stroke:black;stroke-width:4.17px;"/>
                <g transform="matrix(1,0,0,1,115.642111,-83.714735)">
                    <path d="M393.244,1805.437C393.244,1805.437 373.948,1861.841 374.839,1868.372C374.839,1868.372 377.511,1873.715 379.589,1869.856C379.589,1869.856 397.697,1810.484 399.478,1807.515" style="fill:none;stroke:black;stroke-width:2.08px;"/>
                </g>
                <g transform="matrix(1,0,0,1,115.642111,-83.714735)">
                    <path d="M399.478,1807.515C399.478,1807.515 408.087,1865.531 410.165,1871.256C410.165,1871.256 414.321,1875.624 415.806,1871.256C415.806,1871.256 405.416,1806.921 405.712,1805.437" style="fill:none;stroke:black;stroke-width:2.08px;"/>
                </g>
                <path d="M446.816,1715.429C446.816,1715.429 442.764,1737.694 420.077,1735.022" style="fill:none;stroke:black;stroke-width:2.08px;"/>
                <path d="M612.465,1715.429L616.472,1735.245C616.472,1735.245 636.51,1742.147 658.33,1733.018" style="fill:none;stroke:black;stroke-width:2.08px;"/>
                <path d="M410.439,1937.31C410.439,1937.31 445.127,1948.531 524.278,1941.852C524.278,1941.852 536.587,1866.372 538.257,1862.698" style="fill:none;stroke:black;stroke-width:4.17px;"/>
                <path d="M493.616,1813.215C493.616,1813.215 510.537,1821.676 531.911,1825.683C531.911,1825.683 554.558,1934.797 557.229,1943.974C557.229,1943.974 606.211,1953.597 673.45,1930.887C673.45,1930.887 667.725,1770.913 666.835,1759.78C666.835,1759.78 653.921,1706.791 652.585,1701.893C652.585,1701.893 545.137,1739.787 420.077,1709.206" style="fill:none;stroke:black;stroke-width:4.17px;"/>
            </g>
        </g>
    </g>
</svg>
