<?xml version="1.0" encoding="UTF-8" standalone="no"?>
<svg width="100%" height="100%" viewBox="0 0 345 518" version="1.1" xmlns="http://www.w3.org/2000/svg" xmlns:xlink="http://www.w3.org/1999/xlink" xml:space="preserve" xmlns:serif="http://www.serif.com/" style="fill-rule:evenodd;clip-rule:evenodd;stroke-linecap:round;stroke-linejoin:round;stroke-miterlimit:1.5;">
    <g transform="matrix(1,0,0,1,-439.190249,-1041.790119)">
        <g>
            <path d="M575.857,1424.297L579.063,1437.336L579.704,1450.49L576.071,1471.534C576.071,1471.534 551.448,1487.329 540.847,1491.433C540.847,1491.433 520.841,1498.444 517.421,1499.812C517.421,1499.812 493.461,1514.261 491.933,1518.92C491.933,1518.92 483.564,1504.77 484.59,1498.615L482.538,1499.983L480.315,1508.19C480.315,1508.19 473.38,1520.378 482.538,1548.2C482.538,1548.2 475.015,1545.206 472.108,1540.76C472.108,1540.76 455.693,1527.765 454.838,1491.343C454.838,1491.343 456.719,1437.481 456.89,1431.325C456.89,1431.325 456.035,1373.53 454.838,1366.861C454.838,1366.861 447.656,1315.906 447.485,1311.631C447.485,1311.631 441.863,1245.288 442.537,1240.157C442.537,1240.157 442.557,1229.555 442.547,1223.741C442.547,1223.741 447.143,1179.562 448.511,1176.516L441.274,1174.153C441.274,1174.153 446.823,1145.769 455.532,1133.115C455.532,1133.115 473.134,1097.036 497.586,1085.067L517.592,1075.491C517.592,1075.491 532.081,1064.548 543.987,1059.76C555.894,1054.972 577.268,1045.599 597.103,1043.873C616.938,1042.148 633.011,1044.371 642.245,1046.594C651.478,1048.817 683.796,1058.905 691.148,1065.574C698.501,1072.242 721.243,1083.87 725.176,1091.051C729.109,1098.233 743.301,1119.949 746.379,1130.893C749.457,1141.836 759.887,1171.931 761.426,1183.9C762.965,1195.869 766.727,1235.027 766.385,1243.063C766.043,1251.1 766.556,1297.097 766.898,1306.33C767.24,1315.564 767.753,1362.073 768.779,1369.426C769.805,1376.779 774.816,1416.449 775.474,1423.972C776.131,1431.496 781.478,1454.067 781.455,1460.736C781.432,1467.404 783.024,1502.381 775.474,1512.594C775.474,1512.594 729.451,1483.991 725.005,1482.794C720.559,1481.597 722.85,1483.768 722.85,1483.768L719.841,1490.198C719.841,1490.198 698.775,1532.193 679.076,1540.948C679.076,1540.948 691.525,1520.429 692.072,1515.778C692.072,1515.778 688.925,1518.924 682.907,1523.302C676.888,1527.679 650.76,1549.849 630.241,1556.821L631.062,1552.849C631.062,1552.849 642.552,1523.028 644.331,1515.778C646.109,1508.528 653.77,1470.773 654.864,1464.07C654.864,1464.07 660.062,1424.81 660.472,1422.074C660.472,1422.074 663.345,1380.216 663.071,1376.249C663.071,1376.249 663.299,1311.34 663.117,1306.233C663.117,1306.233 661.84,1234.006 661.658,1230.176C661.658,1230.176 658.74,1181.295 657.645,1178.742C657.645,1178.742 625.763,1177.446 623.721,1176.516C623.721,1176.516 621.094,1146.987 620.219,1144.507C620.219,1144.507 615.372,1171.463 614.221,1176.516C614.221,1176.516 546.97,1179.78 536.756,1176.516C536.756,1176.516 539.691,1140.713 543.987,1126.997C543.987,1126.997 536.611,1138.67 534.422,1146.987C532.233,1155.304 529.023,1173.798 529.023,1176.516C529.023,1176.516 490.648,1176.57 484.811,1176.516C478.975,1176.462 467.235,1176.516 467.235,1176.516L465.551,1184.487C465.551,1184.487 463.8,1202.822 465.843,1209.292C465.843,1209.292 440.281,1244.431 461.251,1275.232C461.251,1275.232 457.641,1302.399 470.679,1323.346C470.679,1323.346 476.749,1349.401 475.382,1358.634C475.382,1358.634 479.998,1372.142 500.346,1373.852C500.346,1373.852 502.056,1383.599 504.108,1387.019C504.108,1387.019 516.591,1395.91 518.813,1402.579C518.813,1402.579 525.995,1423.782 533.69,1428.57C533.69,1428.57 546.514,1433.358 560.022,1429.425L575.857,1424.297Z" style="fill:rgb(253,229,129);"/>
            <g>
                <g transform="matrix(1,0,0,1,-646.562724,-2.003812)">
                    <path d="M1422.036,1515.349C1422.036,1515.349 1394.388,1495.769 1371.436,1485.186M1113.568,1178.52C1111.402,1188.944 1110.552,1200.203 1111.985,1211.878C1111.985,1211.878 1087.011,1243.95 1107.792,1277.792C1107.792,1277.792 1103.71,1301.244 1117.625,1326.18C1117.625,1326.18 1122.041,1346.797 1121.774,1360.958C1121.774,1360.958 1125.781,1375.385 1147.422,1375.385C1147.422,1375.385 1148.491,1388.209 1152.499,1390.614C1152.499,1390.614 1161.399,1398.896 1166.033,1405.843C1166.033,1405.843 1174.35,1429.354 1183.062,1431.492C1183.062,1431.492 1199.789,1437.37 1222.499,1425.614C1222.499,1425.614 1230.87,1440.59 1222.766,1473.438C1222.766,1473.438 1194.944,1492.704 1166.033,1501.254C1166.033,1501.254 1145.738,1510.284 1138.495,1520.924" style="fill:none;stroke:black;stroke-width:4.17px;"/>
                </g>
                <path d="M491.933,1518.92C491.933,1518.92 483.789,1507.36 484.934,1493.238C484.934,1493.238 471.575,1517.589 483.025,1548.2C483.025,1548.2 450.964,1536.673 455.545,1479.879C455.545,1479.879 458.788,1383.801 452.968,1352.298C452.968,1352.298 438.369,1254.765 443.713,1225.376C443.713,1225.376 444.284,1191.778 448.769,1176.516" style="fill:none;stroke:black;stroke-width:4.17px;"/>
                <path d="M441.274,1173.644C441.274,1173.644 464.429,1179.982 529.441,1176.516C529.441,1176.516 531.519,1143.364 549.034,1111.6C549.034,1111.6 536.269,1154.452 536.269,1176.516C536.269,1176.516 576.693,1179.685 614.221,1176.516C614.221,1176.516 620.874,1135.942 619.687,1131.192C619.687,1131.192 623.843,1162.764 622.359,1176.516C622.359,1176.516 651.154,1179.092 671.044,1176.516C671.044,1176.516 672.825,1132.677 646.998,1105.069" style="fill:none;stroke:black;stroke-width:4.17px;"/>
                <path d="M441.274,1173.644C441.274,1173.644 454.632,1078.054 543.987,1070.93" style="fill:none;stroke:black;stroke-width:4.17px;"/>
                <path d="M513.458,1077.561C513.458,1077.561 618.372,993.449 724.887,1091.042C724.887,1091.042 763.559,1139.416 765.753,1229.379C765.753,1229.379 766.894,1329.784 768.868,1369.326C768.868,1369.326 775.117,1437.189 780.461,1458.028C780.461,1458.028 784.762,1492.914 775.474,1513.524" style="fill:none;stroke:black;stroke-width:4.17px;"/>
                <path d="M744.812,1382.227C744.812,1382.227 741.997,1499.712 676.873,1542.126C676.873,1542.126 693.906,1520.323 695.242,1508.181C695.242,1508.181 678.877,1537.785 629.116,1556.821C629.116,1556.821 657.281,1506.225 662.624,1385.885C662.624,1385.885 664.361,1212.604 656.88,1177.925" style="fill:none;stroke:black;stroke-width:4.17px;"/>
                <path d="M686.964,1186.773C686.964,1186.773 714.946,1298.164 702.255,1367.373" style="fill:none;stroke:black;stroke-width:2.08px;"/>
                <path d="M656.167,1541.38C656.167,1541.38 690.825,1495.961 705.557,1433.442" style="fill:none;stroke:black;stroke-width:2.08px;"/>
                <path d="M752.35,1496.361C752.35,1496.361 771.943,1474.542 757.694,1428.677" style="fill:none;stroke:black;stroke-width:2.08px;"/>
                <path d="M768.868,1466.972C768.868,1466.972 770.514,1462.074 758.761,1403.296" style="fill:none;stroke:black;stroke-width:2.08px;"/>
                <path d="M506.308,1504.307C506.308,1504.307 494.476,1485.223 495.621,1445.528" style="fill:none;stroke:black;stroke-width:2.08px;"/>
                <path d="M506.308,1479.879C506.308,1479.879 495.239,1456.215 506.308,1421.101" style="fill:none;stroke:black;stroke-width:2.08px;"/>
            </g>
        </g>
    </g>
</svg>
