<?xml version="1.0" encoding="UTF-8" standalone="no"?>
<!DOCTYPE svg PUBLIC "-//W3C//DTD SVG 1.1//EN" "http://www.w3.org/Graphics/SVG/1.1/DTD/svg11.dtd">
<svg width="100%" height="100%" viewBox="0 0 369 393" version="1.1" xmlns="http://www.w3.org/2000/svg" xmlns:xlink="http://www.w3.org/1999/xlink" xml:space="preserve" xmlns:serif="http://www.serif.com/" style="fill-rule:evenodd;clip-rule:evenodd;stroke-linecap:round;stroke-linejoin:round;stroke-miterlimit:1.5;">
    <g transform="matrix(1,0,0,1,-771.693502,-1030.64225)">
        <g>
            <path d="M880.909,1420.792C880.909,1420.792 847.918,1420.985 814.147,1393.84C814.147,1393.84 787.43,1368.833 780.163,1342.97C780.163,1342.97 771.452,1330.787 773.777,1292.741C773.777,1292.741 785.204,1243.795 788.989,1230.97C788.989,1230.97 789.906,1170.696 788.989,1163.001C788.989,1163.001 796.44,1123.673 802.729,1118.543C802.729,1118.543 823.338,1084.986 835.308,1079.429C835.308,1079.429 876.346,1049.292 896.437,1047.368C896.437,1047.368 957.139,1027.702 973.597,1032.726C973.597,1032.726 1013.139,1034.116 1027.032,1053.566C1027.032,1053.566 1039.215,1071.734 1039.857,1077.719C1039.857,1077.719 1073.628,1089.047 1081.963,1105.078C1081.963,1105.078 1101.627,1145.047 1105.689,1172.619C1105.689,1172.619 1115.521,1223.701 1118.299,1235.03C1118.299,1235.03 1130.055,1273.764 1134.543,1285.711C1134.543,1285.711 1139.887,1304.924 1135.185,1324.161C1135.185,1324.161 1128.772,1359 1114.452,1375.672C1114.452,1375.672 1097.292,1397.26 1079.261,1402.176C1079.261,1402.176 1056.101,1418.634 1029.17,1415.214L1019.979,1412.649C1019.979,1412.649 1005.445,1415.214 1000.956,1412.649L1010.574,1403.245C1010.574,1403.245 1038.574,1378.878 1039.643,1358.359C1039.643,1358.359 1061.872,1365.199 1074.696,1357.718C1074.696,1357.718 1095.429,1344.252 1098.208,1335.703C1098.208,1335.703 1105.454,1314.329 1102.793,1309.199C1100.131,1304.069 1098.849,1298.298 1098.849,1298.298C1098.849,1298.298 1088.803,1280.818 1073.841,1285.711L1062.086,1288.253L1046.269,1302.261L1045.841,1283.123L1044.131,1257.924L1036.437,1218.146L1028.101,1194.554L1014.849,1185.658L1005.872,1175.612L995.826,1161.077L989.842,1143.765L988.773,1127.093L988.987,1120.467L967.185,1127.734L949.658,1129.871L937.262,1129.871L903.063,1130.94L883.827,1132.436L867.582,1136.497L856.254,1141.413L841.079,1150.604L831.46,1157.444C831.46,1157.444 818.85,1198.909 823.338,1216.436C823.338,1216.436 797.69,1255.015 819.063,1282.695C819.063,1282.695 815.43,1309.093 828.896,1330.04C828.896,1330.04 835.094,1362.742 833.384,1366.376C833.384,1366.376 835.949,1379.627 858.605,1381.124C858.605,1381.124 860.315,1389.887 863.094,1394.589C863.094,1394.589 875.491,1407.2 877.201,1409.765L880.909,1420.792Z" style="fill:rgb(238,239,243);"/>
            <g>
                <g transform="matrix(1,0,0,1,-288.637695,5.209903)">
                    <path d="M1113.568,1178.52C1111.402,1188.944 1110.552,1200.203 1111.985,1211.878C1111.985,1211.878 1087.011,1243.95 1107.792,1277.792C1107.792,1277.792 1103.71,1301.244 1117.625,1326.18C1117.625,1326.18 1122.041,1346.797 1121.774,1360.958C1121.774,1360.958 1125.781,1375.385 1147.422,1375.385C1147.422,1375.385 1148.491,1388.209 1152.499,1390.614C1152.499,1390.614 1161.399,1398.896 1166.033,1405.843C1166.033,1405.843 1167.624,1410.342 1170.144,1415.582" style="fill:none;stroke:black;stroke-width:4.17px;"/>
                </g>
                <path d="M999.456,1110.523C999.456,1110.523 995.004,1125.96 946.022,1130.413C946.022,1130.413 885.462,1128.038 862.307,1138.725C862.307,1138.725 819.856,1155.646 815.7,1180.286" style="fill:none;stroke:black;stroke-width:4.17px;"/>
                <path d="M831.751,1156.737C831.751,1156.737 826.683,1172.924 824.902,1183.73" style="fill:none;stroke:black;stroke-width:4.17px;"/>
                <path d="M1040.084,1079.268C1040.084,1079.268 1026.344,995.299 880.161,1052.932C880.161,1052.932 790.975,1084.958 789.703,1170.233C789.703,1170.233 790.212,1204.467 790.212,1231.852C790.212,1231.852 763.495,1302.319 778.189,1337.052C778.189,1337.052 797.893,1415.201 881.719,1420.544" style="fill:none;stroke:black;stroke-width:4.17px;"/>
                <path d="M989.772,1118.432C989.772,1118.432 972.215,1189.424 1076.795,1213.851" style="fill:none;stroke:black;stroke-width:4.17px;"/>
                <path d="M1027.596,1194.554C1027.596,1194.554 1048.869,1237.214 1045.497,1303.927C1045.497,1303.927 1075.221,1264.828 1097.93,1296.889C1097.93,1296.889 1115.965,1327.614 1082.568,1352.662C1082.568,1352.662 1068.772,1368.154 1040.084,1357.764C1040.084,1357.764 1030.562,1393.684 999.456,1411.793C999.456,1411.793 1025.528,1423.964 1076.795,1384.185" style="fill:none;stroke:black;stroke-width:4.17px;"/>
                <path d="M1017.643,1413.081C1017.643,1413.081 1079.461,1435.968 1118.265,1348.562" style="fill:none;stroke:black;stroke-width:4.17px;"/>
                <path d="M1073.596,1404.974C1073.596,1404.974 1128.777,1393.168 1137.795,1306.79C1137.795,1306.79 1138.415,1290.258 1131.163,1275.373C1131.163,1275.373 1117.423,1241.785 1112.079,1201.327C1112.079,1201.327 1096.854,1115.45 1076.795,1099.801C1076.795,1099.801 1062.745,1083.77 1040.084,1078.427" style="fill:none;stroke:black;stroke-width:4.17px;"/>
                <path d="M950.947,1118.432C950.947,1118.432 866.787,1040.128 810.871,1172.193" style="fill:none;stroke:black;stroke-width:2.08px;"/>
                <path d="M955.146,1128.542C955.146,1128.542 976.855,1090.756 914.474,1069.382" style="fill:none;stroke:black;stroke-width:2.08px;"/>
                <path d="M788.989,1235.03C788.989,1235.03 801.966,1204.878 802.729,1191.137" style="fill:none;stroke:black;stroke-width:2.08px;"/>
                <path d="M1065.101,1285.711C1065.101,1285.711 1091.818,1268.611 1093.421,1257.924" style="fill:none;stroke:black;stroke-width:2.08px;"/>
            </g>
        </g>
    </g>
</svg>
