<?xml version="1.0" encoding="UTF-8" standalone="no"?>
<!DOCTYPE svg PUBLIC "-//W3C//DTD SVG 1.1//EN" "http://www.w3.org/Graphics/SVG/1.1/DTD/svg11.dtd">
<svg width="100%" height="100%" viewBox="0 0 357 440" version="1.1" xmlns="http://www.w3.org/2000/svg" xmlns:xlink="http://www.w3.org/1999/xlink" xml:space="preserve" xmlns:serif="http://www.serif.com/" style="fill-rule:evenodd;clip-rule:evenodd;stroke-linecap:round;stroke-linejoin:round;stroke-miterlimit:1.5;">
    <g transform="matrix(1,0,0,1,-801.57237,-964.730433)">
        <g>
            <path d="M1057.905,1339.211C1057.905,1339.211 1069.896,1394.979 1121.193,1401.978C1121.193,1401.978 1106.445,1395.298 1104.522,1390.168L1108.583,1390.809L1123.117,1396.153C1123.117,1396.153 1148.645,1400.641 1156.4,1395.298C1156.4,1395.298 1140.002,1393.802 1125.041,1374.992C1125.041,1374.992 1129.315,1376.061 1132.094,1376.275C1132.094,1376.275 1127.178,1368.58 1125.254,1360.244C1125.254,1360.244 1112.43,1324.764 1113.926,1302.321C1113.926,1302.321 1114.567,1257.649 1122.262,1246.749C1122.262,1246.749 1132.522,1197.375 1133.376,1192.031C1133.376,1192.031 1142.781,1137.741 1142.781,1128.55C1142.781,1128.55 1144.705,1081.1 1138.506,1065.07C1138.506,1065.07 1129.957,1014.413 1113.926,993.894C1113.926,993.894 1095.758,970.811 1082.079,969.101C1082.079,969.101 1062.201,967.306 1054.934,966.814C1054.934,966.814 1026.507,967.177 1020.522,968.673C1020.522,968.673 1002.995,973.803 998.293,976.154C998.293,976.154 979.27,986.841 975.209,1000.948C975.209,1000.948 973.927,1018.688 976.705,1024.887L971.789,1025.528C971.789,1025.528 913.011,1020.612 885.011,1031.513C885.011,1031.513 851.454,1041.558 848.034,1047.116C848.034,1047.116 833.676,1059.94 838.29,1073.833L835.21,1076.825C835.21,1076.825 812.767,1100.123 809.347,1110.169C809.347,1110.169 798.874,1132.098 806.355,1149.882C806.355,1149.882 809.988,1164.031 813.194,1166.81C813.194,1166.81 821.53,1125.986 846.11,1102.261L848.461,1102.261C848.461,1102.261 861.927,1115.726 892.278,1113.589C892.278,1113.589 923.912,1106.535 938.446,1106.963C938.446,1106.963 996.583,1107.39 1003.423,1111.238C1003.423,1111.238 1020.308,1120.428 1021.163,1127.268C1021.163,1127.268 1021.804,1141.375 1020.736,1146.718C1020.736,1146.718 1014.965,1186.901 1014.537,1189.68C1014.537,1189.68 1015.98,1241.051 1043.606,1272.611L1047.026,1274.421C1047.026,1274.421 1059.423,1262.839 1066.048,1260.274C1066.048,1260.274 1084.43,1255.438 1091.27,1274.421C1091.27,1274.421 1094.491,1281.028 1094.398,1288.894C1094.398,1288.894 1094.066,1309.413 1087.346,1317.792C1087.346,1317.792 1083.521,1326.17 1075.832,1330.616C1075.832,1330.616 1069.511,1336.088 1064.723,1336.943L1057.905,1339.211Z" style="fill:rgb(178,84,22);"/>
            <clipPath id="_clip1">
                <path d="M1057.905,1339.211C1057.905,1339.211 1069.896,1394.979 1121.193,1401.978C1121.193,1401.978 1106.445,1395.298 1104.522,1390.168L1108.583,1390.809L1123.117,1396.153C1123.117,1396.153 1148.645,1400.641 1156.4,1395.298C1156.4,1395.298 1140.002,1393.802 1125.041,1374.992C1125.041,1374.992 1129.315,1376.061 1132.094,1376.275C1132.094,1376.275 1127.178,1368.58 1125.254,1360.244C1125.254,1360.244 1112.43,1324.764 1113.926,1302.321C1113.926,1302.321 1114.567,1257.649 1122.262,1246.749C1122.262,1246.749 1132.522,1197.375 1133.376,1192.031C1133.376,1192.031 1142.781,1137.741 1142.781,1128.55C1142.781,1128.55 1144.705,1081.1 1138.506,1065.07C1138.506,1065.07 1129.957,1014.413 1113.926,993.894C1113.926,993.894 1095.758,970.811 1082.079,969.101C1082.079,969.101 1062.201,967.306 1054.934,966.814C1054.934,966.814 1026.507,967.177 1020.522,968.673C1020.522,968.673 1002.995,973.803 998.293,976.154C998.293,976.154 979.27,986.841 975.209,1000.948C975.209,1000.948 973.927,1018.688 976.705,1024.887L971.789,1025.528C971.789,1025.528 913.011,1020.612 885.011,1031.513C885.011,1031.513 851.454,1041.558 848.034,1047.116C848.034,1047.116 833.676,1059.94 838.29,1073.833L835.21,1076.825C835.21,1076.825 812.767,1100.123 809.347,1110.169C809.347,1110.169 798.874,1132.098 806.355,1149.882C806.355,1149.882 809.988,1164.031 813.194,1166.81C813.194,1166.81 821.53,1125.986 846.11,1102.261L848.461,1102.261C848.461,1102.261 861.927,1115.726 892.278,1113.589C892.278,1113.589 923.912,1106.535 938.446,1106.963C938.446,1106.963 996.583,1107.39 1003.423,1111.238C1003.423,1111.238 1020.308,1120.428 1021.163,1127.268C1021.163,1127.268 1021.804,1141.375 1020.736,1146.718C1020.736,1146.718 1014.965,1186.901 1014.537,1189.68C1014.537,1189.68 1015.98,1241.051 1043.606,1272.611L1047.026,1274.421C1047.026,1274.421 1059.423,1262.839 1066.048,1260.274C1066.048,1260.274 1084.43,1255.438 1091.27,1274.421C1091.27,1274.421 1094.491,1281.028 1094.398,1288.894C1094.398,1288.894 1094.066,1309.413 1087.346,1317.792C1087.346,1317.792 1083.521,1326.17 1075.832,1330.616C1075.832,1330.616 1069.511,1336.088 1064.723,1336.943L1057.905,1339.211Z"/>
            </clipPath>
            <g clip-path="url(#_clip1)">
                <path d="M994.698,1029.78C994.698,1029.78 1029.307,1041.134 1036.009,1045.922C1036.009,1045.922 1033.029,1030.734 1015.915,1024.785C1015.915,1024.785 999.212,1022.667 994.698,1029.78Z" style="fill:rgb(22,149,178);"/>
            </g>
            <g>
                <path d="M847.234,1100.897C847.234,1100.897 816.658,1133.849 813.689,1167.097C813.689,1167.097 779.899,1125.795 836.339,1076.332" style="fill:none;stroke:black;stroke-width:4.17px;"/>
                <path d="M840.08,1079.869C840.08,1079.869 827.523,1048.076 868.935,1037.121C868.935,1037.121 913.542,1015.747 990.766,1028.572C990.766,1028.572 1054.929,1042.747 1084.823,1089.488C1084.823,1089.488 1118.427,1121.385 1113.752,1201.816C1113.752,1201.816 1109.076,1255.251 1092.378,1275.289C1092.378,1275.289 1080.8,1250.817 1062.098,1262.691L1044.286,1273.972C1044.286,1273.972 1014.749,1234.322 1014.897,1189.366C1014.897,1189.366 1023.395,1136.729 1021.725,1127.712C1021.725,1127.712 1013.376,1112.684 1000.017,1110.346C1000.017,1110.346 938.567,1101.997 892.479,1113.018C892.479,1113.018 851.81,1115.791 844.926,1096.036" style="fill:none;stroke:black;stroke-width:4.17px;"/>
                <path d="M1056.4,1339.001C1056.4,1339.001 1069.377,1394.726 1122.812,1401.978C1122.812,1401.978 1101.438,1395.108 1094.568,1377.932C1094.568,1377.932 1115.179,1406.558 1156.4,1396.253C1156.4,1396.253 1123.957,1386.711 1117.85,1362.284C1117.85,1362.284 1124.339,1374.497 1133.118,1376.787C1133.118,1376.787 1099.441,1322.718 1121.349,1247.122C1121.349,1247.122 1151.807,1128.243 1141.12,1085.495C1141.12,1085.495 1132.036,968.473 1070.586,967.938C1070.586,967.938 1027.66,963.352 1010.294,972.703C1010.294,972.703 964.904,982.289 976.244,1024.474" style="fill:none;stroke:black;stroke-width:4.17px;"/>
                <path d="M995.376,1028.42C995.376,1028.42 1019.422,1013.392 1036.454,1044.451" style="fill:none;stroke:black;stroke-width:4.17px;"/>
                <path d="M992.037,1024.785C992.037,1024.785 979.346,985.694 1033.449,966.814" style="fill:none;stroke:black;stroke-width:2.08px;"/>
                <path d="M1015.915,1024.474C1015.915,1024.474 1035.119,951.941 1101.912,983" style="fill:none;stroke:black;stroke-width:2.08px;"/>
                <path d="M1015.915,1024.474C1015.915,1024.474 1089.413,955.625 1117.204,999.871" style="fill:none;stroke:black;stroke-width:2.08px;"/>
                <path d="M1021.378,1126.122C1021.378,1126.122 1071.378,1168.87 1098.859,1152.076" style="fill:none;stroke:black;stroke-width:2.08px;"/>
                <path d="M982.447,1106.656C982.447,1106.656 1032.065,1108.946 1043.897,1121.923C1055.729,1134.9 1091.656,1131.465 1091.25,1119.633" style="fill:none;stroke:black;stroke-width:2.08px;"/>
                <path d="M1025.068,1041.898C1025.068,1041.898 1048.632,1077.013 1036.85,1093.043" style="fill:none;stroke:black;stroke-width:2.08px;"/>
                <path d="M900.259,1110.219C900.259,1110.219 875.068,1076.631 930.03,1045.333" style="fill:none;stroke:black;stroke-width:2.08px;"/>
                <path d="M890.335,1106.656C890.335,1106.656 863.236,1073.577 900.259,1045.333" style="fill:none;stroke:black;stroke-width:2.08px;"/>
                <path d="M1016.951,1198.889C1016.951,1198.889 1052.968,1248.316 1098.859,1214.029" style="fill:none;stroke:black;stroke-width:2.08px;"/>
                <path d="M1025.068,1226.136C1025.068,1226.136 1046.34,1254.709 1069.94,1240.157" style="fill:none;stroke:black;stroke-width:2.08px;"/>
                <path d="M1098.859,1379.232C1098.859,1379.232 1070.831,1342.272 1076.62,1332.476" style="fill:none;stroke:black;stroke-width:2.08px;"/>
                <path d="M1092.539,1274.421C1092.539,1274.421 1099.185,1299.469 1087.346,1319.173C1087.346,1319.173 1075.37,1335.203 1057.905,1339.211" style="fill:none;stroke:black;stroke-width:2.08px;"/>
            </g>
        </g>
    </g>
</svg>
