<?xml version="1.0" encoding="UTF-8" standalone="no"?>
<svg width="100%" height="100%" viewBox="0 0 354 375" version="1.1" xmlns="http://www.w3.org/2000/svg" xmlns:xlink="http://www.w3.org/1999/xlink" xml:space="preserve" xmlns:serif="http://www.serif.com/" style="fill-rule:evenodd;clip-rule:evenodd;stroke-linecap:round;stroke-linejoin:round;stroke-miterlimit:1.5;">
    <g transform="matrix(1,0,0,1,-417.473313,-1037.911396)">
        <g>
            <path d="M636.247,1123.135C636.247,1123.135 607.881,1145.363 587.362,1154.768C587.362,1154.768 553.377,1167.785 531.661,1167.614C531.661,1167.614 556.113,1149.831 564.492,1140.426C564.492,1140.426 573.383,1127.944 574.409,1125.892C574.409,1125.892 567.912,1127.773 560.217,1131.364C552.522,1134.954 532.345,1145.043 527.729,1146.924C523.112,1148.805 478.825,1168.469 475.234,1171.376L467.368,1177.531C467.368,1177.531 462.41,1196.169 465.488,1208.994C465.488,1208.994 450.098,1233.487 453.005,1248.343C453.005,1248.343 444.24,1244.817 443.065,1240.157L441.378,1240.157C441.378,1240.157 440.136,1250.887 443.065,1254.478L435.051,1244.731C435.051,1244.731 415.69,1220.792 419.557,1188.817C419.557,1188.817 424.663,1154.084 439.625,1132.71C439.625,1132.71 444.755,1122.898 445.61,1121.819C446.465,1120.741 452.236,1103.887 458.648,1096.818C465.06,1089.748 476.175,1076.283 493.274,1066.451C493.274,1066.451 517.854,1050.634 535.38,1045.504C535.38,1045.504 582.617,1036.195 599.502,1039.995C599.502,1039.995 638.831,1043.581 660.632,1055.123C660.632,1055.123 691.852,1073.718 697.082,1085.046L699.746,1093.596L710.006,1092.954L713.426,1094.878C713.426,1094.878 732.662,1111.55 738.433,1126.725C738.433,1126.725 758.311,1164.13 761.517,1183.58C761.517,1183.58 769.892,1233.595 768.804,1245.351L763.868,1238.084L762.158,1245.351C762.158,1245.351 761.945,1279.977 756.815,1292.16C751.685,1304.343 746.342,1315.671 741.212,1320.587C741.212,1320.587 714.494,1362.053 710.22,1367.824C710.22,1367.824 697.196,1386.633 697.082,1391.335C697.082,1391.335 696.54,1409.897 698.678,1410.769C698.678,1410.769 681.792,1405.442 673.243,1378.511C673.243,1378.511 675.594,1350.725 677.517,1348.16L680.296,1347.091L685.212,1349.442C685.212,1349.442 700.388,1357.992 714.708,1348.801C714.708,1348.801 727.647,1343.423 730.368,1337.349C733.09,1331.274 741.639,1319.305 742.708,1312.465C742.708,1312.465 745.487,1293.87 739.288,1287.244C739.288,1287.244 730.097,1275.365 720.693,1276.709C720.693,1276.709 713.287,1273.565 703.952,1279.336C703.952,1279.336 698.036,1280.618 693.762,1284.893C693.762,1284.893 681.578,1303.061 672.601,1305.412C672.601,1305.412 674.525,1298.572 675.594,1293.656C676.662,1288.74 680.724,1258.175 680.51,1255.183C680.296,1252.191 679.014,1220.557 674.525,1215.214C674.525,1215.214 654.434,1192.985 651.014,1184.221C651.014,1184.221 639.472,1156.008 639.472,1151.305C639.472,1146.603 636.247,1123.135 636.247,1123.135Z" style="fill:rgb(115,80,48);"/>
            <g>
                <g transform="matrix(1,0,0,1,-646.562724,-2.003812)">
                    <path d="M1113.568,1178.52C1111.402,1188.944 1110.552,1200.203 1111.985,1211.878C1111.985,1211.878 1098.829,1228.773 1099.56,1250.977" style="fill:none;stroke:black;stroke-width:4.17px;"/>
                </g>
                <path d="M452.997,1248.973C452.997,1248.973 443.867,1243.635 443.065,1237.223" style="fill:rgb(238,239,243);stroke:black;stroke-width:4.17px;"/>
                <path d="M577.721,1122.338C577.721,1122.338 582.263,1123.674 487.149,1165.887C487.149,1165.887 429.172,1185.046 443.065,1254.513C443.065,1254.513 402.718,1220.497 427.739,1158.501C427.739,1158.501 441.357,1105.642 506.147,1074.917" style="fill:none;stroke:black;stroke-width:4.17px;"/>
                <path d="M443.065,1127.614C443.065,1127.614 451.472,1077.876 530.861,1046.863C530.861,1046.863 620.937,1021.958 678.57,1066.996C678.57,1066.996 701.471,1081.571 699.467,1093.928C699.467,1093.928 708.484,1091.256 712.826,1094.262C712.826,1094.262 769.839,1144.024 768.789,1248.973C768.789,1248.973 765.164,1238.775 760.822,1233.432C760.822,1233.432 769.505,1289.872 740.784,1320.931C740.784,1320.931 713.732,1361.675 707.053,1371.694C707.053,1371.694 690.355,1392.401 699.038,1410.769C699.038,1410.769 680.336,1402.086 672.988,1377.372C672.988,1377.372 675.66,1349.987 678.332,1346.647C678.332,1346.647 702.044,1361.675 721.414,1344.309C721.414,1344.309 744.124,1324.605 743.122,1308.24C743.122,1308.24 746.461,1282.525 722.75,1275.512C722.75,1275.512 710.727,1271.838 692.358,1287.2C692.358,1287.2 678.666,1304.567 671.318,1305.903C671.318,1305.903 690.355,1254.243 672.988,1212.745" style="fill:none;stroke:black;stroke-width:4.17px;"/>
                <path d="M636.252,1121.819C636.252,1121.819 634.248,1208.686 710.727,1237.223" style="fill:none;stroke:black;stroke-width:4.17px;"/>
                <path d="M636.252,1121.819C636.252,1121.819 587.874,1168.432 530.432,1167.43C530.432,1167.43 568.306,1145.34 581.096,1116.81" style="fill:none;stroke:black;stroke-width:4.17px;"/>
                <path d="M690.212,1289.686C690.212,1289.686 701.662,1272.129 703.952,1263.732" style="fill:none;stroke:black;stroke-width:4.17px;"/>
                <path d="M636.247,1121.819C636.247,1121.819 678.087,1099.044 690.212,1096.818" style="fill:none;stroke:black;stroke-width:4.17px;"/>
            </g>
        </g>
    </g>
</svg>
