<?xml version="1.0" encoding="UTF-8" standalone="no"?>
<!DOCTYPE svg PUBLIC "-//W3C//DTD SVG 1.1//EN" "http://www.w3.org/Graphics/SVG/1.1/DTD/svg11.dtd">
<svg width="100%" height="100%" viewBox="0 0 379 489" version="1.1" xmlns="http://www.w3.org/2000/svg" xmlns:xlink="http://www.w3.org/1999/xlink" xml:space="preserve" xmlns:serif="http://www.serif.com/" style="fill-rule:evenodd;clip-rule:evenodd;stroke-linecap:round;stroke-linejoin:round;stroke-miterlimit:1.5;">
    <g transform="matrix(1,0,0,1,-1068.006313,-1054.223077)">
        <g>
            <path d="M1183.062,1124.653C1183.062,1124.653 1185.664,1117.991 1162.793,1112.109C1162.793,1112.109 1150.935,1114.028 1143.176,1117.995C1143.176,1117.995 1125.842,1139.198 1117.635,1162.179C1117.635,1162.179 1109.182,1182.139 1111.985,1211.699C1111.985,1211.699 1087.35,1246.796 1108.162,1277.616C1108.162,1277.616 1104.036,1301.905 1117.692,1326.841C1117.692,1326.841 1123.065,1357.462 1121.997,1361.47C1121.997,1361.47 1127.607,1375.363 1146.309,1374.829C1146.309,1374.829 1148.447,1385.783 1151.386,1389.256C1154.325,1392.729 1164.917,1401.813 1166.033,1405.554C1167.149,1409.294 1176.532,1431.737 1183.062,1431.47C1183.062,1431.47 1197.874,1437.08 1214.973,1428.798L1222.187,1425.859L1225.126,1432.806L1225.126,1459.523L1223.79,1472.08L1193.332,1491.05L1175.431,1497.462L1163.141,1502.271L1147.912,1511.622C1147.912,1511.622 1128.502,1527.118 1139.009,1534.065L1131.08,1532.729L1123.6,1531.66L1111.985,1526.317L1103.291,1515.897L1103.291,1496.928C1103.291,1496.928 1108.905,1484.637 1109.439,1476.355C1109.439,1476.355 1112.111,1458.454 1106.5,1452.577C1106.5,1452.577 1093.943,1440.554 1088.867,1437.348C1088.867,1437.348 1073.905,1424.79 1077.646,1402.081C1077.646,1402.081 1089.668,1373.226 1092.073,1368.149C1092.073,1368.149 1094.21,1351.852 1084.592,1336.89C1084.592,1336.89 1068.679,1316.12 1070.09,1298.585C1070.09,1298.585 1074.439,1264.486 1078.714,1257.272C1078.714,1257.272 1083.523,1238.57 1081.386,1232.959C1079.249,1227.348 1077.111,1181.929 1078.981,1173.379C1080.852,1164.829 1087.264,1151.493 1091.271,1143.6C1095.279,1135.707 1109.172,1113.532 1115.05,1108.188C1120.928,1102.845 1151.386,1079.601 1157.531,1076.662C1163.676,1073.723 1194.401,1055.188 1207.225,1056.306C1220.05,1057.425 1231.271,1054.753 1250.775,1060.364L1270.011,1068.112C1270.011,1068.112 1286.149,1064.719 1297.477,1066.001C1297.477,1066.001 1325.69,1066.001 1343.431,1082.032C1361.171,1098.062 1369.507,1113.238 1374.209,1120.933C1374.209,1120.933 1386.82,1154.276 1387.675,1170.52C1387.675,1170.52 1391.309,1190.825 1394.087,1197.879C1394.087,1197.879 1410.545,1225.451 1414.179,1235.283C1417.812,1245.115 1415.675,1237.421 1415.675,1237.421C1415.675,1237.421 1425.507,1263.07 1424.011,1274.611C1422.515,1286.153 1421.232,1296.413 1417.599,1304.321C1413.965,1312.23 1409.263,1341.298 1411.4,1349.42C1411.4,1349.42 1418.667,1364.382 1423.797,1371.649C1423.797,1371.649 1438.545,1393.023 1440.896,1403.283C1443.247,1413.542 1445.755,1417.817 1443.967,1428.504C1442.179,1439.191 1437.476,1451.588 1432.774,1458C1428.072,1464.412 1420.805,1469.542 1418.881,1473.389C1416.957,1477.237 1415.675,1493.053 1419.095,1499.252C1422.515,1505.45 1419.308,1501.389 1419.308,1501.389C1419.308,1501.389 1355.4,1477.023 1351.767,1472.748C1351.767,1472.748 1345.141,1477.472 1352.493,1496.452C1352.493,1496.452 1356.768,1513.209 1336.591,1527.743C1336.591,1527.743 1313.678,1540.648 1280.164,1540.864C1280.164,1540.864 1274.35,1544.501 1286.32,1536.635C1298.289,1528.769 1307.352,1524.153 1310.087,1517.997C1312.823,1511.841 1324.793,1500.898 1320.347,1487.218C1320.347,1487.218 1320.005,1477.472 1315.217,1474.223C1310.429,1470.974 1307.694,1464.989 1307.352,1462.425C1307.01,1459.86 1300.512,1451.772 1308.583,1435.083C1308.583,1435.083 1317.757,1424.354 1320.529,1419.393C1320.529,1419.393 1329.722,1401.883 1323.739,1387.146C1323.739,1387.146 1314.109,1376.932 1313.088,1369.199C1313.088,1369.199 1310.315,1353.464 1316.541,1342.18C1316.541,1342.18 1333.078,1313.971 1333.467,1306.383C1333.467,1306.383 1337.942,1281.481 1332.883,1267.668C1332.883,1267.668 1318.954,1263.212 1313.662,1251.228C1313.662,1251.228 1305.568,1236.131 1306.347,1224.925C1306.347,1224.925 1305.568,1186.637 1304.79,1183.369C1304.79,1183.369 1303.856,1162.98 1294.051,1153.797C1294.051,1153.797 1283.779,1134.291 1269.304,1128.324C1269.304,1128.324 1248.604,1119.401 1241.6,1119.245C1241.6,1119.245 1201.289,1112.552 1187.437,1123.136L1185.57,1124.653L1183.062,1124.653Z" style="fill:rgb(70,48,34);"/>
            <g>
                <path d="M1183.062,1122.311C1183.062,1122.311 1151.382,1091.395 1103.291,1137.197" style="fill:none;stroke:black;stroke-width:2.08px;"/>
                <path d="M1166.033,1113.542C1166.033,1113.542 1135.437,1110.055 1111.985,1143.6" style="fill:none;stroke:black;stroke-width:2.08px;"/>
                <path d="M1143.176,1117.657C1143.176,1117.657 1105.714,1160.789 1111.985,1211.878C1111.985,1211.878 1087.011,1243.95 1107.792,1277.792C1107.792,1277.792 1103.71,1301.244 1117.625,1326.18C1117.625,1326.18 1122.041,1346.797 1121.774,1360.958C1121.774,1360.958 1125.781,1375.385 1147.422,1375.385C1147.422,1375.385 1148.491,1388.209 1152.499,1390.614C1152.499,1390.614 1161.399,1398.896 1166.033,1405.843C1166.033,1405.843 1174.35,1429.354 1183.062,1431.492C1183.062,1431.492 1199.789,1437.37 1222.499,1425.614C1222.499,1425.614 1230.87,1440.59 1222.766,1473.438C1222.766,1473.438 1194.944,1492.704 1166.033,1501.254C1166.033,1501.254 1124.598,1519.689 1139.009,1534.918C1139.009,1534.918 1091.435,1533.048 1106.396,1490.033C1106.396,1490.033 1119.221,1457.17 1098.648,1444.613C1078.076,1432.056 1070.862,1410.415 1083.152,1387.705C1095.442,1364.995 1093.839,1358.583 1089.03,1345.224C1084.221,1331.865 1065.519,1318.507 1071.129,1286.98C1076.74,1255.453 1083.152,1252.648 1081.816,1236.684C1080.48,1220.721 1073.534,1181.365 1082.618,1162.303C1082.618,1162.303 1094.908,1121.344 1133.114,1093.557C1133.114,1093.557 1185.747,1053.882 1214.175,1056.447C1214.175,1056.447 1243.029,1054.096 1269.747,1068.63C1269.747,1068.63 1313.991,1057.729 1341.136,1081.241C1341.136,1081.241 1371.843,1102.633 1383.456,1147.928C1383.456,1147.928 1388.836,1173.63 1391.804,1189.957C1394.773,1206.284 1409.319,1220.299 1415.85,1240.157C1422.381,1260.016 1428.021,1268.625 1419.115,1302.17C1419.115,1302.17 1403.382,1338.981 1415.553,1359.465C1415.553,1359.465 1443.458,1394.197 1443.755,1417.946C1443.755,1417.946 1447.911,1445.554 1419.412,1473.162C1419.412,1473.162 1413.166,1480.59 1419.365,1501.322C1419.365,1501.322 1373.624,1485.506 1350.968,1472.04C1350.968,1472.04 1344.556,1481.445 1352.892,1496.834C1352.892,1496.834 1360.278,1538.555 1279.46,1540.864C1279.46,1540.864 1337.277,1512.597 1317.09,1476.083C1317.09,1476.083 1289.185,1453.522 1316.497,1425.32C1316.497,1425.32 1331.043,1408.993 1323.324,1385.838C1323.324,1385.838 1303.138,1366.839 1317.09,1341.605C1317.09,1341.605 1334.902,1310.732 1335.199,1297.373C1335.199,1297.373 1336.683,1276.593 1332.527,1267.39C1332.527,1267.39 1310.559,1258.781 1307.294,1232.954C1304.028,1207.127 1309.075,1177.444 1298.982,1161.412C1298.982,1161.412 1287.404,1127.522 1244.656,1119.53C1244.656,1119.53 1208.142,1110.753 1185.284,1124.653L1183.062,1121.632" style="fill:none;stroke:black;stroke-width:4.17px;"/>
                <path d="M1187.362,1113.439C1187.362,1113.439 1240.797,1072.353 1278.498,1080.962" style="fill:none;stroke:black;stroke-width:2.08px;"/>
                <path d="M1207.052,1100.422C1207.052,1100.422 1193.596,1087.789 1169.254,1091.352" style="fill:none;stroke:black;stroke-width:2.08px;"/>
                <path d="M1314.864,1112.109C1314.864,1112.109 1361.953,1127.699 1349.263,1168.777C1336.572,1209.855 1333.9,1221.367 1360.617,1245.501" style="fill:none;stroke:black;stroke-width:2.08px;"/>
                <path d="M1332.144,1266.138C1332.144,1266.138 1369.697,1280.788 1351.915,1311.825C1351.915,1311.825 1379.256,1287.943 1353.726,1269.24" style="fill:none;stroke:black;stroke-width:2.08px;"/>
                <path d="M1397.958,1258.85C1397.958,1258.85 1411.317,1271.289 1384.6,1311.825C1357.882,1352.361 1400.63,1355.33 1413.395,1373.735" style="fill:none;stroke:black;stroke-width:2.08px;"/>
                <path d="M1323.4,1385.298C1323.4,1385.298 1355.288,1401.596 1337.741,1426.176" style="fill:none;stroke:black;stroke-width:2.08px;"/>
                <path d="M1343.011,1392.245C1343.011,1392.245 1369.209,1414.954 1332.144,1444.878" style="fill:none;stroke:black;stroke-width:2.08px;"/>
                <path d="M1351.998,1471.328C1351.998,1471.328 1349.048,1461.977 1372.56,1454.763C1396.071,1447.55 1408.787,1407.474 1392.811,1385.298" style="fill:none;stroke:black;stroke-width:2.08px;"/>
                <path d="M1381.109,1479.611C1381.109,1479.611 1414.421,1463.046 1413.395,1426.176" style="fill:none;stroke:black;stroke-width:2.08px;"/>
                <path d="M1283.182,1539.109C1283.182,1539.109 1360.623,1525.201 1332.144,1479.611" style="fill:none;stroke:black;stroke-width:2.08px;"/>
                <path d="M1138.314,1532.355C1138.314,1532.355 1086.215,1509.646 1138.314,1464.226" style="fill:none;stroke:black;stroke-width:2.08px;"/>
                <path d="M1138.314,1479.611C1138.314,1479.611 1200.655,1431.23 1149.447,1418.561C1098.238,1405.893 1099.129,1390.753 1111.152,1360.473" style="fill:none;stroke:black;stroke-width:2.08px;"/>
                <path d="M1081.228,1250.486C1082.564,1245.588 1094.141,1215.753 1092.36,1204.176" style="fill:none;stroke:black;stroke-width:2.08px;"/>
            </g>
        </g>
    </g>
</svg>
