<?xml version="1.0" encoding="UTF-8" standalone="no"?>
<svg width="100%" height="100%" viewBox="0 0 413 349" version="1.1" xmlns="http://www.w3.org/2000/svg" xmlns:xlink="http://www.w3.org/1999/xlink" xml:space="preserve" xmlns:serif="http://www.serif.com/" style="fill-rule:evenodd;clip-rule:evenodd;stroke-linecap:round;stroke-linejoin:round;stroke-miterlimit:1.5;">
    <g transform="matrix(1,0,0,1,-691.23544,-823.281114)">
        <g>
            <path d="M721.519,986.222L713.108,978.653L702.421,961.732L695.593,944.583L693.319,932.046C693.319,932.046 695.177,920.661 699.719,916.653C704.261,912.646 721.519,894.745 721.519,894.745L749.147,866.425L761.704,860.547L807.391,841.043L844.795,829.822C844.795,829.822 892.352,823.045 905.444,825.364C918.535,827.684 945.253,829.555 959.68,834.898C974.108,840.242 1012.314,856.005 1012.314,856.005C1012.314,856.005 1031.817,866.692 1039.031,873.906L1052.39,884.058L1065.214,897.15L1074.833,910.508L1081.72,924.669L1081.72,934.287L1079.642,940.072L1077.088,944.583L1092.733,978.638L1102.135,1008.829L1102.135,1022.989L1098.344,1047.836L1086.321,1118.905L1081.72,1137.291L1072.962,1136.573L1065.268,1137.291L1054.214,1142.496L1047.314,1148.053L1035.558,1157.885L1026.708,1169.384L1013.543,1165.794L1013.756,1131.382L1012.474,1101.886L1006.275,1080.298L1003.069,1064.481L1001.573,1044.817L1005.848,1032.848L1015.68,1008.054L1023.802,978.985L1024.23,972.787L1006.703,948.421L998.153,940.072L813.91,940.072L749.788,944.583L742.093,944.583L737.605,948.634L731.62,958.466L724.139,977.275L721.519,986.222Z" style="fill:rgb(30,22,11);"/>
            <g>
                <path d="M719.711,986.222C719.711,986.222 682.307,945.255 696.556,922.545C710.806,899.835 748.655,867.329 748.655,867.329C748.655,867.329 847.087,808.105 939.919,830.37C1032.751,852.635 1071.491,895.828 1079.952,922.1C1088.412,948.372 1065.003,952.666 1041.72,962.59" style="fill:none;stroke:black;stroke-width:4.17px;"/>
                <path d="M1077.088,944.583C1077.088,944.583 1104.061,997.048 1102.026,1019.078C1099.99,1041.109 1089.722,1107.457 1081.72,1137.291" style="fill:none;stroke:black;stroke-width:4.17px;"/>
                <path d="M1081.72,1137.291C1081.72,1137.291 1055.334,1128.913 1026.708,1169.384" style="fill:none;stroke:black;stroke-width:4.17px;"/>
                <path d="M1026.708,1169.384L1012.824,1166.273C1012.824,1166.273 1016.164,1110.5 1008.817,1088.792C1001.469,1067.084 1001.247,1050.404 1002.137,1045.061C1003.028,1039.717 1027.074,979.751 1024.105,973.22C1021.136,966.689 1002.434,942.05 996.794,940.862C991.153,939.675 752.81,939.102 742.384,944.583C731.958,950.065 720.678,987.943 721.568,986.222" style="fill:none;stroke:black;stroke-width:4.17px;"/>
            </g>
        </g>
    </g>
</svg>
