<?xml version="1.0" encoding="UTF-8" standalone="no"?>
<svg width="100%" height="100%" viewBox="0 0 425 628" version="1.1" xmlns="http://www.w3.org/2000/svg" xmlns:xlink="http://www.w3.org/1999/xlink" xml:space="preserve" xmlns:serif="http://www.serif.com/" style="fill-rule:evenodd;clip-rule:evenodd;stroke-linecap:round;stroke-linejoin:round;stroke-miterlimit:1.5;">
    <g transform="matrix(1,0,0,1,-761.966551,-516.012604)">
        <g>
            <path d="M786.778,958.688L788.992,959.144L790.789,966.9L793.14,966.9L797.842,961.495L807.247,952.945L815.344,947.174L823.918,950.808L836.957,955.083L846.575,956.579L859.613,955.724L871.369,954.869L885.689,948.029L892.101,945.464L907.918,943.968L922.88,944.396L952.803,944.396L974.337,945.892L992.345,953.159L1005.597,960.854L1015.857,966.9L1022.055,966.9L1035.093,961.922L1039.154,959.785L1046.208,951.235L1052.62,937.342L1060.101,913.831L1067.582,882.197L1072.498,851.205L1074.849,829.987L1078.269,810.595L1085.322,792.427L1078.055,785.16L1060.528,761.435L1050.696,748.396L1035.948,717.19L1030.391,703.084L1022.91,677.007L1016.07,675.939L1000.254,672.091L990.849,668.244L983.368,662.046L978.88,656.275L976.529,647.939L969.459,655.847L957.078,665.679L946.819,672.305L931.002,679.358L919.888,681.71L906.636,682.565L894.666,680.427L882.056,677.007L870.941,671.236L863.46,666.107L855.957,662.046L847.43,668.244L839.308,671.236L830.331,672.519L821.354,671.023L815.344,668.458L809.863,661.618L806.178,658.713L800.835,664.61L795.491,672.091L788.992,685.129L778.819,710.564L775.827,719.755L770.697,707.358L766.636,691.542L764.05,678.076L764.05,661.404L770.483,646.015L775.613,636.611L786.778,628.061L783.308,625.069L779.247,623.145L772.835,619.725L766.422,618.656L771.98,607.542L782.239,592.58L792.285,585.313L803.613,581.252L820.499,581.038L821.995,578.687L820.071,572.275L815.344,565.221L808.102,558.595L830.117,546.84L846.789,538.504L867.521,531.451L887.827,528.244L916.681,526.107L937.414,528.886L960.712,533.374L961.567,528.458L957.506,518.096L986.574,521.619L1006.238,526.962L1026.33,534.87L1040.65,547.054L1047.276,558.382L1054.33,578.046L1057.536,578.046L1064.803,573.771L1069.078,565.863L1071.643,555.817L1089.383,562.229L1100.925,569.069L1112.253,578.687L1120.162,591.298L1125.078,605.618L1130.421,620.58L1132.986,621.007L1136.833,617.374L1140.894,611.603L1143.673,608.611L1146.879,613.954L1147.52,627.633L1146.238,639.175L1153.505,644.519L1167.826,654.992L1174.879,666.32L1181.932,680.641L1184.624,693.465L1184.624,701.801L1180.009,699.023L1170.177,697.526L1171.887,708.213L1171.245,728.091L1168.467,743.694L1160.558,764.213L1163.765,776.61L1166.116,787.511L1163.551,807.389L1158.207,825.129L1150.085,839.663L1141.108,862.533L1132.131,861.465L1125.933,860.61L1116.101,863.388L1105.841,868.732L1097.719,878.35L1090.879,891.175L1085.536,912.549L1082.971,947.981L1085.108,971.968L1085.108,994.838L1081.902,1011.296L1076.559,1028.645L1067.368,1045.708L1053.689,1062.38L1038.727,1076.273L1022.055,1088.243L998.758,1098.621L991.063,1108.12L982.513,1114.319L974.337,1116.884L969.459,1117.097L964.345,1121.372L957.933,1129.708L945.75,1136.12L935.491,1138.685L925.338,1138.982L914.233,1135.717L902.183,1137.498L879.621,1141.878L848.451,1141.878L831.827,1136.607L820.546,1131.857L805.703,1119.092L795.016,1100.39L789.739,1087.922L789.739,1055.364L782.696,1047.252L775.652,1031.76L775.652,997.361L782.696,972.647L786.778,958.688ZM855.674,1007.272L848.757,1012.454L837.803,1019.588L828.184,1022.366L821.345,1020.443L815.344,1014.885L809.863,1018.519L809.863,1024.504L813.222,1033.481L821.986,1045.878L826.261,1050.017L835.879,1038.61L842.932,1036.901L880.551,1037.755L886.321,1038.824L902.566,1050.017L921.375,1050.017L933.772,1045.236L946.382,1038.183L956.642,1028.645L969.459,1014.03L961.558,1014.458L946.81,1014.672L932.489,1013.817L913.466,1007.272L906.413,1010.183L897.65,1012.534L886.535,1013.817L877.131,1013.603L866.657,1010.824L855.674,1007.272Z" style="fill:rgb(58,43,37);"/>
            <g>
                <path d="M786.066,959.181C786.066,959.181 760.35,1027.978 789.739,1055.364" style="fill:none;stroke:black;stroke-width:4.17px;"/>
                <path d="M789.739,1055.364C789.739,1055.364 771.581,1168.927 914.233,1135.832" style="fill:none;stroke:black;stroke-width:4.17px;"/>
                <path d="M914.233,1135.832C914.233,1135.832 947.01,1150.217 968.05,1117.154" style="fill:none;stroke:black;stroke-width:4.17px;"/>
                <path d="M968.05,1117.154C968.05,1117.154 983.078,1120.498 999.109,1098.621" style="fill:none;stroke:black;stroke-width:4.17px;"/>
                <path d="M999.109,1098.621C999.109,1098.621 1092.429,1065.795 1084.509,970.995C1076.59,876.196 1108.25,854.8 1141.379,862.859" style="fill:none;stroke:black;stroke-width:4.17px;"/>
                <path d="M1141.379,862.859L1149.853,840.232C1149.853,840.232 1175.807,803.591 1159.776,765.423" style="fill:none;stroke:black;stroke-width:4.17px;"/>
                <path d="M1159.776,765.423C1159.776,765.423 1177.715,733.744 1169.318,696.721C1169.318,696.721 1181.15,698.248 1183.059,702.828C1184.967,707.408 1192.219,665.042 1145.654,640.233" style="fill:none;stroke:black;stroke-width:4.17px;"/>
                <path d="M1145.654,640.233C1145.654,640.233 1150.234,617.332 1145.654,610.844C1141.074,604.355 1136.112,624.584 1130.005,621.531C1123.899,618.477 1133.765,574.584 1070.244,555.119" style="fill:none;stroke:black;stroke-width:4.17px;"/>
                <path d="M1070.244,555.119C1070.244,555.119 1072.372,572.294 1057.868,578.783C1043.364,585.271 1070.082,524.203 955.96,518.096" style="fill:none;stroke:black;stroke-width:4.17px;"/>
                <path d="M774.73,722.675C774.73,722.675 791.136,669.4 806.403,658.713C806.403,658.713 824.342,688.547 855.957,661.384" style="fill:none;stroke:black;stroke-width:4.17px;"/>
                <path d="M855.957,661.384C855.957,661.384 915.626,716.6 976.186,648.026" style="fill:none;stroke:black;stroke-width:4.17px;"/>
                <path d="M976.186,648.026C976.186,648.026 976.631,674.298 1022.496,676.969" style="fill:none;stroke:black;stroke-width:4.17px;"/>
                <path d="M1022.496,676.969C1022.496,676.969 1037.191,747.325 1086.618,793.636C1086.618,793.636 1076.376,806.164 1074.15,836.889C1071.924,867.614 1060.791,918.823 1052.331,937.97C1043.87,957.118 1038.527,961.125 1031.402,963.797C1024.277,966.469 1021.184,968.25 1013.157,965.578C1005.13,962.906 990.69,948.053 966.262,945.381C941.835,942.709 897.179,943.473 890.308,946.144C883.438,948.816 855.932,967.017 815.344,947.981" style="fill:none;stroke:black;stroke-width:4.17px;"/>
                <path d="M815.344,947.981C815.344,947.981 798.801,957.431 793.791,966.9C788.782,976.369 791.788,955.663 786.778,958" style="fill:none;stroke:black;stroke-width:4.17px;"/>
                <path d="M815.344,1015.109C815.344,1015.109 822.274,1033.834 855.957,1007.272C855.957,1007.272 886.969,1022.813 913.018,1007.272C913.018,1007.272 931.386,1018.783 969.459,1013.439C969.459,1013.439 941.739,1056.521 901.997,1049.174C901.997,1049.174 891.644,1041.826 886.635,1039.155C881.625,1036.483 839.211,1037.151 836.205,1038.487C833.2,1039.823 826.52,1049.174 826.186,1049.174C825.852,1049.174 798.49,1024.46 815.344,1015.109Z" style="fill:none;stroke:black;stroke-width:4.17px;"/>
                <path d="M955.96,518.096C955.96,518.096 962.449,526.875 961.304,532.981C960.159,539.088 893.044,500.157 806.403,559.699" style="fill:none;stroke:black;stroke-width:4.17px;"/>
                <path d="M806.403,559.699C806.403,559.699 821.67,569.441 822.433,579.265C823.197,589.088 789.227,563.134 765.182,619.622" style="fill:none;stroke:black;stroke-width:4.17px;"/>
                <path d="M765.182,619.622C765.182,619.622 780.067,618.096 785.41,628.401C785.41,628.401 743.884,655.5 776.632,722.675" style="fill:none;stroke:black;stroke-width:4.17px;"/>
            </g>
        </g>
    </g>
</svg>
