<?xml version="1.0" encoding="UTF-8" standalone="no"?>
<!DOCTYPE svg PUBLIC "-//W3C//DTD SVG 1.1//EN" "http://www.w3.org/Graphics/SVG/1.1/DTD/svg11.dtd">
<svg width="100%" height="100%" viewBox="0 0 383 328" version="1.1" xmlns="http://www.w3.org/2000/svg" xmlns:xlink="http://www.w3.org/1999/xlink" xml:space="preserve" xmlns:serif="http://www.serif.com/" style="fill-rule:evenodd;clip-rule:evenodd;stroke-linecap:round;stroke-linejoin:round;stroke-miterlimit:1.5;">
    <g transform="matrix(1,0,0,1,-658.499856,-703.275794)">
        <g transform="matrix(1,0,0,1,-507.631906,-125.572103)">
            <path d="M1192.927,928.031L1185.595,936.786L1179.904,947.511L1176.73,958.126L1175.444,962.965L1173.666,962.965L1170.055,949.371L1168.215,934.488L1170.383,919.276L1175.444,904.722L1187.966,887.923L1200.66,875.958L1217.148,865.307L1246.623,850.716L1274.93,841.523L1301.194,835.103L1338.11,830.931L1359.268,830.931L1400.804,835.614L1434.267,844.757L1460.531,856.43L1484.655,871.022L1499.441,883.862L1511.114,895.341L1523.955,913.434L1533.293,931.138L1539.324,949.231L1544.383,977.83L1546.904,996.507L1546.904,1025.495L1540.297,1074.327L1533.099,1119.074L1522.118,1120.798L1512.531,1122.416L1502.694,1125.778L1495.099,1130.385L1488.624,1135.116L1483.395,1140.969L1477.045,1153.046L1465.714,1141.591L1467.333,1122.167L1468.329,1103.366L1466.71,1077.965L1463.348,1063.273L1457.621,1046.713L1450.648,1036.503L1446.29,1029.281L1443.177,1013.592L1440.936,985.577L1445.169,956.815L1449.403,935.399L1452.142,923.196L1426.933,928.804L1412.19,931.593L1390.94,933.319L1378.854,933.718L1369.956,933.054L1374.206,937.171L1383.635,941.686L1391.737,944.077C1391.737,944.077 1386.823,946.335 1384.964,946.866C1383.104,947.397 1355.745,956.03 1355.745,956.03L1336.752,959.351L1319.354,961.608L1299.565,962.965L1276.322,961.741L1253.213,958.421L1235.283,953.241L1217.619,945.272L1203.939,936.374L1192.927,928.031Z" style="fill:rgb(24,14,0);"/>
            <g>
                <path d="M1173.853,962.965C1173.853,962.965 1144.868,907.178 1218.341,864.875C1291.814,822.572 1425.317,808.323 1507.112,890.702C1507.112,890.702 1531.465,917.419 1537.254,942.801C1543.043,968.183 1550.167,986.82 1545.269,1032.304C1540.371,1077.789 1535.028,1114.303 1532.801,1119.646C1532.801,1119.646 1487.063,1118.631 1476.758,1154.474L1465.308,1141.845C1465.308,1141.845 1473.323,1096.806 1463.018,1061.31C1452.712,1025.814 1444.697,1053.295 1440.88,987.647C1440.88,987.647 1445.46,938.028 1452.712,924.67" style="fill:none;stroke:black;stroke-width:4.17px;"/>
                <path d="M1475.231,916.273C1475.231,916.273 1413.018,937.647 1366.453,932.685C1366.453,932.685 1382.908,944.475 1393.595,943.584C1393.595,943.584 1273.151,995.713 1193.077,927.85C1193.077,927.85 1178.498,940.446 1175.444,962.965" style="fill:none;stroke:black;stroke-width:4.17px;"/>
            </g>
        </g>
    </g>
</svg>
