<?xml version="1.0" encoding="UTF-8" standalone="no"?>
<!DOCTYPE svg PUBLIC "-//W3C//DTD SVG 1.1//EN" "http://www.w3.org/Graphics/SVG/1.1/DTD/svg11.dtd">
<svg width="100%" height="100%" viewBox="0 0 384 581" version="1.1" xmlns="http://www.w3.org/2000/svg" xmlns:xlink="http://www.w3.org/1999/xlink" xml:space="preserve" xmlns:serif="http://www.serif.com/" style="fill-rule:evenodd;clip-rule:evenodd;stroke-linecap:round;stroke-linejoin:round;stroke-miterlimit:1.5;">
    <g transform="matrix(1,0,0,1,-704.017378,-645.463234)">
        <g>
            <path d="M734.808,734.671L724.07,752.588L716.496,770.504L712.613,759.851L706.101,737.109L706.101,721.036L710.39,711.973L718.94,704.62L752.967,680.682L780.668,666.147L813.327,654.52L850.604,647.547L884.46,647.547L915.41,650.758L944.991,656.572L985.516,671.448L1007.556,682.562L1035.959,703.936L1051.69,721.72L1069.131,752.588L1080.588,780.028L1085.454,801.915L1085.454,839.533L1081.785,894.763L1076.313,930.843L1074.261,935.305L1065.711,935.305L1055.11,937.511L1040.576,943.496L1023.385,959.573L1020.398,988.296L1015.611,1034.806L1015.44,1066.823L1015.098,1081.315L1007.556,1108.503L998.17,1124.576L984.148,1141.675L970.811,1153.645L938.664,1179.636L913.016,1195.709L884.118,1211.44L866.335,1217.425L843.593,1222.042L819.996,1224.093L802.384,1224.093L788.534,1221.7L772.631,1217.254L762.543,1211.098L754.335,1203.232L747.496,1186.817L744.931,1172.454L744.589,1156.894L745.615,1141.675L748.693,1127.996L752.283,1136.204L758.097,1143.556L767.844,1150.054L773.315,1150.225L776.564,1147.831L779.642,1141.504L783.233,1138.256L790.073,1136.204L799.306,1134.836L806.659,1135.007L817.944,1137.572L837.095,1144.582L854.023,1151.251L862.402,1155.355L871.636,1155.697L881.211,1152.619L901.901,1142.017L913.529,1132.613L921.907,1123.208L926.695,1114.146L928.918,1106.964L928.405,1100.466L924.814,1083.709L917.461,1072.082L909.425,1065.242L903.953,1063.532L884.631,1062.848L860.35,1066.823L827.007,1069.517L806.146,1070.714L777.932,1070.372L755.019,1069.346L731.935,1066.823L727.632,1069.517L727.632,1046.262L732.448,1039.935L745.273,1031.215L758.952,1026.085L766.647,1028.65L778.958,1032.241L790.073,1031.728L800.161,1030.36L813.327,1024.546L836.411,1022.323L874.016,1020.613L889.077,1022.152L907.715,1027.795L921.565,1035.49L932.509,1044.381L947.385,1061.651L950.976,1066.823L956.106,1063.703L966.023,1054.128L984.319,1024.888L995.605,997.7L1001.76,972.736L1005.009,948.113L1007.556,900.577L1005.522,880.571L998.854,845.86L992.014,822.092L986.542,795.246L986.542,778.831L990.304,763.442L995.605,749.933L997.828,744.351L991.501,741.042L958.499,734.671L932.338,730.44L908.912,729.756L880.527,730.44L861.205,734.671L839.147,738.477L817.602,741.726L797.596,741.897L778.787,740.187L757.242,737.793L734.808,734.671Z" style="fill:rgb(56,41,21);"/>
            <g>
                <path d="M716.617,770.085C716.617,770.085 695.91,726.335 712.609,709.971C729.307,693.606 788.42,653.864 838.849,649.189C889.278,644.513 924.679,650.191 958.076,661.545C991.472,672.9 1025.871,686.927 1050.585,721.994C1075.298,757.06 1080.976,779.102 1084.316,797.805C1087.655,816.507 1083.425,914.822 1074.519,935.305" style="fill:none;stroke:black;stroke-width:4.17px;"/>
                <path d="M1074.519,935.305C1074.519,935.305 1047.728,928.106 1023.385,959.573" style="fill:none;stroke:black;stroke-width:4.17px;"/>
                <path d="M1023.385,959.573C1023.385,959.573 1014.479,1018.945 1015.37,1059.022C1016.26,1099.098 1003.198,1119.581 988.949,1135.909C974.7,1152.236 929.874,1188.453 899.297,1203.593C868.721,1218.733 840.519,1223.779 815.879,1224.076C791.24,1224.373 759.773,1221.108 749.382,1192.609C738.992,1164.11 749.913,1119.115 749.531,1127.893C749.149,1136.672 766.155,1152.83 773.874,1150.158C781.592,1147.486 774.17,1139.471 789.607,1136.502C805.044,1133.534 810.684,1135.018 834.73,1143.627C858.776,1152.236 862.538,1157.876 874.016,1154.908C885.493,1151.939 930.913,1130.565 928.835,1102.363C926.757,1074.162 906.867,1062.287 905.977,1063.771C905.086,1065.256 899.446,1059.912 850.167,1066.74C800.888,1073.568 799.047,1070.08 776.07,1069.545C753.093,1069.011 733.322,1066.339 731.185,1067.141C729.048,1067.942 727.712,1070.347 727.712,1070.347C727.712,1070.347 727.07,1046.969 729.422,1042.908C731.773,1038.847 748.231,1029.015 755.712,1027.091C763.192,1025.168 756.567,1026.023 762.338,1027.305C768.108,1028.587 772.597,1030.725 776.658,1031.366C780.719,1032.007 792.261,1032.862 802.093,1029.229C811.925,1025.595 812.139,1024.74 817.269,1024.313C822.398,1023.885 861.939,1019.824 874.016,1020.679C886.093,1021.534 922.963,1023.11 949.36,1065.778" style="fill:none;stroke:black;stroke-width:4.17px;"/>
                <path d="M949.36,1065.778C949.36,1065.778 950.471,1070.374 960.047,1060.285C969.622,1050.197 988.303,1020.423 991.509,1010.804C994.715,1001.186 1002.624,973.827 1003.265,964.85C1003.906,955.873 1010.105,909.198 1006.364,882.213C1002.624,855.228 989.799,817.824 988.196,806.87C986.593,795.916 983.12,773.206 998.616,744.351" style="fill:none;stroke:black;stroke-width:4.17px;"/>
                <path d="M998.616,744.351C998.616,744.351 968.396,729.582 901.305,729.879C834.215,730.176 842.823,753.373 734.808,734.671" style="fill:none;stroke:black;stroke-width:4.17px;"/>
                <path d="M734.808,734.671C734.808,734.671 723.977,748.596 716.496,770.504" style="fill:none;stroke:black;stroke-width:4.17px;"/>
            </g>
        </g>
    </g>
</svg>
