<?xml version="1.0" encoding="UTF-8" standalone="no"?>
<!DOCTYPE svg PUBLIC "-//W3C//DTD SVG 1.1//EN" "http://www.w3.org/Graphics/SVG/1.1/DTD/svg11.dtd">
<svg width="100%" height="100%" viewBox="0 0 381 362" version="1.1" xmlns="http://www.w3.org/2000/svg" xmlns:xlink="http://www.w3.org/1999/xlink" xml:space="preserve" xmlns:serif="http://www.serif.com/" style="fill-rule:evenodd;clip-rule:evenodd;stroke-linecap:round;stroke-linejoin:round;stroke-miterlimit:1.5;">
    <g transform="matrix(1,0,0,1,-718.883756,-457.935239)">
        <g transform="matrix(1,0,0,1,320.609623,-90.839393)">
            <path d="M411.433,663.206L404.753,676.831L402.22,692.06L400.357,705.686L400.357,721.717L402.22,733.908L406.356,720.114L412.501,703.498L424.524,681.106L429.868,673.303L435.807,676.03L452.872,682.442L469.394,686.8L492.921,679.77L508.453,677.446L533.745,673.303L579.699,673.303L606.417,675.736L637.409,681.08L672.249,688.774L692.554,697.965L700.248,703.498L695.76,709.934L682.081,735.797L669.256,769.995L674.6,777.262L689.134,804.835L704.951,834.758L700.462,900.804L710.042,908.02L714.398,902.022L727.393,885.778L737.824,877.913L747.912,875.006L755.094,876.716L762.618,878.767L765.183,878.767L767.064,874.835L773.39,829.864L776.596,783.183L776.596,713.76L772.535,679.733L767.918,656.478L757.317,624.161L747.228,609.968L739.192,601.932L731.155,596.973L723.632,595.434L707.387,593.211L682.081,586.884L644.291,577.309L617.104,569.272L585.128,558.842L565.635,554.225L538.106,550.858L514.167,550.858L493.99,553.37L472.958,556.568L456.884,563.63L440.811,572.863L425.251,585.688L411.743,600.393L404.903,613.73L402.22,628.264L402.22,640.063L405.416,651.006L411.433,663.206Z" style="fill:rgb(30,22,11);"/>
            <g>
                <path d="M401.531,730.905C401.531,730.905 395.424,686.63 411.073,663.348" style="fill:none;stroke:black;stroke-width:4.17px;"/>
                <path d="M411.073,663.348C411.073,663.348 369.027,607.193 460.503,561.44" style="fill:none;stroke:black;stroke-width:4.17px;"/>
                <path d="M460.503,561.44C460.503,561.44 526.836,532.647 618.344,570.051" style="fill:none;stroke:black;stroke-width:4.17px;"/>
                <path d="M618.344,570.051C618.344,570.051 691.149,591.759 723.544,595.767" style="fill:none;stroke:black;stroke-width:4.17px;"/>
                <path d="M723.544,595.767C723.544,595.767 757.274,597.074 770.633,668.906C783.992,740.738 771.301,853.654 767.293,873.693C763.286,893.731 748.019,848.502 710.042,908.02" style="fill:none;stroke:black;stroke-width:4.17px;"/>
                <path d="M710.042,908.02L700.351,901.635L704.804,834.841C704.804,834.841 676.862,778.141 670.944,773.391C665.025,768.641 690.852,714.612 699.461,705.113C708.07,695.613 577.488,651.455 469.394,686.8" style="fill:none;stroke:black;stroke-width:4.17px;"/>
                <path d="M469.394,686.8C469.394,686.8 434.824,677.474 430.965,673.303C427.107,669.132 401.565,726.895 402.233,733.908" style="fill:none;stroke:black;stroke-width:4.17px;"/>
                <path d="M469.394,686.8C469.394,686.8 394.378,548.736 564.034,556.918" style="fill:none;stroke:black;stroke-width:4.17px;"/>
            </g>
        </g>
    </g>
</svg>
