<?xml version="1.0" encoding="UTF-8" standalone="no"?>
<svg width="100%" height="100%" viewBox="0 0 662 538" version="1.1" xmlns="http://www.w3.org/2000/svg" xmlns:xlink="http://www.w3.org/1999/xlink" xml:space="preserve" xmlns:serif="http://www.serif.com/" style="fill-rule:evenodd;clip-rule:evenodd;stroke-linecap:round;stroke-linejoin:round;stroke-miterlimit:1.5;">
    <g transform="matrix(1,0,0,1,-581.976238,-777.362395)">
        <g>
            <g id="l-hand" serif:id="l hand" transform="matrix(1,0,0,1,117.684086,8.47988)">
                <g>
                    <path d="M601.863,853.941C601.863,853.941 689.408,870.421 648.174,1003.083L638.587,1029.058L618.883,1079.171L603.255,1121.801C603.255,1121.801 589.628,1192.869 583.483,1213.442C583.483,1213.442 577.337,1234.816 577.605,1244.434C577.605,1244.434 575.734,1261.266 573.864,1265.274C573.864,1265.274 568.724,1274.633 558.336,1275.698C558.336,1275.698 549.017,1303.185 547.948,1304.401C547.948,1304.401 519.695,1279.983 476.613,1287.449L475.281,1258.674L466.375,1243.071C466.375,1243.071 467.372,1232.598 475.708,1217.85L478.487,1188.354C478.487,1188.354 480.731,1129.549 493.556,1098.022C493.556,1098.022 509.586,1054.206 509.052,1041.381C509.052,1041.381 521.876,965.504 525.884,952.946C525.884,952.946 545.079,858.524 599.395,853.406C651.611,848.486 601.863,853.941 601.863,853.941Z" style="fill:rgb(220,220,220);"/>
                    <g transform="matrix(1,0,0,1,-117.684086,-8.47988)">
                        <path d="M593.67,1267.298C593.67,1267.298 640.675,1245.308 676.02,1284.177L665.486,1312.881C665.486,1312.881 657.621,1303.207 632.143,1297.735C632.143,1297.735 602.219,1293.289 594.012,1295.683L593.67,1267.298Z" style="fill:rgb(117,140,178);"/>
                    </g>
                </g>
                <path d="M581.869,858.419C581.869,858.419 544.001,865.908 520.401,980.607C520.401,980.607 504.854,1069.709 498.365,1084.976C498.365,1084.976 481.571,1126.198 480.045,1168.564C480.045,1168.564 478.518,1205.868 475.464,1217.369C475.464,1217.369 465.159,1236.502 466.495,1243.026C466.495,1243.026 472.84,1255.563 475.512,1258.568C475.512,1258.568 475.178,1281.946 475.846,1287.29C475.846,1287.29 523.604,1283.105 547.315,1304.401C547.315,1304.401 556.666,1282.14 558.336,1275.698C558.336,1275.698 533.289,1240.2 475.512,1258.568" style="fill:none;stroke:black;stroke-width:4.17px;"/>
                <path d="M558.336,1275.698C558.336,1275.698 572.697,1271.787 574.367,1263.675C574.367,1263.675 578.708,1224.504 584.052,1208.139C584.052,1208.139 601.418,1143.015 601.084,1122.977C601.084,1122.977 626.132,1060.859 633.813,1040.821C633.813,1040.821 647.506,1008.092 648.174,1003.083" style="fill:none;stroke:black;stroke-width:4.17px;"/>
            </g>
            <g>
                <g>
                    <path d="M801.179,809.876L795.916,809.876L783.458,815.474L762.084,826.414L731.359,844.047C731.359,844.047 696.076,867.88 693.546,871.326C693.546,871.326 682.433,886.278 690.598,932.87C690.598,932.87 676.054,975.722 675.252,982.134C675.252,982.134 672.848,1013.66 675.252,1022.21C675.252,1022.21 653.611,1070.836 650.138,1084.195C650.138,1084.195 626.894,1148.584 630.367,1178.507C630.367,1178.507 628.23,1200.148 626.626,1211.904C626.626,1211.904 621.016,1241.56 622.886,1245.568L628.23,1251.567L628.764,1255.454L629.833,1273.621C629.833,1273.621 670.977,1297.934 681.13,1294.728C681.13,1294.728 694.222,1207.629 697.428,1198.545C697.428,1198.545 718,1092.243 725.681,1075.211C725.681,1075.211 765.424,945.631 777.113,923.589C777.113,923.589 809.842,847.785 813.515,840.601C813.515,840.601 812.313,817.608 823.214,800.081L824.282,795.379L819.794,795.593C819.794,795.593 804.152,809.412 801.179,809.876Z" style="fill:rgb(117,140,178);"/>
                    <path d="M997.791,779.446L997.791,785.389C997.791,785.389 996.295,797.573 980.479,809.876C964.662,822.179 952.051,832.482 920.418,845.498L907.807,850.179C907.807,850.179 900.754,864.714 896.906,876.256C893.059,887.797 867.731,971.971 862.254,1057.033C862.254,1057.033 856.189,1130.362 856.574,1163.091C856.574,1163.091 858.193,1278.156 859.913,1294.431C859.913,1294.431 912.13,1294.842 936.442,1290.033C936.442,1290.033 1071.06,1273.733 1119.759,1251.809C1119.759,1251.809 1117.664,1233.585 1119.759,1228.027C1119.759,1228.027 1123.351,1216.699 1124.42,1213.493C1124.42,1213.493 1120.479,1186.939 1128.494,1123.275C1128.494,1123.275 1139.657,1024.628 1147.768,999.538C1155.879,974.449 1210.873,891.124 1144.079,853.719C1144.079,853.719 1056.738,818.39 1039.372,807.369L1024.771,802.007L1022.51,802.007L1005.678,783.787L1001.136,779.446L997.791,779.446Z" style="fill:rgb(117,140,178);"/>
                    <path d="M825.225,795.379L824.282,802.007C824.282,802.007 816.695,803.482 813,839.01L807.969,834.221C807.969,834.221 801.062,831.015 800.775,810.923C800.775,810.923 815.45,801.318 819.084,795.754L825.225,795.379Z" style="fill:rgb(220,220,220);"/>
                    <path d="M998.287,779.446C998.287,779.446 1006.035,809.78 922.142,845.498C922.142,845.498 960.508,844.694 982.523,831.87C982.523,831.87 1021.92,810.496 1024.771,803.656C1024.771,803.656 1011.378,792.328 1007.958,786.771L1003.684,779.446L998.287,779.446Z" style="fill:rgb(220,220,220);"/>
                    <path d="M996.407,1070.96C996.407,1070.96 1009.766,1136.752 1067.208,1179.5L1061.048,1190.969C1061.048,1190.969 1042.613,1184.276 1011.354,1146.871C1011.354,1146.871 988.984,1117.981 981.229,1075.268L996.407,1070.96Z" style="fill:rgb(220,220,220);"/>
                    <path d="M659.923,1080.038L670.162,1084.194C670.162,1084.194 649.087,1127.313 629.94,1200.861L628.604,1190.969L631.275,1174.83L639.625,1140.765L646.371,1112.712L652.649,1095.345L656.323,1083.322L659.923,1080.038Z" style="fill:rgb(220,220,220);"/>
                    <path d="M628.604,1251.567C628.604,1251.567 635.617,1263.164 683.709,1273.258L681.334,1294.44C681.334,1294.44 657.511,1293.147 628.604,1272.664L628.604,1251.567Z" style="fill:rgb(220,220,220);"/>
                    <path d="M856.556,1269.677C856.556,1269.677 856.777,1293.487 856.574,1294.44C856.574,1294.44 913.479,1295.058 938.86,1290.049C938.86,1290.049 1026.026,1281.366 1064.098,1268.341C1064.098,1268.341 1118.311,1253.161 1119.759,1251.567C1119.759,1251.567 1117.644,1235.278 1119.759,1227.931C1119.759,1227.931 1097.161,1235.686 1082.133,1240.157C1082.133,1240.157 1004.652,1260.994 960.568,1263.665L856.556,1269.677Z" style="fill:rgb(220,220,220);"/>
                </g>
                <path d="M1024.771,802.007L1031.339,803.788C1031.339,803.788 1122.179,846.536 1142.959,853.364" style="fill:none;stroke:black;stroke-width:4.17px;"/>
                <path d="M917.806,845.498L907.464,850.099C907.464,850.099 880.682,897.299 862.426,1048.476C862.426,1048.476 852.852,1113.711 858.195,1294.388C858.195,1294.388 985.103,1297.438 1118.958,1252.152C1118.958,1252.152 1117.622,1231.98 1119.759,1226.637C1119.759,1226.637 1022.783,1269.939 857.532,1269.395" style="fill:none;stroke:black;stroke-width:4.17px;"/>
                <path d="M1119.759,1226.637C1119.759,1226.637 1122.431,1223.965 1124.568,1213.278C1124.568,1213.278 1123.5,1185.492 1124.568,1169.461C1124.568,1169.461 1131.96,1063.126 1147.768,999.538" style="fill:none;stroke:black;stroke-width:4.17px;"/>
                <path d="M996.057,1069.965C996.057,1069.965 1008.648,1134.795 1068.144,1179.881L1060.847,1190.969C1060.847,1190.969 999.931,1162.114 981.229,1074.481L996.057,1069.965Z" style="fill:none;stroke:black;stroke-width:4.17px;"/>
                <path d="M822.935,802.007C822.935,802.007 813.774,812.8 813.393,839.01C813.393,839.01 798.125,831.25 801.179,809.876C801.179,809.876 816.064,800.334 819.881,795.754L825.225,795.754L822.935,802.007Z" style="fill:none;stroke:black;stroke-width:4.17px;"/>
                <path d="M801.179,809.876L796.217,810.258C796.217,810.258 756.904,824.38 693.546,871.326" style="fill:none;stroke:black;stroke-width:4.17px;"/>
                <path d="M813,840.601C813,840.601 757.35,954.468 724.398,1078.482C724.398,1078.482 705.161,1137.617 681.383,1294.849" style="fill:none;stroke:black;stroke-width:4.17px;"/>
                <path d="M681.383,1294.849C681.383,1294.849 660.365,1292.801 629.729,1273.252L627.948,1251.567C627.948,1251.567 644.513,1267.063 681.383,1272.406" style="fill:none;stroke:black;stroke-width:4.17px;"/>
                <path d="M627.948,1251.567C627.948,1251.567 622.159,1249.721 622.604,1240.157C622.604,1240.157 627.503,1208.329 627.948,1198.087C628.393,1187.846 650.391,1088.985 659.475,1080.015L670.162,1084.404C670.162,1084.404 657.498,1095.265 626.96,1215.318" style="fill:none;stroke:black;stroke-width:4.17px;"/>
                <path d="M631.041,1180.18C631.041,1180.18 620.165,1141.669 675.508,1023.206C675.508,1023.206 670.432,984.561 681.383,963.187C681.383,963.187 694.115,923.556 699.013,915.986" style="fill:none;stroke:black;stroke-width:4.17px;"/>
                <path d="M691.789,932.87C691.789,932.87 681.399,897.455 693.546,871.326" style="fill:none;stroke:black;stroke-width:4.17px;"/>
                <path d="M998.34,782.891C998.34,782.891 999.103,814.189 917.806,845.487C917.806,845.487 978.35,847.371 1024.771,803.287C1024.771,803.287 1015.903,796.961 1003.138,780.336L997.497,779.446L998.34,782.891Z" style="fill:none;stroke:black;stroke-width:4.17px;"/>
            </g>
            <g id="r-hand" serif:id="r hand" transform="matrix(1,0,0,1,-116.21216,-10.603583)">
                <g>
                    <path d="M1245.175,860.497C1245.175,860.497 1153.785,839.542 1169.921,995.355L1169.921,1002.051L1173.701,1013.072L1215.781,1144.322L1215.41,1147.606C1215.41,1147.606 1210.957,1197.775 1216.3,1217.071C1216.3,1217.071 1215.41,1250.023 1213.925,1253.882C1213.925,1253.882 1220.456,1266.053 1223.425,1269.616C1223.425,1269.616 1224.612,1300.891 1225.503,1304.401C1225.503,1304.401 1301.759,1298.042 1314.858,1315.602L1327.623,1279.727C1327.623,1279.727 1339.98,1274.384 1340.982,1268.706C1340.982,1268.706 1345.657,1223.621 1346.993,1217.275C1346.993,1217.275 1355.442,1159.499 1356.728,1155.157C1356.728,1155.157 1359.066,1110.739 1358.039,1102.724C1358.039,1102.724 1343.653,1008.879 1339.646,999.862C1339.646,999.862 1325.953,929.395 1316.602,918.708C1316.602,918.708 1298.568,871.502 1249.14,862.543L1245.175,860.497Z" style="fill:rgb(220,220,220);"/>
                    <g transform="matrix(1,0,0,1,116.21216,10.603583)">
                        <path d="M1146.943,855.953C1146.943,855.953 1132.339,853.875 1108.887,868.124C1108.887,868.124 1088.701,881.78 1070.295,923.934C1070.295,923.934 1054.341,975.829 1053.709,987.184C1053.709,987.184 1039.051,898.348 1079.127,863.616C1079.127,863.616 1108.892,834.932 1146.943,855.953Z" style="fill:rgb(117,140,178);"/>
                    </g>
                    <g transform="matrix(1,0,0,1,116.21216,10.603583)">
                        <path d="M1107.218,1260.686L1109.592,1294.44C1109.592,1294.44 1173.714,1284.893 1199.541,1304.999C1199.541,1304.999 1209.041,1273.154 1211.416,1269.888C1211.416,1269.888 1203.4,1249.999 1166.59,1247.03C1166.59,1247.03 1139.575,1245.546 1107.218,1260.686Z" style="fill:rgb(117,140,178);"/>
                    </g>
                </g>
                <path d="M1169.921,1003.083C1169.921,1003.083 1213.738,1133.007 1215.341,1145.832C1215.341,1145.832 1211.066,1189.871 1216.41,1217.034C1216.41,1217.034 1215.201,1249.19 1213.674,1254.915C1213.674,1254.915 1219.018,1265.221 1223.598,1270.564C1223.598,1270.564 1224.361,1299.306 1225.125,1304.401C1225.125,1304.401 1293.063,1297.282 1315.582,1315.602C1315.582,1315.602 1326.651,1284.686 1328.178,1279.725C1328.178,1279.725 1340.392,1273.999 1341.155,1266.366C1341.155,1266.366 1347.262,1206.061 1350.697,1192.702C1350.697,1192.702 1360.239,1144.992 1357.567,1106.061C1357.567,1106.061 1349.17,1034.265 1331.995,962.932C1331.995,962.932 1316.346,878.239 1254.514,863.354C1254.514,863.354 1252.749,860.968 1247.787,860.205" style="fill:none;stroke:black;stroke-width:4.17px;"/>
                <path d="M1266.928,867.495C1266.928,867.495 1192.23,849.381 1169.921,1003.083" style="fill:none;stroke:black;stroke-width:4.17px;"/>
                <path d="M1327.51,1279.151C1327.51,1279.151 1292.777,1238.54 1225.984,1270.067" style="fill:none;stroke:black;stroke-width:4.17px;"/>
                <path d="M1245.754,1143.96C1245.754,1143.96 1273.541,1108.693 1293.312,1099.609" style="fill:none;stroke:black;stroke-width:4.17px;"/>
            </g>
        </g>
    </g>
</svg>
