<?xml version="1.0" encoding="UTF-8" standalone="no"?>
<!DOCTYPE svg PUBLIC "-//W3C//DTD SVG 1.1//EN" "http://www.w3.org/Graphics/SVG/1.1/DTD/svg11.dtd">
<svg width="100%" height="100%" viewBox="0 0 688 603" version="1.1" xmlns="http://www.w3.org/2000/svg" xmlns:xlink="http://www.w3.org/1999/xlink" xml:space="preserve" xmlns:serif="http://www.serif.com/" style="fill-rule:evenodd;clip-rule:evenodd;stroke-linecap:round;stroke-linejoin:round;stroke-miterlimit:1.5;">
    <g transform="matrix(1,0,0,1,-557.930517,-712.782776)">
        <g>
            <g id="l-hand" serif:id="l hand" transform="matrix(1,0,0,1,93.638364,8.408656)">
                <path d="M601.863,853.941C601.863,853.941 689.408,870.421 648.174,1003.083L638.587,1029.058L618.883,1079.171L603.255,1121.801C603.255,1121.801 589.628,1192.869 583.483,1213.442C583.483,1213.442 577.337,1234.816 577.605,1244.434C577.605,1244.434 575.734,1261.266 573.864,1265.274C573.864,1265.274 568.724,1274.633 558.336,1275.698C558.336,1275.698 549.017,1303.185 547.948,1304.401C547.948,1304.401 519.695,1279.983 476.613,1287.449L475.281,1258.674L466.375,1243.071C466.375,1243.071 467.372,1232.598 475.708,1217.85L478.487,1188.354C478.487,1188.354 480.731,1129.549 493.556,1098.022C493.556,1098.022 509.586,1054.206 509.052,1041.381C509.052,1041.381 521.876,965.504 525.884,952.946C525.884,952.946 545.88,853.715 598.327,853.941C650.773,854.166 601.863,853.941 601.863,853.941Z" style="fill:rgb(43,43,43);"/>
                <path d="M598.327,854.145C598.327,854.145 544.001,843.252 520.401,980.607C520.401,980.607 504.854,1069.709 498.365,1084.976C498.365,1084.976 481.571,1126.198 480.045,1168.564C480.045,1168.564 478.518,1205.868 475.464,1217.369C475.464,1217.369 465.159,1236.502 466.495,1243.026C466.495,1243.026 472.84,1255.563 475.512,1258.568C475.512,1258.568 475.178,1281.946 475.846,1287.29C475.846,1287.29 523.604,1283.105 547.315,1304.401C547.315,1304.401 556.666,1282.14 558.336,1275.698C558.336,1275.698 533.289,1240.2 475.512,1258.568" style="fill:none;stroke:black;stroke-width:4.17px;"/>
                <path d="M558.336,1275.698C558.336,1275.698 572.697,1271.787 574.367,1263.675C574.367,1263.675 578.708,1224.504 584.052,1208.139C584.052,1208.139 601.418,1143.015 601.084,1122.977C601.084,1122.977 626.132,1060.859 633.813,1040.821C633.813,1040.821 647.506,1008.092 648.174,1003.083" style="fill:none;stroke:black;stroke-width:4.17px;"/>
            </g>
            <g id="body">
                <path d="M680.268,863.941C680.268,863.941 650.497,885.315 673.398,926.918C673.398,926.918 655.984,973.459 661.661,1008.192L654.982,1024.222L646.299,1043.259C646.299,1043.259 612.234,1133.764 612.902,1172.838L608.83,1180.186L605.555,1197.552C605.555,1197.552 599.414,1229.996 608.83,1240.157L611.232,1268.112L623.107,1277.909L637.356,1285.33C637.356,1285.33 693.759,1309.241 785.935,1304.401C785.935,1304.401 878.11,1299.895 922.528,1290.21C922.528,1290.21 1077.155,1262.49 1086.84,1255.477L1107.212,1250.801L1110.886,1207.386L1116.229,1129.237L1124.245,1040.067L1133.166,994.314C1133.166,994.314 1206.543,893.455 1133.166,851.041L1082.944,823.674L1024.611,795.03L1025.305,789.126L1024.237,778.582L1016.115,764.118L1015.687,751.08L1017.611,738.683L1019.535,732.912L1017.825,726.714L1011.84,721.798L985.977,715.386L985.764,726.286L985.764,760.271L962.466,775.66C962.466,775.66 859.211,824.302 843.617,827.981C843.617,827.981 819.157,811.407 806.919,795.03L806.566,770.873C806.566,770.873 801.52,773.95 793.825,768.607C793.825,768.607 785.276,759.202 785.062,756.21C785.062,756.21 770.314,761.981 770.741,769.034C770.741,769.034 776.726,789.981 774.161,797.462L772.879,806.866L727.352,830.591L696.146,850.897L680.268,863.941Z" style="fill:rgb(43,43,43);"/>
                <path d="M843.617,827.981C843.617,827.981 1036.243,755.076 1005.666,729.182M806.213,770.873C806.213,770.873 807.697,790.354 806.361,795.03" style="fill:none;stroke:black;stroke-width:4.17px;"/>
                <path d="M985.183,714.866C985.183,714.866 985.215,756.468 985.496,761.049" style="fill:none;stroke:black;stroke-width:4.17px;"/>
                <path d="M985.183,714.866C985.183,714.866 1026.743,719.191 1018.431,737.957C1018.431,737.957 1012.791,757.614 1017.541,767.707C1017.541,767.707 1031.196,787.894 1021.994,796.8C1021.994,796.8 980.051,828.818 867.032,838.657" style="fill:none;stroke:black;stroke-width:4.17px;"/>
                <path d="M784.839,770.873C784.839,770.873 828.589,821.97 843.617,827.981" style="fill:none;stroke:black;stroke-width:4.17px;"/>
                <path d="M784.839,755.691C784.839,755.691 770.387,761.741 769.853,770.873C769.853,770.873 777.868,782.141 772.257,805.92C772.257,805.92 777.868,828.112 828.364,834.115" style="fill:none;stroke:black;stroke-width:4.17px;"/>
                <path d="M784.839,755.691C784.839,755.691 790.474,774.432 806.213,770.873" style="fill:none;stroke:black;stroke-width:4.17px;"/>
                <path d="M769.853,807.491C769.853,807.491 702.499,841.46 679.599,863.979" style="fill:none;stroke:black;stroke-width:4.17px;"/>
                <path d="M608.83,1240.157C609.227,1249.767 610.091,1259.265 611.507,1268.533C611.507,1268.533 678.301,1360.084 1108.452,1250.654C1108.452,1250.654 1120.698,1024.558 1133.166,993.387M684.535,904.952C684.535,904.952 654.7,952.153 661.825,1009.596C661.825,1009.596 657.818,1019.392 648.912,1037.649C642.741,1050.298 620.24,1110.936 611.798,1178.39" style="fill:none;stroke:black;stroke-width:4.17px;"/>
                <path d="M1025.18,794.903C1025.18,794.903 1117.803,841.877 1133.166,850.56" style="fill:none;stroke:black;stroke-width:4.17px;"/>
                <path d="M724.726,1010.976C724.726,1010.976 809.662,978.915 906.735,1019.882" style="fill:none;stroke:black;stroke-width:4.17px;"/>
                <path d="M608.569,1240.157C608.569,1240.157 727.951,1317.559 1110.011,1217.369" style="fill:none;stroke:black;stroke-width:4.17px;"/>
                <path d="M608.569,1240.157C608.569,1240.157 582.57,1192.766 653.924,1116.622C653.924,1116.622 819.458,1123.301 879.572,1123.301C879.572,1123.301 916.977,1217.257 1007.148,1202.674" style="fill:none;stroke:black;stroke-width:4.17px;"/>
            </g>
            <g id="r-hand" serif:id="r hand" transform="matrix(1,0,0,1,-114.885112,-10.554751)">
                <path d="M1245.175,860.497C1245.175,860.497 1153.785,839.542 1169.921,995.355L1169.921,1002.051L1173.701,1013.072L1215.781,1144.322L1215.41,1147.606C1215.41,1147.606 1210.957,1197.775 1216.3,1217.071C1216.3,1217.071 1215.41,1250.023 1213.925,1253.882C1213.925,1253.882 1220.456,1266.053 1223.425,1269.616C1223.425,1269.616 1224.612,1300.891 1225.503,1304.401C1225.503,1304.401 1301.759,1298.042 1314.858,1315.602L1327.623,1279.727C1327.623,1279.727 1339.98,1274.384 1340.982,1268.706C1340.982,1268.706 1345.657,1223.621 1346.993,1217.275C1346.993,1217.275 1355.442,1159.499 1356.728,1155.157C1356.728,1155.157 1359.066,1110.739 1358.039,1102.724C1358.039,1102.724 1343.653,1008.879 1339.646,999.862C1339.646,999.862 1325.953,929.395 1316.602,918.708C1316.602,918.708 1298.568,871.502 1249.14,862.543L1245.175,860.497Z" style="fill:rgb(43,43,43);"/>
                <path d="M1169.921,1003.083C1169.921,1003.083 1213.738,1133.007 1215.341,1145.832C1215.341,1145.832 1211.066,1189.871 1216.41,1217.034C1216.41,1217.034 1215.201,1249.19 1213.674,1254.915C1213.674,1254.915 1219.018,1265.221 1223.598,1270.564C1223.598,1270.564 1224.361,1299.306 1225.125,1304.401C1225.125,1304.401 1293.063,1297.282 1315.582,1315.602C1315.582,1315.602 1326.651,1284.686 1328.178,1279.725C1328.178,1279.725 1340.392,1273.999 1341.155,1266.366C1341.155,1266.366 1347.262,1206.061 1350.697,1192.702C1350.697,1192.702 1360.239,1144.992 1357.567,1106.061C1357.567,1106.061 1349.17,1034.265 1331.995,962.932C1331.995,962.932 1316.346,878.239 1254.514,863.354C1254.514,863.354 1245.735,860.3 1240.774,859.537" style="fill:none;stroke:black;stroke-width:4.17px;"/>
                <path d="M1266.928,867.495C1266.928,867.495 1192.23,849.381 1169.921,1003.083" style="fill:none;stroke:black;stroke-width:4.17px;"/>
                <path d="M1327.51,1279.151C1327.51,1279.151 1292.777,1238.54 1225.984,1270.067" style="fill:none;stroke:black;stroke-width:4.17px;"/>
                <path d="M1245.754,1143.96C1245.754,1143.96 1273.541,1108.693 1293.312,1099.609" style="fill:none;stroke:black;stroke-width:4.17px;"/>
            </g>
        </g>
    </g>
</svg>
