<?xml version="1.0" encoding="UTF-8" standalone="no"?>
<!DOCTYPE svg PUBLIC "-//W3C//DTD SVG 1.1//EN" "http://www.w3.org/Graphics/SVG/1.1/DTD/svg11.dtd">
<svg width="100%" height="100%" viewBox="0 0 688 603" version="1.1" xmlns="http://www.w3.org/2000/svg" xmlns:xlink="http://www.w3.org/1999/xlink" xml:space="preserve" xmlns:serif="http://www.serif.com/" style="fill-rule:evenodd;clip-rule:evenodd;stroke-linecap:round;stroke-linejoin:round;stroke-miterlimit:1.5;">
    <g transform="matrix(1,0,0,1,-557.930517,-712.782776)">
        <g>
            <g id="l-hand" serif:id="l hand" transform="matrix(1,0,0,1,93.638364,8.408656)">
                <path d="M601.863,853.941C601.863,853.941 689.408,870.421 648.174,1003.083L638.587,1029.058L618.883,1079.171L603.255,1121.801C603.255,1121.801 589.628,1192.869 583.483,1213.442C583.483,1213.442 577.337,1234.816 577.605,1244.434C577.605,1244.434 575.734,1261.266 573.864,1265.274C573.864,1265.274 568.724,1274.633 558.336,1275.698C558.336,1275.698 549.017,1303.185 547.948,1304.401C547.948,1304.401 519.695,1279.983 476.613,1287.449L475.281,1258.674L466.375,1243.071C466.375,1243.071 467.372,1232.598 475.708,1217.85L478.487,1188.354C478.487,1188.354 480.731,1129.549 493.556,1098.022C493.556,1098.022 509.586,1054.206 509.052,1041.381C509.052,1041.381 521.876,965.504 525.884,952.946C525.884,952.946 545.88,853.715 598.327,853.941C650.773,854.166 601.863,853.941 601.863,853.941Z" style="fill:rgb(43,43,43);"/>
                <path d="M598.327,854.145C598.327,854.145 544.001,843.252 520.401,980.607C520.401,980.607 504.854,1069.709 498.365,1084.976C498.365,1084.976 481.571,1126.198 480.045,1168.564C480.045,1168.564 478.518,1205.868 475.464,1217.369C475.464,1217.369 465.159,1236.502 466.495,1243.026C466.495,1243.026 472.84,1255.563 475.512,1258.568C475.512,1258.568 475.178,1281.946 475.846,1287.29C475.846,1287.29 523.604,1283.105 547.315,1304.401C547.315,1304.401 556.666,1282.14 558.336,1275.698C558.336,1275.698 533.289,1240.2 475.512,1258.568" style="fill:none;stroke:black;stroke-width:4.17px;"/>
                <path d="M558.336,1275.698C558.336,1275.698 572.697,1271.787 574.367,1263.675C574.367,1263.675 578.708,1224.504 584.052,1208.139C584.052,1208.139 601.418,1143.015 601.084,1122.977C601.084,1122.977 626.132,1060.859 633.813,1040.821C633.813,1040.821 647.506,1008.092 648.174,1003.083" style="fill:none;stroke:black;stroke-width:4.17px;"/>
            </g>
            <g id="body">
                <path d="M680.268,863.941C680.268,863.941 650.497,885.315 673.398,926.918C673.398,926.918 655.984,973.459 661.661,1008.192L654.982,1024.222L646.299,1043.259C646.299,1043.259 612.234,1133.764 612.902,1172.838L608.83,1180.186L605.555,1197.552C605.555,1197.552 599.414,1229.996 608.83,1240.157L611.232,1268.112L623.107,1277.909L637.356,1285.33C637.356,1285.33 693.759,1309.241 785.935,1304.401C785.935,1304.401 878.11,1299.895 922.528,1290.21C922.528,1290.21 1077.155,1262.49 1086.84,1255.477L1107.212,1250.801L1110.886,1207.386L1116.229,1129.237L1124.245,1040.067L1133.166,994.314C1133.166,994.314 1206.543,893.455 1133.166,851.041L1082.944,823.674L1024.611,795.03L1025.305,789.126L1024.237,778.582L1016.115,764.118L1015.687,751.08L1017.611,738.683L1019.535,732.912L1017.825,726.714L1011.84,721.798L985.977,715.386L985.764,726.286L985.764,760.271L962.466,775.66C962.466,775.66 859.211,824.302 843.617,827.981C843.617,827.981 819.157,811.407 806.919,795.03L806.566,770.873C806.566,770.873 801.52,773.95 793.825,768.607C793.825,768.607 785.276,759.202 785.062,756.21C785.062,756.21 770.314,761.981 770.741,769.034C770.741,769.034 776.726,789.981 774.161,797.462L772.879,806.866L727.352,830.591L696.146,850.897L680.268,863.941Z" style="fill:rgb(43,43,43);"/>
                <clipPath id="_clip1">
                    <path d="M680.268,863.941C680.268,863.941 650.497,885.315 673.398,926.918C673.398,926.918 655.984,973.459 661.661,1008.192L654.982,1024.222L646.299,1043.259C646.299,1043.259 612.234,1133.764 612.902,1172.838L608.83,1180.186L605.555,1197.552C605.555,1197.552 599.414,1229.996 608.83,1240.157L611.232,1268.112L623.107,1277.909L637.356,1285.33C637.356,1285.33 693.759,1309.241 785.935,1304.401C785.935,1304.401 878.11,1299.895 922.528,1290.21C922.528,1290.21 1077.155,1262.49 1086.84,1255.477L1107.212,1250.801L1110.886,1207.386L1116.229,1129.237L1124.245,1040.067L1133.166,994.314C1133.166,994.314 1206.543,893.455 1133.166,851.041L1082.944,823.674L1024.611,795.03L1025.305,789.126L1024.237,778.582L1016.115,764.118L1015.687,751.08L1017.611,738.683L1019.535,732.912L1017.825,726.714L1011.84,721.798L985.977,715.386L985.764,726.286L985.764,760.271L962.466,775.66C962.466,775.66 859.211,824.302 843.617,827.981C843.617,827.981 819.157,811.407 806.919,795.03L806.566,770.873C806.566,770.873 801.52,773.95 793.825,768.607C793.825,768.607 785.276,759.202 785.062,756.21C785.062,756.21 770.314,761.981 770.741,769.034C770.741,769.034 776.726,789.981 774.161,797.462L772.879,806.866L727.352,830.591L696.146,850.897L680.268,863.941Z"/>
                </clipPath>
                <g clip-path="url(#_clip1)">
                    <g transform="matrix(0.05727,0,0,0.05727,846.66673,1008.384599)">
                        <g transform="matrix(1,0,0,1,-3643.75,-5168.75)">
                            <g id="_5a7f5f47abc3d121aba71181.png" serif:id="5a7f5f47abc3d121aba71181.png" transform="matrix(9.809338,0,0,9.809338,1487.916371,3540.618292)">
                                <path d="M68.5,2.034L374.5,2.034C380.228,1.997 377.965,4.825 377.966,10.5C377.971,125.615 377.931,125.602 378.034,129.495C378.115,132.53 376.364,131.966 345.5,131.966C7.396,131.966 7.4,131.958 4.505,132.034C2.224,132.095 2.044,130.955 2.035,129.512C1.968,119.35 1.206,3.811 2.483,2.483C2.979,1.967 3.134,2.034 68.5,2.034Z" style="fill:rgb(227,36,31);"/>
                                <path d="M131.908,46.381C133.181,46.559 133.23,46.931 134.237,46.096C142.771,39.013 156.65,41.486 161.526,50.484C175.436,76.149 142.517,105.234 127.284,89.739C123.632,86.025 125.05,91.603 121.092,115.436C120.525,118.854 117.019,118.398 108.534,118.196C105.957,118.134 107.621,112.401 107.761,111.541C118.48,45.713 117.115,43.654 120.503,43.541C130.398,43.21 131.81,42.973 131.908,46.381Z" style="fill:rgb(254,254,254);"/>
                                <path d="M303.935,61.531C303.934,60.823 303.926,54.362 300.541,53.363C286.181,49.127 288.392,89.962 284.333,92.047C283.837,92.301 272.861,92.251 272.605,92.132C268.421,90.19 281.877,56.107 272.538,53.37C259.576,49.57 259.998,82.28 257.572,90.52C256.756,93.293 243.399,93.064 243.666,90.502C243.715,90.035 250.879,45.057 250.992,44.692C251.593,42.738 263.815,43.515 264.262,43.842C264.904,44.312 264.047,48.491 266.707,45.911C270.1,42.62 277.748,40.606 283.649,43.139C288.949,45.414 288.559,50.733 292.806,46.858C298.682,41.496 310.238,39.854 315.44,45.555C317.864,48.212 320.64,51.255 313.431,90.482C312.985,92.906 306.42,92.26 301.516,92.215C297.789,92.18 300.305,89.827 303.935,61.531Z" style="fill:rgb(254,254,254);"/>
                                <path d="M31.534,94.12C24.437,92.448 23.744,93.497 18.721,88.276C10.687,79.927 14.616,78.172 14.886,77.95C19.728,73.96 23.153,69.353 24.833,73.35C29.157,83.637 39.907,82.6 44.084,77.155C54.882,63.076 34.131,57.494 33.627,57.244C31.505,56.191 14.844,47.923 25.818,28.684C39.127,5.351 70.443,19.701 66.017,25.15C60.919,31.428 59.199,34.206 57.147,31.837C51.166,24.932 42.528,28.407 39.923,31.856C32.396,41.822 48.092,46.359 51.301,47.896C70.258,56.982 61.991,76.538 55.01,85.06C47.775,93.892 33.547,94.092 31.534,94.12Z" style="fill:rgb(254,254,254);"/>
                                <path d="M319.92,72.513C320.168,70.685 321.868,58.142 327.954,50.895C331.622,46.526 337.314,43.723 340.612,42.917C366.657,36.557 369.802,60.597 367,68.69C365.695,72.46 335.593,67.786 334.678,71.55C332.429,80.805 342.682,87.783 350.436,79.439C353.217,76.447 353.736,76.32 363.572,78.326C366.432,78.909 360.859,84.983 360.438,85.441C352.064,94.567 321.689,103.426 319.92,72.513Z" style="fill:rgb(254,254,254);"/>
                                <path d="M215.5,70.122C214.815,70.238 214.102,70.09 213.417,70.206C210.818,70.648 210.769,82.986 219.509,83.134C225.758,83.239 229.223,77.863 229.555,77.56C230.97,76.267 243.183,77.261 241.642,80.565C234.059,96.83 197.48,101.595 197.311,73.501C197.072,33.796 252.797,31.215 244.44,68.482C243.982,70.526 243.114,70.122 215.5,70.122Z" style="fill:rgb(254,254,254);"/>
                                <path d="M79.084,74.5C80.325,87.292 92.578,83.241 94.823,72.576C97.799,58.434 97.797,43.633 101.503,43.542C106.551,43.417 113.528,42.841 113.173,45.479C108.891,77.371 106.773,80.66 105.1,83.258C95.049,98.868 61.59,99.663 64.941,73.552C65.245,71.179 68.522,45.642 70.152,44.11C70.784,43.515 83.598,42.102 83.337,45.491C83.017,49.651 79.894,63.977 79.084,74.5Z" style="fill:rgb(254,254,254);"/>
                                <path d="M165.894,78.56C170.717,48.561 171.05,44.652 171.903,43.986C172.258,43.709 185.648,41.921 185.003,45.608C184.052,51.043 189.498,41.679 197.511,41.95C206.416,42.252 202.117,48.154 201.71,49.562C200.558,53.543 200.444,55.85 197.4,54.808C181.133,49.239 180.124,77.564 178.131,89.442C177.57,92.785 174.602,92.44 165.534,92.211C163.063,92.149 164.829,85.167 165.894,78.56Z" style="fill:rgb(254,254,254);"/>
                                <path d="M127.087,69.483C130.477,49.759 145.369,53.163 148.499,58.5C158.395,75.371 128.239,94.607 127.087,69.483Z" style="fill:rgb(227,36,31);"/>
                                <path d="M217.342,55.359C225.06,47.705 231.811,53.354 232.381,59.506C232.506,60.858 232.127,62.303 215.516,61.444C212.97,61.312 217.041,55.769 217.342,55.359Z" style="fill:rgb(227,34,29);"/>
                                <path d="M338.382,57.427C346.774,45.716 355.013,54.425 354.939,59.5C354.92,60.824 354.542,61.939 338.501,61.491C335.7,61.412 337.402,60.017 338.382,57.427Z" style="fill:rgb(227,34,29);"/>
                            </g>
                        </g>
                    </g>
                </g>
                <path d="M843.617,827.981C843.617,827.981 1036.243,755.076 1005.666,729.182M806.213,770.873C806.213,770.873 807.697,790.354 806.361,795.03" style="fill:none;stroke:black;stroke-width:4.17px;"/>
                <path d="M985.183,714.866C985.183,714.866 985.215,756.468 985.496,761.049" style="fill:none;stroke:black;stroke-width:4.17px;"/>
                <path d="M985.183,714.866C985.183,714.866 1026.743,719.191 1018.431,737.957C1018.431,737.957 1012.791,757.614 1017.541,767.707C1017.541,767.707 1031.196,787.894 1021.994,796.8C1021.994,796.8 980.051,828.818 867.032,838.657" style="fill:none;stroke:black;stroke-width:4.17px;"/>
                <path d="M784.839,770.873C784.839,770.873 828.589,821.97 843.617,827.981" style="fill:none;stroke:black;stroke-width:4.17px;"/>
                <path d="M784.839,755.691C784.839,755.691 770.387,761.741 769.853,770.873C769.853,770.873 777.868,782.141 772.257,805.92C772.257,805.92 777.868,828.112 828.364,834.115" style="fill:none;stroke:black;stroke-width:4.17px;"/>
                <path d="M784.839,755.691C784.839,755.691 790.474,774.432 806.213,770.873" style="fill:none;stroke:black;stroke-width:4.17px;"/>
                <path d="M769.853,807.491C769.853,807.491 702.499,841.46 679.599,863.979" style="fill:none;stroke:black;stroke-width:4.17px;"/>
                <path d="M608.83,1240.157C609.227,1249.767 610.091,1259.265 611.507,1268.533C611.507,1268.533 678.301,1360.084 1108.452,1250.654C1108.452,1250.654 1120.698,1024.558 1133.166,993.387M684.535,904.952C684.535,904.952 654.7,952.153 661.825,1009.596C661.825,1009.596 657.818,1019.392 648.912,1037.649C642.741,1050.298 620.24,1110.936 611.798,1178.39" style="fill:none;stroke:black;stroke-width:4.17px;"/>
                <path d="M1025.18,794.903C1025.18,794.903 1117.803,841.877 1133.166,850.56" style="fill:none;stroke:black;stroke-width:4.17px;"/>
                <path d="M724.726,1010.976C724.726,1010.976 809.662,978.915 906.735,1019.882" style="fill:none;stroke:black;stroke-width:4.17px;"/>
                <path d="M608.569,1240.157C608.569,1240.157 727.951,1317.559 1110.011,1217.369" style="fill:none;stroke:black;stroke-width:4.17px;"/>
                <path d="M608.569,1240.157C608.569,1240.157 582.57,1192.766 653.924,1116.622C653.924,1116.622 819.458,1123.301 879.572,1123.301C879.572,1123.301 916.977,1217.257 1007.148,1202.674" style="fill:none;stroke:black;stroke-width:4.17px;"/>
            </g>
            <g id="r-hand" serif:id="r hand" transform="matrix(1,0,0,1,-114.885112,-10.554751)">
                <path d="M1245.175,860.497C1245.175,860.497 1153.785,839.542 1169.921,995.355L1169.921,1002.051L1173.701,1013.072L1215.781,1144.322L1215.41,1147.606C1215.41,1147.606 1210.957,1197.775 1216.3,1217.071C1216.3,1217.071 1215.41,1250.023 1213.925,1253.882C1213.925,1253.882 1220.456,1266.053 1223.425,1269.616C1223.425,1269.616 1224.612,1300.891 1225.503,1304.401C1225.503,1304.401 1301.759,1298.042 1314.858,1315.602L1327.623,1279.727C1327.623,1279.727 1339.98,1274.384 1340.982,1268.706C1340.982,1268.706 1345.657,1223.621 1346.993,1217.275C1346.993,1217.275 1355.442,1159.499 1356.728,1155.157C1356.728,1155.157 1359.066,1110.739 1358.039,1102.724C1358.039,1102.724 1343.653,1008.879 1339.646,999.862C1339.646,999.862 1325.953,929.395 1316.602,918.708C1316.602,918.708 1298.568,871.502 1249.14,862.543L1245.175,860.497Z" style="fill:rgb(43,43,43);"/>
                <path d="M1169.921,1003.083C1169.921,1003.083 1213.738,1133.007 1215.341,1145.832C1215.341,1145.832 1211.066,1189.871 1216.41,1217.034C1216.41,1217.034 1215.201,1249.19 1213.674,1254.915C1213.674,1254.915 1219.018,1265.221 1223.598,1270.564C1223.598,1270.564 1224.361,1299.306 1225.125,1304.401C1225.125,1304.401 1293.063,1297.282 1315.582,1315.602C1315.582,1315.602 1326.651,1284.686 1328.178,1279.725C1328.178,1279.725 1340.392,1273.999 1341.155,1266.366C1341.155,1266.366 1347.262,1206.061 1350.697,1192.702C1350.697,1192.702 1360.239,1144.992 1357.567,1106.061C1357.567,1106.061 1349.17,1034.265 1331.995,962.932C1331.995,962.932 1316.346,878.239 1254.514,863.354C1254.514,863.354 1245.735,860.3 1240.774,859.537" style="fill:none;stroke:black;stroke-width:4.17px;"/>
                <path d="M1266.928,867.495C1266.928,867.495 1192.23,849.381 1169.921,1003.083" style="fill:none;stroke:black;stroke-width:4.17px;"/>
                <path d="M1327.51,1279.151C1327.51,1279.151 1292.777,1238.54 1225.984,1270.067" style="fill:none;stroke:black;stroke-width:4.17px;"/>
                <path d="M1245.754,1143.96C1245.754,1143.96 1273.541,1108.693 1293.312,1099.609" style="fill:none;stroke:black;stroke-width:4.17px;"/>
            </g>
        </g>
    </g>
</svg>
