<?xml version="1.0" encoding="UTF-8" standalone="no"?>
<svg width="100%" height="100%" viewBox="0 0 662 538" version="1.1" xmlns="http://www.w3.org/2000/svg" xmlns:xlink="http://www.w3.org/1999/xlink" xml:space="preserve" xmlns:serif="http://www.serif.com/" style="fill-rule:evenodd;clip-rule:evenodd;stroke-linecap:round;stroke-linejoin:round;stroke-miterlimit:1.5;">
    <g transform="matrix(1,0,0,1,-581.976238,-777.362395)">
        <g>
            <g id="l-hand" serif:id="l hand" transform="matrix(1,0,0,1,117.684086,8.47988)">
                <g>
                    <path d="M601.863,853.941C601.863,853.941 689.408,870.421 648.174,1003.083L638.587,1029.058L618.883,1079.171L603.255,1121.801C603.255,1121.801 589.628,1192.869 583.483,1213.442C583.483,1213.442 577.337,1234.816 577.605,1244.434C577.605,1244.434 575.734,1261.266 573.864,1265.274C573.864,1265.274 568.724,1274.633 558.336,1275.698C558.336,1275.698 549.017,1303.185 547.948,1304.401C547.948,1304.401 519.695,1279.983 476.613,1287.449L475.281,1258.674L466.375,1243.071C466.375,1243.071 467.372,1232.598 475.708,1217.85L478.487,1188.354C478.487,1188.354 480.731,1129.549 493.556,1098.022C493.556,1098.022 509.586,1054.206 509.052,1041.381C509.052,1041.381 521.876,965.504 525.884,952.946C525.884,952.946 545.079,858.524 599.395,853.406C651.611,848.486 601.863,853.941 601.863,853.941Z" style="fill:rgb(43,43,43);"/>
                </g>
                <path d="M581.869,858.419C581.869,858.419 544.001,865.908 520.401,980.607C520.401,980.607 504.854,1069.709 498.365,1084.976C498.365,1084.976 481.571,1126.198 480.045,1168.564C480.045,1168.564 478.518,1205.868 475.464,1217.369C475.464,1217.369 465.159,1236.502 466.495,1243.026C466.495,1243.026 472.84,1255.563 475.512,1258.568C475.512,1258.568 475.178,1281.946 475.846,1287.29C475.846,1287.29 523.604,1283.105 547.315,1304.401C547.315,1304.401 556.666,1282.14 558.336,1275.698C558.336,1275.698 533.289,1240.2 475.512,1258.568" style="fill:none;stroke:black;stroke-width:4.17px;"/>
                <path d="M558.336,1275.698C558.336,1275.698 572.697,1271.787 574.367,1263.675C574.367,1263.675 578.708,1224.504 584.052,1208.139C584.052,1208.139 601.418,1143.015 601.084,1122.977C601.084,1122.977 626.132,1060.859 633.813,1040.821C633.813,1040.821 647.506,1008.092 648.174,1003.083" style="fill:none;stroke:black;stroke-width:4.17px;"/>
            </g>
            <g>
                <g>
                    <path d="M801.179,809.876L795.916,809.876L783.458,815.474L762.084,826.414L731.359,844.047C731.359,844.047 696.076,867.88 693.546,871.326C693.546,871.326 682.433,886.278 690.598,932.87C690.598,932.87 676.054,975.722 675.252,982.134C675.252,982.134 672.848,1013.66 675.252,1022.21C675.252,1022.21 653.611,1070.836 650.138,1084.195C650.138,1084.195 626.894,1148.584 630.367,1178.507C630.367,1178.507 628.23,1200.148 626.626,1211.904C626.626,1211.904 621.016,1241.56 622.886,1245.568L628.23,1251.567L628.764,1255.454L629.833,1273.621C629.833,1273.621 670.977,1297.934 681.13,1294.728C681.13,1294.728 694.222,1207.629 697.428,1198.545C697.428,1198.545 718,1092.243 725.681,1075.211C725.681,1075.211 765.424,945.631 777.113,923.589C777.113,923.589 809.842,847.785 813.515,840.601C813.515,840.601 812.313,817.608 823.214,800.081L824.282,795.379L819.794,795.593C819.794,795.593 804.152,809.412 801.179,809.876Z" style="fill:rgb(43,43,43);"/>
                    <path d="M740.755,1022.208C740.755,1022.208 685.984,1014.638 676.188,1015.084C676.188,1015.084 667.849,998.554 680.479,966.075L695.335,923.821C695.335,923.821 768.068,922.953 776.898,923.821L740.755,1022.208Z" style="fill:rgb(220,220,220);"/>
                    <clipPath id="_clip1">
                        <path d="M740.755,1022.208C740.755,1022.208 685.984,1014.638 676.188,1015.084C676.188,1015.084 667.849,998.554 680.479,966.075L695.335,923.821C695.335,923.821 768.068,922.953 776.898,923.821L740.755,1022.208Z"/>
                    </clipPath>
                    <g clip-path="url(#_clip1)">
                        <g transform="matrix(0.335243,0,-0.048328,0.335243,392.076605,876.094589)">
                            <g transform="matrix(0.374151,0,-0.294338,1.34131,1010.118997,-102.298063)">
                                <path d="M420.896,335.5C420.896,232.572 420.895,232.58 420.903,232.527C421.335,229.788 422.659,229.997 455.499,230.516C459.569,230.58 458.206,232.812 478.785,291.392C490.394,324.437 486.472,327.292 489.468,327.293C491.073,327.293 489.841,318.388 489.785,317.493C488.903,303.406 489.234,232.193 489.507,231.503C490.067,230.089 490.533,230.189 508.499,230.51C510.978,230.555 510.734,232.599 510.736,233.497C510.757,242.62 510.999,346.184 510.632,347.537C510.292,348.787 509.788,348.991 478.495,348.91C475.561,348.902 475.291,348.338 472.687,340.439C461.067,305.19 447.952,273.72 443.321,250.577C443.02,249.073 441.094,248.995 441.292,251.473C441.896,259.052 443.361,277.402 442.632,346.506C442.603,349.279 441.197,349.044 423.487,348.908C419.677,348.879 420.917,341.085 420.896,335.5Z"/>
                            </g>
                            <g transform="matrix(0.374151,0,-0.294338,1.34131,1010.118997,-102.298063)">
                                <path d="M384.826,281.501C384.823,291.732 385.744,296.824 382.532,296.962C368.769,297.552 348.008,295.57 347.347,298.465C347.268,298.809 347.219,327.961 347.378,328.534C348.272,331.75 386.568,328.387 388.487,330.509C388.613,330.649 389.985,348.153 387.601,348.805C387.161,348.925 387.185,348.91 332.5,348.91C329.039,348.91 323.172,349.948 323.128,346.523C322.958,333.398 323.11,242.539 323.126,233.496C323.128,232.018 322.956,230.313 325.488,230.279C330.361,230.215 384.878,229.493 386.402,230.643C387.14,231.199 388.489,248.798 385.458,249.205C380.774,249.833 348.247,247.856 347.414,250.471C347.402,250.51 346.793,276.157 347.781,277.241C349.257,278.86 382.866,276.691 384.47,278.521C384.628,278.701 384.496,278.739 384.826,281.501Z"/>
                            </g>
                            <g transform="matrix(0.374151,0,-0.294338,1.34131,1010.118997,-102.298063)">
                                <path d="M290.5,348.91C236.997,348.91 236.968,348.939 236.395,348.731C235.31,348.337 235.311,341.164 235.311,340.5C235.327,232.306 235.216,232.295 235.523,231.51C236.219,229.732 258.022,230.258 258.874,231.159C260.058,232.41 259.095,321.706 259.408,327.505C259.569,330.497 261.206,329.826 295.498,329.855C299.156,329.858 298.418,333.236 298.319,345.499C298.276,350.732 295.737,348.653 290.5,348.91Z"/>
                            </g>
                            <g transform="matrix(0.374151,0,-0.294338,1.34131,1010.118997,-102.298063)">
                                <path d="M92.904,262.527C91.784,268.297 91.31,282.303 71.613,285.775C65.711,286.815 75.189,288.203 75.558,288.258C98.911,291.679 106.879,341.584 68.546,347.787C54.013,350.139 14.477,348.584 14.455,348.564C13.639,347.846 13.734,347.6 13.734,244.5C13.734,238.883 12.936,230.619 15.503,230.524C19.18,230.389 41.534,229.568 61.495,230.612C87.935,231.996 92.943,244.788 92.904,262.527ZM37.958,274.5C38.316,276.905 37.271,277.959 39.554,278.163C62.68,280.228 66.09,273.327 67.096,271.291C69.487,266.454 71.913,249.77 55.483,248.689C38.462,247.569 38.086,249.03 38.037,250.432C37.969,252.356 38.219,252.273 37.958,274.5ZM37.962,316.5C37.964,324.069 36.866,330.881 40.481,330.915C46.268,330.969 75.963,335.424 70.186,307.579C67.428,294.289 49.322,296.233 40.495,296.31C37.282,296.339 38.165,298.095 37.962,316.5Z"/>
                            </g>
                            <g transform="matrix(0.374151,0,-0.294338,1.34131,1010.118997,-102.298063)">
                                <path d="M137.979,341.64C136.544,346.751 137.775,348.869 132.503,348.911C113.684,349.062 111.865,349.153 112.556,346.512C112.609,346.307 132.728,272.445 142.961,234.624C144.544,228.774 146.467,230.503 152.5,230.504C177.015,230.51 178.524,229.699 179.547,233.486C181.944,242.366 209.221,343.423 209.508,344.498C210.277,347.379 211.552,348.814 208.564,348.91C206.793,348.967 189.091,349.536 186.413,348.791C182.904,347.815 180.463,322.788 176.521,322.349C176.044,322.296 145.231,322.208 144.475,322.393C142.829,322.795 142.386,325.033 137.979,341.64ZM150.91,289.598C148.262,301.098 147.146,303.859 149.405,303.96C151.337,304.046 172.161,304.976 173.581,303.587C175.04,302.159 163.162,261.148 161.978,251.139C161.171,244.314 159.484,254.153 159.427,254.484C158.738,258.5 151.616,286.795 150.91,289.598Z" style="fill:rgb(1,1,1);"/>
                            </g>
                        </g>
                    </g>
                    <path d="M997.791,779.446L997.791,785.389C997.791,785.389 996.295,797.573 980.479,809.876C964.662,822.179 952.051,832.482 920.418,845.498L907.807,850.179C907.807,850.179 900.754,864.714 896.906,876.256C893.059,887.797 867.731,971.971 862.254,1057.033C862.254,1057.033 856.189,1130.362 856.574,1163.091C856.574,1163.091 858.193,1278.156 859.913,1294.431C859.913,1294.431 912.13,1294.842 936.442,1290.033C936.442,1290.033 1071.06,1273.733 1119.759,1251.809C1119.759,1251.809 1117.664,1233.585 1119.759,1228.027C1119.759,1228.027 1123.351,1216.699 1124.42,1213.493C1124.42,1213.493 1120.479,1186.939 1128.494,1123.275C1128.494,1123.275 1139.657,1024.628 1147.768,999.538C1155.879,974.449 1210.873,891.124 1144.079,853.719C1144.079,853.719 1056.738,818.39 1039.372,807.369L1024.771,802.007L1022.51,802.007L1005.678,783.787L1001.136,779.446L997.791,779.446Z" style="fill:rgb(43,43,43);"/>
                    <path d="M864.985,1026.801C864.985,1026.801 1033.445,1027.243 1063.502,1029.702L1051.799,994.088L1060.652,924.356C1060.652,924.356 885.92,925.09 884.317,923.821C884.317,923.821 869.878,983.08 864.985,1026.801Z" style="fill:rgb(220,220,220);"/>
                    <clipPath id="_clip2">
                        <path d="M864.985,1026.801C864.985,1026.801 1033.445,1027.243 1063.502,1029.702L1051.799,994.088L1060.652,924.356C1060.652,924.356 885.92,925.09 884.317,923.821C884.317,923.821 869.878,983.08 864.985,1026.801Z"/>
                    </clipPath>
                    <g clip-path="url(#_clip2)">
                        <g transform="matrix(0.429053,0,-0.086989,0.429053,142.919247,850.020311)">
                            <g transform="matrix(0.672328,0,0,1.048311,1429.220298,-16.935212)">
                                <path d="M862.5,302.9C858.461,302.742 856.498,304.489 856.476,300.501C856.394,286.027 856.156,284.161 858.438,284.034C859.985,283.948 893.668,283.823 894.641,284.175C895.944,284.646 895.811,285.226 895.801,335.5C895.799,340.728 897.578,342.725 890.398,345.211C879.123,349.114 827.615,361.799 815.729,325.428C812.398,315.234 806.998,265.577 820.797,244.705C837.125,220.009 893.338,220.33 896.055,259.513C896.277,262.712 891.352,261.881 876.5,261.882C872.625,261.882 872.291,261.379 871.552,257.491C868.708,242.532 841.462,238.716 838.341,268.481C838.335,268.538 834.883,309.379 840.825,322.354C848.104,338.249 871.625,331.495 872.364,328.467C872.492,327.941 872.764,304.625 872.192,303.69C871.713,302.908 863.278,302.9 862.5,302.9Z"/>
                            </g>
                            <g transform="matrix(0.672328,0,0,1.048311,1429.220298,-16.935212)">
                                <path d="M541.086,287.5C541.175,254.116 546.681,228.691 585.498,228.79C625.365,228.891 624.189,263.012 622.621,263.714C621.546,264.196 600.543,263.898 600.386,263.855C597.914,263.181 599.977,248.823 588.413,246.937C567.802,243.577 567.047,266.764 566.875,272.516C565.617,314.704 567.329,331.173 582.534,332.193C601.24,333.448 599.077,317.166 600.277,314.376C601.107,312.445 623.359,313.609 623.428,313.646C624.951,314.46 626.731,349.081 586.5,350.493C537.739,352.205 541.098,304.864 541.086,287.5Z"/>
                            </g>
                            <g transform="matrix(0.672328,0,0,1.048311,1429.220298,-16.935212)">
                                <path d="M674.071,234.5C674.057,347.519 674.197,347.739 673.465,348.46C673.135,348.785 650.9,350.1 650.183,347.608C650.099,347.318 649.803,232.627 650.337,231.407C650.979,229.944 673.156,229.999 673.745,231.349C673.846,231.581 673.769,231.582 674.071,234.5Z"/>
                            </g>
                            <g transform="matrix(0.672328,0,0,1.048311,1429.220298,-16.935212)">
                                <path d="M983.977,240.355C992.635,273.479 1013.572,347.355 1012.524,348.524C1012.447,348.61 988.94,350.339 987.575,347.461C985.709,343.527 982.187,323.07 979.522,322.403C979.258,322.337 947.481,322.004 946.548,322.602C943.824,324.347 940.421,347.956 937.585,348.777C937.25,348.874 916.162,349.235 915.454,348.555C914.11,347.263 927.689,301.722 939.854,255.589C946.08,231.977 945.603,231.379 947.573,230.696C949.911,229.885 949.995,230.437 978.5,230.506C982.576,230.516 983.005,236.811 983.977,240.355ZM954.082,287.38C950.644,301.769 949.558,303.916 952.45,303.968C975.538,304.382 976.75,304.431 976.587,302.503C976.25,298.523 967.586,268.464 964.707,251.399C963.623,244.969 962.162,254.093 962.112,254.407C961.88,255.853 954.734,284.744 954.082,287.38Z" style="fill:rgb(1,1,1);"/>
                            </g>
                            <g transform="matrix(0.672328,0,0,1.048311,1429.220298,-16.935212)">
                                <path d="M703.896,327.623C729.731,232.807 728.533,231.288 731.526,230.613C732.437,230.408 762.976,230.503 763.491,230.559C765.094,230.735 765.22,231.193 770.122,249.599C796.137,347.281 797.3,348.112 795.635,348.749C794.871,349.042 772.922,348.94 772.412,348.801C769.617,348.043 766.06,323.834 763.454,322.598C762.226,322.016 730.945,322.303 730.481,322.429C727.984,323.111 724.655,341.743 722.441,347.472C721.806,349.116 721.295,349.295 700.453,348.918C696.906,348.853 700.052,342.102 703.896,327.623ZM749.883,260.414C748.05,251.439 748.395,251.391 748.234,250.612C747.371,246.437 746.324,251.449 742.733,266.552C734.197,302.459 733.662,302.714 734.46,303.537C735.808,304.93 756.658,304.033 758.587,303.95C760.915,303.85 760.125,302.304 754.177,277.584C751.149,265.003 750.124,261.383 749.883,260.414Z" style="fill:rgb(1,1,1);"/>
                            </g>
                        </g>
                    </g>
                </g>
                <path d="M1024.771,802.007L1031.339,803.788C1031.339,803.788 1122.179,846.536 1142.959,853.364" style="fill:none;stroke:black;stroke-width:4.17px;"/>
                <path d="M917.806,845.498L907.464,850.099C907.464,850.099 880.682,897.299 862.426,1048.476C862.426,1048.476 852.852,1113.711 858.195,1294.388C858.195,1294.388 985.103,1297.438 1118.958,1252.152C1118.958,1252.152 1117.622,1231.98 1119.759,1226.637C1119.759,1226.637 1022.783,1269.939 857.532,1269.395" style="fill:none;stroke:black;stroke-width:4.17px;"/>
                <path d="M1119.759,1226.637C1119.759,1226.637 1122.431,1223.965 1124.568,1213.278C1124.568,1213.278 1123.5,1185.492 1124.568,1169.461C1124.568,1169.461 1131.96,1063.126 1147.768,999.538" style="fill:none;stroke:black;stroke-width:4.17px;"/>
                <path d="M996.057,1069.965C996.057,1069.965 1008.648,1134.795 1068.144,1179.881L1060.847,1190.969C1060.847,1190.969 999.931,1162.114 981.229,1074.481L996.057,1069.965Z" style="fill:none;stroke:black;stroke-width:4.17px;"/>
                <path d="M822.935,802.007C822.935,802.007 813.774,812.8 813.393,839.01C813.393,839.01 798.125,831.25 801.179,809.876C801.179,809.876 816.064,800.334 819.881,795.754L825.225,795.754L822.935,802.007Z" style="fill:none;stroke:black;stroke-width:4.17px;"/>
                <path d="M801.179,809.876L796.217,810.258C796.217,810.258 756.904,824.38 693.546,871.326" style="fill:none;stroke:black;stroke-width:4.17px;"/>
                <path d="M813,840.601C813,840.601 757.35,954.468 724.398,1078.482C724.398,1078.482 705.161,1137.617 681.383,1294.849" style="fill:none;stroke:black;stroke-width:4.17px;"/>
                <path d="M681.383,1294.849C681.383,1294.849 660.365,1292.801 629.729,1273.252L627.948,1251.567C627.948,1251.567 644.513,1267.063 681.383,1272.406" style="fill:none;stroke:black;stroke-width:4.17px;"/>
                <path d="M627.948,1251.567C627.948,1251.567 622.159,1249.721 622.604,1240.157C622.604,1240.157 627.503,1208.329 627.948,1198.087C628.393,1187.846 650.391,1088.985 659.475,1080.015L670.162,1084.404C670.162,1084.404 657.498,1095.265 626.96,1215.318" style="fill:none;stroke:black;stroke-width:4.17px;"/>
                <path d="M631.041,1180.18C631.041,1180.18 620.165,1141.669 675.508,1023.206C675.508,1023.206 670.432,984.561 681.383,963.187C681.383,963.187 694.115,923.556 699.013,915.986" style="fill:none;stroke:black;stroke-width:4.17px;"/>
                <path d="M691.789,932.87C691.789,932.87 681.399,897.455 693.546,871.326" style="fill:none;stroke:black;stroke-width:4.17px;"/>
                <path d="M998.34,782.891C998.34,782.891 999.103,814.189 917.806,845.487C917.806,845.487 978.35,847.371 1024.771,803.287C1024.771,803.287 1015.903,796.961 1003.138,780.336L997.497,779.446L998.34,782.891Z" style="fill:none;stroke:black;stroke-width:4.17px;"/>
            </g>
            <g id="r-hand" serif:id="r hand" transform="matrix(1,0,0,1,-116.21216,-10.603583)">
                <g>
                    <path d="M1245.175,860.497C1245.175,860.497 1153.785,839.542 1169.921,995.355L1169.921,1002.051L1173.701,1013.072L1215.781,1144.322L1215.41,1147.606C1215.41,1147.606 1210.957,1197.775 1216.3,1217.071C1216.3,1217.071 1215.41,1250.023 1213.925,1253.882C1213.925,1253.882 1220.456,1266.053 1223.425,1269.616C1223.425,1269.616 1224.612,1300.891 1225.503,1304.401C1225.503,1304.401 1301.759,1298.042 1314.858,1315.602L1327.623,1279.727C1327.623,1279.727 1339.98,1274.384 1340.982,1268.706C1340.982,1268.706 1345.657,1223.621 1346.993,1217.275C1346.993,1217.275 1355.442,1159.499 1356.728,1155.157C1356.728,1155.157 1359.066,1110.739 1358.039,1102.724C1358.039,1102.724 1343.653,1008.879 1339.646,999.862C1339.646,999.862 1325.953,929.395 1316.602,918.708C1316.602,918.708 1298.568,871.502 1249.14,862.543L1245.175,860.497Z" style="fill:rgb(43,43,43);"/>
                </g>
                <path d="M1169.921,1003.083C1169.921,1003.083 1213.738,1133.007 1215.341,1145.832C1215.341,1145.832 1211.066,1189.871 1216.41,1217.034C1216.41,1217.034 1215.201,1249.19 1213.674,1254.915C1213.674,1254.915 1219.018,1265.221 1223.598,1270.564C1223.598,1270.564 1224.361,1299.306 1225.125,1304.401C1225.125,1304.401 1293.063,1297.282 1315.582,1315.602C1315.582,1315.602 1326.651,1284.686 1328.178,1279.725C1328.178,1279.725 1340.392,1273.999 1341.155,1266.366C1341.155,1266.366 1347.262,1206.061 1350.697,1192.702C1350.697,1192.702 1360.239,1144.992 1357.567,1106.061C1357.567,1106.061 1349.17,1034.265 1331.995,962.932C1331.995,962.932 1316.346,878.239 1254.514,863.354C1254.514,863.354 1252.749,860.968 1247.787,860.205" style="fill:none;stroke:black;stroke-width:4.17px;"/>
                <path d="M1266.928,867.495C1266.928,867.495 1192.23,849.381 1169.921,1003.083" style="fill:none;stroke:black;stroke-width:4.17px;"/>
                <path d="M1327.51,1279.151C1327.51,1279.151 1292.777,1238.54 1225.984,1270.067" style="fill:none;stroke:black;stroke-width:4.17px;"/>
                <path d="M1245.754,1143.96C1245.754,1143.96 1273.541,1108.693 1293.312,1099.609" style="fill:none;stroke:black;stroke-width:4.17px;"/>
            </g>
        </g>
    </g>
</svg>
