<?xml version="1.0" encoding="UTF-8" standalone="no"?>
<!DOCTYPE svg PUBLIC "-//W3C//DTD SVG 1.1//EN" "http://www.w3.org/Graphics/SVG/1.1/DTD/svg11.dtd">
<svg width="100%" height="100%" viewBox="0 0 653 540" version="1.1" xmlns="http://www.w3.org/2000/svg" xmlns:xlink="http://www.w3.org/1999/xlink" xml:space="preserve" xmlns:serif="http://www.serif.com/" style="fill-rule:evenodd;clip-rule:evenodd;stroke-linecap:round;stroke-linejoin:round;stroke-miterlimit:1.5;">
    <g transform="matrix(1,0,0,1,-591.029388,-775.639258)">
        <g>
            <g id="l-hand" serif:id="l hand" transform="matrix(1,0,0,1,117.684086,8.47988)">
                <path d="M601.863,853.941C601.863,853.941 689.408,870.421 648.174,1003.083L638.587,1029.058L618.883,1079.171L603.255,1121.801C603.255,1121.801 589.628,1192.869 583.483,1213.442C583.483,1213.442 576.269,1228.671 572.796,1238.823C572.796,1238.823 568.053,1252.917 566.183,1256.924C566.183,1256.924 566.053,1261.274 558.336,1275.698C558.336,1275.698 549.017,1303.185 547.948,1304.401C547.948,1304.401 519.695,1279.983 476.613,1287.449L475.281,1258.674L476.261,1241.468C476.261,1241.468 474.853,1234.736 475.708,1217.85L478.487,1188.354C478.487,1188.354 480.731,1129.549 493.556,1098.022C493.556,1098.022 509.586,1054.206 509.052,1041.381C509.052,1041.381 521.876,965.504 525.884,952.946C525.884,952.946 545.079,858.524 599.395,853.406C651.611,848.486 601.863,853.941 601.863,853.941Z" style="fill:rgb(43,43,43);"/>
                <path d="M475.512,1258.568C475.512,1258.568 475.178,1281.946 475.846,1287.29C475.846,1287.29 523.604,1283.105 547.315,1304.401C547.315,1304.401 556.666,1282.14 558.336,1275.698C558.336,1275.698 549.068,1262.563 528.803,1256.407C515.753,1252.443 498.144,1251.373 475.512,1258.568M581.869,858.419C581.869,858.419 544.001,865.908 520.401,980.607C520.401,980.607 504.854,1069.709 498.365,1084.976C498.365,1084.976 481.571,1126.198 480.045,1168.564C480.045,1168.564 475.226,1207.994 475.512,1258.568" style="fill:none;stroke:black;stroke-width:4.17px;"/>
                <path d="M558.67,1276.365C558.67,1276.365 578.708,1224.504 584.052,1208.139C584.052,1208.139 601.418,1143.015 601.084,1122.977C601.084,1122.977 626.132,1060.859 633.813,1040.821C633.813,1040.821 647.506,1008.092 648.174,1003.083" style="fill:none;stroke:black;stroke-width:4.17px;"/>
            </g>
            <g>
                <g>
                    <path d="M802.351,810.389L795.916,809.876L783.458,815.474L762.084,826.414L731.359,844.047C731.359,844.047 696.076,867.88 693.546,871.326C693.546,871.326 682.433,886.278 690.598,932.87C690.598,932.87 676.054,975.722 675.252,982.134C675.252,982.134 672.848,1013.66 675.252,1022.21C675.252,1022.21 653.611,1070.836 650.138,1084.195C650.138,1084.195 626.894,1148.584 630.367,1178.507C630.367,1178.507 628.23,1200.148 626.626,1211.904C626.626,1211.904 625.172,1238.592 627.042,1242.6L628.23,1251.567L628.764,1255.454L629.833,1273.621C629.833,1273.621 670.977,1297.934 681.13,1294.728C681.13,1294.728 694.222,1207.629 697.428,1198.545C697.428,1198.545 718,1092.243 725.681,1075.211C725.681,1075.211 765.424,945.631 777.113,923.589C777.113,923.589 809.326,850.442 813,843.259C813,843.259 808.484,840.503 813,840.601C815.349,840.652 821.245,852.432 823.94,850.173C827.633,847.077 832.537,834.46 834.583,828.936L826.078,816.666L824.065,801.906L825.775,791.596L821.401,789.019L813,799.867C813,799.867 805.324,809.925 802.351,810.389Z" style="fill:rgb(43,43,43);"/>
                    <path d="M1001.853,777.723L995.013,789.019C995.013,789.019 977.453,799.924 959.128,810.09C954.553,812.628 940.048,820.352 929.489,823.031C918.992,825.694 898.633,830.824 896.48,833.686C894.58,836.21 894.496,841.063 894.16,845.836C893.851,850.227 893.065,854.616 896.298,855.609C903.002,857.668 920.361,848.153 909.97,855.609L906.525,858.943C906.525,858.943 898.007,865.141 894.16,876.683C890.313,888.225 867.731,971.971 862.254,1057.033C862.254,1057.033 856.189,1130.362 856.574,1163.091C856.574,1163.091 858.193,1278.156 859.913,1294.431C859.913,1294.431 912.13,1294.842 936.442,1290.033C936.442,1290.033 1071.06,1273.733 1119.759,1251.809C1119.759,1251.809 1117.664,1233.585 1119.759,1228.027C1119.759,1228.027 1118.691,1217.501 1119.759,1214.295C1119.759,1214.295 1120.479,1186.939 1128.494,1123.275C1128.494,1123.275 1139.657,1024.628 1147.768,999.538C1155.879,974.449 1210.873,891.124 1144.079,853.719C1144.079,853.719 1056.738,818.39 1039.372,807.369L1024.771,802.007L1021.655,797.305L1008.671,785.497L1005.839,777.723L1001.853,777.723Z" style="fill:rgb(43,43,43);"/>
                </g>
                <path d="M874.016,978.247C874.016,978.247 1052.188,979.583 1103.619,978.915" style="fill:none;stroke:black;stroke-width:4.17px;"/>
                <path d="M756.96,971.567C756.96,971.567 695.977,972.903 681.383,972.235" style="fill:none;stroke:black;stroke-width:4.17px;"/>
                <path d="M629.161,1249.763C629.161,1249.763 659.886,1267.575 685.268,1270.246" style="fill:none;stroke:black;stroke-width:4.17px;"/>
                <path d="M856.574,1267.575C856.574,1267.575 1012.776,1263.122 1119.759,1226.608" style="fill:none;stroke:black;stroke-width:4.17px;"/>
                <path d="M824.489,792.285C824.489,792.285 818.255,810.987 834.583,828.799C834.583,828.799 825.974,849.579 823.302,850.173C823.302,850.173 800.147,827.017 802.522,810.69C802.522,810.69 817.958,795.253 820.333,790.207L824.489,789.019L824.489,792.285Z" style="fill:none;stroke:black;stroke-width:4.17px;"/>
                <path d="M1024.771,802.007L1031.339,803.788C1031.339,803.788 1122.179,846.536 1142.959,853.364" style="fill:none;stroke:black;stroke-width:4.17px;"/>
                <path d="M910.941,853.194C896.268,872.278 899.1,864.642 894.16,878.262C884.806,904.049 874.373,949.547 862.426,1048.476C862.426,1048.476 852.852,1113.711 858.195,1294.388C858.195,1294.388 985.103,1297.438 1118.958,1252.152C1118.958,1252.152 1117.622,1231.98 1119.759,1226.637" style="fill:none;stroke:black;stroke-width:4.17px;"/>
                <path d="M1119.759,1229.309C1119.759,1229.309 1123.5,1185.492 1124.568,1169.461C1124.568,1169.461 1131.96,1063.126 1147.768,999.538" style="fill:none;stroke:black;stroke-width:4.17px;"/>
                <path d="M801.179,809.876L796.217,810.258C796.217,810.258 756.904,824.38 693.546,871.326" style="fill:none;stroke:black;stroke-width:4.17px;"/>
                <path d="M1024.096,800.623C1024.096,800.623 1006.158,785.738 1005.776,778.868L1001.959,777.723C1001.959,777.723 988.918,806.889 895.089,833.448C895.089,833.448 893.324,852.603 894.66,855.609C894.66,855.609 969.739,848.556 1024.096,800.623Z" style="fill:none;stroke:black;stroke-width:4.17px;"/>
                <path d="M813,840.601C813,840.601 757.35,954.468 724.398,1078.482C724.398,1078.482 705.161,1137.617 681.383,1294.849" style="fill:none;stroke:black;stroke-width:4.17px;"/>
                <path d="M681.383,1294.849C681.383,1294.849 660.365,1292.801 629.729,1273.252L627.948,1251.567" style="fill:none;stroke:black;stroke-width:4.17px;"/>
                <path d="M627.948,1251.567C627.948,1251.567 610.814,1147.458 675.508,1023.206C675.508,1023.206 670.432,984.561 681.383,963.187C681.383,963.187 694.115,923.556 699.013,915.986" style="fill:none;stroke:black;stroke-width:4.17px;"/>
                <path d="M691.789,932.87C691.789,932.87 681.399,897.455 693.546,871.326" style="fill:none;stroke:black;stroke-width:4.17px;"/>
            </g>
            <g id="r-hand" serif:id="r hand" transform="matrix(1,0,0,1,-116.21216,-10.603583)">
                <path d="M1245.175,860.497C1245.175,860.497 1153.785,839.542 1169.921,995.355L1169.921,1002.051L1173.701,1013.072L1215.781,1144.322L1215.41,1147.606C1215.41,1147.606 1215.966,1187.756 1218.304,1213.064C1218.304,1213.064 1219.597,1234.606 1220.403,1247.762C1220.569,1250.48 1221.652,1253.089 1222.534,1258.929C1222.534,1258.929 1221.644,1262.788 1223.425,1269.616C1223.425,1269.616 1224.612,1300.891 1225.503,1304.401C1225.503,1304.401 1301.759,1298.042 1314.858,1315.602L1327.623,1279.727C1327.623,1279.727 1334.043,1263.103 1335.044,1257.426C1335.044,1257.426 1351.891,1188.888 1353.227,1182.543C1353.227,1182.543 1355.442,1159.499 1356.728,1155.157C1356.728,1155.157 1359.066,1110.739 1358.039,1102.724C1358.039,1102.724 1343.653,1008.879 1339.646,999.862C1339.646,999.862 1325.953,929.395 1316.602,918.708C1316.602,918.708 1298.568,871.502 1249.14,862.543L1245.175,860.497Z" style="fill:rgb(43,43,43);"/>
                <path d="M1328.178,1279.725C1338.233,1250.382 1348.164,1202.551 1350.697,1192.702C1350.697,1192.702 1360.239,1144.992 1357.567,1106.061C1357.567,1106.061 1349.17,1034.265 1331.995,962.932C1331.995,962.932 1316.346,878.239 1254.514,863.354C1254.514,863.354 1252.749,860.968 1247.787,860.205M1223.598,1270.564C1223.598,1270.564 1224.361,1299.306 1225.125,1304.401C1225.125,1304.401 1293.063,1297.282 1315.582,1315.602C1315.582,1315.602 1326.651,1284.686 1328.178,1279.725M1169.921,1003.083C1169.921,1003.083 1213.738,1133.007 1215.341,1145.832C1215.341,1145.832 1218.255,1243.402 1223.598,1270.564" style="fill:none;stroke:black;stroke-width:4.17px;"/>
                <path d="M1266.928,867.495C1266.928,867.495 1192.23,849.381 1169.921,1003.083" style="fill:none;stroke:black;stroke-width:4.17px;"/>
                <path d="M1327.51,1279.151C1327.51,1279.151 1292.777,1238.54 1225.984,1270.067" style="fill:none;stroke:black;stroke-width:4.17px;"/>
                <path d="M1245.754,1143.96C1245.754,1143.96 1273.541,1108.693 1293.312,1099.609" style="fill:none;stroke:black;stroke-width:4.17px;"/>
            </g>
        </g>
    </g>
</svg>
