<?xml version="1.0" encoding="UTF-8" standalone="no"?>
<svg width="100%" height="100%" viewBox="0 0 660 563" version="1.1" xmlns="http://www.w3.org/2000/svg" xmlns:xlink="http://www.w3.org/1999/xlink" xml:space="preserve" xmlns:serif="http://www.serif.com/" style="fill-rule:evenodd;clip-rule:evenodd;stroke-linecap:round;stroke-linejoin:round;stroke-miterlimit:1.5;">
    <g transform="matrix(1,0,0,1,-584.059572,-752.709628)">
        <g>
            <g id="l-hand" serif:id="l hand" transform="matrix(1,0,0,1,117.684086,8.47988)">
                <path d="M601.863,853.941C601.863,853.941 689.408,870.421 648.174,1003.083L638.587,1029.058L618.883,1079.171L603.255,1121.801C603.255,1121.801 589.628,1192.869 583.483,1213.442C583.483,1213.442 577.337,1234.816 577.605,1244.434C577.605,1244.434 575.734,1261.266 573.864,1265.274C573.864,1265.274 568.724,1274.633 558.336,1275.698C558.336,1275.698 549.017,1303.185 547.948,1304.401C547.948,1304.401 519.695,1279.983 476.613,1287.449L475.281,1258.674L466.375,1243.071C466.375,1243.071 467.372,1232.598 475.708,1217.85L478.487,1188.354C478.487,1188.354 480.731,1129.549 493.556,1098.022C493.556,1098.022 509.586,1054.206 509.052,1041.381C509.052,1041.381 521.876,965.504 525.884,952.946C525.884,952.946 545.079,858.524 599.395,853.406C651.611,848.486 601.863,853.941 601.863,853.941Z" style="fill:rgb(117,140,178);"/>
                <path d="M475.512,1258.568C475.512,1258.568 475.178,1281.946 475.846,1287.29C475.846,1287.29 523.604,1283.105 547.315,1304.401C547.315,1304.401 556.666,1282.14 558.336,1275.698C558.336,1275.698 549.068,1262.563 528.803,1256.407C515.753,1252.443 498.144,1251.373 475.512,1258.568M581.869,858.419C581.869,858.419 544.001,865.908 520.401,980.607C520.401,980.607 504.854,1069.709 498.365,1084.976C498.365,1084.976 481.571,1126.198 480.045,1168.564C480.045,1168.564 475.226,1207.994 475.512,1258.568" style="fill:none;stroke:black;stroke-width:4.17px;"/>
                <path d="M558.67,1276.365C558.67,1276.365 578.708,1224.504 584.052,1208.139C584.052,1208.139 601.418,1143.015 601.084,1122.977C601.084,1122.977 626.132,1060.859 633.813,1040.821C633.813,1040.821 647.506,1008.092 648.174,1003.083" style="fill:none;stroke:black;stroke-width:4.17px;"/>
            </g>
            <g>
                <g>
                    <path d="M797.545,805.174L795.916,809.876L783.458,815.474L762.084,826.414L731.359,844.047C731.359,844.047 696.076,867.88 693.546,871.326C693.546,871.326 682.433,886.278 690.598,932.87C690.598,932.87 676.054,975.722 675.252,982.134C675.252,982.134 672.848,1013.66 675.252,1022.21C675.252,1022.21 653.611,1070.836 650.138,1084.195C650.138,1084.195 626.894,1148.584 630.367,1178.507C630.367,1178.507 628.23,1200.148 626.626,1211.904C626.626,1211.904 621.016,1241.56 622.886,1245.568L628.23,1251.567L628.764,1255.454L629.833,1273.621C629.833,1273.621 670.977,1297.934 681.13,1294.728C681.13,1294.728 694.222,1207.629 697.428,1198.545C697.428,1198.545 718,1092.243 725.681,1075.211C725.681,1075.211 765.424,945.631 777.113,923.589C777.113,923.589 804.712,857.282 808.385,850.099C808.385,850.099 811.458,845.18 817.87,827.867L826.836,788.251L813,794.31C813,794.31 800.518,804.709 797.545,805.174Z" style="fill:rgb(117,140,178);"/>
                    <path d="M1004.204,754.793L993.303,763.588C993.303,763.588 982.402,774.703 964.448,785.51C957.936,789.43 937.908,800.127 933.243,806.327C929.596,811.173 930.528,812.501 928.232,819.175C925.318,827.646 922.473,833.134 915.074,841.018L907.807,850.179C907.807,850.179 900.754,864.714 896.906,876.256C893.059,887.797 867.731,971.971 862.254,1057.033C862.254,1057.033 856.189,1130.362 856.574,1163.091C856.574,1163.091 858.193,1278.156 859.913,1294.431C859.913,1294.431 912.13,1294.842 936.442,1290.033C936.442,1290.033 1071.06,1273.733 1119.759,1251.809C1119.759,1251.809 1117.664,1233.585 1119.759,1228.027C1119.759,1228.027 1123.351,1216.699 1124.42,1213.493C1124.42,1213.493 1120.479,1186.939 1128.494,1123.275C1128.494,1123.275 1139.657,1024.628 1147.768,999.538C1155.879,974.449 1210.873,891.124 1144.079,853.719C1144.079,853.719 1056.738,818.39 1039.372,807.369L1024.771,802.007L1022.51,802.007L1011.236,776.52L1010.114,762.56L1004.204,754.793Z" style="fill:rgb(117,140,178);"/>
                </g>
                <path d="M1002.169,754.854C1002.169,754.854 987.141,774.224 933.038,804.615C933.038,804.615 929.03,820.98 926.358,826.991C926.358,826.991 912.332,844.485 907.99,850.099" style="fill:none;stroke:black;stroke-width:4.17px;"/>
                <path d="M938.381,807.287L947.065,802.476C947.065,802.476 968.105,834.672 979.793,841.018C979.793,841.018 1022.207,808.687 1022.541,802.476C1022.541,802.476 1011.854,782.573 1011.52,774.558C1011.52,774.558 1012.856,753.518 1002.169,754.854" style="fill:none;stroke:black;stroke-width:4.17px;"/>
                <path d="M826.836,788.251C826.836,788.251 820.538,825.49 813,840.601" style="fill:none;stroke:black;stroke-width:4.17px;"/>
                <path d="M826.836,788.251C826.836,788.251 812.141,791.988 795.109,807.82C795.109,807.82 776.073,846.155 772.399,850.099C772.399,850.099 800.786,834.004 805.462,831.333" style="fill:none;stroke:black;stroke-width:4.17px;"/>
                <path d="M692.606,933.09C692.606,933.09 750.048,932.645 757.618,934.426C757.618,934.426 750.494,949.12 748.713,955.8C748.713,955.8 714.425,959.362 706.41,962.479C706.41,962.479 699.285,955.354 687.262,952.683C687.262,952.683 689.823,935.038 692.606,933.09Z" style="fill:none;stroke:black;stroke-width:4.17px;"/>
                <path d="M748.713,955.8C748.713,955.8 728.786,1021.981 728.452,1029.996C728.452,1029.996 694.832,1033.67 687.262,1031.332C687.262,1031.332 678.691,1027.325 676.353,1018.975" style="fill:none;stroke:black;stroke-width:4.17px;"/>
                <g transform="matrix(1,0,0,1,-27.786167,-4.274795)">
                    <path d="M948.693,933.04L944.418,955.8C944.418,955.8 981.288,966.375 990.906,972.253C990.906,972.253 1036.326,961.255 1049.685,962.479C1049.685,962.479 1052.891,939.782 1053.425,933.04C1053.425,933.04 967.929,929.095 948.693,933.04Z" style="fill:none;stroke:black;stroke-width:4.17px;"/>
                </g>
                <g transform="matrix(1,0,0,1,-27.786167,-4.274795)">
                    <path d="M944.418,955.8C944.418,955.8 935.334,1016.625 935.868,1032.111C935.868,1032.111 975.41,1057.749 989.838,1054.543C989.838,1054.543 1036.326,1042.828 1043.273,1038.533C1043.273,1038.533 1048.082,974.613 1048.616,962.479" style="fill:none;stroke:black;stroke-width:4.17px;"/>
                </g>
                <path d="M799.617,810.627L804.126,808.623C804.126,808.623 807.132,824.319 806.13,829.663C806.13,829.663 796.779,846.823 795.777,850.099C795.777,850.099 799.784,864.396 796.779,872.411" style="fill:none;stroke:black;stroke-width:4.17px;"/>
                <path d="M1024.771,802.007L1031.339,803.788C1031.339,803.788 1122.179,846.536 1142.959,853.364" style="fill:none;stroke:black;stroke-width:4.17px;"/>
                <path d="M907.464,850.099C907.464,850.099 880.682,897.299 862.426,1048.476C862.426,1048.476 852.852,1113.711 858.195,1294.388C858.195,1294.388 985.103,1297.438 1118.958,1252.152C1118.958,1252.152 1117.622,1231.98 1119.759,1226.637" style="fill:none;stroke:black;stroke-width:4.17px;"/>
                <path d="M1119.759,1229.309C1119.759,1229.309 1123.5,1185.492 1124.568,1169.461C1124.568,1169.461 1131.96,1063.126 1147.768,999.538" style="fill:none;stroke:black;stroke-width:4.17px;"/>
                <path d="M801.179,809.876L796.217,810.258C796.217,810.258 756.904,824.38 693.546,871.326" style="fill:none;stroke:black;stroke-width:4.17px;"/>
                <path d="M813,840.601C813,840.601 757.35,954.468 724.398,1078.482C724.398,1078.482 705.161,1137.617 681.383,1294.849" style="fill:none;stroke:black;stroke-width:4.17px;"/>
                <path d="M681.383,1294.849C681.383,1294.849 660.365,1292.801 629.729,1273.252L627.948,1251.567" style="fill:none;stroke:black;stroke-width:4.17px;"/>
                <path d="M627.948,1251.567C627.948,1251.567 610.814,1147.458 675.508,1023.206C675.508,1023.206 670.432,984.561 681.383,963.187C681.383,963.187 694.115,923.556 699.013,915.986" style="fill:none;stroke:black;stroke-width:4.17px;"/>
                <path d="M691.789,932.87C691.789,932.87 681.399,897.455 693.546,871.326" style="fill:none;stroke:black;stroke-width:4.17px;"/>
            </g>
            <g id="r-hand" serif:id="r hand" transform="matrix(1,0,0,1,-116.21216,-10.603583)">
                <path d="M1245.175,860.497C1245.175,860.497 1153.785,839.542 1169.921,995.355L1169.921,1002.051L1173.701,1013.072L1215.781,1144.322L1215.41,1147.606C1215.41,1147.606 1210.957,1197.775 1216.3,1217.071C1216.3,1217.071 1215.738,1237.872 1214.763,1248.356C1214.51,1251.067 1214.23,1253.089 1213.925,1253.882C1213.925,1253.882 1220.456,1266.053 1223.425,1269.616C1223.425,1269.616 1224.612,1300.891 1225.503,1304.401C1225.503,1304.401 1301.759,1298.042 1314.858,1315.602L1327.623,1279.727C1327.623,1279.727 1339.98,1274.384 1340.982,1268.706C1340.982,1268.706 1345.657,1223.621 1346.993,1217.275C1346.993,1217.275 1355.442,1159.499 1356.728,1155.157C1356.728,1155.157 1359.066,1110.739 1358.039,1102.724C1358.039,1102.724 1343.653,1008.879 1339.646,999.862C1339.646,999.862 1325.953,929.395 1316.602,918.708C1316.602,918.708 1298.568,871.502 1249.14,862.543L1245.175,860.497Z" style="fill:rgb(117,140,178);"/>
                <path d="M1328.178,1279.725C1338.233,1250.382 1348.164,1202.551 1350.697,1192.702C1350.697,1192.702 1360.239,1144.992 1357.567,1106.061C1357.567,1106.061 1349.17,1034.265 1331.995,962.932C1331.995,962.932 1316.346,878.239 1254.514,863.354C1254.514,863.354 1252.749,860.968 1247.787,860.205M1223.598,1270.564C1223.598,1270.564 1224.361,1299.306 1225.125,1304.401C1225.125,1304.401 1293.063,1297.282 1315.582,1315.602C1315.582,1315.602 1326.651,1284.686 1328.178,1279.725M1169.921,1003.083C1169.921,1003.083 1213.738,1133.007 1215.341,1145.832C1215.341,1145.832 1218.255,1243.402 1223.598,1270.564" style="fill:none;stroke:black;stroke-width:4.17px;"/>
                <path d="M1266.928,867.495C1266.928,867.495 1192.23,849.381 1169.921,1003.083" style="fill:none;stroke:black;stroke-width:4.17px;"/>
                <path d="M1327.51,1279.151C1327.51,1279.151 1292.777,1238.54 1225.984,1270.067" style="fill:none;stroke:black;stroke-width:4.17px;"/>
                <path d="M1245.754,1143.96C1245.754,1143.96 1273.541,1108.693 1293.312,1099.609" style="fill:none;stroke:black;stroke-width:4.17px;"/>
            </g>
        </g>
    </g>
</svg>
