<?xml version="1.0" encoding="UTF-8" standalone="no"?>
<svg width="100%" height="100%" viewBox="0 0 616 501" version="1.1" xmlns="http://www.w3.org/2000/svg" xmlns:xlink="http://www.w3.org/1999/xlink" xml:space="preserve" xmlns:serif="http://www.serif.com/" style="fill-rule:evenodd;clip-rule:evenodd;stroke-linecap:round;stroke-linejoin:round;stroke-miterlimit:1.5;">
    <g transform="matrix(1,0,0,1,-439.542335,-1232.606365)">
        <g>
            <g id="l-hand" serif:id="l hand" transform="matrix(1,0,0,1,125.10455,-12.197128)">
                <path d="M497.702,1441.797C497.702,1441.797 486.23,1472.062 484.862,1476.337C483.495,1480.612 472.754,1508.436 472.754,1508.436L450.205,1566.119C450.205,1566.119 436.311,1617.844 433.533,1624.47C433.533,1624.47 419.266,1654.179 415.418,1660.592C415.418,1660.592 397.678,1695.111 395.327,1700.027L371.762,1739.688C371.762,1739.688 364.281,1723.859 343.762,1717.446C343.762,1717.446 318.776,1712.744 316.521,1714.668L320.037,1689.874L333.93,1615.92L339.487,1590.271C339.487,1590.271 349.533,1559.065 351.671,1555.859C353.808,1552.653 356.373,1532.775 356.373,1532.775L367.06,1488.745L377.533,1442.791L389.93,1389.57C389.93,1389.57 401.044,1360.074 411.945,1350.669C411.945,1350.669 438.235,1329.723 447.853,1326.516C457.472,1323.31 467.731,1321.411 467.731,1321.411L475.084,1321.411C475.084,1321.411 522.866,1327.404 497.702,1441.797Z" style="fill:rgb(169,169,169);"/>
                <path d="M474.154,1321.411C474.154,1321.411 404.307,1324.082 387.513,1398.891C387.513,1398.891 354.689,1541.257 352.399,1556.143C352.399,1556.143 340.949,1582.86 339.04,1591.639C337.132,1600.417 332.17,1625.99 324.536,1667.211C316.903,1708.432 316.521,1715.303 316.521,1715.303C316.521,1715.303 352.908,1709.35 371.61,1739.688C371.61,1739.688 392.331,1702.846 397.674,1693.94C403.018,1685.034 429.795,1633.172 433.06,1625.751C436.326,1618.329 449.388,1574.394 450.575,1566.082C450.575,1566.082 492.024,1458.6 497.702,1441.901" style="fill:none;stroke:black;stroke-width:4.17px;"/>
                <path d="M387.826,1543.968C387.826,1543.968 409.804,1568.677 411.005,1594.191" style="fill:none;stroke:black;stroke-width:4.17px;"/>
            </g>
            <g id="body">
                <g>
                    <path d="M562.085,1380.322C562.085,1380.322 527.957,1402.489 509.484,1431.866L505.052,1440.78L502.119,1459.024L502.174,1501.694L504.624,1523.566L505.318,1544.624L503.725,1565.645L496.852,1603.184L489.367,1667.387L489.367,1699.657C489.367,1699.657 511.164,1725.249 553.11,1730.987C553.11,1730.987 554.104,1697.077 556.509,1685.856C558.913,1674.635 560.677,1645.203 562.547,1637.989C562.547,1637.989 569.023,1600.424 570.359,1596.149C571.695,1591.875 578.257,1553.711 579.058,1549.169C579.86,1544.627 591.958,1496.365 593.561,1490.754C595.164,1485.144 598.53,1469.797 599.599,1465.79C600.668,1461.782 603.019,1452.623 605.156,1447.012C607.293,1441.402 619.551,1403.581 621.956,1398.237C624.361,1392.894 640.154,1357.541 642.291,1351.93C644.429,1346.32 657.779,1312.887 657.779,1312.887C657.779,1312.887 666.345,1299.539 670.56,1289.305C670.56,1289.305 675.415,1279.837 683.028,1271.931L681.826,1259.374C681.826,1259.374 656.505,1274.973 645.027,1284.585C638.166,1290.331 609.893,1299.94 609.893,1299.94L581.185,1312.887C581.185,1312.887 549.432,1332.375 563.562,1374.678" style="fill:rgb(169,169,169);"/>
                    <path d="M766.686,1330.959C766.686,1330.959 746.915,1396.31 744.778,1403.256C744.778,1403.256 731.259,1465.882 731.526,1483.248C731.526,1483.248 727.786,1532.622 727.519,1540.37C727.251,1548.119 727.283,1573.858 727.283,1573.858L728.676,1608.705L732.09,1667.958L740.135,1730.987C740.135,1730.987 771.365,1731.75 794.342,1726.178C794.342,1726.178 871.555,1709.385 887.319,1702.171C887.319,1702.171 925.257,1690.416 928.731,1687.21L927.128,1674.652L926.059,1619.08L924.99,1545.073L926.861,1500.989L930.601,1454.768L935.143,1428.05C935.143,1428.05 989.112,1347.309 945.563,1312.887L917.193,1300.025L878.207,1286.346L844.145,1271.709L830.115,1265.271L824.652,1263.536L818.368,1248.617C818.368,1248.617 814.949,1239.759 807.168,1235.433C807.168,1235.433 794.908,1271.033 792.309,1272.401C789.71,1273.769 766.686,1330.959 766.686,1330.959Z" style="fill:rgb(169,169,169);"/>
                </g>
                <path d="M681.826,1272.401C681.826,1272.401 667.429,1290.955 653.773,1323.61C653.773,1323.61 612.377,1416.644 601.859,1459.646C601.859,1459.646 571.829,1577.457 566.485,1614.098C566.485,1614.098 554.224,1684.423 552.697,1730.987C552.697,1730.987 511.052,1720.979 489.381,1699.605C489.381,1699.605 488.384,1628.391 503.413,1566.794C503.413,1566.794 506.289,1528.085 504.224,1514.548C501.218,1494.844 499.215,1459.778 505.56,1439.74C510.525,1424.061 541.295,1392.984 562.335,1379.959C562.335,1379.959 568.123,1365.728 566.639,1361.869" style="fill:none;stroke:black;stroke-width:4.17px;"/>
                <path d="M801.714,1252.45C801.714,1252.45 778.67,1300.208 763.641,1337.612C763.641,1337.612 733.186,1430.066 730.26,1501.694C730.26,1501.694 720.782,1589.162 739.929,1730.987C739.929,1730.987 814.675,1733.182 928.606,1687.046C928.606,1687.046 923.167,1550.358 925.838,1530.32C925.838,1530.32 927.397,1469.871 934.967,1428.459" style="fill:none;stroke:black;stroke-width:4.17px;"/>
                <path d="M823.969,1262.795C837.016,1269.147 855.873,1277.75 878.924,1286.645C878.924,1286.645 931.595,1303.555 945.717,1311.189" style="fill:none;stroke:black;stroke-width:4.17px;"/>
                <path d="M642.291,1286.992C620.106,1295.449 594.315,1305.794 581.185,1312.887" style="fill:none;stroke:black;stroke-width:4.17px;"/>
                <path d="M778.164,1322.523L791.878,1316.534C791.878,1316.534 802.655,1320.186 820.466,1333.099C820.466,1333.099 840.95,1261.852 807.553,1234.69L801.461,1252.45" style="fill:none;stroke:black;stroke-width:4.17px;"/>
                <path d="M681.826,1272.401L681.826,1257.745C681.826,1257.745 631.863,1285.798 619.84,1320.865L649.229,1306.838L652.569,1312.887" style="fill:none;stroke:black;stroke-width:4.17px;"/>
            </g>
            <g id="r-hand" serif:id="r hand" transform="matrix(1,0,0,1,-79.677221,-11.563384)">
                <path d="M1017.019,1712.43C1017.019,1712.43 1084.955,1709.515 1094.702,1727.527L1107.122,1686.843L1124.316,1632.641C1124.316,1632.641 1133.021,1599.084 1132.73,1595.451C1132.439,1591.817 1130.942,1567.451 1129.874,1561.466C1128.805,1555.481 1126.24,1519.573 1125.385,1515.939C1124.53,1512.306 1117.049,1471.054 1115.126,1465.711C1113.202,1460.367 1104.866,1419.329 1102.301,1413.986C1099.736,1408.642 1094.82,1386.199 1090.759,1380.428C1086.698,1374.657 1068.958,1347.085 1064.683,1344.52C1060.408,1341.955 1042.069,1327.08 1025.996,1324.611C1009.923,1322.142 939.976,1347.596 972.382,1443.645L989.458,1494.494C989.458,1494.494 1013.932,1568.876 1018.474,1576.143L1018.474,1585.761C1018.474,1585.761 1018.421,1649.669 1018.474,1658.219C1018.527,1666.768 1018.076,1708.718 1017.019,1712.43Z" style="fill:rgb(169,169,169);"/>
                <path d="M972.382,1445.376C972.382,1445.376 1008.069,1551.833 1019.138,1578.169L1017.849,1586.685C1017.849,1586.685 1020.855,1685.873 1016.847,1712.591C1016.847,1712.591 1077.481,1708.528 1093.512,1727.527C1093.512,1727.527 1119.636,1647.671 1122.901,1636.39C1126.166,1625.11 1134.479,1601.955 1132.401,1583.549C1130.322,1565.144 1127.948,1524.177 1121.714,1491.819C1121.714,1491.819 1111.323,1442.616 1099.152,1403.652C1099.152,1403.652 1084.606,1340.048 1027.312,1324.611" style="fill:none;stroke:black;stroke-width:4.17px;"/>
            </g>
        </g>
    </g>
</svg>
