<?xml version="1.0" encoding="UTF-8" standalone="no"?>
<svg width="100%" height="100%" viewBox="0 0 383 593" version="1.1" xmlns="http://www.w3.org/2000/svg" xmlns:xlink="http://www.w3.org/1999/xlink" xml:space="preserve" xmlns:serif="http://www.serif.com/" style="fill-rule:evenodd;clip-rule:evenodd;stroke-linecap:round;stroke-linejoin:round;stroke-miterlimit:1.5;">
    <g transform="matrix(1,0,0,1,-547.580346,-1268.002858)">
        <g>
            <g id="l-hand" serif:id="l hand" transform="matrix(1,0,0,1,52.808983,3.090732)">
                <path d="M557.097,1314.801C557.097,1314.801 528.509,1323.822 514.883,1355.615C514.883,1355.615 502.775,1382.272 504.955,1410.552C504.955,1410.552 500.99,1455.129 500.723,1467.419C500.456,1479.709 497.528,1522.19 496.855,1525.663C496.855,1525.663 550.952,1529.711 560.303,1546.79L571.791,1464.747L577.484,1420.931C577.484,1420.931 609.463,1313.672 557.097,1314.801Z" style="fill:rgb(177,124,58);"/>
                <path d="M557.542,1314.801C557.542,1314.801 502.198,1331.595 504.488,1412.893C504.488,1412.893 498.763,1515.182 496.855,1526.633C496.855,1526.633 538.076,1525.75 560.786,1546.79C560.786,1546.79 576.816,1429.233 577.484,1421.218" style="fill:none;stroke:black;stroke-width:4.17px;"/>
            </g>
            <g id="body">
                <path d="M604.12,1364.987C604.12,1364.987 607.949,1375.6 606.613,1379.608C606.613,1379.608 591.651,1397.695 588.873,1403.894C586.094,1410.092 576.903,1420.993 577.972,1442.153C579.041,1463.313 582.888,1474.855 589.942,1486.611C596.995,1498.367 605.972,1511.832 607.254,1520.168C608.537,1528.504 610.674,1535.373 610.674,1540.061C610.674,1544.748 611.102,1563.164 610.033,1569.452C608.964,1575.741 602.125,1606.092 599.987,1612.718C597.85,1619.343 586.735,1653.328 585.026,1661.664C583.316,1670 575.193,1709.969 574.98,1719.587C574.766,1729.206 573.911,1755.496 574.766,1762.549C575.621,1769.602 586.949,1843.77 591.651,1848.9C591.651,1848.9 642.255,1860.014 673.84,1858.091C673.84,1858.091 755.439,1857.877 773.821,1854.671C773.821,1854.671 849.271,1848.259 853.759,1845.908C853.759,1845.908 867.439,1754.213 866.156,1745.664C866.156,1745.664 863.378,1692.87 860.599,1683.679C860.599,1683.679 850.126,1633.45 835.378,1611.221C835.378,1611.221 815.714,1579.16 811.653,1563.13C811.653,1563.13 806.737,1545.229 806.95,1537.481C806.95,1537.481 809.088,1503.443 812.508,1493.397C812.508,1493.397 836.233,1428.039 839.866,1418.588C839.866,1418.588 888.15,1354.71 837.601,1320.265C837.601,1320.265 799.031,1298.378 794.928,1294.958C794.928,1294.958 758.677,1272.045 757.48,1270.335L755.086,1273.242C755.086,1273.242 728.412,1334.799 718.665,1347.795C718.665,1347.795 674.849,1412.13 672.284,1416.405L670.403,1416.063L664.418,1370.408L663.734,1339.63L664.76,1316.546L669.035,1300.302L671.258,1287.477L610.556,1320.137C610.556,1320.137 583.546,1331.639 604.12,1364.987Z" style="fill:rgb(177,124,58);"/>
                <path d="M679.171,1540.063C679.171,1540.063 687.721,1549.414 687.186,1552.62C687.186,1552.62 673.792,1562.506 672.474,1569.452C672.474,1569.452 662.339,1569.185 660.469,1563.574C660.469,1563.574 667.415,1539.796 679.171,1540.063Z" style="fill:none;stroke:black;stroke-width:4.17px;"/>
                <path d="M672.474,1569.452C672.474,1569.452 689.973,1598.616 691.728,1642.391C691.728,1642.391 707.988,1647.616 712.95,1644.181C712.95,1644.181 703.48,1579.072 683.596,1557.81" style="fill:none;stroke:black;stroke-width:4.17px;"/>
                <path d="M665.367,1569.452C665.367,1569.452 659.727,1595.409 660.469,1601.58C660.469,1601.58 648.149,1596.471 645.477,1592.909C645.477,1592.909 653.178,1559.055 662.826,1554.757" style="fill:none;stroke:black;stroke-width:4.17px;"/>
                <path d="M687.21,1546.005C687.21,1546.005 772.831,1548.083 806.376,1532.349" style="fill:none;stroke:black;stroke-width:4.17px;"/>
                <path d="M692.712,1567.078C692.712,1567.078 772.831,1568.052 806.376,1553.021" style="fill:none;stroke:black;stroke-width:4.17px;"/>
                <path d="M611.427,1536.876C611.427,1536.876 627.725,1547.3 667.801,1546.096" style="fill:none;stroke:black;stroke-width:4.17px;"/>
                <path d="M611.427,1560.056C611.427,1560.056 620.244,1567.916 652.572,1567.091" style="fill:none;stroke:black;stroke-width:4.17px;"/>
                <path d="M672.474,1286.982C672.474,1286.982 654.281,1323.949 670.184,1418.28" style="fill:none;stroke:black;stroke-width:4.17px;"/>
                <path d="M665.361,1575.429C665.315,1604.149 663.846,1661.32 663.664,1669.974C663.303,1687.149 673.337,1850.711 672.474,1858.192M756.443,1270.086C756.443,1270.086 736.946,1327.942 683.718,1399.475C683.718,1399.475 664.109,1422.731 658.765,1456.276C658.765,1456.276 654.312,1493.681 659.953,1521.586C665.593,1549.49 662.923,1542.366 663.664,1545.631" style="fill:none;stroke:black;stroke-width:4.17px;"/>
                <path d="M592.991,1849.843C592.991,1849.843 676.483,1871.884 854.155,1845.835C854.155,1845.835 864.396,1777.817 866.177,1744.865C866.177,1744.865 866.623,1690.985 851.928,1650.909C837.234,1610.833 821.203,1587.677 815.414,1573.873C809.626,1560.069 806.508,1544.039 806.954,1531.125C807.399,1518.212 814.078,1484.815 818.977,1473.238C823.875,1461.66 835.452,1427.889 840.351,1418.28" style="fill:none;stroke:black;stroke-width:4.17px;"/>
                <path d="M756.443,1270.086C756.443,1270.086 787.806,1295.789 838.569,1318.054" style="fill:none;stroke:black;stroke-width:4.17px;"/>
                <path d="M672.474,1286.982C672.474,1286.982 623.049,1310.038 611.026,1318.054" style="fill:none;stroke:black;stroke-width:4.17px;"/>
                <path d="M604.346,1366.145C604.346,1366.145 608.354,1375.941 606.127,1380.84C606.127,1380.84 578.965,1408.002 578.965,1433.829C578.965,1433.829 574.066,1455.203 588.761,1484.592C588.761,1484.592 599.003,1497.506 605.237,1513.982C611.471,1530.457 611.026,1539.363 611.026,1560.737C611.026,1582.111 603.01,1599.923 599.448,1614.617C595.886,1629.312 585.199,1650.241 579.855,1688.981C579.855,1688.981 562.569,1746.259 591.068,1848.787" style="fill:none;stroke:black;stroke-width:4.17px;"/>
            </g>
            <g id="r-hand" serif:id="r hand" transform="matrix(1,0,0,1,-65.715242,-5.299201)">
                <path d="M885.495,1423.885C885.495,1423.885 923.373,1551.061 923.373,1560.056L928.977,1556.968C928.977,1556.968 964.162,1540.937 993.272,1548.418L989.679,1519.777L980.702,1454.159L968.092,1394.953C968.092,1394.953 959.542,1360.327 952.275,1354.129C952.275,1354.129 925.771,1321.224 898.626,1323.356C898.626,1323.356 845.632,1314.474 885.495,1423.885Z" style="fill:rgb(177,124,58);"/>
                <path d="M885.495,1424.779C885.495,1424.779 918.002,1531.465 922.9,1560.056C922.9,1560.056 963.882,1538.598 993.272,1549.035C993.272,1549.035 985.59,1474.643 975.571,1429.224C975.571,1429.224 965.886,1369.443 948.854,1350.741C948.854,1350.741 928.816,1323.69 899.093,1323.356" style="fill:none;stroke:black;stroke-width:4.17px;"/>
            </g>
        </g>
    </g>
</svg>
