<?xml version="1.0" encoding="UTF-8" standalone="no"?>
<svg width="100%" height="100%" viewBox="0 0 400 460" version="1.1" xmlns="http://www.w3.org/2000/svg" xmlns:xlink="http://www.w3.org/1999/xlink" xml:space="preserve" xmlns:serif="http://www.serif.com/" style="fill-rule:evenodd;clip-rule:evenodd;stroke-linecap:round;stroke-linejoin:round;stroke-miterlimit:1.5;">
    <g transform="matrix(1,0,0,1,-654.777506,-1569.958838)">
        <g transform="matrix(1,0,0,1,0,3)">
            <g id="l-hand" serif:id="l hand" transform="matrix(1,0,0,1,81.710925,-16.772633)">
                <path d="M663.175,1636.901C663.175,1636.901 616.283,1640.441 602.687,1695.438C602.687,1695.438 597.771,1732.414 604.611,1751.865C604.611,1751.865 600.336,1770.46 602.901,1790.124C602.901,1790.124 603.328,1814.277 603.115,1819.62C603.115,1819.62 590.931,1886.735 589.649,1893.574C589.649,1893.574 582.596,1949.147 582.168,1955.559C581.741,1961.971 575.15,2020.108 575.15,2020.108C575.15,2020.108 608.031,2024.561 620.641,2040.716L637.74,2001.727C637.74,2001.727 658.687,1951.284 659.542,1947.437C660.397,1943.589 666.595,1912.17 666.595,1909.605C666.595,1907.04 669.374,1880.75 669.374,1880.75L676.427,1838.808L684.122,1772.384L687.3,1749.086C687.3,1749.086 713.404,1632.146 663.175,1636.901Z" style="fill:rgb(29,29,29);"/>
                <path d="M687.3,1749.273C687.3,1749.273 674.386,1855.984 669.806,1876.976C669.806,1876.976 665.226,1930.793 658.737,1949.877C658.737,1949.877 625.531,2032.701 620.951,2040.716C620.951,2040.716 603.776,2021.25 575.15,2019.724C575.15,2019.724 586.6,1899.877 590.417,1890.335C590.417,1890.335 598.051,1854.839 599.959,1843.388C599.959,1843.388 604.921,1816.671 603.776,1809.037C603.776,1809.037 600.722,1763.618 604.539,1752.931C604.539,1752.931 592.325,1701.404 611.791,1672.397C611.791,1672.397 627.058,1641.862 663.318,1636.901" style="fill:none;stroke:black;stroke-width:4.17px;"/>
                <path d="M621.651,1854.394C621.651,1854.394 638.127,1874.432 641.244,1892.689" style="fill:none;stroke:black;stroke-width:4.17px;"/>
                <g transform="matrix(1,0,0,1,-81.710925,13.772633)">
                    <path d="M659.653,1986.171C659.653,1986.171 702.133,1987.774 709.881,2008.614" style="fill:none;stroke:black;stroke-width:2.08px;"/>
                </g>
            </g>
            <g id="body">
                <g transform="matrix(1,0,0,1,0,-3)">
                    <path d="M962.325,1712.937C962.325,1712.937 950.035,1782.135 948.165,1791.754C948.165,1791.754 939.883,1820.876 940.684,1830.494C940.684,1830.494 943.356,1852.669 948.966,1862.822C948.966,1862.822 968.626,1914.761 971.031,1920.371C971.031,1920.371 977.945,1938.535 979.281,1942.81C979.281,1942.81 922.073,1969.251 841.028,1977.733L838.506,1959.234L831.098,1891.276L823.912,1827.961C823.912,1827.961 822.427,1753.496 823.912,1744.59C823.912,1744.59 828.909,1687.481 829.799,1682.731C829.799,1682.731 834.659,1654.858 838.506,1636.722C838.506,1636.722 838.459,1635.675 840.447,1624.229C861.503,1613.104 877.161,1597.049 885.108,1573.954C885.108,1573.954 886.059,1575.112 900.519,1584.099C900.519,1584.099 954.007,1614.733 963.358,1619.053C963.358,1619.053 1015.196,1643.902 962.325,1712.937Z" style="fill:rgb(29,29,29);"/>
                </g>
                <g transform="matrix(1,0,0,1,0,-3)">
                    <path d="M797.228,1611.722C797.228,1611.722 801.315,1624.293 802.518,1628.641C802.518,1628.641 779.073,1678.208 777.403,1688.561C777.403,1688.561 761.039,1744.868 761.039,1751.214C761.039,1757.559 756.697,1794.258 757.031,1805.613C757.365,1816.968 757.35,1862.833 757.654,1872.184C757.959,1881.535 757.869,1913.146 756.17,1923.833C754.471,1934.52 752.52,1977.733 752.52,1977.733C748.968,1984.838 711.217,1969.118 716.584,1956.715C718.096,1953.221 718.789,1930.963 720.459,1926.287C722.129,1921.612 725.526,1880.653 725.343,1875.784C724.933,1864.874 723.226,1855.327 722.892,1849.316C722.558,1843.304 718.924,1820.605 715.918,1815.929C715.918,1815.929 709.501,1792.876 704.825,1775.843C700.15,1758.811 699.923,1757.893 701.258,1740.193C701.258,1740.193 706.832,1703.306 731.264,1677.902C731.264,1677.902 731.909,1666.619 729.831,1663.65C729.831,1663.65 709.278,1639.045 739.296,1625.336C739.296,1625.336 759.855,1613.316 762.609,1612.494C762.609,1612.494 773.306,1608.721 779.861,1604.583C779.861,1604.583 787.248,1599.548 790.343,1599.51L798.663,1596.928L797.228,1611.722Z" style="fill:rgb(29,29,29);"/>
                </g>
                <path d="M785.922,1598.362C774.696,1604.494 747.376,1615.347 739.296,1620.626" style="fill:none;stroke:black;stroke-width:4.17px;"/>
                <g transform="matrix(1,0,0,1,0,-3)">
                    <path d="M783.945,1602.407C783.945,1602.407 776.985,1627.302 794.921,1637.562" style="fill:none;stroke:black;stroke-width:4.17px;"/>
                </g>
                <g transform="matrix(1,0,0,1,0,-3)">
                    <path d="M900.713,1586.905C900.713,1586.905 904.552,1612.153 838.506,1640.34" style="fill:none;stroke:black;stroke-width:4.17px;"/>
                </g>
                <g transform="matrix(1,0,0,1,0,-3)">
                    <path d="M865.28,1627.048C865.28,1627.048 936.773,1674.939 947.727,1685.626" style="fill:none;stroke:black;stroke-width:2.08px;"/>
                </g>
                <g transform="matrix(1,0,0,1,0,-3)">
                    <path d="M788.769,1632.459C788.769,1632.459 743.535,1653.765 736.357,1659.009" style="fill:none;stroke:black;stroke-width:2.08px;"/>
                </g>
                <g transform="matrix(1,0,0,1,0,-3)">
                    <path d="M702.966,1731.12C702.966,1731.12 750.023,1729.636 762.563,1734.979" style="fill:none;stroke:black;stroke-width:2.08px;"/>
                </g>
                <g transform="matrix(1,0,0,1,0,-3)">
                    <path d="M825.866,1737.651C825.866,1737.651 913.44,1737.948 938.673,1741.51" style="fill:none;stroke:black;stroke-width:2.08px;"/>
                </g>
                <g transform="matrix(1,0,0,1,0,-3)">
                    <path d="M955.764,1712.694C955.764,1712.694 937.443,1805.823 933.245,1826.434C929.046,1847.044 934.559,1848.953 938.673,1860.785C938.673,1860.785 969.123,1934.449 971.031,1943.227" style="fill:none;stroke:black;stroke-width:2.08px;"/>
                </g>
                <g transform="matrix(1,0,0,1,0,-3)">
                    <path d="M971.031,1923.833C971.031,1923.833 946.868,1944.873 838.506,1959.234" style="fill:none;stroke:black;stroke-width:2.08px;"/>
                </g>
                <g transform="matrix(1,0,0,1,0,-3)">
                    <path d="M720.459,1943.227C720.459,1943.227 725.135,1955.226 752.52,1959.234" style="fill:none;stroke:black;stroke-width:2.08px;"/>
                </g>
                <path d="M900.713,1581.334C913.905,1590.125 945.983,1606.599 965.246,1615.389" style="fill:none;stroke:black;stroke-width:4.17px;"/>
                <path d="M979.281,1939.81C979.281,1939.81 978.82,1932.963 960.5,1890.979C960.5,1890.979 943.992,1852.381 942.084,1840.931C942.084,1840.931 939.412,1828.336 942.084,1816.504C944.755,1804.672 961.167,1718.412 961.931,1710.397" style="fill:none;stroke:black;stroke-width:4.17px;"/>
                <path d="M729.68,1659.751C729.68,1659.751 732.945,1669.547 730.867,1674C730.867,1674 691.427,1719.42 702.114,1758.308C702.114,1758.308 706.228,1781.676 713.904,1805.976C713.904,1805.976 717.339,1817.384 721.156,1836.043C724.665,1853.203 725.1,1868.698 724.803,1884.686C724.57,1897.212 719.622,1937.838 717.285,1954.536" style="fill:none;stroke:black;stroke-width:4.17px;"/>
                <path d="M831.407,1675.361C831.407,1675.361 821.098,1736.585 824.66,1808.276C828.223,1879.968 838.49,1956.03 841.161,1974.733C841.161,1974.733 924.167,1964.656 979.281,1940.032M900.713,1581.334C891.691,1575.689 891.591,1577.872 886.081,1569.042C881.007,1590.689 865.333,1607.476 841.26,1620.415C841.26,1620.415 833.312,1659.75 831.407,1675.361" style="fill:none;stroke:black;stroke-width:4.17px;"/>
                <g transform="matrix(1,0,0,1,0,-3)">
                    <path d="M717.285,1957.703C717.285,1957.703 719.849,1977.927 752.536,1977.733C752.536,1977.733 758.931,1888.936 758.206,1869.355C757.602,1853.051 755.221,1800.72 760.875,1751.48C756.384,1753.726 785.798,1648.898 803.92,1627.048" style="fill:none;stroke:black;stroke-width:4.17px;"/>
                </g>
                <path d="M803.92,1624.048C800.302,1624.048 793.816,1605.501 799.499,1592.439C799.499,1592.439 800.826,1592.014 785.922,1598.362" style="fill:none;stroke:black;stroke-width:4.17px;"/>
            </g>
            <g id="r-hand" serif:id="r hand" transform="matrix(1,0,0,1,-50.76319,8.015241)">
                <path d="M984.315,1698.89L987.822,1708.508C987.822,1708.508 994.502,1762.21 1005.189,1795.34C1005.189,1795.34 1022.983,1858.687 1023.837,1860.825C1024.692,1862.962 1023.624,1868.092 1023.624,1868.092C1023.624,1868.092 1024.906,1901.863 1026.402,1912.763L1028.967,1937.985L1031.318,2003.389C1031.318,2003.389 1055.257,1997.404 1071.501,2002.748L1088.387,2010.576L1090.311,1999.755L1098.433,1924.733L1102.552,1888.183C1102.552,1888.183 1098.646,1847.145 1097.791,1842.229C1096.936,1837.313 1095.013,1799.909 1095.013,1799.909C1095.013,1799.909 1093.944,1752.886 1092.662,1746.474L1084.967,1713.344C1084.967,1713.344 1086.891,1701.375 1085.395,1694.963C1085.395,1694.963 1079.41,1660.978 1076.631,1655.634C1076.631,1655.634 1061.456,1628.062 1057.822,1625.711C1057.822,1625.711 1031.746,1602.658 1005.67,1604.566C1005.67,1604.566 944.259,1611.497 984.315,1698.89Z" style="fill:rgb(29,29,29);"/>
                <path d="M1006.739,1604.566C1006.739,1604.566 1088.513,1603.946 1085.365,1714.108C1085.365,1714.108 1094.429,1739.966 1094.429,1769.356C1094.429,1769.356 1095.574,1821.646 1097.864,1843.02C1097.864,1843.02 1104.353,1880.424 1102.063,1897.218C1102.063,1897.218 1090.231,2005.614 1088.704,2010.576C1088.704,2010.576 1068.094,1993.401 1031.452,2004.469C1031.452,2004.469 1028.781,1921.645 1024.582,1896.073C1024.582,1896.073 1022.674,1868.974 1023.819,1862.103C1023.819,1862.103 992.012,1757.874 987.941,1708.287L984.315,1699.668" style="fill:none;stroke:black;stroke-width:4.17px;"/>
                <path d="M1030.804,1854.394C1030.804,1854.394 1040.422,1834.546 1048.971,1827.6" style="fill:none;stroke:black;stroke-width:4.17px;"/>
                <g transform="matrix(1,0,0,1,50.76319,-11.015241)">
                    <path d="M980.618,1994.751C980.618,1994.751 1025.504,1982.193 1040.198,2000.628" style="fill:none;stroke:black;stroke-width:2.08px;"/>
                </g>
            </g>
        </g>
    </g>
</svg>
