<?xml version="1.0" encoding="UTF-8" standalone="no"?>
<!DOCTYPE svg PUBLIC "-//W3C//DTD SVG 1.1//EN" "http://www.w3.org/Graphics/SVG/1.1/DTD/svg11.dtd">
<svg width="100%" height="100%" viewBox="0 0 646 538" version="1.1" xmlns="http://www.w3.org/2000/svg" xmlns:xlink="http://www.w3.org/1999/xlink" xml:space="preserve" xmlns:serif="http://www.serif.com/" style="fill-rule:evenodd;clip-rule:evenodd;stroke-linecap:round;stroke-linejoin:round;stroke-miterlimit:1.5;">
    <g transform="matrix(1,0,0,1,-418.940497,-1197.527042)">
        <g>
            <g id="l-hand" serif:id="l hand" transform="matrix(1,0,0,1,-47.39232,5.111246)">
                <path d="M626.339,1303.446C626.339,1303.446 574.376,1307.878 550.33,1353.298C550.33,1353.298 536.114,1378.874 533.784,1411.46C533.784,1411.46 518.784,1466.845 516.208,1478.865C513.002,1493.827 502.204,1528.335 501.53,1531.808C501.53,1531.808 496.102,1553.156 488.711,1581.774C484.584,1597.755 480.615,1604.847 471.92,1635.323C470.673,1639.693 475.828,1651.77 475.326,1655.755C474.122,1665.322 469.049,1682.415 468.416,1688.213C468.148,1690.672 483.934,1694.403 499.827,1704.454C510.185,1711.005 516.427,1717.182 518.235,1720.484L532.115,1695.269L549.55,1689.191L568.989,1646.201C568.989,1646.201 586.379,1616.023 589.525,1598.282C591.646,1586.328 596.972,1572.971 599.152,1552.876C600.109,1544.052 606.421,1535.886 609.354,1528.971C614.948,1515.78 618.175,1507.136 618.175,1507.136L648.226,1425.73C648.226,1425.73 678.705,1302.317 626.339,1303.446Z" style="fill:rgb(221,221,221);"/>
                <path d="M599.152,1552.876C599.152,1552.876 630.014,1487.121 648.226,1425.73M626.339,1303.447C626.339,1303.447 547.735,1302.674 532.325,1411.423C532.325,1411.423 509.784,1506.833 501.53,1528.971" style="fill:none;stroke:black;stroke-width:4.17px;"/>
                <g transform="matrix(1.220897,0.232604,-0.280526,1.472431,348.116296,-853.394206)">
                    <path d="M514.721,1530.657C514.721,1530.657 531.197,1546.806 534.759,1558.028" style="fill:none;stroke:black;stroke-width:3.03px;"/>
                </g>
                <g transform="matrix(1,0,0,1,-0.487269,-0.864276)">
                    <path d="M502.018,1529.835L494.831,1560.536C494.831,1560.536 490.722,1577.212 483.825,1598.645C478.884,1614.002 482.904,1598.705 471.887,1636.42C470.061,1642.67 476.728,1651.453 476.116,1655.736C474.441,1667.467 469.719,1687.957 468.903,1689.507C468.903,1689.507 505.156,1699.974 519.109,1721.348C519.109,1721.348 527.635,1709.837 532.226,1696.672C533.336,1693.492 548.864,1693.286 550.238,1689.794C561.263,1661.773 575.337,1637.506 577.237,1632.718C582.581,1619.246 584.62,1618.402 593.853,1587.24C594.9,1583.705 599.315,1558.457 599.639,1554.441" style="fill:none;stroke:black;stroke-width:4.17px;"/>
                </g>
                <g transform="matrix(1,0,0,1,-1.899554,1.361954)">
                    <path d="M532.945,1693.907C528.535,1687.207 526.581,1667.82 478.755,1657.659" style="fill:none;stroke:black;stroke-width:2.08px;"/>
                </g>
            </g>
            <g id="body">
                <path d="M653.323,1276.47L601.97,1293.988L568.613,1313.9C568.613,1313.9 529.134,1345.893 551.021,1376.028C551.021,1376.028 545.116,1380.492 543.657,1384.14L520.904,1401.615C520.904,1401.615 498.66,1424.665 494.387,1455.968C492.141,1472.422 495.491,1497.832 497.68,1503.851C497.68,1503.851 497.371,1532.272 497.053,1538.608C496.708,1545.482 487.471,1574.12 486.677,1582.057C485.571,1593.106 474.644,1634.378 474.097,1637.661C474.097,1637.661 469.316,1653.107 469.499,1657.485C469.681,1661.862 478.797,1670.742 481.168,1673.843L484.172,1708.013L568.613,1725.947C568.613,1725.947 639.526,1731.566 674.577,1732.857C674.577,1732.857 732.851,1730.938 757.838,1728.772C757.838,1728.772 824.428,1718.996 845.039,1712.441C845.039,1712.441 894.896,1699.805 919.704,1682.962L919.704,1652.497C926.057,1642.66 931.721,1632.22 933.501,1618.382C933.501,1618.382 920.616,1583.286 919.704,1579.82C919.704,1579.82 918.326,1534.929 916.867,1532.011C915.407,1529.093 917.813,1499.916 917.813,1496.268C917.813,1492.62 922.176,1465.506 923.635,1461.311C925.094,1457.116 926.756,1434.879 927.485,1431.049C928.215,1427.218 929.765,1419.76 930.312,1416.113C930.859,1412.465 930.312,1416.113 930.312,1416.113C930.312,1416.113 982.876,1355.401 938.47,1308.55C938.47,1308.55 896.33,1290.705 894.108,1289.337L867.647,1279.747L850.889,1272.455C850.889,1272.455 855.059,1271.792 854.563,1268.075C853.11,1257.174 854.563,1229.737 854.563,1229.737L854.563,1214.483L847.983,1206.135C847.983,1206.135 817.455,1196.855 802.066,1200.104L802.066,1242.514C802.066,1242.514 784.901,1256.474 785.643,1258.33L767.36,1266.196C767.36,1266.196 751.116,1273.206 742.566,1277.139L709.394,1289.337C709.394,1289.337 691.098,1284.125 689.046,1280.888C686.994,1277.652 679.577,1279.252 678.722,1275.661C677.867,1272.07 679.983,1276.626 679.983,1274.232C679.983,1271.838 678.038,1267.734 678.722,1264.657C679.406,1261.579 678.722,1255.936 678.722,1255.936L678.406,1248.583L679.47,1243.173C679.47,1243.173 661.687,1234.867 658.267,1238.287C658.267,1238.287 641.852,1246.971 648.692,1259.877L650.125,1268.075L653.323,1276.47Z" style="fill:rgb(221,221,221);"/>
                <clipPath id="_clip1">
                    <path d="M653.323,1276.47L601.97,1293.988L568.613,1313.9C568.613,1313.9 529.134,1345.893 551.021,1376.028C551.021,1376.028 545.116,1380.492 543.657,1384.14L520.904,1401.615C520.904,1401.615 498.66,1424.665 494.387,1455.968C492.141,1472.422 495.491,1497.832 497.68,1503.851C497.68,1503.851 497.371,1532.272 497.053,1538.608C496.708,1545.482 487.471,1574.12 486.677,1582.057C485.571,1593.106 474.644,1634.378 474.097,1637.661C474.097,1637.661 469.316,1653.107 469.499,1657.485C469.681,1661.862 478.797,1670.742 481.168,1673.843L484.172,1708.013L568.613,1725.947C568.613,1725.947 639.526,1731.566 674.577,1732.857C674.577,1732.857 732.851,1730.938 757.838,1728.772C757.838,1728.772 824.428,1718.996 845.039,1712.441C845.039,1712.441 894.896,1699.805 919.704,1682.962L919.704,1652.497C926.057,1642.66 931.721,1632.22 933.501,1618.382C933.501,1618.382 920.616,1583.286 919.704,1579.82C919.704,1579.82 918.326,1534.929 916.867,1532.011C915.407,1529.093 917.813,1499.916 917.813,1496.268C917.813,1492.62 922.176,1465.506 923.635,1461.311C925.094,1457.116 926.756,1434.879 927.485,1431.049C928.215,1427.218 929.765,1419.76 930.312,1416.113C930.859,1412.465 930.312,1416.113 930.312,1416.113C930.312,1416.113 982.876,1355.401 938.47,1308.55C938.47,1308.55 896.33,1290.705 894.108,1289.337L867.647,1279.747L850.889,1272.455C850.889,1272.455 855.059,1271.792 854.563,1268.075C853.11,1257.174 854.563,1229.737 854.563,1229.737L854.563,1214.483L847.983,1206.135C847.983,1206.135 817.455,1196.855 802.066,1200.104L802.066,1242.514C802.066,1242.514 784.901,1256.474 785.643,1258.33L767.36,1266.196C767.36,1266.196 751.116,1273.206 742.566,1277.139L709.394,1289.337C709.394,1289.337 691.098,1284.125 689.046,1280.888C686.994,1277.652 679.577,1279.252 678.722,1275.661C677.867,1272.07 679.983,1276.626 679.983,1274.232C679.983,1271.838 678.038,1267.734 678.722,1264.657C679.406,1261.579 678.722,1255.936 678.722,1255.936L678.406,1248.583L679.47,1243.173C679.47,1243.173 661.687,1234.867 658.267,1238.287C658.267,1238.287 641.852,1246.971 648.692,1259.877L650.125,1268.075L653.323,1276.47Z"/>
                </clipPath>
                <g clip-path="url(#_clip1)">
                    <g transform="matrix(0.041784,0,-0.002093,0.041784,678.406252,1448.436254)">
                        <g transform="matrix(1,0,0,1,-3643.75,-5168.75)">
                            <g id="_5a7f5f47abc3d121aba71181.png" serif:id="5a7f5f47abc3d121aba71181.png" transform="matrix(9.809338,0,0,9.809338,1487.916371,3540.618292)">
                                <path d="M68.5,2.034L374.5,2.034C380.228,1.997 377.965,4.825 377.966,10.5C377.971,125.615 377.931,125.602 378.034,129.495C378.115,132.53 376.364,131.966 345.5,131.966C7.396,131.966 7.4,131.958 4.505,132.034C2.224,132.095 2.044,130.955 2.035,129.512C1.968,119.35 1.206,3.811 2.483,2.483C2.979,1.967 3.134,2.034 68.5,2.034Z" style="fill:rgb(227,36,31);"/>
                                <path d="M131.908,46.381C133.181,46.559 133.23,46.931 134.237,46.096C142.771,39.013 156.65,41.486 161.526,50.484C175.436,76.149 142.517,105.234 127.284,89.739C123.632,86.025 125.05,91.603 121.092,115.436C120.525,118.854 117.019,118.398 108.534,118.196C105.957,118.134 107.621,112.401 107.761,111.541C118.48,45.713 117.115,43.654 120.503,43.541C130.398,43.21 131.81,42.973 131.908,46.381Z" style="fill:rgb(254,254,254);"/>
                                <path d="M303.935,61.531C303.934,60.823 303.926,54.362 300.541,53.363C286.181,49.127 288.392,89.962 284.333,92.047C283.837,92.301 272.861,92.251 272.605,92.132C268.421,90.19 281.877,56.107 272.538,53.37C259.576,49.57 259.998,82.28 257.572,90.52C256.756,93.293 243.399,93.064 243.666,90.502C243.715,90.035 250.879,45.057 250.992,44.692C251.593,42.738 263.815,43.515 264.262,43.842C264.904,44.312 264.047,48.491 266.707,45.911C270.1,42.62 277.748,40.606 283.649,43.139C288.949,45.414 288.559,50.733 292.806,46.858C298.682,41.496 310.238,39.854 315.44,45.555C317.864,48.212 320.64,51.255 313.431,90.482C312.985,92.906 306.42,92.26 301.516,92.215C297.789,92.18 300.305,89.827 303.935,61.531Z" style="fill:rgb(254,254,254);"/>
                                <path d="M31.534,94.12C24.437,92.448 23.744,93.497 18.721,88.276C10.687,79.927 14.616,78.172 14.886,77.95C19.728,73.96 23.153,69.353 24.833,73.35C29.157,83.637 39.907,82.6 44.084,77.155C54.882,63.076 34.131,57.494 33.627,57.244C31.505,56.191 14.844,47.923 25.818,28.684C39.127,5.351 70.443,19.701 66.017,25.15C60.919,31.428 59.199,34.206 57.147,31.837C51.166,24.932 42.528,28.407 39.923,31.856C32.396,41.822 48.092,46.359 51.301,47.896C70.258,56.982 61.991,76.538 55.01,85.06C47.775,93.892 33.547,94.092 31.534,94.12Z" style="fill:rgb(254,254,254);"/>
                                <path d="M319.92,72.513C320.168,70.685 321.868,58.142 327.954,50.895C331.622,46.526 337.314,43.723 340.612,42.917C366.657,36.557 369.802,60.597 367,68.69C365.695,72.46 335.593,67.786 334.678,71.55C332.429,80.805 342.682,87.783 350.436,79.439C353.217,76.447 353.736,76.32 363.572,78.326C366.432,78.909 360.859,84.983 360.438,85.441C352.064,94.567 321.689,103.426 319.92,72.513Z" style="fill:rgb(254,254,254);"/>
                                <path d="M215.5,70.122C214.815,70.238 214.102,70.09 213.417,70.206C210.818,70.648 210.769,82.986 219.509,83.134C225.758,83.239 229.223,77.863 229.555,77.56C230.97,76.267 243.183,77.261 241.642,80.565C234.059,96.83 197.48,101.595 197.311,73.501C197.072,33.796 252.797,31.215 244.44,68.482C243.982,70.526 243.114,70.122 215.5,70.122Z" style="fill:rgb(254,254,254);"/>
                                <path d="M79.084,74.5C80.325,87.292 92.578,83.241 94.823,72.576C97.799,58.434 97.797,43.633 101.503,43.542C106.551,43.417 113.528,42.841 113.173,45.479C108.891,77.371 106.773,80.66 105.1,83.258C95.049,98.868 61.59,99.663 64.941,73.552C65.245,71.179 68.522,45.642 70.152,44.11C70.784,43.515 83.598,42.102 83.337,45.491C83.017,49.651 79.894,63.977 79.084,74.5Z" style="fill:rgb(254,254,254);"/>
                                <path d="M165.894,78.56C170.717,48.561 171.05,44.652 171.903,43.986C172.258,43.709 185.648,41.921 185.003,45.608C184.052,51.043 189.498,41.679 197.511,41.95C206.416,42.252 202.117,48.154 201.71,49.562C200.558,53.543 200.444,55.85 197.4,54.808C181.133,49.239 180.124,77.564 178.131,89.442C177.57,92.785 174.602,92.44 165.534,92.211C163.063,92.149 164.829,85.167 165.894,78.56Z" style="fill:rgb(254,254,254);"/>
                                <path d="M127.087,69.483C130.477,49.759 145.369,53.163 148.499,58.5C158.395,75.371 128.239,94.607 127.087,69.483Z" style="fill:rgb(227,36,31);"/>
                                <path d="M217.342,55.359C225.06,47.705 231.811,53.354 232.381,59.506C232.506,60.858 232.127,62.303 215.516,61.444C212.97,61.312 217.041,55.769 217.342,55.359Z" style="fill:rgb(227,34,29);"/>
                                <path d="M338.382,57.427C346.774,45.716 355.013,54.425 354.939,59.5C354.92,60.824 354.542,61.939 338.501,61.491C335.7,61.412 337.402,60.017 338.382,57.427Z" style="fill:rgb(227,34,29);"/>
                            </g>
                        </g>
                    </g>
                </g>
                <path d="M557.057,1360.84C557.057,1360.84 555.053,1364.848 550.425,1378.875C550.425,1378.875 515.389,1395.66 501.188,1432.31C493.645,1451.776 490.66,1480.467 495.41,1495.31C500.16,1510.153 496.555,1528.771 496.852,1537.38C496.852,1537.38 470.983,1649.339 469.499,1655.573C469.499,1655.573 475.309,1696.362 576.835,1691.57" style="fill:none;stroke:black;stroke-width:4.17px;"/>
                <path d="M480.558,1673.673C480.558,1673.673 481.564,1696.54 484.32,1707.099C484.32,1707.099 606.919,1749.193 783.514,1725.759C783.514,1725.759 885.957,1708.425 918.909,1682.895C918.909,1682.895 920.753,1680.711 918.824,1650.282" style="fill:none;stroke:black;stroke-width:4.17px;"/>
                <path d="M704.978,1695.735C704.978,1695.735 858.666,1685.015 919.704,1650.282C919.704,1650.282 934.463,1632.11 933.106,1617.903C933.106,1617.903 920.472,1582.884 919.704,1573.374C918.813,1562.348 914.027,1511.174 919.704,1488.798C919.704,1488.798 928.467,1425.344 930.137,1416.661" style="fill:none;stroke:black;stroke-width:4.17px;"/>
                <g transform="matrix(1.989388,0.082784,-0.041577,0.999135,-660.714799,-24.913679)">
                    <path d="M653.171,1490.543C653.171,1490.543 692.732,1485.848 717.868,1501.433" style="fill:none;stroke:black;stroke-width:2.64px;"/>
                </g>
                <g transform="matrix(1.200804,0,0,1.416719,-111.546802,-535.118922)">
                    <path d="M800.459,1275.882C800.459,1275.882 866.747,1297.357 874.429,1301.365" style="fill:none;stroke:black;stroke-width:3.17px;"/>
                </g>
                <g transform="matrix(1.200804,0,0,1.416719,-111.546802,-535.118922)">
                    <path d="M760.815,1224.982C760.815,1224.982 813.588,1219.345 803.198,1245.469C803.198,1245.469 803.063,1266.628 803.36,1272.269C803.36,1272.269 802.768,1286.649 708.849,1298.394" style="fill:none;stroke:black;stroke-width:3.17px;"/>
                </g>
                <g transform="matrix(1.200804,0,0,1.416719,-111.546802,-535.118922)">
                    <path d="M682.343,1287.804C682.343,1287.804 828.539,1245.565 783.901,1234.967" style="fill:none;stroke:black;stroke-width:3.17px;"/>
                </g>
                <g transform="matrix(1.200804,0,0,1.416719,-111.546802,-535.118922)">
                    <path d="M733.482,1272.501C733.482,1272.501 761.681,1259.769 760.815,1253.09C760.815,1253.09 760.036,1267.939 760.036,1224.818" style="fill:none;stroke:black;stroke-width:3.17px;"/>
                </g>
                <g transform="matrix(1.200804,0,0,1.416719,-111.546802,-535.118922)">
                    <path d="M658.421,1268.497C658.421,1268.497 657.309,1271.046 658.198,1278.912C658.198,1278.912 657.644,1278.648 682.343,1287.804" style="fill:none;stroke:black;stroke-width:3.17px;"/>
                </g>
                <g transform="matrix(1.200804,0,0,1.416719,-111.546802,-535.118922)">
                    <path d="M658.117,1278.15C658.117,1278.15 633.896,1262.876 650.518,1255.868" style="fill:none;stroke:black;stroke-width:3.17px;"/>
                </g>
                <g transform="matrix(1.200804,0,0,1.416719,-111.546802,-535.118922)">
                    <path d="M668.964,1293.821C668.964,1293.821 648.079,1288.142 636.965,1276.172C636.965,1276.172 629.046,1270.337 633.357,1256.575C633.357,1256.575 638.792,1252.705 642.137,1251.769C642.137,1251.769 650.974,1253.876 657.854,1254.731L658.421,1268.497" style="fill:none;stroke:black;stroke-width:3.17px;"/>
                </g>
                <g transform="matrix(1.200804,0,0,1.416719,-111.546802,-535.118922)">
                    <path d="M636.965,1278.721C636.965,1278.721 584.534,1291.803 566.42,1303.452" style="fill:none;stroke:black;stroke-width:3.17px;"/>
                </g>
            </g>
            <g id="r-hand" serif:id="r hand" transform="matrix(1,0,0,1,23.588259,-21.358035)">
                <path d="M873.472,1446.559C873.655,1458.414 881.086,1474.253 901.787,1526.925C906.623,1539.228 918.389,1559.714 918.117,1573.42C917.834,1587.733 915.686,1589.084 916.18,1601.854C917.314,1631.203 914.211,1668.108 914.641,1688.237C914.698,1690.923 923.036,1701.233 923.079,1703.671C923.371,1720.297 925.198,1723.163 924.721,1724.71L950.548,1725.782C950.548,1725.782 970.604,1727.678 990.275,1735.159C990.275,1735.159 993.295,1731.302 997.847,1717.949C999.456,1713.228 998.819,1714.042 999.297,1709.209C999.763,1704.492 1015.021,1710.939 1017.488,1689.168C1018.858,1677.073 1029.681,1652.77 1033.955,1626.111C1035.406,1617.057 1040.082,1593.729 1039.249,1585.83C1035.495,1550.227 1030.305,1534.769 1030.305,1534.769L1022.308,1493.962L1012.074,1450.556L994.895,1393.243C994.895,1393.243 982.455,1364.773 960.312,1352.419C960.312,1352.419 922.138,1325.926 894.993,1328.058C894.993,1328.058 833.609,1337.148 873.472,1446.559Z" style="fill:rgb(221,221,221);"/>
                <path d="M1005.589,1426.812C1005.589,1426.812 999.749,1401.456 991.878,1386.224C978.291,1359.929 953.365,1339.74 898.425,1326.028M1030.305,1534.769C1030.305,1534.769 1021.805,1483.327 1005.589,1426.812M873.472,1448.157C873.472,1448.157 877.439,1466.7 889.927,1498.412C903.058,1531.757 915.822,1561.065 918.224,1575.084" style="fill:none;stroke:black;stroke-width:4.17px;"/>
                <g transform="matrix(1.349386,0.17827,-0.192312,1.455671,-18.41644,-851.918165)">
                    <path d="M928.594,1564.93C928.594,1564.93 941.418,1542.22 949.968,1532.601" style="fill:none;stroke:black;stroke-width:2.94px;"/>
                </g>
                <g transform="matrix(1,0,0,1,0.925382,0.623644)">
                    <path d="M916.631,1574.461L914.856,1601.306C914.856,1601.306 918.978,1628.038 913.732,1686.227C913.276,1691.28 922.625,1699.818 922.841,1704.218C923.466,1716.947 924.029,1722.053 923.286,1724.367C923.286,1724.367 982.179,1724.442 989.007,1734.535C989.007,1734.535 996.891,1721.983 998.342,1708.585C998.77,1704.637 1013.352,1704.237 1013.79,1700.137C1015.371,1685.312 1024.027,1664.439 1024.14,1661.491C1024.391,1654.96 1037.909,1612.143 1038.284,1594.987C1038.974,1563.369 1030.554,1538.004 1029.617,1534.145" style="fill:none;stroke:black;stroke-width:4.17px;"/>
                </g>
                <g transform="matrix(1,0,0,1,118.036955,7.525657)">
                    <path d="M806.489,1694.03C806.489,1694.03 862.128,1682.533 881.26,1701.683" style="fill:none;stroke:black;stroke-width:2.08px;"/>
                </g>
            </g>
        </g>
    </g>
</svg>
