<?xml version="1.0" encoding="UTF-8" standalone="no"?>
<svg width="100%" height="100%" viewBox="0 0 616 497" version="1.1" xmlns="http://www.w3.org/2000/svg" xmlns:xlink="http://www.w3.org/1999/xlink" xml:space="preserve" xmlns:serif="http://www.serif.com/" style="fill-rule:evenodd;clip-rule:evenodd;stroke-linecap:round;stroke-linejoin:round;stroke-miterlimit:1.5;">
    <g transform="matrix(1,0,0,1,-439.542335,-1250.366758)">
        <g>
            <g id="l-hand" serif:id="l hand" transform="matrix(1,0,0,1,125.10455,-12.197128)">
                <path d="M497.702,1441.797C497.702,1441.797 486.23,1472.062 484.862,1476.337C483.495,1480.612 472.754,1508.436 472.754,1508.436L450.205,1566.119C450.205,1566.119 436.311,1617.844 433.533,1624.47C433.533,1624.47 418.999,1649.905 415.151,1656.317C415.151,1656.317 392.067,1693.508 389.716,1698.424L371.762,1739.688C371.762,1739.688 364.281,1723.859 343.762,1717.446C343.762,1717.446 318.776,1712.744 316.521,1714.668L320.037,1689.874L333.93,1615.92L339.487,1590.271C339.487,1590.271 349.533,1559.065 351.671,1555.859C353.808,1552.653 356.373,1532.775 356.373,1532.775L367.06,1488.745L377.533,1442.791L389.93,1389.57C389.93,1389.57 401.044,1360.074 411.945,1350.669C411.945,1350.669 438.235,1329.723 447.853,1326.516C457.472,1323.31 467.731,1321.411 467.731,1321.411L475.084,1321.411C475.084,1321.411 522.866,1327.404 497.702,1441.797Z" style="fill:rgb(29,29,29);"/>
                <path d="M474.154,1321.411C474.154,1321.411 404.307,1324.082 387.513,1398.891C387.513,1398.891 354.689,1541.257 352.399,1556.143C352.399,1556.143 340.949,1582.86 339.04,1591.639C337.132,1600.417 332.17,1625.99 324.536,1667.211C316.903,1708.432 316.521,1715.303 316.521,1715.303C316.521,1715.303 352.908,1709.35 371.61,1739.688C371.61,1739.688 389.125,1699.372 394.468,1690.467C399.812,1681.561 429.795,1633.172 433.06,1625.751C436.326,1618.329 449.388,1574.394 450.575,1566.082C450.575,1566.082 492.024,1458.6 497.702,1441.901" style="fill:none;stroke:black;stroke-width:4.17px;"/>
                <path d="M387.826,1543.968C387.826,1543.968 409.804,1568.677 411.005,1594.191" style="fill:none;stroke:black;stroke-width:4.17px;"/>
                <path d="M321.589,1692.732C321.589,1692.732 366.818,1686.685 380.701,1717.446" style="fill:none;stroke:black;stroke-width:2.08px;"/>
            </g>
            <g id="body">
                <g>
                    <path d="M562.085,1380.322C562.085,1380.322 526.418,1405.737 512.391,1435.628L508.643,1448.133L506.565,1465.351L505.081,1506.964L502.914,1527.499L501.043,1546.334L498.253,1565.987L491.722,1602.5L486.826,1667.216L486.826,1715.901C486.826,1715.901 499.708,1734.6 541.654,1740.338C541.654,1740.338 546.196,1692.375 548.601,1681.154C551.005,1669.932 555.547,1641.612 557.417,1634.398C557.417,1634.398 565.433,1595.123 566.768,1590.849C568.104,1586.574 578.257,1553.711 579.058,1549.169C579.86,1544.627 595.89,1496.536 597.494,1490.925C599.097,1485.315 604.173,1469.284 605.242,1465.277C606.31,1461.269 609.516,1452.452 611.654,1446.841C613.791,1441.231 631.692,1404.094 634.096,1398.75C636.501,1393.407 657.608,1356.002 659.745,1350.391C661.883,1344.781 678.982,1316.995 678.982,1316.995C678.982,1316.995 670.86,1307.136 671.928,1299.227C671.928,1299.227 677.166,1278.962 685.982,1274.667L673.852,1277.212L581.185,1312.887C581.185,1312.887 549.432,1332.375 563.562,1374.678" style="fill:rgb(29,29,29);"/>
                    <path d="M747.022,1317.28C747.022,1317.28 724.045,1388.615 721.908,1395.562C721.908,1395.562 700.267,1459.684 700.534,1477.05C700.534,1477.05 696.526,1527.546 696.259,1535.294C695.992,1543.042 695.757,1563.973 695.757,1563.973L695.279,1592.14L697.357,1669.027L705.67,1743.539C705.67,1743.539 771.632,1745.91 794.609,1740.338C794.609,1740.338 873.96,1727.286 889.723,1720.072C889.723,1720.072 928.731,1708.049 932.204,1704.843L931.67,1679.462L928.196,1623.088L924.99,1545.073L926.861,1500.989L930.601,1454.768L935.143,1428.05C935.143,1428.05 989.112,1347.309 945.563,1312.887L917.193,1300.025L878.207,1286.346L844.145,1271.709L830.329,1263.775L812.683,1252.421L811.315,1259.945C811.315,1259.945 807.895,1277.591 792.848,1289.082C792.848,1289.082 762.206,1310.148 759.607,1311.516C757.008,1312.884 747.022,1317.28 747.022,1317.28Z" style="fill:rgb(29,29,29);"/>
                    <clipPath id="_clip1">
                        <path d="M747.022,1317.28C747.022,1317.28 724.045,1388.615 721.908,1395.562C721.908,1395.562 700.267,1459.684 700.534,1477.05C700.534,1477.05 696.526,1527.546 696.259,1535.294C695.992,1543.042 695.757,1563.973 695.757,1563.973L695.279,1592.14L697.357,1669.027L705.67,1743.539C705.67,1743.539 771.632,1745.91 794.609,1740.338C794.609,1740.338 873.96,1727.286 889.723,1720.072C889.723,1720.072 928.731,1708.049 932.204,1704.843L931.67,1679.462L928.196,1623.088L924.99,1545.073L926.861,1500.989L930.601,1454.768L935.143,1428.05C935.143,1428.05 989.112,1347.309 945.563,1312.887L917.193,1300.025L878.207,1286.346L844.145,1271.709L830.329,1263.775L812.683,1252.421L811.315,1259.945C811.315,1259.945 807.895,1277.591 792.848,1289.082C792.848,1289.082 762.206,1310.148 759.607,1311.516C757.008,1312.884 747.022,1317.28 747.022,1317.28Z"/>
                    </clipPath>
                    <g clip-path="url(#_clip1)">
                        <g transform="matrix(0.019012,0.000489,-0.000972,0.018998,715.463051,1377.872733)">
                            <g id="Balenciaga-Logo-2017-present.jpg" transform="matrix(6.559246,0,0,6.559246,283.333333,2800)">
                                <path d="M420.896,335.5C420.896,232.572 420.895,232.58 420.903,232.527C421.335,229.788 422.659,229.997 455.499,230.516C459.569,230.58 458.206,232.812 478.785,291.392C490.394,324.437 486.472,327.292 489.468,327.293C491.073,327.293 489.841,318.388 489.785,317.493C488.903,303.406 489.234,232.193 489.507,231.503C490.067,230.089 490.533,230.189 508.499,230.51C510.978,230.555 510.734,232.599 510.736,233.497C510.757,242.62 510.999,346.184 510.632,347.537C510.292,348.787 509.788,348.991 478.495,348.91C475.561,348.902 475.291,348.338 472.687,340.439C461.067,305.19 447.952,273.72 443.321,250.577C443.02,249.073 441.094,248.995 441.292,251.473C441.896,259.052 443.361,277.402 442.632,346.506C442.603,349.279 441.197,349.044 423.487,348.908C419.677,348.879 420.917,341.085 420.896,335.5Z" style="fill:white;"/>
                                <path d="M862.5,302.9C858.461,302.742 856.498,304.489 856.476,300.501C856.394,286.027 856.156,284.161 858.438,284.034C859.985,283.948 893.668,283.823 894.641,284.175C895.944,284.646 895.811,285.226 895.801,335.5C895.799,340.728 897.578,342.725 890.398,345.211C879.123,349.114 827.615,361.799 815.729,325.428C812.398,315.234 806.998,265.577 820.797,244.705C837.125,220.009 893.338,220.33 896.055,259.513C896.277,262.712 891.352,261.881 876.5,261.882C872.625,261.882 872.291,261.379 871.552,257.491C868.708,242.532 841.462,238.716 838.341,268.481C838.335,268.538 834.883,309.379 840.825,322.354C848.104,338.249 871.625,331.495 872.364,328.467C872.492,327.941 872.764,304.625 872.192,303.69C871.713,302.908 863.278,302.9 862.5,302.9Z" style="fill:white;"/>
                                <path d="M384.826,281.501C384.823,291.732 385.744,296.824 382.532,296.962C368.769,297.552 348.008,295.57 347.347,298.465C347.268,298.809 347.219,327.961 347.378,328.534C348.272,331.75 386.568,328.387 388.487,330.509C388.613,330.649 389.985,348.153 387.601,348.805C387.161,348.925 387.185,348.91 332.5,348.91C329.039,348.91 323.172,349.948 323.128,346.523C322.958,333.398 323.11,242.539 323.126,233.496C323.128,232.018 322.956,230.313 325.488,230.279C330.361,230.215 384.878,229.493 386.402,230.643C387.14,231.199 388.489,248.798 385.458,249.205C380.774,249.833 348.247,247.856 347.414,250.471C347.402,250.51 346.793,276.157 347.781,277.241C349.257,278.86 382.866,276.691 384.47,278.521C384.628,278.701 384.496,278.739 384.826,281.501Z" style="fill:white;"/>
                                <path d="M541.086,287.5C541.175,254.116 546.681,228.691 585.498,228.79C625.365,228.891 624.189,263.012 622.621,263.714C621.546,264.196 600.543,263.898 600.386,263.855C597.914,263.181 599.977,248.823 588.413,246.937C567.802,243.577 567.047,266.764 566.875,272.516C565.617,314.704 567.329,331.173 582.534,332.193C601.24,333.448 599.077,317.166 600.277,314.376C601.107,312.445 623.359,313.609 623.428,313.646C624.951,314.46 626.731,349.081 586.5,350.493C537.739,352.205 541.098,304.864 541.086,287.5Z" style="fill:white;"/>
                                <path d="M290.5,348.91C236.997,348.91 236.968,348.939 236.395,348.731C235.31,348.337 235.311,341.164 235.311,340.5C235.327,232.306 235.216,232.295 235.523,231.51C236.219,229.732 258.022,230.258 258.874,231.159C260.058,232.41 259.095,321.706 259.408,327.505C259.569,330.497 261.206,329.826 295.498,329.855C299.156,329.858 298.418,333.236 298.319,345.499C298.276,350.732 295.737,348.653 290.5,348.91Z" style="fill:white;"/>
                                <path d="M674.071,234.5C674.057,347.519 674.197,347.739 673.465,348.46C673.135,348.785 650.9,350.1 650.183,347.608C650.099,347.318 649.803,232.627 650.337,231.407C650.979,229.944 673.156,229.999 673.745,231.349C673.846,231.581 673.769,231.582 674.071,234.5Z" style="fill:white;"/>
                                <path d="M92.904,262.527C91.784,268.297 91.31,282.303 71.613,285.775C65.711,286.815 75.189,288.203 75.558,288.258C98.911,291.679 106.879,341.584 68.546,347.787C54.013,350.139 14.477,348.584 14.455,348.564C13.639,347.846 13.734,347.6 13.734,244.5C13.734,238.883 12.936,230.619 15.503,230.524C19.18,230.389 41.534,229.568 61.495,230.612C87.935,231.996 92.943,244.788 92.904,262.527ZM37.958,274.5C38.316,276.905 37.271,277.959 39.554,278.163C62.68,280.228 66.09,273.327 67.096,271.291C69.487,266.454 71.913,249.77 55.483,248.689C38.462,247.569 38.086,249.03 38.037,250.432C37.969,252.356 38.219,252.273 37.958,274.5ZM37.962,316.5C37.964,324.069 36.866,330.881 40.481,330.915C46.268,330.969 75.963,335.424 70.186,307.579C67.428,294.289 49.322,296.233 40.495,296.31C37.282,296.339 38.165,298.095 37.962,316.5Z" style="fill:white;"/>
                                <path d="M983.977,240.355C992.635,273.479 1013.572,347.355 1012.524,348.524C1012.447,348.61 988.94,350.339 987.575,347.461C985.709,343.527 982.187,323.07 979.522,322.403C979.258,322.337 947.481,322.004 946.548,322.602C943.824,324.347 940.421,347.956 937.585,348.777C937.25,348.874 916.162,349.235 915.454,348.555C914.11,347.263 927.689,301.722 939.854,255.589C946.08,231.977 945.603,231.379 947.573,230.696C949.911,229.885 949.995,230.437 978.5,230.506C982.576,230.516 983.005,236.811 983.977,240.355ZM954.082,287.38C950.644,301.769 949.558,303.916 952.45,303.968C975.538,304.382 976.75,304.431 976.587,302.503C976.25,298.523 967.586,268.464 964.707,251.399C963.623,244.969 962.162,254.093 962.112,254.407C961.88,255.853 954.734,284.744 954.082,287.38Z" style="fill:white;"/>
                                <path d="M703.896,327.623C729.731,232.807 728.533,231.288 731.526,230.613C732.437,230.408 762.976,230.503 763.491,230.559C765.094,230.735 765.22,231.193 770.122,249.599C796.137,347.281 797.3,348.112 795.635,348.749C794.871,349.042 772.922,348.94 772.412,348.801C769.617,348.043 766.06,323.834 763.454,322.598C762.226,322.016 730.945,322.303 730.481,322.429C727.984,323.111 724.655,341.743 722.441,347.472C721.806,349.116 721.295,349.295 700.453,348.918C696.906,348.853 700.052,342.102 703.896,327.623ZM749.883,260.414C748.05,251.439 748.395,251.391 748.234,250.612C747.371,246.437 746.324,251.449 742.733,266.552C734.197,302.459 733.662,302.714 734.46,303.537C735.808,304.93 756.658,304.033 758.587,303.95C760.915,303.85 760.125,302.304 754.177,277.584C751.149,265.003 750.124,261.383 749.883,260.414Z" style="fill:white;"/>
                                <path d="M137.979,341.64C136.544,346.751 137.775,348.869 132.503,348.911C113.684,349.062 111.865,349.153 112.556,346.512C112.609,346.307 132.728,272.445 142.961,234.624C144.544,228.774 146.467,230.503 152.5,230.504C177.015,230.51 178.524,229.699 179.547,233.486C181.944,242.366 209.221,343.423 209.508,344.498C210.277,347.379 211.552,348.814 208.564,348.91C206.793,348.967 189.091,349.536 186.413,348.791C182.904,347.815 180.463,322.788 176.521,322.349C176.044,322.296 145.231,322.208 144.475,322.393C142.829,322.795 142.386,325.033 137.979,341.64ZM150.91,289.598C148.262,301.098 147.146,303.859 149.405,303.96C151.337,304.046 172.161,304.976 173.581,303.587C175.04,302.159 163.162,261.148 161.978,251.139C161.171,244.314 159.484,254.153 159.427,254.484C158.738,258.5 151.616,286.795 150.91,289.598Z" style="fill:white;"/>
                            </g>
                        </g>
                    </g>
                </g>
                <path d="M685.982,1273.589C685.982,1273.589 660.452,1297.041 679.155,1316.93C679.155,1316.93 616.05,1422.655 605.533,1465.657C605.533,1465.657 567.153,1578.125 561.81,1614.766C561.81,1614.766 543.871,1693.774 542.344,1740.338C542.344,1740.338 508.714,1738.345 487.043,1716.971C487.043,1716.971 484.186,1621.903 499.215,1562.214C499.215,1562.214 504.558,1518.556 504.558,1504.863C504.558,1491.171 504.892,1452.43 511.571,1437.402C518.251,1422.373 541.295,1392.984 562.335,1379.959C562.335,1379.959 568.123,1365.728 566.639,1361.869" style="fill:none;stroke:black;stroke-width:4.17px;"/>
                <path d="M661.601,1283.21C661.601,1283.21 641.262,1314.098 670.579,1331.605" style="fill:none;stroke:black;stroke-width:4.17px;"/>
                <path d="M662.655,1325.444C662.655,1325.444 577.886,1352.378 572.839,1356.237" style="fill:none;stroke:black;stroke-width:2.08px;"/>
                <path d="M512.576,1436.984C512.576,1436.984 596.588,1463.701 604.9,1464.888" style="fill:none;stroke:black;stroke-width:2.08px;"/>
                <path d="M811.733,1252.45C811.733,1252.45 818.412,1284.511 747.611,1317.24C747.611,1317.24 704.751,1434.852 700.298,1479.382C700.298,1479.382 686.494,1602.505 705.642,1744.33C705.642,1744.33 818.873,1751.502 932.804,1705.367C932.804,1705.367 923.167,1550.358 925.838,1530.32C925.838,1530.32 927.397,1469.871 934.967,1428.459" style="fill:none;stroke:black;stroke-width:4.17px;"/>
                <path d="M700.298,1479.382C700.298,1479.382 868.619,1484.566 889.102,1483.675" style="fill:none;stroke:black;stroke-width:2.08px;"/>
                <path d="M812.894,1252.45C812.894,1252.45 833.122,1268.971 878.924,1286.645C878.924,1286.645 931.595,1303.555 945.717,1311.189" style="fill:none;stroke:black;stroke-width:4.17px;"/>
                <path d="M832.684,1265.193C832.684,1265.193 819.764,1319.586 743.046,1335.998" style="fill:none;stroke:black;stroke-width:4.17px;"/>
                <path d="M794.7,1314.553C794.7,1314.553 902.97,1369.204 913.657,1376.074" style="fill:none;stroke:black;stroke-width:2.08px;"/>
                <path d="M704.421,1723.535C704.421,1723.535 831.99,1723.535 928.733,1686.576" style="fill:none;stroke:black;stroke-width:2.08px;"/>
                <path d="M488.276,1698.287C488.276,1698.287 496.291,1711.913 542.246,1723.535" style="fill:none;stroke:black;stroke-width:2.08px;"/>
                <path d="M924.038,1421.678C924.038,1421.678 909.076,1481.525 909.076,1518.929C909.076,1556.334 913.962,1591.601 913.657,1612.975C913.351,1634.349 923.183,1701.656 923.183,1707.918" style="fill:none;stroke:black;stroke-width:2.08px;"/>
                <path d="M685.982,1273.589C685.982,1273.589 607.012,1298.935 581.185,1312.887" style="fill:none;stroke:black;stroke-width:4.17px;"/>
            </g>
            <g id="r-hand" serif:id="r hand" transform="matrix(1,0,0,1,-79.677221,-11.563384)">
                <path d="M1017.019,1712.43C1017.019,1712.43 1080.799,1706.843 1090.546,1724.855L1105.935,1683.875L1124.316,1632.641C1124.316,1632.641 1133.021,1599.084 1132.73,1595.451C1132.439,1591.817 1130.942,1567.451 1129.874,1561.466C1128.805,1555.481 1126.24,1519.573 1125.385,1515.939C1124.53,1512.306 1117.049,1471.054 1115.126,1465.711C1113.202,1460.367 1104.866,1419.329 1102.301,1413.986C1099.736,1408.642 1094.82,1386.199 1090.759,1380.428C1086.698,1374.657 1068.958,1347.085 1064.683,1344.52C1060.408,1341.955 1042.069,1327.08 1025.996,1324.611C1009.923,1322.142 939.976,1347.596 972.382,1443.645L989.458,1494.494C989.458,1494.494 1013.932,1568.876 1018.474,1576.143L1018.474,1585.761C1018.474,1585.761 1018.421,1649.669 1018.474,1658.219C1018.527,1666.768 1018.076,1708.718 1017.019,1712.43Z" style="fill:rgb(29,29,29);"/>
                <path d="M972.382,1445.376C972.382,1445.376 1008.069,1551.833 1019.138,1578.169L1017.849,1586.685C1017.849,1586.685 1020.855,1685.873 1016.847,1712.591C1016.847,1712.591 1074.81,1705.856 1090.84,1724.855C1090.84,1724.855 1119.636,1647.671 1122.901,1636.39C1126.166,1625.11 1134.479,1601.955 1132.401,1583.549C1130.322,1565.144 1127.948,1524.177 1121.714,1491.819C1121.714,1491.819 1111.323,1442.616 1099.152,1403.652C1099.152,1403.652 1084.606,1340.048 1027.312,1324.611" style="fill:none;stroke:black;stroke-width:4.17px;"/>
                <path d="M1018.474,1689.735C1018.474,1689.735 1075.388,1676.967 1098.681,1703.74" style="fill:none;stroke:black;stroke-width:2.08px;"/>
            </g>
        </g>
    </g>
</svg>
