<?xml version="1.0" encoding="UTF-8" standalone="no"?>
<!DOCTYPE svg PUBLIC "-//W3C//DTD SVG 1.1//EN" "http://www.w3.org/Graphics/SVG/1.1/DTD/svg11.dtd">
<svg width="100%" height="100%" viewBox="0 0 616 497" version="1.1" xmlns="http://www.w3.org/2000/svg" xmlns:xlink="http://www.w3.org/1999/xlink" xml:space="preserve" xmlns:serif="http://www.serif.com/" style="fill-rule:evenodd;clip-rule:evenodd;stroke-linecap:round;stroke-linejoin:round;stroke-miterlimit:1.5;">
    <g transform="matrix(1,0,0,1,-439.542335,-1250.366758)">
        <g>
            <g id="l-hand" serif:id="l hand" transform="matrix(1,0,0,1,125.10455,-12.197128)">
                <path d="M497.702,1441.797C497.702,1441.797 486.23,1472.062 484.862,1476.337C483.495,1480.612 472.754,1508.436 472.754,1508.436L450.205,1566.119C450.205,1566.119 436.311,1617.844 433.533,1624.47C433.533,1624.47 418.999,1649.905 415.151,1656.317C415.151,1656.317 392.067,1693.508 389.716,1698.424L371.762,1739.688C371.762,1739.688 364.281,1723.859 343.762,1717.446C343.762,1717.446 318.776,1712.744 316.521,1714.668L320.037,1689.874L333.93,1615.92L339.487,1590.271C339.487,1590.271 349.533,1559.065 351.671,1555.859C353.808,1552.653 356.373,1532.775 356.373,1532.775L367.06,1488.745L377.533,1442.791L389.93,1389.57C389.93,1389.57 401.044,1360.074 411.945,1350.669C411.945,1350.669 438.235,1329.723 447.853,1326.516C457.472,1323.31 467.731,1321.411 467.731,1321.411L475.084,1321.411C475.084,1321.411 522.866,1327.404 497.702,1441.797Z" style="fill:rgb(29,29,29);"/>
                <path d="M474.154,1321.411C474.154,1321.411 404.307,1324.082 387.513,1398.891C387.513,1398.891 354.689,1541.257 352.399,1556.143C352.399,1556.143 340.949,1582.86 339.04,1591.639C337.132,1600.417 332.17,1625.99 324.536,1667.211C316.903,1708.432 316.521,1715.303 316.521,1715.303C316.521,1715.303 352.908,1709.35 371.61,1739.688C371.61,1739.688 389.125,1699.372 394.468,1690.467C399.812,1681.561 429.795,1633.172 433.06,1625.751C436.326,1618.329 449.388,1574.394 450.575,1566.082C450.575,1566.082 492.024,1458.6 497.702,1441.901" style="fill:none;stroke:black;stroke-width:4.17px;"/>
                <path d="M387.826,1543.968C387.826,1543.968 409.804,1568.677 411.005,1594.191" style="fill:none;stroke:black;stroke-width:4.17px;"/>
                <path d="M321.589,1692.732C321.589,1692.732 366.818,1686.685 380.701,1717.446" style="fill:none;stroke:black;stroke-width:2.08px;"/>
            </g>
            <g id="body">
                <g>
                    <path d="M562.085,1380.322C562.085,1380.322 526.418,1405.737 512.391,1435.628L508.643,1448.133L506.565,1465.351L505.081,1506.964L502.914,1527.499L501.043,1546.334L498.253,1565.987L491.722,1602.5L486.826,1667.216L486.826,1715.901C486.826,1715.901 499.708,1734.6 541.654,1740.338C541.654,1740.338 546.196,1692.375 548.601,1681.154C551.005,1669.932 555.547,1641.612 557.417,1634.398C557.417,1634.398 565.433,1595.123 566.768,1590.849C568.104,1586.574 578.257,1553.711 579.058,1549.169C579.86,1544.627 595.89,1496.536 597.494,1490.925C599.097,1485.315 604.173,1469.284 605.242,1465.277C606.31,1461.269 609.516,1452.452 611.654,1446.841C613.791,1441.231 631.692,1404.094 634.096,1398.75C636.501,1393.407 657.608,1356.002 659.745,1350.391C661.883,1344.781 678.982,1316.995 678.982,1316.995C678.982,1316.995 670.86,1307.136 671.928,1299.227C671.928,1299.227 677.166,1278.962 685.982,1274.667L673.852,1277.212L581.185,1312.887C581.185,1312.887 549.432,1332.375 563.562,1374.678" style="fill:rgb(29,29,29);"/>
                    <path d="M747.022,1317.28C747.022,1317.28 724.045,1388.615 721.908,1395.562C721.908,1395.562 700.267,1459.684 700.534,1477.05C700.534,1477.05 696.526,1527.546 696.259,1535.294C695.992,1543.042 695.757,1563.973 695.757,1563.973L695.279,1592.14L697.357,1669.027L705.67,1743.539C705.67,1743.539 771.632,1745.91 794.609,1740.338C794.609,1740.338 873.96,1727.286 889.723,1720.072C889.723,1720.072 928.731,1708.049 932.204,1704.843L931.67,1679.462L928.196,1623.088L924.99,1545.073L926.861,1500.989L930.601,1454.768L935.143,1428.05C935.143,1428.05 989.112,1347.309 945.563,1312.887L917.193,1300.025L878.207,1286.346L844.145,1271.709L830.329,1263.775L812.683,1252.421L811.315,1259.945C811.315,1259.945 807.895,1277.591 792.848,1289.082C792.848,1289.082 762.206,1310.148 759.607,1311.516C757.008,1312.884 747.022,1317.28 747.022,1317.28Z" style="fill:rgb(29,29,29);"/>
                </g>
                <path d="M685.982,1273.589C685.982,1273.589 660.452,1297.041 679.155,1316.93C679.155,1316.93 616.05,1422.655 605.533,1465.657C605.533,1465.657 567.153,1578.125 561.81,1614.766C561.81,1614.766 543.871,1693.774 542.344,1740.338C542.344,1740.338 508.714,1738.345 487.043,1716.971C487.043,1716.971 484.186,1621.903 499.215,1562.214C499.215,1562.214 504.558,1518.556 504.558,1504.863C504.558,1491.171 504.892,1452.43 511.571,1437.402C518.251,1422.373 541.295,1392.984 562.335,1379.959C562.335,1379.959 568.123,1365.728 566.639,1361.869" style="fill:none;stroke:black;stroke-width:4.17px;"/>
                <path d="M661.601,1283.21C661.601,1283.21 641.262,1314.098 670.579,1331.605" style="fill:none;stroke:black;stroke-width:4.17px;"/>
                <path d="M662.655,1325.444C662.655,1325.444 577.886,1352.378 572.839,1356.237" style="fill:none;stroke:black;stroke-width:2.08px;"/>
                <path d="M512.576,1436.984C512.576,1436.984 596.588,1463.701 604.9,1464.888" style="fill:none;stroke:black;stroke-width:2.08px;"/>
                <path d="M811.733,1252.45C811.733,1252.45 818.412,1284.511 747.611,1317.24C747.611,1317.24 704.751,1434.852 700.298,1479.382C700.298,1479.382 686.494,1602.505 705.642,1744.33C705.642,1744.33 818.873,1751.502 932.804,1705.367C932.804,1705.367 923.167,1550.358 925.838,1530.32C925.838,1530.32 927.397,1469.871 934.967,1428.459" style="fill:none;stroke:black;stroke-width:4.17px;"/>
                <path d="M700.298,1479.382C700.298,1479.382 868.619,1484.566 889.102,1483.675" style="fill:none;stroke:black;stroke-width:2.08px;"/>
                <path d="M812.894,1252.45C812.894,1252.45 833.122,1268.971 878.924,1286.645C878.924,1286.645 931.595,1303.555 945.717,1311.189" style="fill:none;stroke:black;stroke-width:4.17px;"/>
                <path d="M832.684,1265.193C832.684,1265.193 819.764,1319.586 743.046,1335.998" style="fill:none;stroke:black;stroke-width:4.17px;"/>
                <path d="M794.7,1314.553C794.7,1314.553 902.97,1369.204 913.657,1376.074" style="fill:none;stroke:black;stroke-width:2.08px;"/>
                <path d="M704.421,1723.535C704.421,1723.535 831.99,1723.535 928.733,1686.576" style="fill:none;stroke:black;stroke-width:2.08px;"/>
                <path d="M488.276,1698.287C488.276,1698.287 496.291,1711.913 542.246,1723.535" style="fill:none;stroke:black;stroke-width:2.08px;"/>
                <path d="M924.038,1421.678C924.038,1421.678 909.076,1481.525 909.076,1518.929C909.076,1556.334 913.962,1591.601 913.657,1612.975C913.351,1634.349 923.183,1701.656 923.183,1707.918" style="fill:none;stroke:black;stroke-width:2.08px;"/>
                <path d="M685.982,1273.589C685.982,1273.589 607.012,1298.935 581.185,1312.887" style="fill:none;stroke:black;stroke-width:4.17px;"/>
            </g>
            <g id="r-hand" serif:id="r hand" transform="matrix(1,0,0,1,-79.677221,-11.563384)">
                <path d="M1017.019,1712.43C1017.019,1712.43 1080.799,1706.843 1090.546,1724.855L1105.935,1683.875L1124.316,1632.641C1124.316,1632.641 1133.021,1599.084 1132.73,1595.451C1132.439,1591.817 1130.942,1567.451 1129.874,1561.466C1128.805,1555.481 1126.24,1519.573 1125.385,1515.939C1124.53,1512.306 1117.049,1471.054 1115.126,1465.711C1113.202,1460.367 1104.866,1419.329 1102.301,1413.986C1099.736,1408.642 1094.82,1386.199 1090.759,1380.428C1086.698,1374.657 1068.958,1347.085 1064.683,1344.52C1060.408,1341.955 1042.069,1327.08 1025.996,1324.611C1009.923,1322.142 939.976,1347.596 972.382,1443.645L989.458,1494.494C989.458,1494.494 1013.932,1568.876 1018.474,1576.143L1018.474,1585.761C1018.474,1585.761 1018.421,1649.669 1018.474,1658.219C1018.527,1666.768 1018.076,1708.718 1017.019,1712.43Z" style="fill:rgb(29,29,29);"/>
                <path d="M972.382,1445.376C972.382,1445.376 1008.069,1551.833 1019.138,1578.169L1017.849,1586.685C1017.849,1586.685 1020.855,1685.873 1016.847,1712.591C1016.847,1712.591 1074.81,1705.856 1090.84,1724.855C1090.84,1724.855 1119.636,1647.671 1122.901,1636.39C1126.166,1625.11 1134.479,1601.955 1132.401,1583.549C1130.322,1565.144 1127.948,1524.177 1121.714,1491.819C1121.714,1491.819 1111.323,1442.616 1099.152,1403.652C1099.152,1403.652 1084.606,1340.048 1027.312,1324.611" style="fill:none;stroke:black;stroke-width:4.17px;"/>
                <path d="M1018.474,1689.735C1018.474,1689.735 1075.388,1676.967 1098.681,1703.74" style="fill:none;stroke:black;stroke-width:2.08px;"/>
            </g>
        </g>
    </g>
</svg>
