<?xml version="1.0" encoding="UTF-8" standalone="no"?>
<!DOCTYPE svg PUBLIC "-//W3C//DTD SVG 1.1//EN" "http://www.w3.org/Graphics/SVG/1.1/DTD/svg11.dtd">
<svg width="100%" height="100%" viewBox="0 0 558 689" version="1.1" xmlns="http://www.w3.org/2000/svg" xmlns:xlink="http://www.w3.org/1999/xlink" xml:space="preserve" xmlns:serif="http://www.serif.com/" style="fill-rule:evenodd;clip-rule:evenodd;stroke-linecap:round;stroke-linejoin:round;stroke-miterlimit:1.5;">
    <g transform="matrix(1,0,0,1,-479.629107,-1249.174255)">
        <g>
            <g id="l-hand" serif:id="l hand" transform="matrix(1,0,0,1,126.004159,-14.534907)">
                <path d="M497.702,1441.797C497.702,1441.797 486.23,1472.062 484.862,1476.337C483.495,1480.612 472.754,1508.436 472.754,1508.436L448.067,1572.91L428.65,1557.372L395.865,1542.719L355.708,1540.256L367.06,1488.745L377.533,1442.791L389.93,1389.57C389.93,1389.57 401.044,1360.074 411.945,1350.669C411.945,1350.669 438.235,1329.723 447.853,1326.516C457.472,1323.31 467.731,1321.411 467.731,1321.411L475.084,1321.411C475.084,1321.411 522.866,1327.404 497.702,1441.797Z" style="fill:rgb(177,124,58);"/>
                <path d="M447.903,1572.91C447.903,1572.91 492.024,1458.6 497.702,1441.901M355.708,1539.731C355.708,1539.731 387.722,1538.433 404.395,1546.254C412.205,1549.917 437.188,1559.67 447.903,1572.91M474.154,1321.411C474.154,1321.411 404.307,1324.082 387.513,1398.891C387.513,1398.891 357.998,1524.845 355.708,1539.731" style="fill:none;stroke:black;stroke-width:4.17px;"/>
            </g>
            <g id="body">
                <path d="M933.771,1431.215C933.771,1431.215 924.085,1490.995 924.419,1507.026L922.654,1544.358C922.654,1544.358 923.704,1600.918 924.038,1607.932C924.372,1614.945 926.71,1653.017 927.043,1657.693C927.377,1662.369 929.715,1725.489 929.715,1725.489L930.832,1787.941L933.504,1896.388C933.504,1896.388 861.682,1914.734 821.072,1922.214C821.072,1922.214 693.509,1945.242 638.257,1935.924C638.257,1935.924 608.914,1933.436 602.977,1932.248C602.977,1932.248 534.521,1924.025 511.366,1909.182C511.366,1909.182 494.356,1766.541 493.465,1760.603C492.574,1754.666 485.45,1684.607 487.231,1667.092C487.231,1667.092 497.027,1611.579 498.512,1605.939L507.417,1562.004L508.011,1545.973L504.746,1517.178L501.183,1483.929L500.887,1470.254L503.261,1446.228L509.792,1425.151L519.886,1412.089L533.244,1398.73L546.009,1387.153L552.243,1379.731C552.243,1379.731 535.025,1326.296 586.382,1311.75L600.632,1302.844L614.893,1296.426L633.275,1288.304L645.458,1284.243L653.041,1280.173L668.354,1273.539L680.246,1269.119L683.29,1269.709C683.29,1269.709 664.267,1343.449 664.694,1359.052C664.694,1359.052 662.072,1407.357 663.704,1416.334C663.704,1416.334 684.145,1389.189 686.496,1384.701C686.496,1384.701 711.717,1351.359 721.335,1344.091C730.954,1336.823 750.618,1314.38 750.618,1314.38L768.786,1293.647L791.014,1269.674L799.607,1259.791L805.25,1254.106L811.149,1253.208L816.791,1255.773L824.358,1260.732L839.747,1269.025L876.297,1284.67L932.938,1303.693C932.938,1303.693 985.373,1333.443 933.771,1431.215Z" style="fill:rgb(177,124,58);"/>
                <path d="M634.228,1624.649C631.547,1683.365 629.982,1834.362 636.954,1935.924M806.936,1251.258C790.798,1269.55 738.493,1328.214 701.599,1365.654C701.599,1365.654 655.146,1417.188 650.804,1452.923C650.804,1452.923 637.445,1554.115 636.443,1583.504C636.443,1583.504 636.37,1584.59 636.241,1586.662" style="fill:none;stroke:black;stroke-width:4.17px;"/>
                <path d="M683.065,1269.674C683.065,1269.674 655.144,1364.422 663.583,1418.508" style="fill:none;stroke:black;stroke-width:4.17px;"/>
                <path d="M681.754,1268.555C656.364,1278.365 592.276,1304.974 587.28,1309.202" style="fill:none;stroke:black;stroke-width:4.17px;"/>
                <path d="M646.497,1580.725L658.372,1599.724C658.372,1599.724 634.258,1611.005 631.027,1621.989L618.593,1608.927C618.593,1608.927 626.311,1589.928 646.497,1580.725Z" style="fill:none;stroke:black;stroke-width:4.17px;"/>
                <path d="M628.33,1591.011C628.33,1591.011 598.329,1603.568 587.28,1630.286L610.162,1646.049C610.162,1646.049 616.307,1617.729 621.917,1615.591" style="fill:none;stroke:black;stroke-width:4.17px;"/>
                <path d="M652.138,1605.068C652.138,1605.068 676.043,1665.405 681.754,1737.467L650.171,1754.815C650.171,1754.815 640.57,1630.431 634.517,1621.989" style="fill:none;stroke:black;stroke-width:4.17px;"/>
                <path d="M652.064,1586.662C652.064,1586.662 832.226,1580.428 920.574,1563.952" style="fill:none;stroke:black;stroke-width:4.17px;"/>
                <path d="M658.135,1614.27C658.135,1614.27 859.389,1607.828 920.574,1591.011" style="fill:none;stroke:black;stroke-width:4.17px;"/>
                <path d="M634.517,1586.662C634.517,1586.662 544.484,1580.818 509.417,1560.78" style="fill:none;stroke:black;stroke-width:4.17px;"/>
                <path d="M595.803,1614.27C595.803,1614.27 543.482,1614.229 502.737,1591.011" style="fill:none;stroke:black;stroke-width:4.17px;"/>
                <path d="M806.936,1251.258C818.355,1257.909 851.814,1275.303 874.016,1284.273C874.016,1284.273 926.067,1299.159 933.319,1304.121" style="fill:none;stroke:black;stroke-width:4.17px;"/>
                <path d="M933.319,1431.219C933.319,1431.219 914.935,1508.923 925.844,1643.735C925.844,1643.735 935.227,1866.507 933.223,1897.233C933.223,1897.233 661.729,1975.512 511.221,1909.386C511.221,1909.386 480.776,1695.834 488.791,1659.765C488.791,1659.765 504.154,1572.265 507.493,1563.582C507.493,1563.582 510.032,1545.08 503.085,1499.661C503.085,1499.661 491.864,1444.088 519.115,1412.562C519.115,1412.562 549.879,1382.486 559.802,1375.234" style="fill:none;stroke:black;stroke-width:4.17px;"/>
            </g>
            <g id="r-hand" serif:id="r hand" transform="matrix(1,0,0,1,-91.835694,-20.246561)">
                <path d="M1011.834,1561.678L1049.539,1540.327C1049.539,1540.327 1070.26,1534.93 1091.105,1527.88C1097.571,1525.693 1127.012,1526.268 1126.695,1524.344C1126.089,1520.661 1117.049,1471.054 1115.126,1465.711C1113.202,1460.367 1104.866,1419.329 1102.301,1413.986C1099.736,1408.642 1094.82,1386.199 1090.759,1380.428C1086.698,1374.657 1068.958,1347.085 1064.683,1344.52C1060.408,1341.955 1042.069,1327.08 1025.996,1324.611C1009.923,1322.142 939.976,1347.596 972.382,1443.645L1011.834,1561.678Z" style="fill:rgb(177,124,58);"/>
                <path d="M1126.695,1525.059C1125.361,1513.783 1123.742,1502.346 1121.714,1491.819C1121.714,1491.819 1111.323,1442.616 1099.152,1403.652C1099.152,1403.652 1084.606,1340.048 1027.312,1324.611M1012.75,1561.678C1012.75,1561.678 1056.962,1525.029 1126.695,1525.059M972.382,1445.376C972.382,1445.376 998.227,1522.473 1012.75,1561.678" style="fill:none;stroke:black;stroke-width:4.17px;"/>
            </g>
        </g>
    </g>
</svg>
