<?xml version="1.0" encoding="UTF-8" standalone="no"?>
<!DOCTYPE svg PUBLIC "-//W3C//DTD SVG 1.1//EN" "http://www.w3.org/Graphics/SVG/1.1/DTD/svg11.dtd">
<svg width="100%" height="100%" viewBox="0 0 413 470" version="1.1" xmlns="http://www.w3.org/2000/svg" xmlns:xlink="http://www.w3.org/1999/xlink" xml:space="preserve" xmlns:serif="http://www.serif.com/" style="fill-rule:evenodd;clip-rule:evenodd;stroke-linecap:round;stroke-linejoin:round;stroke-miterlimit:1.5;">
    <g transform="matrix(1,0,0,1,-467.591152,-1256.965447)">
        <g transform="matrix(1,0,0,1,-52.321714,-2.226456)">
            <g id="l-hand" serif:id="l hand" transform="matrix(1,0,0,1,54.221268,0.864502)">
                <path d="M557.097,1314.801C557.097,1314.801 528.509,1323.822 514.883,1355.615C514.883,1355.615 502.775,1382.272 504.955,1410.552C504.955,1410.552 500.99,1455.129 500.723,1467.419C500.456,1479.709 497.528,1522.19 496.855,1525.663C496.855,1525.663 488.621,1549.95 484.169,1578.034C480.359,1602.071 470.561,1675.066 467.775,1700.593C467.507,1703.052 477.026,1703.329 489.841,1706.369C501.766,1709.198 512.426,1719.747 514.234,1723.049L539.122,1648.937C539.122,1648.937 549.957,1616.661 553.104,1598.92C558.549,1568.222 571.791,1464.747 571.791,1464.747L577.484,1420.931C577.484,1420.931 609.463,1313.672 557.097,1314.801Z" style="fill:rgb(29,29,29);"/>
                <path d="M560.786,1546.79C560.786,1546.79 576.816,1429.233 577.484,1421.218M557.542,1314.801C557.542,1314.801 502.198,1331.595 504.488,1412.893C504.488,1412.893 498.763,1515.182 496.855,1526.633" style="fill:none;stroke:black;stroke-width:4.17px;"/>
                <g transform="matrix(1,0,0,1,-0.487269,-0.864276)">
                    <path d="M514.721,1530.657C514.721,1530.657 531.197,1546.806 534.759,1558.028" style="fill:none;stroke:black;stroke-width:4.17px;"/>
                </g>
                <g transform="matrix(1,0,0,1,-0.487269,-0.864276)">
                    <path d="M497.342,1527.497L490.824,1544.906C490.824,1544.906 486.371,1566.28 484.293,1584.686C482.215,1603.091 471.231,1699.274 468.262,1704.914C468.262,1704.914 500.026,1702.539 513.979,1723.913C513.979,1723.913 548.118,1627.137 549.305,1618.825C550.493,1610.512 557.914,1588.104 561.18,1547.654" style="fill:none;stroke:black;stroke-width:4.17px;"/>
                </g>
            </g>
            <g id="body">
                <g>
                    <g transform="matrix(1,0,0,1,52.321714,2.226456)">
                        <path d="M623.101,1282.223L622.759,1264.611C622.759,1264.611 626.562,1260.02 603.82,1292.051L589.074,1298.07L556.743,1315.827C556.743,1315.827 530.167,1330.934 551.755,1363.636C551.755,1363.636 556.34,1374.965 553.513,1378.171L543.633,1389.926C543.633,1389.926 522.398,1421.774 526.496,1437.163C526.496,1437.163 524.61,1463.239 537.434,1483.544C537.434,1483.544 556.768,1525.865 555.651,1530.353C555.651,1530.353 557.836,1562.628 555.651,1570.75C553.465,1578.872 549.831,1601.529 548.549,1606.017C547.266,1610.506 540.213,1635.727 537.862,1641.498C535.511,1647.269 524.962,1699.18 524.786,1701.011C524.786,1701.011 555.602,1717.017 577.404,1715.166L580.182,1678.902L582.961,1603.239L582.32,1542.964L579.755,1474.995C579.755,1474.995 576.976,1436.735 578.472,1427.972C579.969,1419.209 584.885,1380.522 586.808,1375.606C588.732,1370.69 595.144,1342.049 597.281,1336.919C599.419,1331.789 613.098,1299.301 615.022,1296.095C616.946,1292.889 623.101,1282.223 623.101,1282.223Z" style="fill:rgb(29,29,29);"/>
                    </g>
                    <g transform="matrix(1,0,0,1,52.321714,2.226456)">
                        <path d="M700.518,1259.049L695.046,1274.84C695.046,1274.84 692.036,1279.474 688.046,1288.941C686.956,1291.529 683.768,1293.717 682.989,1297.187C682.068,1301.285 685.476,1318.172 684.696,1321.524C683.37,1327.222 683.864,1325.44 682.989,1328.284C679.569,1339.398 676.151,1356.07 673.33,1367.74C671.081,1377.043 658.411,1426.476 657.77,1434.598C657.129,1442.72 655.225,1470.079 655.536,1477.346C655.846,1484.613 657.556,1525.813 657.556,1532.465C657.556,1539.117 659.48,1582.72 659.694,1589.559C659.907,1596.399 660.121,1642.567 660.548,1650.903C660.976,1659.238 664.396,1712.887 664.396,1712.887C664.396,1712.887 675.083,1715.391 682.777,1715.315C690.472,1715.238 771.895,1714.806 810.579,1696.066L805.712,1669.044L802.239,1654.349C802.239,1654.349 789.949,1622.555 785.407,1614.807C780.865,1607.059 770.713,1586.22 768.308,1581.945C765.903,1577.67 759.491,1561.167 758.155,1556.06C756.82,1550.953 753.429,1535.991 754.59,1529.579C755.751,1523.166 758.69,1494.163 760.293,1489.963C761.896,1485.762 770.445,1460.113 773.117,1453.968C775.789,1447.823 787.812,1416.053 787.812,1416.053C787.812,1416.053 840.79,1342.819 786.248,1317.753C786.248,1317.753 743.92,1295.854 738.449,1292.263C732.977,1288.672 720.924,1283.066 719.256,1280.312C717.588,1277.558 714.51,1271.402 712.116,1268.666C709.722,1265.931 702.711,1259.049 702.711,1259.049L700.518,1259.049Z" style="fill:rgb(29,29,29);"/>
                        <clipPath id="_clip1">
                            <path d="M700.518,1259.049L695.046,1274.84C695.046,1274.84 692.036,1279.474 688.046,1288.941C686.956,1291.529 683.768,1293.717 682.989,1297.187C682.068,1301.285 685.476,1318.172 684.696,1321.524C683.37,1327.222 683.864,1325.44 682.989,1328.284C679.569,1339.398 676.151,1356.07 673.33,1367.74C671.081,1377.043 658.411,1426.476 657.77,1434.598C657.129,1442.72 655.225,1470.079 655.536,1477.346C655.846,1484.613 657.556,1525.813 657.556,1532.465C657.556,1539.117 659.48,1582.72 659.694,1589.559C659.907,1596.399 660.121,1642.567 660.548,1650.903C660.976,1659.238 664.396,1712.887 664.396,1712.887C664.396,1712.887 675.083,1715.391 682.777,1715.315C690.472,1715.238 771.895,1714.806 810.579,1696.066L805.712,1669.044L802.239,1654.349C802.239,1654.349 789.949,1622.555 785.407,1614.807C780.865,1607.059 770.713,1586.22 768.308,1581.945C765.903,1577.67 759.491,1561.167 758.155,1556.06C756.82,1550.953 753.429,1535.991 754.59,1529.579C755.751,1523.166 758.69,1494.163 760.293,1489.963C761.896,1485.762 770.445,1460.113 773.117,1453.968C775.789,1447.823 787.812,1416.053 787.812,1416.053C787.812,1416.053 840.79,1342.819 786.248,1317.753C786.248,1317.753 743.92,1295.854 738.449,1292.263C732.977,1288.672 720.924,1283.066 719.256,1280.312C717.588,1277.558 714.51,1271.402 712.116,1268.666C709.722,1265.931 702.711,1259.049 702.711,1259.049L700.518,1259.049Z"/>
                        </clipPath>
                        <g clip-path="url(#_clip1)">
                            <g transform="matrix(0.025889,0,0,0.025889,703.220264,1414.035086)">
                                <g transform="matrix(1,0,0,1,-3643.75,-5168.75)">
                                    <g id="alo-yoga-1.jpg" transform="matrix(4.903158,0,0,4.903158,1383.333333,2983.333333)">
                                        <path d="M526.5,163.05C530.783,163.219 531.899,161.739 532.591,164.475C532.776,165.206 532.68,441.658 532.639,442.524C532.514,445.183 523.948,444.34 521.5,444.34C500.215,444.34 498.333,445.156 498.31,441.506C498.309,441.322 498.303,166.24 498.313,165.49C498.356,162.433 500.048,163.05 526.5,163.05Z" style="fill:rgb(254,254,254);"/>
                                        <path d="M372.42,277.083C376.079,276.525 397.741,273.223 418.467,281.584C436.251,288.758 434.854,291.27 436.465,291.624C440.904,292.6 434.476,281.303 441.499,281.304C470.944,281.31 472.28,280.858 472.538,283.497C472.55,283.625 472.602,441.955 472.51,442.502C472.142,444.685 471.084,444.354 441.5,444.343C436.771,444.341 438.148,442.196 438.17,437.502C438.201,430.732 434.708,436.415 425.306,441.145C357.045,475.491 286.21,408.034 305.863,339.605C321.679,284.539 370.873,277.453 372.42,277.083ZM388.501,311.113C384.998,311.191 362.481,311.696 348.885,329.813C315.927,373.73 358.062,423.486 397.582,413.863C456.799,399.443 448.001,313.637 388.501,311.113Z" style="fill:rgb(254,254,254);"/>
                                        <path d="M621.423,277.062C627.428,276.159 665.367,270.454 694.124,298.871C758.208,362.194 700.197,464.742 620.466,448.673C552.6,434.995 533.227,351.858 570.784,307.736C589.789,285.409 604.735,281.04 621.423,277.062ZM635.498,311.113C580.651,313.623 569.337,386.262 613.65,409.214C664.587,435.597 713.862,366.637 670.352,324.652C657.412,312.165 638.486,311.257 635.498,311.113Z" style="fill:rgb(254,254,254);"/>
                                    </g>
                                </g>
                            </g>
                        </g>
                    </g>
                </g>
                <path d="M862.9,1698.293C860.827,1682.939 857.444,1665.952 851.928,1650.909C837.234,1610.833 821.203,1587.677 815.414,1573.873C809.626,1560.069 806.508,1544.039 806.954,1531.125C807.399,1518.212 814.078,1484.815 818.977,1473.238C823.875,1461.66 835.452,1427.889 840.351,1418.28" style="fill:none;stroke:black;stroke-width:4.17px;"/>
                <g transform="matrix(1,0,0,1,52.321714,2.226456)">
                    <path d="M595.234,1296.593C595.234,1296.593 562.565,1309.614 557.222,1313.431" style="fill:none;stroke:black;stroke-width:4.17px;"/>
                </g>
                <path d="M771.578,1282.538C785.803,1291.91 811.88,1306.348 838.569,1318.054" style="fill:none;stroke:black;stroke-width:4.17px;"/>
                <path d="M604.346,1366.145C604.346,1366.145 608.354,1375.941 606.127,1380.84C606.127,1380.84 578.965,1408.002 578.965,1433.829C578.965,1433.829 574.066,1455.203 588.761,1484.592C588.761,1484.592 595.568,1499.414 601.802,1515.89C608.036,1532.366 607.972,1540.508 607.972,1561.882C607.972,1583.256 603.01,1599.923 599.448,1614.617C595.886,1629.312 585.199,1650.241 579.855,1688.981C579.855,1688.981 578.285,1693.315 577.108,1703.237" style="fill:none;stroke:black;stroke-width:4.17px;"/>
                <g transform="matrix(1,0,0,1,52.321714,2.226456)">
                    <path d="M623.345,1263.253L623.345,1282.093C623.345,1282.093 605.6,1309.084 593.243,1351.498C580.886,1393.912 577.547,1426.307 578.883,1452.691C580.218,1479.074 581.888,1534.513 582.556,1547.872C583.224,1561.23 582.89,1631.03 582.222,1643.052C581.554,1655.075 578.883,1708.176 578.215,1713.854C578.215,1713.854 553.18,1715.887 524.786,1701.011" style="fill:none;stroke:black;stroke-width:4.17px;"/>
                </g>
                <g transform="matrix(1,0,0,1,52.321714,2.226456)">
                    <path d="M623.345,1263.253C623.345,1263.253 606.199,1289.512 602.192,1292.986L594.427,1297.187" style="fill:none;stroke:black;stroke-width:4.17px;"/>
                </g>
                <g transform="matrix(1,0,0,1,52.321714,2.226456)">
                    <path d="M665.167,1400.227C660.448,1417.939 656.562,1436.548 655.694,1450.439C654.167,1474.867 664.155,1706.242 664.6,1713.947C664.6,1713.947 735.699,1722.133 810.579,1696.066" style="fill:none;stroke:black;stroke-width:4.17px;"/>
                </g>
                <g transform="matrix(1,0,0,1,52.321714,2.226456)">
                    <path d="M701.029,1259.049C701.029,1259.049 689.885,1287.116 681.572,1297.361L684.541,1320.965C684.541,1320.965 669.104,1381.227 664.948,1400.227" style="fill:none;stroke:black;stroke-width:4.17px;"/>
                </g>
                <g transform="matrix(1,0,0,1,52.321714,2.226456)">
                    <path d="M719.195,1282.362C715.756,1273.91 710.616,1265.715 703,1259.049" style="fill:none;stroke:black;stroke-width:4.17px;"/>
                </g>
            </g>
            <g id="r-hand" serif:id="r hand" transform="matrix(1,0,0,1,-65.715242,-5.299201)">
                <path d="M885.495,1423.885C885.495,1423.885 900.146,1470.263 915.341,1528.179C918.696,1540.966 921.318,1554.392 923.349,1567.949C925.289,1580.895 924.243,1593.13 924.737,1605.9C927.054,1665.868 928.117,1715.218 927.046,1718.691L950.685,1718.942C950.685,1718.942 956.412,1721.466 985.522,1728.947C985.522,1728.947 991.703,1693.308 992.053,1675.703C992.295,1663.532 994.628,1636.739 996.336,1611.149C996.947,1602 996.642,1593.233 996.336,1585.296C994.953,1549.328 989.679,1519.777 989.679,1519.777L980.702,1454.159L968.092,1394.953C968.092,1394.953 959.542,1360.327 952.275,1354.129C952.275,1354.129 925.771,1321.224 898.626,1323.356C898.626,1323.356 845.632,1314.474 885.495,1423.885Z" style="fill:rgb(29,29,29);"/>
                <path d="M993.272,1549.035C993.272,1549.035 985.59,1474.643 975.571,1429.224C975.571,1429.224 965.886,1369.443 948.854,1350.741C948.854,1350.741 928.816,1323.69 899.093,1323.356M885.495,1424.779C885.495,1424.779 918.002,1531.465 922.9,1560.056" style="fill:none;stroke:black;stroke-width:4.17px;"/>
                <g transform="matrix(1,0,0,1,0.925382,0.623644)">
                    <path d="M928.594,1564.93C928.594,1564.93 941.418,1542.22 949.968,1532.601" style="fill:none;stroke:black;stroke-width:4.17px;"/>
                </g>
                <g transform="matrix(1,0,0,1,0.925382,0.623644)">
                    <path d="M921.974,1559.432L921.536,1569.913C921.536,1569.913 928.215,1708.176 925.209,1717.527C925.209,1717.527 978.347,1721.182 985.175,1731.275C985.175,1731.275 992.096,1668.935 992.346,1662.404C992.597,1655.873 996.159,1589.376 995.269,1584.033C994.378,1578.689 993.283,1549.894 992.346,1546.034" style="fill:none;stroke:black;stroke-width:4.17px;"/>
                </g>
            </g>
        </g>
    </g>
</svg>
