<?xml version="1.0" encoding="UTF-8" standalone="no"?>
<!DOCTYPE svg PUBLIC "-//W3C//DTD SVG 1.1//EN" "http://www.w3.org/Graphics/SVG/1.1/DTD/svg11.dtd">
<svg width="100%" height="100%" viewBox="0 0 420 496" version="1.1" xmlns="http://www.w3.org/2000/svg" xmlns:xlink="http://www.w3.org/1999/xlink" xml:space="preserve" xmlns:serif="http://www.serif.com/" style="fill-rule:evenodd;clip-rule:evenodd;stroke-linecap:round;stroke-linejoin:round;stroke-miterlimit:1.5;">
    <g transform="matrix(1,0,0,1,-522.257525,-1222.734658)">
        <g>
            <g id="l-hand" serif:id="l hand" transform="matrix(1,0,0,1,56.714773,-7.163461)">
                <path d="M557.097,1314.801C557.097,1314.801 528.509,1323.822 514.883,1355.615C514.883,1355.615 502.775,1382.272 504.955,1410.552C504.955,1410.552 500.99,1455.129 500.723,1467.419C500.456,1479.709 497.528,1522.19 496.855,1525.663C496.855,1525.663 488.621,1549.95 484.169,1578.034C481.585,1594.336 474.735,1637.806 468.391,1669.991C467.512,1674.451 472.476,1678.807 471.974,1682.793C470.77,1692.36 468.408,1694.794 467.775,1700.593C467.507,1703.052 477.026,1703.329 489.841,1706.369C501.766,1709.198 512.426,1719.747 514.234,1723.049L521.753,1700.657L532.964,1693.965L543.397,1649.108C543.397,1649.108 549.957,1616.661 553.104,1598.92C558.549,1568.222 571.791,1464.747 571.791,1464.747L577.484,1420.931C577.484,1420.931 609.463,1313.672 557.097,1314.801Z" style="fill:rgb(44,93,179);"/>
                <path d="M560.786,1546.79C560.786,1546.79 576.816,1429.233 577.484,1421.218M557.542,1314.801C557.542,1314.801 502.198,1331.595 504.488,1412.893C504.488,1412.893 498.763,1515.182 496.855,1526.633" style="fill:none;stroke:black;stroke-width:4.17px;"/>
                <g transform="matrix(1,0,0,1,-0.487269,-0.864276)">
                    <path d="M514.721,1530.657C514.721,1530.657 531.197,1546.806 534.759,1558.028" style="fill:none;stroke:black;stroke-width:4.17px;"/>
                </g>
                <g transform="matrix(1,0,0,1,-0.487269,-0.864276)">
                    <path d="M497.342,1527.497L490.824,1544.906C490.824,1544.906 486.371,1566.28 484.293,1584.686C482.994,1596.187 477.321,1632.286 468.28,1669.229C467.08,1674.133 472.786,1678.963 472.174,1683.246C470.499,1694.977 469.078,1703.364 468.262,1704.914C468.262,1704.914 500.026,1702.539 513.979,1723.913C513.979,1723.913 517.286,1714.539 521.877,1701.375C522.986,1698.194 532.857,1697.278 533.78,1693.642C541.599,1662.841 548.577,1623.925 549.305,1618.825C550.493,1610.512 557.914,1588.104 561.18,1547.654" style="fill:none;stroke:black;stroke-width:4.17px;"/>
                </g>
                <g transform="matrix(1,0,0,1,-1.899554,1.361954)">
                    <path d="M522.732,1700.747C522.732,1700.747 512.751,1675.984 473.411,1682.239" style="fill:none;stroke:black;stroke-width:2.08px;"/>
                </g>
            </g>
            <g id="body">
                <path d="M653.171,1289.609L617.038,1308.208C617.038,1308.208 587.955,1323.835 609.842,1353.97C609.842,1353.97 613.855,1367.326 612.396,1370.974L604.006,1382.464C604.006,1382.464 583.557,1414.747 584.115,1431.345C584.672,1447.943 585.219,1445.936 587.408,1451.955C587.408,1451.955 594.521,1474.025 596.528,1480.044C598.534,1486.062 606.194,1514.88 607.654,1522.723C609.113,1530.566 613.308,1552.088 612.76,1555.371C612.76,1555.371 599.811,1583.642 599.993,1588.019C600.175,1592.397 601.27,1600.422 603.641,1603.522L603.823,1607.17L598.534,1632.158C598.534,1632.158 622.855,1651.856 653.374,1654.045C653.374,1654.045 700.491,1661.705 722.742,1657.145C722.742,1657.145 763.598,1652.95 781.472,1643.831C781.472,1643.831 818.315,1626.321 821.963,1623.585L836.372,1613.554L829.624,1590.573C829.624,1590.573 834.913,1574.522 834.001,1571.057C834.001,1571.057 829.624,1558.654 828.165,1555.736C826.705,1552.818 821.416,1536.038 821.416,1532.39C821.416,1528.742 822.146,1501.201 823.605,1497.006C825.064,1492.811 829.077,1474.207 829.806,1470.377C830.536,1466.547 838.926,1434.081 839.473,1430.433C840.02,1426.785 846.768,1399.974 846.768,1399.974C846.768,1399.974 887.855,1347.428 852.058,1310.967C852.058,1310.967 801.216,1284.834 798.993,1283.466L804.807,1277.823L806.004,1270.128C806.004,1270.128 810.621,1248.583 812.16,1245.164C813.699,1241.744 813.186,1240.157 813.186,1240.157L810.108,1233.536L803.097,1229.432C803.097,1229.432 775.909,1221.567 760.52,1224.816C760.52,1224.816 760.862,1255.936 762.23,1259.356L762.23,1261.75C762.23,1261.75 756.416,1272.864 747.867,1276.797L698.279,1297.945C698.279,1297.945 688.533,1292.846 686.481,1289.609C684.429,1286.373 683.403,1287.569 682.548,1283.979C681.693,1280.388 679.983,1276.626 679.983,1274.232C679.983,1271.838 680.154,1269.957 680.838,1266.879C681.522,1263.802 681.351,1259.014 681.351,1259.014L680.838,1249.267L679.47,1243.173C679.47,1243.173 663.91,1246.189 660.49,1249.609C660.49,1249.609 643.904,1259.362 650.743,1272.269L653.374,1282.098L653.171,1289.609Z" style="fill:rgb(44,93,179);"/>
                <path d="M609.585,1353.97C609.585,1353.97 614.261,1366.327 611.589,1372.005C611.589,1372.005 575.139,1414.156 586.207,1448.817C597.276,1483.478 596.767,1480.467 601.517,1495.31C606.267,1510.153 612.204,1547.855 612.501,1556.464C612.501,1556.464 601.517,1581.4 600.032,1587.634C600.032,1587.634 591.72,1617.023 653.171,1627.117" style="fill:none;stroke:black;stroke-width:4.17px;"/>
                <path d="M604.285,1604.653C604.285,1604.653 598.548,1628.601 598.251,1633.054C598.251,1633.054 653.356,1674.002 760.04,1651.459C760.04,1651.459 804.532,1638.768 837.484,1613.238C837.484,1613.238 829.469,1592.161 829.766,1589.786" style="fill:none;stroke:black;stroke-width:4.17px;"/>
                <path d="M723.489,1627.117C723.489,1627.117 768.728,1624.519 829.766,1589.786C829.766,1589.786 834.4,1578.802 833.806,1571.084C833.806,1571.084 822.228,1542.289 821.338,1532.789C820.447,1523.29 821.486,1503.159 827.164,1480.783C827.164,1480.783 845.198,1409.314 846.868,1400.63" style="fill:none;stroke:black;stroke-width:4.17px;"/>
                <path d="M653.171,1490.543C653.171,1490.543 692.732,1485.848 717.868,1501.433" style="fill:none;stroke:black;stroke-width:4.17px;"/>
                <path d="M798.108,1283.519C798.108,1283.519 843.862,1306.563 851.543,1310.57" style="fill:none;stroke:black;stroke-width:4.17px;"/>
                <path d="M760.815,1224.982C760.815,1224.982 822.265,1221.419 811.875,1247.543C811.875,1247.543 804.454,1271.589 804.751,1277.229C804.751,1277.229 806.94,1290.421 713.021,1302.165" style="fill:none;stroke:black;stroke-width:4.17px;"/>
                <path d="M698.14,1297.045C698.14,1297.045 838.774,1246.696 794.136,1236.099" style="fill:none;stroke:black;stroke-width:4.17px;"/>
                <path d="M744.606,1278.721C744.606,1278.721 763.906,1265.384 763.04,1258.705C763.04,1258.705 760.036,1267.939 760.036,1224.818" style="fill:none;stroke:black;stroke-width:4.17px;"/>
                <path d="M680.893,1247.957C680.893,1247.957 682.229,1259.271 680.893,1266.572C680.893,1266.572 673.442,1287.888 698.14,1297.045" style="fill:none;stroke:black;stroke-width:4.17px;"/>
                <path d="M683.477,1286.356C683.477,1286.356 647.175,1264.008 670.473,1251.908" style="fill:none;stroke:black;stroke-width:4.17px;"/>
                <path d="M688.989,1301.365C688.989,1301.365 664.488,1301.578 653.374,1289.609C653.374,1289.609 654.015,1280.186 650.168,1272.501C650.168,1272.501 643.686,1261.38 657.935,1251.769C657.935,1251.769 672.958,1242.373 679.838,1243.228L679.838,1247.957" style="fill:none;stroke:black;stroke-width:4.17px;"/>
                <path d="M653.374,1289.609C653.374,1289.609 624.305,1302.647 617.038,1306.281" style="fill:none;stroke:black;stroke-width:4.17px;"/>
            </g>
            <g id="r-hand" serif:id="r hand" transform="matrix(1,0,0,1,-56.595956,-15.553394)">
                <path d="M885.495,1423.885C885.495,1423.885 894.332,1465.989 907.989,1525.101C910.964,1537.981 914.649,1551.314 916.68,1564.871C918.62,1577.817 918.772,1592.515 919.265,1605.285C920.399,1634.634 919.181,1655.386 919.611,1675.516C919.669,1678.202 926.217,1692.225 926.259,1694.664C926.551,1711.29 927.523,1717.145 927.046,1718.691L950.685,1718.942C950.685,1718.942 956.412,1721.466 985.522,1728.947C985.522,1728.947 987.178,1721.419 988.995,1707.895C989.659,1702.951 995.203,1703.363 995.68,1698.53C996.146,1693.814 996.041,1673.364 996.114,1669.718C996.356,1657.548 994.628,1636.739 996.336,1611.149C996.947,1602 996.642,1593.233 996.336,1585.296C994.953,1549.328 989.679,1519.777 989.679,1519.777L980.702,1454.159L968.092,1394.953C968.092,1394.953 959.542,1360.327 952.275,1354.129C952.275,1354.129 925.771,1321.224 898.626,1323.356C898.626,1323.356 845.632,1314.474 885.495,1423.885Z" style="fill:rgb(44,93,179);"/>
                <path d="M993.272,1549.035C993.272,1549.035 985.59,1474.643 975.571,1429.224C975.571,1429.224 965.886,1369.443 948.854,1350.741C948.854,1350.741 928.816,1323.69 899.093,1323.356M885.495,1424.779C885.495,1424.779 912.324,1538.479 917.222,1567.069" style="fill:none;stroke:black;stroke-width:4.17px;"/>
                <g transform="matrix(1,0,0,1,0.925382,0.623644)">
                    <path d="M928.594,1564.93C928.594,1564.93 941.418,1542.22 949.968,1532.601" style="fill:none;stroke:black;stroke-width:4.17px;"/>
                </g>
                <g transform="matrix(1,0,0,1,0.925382,0.623644)">
                    <path d="M916.631,1566.445L916.86,1584.274C916.86,1584.274 919.537,1620.995 918.447,1674.137C918.343,1679.21 924.976,1688.757 925.192,1693.157C925.818,1705.886 925.953,1715.213 925.209,1717.527C925.209,1717.527 978.347,1721.182 985.175,1731.275C985.175,1731.275 986.418,1720.082 987.869,1706.684C988.297,1702.736 994.383,1701.566 994.82,1697.465C996.401,1682.64 994.905,1667.912 995.018,1664.964C995.269,1658.433 996.159,1589.376 995.269,1584.033C994.378,1578.689 993.283,1549.894 992.346,1546.034" style="fill:none;stroke:black;stroke-width:4.17px;"/>
                </g>
                <g transform="matrix(1,0,0,1,118.036955,7.525657)">
                    <path d="M808.84,1687.565C808.84,1687.565 851.743,1679.541 870.876,1698.691" style="fill:none;stroke:black;stroke-width:2.08px;"/>
                </g>
            </g>
        </g>
    </g>
</svg>
