<?xml version="1.0" encoding="UTF-8" standalone="no"?>
<!DOCTYPE svg PUBLIC "-//W3C//DTD SVG 1.1//EN" "http://www.w3.org/Graphics/SVG/1.1/DTD/svg11.dtd">
<svg width="100%" height="100%" viewBox="0 0 373 576" version="1.1" xmlns="http://www.w3.org/2000/svg" xmlns:xlink="http://www.w3.org/1999/xlink" xml:space="preserve" xmlns:serif="http://www.serif.com/" style="fill-rule:evenodd;clip-rule:evenodd;stroke-linecap:round;stroke-linejoin:round;stroke-miterlimit:1.5;">
    <g transform="matrix(1,0,0,1,-675.619319,-1570.551866)">
        <g>
            <g id="l-hand" serif:id="l hand" transform="matrix(1,0,0,1,76.946306,-15.81793)">
                <path d="M663.366,1636.901C663.366,1636.901 628.206,1638.703 608.007,1679.18C608.007,1679.18 593.431,1714.569 604.855,1750.038L604.688,1753.643C604.688,1753.643 599.345,1791.261 603.833,1811.353L601.253,1835.832C601.253,1835.832 633.971,1836.982 647.436,1845.221L672.236,1863.176L674.795,1849.504L687.3,1750.038C687.3,1750.038 720.737,1642.539 663.366,1636.901Z" style="fill:rgb(177,124,58);"/>
                <path d="M601.253,1835.871C602.635,1827.373 604.53,1814.065 603.776,1809.037C603.776,1809.037 600.722,1763.618 604.539,1752.931C604.539,1752.931 592.325,1701.404 611.791,1672.397C611.791,1672.397 627.058,1641.862 663.318,1636.901M687.3,1749.273C687.3,1749.273 677.833,1827.502 672.236,1863.176" style="fill:none;stroke:black;stroke-width:4.17px;"/>
                <path d="M601.253,1835.871C601.253,1835.871 645.74,1833.618 672.236,1863.176" style="fill:none;stroke:black;stroke-width:4.17px;"/>
            </g>
            <g id="body">
                <path d="M961.611,1709.708C961.611,1709.708 951.459,1772.494 948.253,1785.853C948.253,1785.853 940.237,1819.784 941.039,1829.402C941.039,1829.402 939.703,1843.563 953.329,1870.013C953.329,1870.013 979.245,1929.593 982.718,1940.547C982.718,1940.547 992.871,1980.356 992.871,1992.112C992.871,1992.112 988.863,2042.875 988.329,2052.493L979.512,2130.241L947.184,2135.585C947.184,2135.585 829.627,2147.875 794.627,2143.333C794.627,2143.333 724.895,2139.058 719.818,2134.783C719.818,2134.783 707.528,2066.119 707.261,2054.898C707.261,2054.898 706.727,2017.761 711.269,2003.333C711.269,2003.333 719.551,1951.234 722.49,1943.753C722.49,1943.753 738.735,1879.097 739.296,1871.616C739.296,1871.616 744.439,1848.105 742.148,1842.761C742.148,1842.761 736.116,1817.914 732.376,1813.372C732.376,1813.372 708.864,1787.99 705.124,1769.288C705.124,1769.288 695.7,1742.571 698.809,1732.151C698.809,1732.151 704.322,1703.83 713.941,1694.479C713.941,1694.479 728.902,1677.113 730.238,1673.907L729.971,1662.953C729.971,1662.953 703.468,1644.742 739.296,1621.083L802.349,1585.627L802.349,1591.65L790.727,1647.864L787.52,1687.619C787.52,1687.619 787.948,1716.902 790.513,1722.886L795.429,1716.047L821.933,1673.513C821.933,1673.513 850.787,1633.543 857.2,1624.139C863.612,1614.734 870.313,1602.124 874.016,1597.421C874.016,1597.421 886.482,1576.047 887.123,1573.269L898.665,1579.04L954.665,1612.597C954.665,1612.597 1004.71,1630.517 961.611,1709.708Z" style="fill:rgb(177,124,58);"/>
                <path d="M802.349,1585.627C802.349,1585.627 759.334,1607.535 739.296,1620.626" style="fill:none;stroke:black;stroke-width:4.17px;"/>
                <path d="M790.26,1859.128C790.186,1870.403 790.245,1891.618 789.927,1898.254C789.191,1913.617 791.329,2080.657 794.824,2142.107M888.045,1572.635C888.045,1572.635 889.715,1578.313 853.647,1629.41C853.647,1629.41 798.876,1703.15 791.195,1724.557C791.195,1724.557 777.168,1750.306 780.841,1792.72C780.841,1792.72 787.323,1816.653 789.733,1832.855" style="fill:none;stroke:black;stroke-width:4.17px;"/>
                <path d="M888.045,1572.635C888.045,1572.635 923.983,1598.468 954.559,1612.42" style="fill:none;stroke:black;stroke-width:4.17px;"/>
                <path d="M719.598,2135.157C719.598,2135.157 822.636,2158.01 979.903,2130.577C979.903,2130.577 994.851,2014.642 993.085,1987.901C993.085,1987.901 990.175,1951.999 971.854,1910.015C971.854,1910.015 943.992,1852.381 942.084,1840.931C942.084,1840.931 939.412,1828.336 942.084,1816.504C944.755,1804.672 961.167,1718.412 961.931,1710.397" style="fill:none;stroke:black;stroke-width:4.17px;"/>
                <path d="M729.68,1659.751C729.68,1659.751 732.945,1669.547 730.867,1674C730.867,1674 689.9,1714.076 700.587,1752.965C700.587,1752.965 706.228,1787.401 734.133,1815.899C734.133,1815.899 742.148,1830.742 742.148,1848.257C742.148,1865.772 737.695,1886.255 734.726,1898.427C731.758,1910.598 717.657,1958.448 715.319,1975.147C712.981,1991.845 706.302,2023.906 707.304,2048.954C708.306,2074.001 715.194,2112.742 719.598,2134.783" style="fill:none;stroke:black;stroke-width:4.17px;"/>
                <path d="M802.349,1585.627C802.349,1585.627 779.572,1682.11 790.059,1724.557" style="fill:none;stroke:black;stroke-width:4.17px;"/>
                <path d="M816.779,1834.616C816.779,1834.616 807.428,1823.128 804.489,1822.059C804.489,1822.059 785.519,1841.029 785.519,1851.983C785.519,1851.983 795.565,1861.414 797.702,1862.91C797.702,1862.91 811.061,1833.681 816.779,1834.616Z" style="fill:none;stroke:black;stroke-width:4.17px;"/>
                <path d="M810.676,1839.573C810.676,1839.573 832.542,1882.077 837.885,1946.83L816.779,1950.559C816.779,1950.559 806.715,1867.882 801.149,1860.832" style="fill:none;stroke:black;stroke-width:4.17px;"/>
                <path d="M789.942,1857.371C789.942,1857.371 786.439,1872.886 785.519,1880.1L766.965,1877.428C766.965,1877.428 776.584,1835.214 793.149,1832.542" style="fill:none;stroke:black;stroke-width:4.17px;"/>
                <path d="M742.148,1829.069C742.148,1829.069 784.065,1834.146 793.149,1832.542" style="fill:none;stroke:black;stroke-width:4.17px;"/>
                <path d="M742.148,1849.909C742.148,1849.909 761.355,1853.783 773.378,1854.05" style="fill:none;stroke:black;stroke-width:4.17px;"/>
                <path d="M816.779,1832.855C816.779,1832.855 901.354,1829.744 941.163,1819.387" style="fill:none;stroke:black;stroke-width:4.17px;"/>
                <path d="M816.779,1854.05C816.779,1854.05 908.301,1852.125 941.163,1839.795" style="fill:none;stroke:black;stroke-width:4.17px;"/>
            </g>
            <g id="r-hand" serif:id="r hand" transform="matrix(1,0,0,1,-50.763188,8.54959)">
                <path d="M984.315,1699.659L987.787,1708.208C987.787,1708.208 994.021,1767.404 1017.444,1835.832L1019.699,1838.808C1019.699,1838.808 1036.083,1829.449 1040.458,1828.936C1040.458,1828.936 1088.625,1819.787 1096.602,1825.943L1096.602,1800.363L1094.183,1758.367C1094.183,1758.367 1088.711,1719.359 1085.565,1713.909C1085.565,1713.909 1084.744,1669.747 1079.272,1662.223C1079.272,1662.223 1065.755,1621.712 1040.458,1613.503L1006.042,1604.566C1006.042,1604.566 947.676,1616.136 984.315,1699.659Z" style="fill:rgb(177,124,58);"/>
                <path d="M1017.898,1838.808C1009.267,1809.178 991.125,1747.065 987.941,1708.287L984.315,1699.668M1006.739,1604.566C1006.739,1604.566 1088.513,1603.946 1085.365,1714.108C1085.365,1714.108 1094.429,1739.966 1094.429,1769.356C1094.429,1769.356 1095.153,1802.424 1096.602,1826.716" style="fill:none;stroke:black;stroke-width:4.17px;"/>
                <path d="M1017.898,1838.808C1017.898,1838.808 1056.799,1817.408 1096.602,1826.716" style="fill:none;stroke:black;stroke-width:4.17px;"/>
            </g>
        </g>
    </g>
</svg>
