<?xml version="1.0" encoding="UTF-8" standalone="no"?>
<!DOCTYPE svg PUBLIC "-//W3C//DTD SVG 1.1//EN" "http://www.w3.org/Graphics/SVG/1.1/DTD/svg11.dtd">
<svg width="100%" height="100%" viewBox="0 0 400 474" version="1.1" xmlns="http://www.w3.org/2000/svg" xmlns:xlink="http://www.w3.org/1999/xlink" xml:space="preserve" xmlns:serif="http://www.serif.com/" style="fill-rule:evenodd;clip-rule:evenodd;stroke-linecap:round;stroke-linejoin:round;stroke-miterlimit:1.5;">
    <g transform="matrix(1,0,0,1,-654.777506,-1555.412661)">
        <g transform="matrix(1,0,0,1,0,3)">
            <g id="l-hand" serif:id="l hand" transform="matrix(1,0,0,1,81.710925,-16.772633)">
                <path d="M663.175,1636.901C663.175,1636.901 616.283,1640.441 602.687,1695.438C602.687,1695.438 597.771,1732.414 604.611,1751.865C604.611,1751.865 600.336,1770.46 602.901,1790.124C602.901,1790.124 603.328,1814.277 603.115,1819.62C603.115,1819.62 590.931,1886.735 589.649,1893.574C589.649,1893.574 582.596,1949.147 582.168,1955.559C581.741,1961.971 575.15,2020.108 575.15,2020.108C575.15,2020.108 608.031,2024.561 620.641,2040.716L637.74,2001.727C637.74,2001.727 658.687,1951.284 659.542,1947.437C660.397,1943.589 666.595,1912.17 666.595,1909.605C666.595,1907.04 669.374,1880.75 669.374,1880.75L676.427,1838.808L684.122,1772.384L687.3,1749.086C687.3,1749.086 713.404,1632.146 663.175,1636.901Z" style="fill:rgb(169,169,169);"/>
                <path d="M687.3,1749.273C687.3,1749.273 674.386,1855.984 669.806,1876.976C669.806,1876.976 665.226,1930.793 658.737,1949.877C658.737,1949.877 625.531,2032.701 620.951,2040.716C620.951,2040.716 603.776,2021.25 575.15,2019.724C575.15,2019.724 586.6,1899.877 590.417,1890.335C590.417,1890.335 598.051,1854.839 599.959,1843.388C599.959,1843.388 604.921,1816.671 603.776,1809.037C603.776,1809.037 600.722,1763.618 604.539,1752.931C604.539,1752.931 592.325,1701.404 611.791,1672.397C611.791,1672.397 627.058,1641.862 663.318,1636.901" style="fill:none;stroke:black;stroke-width:4.17px;"/>
                <path d="M621.651,1854.394C621.651,1854.394 638.127,1874.432 641.244,1892.689" style="fill:none;stroke:black;stroke-width:4.17px;"/>
            </g>
            <g id="body">
                <g transform="matrix(1,0,0,1,0,-3)">
                    <path d="M962.325,1712.937C962.325,1712.937 950.035,1782.135 948.165,1791.754C948.165,1791.754 939.883,1820.876 940.684,1830.494C940.684,1830.494 943.356,1852.669 948.966,1862.822C948.966,1862.822 972.745,1915.188 975.15,1920.799C975.15,1920.799 983.165,1943.509 984.501,1947.784C984.501,1947.784 993.852,1991.867 993.317,1995.074C993.317,1995.074 934.331,2020.322 861.6,2013.241L857.741,1958.367L854.476,1875.246L851.21,1808.749C851.21,1808.749 848.835,1745.814 850.32,1736.909C850.32,1736.909 853.288,1672.787 854.179,1668.037C854.179,1668.037 860.443,1628.183 866.855,1612.954C866.855,1612.954 880.481,1576.084 882.084,1572.077L883.954,1556.848C883.954,1556.848 897.046,1562.458 900.519,1584.099C900.519,1584.099 944.603,1611.527 953.954,1615.847C953.954,1615.847 1015.196,1643.902 962.325,1712.937Z" style="fill:rgb(169,169,169);"/>
                </g>
                <g transform="matrix(1,0,0,1,0,-3)">
                    <path d="M802.785,1587.569C802.785,1587.569 795.438,1600.514 793.434,1608.068C793.434,1608.068 776.401,1674.735 774.731,1685.088C774.731,1685.088 761.039,1744.868 761.039,1751.214C761.039,1757.559 762.041,1796.633 762.375,1807.988C762.709,1819.343 764.771,1866.099 765.076,1875.45C765.38,1884.801 766.775,1917.864 765.076,1928.551C763.377,1939.238 761.707,2014.23 761.707,2014.23C761.707,2014.23 720.525,2015.049 711.559,2004.696C711.559,2004.696 715.285,1974.638 716.287,1970.965C717.289,1967.291 725.638,1934.228 727.308,1929.553C728.978,1924.877 737.925,1888.475 739.296,1883.799C740.667,1879.123 744.006,1866.099 743.672,1860.087C743.338,1854.076 734.655,1820.011 731.65,1815.335C731.65,1815.335 712.279,1793.294 707.604,1776.261C702.928,1759.229 699.923,1757.893 701.258,1740.193C701.258,1740.193 706.832,1703.306 731.264,1677.902C731.264,1677.902 731.909,1666.619 729.831,1663.65C729.831,1663.65 709.278,1637.335 739.296,1623.626C739.296,1623.626 762.322,1608.89 765.076,1608.068C765.076,1608.068 774.657,1594.007 778.22,1588.159C778.22,1588.159 798.747,1561.605 801.842,1561.567L803.793,1571.92L802.785,1587.569Z" style="fill:rgb(169,169,169);"/>
                </g>
                <path d="M765.076,1605.068C753.85,1611.2 747.376,1615.347 739.296,1620.626" style="fill:none;stroke:black;stroke-width:4.17px;"/>
                <path d="M900.713,1581.334C913.905,1590.125 935.296,1603.63 954.559,1612.42" style="fill:none;stroke:black;stroke-width:4.17px;"/>
                <path d="M993.085,1992.577C993.085,1992.577 990.175,1951.999 971.854,1910.015C971.854,1910.015 943.992,1852.381 942.084,1840.931C942.084,1840.931 939.412,1828.336 942.084,1816.504C944.755,1804.672 961.167,1718.412 961.931,1710.397" style="fill:none;stroke:black;stroke-width:4.17px;"/>
                <path d="M729.68,1659.751C729.68,1659.751 732.945,1669.547 730.867,1674C730.867,1674 691.427,1719.42 702.114,1758.308C702.114,1758.308 706.609,1783.584 732.606,1813.609C732.606,1813.609 738.331,1829.597 742.148,1848.257C745.658,1865.417 737.695,1886.255 734.726,1898.427C731.758,1910.598 717.657,1958.448 715.319,1975.147C714.287,1982.519 713.002,1990.214 711.312,2001.65" style="fill:none;stroke:black;stroke-width:4.17px;"/>
                <path d="M868.969,1617.955L879.954,1608.06L903.85,1620.626C903.85,1620.626 905.759,1562.13 884.003,1554.496L882.476,1569C882.476,1569 855.974,1622.689 852.4,1684.139C852.4,1684.139 848.197,1734.676 851.759,1806.368C855.322,1878.06 858.528,1991.654 861.2,2010.356C861.2,2010.356 937.971,2017.2 993.085,1992.577" style="fill:none;stroke:black;stroke-width:4.17px;"/>
                <g transform="matrix(1,0,0,1,0,-3)">
                    <path d="M711.559,2004.65C711.559,2004.65 729.009,2014.424 761.696,2014.23C761.696,2014.23 765.269,1885.513 765.076,1865.92C764.883,1846.327 758.649,1773.3 760.875,1751.48C760.875,1751.48 787.148,1608.295 801.842,1588.159" style="fill:none;stroke:black;stroke-width:4.17px;"/>
                </g>
                <path d="M802.349,1585.627C802.349,1585.627 805.597,1569.551 802.349,1558.567C802.349,1558.567 765.555,1589.738 761.696,1620.017L778.159,1608.658L784.331,1615.564" style="fill:none;stroke:black;stroke-width:4.17px;"/>
            </g>
            <g id="r-hand" serif:id="r hand" transform="matrix(1,0,0,1,-50.76319,8.015241)">
                <path d="M984.315,1698.89L987.822,1708.508C987.822,1708.508 994.502,1762.21 1005.189,1795.34C1005.189,1795.34 1022.983,1858.687 1023.837,1860.825C1024.692,1862.962 1023.624,1868.092 1023.624,1868.092C1023.624,1868.092 1024.906,1901.863 1026.402,1912.763L1028.967,1937.985L1031.318,2003.389C1031.318,2003.389 1055.257,1997.404 1071.501,2002.748L1088.387,2010.576L1090.311,1999.755L1098.433,1924.733L1102.552,1888.183C1102.552,1888.183 1098.646,1847.145 1097.791,1842.229C1096.936,1837.313 1095.013,1799.909 1095.013,1799.909C1095.013,1799.909 1093.944,1752.886 1092.662,1746.474L1084.967,1713.344C1084.967,1713.344 1086.891,1701.375 1085.395,1694.963C1085.395,1694.963 1079.41,1660.978 1076.631,1655.634C1076.631,1655.634 1061.456,1628.062 1057.822,1625.711C1057.822,1625.711 1031.746,1602.658 1005.67,1604.566C1005.67,1604.566 944.259,1611.497 984.315,1698.89Z" style="fill:rgb(169,169,169);"/>
                <path d="M1006.739,1604.566C1006.739,1604.566 1088.513,1603.946 1085.365,1714.108C1085.365,1714.108 1094.429,1739.966 1094.429,1769.356C1094.429,1769.356 1095.574,1821.646 1097.864,1843.02C1097.864,1843.02 1104.353,1880.424 1102.063,1897.218C1102.063,1897.218 1090.231,2005.614 1088.704,2010.576C1088.704,2010.576 1068.094,1993.401 1031.452,2004.469C1031.452,2004.469 1028.781,1921.645 1024.582,1896.073C1024.582,1896.073 1022.674,1868.974 1023.819,1862.103C1023.819,1862.103 992.012,1757.874 987.941,1708.287L984.315,1699.668" style="fill:none;stroke:black;stroke-width:4.17px;"/>
                <path d="M1030.804,1854.394C1030.804,1854.394 1040.422,1834.546 1048.971,1827.6" style="fill:none;stroke:black;stroke-width:4.17px;"/>
            </g>
        </g>
    </g>
</svg>
