<?xml version="1.0" encoding="UTF-8" standalone="no"?>
<!DOCTYPE svg PUBLIC "-//W3C//DTD SVG 1.1//EN" "http://www.w3.org/Graphics/SVG/1.1/DTD/svg11.dtd">
<svg width="100%" height="100%" viewBox="0 0 603 680" version="1.1" xmlns="http://www.w3.org/2000/svg" xmlns:xlink="http://www.w3.org/1999/xlink" xml:space="preserve" xmlns:serif="http://www.serif.com/" style="fill-rule:evenodd;clip-rule:evenodd;stroke-linecap:round;stroke-linejoin:round;stroke-miterlimit:1.5;">
    <g transform="matrix(1,0,0,1,-440.441944,-1219.531249)">
        <g>
            <g id="l-hand" serif:id="l hand" transform="matrix(1,0,0,1,126.004159,-14.534907)">
                <path d="M497.702,1441.797C497.702,1441.797 486.23,1472.062 484.862,1476.337C483.495,1480.612 472.754,1508.436 472.754,1508.436L450.205,1566.119C450.205,1566.119 436.311,1617.844 433.533,1624.47C433.533,1624.47 419.266,1654.179 415.418,1660.592C415.418,1660.592 397.678,1695.111 395.327,1700.027L371.762,1739.688C371.762,1739.688 364.281,1723.859 343.762,1717.446C343.762,1717.446 318.776,1712.744 316.521,1714.668L320.037,1689.874L333.93,1615.92L339.487,1590.271C339.487,1590.271 349.533,1559.065 351.671,1555.859C353.808,1552.653 356.373,1532.775 356.373,1532.775L367.06,1488.745L377.533,1442.791L389.93,1389.57C389.93,1389.57 401.044,1360.074 411.945,1350.669C411.945,1350.669 438.235,1329.723 447.853,1326.516C457.472,1323.31 467.731,1321.411 467.731,1321.411L475.084,1321.411C475.084,1321.411 522.866,1327.404 497.702,1441.797Z" style="fill:rgb(34,34,34);"/>
                <path d="M474.154,1321.411C474.154,1321.411 404.307,1324.082 387.513,1398.891C387.513,1398.891 354.689,1541.257 352.399,1556.143C352.399,1556.143 340.949,1582.86 339.04,1591.639C337.132,1600.417 332.17,1625.99 324.536,1667.211C316.903,1708.432 316.521,1715.303 316.521,1715.303C316.521,1715.303 352.908,1709.35 371.61,1739.688C371.61,1739.688 392.331,1702.846 397.674,1693.94C403.018,1685.034 429.795,1633.172 433.06,1625.751C436.326,1618.329 449.388,1574.394 450.575,1566.082C450.575,1566.082 492.024,1458.6 497.702,1441.901" style="fill:none;stroke:black;stroke-width:4.17px;"/>
                <path d="M387.826,1543.968C387.826,1543.968 409.804,1568.677 411.005,1594.191" style="fill:none;stroke:black;stroke-width:4.17px;"/>
            </g>
            <g id="body">
                <path d="M933.771,1431.215C933.771,1431.215 924.085,1490.995 924.419,1507.026L922.654,1544.358C922.654,1544.358 923.704,1600.918 924.038,1607.932C924.372,1614.945 926.71,1653.017 927.043,1657.693C927.377,1662.369 931.719,1725.489 931.719,1725.489L935.393,1790.278L937.545,1857.981C937.545,1857.981 873.037,1872.988 832.427,1880.468C832.427,1880.468 690.503,1905.015 635.252,1895.697C635.252,1895.697 622.006,1896.566 616.068,1895.378C616.068,1895.378 529.979,1885.285 506.824,1870.442C506.824,1870.442 494.356,1766.541 493.465,1760.603C492.574,1754.666 485.45,1684.607 487.231,1667.092C487.231,1667.092 497.027,1611.579 498.512,1605.939L507.417,1562.004L508.011,1545.973L504.746,1517.178L501.183,1483.929L500.887,1470.254L503.261,1446.228L509.792,1425.151L519.886,1412.089L533.244,1398.73L546.009,1387.153L552.243,1379.731C552.243,1379.731 535.025,1326.296 586.382,1311.75L600.632,1302.844L614.893,1296.426L633.275,1288.304L645.458,1284.243L652.084,1278.258L670.679,1259.449L682.435,1249.831L683.29,1269.709C683.29,1269.709 664.267,1343.449 664.694,1359.052C664.694,1359.052 662.072,1407.357 663.704,1416.334C663.704,1416.334 684.145,1389.189 686.496,1384.701C686.496,1384.701 711.717,1351.359 721.335,1344.091C730.954,1336.823 750.618,1314.38 750.618,1314.38L768.786,1293.647L791.014,1269.674L802.343,1252.609L807.472,1221.617L818.159,1233.373L822.434,1250.472L824.358,1260.732L838.892,1266.289L876.297,1284.67L932.938,1303.693C932.938,1303.693 985.373,1333.443 933.771,1431.215Z" style="fill:rgb(34,34,34);"/>
                <g transform="matrix(1.182541,0.132043,-0.110971,0.993824,39.311642,-79.985745)">
                    <ellipse cx="674.909" cy="1450.574" rx="8.157" ry="12.468" style="fill:none;stroke:black;stroke-width:3.79px;"/>
                </g>
                <g transform="matrix(1.182541,0.132043,-0.110971,0.993824,19.822743,46.2041)">
                    <ellipse cx="674.909" cy="1450.574" rx="8.157" ry="12.468" style="fill:none;stroke:black;stroke-width:3.79px;"/>
                </g>
                <path d="M780.219,1281.834C764.08,1300.127 739.161,1327.212 701.599,1365.654C701.599,1365.654 655.146,1417.188 650.804,1452.923C650.804,1452.923 637.445,1554.115 636.443,1583.504C636.443,1583.504 625.154,1750.968 635.173,1896.912" style="fill:none;stroke:black;stroke-width:4.17px;"/>
                <path d="M661.994,1431.792C661.994,1431.792 730.222,1364.998 793.008,1336.5L766.29,1309.202C766.29,1309.202 807.702,1309.067 813.936,1309.202C813.936,1309.202 838.625,1242.543 807.133,1221.615L802.136,1252.618C802.136,1252.618 790.819,1268.578 780.357,1281.834C779.595,1282.799 778.838,1283.75 778.09,1284.679" style="fill:none;stroke:black;stroke-width:4.17px;"/>
                <path d="M683.065,1269.674L683.065,1249.433C683.065,1249.433 634.15,1290.69 627.805,1312.398L653.854,1320.748L627.805,1342.455C627.805,1342.455 647.843,1410.251 656.192,1423.944" style="fill:none;stroke:black;stroke-width:4.17px;"/>
                <path d="M683.065,1269.674C683.065,1269.674 655.144,1364.422 663.583,1418.508" style="fill:none;stroke:black;stroke-width:4.17px;"/>
                <path d="M648.624,1282.716C623.234,1292.525 592.276,1304.974 587.28,1309.202" style="fill:none;stroke:black;stroke-width:4.17px;"/>
                <path d="M823.14,1259.548C834.559,1266.199 851.814,1275.303 874.016,1284.273C874.016,1284.273 926.067,1299.159 933.319,1304.121" style="fill:none;stroke:black;stroke-width:4.17px;"/>
                <path d="M933.319,1431.219C933.319,1431.219 914.935,1508.923 925.844,1643.735C925.844,1643.735 939.426,1827.195 937.422,1857.92C937.422,1857.92 657.913,1936.58 507.404,1870.455C507.404,1870.455 480.776,1695.834 488.791,1659.765C488.791,1659.765 504.154,1572.265 507.493,1563.582C507.493,1563.582 510.032,1545.08 503.085,1499.661C503.085,1499.661 491.864,1444.088 519.115,1412.562C519.115,1412.562 549.879,1382.486 559.802,1375.234" style="fill:none;stroke:black;stroke-width:4.17px;"/>
            </g>
            <g id="r-hand" serif:id="r hand" transform="matrix(1,0,0,1,-91.835694,-20.246561)">
                <path d="M1017.019,1712.43C1017.019,1712.43 1084.955,1709.515 1094.702,1727.527L1107.122,1686.843L1124.316,1632.641C1124.316,1632.641 1133.021,1599.084 1132.73,1595.451C1132.439,1591.817 1130.942,1567.451 1129.874,1561.466C1128.805,1555.481 1126.24,1519.573 1125.385,1515.939C1124.53,1512.306 1117.049,1471.054 1115.126,1465.711C1113.202,1460.367 1104.866,1419.329 1102.301,1413.986C1099.736,1408.642 1094.82,1386.199 1090.759,1380.428C1086.698,1374.657 1068.958,1347.085 1064.683,1344.52C1060.408,1341.955 1042.069,1327.08 1025.996,1324.611C1009.923,1322.142 939.976,1347.596 972.382,1443.645L989.458,1494.494C989.458,1494.494 1013.932,1568.876 1018.474,1576.143L1018.474,1585.761C1018.474,1585.761 1018.421,1649.669 1018.474,1658.219C1018.527,1666.768 1018.076,1708.718 1017.019,1712.43Z" style="fill:rgb(34,34,34);"/>
                <path d="M972.382,1445.376C972.382,1445.376 1008.069,1551.833 1019.138,1578.169L1017.849,1586.685C1017.849,1586.685 1020.855,1685.873 1016.847,1712.591C1016.847,1712.591 1077.481,1708.528 1093.512,1727.527C1093.512,1727.527 1119.636,1647.671 1122.901,1636.39C1126.166,1625.11 1134.479,1601.955 1132.401,1583.549C1130.322,1565.144 1127.948,1524.177 1121.714,1491.819C1121.714,1491.819 1111.323,1442.616 1099.152,1403.652C1099.152,1403.652 1084.606,1340.048 1027.312,1324.611" style="fill:none;stroke:black;stroke-width:4.17px;"/>
            </g>
        </g>
    </g>
</svg>
