<?xml version="1.0" encoding="UTF-8" standalone="no"?>
<svg width="100%" height="100%" viewBox="0 0 400 570" version="1.1" xmlns="http://www.w3.org/2000/svg" xmlns:xlink="http://www.w3.org/1999/xlink" xml:space="preserve" xmlns:serif="http://www.serif.com/" style="fill-rule:evenodd;clip-rule:evenodd;stroke-linecap:round;stroke-linejoin:round;stroke-miterlimit:1.5;">
    <g transform="matrix(1,0,0,1,-654.777506,-1552.412661)">
        <g>
            <g id="l-hand" serif:id="l hand" transform="matrix(1,0,0,1,81.710925,-16.772633)">
                <path d="M663.175,1636.901C663.175,1636.901 616.283,1640.441 602.687,1695.438C602.687,1695.438 597.771,1732.414 604.611,1751.865C604.611,1751.865 600.336,1770.46 602.901,1790.124C602.901,1790.124 603.328,1814.277 603.115,1819.62C603.115,1819.62 590.931,1886.735 589.649,1893.574C589.649,1893.574 582.596,1949.147 582.168,1955.559C581.741,1961.971 575.15,2020.108 575.15,2020.108C575.15,2020.108 608.031,2024.561 620.641,2040.716L637.74,2001.727C637.74,2001.727 658.687,1951.284 659.542,1947.437C660.397,1943.589 666.595,1912.17 666.595,1909.605C666.595,1907.04 669.374,1880.75 669.374,1880.75L676.427,1838.808L684.122,1772.384L687.3,1749.086C687.3,1749.086 713.404,1632.146 663.175,1636.901Z" style="fill:rgb(34,34,34);"/>
                <path d="M687.3,1749.273C687.3,1749.273 674.386,1855.984 669.806,1876.976C669.806,1876.976 665.226,1930.793 658.737,1949.877C658.737,1949.877 625.531,2032.701 620.951,2040.716C620.951,2040.716 603.776,2021.25 575.15,2019.724C575.15,2019.724 586.6,1899.877 590.417,1890.335C590.417,1890.335 598.051,1854.839 599.959,1843.388C599.959,1843.388 604.921,1816.671 603.776,1809.037C603.776,1809.037 600.722,1763.618 604.539,1752.931C604.539,1752.931 592.325,1701.404 611.791,1672.397C611.791,1672.397 627.058,1641.862 663.318,1636.901" style="fill:none;stroke:black;stroke-width:4.17px;"/>
                <path d="M621.651,1854.394C621.651,1854.394 638.127,1874.432 641.244,1892.689" style="fill:none;stroke:black;stroke-width:4.17px;"/>
            </g>
            <g id="body">
                <path d="M961.611,1709.708C961.611,1709.708 951.459,1772.494 948.253,1785.853C948.253,1785.853 940.237,1819.784 941.039,1829.402C941.039,1829.402 939.703,1843.563 953.329,1870.013C953.329,1870.013 979.245,1929.593 982.718,1940.547C982.718,1940.547 992.871,1980.356 992.871,1992.112C992.871,1992.112 988.863,2042.875 988.329,2052.493L982.184,2108.066L943.978,2114.424C943.978,2114.424 828.927,2123.508 793.927,2118.966C793.927,2118.966 717.2,2112.341 712.124,2108.066C712.124,2108.066 707.528,2066.119 707.261,2054.898C707.261,2054.898 706.727,2017.761 711.269,2003.333C711.269,2003.333 719.551,1951.234 722.49,1943.753C722.49,1943.753 742.464,1881.567 743.025,1874.086C743.025,1874.086 744.172,1854.418 741.881,1849.075C741.881,1849.075 734.513,1820.318 730.773,1815.776C730.773,1815.776 708.864,1787.99 705.124,1769.288C705.124,1769.288 695.7,1742.571 698.809,1732.151C698.809,1732.151 704.322,1703.83 713.941,1694.479C713.941,1694.479 728.902,1677.113 730.238,1673.907L729.971,1662.953C729.971,1662.953 703.468,1644.742 739.296,1621.083L769.651,1602.731L781.844,1582.112L802.24,1559.143L803.793,1571.745L802.349,1591.65L790.727,1647.864L787.52,1687.619C787.52,1687.619 787.948,1716.902 790.513,1722.886L795.429,1716.047L821.933,1673.513C821.933,1673.513 850.787,1633.543 857.2,1624.139C863.612,1614.734 867.235,1601.44 870.938,1596.737C870.938,1596.737 881.865,1572.285 882.506,1569.507L884.453,1555.074L893.511,1561.49L901.059,1581.947L954.665,1612.597C954.665,1612.597 1004.71,1630.517 961.611,1709.708Z" style="fill:rgb(34,34,34);"/>
                <path d="M770.419,1602.502C759.193,1608.634 747.376,1615.347 739.296,1620.626" style="fill:none;stroke:black;stroke-width:4.17px;"/>
                <g transform="matrix(0.981895,0.189427,-0.189427,0.981895,339.329057,-122.111683)">
                    <ellipse cx="809.643" cy="1744.842" rx="7.294" ry="9.924" style="fill:none;stroke:black;stroke-width:4.17px;"/>
                </g>
                <g transform="matrix(0.999199,-0.040008,0.040008,0.999199,-75.009303,128.101578)">
                    <ellipse cx="809.643" cy="1744.842" rx="7.294" ry="9.924" style="fill:none;stroke:black;stroke-width:4.17px;"/>
                </g>
                <path d="M790.26,1859.128C790.186,1870.403 790.245,1891.618 789.927,1898.254C789.191,1913.617 790.432,2055.175 793.927,2116.625M853.647,1629.41C853.647,1629.41 845.496,1640.383 835.043,1655.092C818.398,1678.514 795.913,1711.408 791.195,1724.557C791.195,1724.557 777.168,1750.306 780.841,1792.72C780.841,1792.72 788.614,1826.513 790.26,1859.128" style="fill:none;stroke:black;stroke-width:4.17px;"/>
                <path d="M900.713,1581.334C913.905,1590.125 935.296,1603.63 954.559,1612.42" style="fill:none;stroke:black;stroke-width:4.17px;"/>
                <path d="M713.921,2108.066C713.921,2108.066 824.974,2135.499 982.24,2108.066C982.24,2108.066 994.851,2014.642 993.085,1987.901C993.085,1987.901 990.175,1951.999 971.854,1910.015C971.854,1910.015 943.992,1852.381 942.084,1840.931C942.084,1840.931 939.412,1828.336 942.084,1816.504C944.755,1804.672 961.167,1718.412 961.931,1710.397" style="fill:none;stroke:black;stroke-width:4.17px;"/>
                <path d="M729.68,1659.751C729.68,1659.751 732.945,1669.547 730.867,1674C730.867,1674 689.9,1714.076 700.587,1752.965C700.587,1752.965 705.083,1789.691 732.988,1818.189C732.988,1818.189 738.331,1829.597 742.148,1848.257C745.658,1865.417 737.695,1886.255 734.726,1898.427C731.758,1910.598 717.657,1958.448 715.319,1975.147C712.981,1991.845 706.302,2023.906 707.304,2048.954C708.306,2074.001 708.181,2086.024 712.585,2108.066" style="fill:none;stroke:black;stroke-width:4.17px;"/>
                <path d="M793.927,1731.595C793.927,1731.595 837.438,1673.58 884.385,1644.954L874.016,1620.626L903.85,1620.626C903.85,1620.626 905.759,1562.13 884.003,1554.496L882.476,1569C882.476,1569 872.45,1604.878 834.143,1655.641" style="fill:none;stroke:black;stroke-width:4.17px;"/>
                <path d="M802.349,1585.627C802.349,1585.627 805.597,1569.551 802.349,1558.567C802.349,1558.567 769.118,1588.253 765.259,1618.533L787.299,1622.392L764.071,1643.045C764.071,1643.045 769.786,1693.451 784.48,1724.557" style="fill:none;stroke:black;stroke-width:4.17px;"/>
                <path d="M802.349,1585.627C802.349,1585.627 779.572,1682.11 790.059,1724.557" style="fill:none;stroke:black;stroke-width:4.17px;"/>
            </g>
            <g id="r-hand" serif:id="r hand" transform="matrix(1,0,0,1,-50.76319,8.015241)">
                <path d="M984.315,1698.89L987.822,1708.508C987.822,1708.508 994.502,1762.21 1005.189,1795.34C1005.189,1795.34 1022.983,1858.687 1023.837,1860.825C1024.692,1862.962 1023.624,1868.092 1023.624,1868.092C1023.624,1868.092 1024.906,1901.863 1026.402,1912.763L1028.967,1937.985L1031.318,2003.389C1031.318,2003.389 1055.257,1997.404 1071.501,2002.748L1088.387,2010.576L1090.311,1999.755L1098.433,1924.733L1102.552,1888.183C1102.552,1888.183 1098.646,1847.145 1097.791,1842.229C1096.936,1837.313 1095.013,1799.909 1095.013,1799.909C1095.013,1799.909 1093.944,1752.886 1092.662,1746.474L1084.967,1713.344C1084.967,1713.344 1086.891,1701.375 1085.395,1694.963C1085.395,1694.963 1079.41,1660.978 1076.631,1655.634C1076.631,1655.634 1061.456,1628.062 1057.822,1625.711C1057.822,1625.711 1031.746,1602.658 1005.67,1604.566C1005.67,1604.566 944.259,1611.497 984.315,1698.89Z" style="fill:rgb(34,34,34);"/>
                <path d="M1006.739,1604.566C1006.739,1604.566 1088.513,1603.946 1085.365,1714.108C1085.365,1714.108 1094.429,1739.966 1094.429,1769.356C1094.429,1769.356 1095.574,1821.646 1097.864,1843.02C1097.864,1843.02 1104.353,1880.424 1102.063,1897.218C1102.063,1897.218 1090.231,2005.614 1088.704,2010.576C1088.704,2010.576 1068.094,1993.401 1031.452,2004.469C1031.452,2004.469 1028.781,1921.645 1024.582,1896.073C1024.582,1896.073 1022.674,1868.974 1023.819,1862.103C1023.819,1862.103 992.012,1757.874 987.941,1708.287L984.315,1699.668" style="fill:none;stroke:black;stroke-width:4.17px;"/>
                <path d="M1030.804,1854.394C1030.804,1854.394 1040.422,1834.546 1048.971,1827.6" style="fill:none;stroke:black;stroke-width:4.17px;"/>
            </g>
        </g>
    </g>
</svg>
