<?xml version="1.0" encoding="UTF-8" standalone="no"?>
<svg width="100%" height="100%" viewBox="0 0 420 496" version="1.1" xmlns="http://www.w3.org/2000/svg" xmlns:xlink="http://www.w3.org/1999/xlink" xml:space="preserve" xmlns:serif="http://www.serif.com/" style="fill-rule:evenodd;clip-rule:evenodd;stroke-linecap:round;stroke-linejoin:round;stroke-miterlimit:1.5;">
    <g transform="matrix(1,0,0,1,-522.257525,-1222.734658)">
        <g>
            <g id="l-hand" serif:id="l hand" transform="matrix(1,0,0,1,56.714773,-7.163461)">
                <path d="M557.097,1314.801C557.097,1314.801 528.509,1323.822 514.883,1355.615C514.883,1355.615 502.775,1382.272 504.955,1410.552C504.955,1410.552 500.99,1455.129 500.723,1467.419C500.456,1479.709 497.528,1522.19 496.855,1525.663C496.855,1525.663 488.621,1549.95 484.169,1578.034C481.585,1594.336 474.735,1637.806 468.391,1669.991C467.512,1674.451 472.476,1678.807 471.974,1682.793C470.77,1692.36 468.408,1694.794 467.775,1700.593C467.507,1703.052 477.026,1703.329 489.841,1706.369C501.766,1709.198 512.426,1719.747 514.234,1723.049L521.753,1700.657L532.964,1693.965L543.397,1649.108C543.397,1649.108 549.957,1616.661 553.104,1598.92C558.549,1568.222 571.791,1464.747 571.791,1464.747L577.484,1420.931C577.484,1420.931 609.463,1313.672 557.097,1314.801Z" style="fill:rgb(221,221,221);"/>
                <path d="M560.786,1546.79C560.786,1546.79 576.816,1429.233 577.484,1421.218M557.542,1314.801C557.542,1314.801 502.198,1331.595 504.488,1412.893C504.488,1412.893 498.763,1515.182 496.855,1526.633" style="fill:none;stroke:black;stroke-width:4.17px;"/>
                <g transform="matrix(1,0,0,1,-0.487269,-0.864276)">
                    <path d="M514.721,1530.657C514.721,1530.657 531.197,1546.806 534.759,1558.028" style="fill:none;stroke:black;stroke-width:4.17px;"/>
                </g>
                <g transform="matrix(1,0,0,1,-0.487269,-0.864276)">
                    <path d="M497.342,1527.497L490.824,1544.906C490.824,1544.906 486.371,1566.28 484.293,1584.686C482.994,1596.187 477.321,1632.286 468.28,1669.229C467.08,1674.133 472.786,1678.963 472.174,1683.246C470.499,1694.977 469.078,1703.364 468.262,1704.914C468.262,1704.914 500.026,1702.539 513.979,1723.913C513.979,1723.913 517.286,1714.539 521.877,1701.375C522.986,1698.194 532.857,1697.278 533.78,1693.642C541.599,1662.841 548.577,1623.925 549.305,1618.825C550.493,1610.512 557.914,1588.104 561.18,1547.654" style="fill:none;stroke:black;stroke-width:4.17px;"/>
                </g>
                <g transform="matrix(1,0,0,1,-1.899554,1.361954)">
                    <path d="M522.732,1700.747C522.732,1700.747 512.751,1675.984 473.411,1682.239" style="fill:none;stroke:black;stroke-width:2.08px;"/>
                </g>
            </g>
            <g id="body">
                <path d="M653.171,1289.609L617.038,1308.208C617.038,1308.208 587.955,1323.835 609.842,1353.97C609.842,1353.97 613.855,1367.326 612.396,1370.974L604.006,1382.464C604.006,1382.464 583.557,1414.747 584.115,1431.345C584.672,1447.943 585.219,1445.936 587.408,1451.955C587.408,1451.955 594.521,1474.025 596.528,1480.044C598.534,1486.062 606.194,1514.88 607.654,1522.723C609.113,1530.566 613.308,1552.088 612.76,1555.371C612.76,1555.371 599.811,1583.642 599.993,1588.019C600.175,1592.397 601.27,1600.422 603.641,1603.522L603.823,1607.17L598.534,1632.158C598.534,1632.158 622.855,1651.856 653.374,1654.045C653.374,1654.045 700.491,1661.705 722.742,1657.145C722.742,1657.145 763.598,1652.95 781.472,1643.831C781.472,1643.831 818.315,1626.321 821.963,1623.585L836.372,1613.554L829.624,1590.573C829.624,1590.573 834.913,1574.522 834.001,1571.057C834.001,1571.057 829.624,1558.654 828.165,1555.736C826.705,1552.818 821.416,1536.038 821.416,1532.39C821.416,1528.742 822.146,1501.201 823.605,1497.006C825.064,1492.811 829.077,1474.207 829.806,1470.377C830.536,1466.547 838.926,1434.081 839.473,1430.433C840.02,1426.785 846.768,1399.974 846.768,1399.974C846.768,1399.974 887.855,1347.428 852.058,1310.967C852.058,1310.967 801.216,1284.834 798.993,1283.466L804.807,1277.823L806.004,1270.128C806.004,1270.128 810.621,1248.583 812.16,1245.164C813.699,1241.744 813.186,1240.157 813.186,1240.157L810.108,1233.536L803.097,1229.432C803.097,1229.432 775.909,1221.567 760.52,1224.816C760.52,1224.816 760.862,1255.936 762.23,1259.356L762.23,1261.75C762.23,1261.75 756.416,1272.864 747.867,1276.797L698.279,1297.945C698.279,1297.945 688.533,1292.846 686.481,1289.609C684.429,1286.373 683.403,1287.569 682.548,1283.979C681.693,1280.388 679.983,1276.626 679.983,1274.232C679.983,1271.838 680.154,1269.957 680.838,1266.879C681.522,1263.802 681.351,1259.014 681.351,1259.014L680.838,1249.267L679.47,1243.173C679.47,1243.173 663.91,1246.189 660.49,1249.609C660.49,1249.609 643.904,1259.362 650.743,1272.269L653.374,1282.098L653.171,1289.609Z" style="fill:rgb(221,221,221);"/>
                <clipPath id="_clip1">
                    <path d="M653.171,1289.609L617.038,1308.208C617.038,1308.208 587.955,1323.835 609.842,1353.97C609.842,1353.97 613.855,1367.326 612.396,1370.974L604.006,1382.464C604.006,1382.464 583.557,1414.747 584.115,1431.345C584.672,1447.943 585.219,1445.936 587.408,1451.955C587.408,1451.955 594.521,1474.025 596.528,1480.044C598.534,1486.062 606.194,1514.88 607.654,1522.723C609.113,1530.566 613.308,1552.088 612.76,1555.371C612.76,1555.371 599.811,1583.642 599.993,1588.019C600.175,1592.397 601.27,1600.422 603.641,1603.522L603.823,1607.17L598.534,1632.158C598.534,1632.158 622.855,1651.856 653.374,1654.045C653.374,1654.045 700.491,1661.705 722.742,1657.145C722.742,1657.145 763.598,1652.95 781.472,1643.831C781.472,1643.831 818.315,1626.321 821.963,1623.585L836.372,1613.554L829.624,1590.573C829.624,1590.573 834.913,1574.522 834.001,1571.057C834.001,1571.057 829.624,1558.654 828.165,1555.736C826.705,1552.818 821.416,1536.038 821.416,1532.39C821.416,1528.742 822.146,1501.201 823.605,1497.006C825.064,1492.811 829.077,1474.207 829.806,1470.377C830.536,1466.547 838.926,1434.081 839.473,1430.433C840.02,1426.785 846.768,1399.974 846.768,1399.974C846.768,1399.974 887.855,1347.428 852.058,1310.967C852.058,1310.967 801.216,1284.834 798.993,1283.466L804.807,1277.823L806.004,1270.128C806.004,1270.128 810.621,1248.583 812.16,1245.164C813.699,1241.744 813.186,1240.157 813.186,1240.157L810.108,1233.536L803.097,1229.432C803.097,1229.432 775.909,1221.567 760.52,1224.816C760.52,1224.816 760.862,1255.936 762.23,1259.356L762.23,1261.75C762.23,1261.75 756.416,1272.864 747.867,1276.797L698.279,1297.945C698.279,1297.945 688.533,1292.846 686.481,1289.609C684.429,1286.373 683.403,1287.569 682.548,1283.979C681.693,1280.388 679.983,1276.626 679.983,1274.232C679.983,1271.838 680.154,1269.957 680.838,1266.879C681.522,1263.802 681.351,1259.014 681.351,1259.014L680.838,1249.267L679.47,1243.173C679.47,1243.173 663.91,1246.189 660.49,1249.609C660.49,1249.609 643.904,1259.362 650.743,1272.269L653.374,1282.098L653.171,1289.609Z"/>
                </clipPath>
                <g clip-path="url(#_clip1)">
                    <g transform="matrix(0.036521,0,-0.001829,0.036521,702.588585,1441.311595)">
                        <g transform="matrix(1,0,0,1,-3643.75,-5168.75)">
                            <g id="_5a7f5f47abc3d121aba71181.png" serif:id="5a7f5f47abc3d121aba71181.png" transform="matrix(9.809338,0,0,9.809338,1487.916371,3540.618292)">
                                <path d="M68.5,2.034L374.5,2.034C380.228,1.997 377.965,4.825 377.966,10.5C377.971,125.615 377.931,125.602 378.034,129.495C378.115,132.53 376.364,131.966 345.5,131.966C7.396,131.966 7.4,131.958 4.505,132.034C2.224,132.095 2.044,130.955 2.035,129.512C1.968,119.35 1.206,3.811 2.483,2.483C2.979,1.967 3.134,2.034 68.5,2.034Z" style="fill:rgb(227,36,31);"/>
                                <path d="M131.908,46.381C133.181,46.559 133.23,46.931 134.237,46.096C142.771,39.013 156.65,41.486 161.526,50.484C175.436,76.149 142.517,105.234 127.284,89.739C123.632,86.025 125.05,91.603 121.092,115.436C120.525,118.854 117.019,118.398 108.534,118.196C105.957,118.134 107.621,112.401 107.761,111.541C118.48,45.713 117.115,43.654 120.503,43.541C130.398,43.21 131.81,42.973 131.908,46.381Z" style="fill:rgb(254,254,254);"/>
                                <path d="M303.935,61.531C303.934,60.823 303.926,54.362 300.541,53.363C286.181,49.127 288.392,89.962 284.333,92.047C283.837,92.301 272.861,92.251 272.605,92.132C268.421,90.19 281.877,56.107 272.538,53.37C259.576,49.57 259.998,82.28 257.572,90.52C256.756,93.293 243.399,93.064 243.666,90.502C243.715,90.035 250.879,45.057 250.992,44.692C251.593,42.738 263.815,43.515 264.262,43.842C264.904,44.312 264.047,48.491 266.707,45.911C270.1,42.62 277.748,40.606 283.649,43.139C288.949,45.414 288.559,50.733 292.806,46.858C298.682,41.496 310.238,39.854 315.44,45.555C317.864,48.212 320.64,51.255 313.431,90.482C312.985,92.906 306.42,92.26 301.516,92.215C297.789,92.18 300.305,89.827 303.935,61.531Z" style="fill:rgb(254,254,254);"/>
                                <path d="M31.534,94.12C24.437,92.448 23.744,93.497 18.721,88.276C10.687,79.927 14.616,78.172 14.886,77.95C19.728,73.96 23.153,69.353 24.833,73.35C29.157,83.637 39.907,82.6 44.084,77.155C54.882,63.076 34.131,57.494 33.627,57.244C31.505,56.191 14.844,47.923 25.818,28.684C39.127,5.351 70.443,19.701 66.017,25.15C60.919,31.428 59.199,34.206 57.147,31.837C51.166,24.932 42.528,28.407 39.923,31.856C32.396,41.822 48.092,46.359 51.301,47.896C70.258,56.982 61.991,76.538 55.01,85.06C47.775,93.892 33.547,94.092 31.534,94.12Z" style="fill:rgb(254,254,254);"/>
                                <path d="M319.92,72.513C320.168,70.685 321.868,58.142 327.954,50.895C331.622,46.526 337.314,43.723 340.612,42.917C366.657,36.557 369.802,60.597 367,68.69C365.695,72.46 335.593,67.786 334.678,71.55C332.429,80.805 342.682,87.783 350.436,79.439C353.217,76.447 353.736,76.32 363.572,78.326C366.432,78.909 360.859,84.983 360.438,85.441C352.064,94.567 321.689,103.426 319.92,72.513Z" style="fill:rgb(254,254,254);"/>
                                <path d="M215.5,70.122C214.815,70.238 214.102,70.09 213.417,70.206C210.818,70.648 210.769,82.986 219.509,83.134C225.758,83.239 229.223,77.863 229.555,77.56C230.97,76.267 243.183,77.261 241.642,80.565C234.059,96.83 197.48,101.595 197.311,73.501C197.072,33.796 252.797,31.215 244.44,68.482C243.982,70.526 243.114,70.122 215.5,70.122Z" style="fill:rgb(254,254,254);"/>
                                <path d="M79.084,74.5C80.325,87.292 92.578,83.241 94.823,72.576C97.799,58.434 97.797,43.633 101.503,43.542C106.551,43.417 113.528,42.841 113.173,45.479C108.891,77.371 106.773,80.66 105.1,83.258C95.049,98.868 61.59,99.663 64.941,73.552C65.245,71.179 68.522,45.642 70.152,44.11C70.784,43.515 83.598,42.102 83.337,45.491C83.017,49.651 79.894,63.977 79.084,74.5Z" style="fill:rgb(254,254,254);"/>
                                <path d="M165.894,78.56C170.717,48.561 171.05,44.652 171.903,43.986C172.258,43.709 185.648,41.921 185.003,45.608C184.052,51.043 189.498,41.679 197.511,41.95C206.416,42.252 202.117,48.154 201.71,49.562C200.558,53.543 200.444,55.85 197.4,54.808C181.133,49.239 180.124,77.564 178.131,89.442C177.57,92.785 174.602,92.44 165.534,92.211C163.063,92.149 164.829,85.167 165.894,78.56Z" style="fill:rgb(254,254,254);"/>
                                <path d="M127.087,69.483C130.477,49.759 145.369,53.163 148.499,58.5C158.395,75.371 128.239,94.607 127.087,69.483Z" style="fill:rgb(227,36,31);"/>
                                <path d="M217.342,55.359C225.06,47.705 231.811,53.354 232.381,59.506C232.506,60.858 232.127,62.303 215.516,61.444C212.97,61.312 217.041,55.769 217.342,55.359Z" style="fill:rgb(227,34,29);"/>
                                <path d="M338.382,57.427C346.774,45.716 355.013,54.425 354.939,59.5C354.92,60.824 354.542,61.939 338.501,61.491C335.7,61.412 337.402,60.017 338.382,57.427Z" style="fill:rgb(227,34,29);"/>
                            </g>
                        </g>
                    </g>
                </g>
                <path d="M609.585,1353.97C609.585,1353.97 614.261,1366.327 611.589,1372.005C611.589,1372.005 575.139,1414.156 586.207,1448.817C597.276,1483.478 596.767,1480.467 601.517,1495.31C606.267,1510.153 612.204,1547.855 612.501,1556.464C612.501,1556.464 601.517,1581.4 600.032,1587.634C600.032,1587.634 591.72,1617.023 653.171,1627.117" style="fill:none;stroke:black;stroke-width:4.17px;"/>
                <path d="M604.285,1604.653C604.285,1604.653 598.548,1628.601 598.251,1633.054C598.251,1633.054 653.356,1674.002 760.04,1651.459C760.04,1651.459 804.532,1638.768 837.484,1613.238C837.484,1613.238 829.469,1592.161 829.766,1589.786" style="fill:none;stroke:black;stroke-width:4.17px;"/>
                <path d="M723.489,1627.117C723.489,1627.117 768.728,1624.519 829.766,1589.786C829.766,1589.786 834.4,1578.802 833.806,1571.084C833.806,1571.084 822.228,1542.289 821.338,1532.789C820.447,1523.29 821.486,1503.159 827.164,1480.783C827.164,1480.783 845.198,1409.314 846.868,1400.63" style="fill:none;stroke:black;stroke-width:4.17px;"/>
                <path d="M653.171,1490.543C653.171,1490.543 692.732,1485.848 717.868,1501.433" style="fill:none;stroke:black;stroke-width:4.17px;"/>
                <path d="M798.108,1283.519C798.108,1283.519 843.862,1306.563 851.543,1310.57" style="fill:none;stroke:black;stroke-width:4.17px;"/>
                <path d="M760.815,1224.982C760.815,1224.982 822.265,1221.419 811.875,1247.543C811.875,1247.543 804.454,1271.589 804.751,1277.229C804.751,1277.229 806.94,1290.421 713.021,1302.165" style="fill:none;stroke:black;stroke-width:4.17px;"/>
                <path d="M698.14,1297.045C698.14,1297.045 838.774,1246.696 794.136,1236.099" style="fill:none;stroke:black;stroke-width:4.17px;"/>
                <path d="M744.606,1278.721C744.606,1278.721 763.906,1265.384 763.04,1258.705C763.04,1258.705 760.036,1267.939 760.036,1224.818" style="fill:none;stroke:black;stroke-width:4.17px;"/>
                <path d="M680.893,1247.957C680.893,1247.957 682.229,1259.271 680.893,1266.572C680.893,1266.572 673.442,1287.888 698.14,1297.045" style="fill:none;stroke:black;stroke-width:4.17px;"/>
                <path d="M683.477,1286.356C683.477,1286.356 647.175,1264.008 670.473,1251.908" style="fill:none;stroke:black;stroke-width:4.17px;"/>
                <path d="M688.989,1301.365C688.989,1301.365 664.488,1301.578 653.374,1289.609C653.374,1289.609 654.015,1280.186 650.168,1272.501C650.168,1272.501 643.686,1261.38 657.935,1251.769C657.935,1251.769 672.958,1242.373 679.838,1243.228L679.838,1247.957" style="fill:none;stroke:black;stroke-width:4.17px;"/>
                <path d="M653.374,1289.609C653.374,1289.609 624.305,1302.647 617.038,1306.281" style="fill:none;stroke:black;stroke-width:4.17px;"/>
            </g>
            <g id="r-hand" serif:id="r hand" transform="matrix(1,0,0,1,-56.595956,-15.553394)">
                <path d="M885.495,1423.885C885.495,1423.885 894.332,1465.989 907.989,1525.101C910.964,1537.981 914.649,1551.314 916.68,1564.871C918.62,1577.817 918.772,1592.515 919.265,1605.285C920.399,1634.634 919.181,1655.386 919.611,1675.516C919.669,1678.202 926.217,1692.225 926.259,1694.664C926.551,1711.29 927.523,1717.145 927.046,1718.691L950.685,1718.942C950.685,1718.942 956.412,1721.466 985.522,1728.947C985.522,1728.947 987.178,1721.419 988.995,1707.895C989.659,1702.951 995.203,1703.363 995.68,1698.53C996.146,1693.814 996.041,1673.364 996.114,1669.718C996.356,1657.548 994.628,1636.739 996.336,1611.149C996.947,1602 996.642,1593.233 996.336,1585.296C994.953,1549.328 989.679,1519.777 989.679,1519.777L980.702,1454.159L968.092,1394.953C968.092,1394.953 959.542,1360.327 952.275,1354.129C952.275,1354.129 925.771,1321.224 898.626,1323.356C898.626,1323.356 845.632,1314.474 885.495,1423.885Z" style="fill:rgb(221,221,221);"/>
                <path d="M993.272,1549.035C993.272,1549.035 985.59,1474.643 975.571,1429.224C975.571,1429.224 965.886,1369.443 948.854,1350.741C948.854,1350.741 928.816,1323.69 899.093,1323.356M885.495,1424.779C885.495,1424.779 912.324,1538.479 917.222,1567.069" style="fill:none;stroke:black;stroke-width:4.17px;"/>
                <g transform="matrix(1,0,0,1,0.925382,0.623644)">
                    <path d="M928.594,1564.93C928.594,1564.93 941.418,1542.22 949.968,1532.601" style="fill:none;stroke:black;stroke-width:4.17px;"/>
                </g>
                <g transform="matrix(1,0,0,1,0.925382,0.623644)">
                    <path d="M916.631,1566.445L916.86,1584.274C916.86,1584.274 919.537,1620.995 918.447,1674.137C918.343,1679.21 924.976,1688.757 925.192,1693.157C925.818,1705.886 925.953,1715.213 925.209,1717.527C925.209,1717.527 978.347,1721.182 985.175,1731.275C985.175,1731.275 986.418,1720.082 987.869,1706.684C988.297,1702.736 994.383,1701.566 994.82,1697.465C996.401,1682.64 994.905,1667.912 995.018,1664.964C995.269,1658.433 996.159,1589.376 995.269,1584.033C994.378,1578.689 993.283,1549.894 992.346,1546.034" style="fill:none;stroke:black;stroke-width:4.17px;"/>
                </g>
                <g transform="matrix(1,0,0,1,118.036955,7.525657)">
                    <path d="M808.84,1687.565C808.84,1687.565 851.743,1679.541 870.876,1698.691" style="fill:none;stroke:black;stroke-width:2.08px;"/>
                </g>
            </g>
        </g>
    </g>
</svg>
