<?xml version="1.0" encoding="UTF-8" standalone="no"?>
<svg width="100%" height="100%" viewBox="0 0 419 498" version="1.1" xmlns="http://www.w3.org/2000/svg" xmlns:xlink="http://www.w3.org/1999/xlink" xml:space="preserve" xmlns:serif="http://www.serif.com/" style="fill-rule:evenodd;clip-rule:evenodd;stroke-linecap:round;stroke-linejoin:round;stroke-miterlimit:1.5;">
    <g transform="matrix(1,0,0,1,-526.551719,-1222.734658)">
        <g>
            <g id="l-hand" serif:id="l hand" transform="matrix(1,0,0,1,56.714773,-7.163461)">
                <path d="M557.542,1316.298C557.542,1316.298 522.353,1325.702 508.728,1357.496C508.728,1357.496 497.303,1382.614 500.851,1416.537C500.851,1416.537 499.109,1456.155 498.842,1468.445C498.575,1480.735 497.528,1522.19 496.855,1525.663C496.855,1525.663 488.621,1549.95 484.169,1578.034C481.585,1594.336 478.264,1623.442 471.92,1655.628C471.041,1660.087 477.537,1670.237 477.036,1674.222C475.832,1683.789 474.153,1695.752 473.52,1701.551C473.252,1704.009 487.012,1701.414 499.827,1704.454C511.752,1707.283 521.044,1716.327 522.852,1719.629L533.654,1693.08L539.804,1684.746L553.428,1646.372C553.428,1646.372 560.901,1614.655 564.048,1596.914C569.492,1566.216 581.823,1464.93 581.823,1464.93L584.698,1424.521C584.698,1424.521 609.908,1315.168 557.542,1316.298Z" style="fill:rgb(44,93,179);"/>
                <path d="M568.801,1556.141C568.801,1556.141 584.297,1461.294 584.698,1436.714M557.542,1314.801C557.542,1314.801 493.114,1332.397 500.748,1414.763C500.748,1414.763 498.763,1515.182 496.855,1526.633" style="fill:none;stroke:black;stroke-width:4.17px;"/>
                <g transform="matrix(1,0,0,1,-0.487269,-0.864276)">
                    <path d="M514.721,1530.657C514.721,1530.657 531.197,1546.806 534.759,1558.028" style="fill:none;stroke:black;stroke-width:4.17px;"/>
                </g>
                <g transform="matrix(1,0,0,1,-0.487269,-0.864276)">
                    <path d="M497.342,1527.497L492.159,1546.509C492.159,1546.509 486.905,1566.547 484.827,1584.953C483.529,1596.454 479.564,1617.741 472.555,1655.122C471.354,1661.522 477.915,1670.749 477.304,1675.032C475.629,1686.763 474.635,1701.423 473.819,1702.973C473.819,1702.973 508.148,1699.12 522.101,1720.493C522.101,1720.493 527.635,1709.837 532.226,1696.672C533.336,1693.492 539.032,1688.584 540.406,1685.092C551.431,1657.071 554.722,1643.161 555.45,1638.061C556.52,1630.574 563.448,1614.591 567.041,1581.35C567.437,1577.685 568.964,1561.022 569.288,1557.006" style="fill:none;stroke:black;stroke-width:4.17px;"/>
                </g>
                <g transform="matrix(1,0,0,1,-1.899554,1.361954)">
                    <path d="M532.945,1693.907C538.581,1690.413 526.367,1669.743 480.892,1673.262" style="fill:none;stroke:black;stroke-width:2.08px;"/>
                </g>
            </g>
            <g id="body">
                <path d="M653.171,1289.609L617.038,1308.208C617.038,1308.208 583.68,1323.322 605.567,1353.457C605.567,1353.457 608.041,1359.289 606.582,1362.937L595.798,1379.386C595.798,1379.386 581.164,1406.711 578.814,1423.479C576.51,1439.926 576.499,1440.123 578.688,1446.142C578.688,1446.142 587.169,1473.17 589.175,1479.189C591.181,1485.208 601.92,1513.512 603.379,1521.355C604.838,1529.198 613.308,1552.088 612.76,1555.371C612.76,1555.371 599.811,1583.642 599.993,1588.019C600.175,1592.397 601.27,1600.422 603.641,1603.522L607.072,1609.051L600.541,1635.749C600.541,1635.749 620.29,1652.54 651.493,1658.32C651.493,1658.32 695.019,1668.099 720.007,1665.933C720.007,1665.933 762.23,1663.21 782.84,1656.655C782.84,1656.655 821.906,1646.156 825.554,1643.421L853.896,1628.772L847.15,1600.855C847.15,1600.855 850.997,1585.85 850.085,1582.385C850.085,1582.385 839.883,1562.929 838.424,1560.011C836.965,1557.092 825.477,1531.977 825.477,1528.329C825.477,1524.681 822.146,1501.201 823.605,1497.006C825.064,1492.811 829.077,1474.207 829.806,1470.377C830.536,1466.547 838.926,1434.081 839.473,1430.433C840.02,1426.785 846.768,1399.974 846.768,1399.974C846.768,1399.974 887.855,1347.428 852.058,1310.967C852.058,1310.967 801.216,1284.834 798.993,1283.466L804.807,1277.823L806.004,1270.128C806.004,1270.128 810.621,1248.583 812.16,1245.164C813.699,1241.744 813.186,1240.157 813.186,1240.157L810.108,1233.536L803.097,1229.432C803.097,1229.432 775.909,1221.567 760.52,1224.816C760.52,1224.816 760.862,1255.936 762.23,1259.356L762.23,1261.75C762.23,1261.75 756.416,1272.864 747.867,1276.797L698.279,1297.945C698.279,1297.945 688.533,1292.846 686.481,1289.609C684.429,1286.373 683.403,1287.569 682.548,1283.979C681.693,1280.388 679.983,1276.626 679.983,1274.232C679.983,1271.838 680.154,1269.957 680.838,1266.879C681.522,1263.802 681.351,1259.014 681.351,1259.014L680.838,1249.267L679.47,1243.173C679.47,1243.173 663.91,1246.189 660.49,1249.609C660.49,1249.609 643.904,1259.362 650.743,1272.269L653.374,1282.098L653.171,1289.609Z" style="fill:rgb(44,93,179);"/>
                <path d="M606.15,1344.81C606.15,1344.81 605.482,1346.48 605.864,1362.844C605.864,1362.844 568.268,1415.683 579.337,1450.344C590.406,1485.005 592.187,1486.193 596.937,1501.036C601.686,1515.879 612.204,1547.855 612.501,1556.464C612.501,1556.464 601.517,1581.4 600.032,1587.634C600.032,1587.634 591.72,1617.023 653.171,1627.117" style="fill:none;stroke:black;stroke-width:4.17px;"/>
                <path d="M606.575,1609.997C606.575,1609.997 600.838,1630.509 600.541,1634.962C600.541,1634.962 656.791,1682.399 763.476,1659.856C763.476,1659.856 820.945,1653.654 853.896,1628.124C853.896,1628.124 845.499,1603.23 845.796,1600.855" style="fill:none;stroke:black;stroke-width:4.17px;"/>
                <path d="M722.344,1633.394C722.344,1633.394 785.522,1635.588 846.559,1600.855C846.559,1600.855 851.193,1595.596 849.836,1581.389C849.836,1581.389 825.159,1533.902 824.391,1524.392C823.501,1513.366 821.486,1503.159 827.164,1480.783C827.164,1480.783 845.198,1409.314 846.868,1400.63" style="fill:none;stroke:black;stroke-width:4.17px;"/>
                <path d="M653.171,1490.543C653.171,1490.543 692.732,1485.848 717.868,1501.433" style="fill:none;stroke:black;stroke-width:4.17px;"/>
                <path d="M798.108,1283.519C798.108,1283.519 843.862,1306.563 851.543,1310.57" style="fill:none;stroke:black;stroke-width:4.17px;"/>
                <path d="M760.815,1224.982C760.815,1224.982 822.265,1221.419 811.875,1247.543C811.875,1247.543 804.454,1271.589 804.751,1277.229C804.751,1277.229 806.94,1290.421 713.021,1302.165" style="fill:none;stroke:black;stroke-width:4.17px;"/>
                <path d="M698.14,1297.045C698.14,1297.045 838.774,1246.696 794.136,1236.099" style="fill:none;stroke:black;stroke-width:4.17px;"/>
                <path d="M744.606,1278.721C744.606,1278.721 763.906,1265.384 763.04,1258.705C763.04,1258.705 760.036,1267.939 760.036,1224.818" style="fill:none;stroke:black;stroke-width:4.17px;"/>
                <path d="M680.893,1247.957C680.893,1247.957 682.229,1259.271 680.893,1266.572C680.893,1266.572 673.442,1287.888 698.14,1297.045" style="fill:none;stroke:black;stroke-width:4.17px;"/>
                <path d="M683.477,1286.356C683.477,1286.356 647.175,1264.008 670.473,1251.908" style="fill:none;stroke:black;stroke-width:4.17px;"/>
                <path d="M688.989,1301.365C688.989,1301.365 664.488,1301.578 653.374,1289.609C653.374,1289.609 654.015,1280.186 650.168,1272.501C650.168,1272.501 643.686,1261.38 657.935,1251.769C657.935,1251.769 672.958,1242.373 679.838,1243.228L679.838,1247.957" style="fill:none;stroke:black;stroke-width:4.17px;"/>
                <path d="M653.374,1289.609C653.374,1289.609 624.305,1302.647 617.038,1306.281" style="fill:none;stroke:black;stroke-width:4.17px;"/>
            </g>
            <g id="r-hand" serif:id="r hand" transform="matrix(1,0,0,1,-53.256273,-16.902077)">
                <path d="M879.818,1433.392C880,1445.248 884.848,1469.636 901.787,1526.925C905.536,1539.602 913.521,1552.51 915.552,1566.067C917.492,1579.013 916.765,1592.333 917.259,1605.102C918.393,1634.452 917.54,1668.108 917.97,1688.237C918.027,1690.923 925.259,1698.791 925.302,1701.23C925.594,1717.856 925.198,1723.163 924.721,1724.71L950.548,1725.782C950.548,1725.782 959.832,1725.57 979.503,1733.05C979.503,1733.05 983.035,1724.976 984.852,1711.451C985.515,1706.508 995.203,1703.363 995.68,1698.53C996.146,1693.814 996.041,1673.364 996.114,1669.718C996.356,1657.548 994.628,1636.739 996.336,1611.149C996.947,1602 997.169,1593.195 996.336,1585.296C992.582,1549.693 989.932,1549.142 989.932,1549.142L987.939,1498.579L981.979,1450.694L974.718,1395.808C974.718,1395.808 959.542,1360.327 952.275,1354.129C952.275,1354.129 922.138,1325.926 894.993,1328.058C894.993,1328.058 839.954,1323.981 879.818,1433.392Z" style="fill:rgb(44,93,179);"/>
                <path d="M979.465,1435.124C979.465,1435.124 984.254,1342.058 898.425,1326.028M989.932,1546.658C989.932,1546.658 988.225,1483.067 978.837,1431.599M879.818,1434.798C879.818,1434.798 885.116,1464.997 892.599,1497.744C899.798,1529.252 913.151,1552.048 915.552,1566.067" style="fill:none;stroke:black;stroke-width:4.17px;"/>
                <g transform="matrix(1,0,0,1,0.925382,0.623644)">
                    <path d="M928.594,1564.93C928.594,1564.93 941.418,1542.22 949.968,1532.601" style="fill:none;stroke:black;stroke-width:4.17px;"/>
                </g>
                <g transform="matrix(1,0,0,1,0.925382,0.623644)">
                    <path d="M914.627,1565.443L915.19,1587.947C915.19,1587.947 919.312,1630.376 916.737,1685.893C916.502,1690.961 923.694,1694.742 923.91,1699.142C924.535,1711.87 924.029,1722.053 923.286,1724.367C923.286,1724.367 971.508,1724.175 978.336,1734.268C978.336,1734.268 982.998,1723.716 984.449,1710.318C984.877,1706.37 994.383,1701.566 994.82,1697.465C996.401,1682.64 994.905,1667.912 995.018,1664.964C995.269,1658.433 996.159,1589.376 995.269,1584.033C994.378,1578.689 989.943,1550.561 989.007,1546.702" style="fill:none;stroke:black;stroke-width:4.17px;"/>
                </g>
                <g transform="matrix(1,0,0,1,118.036955,7.525657)">
                    <path d="M808.626,1691.626C808.626,1691.626 847.682,1682.533 866.815,1701.683" style="fill:none;stroke:black;stroke-width:2.08px;"/>
                </g>
            </g>
        </g>
    </g>
</svg>
