<?xml version="1.0" encoding="UTF-8" standalone="no"?>
<svg width="100%" height="100%" viewBox="0 0 413 462" version="1.1" xmlns="http://www.w3.org/2000/svg" xmlns:xlink="http://www.w3.org/1999/xlink" xml:space="preserve" xmlns:serif="http://www.serif.com/" style="fill-rule:evenodd;clip-rule:evenodd;stroke-linecap:round;stroke-linejoin:round;stroke-miterlimit:1.5;">
    <g transform="matrix(1,0,0,1,-467.591152,-1264.883602)">
        <g transform="matrix(1,0,0,1,-52.321714,-2.226456)">
            <g id="l-hand" serif:id="l hand" transform="matrix(1,0,0,1,54.221268,0.864502)">
                <path d="M557.097,1314.801C557.097,1314.801 528.509,1323.822 514.883,1355.615C514.883,1355.615 502.775,1382.272 504.955,1410.552C504.955,1410.552 500.99,1455.129 500.723,1467.419C500.456,1479.709 497.528,1522.19 496.855,1525.663C496.855,1525.663 488.621,1549.95 484.169,1578.034C480.359,1602.071 470.561,1675.066 467.775,1700.593C467.507,1703.052 477.026,1703.329 489.841,1706.369C501.766,1709.198 512.426,1719.747 514.234,1723.049L539.122,1648.937C539.122,1648.937 549.957,1616.661 553.104,1598.92C558.549,1568.222 571.791,1464.747 571.791,1464.747L577.484,1420.931C577.484,1420.931 609.463,1313.672 557.097,1314.801Z" style="fill:rgb(29,29,29);"/>
                <path d="M560.786,1546.79C560.786,1546.79 576.816,1429.233 577.484,1421.218M557.542,1314.801C557.542,1314.801 502.198,1331.595 504.488,1412.893C504.488,1412.893 498.763,1515.182 496.855,1526.633" style="fill:none;stroke:black;stroke-width:4.17px;"/>
                <g transform="matrix(1,0,0,1,-0.487269,-0.864276)">
                    <path d="M514.721,1530.657C514.721,1530.657 531.197,1546.806 534.759,1558.028" style="fill:none;stroke:black;stroke-width:4.17px;"/>
                </g>
                <g transform="matrix(1,0,0,1,-0.487269,-0.864276)">
                    <path d="M497.342,1527.497L490.824,1544.906C490.824,1544.906 486.371,1566.28 484.293,1584.686C482.215,1603.091 471.231,1699.274 468.262,1704.914C468.262,1704.914 500.026,1702.539 513.979,1723.913C513.979,1723.913 548.118,1627.137 549.305,1618.825C550.493,1610.512 557.914,1588.104 561.18,1547.654" style="fill:none;stroke:black;stroke-width:4.17px;"/>
                </g>
                <g transform="matrix(1,0,0,1,-1.899554,1.361954)">
                    <path d="M522.732,1700.747C522.732,1700.747 512.751,1675.984 473.411,1682.239" style="fill:none;stroke:black;stroke-width:2.08px;"/>
                </g>
            </g>
            <g id="body">
                <g>
                    <g transform="matrix(1,0,0,1,52.321714,2.226456)">
                        <path d="M618.484,1295.218L620.707,1283.078C620.707,1283.078 620.577,1281.052 603.82,1292.051L589.074,1298.07L556.743,1315.827C556.743,1315.827 530.167,1330.934 551.755,1363.636C551.755,1363.636 556.34,1374.965 553.513,1378.171L543.633,1389.926C543.633,1389.926 522.398,1421.774 526.496,1437.163C526.496,1437.163 527.389,1458.323 532.091,1482.689C532.091,1482.689 533.897,1513.07 532.78,1517.559C532.78,1517.559 533.684,1538.262 533.422,1551.086C533.25,1559.495 534.656,1586.994 533.373,1591.483C532.091,1595.971 532.614,1626.75 530.263,1632.521C527.911,1638.292 530.439,1660.909 530.263,1662.74C530.263,1662.74 540.955,1680.018 562.757,1678.167L562.757,1668.002L569.068,1604.842L572.167,1546.704L572.114,1481.118C572.114,1481.118 575.779,1439.471 577.275,1430.708C578.772,1421.945 589.817,1386.507 591.74,1381.59C593.664,1376.674 604.891,1351.111 607.028,1345.981C609.165,1340.852 620.192,1322.898 619.81,1319.178C619.339,1314.604 618.484,1295.218 618.484,1295.218Z" style="fill:rgb(29,29,29);"/>
                    </g>
                    <g transform="matrix(1,0,0,1,52.321714,2.226456)">
                        <path d="M705.442,1273.686L700.791,1284.689C700.791,1284.689 698.465,1286.86 691.74,1295.234C689.982,1297.423 687.735,1298.231 682.852,1302.385C679.652,1305.106 664.615,1311.161 663.835,1314.513C662.509,1320.212 662.276,1323.944 661.401,1326.788C657.981,1337.902 657.984,1350.994 655.162,1362.664C652.913,1371.967 646.923,1413.919 646.281,1422.041C645.64,1430.163 639.996,1455.384 640.307,1462.651C640.617,1469.918 640.19,1515.126 640.19,1521.778C640.19,1528.43 643.449,1577.643 643.663,1584.483C643.877,1591.323 648.632,1641.765 649.06,1650.101C649.487,1658.437 651.757,1683.489 651.757,1683.489C651.757,1683.489 670.594,1681.302 678.289,1681.226C685.983,1681.15 756.72,1667.531 795.404,1648.79L796.841,1646.009L786.364,1621.509C786.364,1621.509 784.813,1615.863 780.271,1608.115C775.729,1600.367 770.713,1586.22 768.308,1581.945C765.903,1577.67 759.491,1561.167 758.155,1556.06C756.82,1550.953 753.429,1535.991 754.59,1529.579C755.751,1523.166 758.69,1494.163 760.293,1489.963C761.896,1485.762 770.445,1460.113 773.117,1453.968C775.789,1447.823 787.812,1416.053 787.812,1416.053C787.812,1416.053 840.79,1342.819 786.248,1317.753C786.248,1317.753 743.92,1295.854 738.449,1292.263C732.977,1288.672 720.924,1283.066 719.256,1280.312C717.588,1277.558 713.142,1274.549 710.748,1271.813C708.354,1269.077 707.089,1268.488 707.089,1268.488L705.442,1273.686Z" style="fill:rgb(29,29,29);"/>
                    </g>
                </g>
                <path d="M848.651,1649.382C833.956,1609.306 821.203,1587.677 815.414,1573.873C809.626,1560.069 806.508,1544.039 806.954,1531.125C807.399,1518.212 814.078,1484.815 818.977,1473.238C823.875,1461.66 835.452,1427.889 840.351,1418.28" style="fill:none;stroke:black;stroke-width:4.17px;"/>
                <g transform="matrix(1,0,0,1,52.321714,2.226456)">
                    <path d="M595.234,1296.593C595.234,1296.593 562.565,1309.614 557.222,1313.431" style="fill:none;stroke:black;stroke-width:4.17px;"/>
                </g>
                <path d="M771.578,1282.538C785.803,1291.91 811.88,1306.348 838.569,1318.054" style="fill:none;stroke:black;stroke-width:4.17px;"/>
                <path d="M604.346,1366.145C604.346,1366.145 608.354,1375.941 606.127,1380.84C606.127,1380.84 578.965,1408.002 578.965,1433.829C578.965,1433.829 578.742,1453.867 584.086,1485.928C584.086,1485.928 584.226,1505.022 585.771,1522.569C587.664,1544.055 585.93,1551.195 585.93,1572.569C585.93,1593.943 582.972,1642.337 582.75,1666.049" style="fill:none;stroke:black;stroke-width:4.17px;"/>
                <g transform="matrix(1,0,0,1,52.321714,2.226456)">
                    <path d="M620.724,1317.118C584.321,1390.067 573.23,1433.529 572.776,1459.942C572.203,1493.196 571.583,1536.421 572.251,1549.78C572.919,1563.139 563.425,1666.144 562.757,1678.167" style="fill:none;stroke:black;stroke-width:4.17px;"/>
                </g>
                <g transform="matrix(1,0,0,1,52.321714,2.226456)">
                    <path d="M602.192,1292.986L594.427,1297.187" style="fill:none;stroke:black;stroke-width:4.17px;"/>
                </g>
                <g transform="matrix(1,0,0,1,52.321714,2.226456)">
                    <path d="M661.094,1325.703C715.703,1313.264 722.76,1282.784 722.76,1282.784C716.775,1278.936 705.661,1266.967 705.661,1266.967C709.508,1291.974 663.576,1313.776 663.576,1313.776C658.857,1331.489 643.142,1441.523 641.445,1455.337C635.243,1505.814 651.241,1675.962 651.687,1683.668C651.687,1683.668 715.216,1683.393 796.329,1647.975" style="fill:none;stroke:black;stroke-width:4.17px;"/>
                </g>
                <g transform="matrix(1,0,0,1,52.321714,2.226456)">
                    <path d="M620.724,1317.118C620.724,1317.118 614.016,1299.455 620.724,1282.142C620.724,1282.142 606.805,1291.432 602.798,1292.986C602.798,1292.986 602.425,1318.906 615.035,1325.532" style="fill:none;stroke:black;stroke-width:4.17px;"/>
                </g>
                <g transform="matrix(1,0,0,1,52.321714,2.226456)">
                    <path d="M611.76,1323.139C611.76,1323.139 554.12,1346.318 551.448,1349.257" style="fill:none;stroke:black;stroke-width:2.08px;"/>
                </g>
                <g transform="matrix(1,0,0,1,52.321714,2.226456)">
                    <path d="M675.832,1323.139C675.832,1323.139 754.797,1371.892 765.484,1381.689" style="fill:none;stroke:black;stroke-width:2.08px;"/>
                </g>
                <g transform="matrix(1,0,0,1,52.321714,2.226456)">
                    <path d="M788.372,1626.862C788.372,1626.862 746.006,1655.488 650.968,1662.74" style="fill:none;stroke:black;stroke-width:2.08px;"/>
                </g>
                <g transform="matrix(1,0,0,1,52.321714,2.226456)">
                    <path d="M530.263,1662.74C530.263,1662.74 541.284,1675.359 562.324,1678.031" style="fill:none;stroke:black;stroke-width:4.17px;"/>
                </g>
                <g transform="matrix(1,0,0,1,52.321714,2.226456)">
                    <path d="M530.263,1644.801C530.263,1644.801 546.825,1656.323 562.757,1657.992" style="fill:none;stroke:black;stroke-width:2.08px;"/>
                </g>
                <g transform="matrix(1,0,0,1,52.321714,2.226456)">
                    <path d="M646.862,1431.306C646.862,1431.306 747.498,1434.423 759.075,1437.54" style="fill:none;stroke:black;stroke-width:2.08px;"/>
                </g>
                <g transform="matrix(1,0,0,1,52.321714,2.226456)">
                    <path d="M576.061,1431.306C576.061,1431.306 531.993,1425.072 526.642,1425.962" style="fill:none;stroke:black;stroke-width:2.08px;"/>
                </g>
                <g transform="matrix(1,0,0,1,52.321714,2.226456)">
                    <path d="M778.713,1417.19C778.713,1417.19 734.896,1495.739 747.72,1544.9C747.72,1544.9 751.461,1569.268 764.285,1591.549C764.285,1591.549 784.056,1637.665 789.934,1651.397" style="fill:none;stroke:black;stroke-width:2.08px;"/>
                </g>
            </g>
            <g id="r-hand" serif:id="r hand" transform="matrix(1,0,0,1,-65.715242,-5.299201)">
                <path d="M885.495,1423.885C885.495,1423.885 900.146,1470.263 915.341,1528.179C918.696,1540.966 921.318,1554.392 923.349,1567.949C925.289,1580.895 924.243,1593.13 924.737,1605.9C927.054,1665.868 928.117,1715.218 927.046,1718.691L950.685,1718.942C950.685,1718.942 956.412,1721.466 985.522,1728.947C985.522,1728.947 991.703,1693.308 992.053,1675.703C992.295,1663.532 994.628,1636.739 996.336,1611.149C996.947,1602 996.642,1593.233 996.336,1585.296C994.953,1549.328 989.679,1519.777 989.679,1519.777L980.702,1454.159L968.092,1394.953C968.092,1394.953 959.542,1360.327 952.275,1354.129C952.275,1354.129 925.771,1321.224 898.626,1323.356C898.626,1323.356 845.632,1314.474 885.495,1423.885Z" style="fill:rgb(29,29,29);"/>
                <path d="M993.272,1549.035C993.272,1549.035 985.59,1474.643 975.571,1429.224C975.571,1429.224 965.886,1369.443 948.854,1350.741C948.854,1350.741 928.816,1323.69 899.093,1323.356M885.495,1424.779C885.495,1424.779 918.002,1531.465 922.9,1560.056" style="fill:none;stroke:black;stroke-width:4.17px;"/>
                <g transform="matrix(1,0,0,1,0.925382,0.623644)">
                    <path d="M928.594,1564.93C928.594,1564.93 941.418,1542.22 949.968,1532.601" style="fill:none;stroke:black;stroke-width:4.17px;"/>
                </g>
                <g transform="matrix(1,0,0,1,0.925382,0.623644)">
                    <path d="M921.974,1559.432L921.536,1569.913C921.536,1569.913 928.215,1708.176 925.209,1717.527C925.209,1717.527 978.347,1721.182 985.175,1731.275C985.175,1731.275 992.096,1668.935 992.346,1662.404C992.597,1655.873 996.159,1589.376 995.269,1584.033C994.378,1578.689 993.283,1549.894 992.346,1546.034" style="fill:none;stroke:black;stroke-width:4.17px;"/>
                </g>
                <g transform="matrix(1,0,0,1,118.036955,7.525657)">
                    <path d="M808.84,1687.565C808.84,1687.565 851.743,1679.541 870.876,1698.691" style="fill:none;stroke:black;stroke-width:2.08px;"/>
                </g>
            </g>
        </g>
    </g>
</svg>
