<?xml version="1.0" encoding="UTF-8" standalone="no"?>
<!DOCTYPE svg PUBLIC "-//W3C//DTD SVG 1.1//EN" "http://www.w3.org/Graphics/SVG/1.1/DTD/svg11.dtd">
<svg width="100%" height="100%" viewBox="0 0 413 462" version="1.1" xmlns="http://www.w3.org/2000/svg" xmlns:xlink="http://www.w3.org/1999/xlink" xml:space="preserve" xmlns:serif="http://www.serif.com/" style="fill-rule:evenodd;clip-rule:evenodd;stroke-linecap:round;stroke-linejoin:round;stroke-miterlimit:1.5;">
    <g transform="matrix(1,0,0,1,-467.591152,-1264.883602)">
        <g transform="matrix(1,0,0,1,-52.321714,-2.226456)">
            <g id="l-hand" serif:id="l hand" transform="matrix(1,0,0,1,54.221268,0.864502)">
                <path d="M557.097,1314.801C557.097,1314.801 528.509,1323.822 514.883,1355.615C514.883,1355.615 502.775,1382.272 504.955,1410.552C504.955,1410.552 500.99,1455.129 500.723,1467.419C500.456,1479.709 497.528,1522.19 496.855,1525.663C496.855,1525.663 488.621,1549.95 484.169,1578.034C480.359,1602.071 470.561,1675.066 467.775,1700.593C467.507,1703.052 477.026,1703.329 489.841,1706.369C501.766,1709.198 512.426,1719.747 514.234,1723.049L539.122,1648.937C539.122,1648.937 549.957,1616.661 553.104,1598.92C558.549,1568.222 571.791,1464.747 571.791,1464.747L577.484,1420.931C577.484,1420.931 609.463,1313.672 557.097,1314.801Z" style="fill:rgb(29,29,29);"/>
                <path d="M560.786,1546.79C560.786,1546.79 576.816,1429.233 577.484,1421.218M557.542,1314.801C557.542,1314.801 502.198,1331.595 504.488,1412.893C504.488,1412.893 498.763,1515.182 496.855,1526.633" style="fill:none;stroke:black;stroke-width:4.17px;"/>
                <g transform="matrix(1,0,0,1,-0.487269,-0.864276)">
                    <path d="M514.721,1530.657C514.721,1530.657 531.197,1546.806 534.759,1558.028" style="fill:none;stroke:black;stroke-width:4.17px;"/>
                </g>
                <g transform="matrix(1,0,0,1,-0.487269,-0.864276)">
                    <path d="M497.342,1527.497L490.824,1544.906C490.824,1544.906 486.371,1566.28 484.293,1584.686C482.215,1603.091 471.231,1699.274 468.262,1704.914C468.262,1704.914 500.026,1702.539 513.979,1723.913C513.979,1723.913 548.118,1627.137 549.305,1618.825C550.493,1610.512 557.914,1588.104 561.18,1547.654" style="fill:none;stroke:black;stroke-width:4.17px;"/>
                </g>
                <g transform="matrix(1,0,0,1,-1.899554,1.361954)">
                    <path d="M522.732,1700.747C522.732,1700.747 512.751,1675.984 473.411,1682.239" style="fill:none;stroke:black;stroke-width:2.08px;"/>
                </g>
            </g>
            <g id="body">
                <g>
                    <g transform="matrix(1,0,0,1,52.321714,2.226456)">
                        <path d="M618.484,1295.218L620.707,1283.078C620.707,1283.078 620.577,1281.052 603.82,1292.051L589.074,1298.07L556.743,1315.827C556.743,1315.827 530.167,1330.934 551.755,1363.636C551.755,1363.636 556.34,1374.965 553.513,1378.171L543.633,1389.926C543.633,1389.926 522.398,1421.774 526.496,1437.163C526.496,1437.163 527.389,1458.323 532.091,1482.689C532.091,1482.689 533.897,1513.07 532.78,1517.559C532.78,1517.559 533.684,1538.262 533.422,1551.086C533.25,1559.495 534.656,1586.994 533.373,1591.483C532.091,1595.971 532.614,1626.75 530.263,1632.521C527.911,1638.292 530.439,1660.909 530.263,1662.74C530.263,1662.74 540.955,1680.018 562.757,1678.167L562.757,1668.002L569.068,1604.842L572.167,1546.704L572.114,1481.118C572.114,1481.118 575.779,1439.471 577.275,1430.708C578.772,1421.945 589.817,1386.507 591.74,1381.59C593.664,1376.674 604.891,1351.111 607.028,1345.981C609.165,1340.852 620.192,1322.898 619.81,1319.178C619.339,1314.604 618.484,1295.218 618.484,1295.218Z" style="fill:rgb(29,29,29);"/>
                    </g>
                    <g transform="matrix(1,0,0,1,52.321714,2.226456)">
                        <path d="M705.442,1273.686L700.791,1284.689C700.791,1284.689 698.465,1286.86 691.74,1295.234C689.982,1297.423 687.735,1298.231 682.852,1302.385C679.652,1305.106 664.615,1311.161 663.835,1314.513C662.509,1320.212 662.276,1323.944 661.401,1326.788C657.981,1337.902 657.984,1350.994 655.162,1362.664C652.913,1371.967 646.923,1413.919 646.281,1422.041C645.64,1430.163 639.996,1455.384 640.307,1462.651C640.617,1469.918 640.19,1515.126 640.19,1521.778C640.19,1528.43 643.449,1577.643 643.663,1584.483C643.877,1591.323 648.632,1641.765 649.06,1650.101C649.487,1658.437 651.757,1683.489 651.757,1683.489C651.757,1683.489 670.594,1681.302 678.289,1681.226C685.983,1681.15 756.72,1667.531 795.404,1648.79L796.841,1646.009L786.364,1621.509C786.364,1621.509 784.813,1615.863 780.271,1608.115C775.729,1600.367 770.713,1586.22 768.308,1581.945C765.903,1577.67 759.491,1561.167 758.155,1556.06C756.82,1550.953 753.429,1535.991 754.59,1529.579C755.751,1523.166 758.69,1494.163 760.293,1489.963C761.896,1485.762 770.445,1460.113 773.117,1453.968C775.789,1447.823 787.812,1416.053 787.812,1416.053C787.812,1416.053 840.79,1342.819 786.248,1317.753C786.248,1317.753 743.92,1295.854 738.449,1292.263C732.977,1288.672 720.924,1283.066 719.256,1280.312C717.588,1277.558 713.142,1274.549 710.748,1271.813C708.354,1269.077 707.089,1268.488 707.089,1268.488L705.442,1273.686Z" style="fill:rgb(29,29,29);"/>
                        <clipPath id="_clip1">
                            <path d="M705.442,1273.686L700.791,1284.689C700.791,1284.689 698.465,1286.86 691.74,1295.234C689.982,1297.423 687.735,1298.231 682.852,1302.385C679.652,1305.106 664.615,1311.161 663.835,1314.513C662.509,1320.212 662.276,1323.944 661.401,1326.788C657.981,1337.902 657.984,1350.994 655.162,1362.664C652.913,1371.967 646.923,1413.919 646.281,1422.041C645.64,1430.163 639.996,1455.384 640.307,1462.651C640.617,1469.918 640.19,1515.126 640.19,1521.778C640.19,1528.43 643.449,1577.643 643.663,1584.483C643.877,1591.323 648.632,1641.765 649.06,1650.101C649.487,1658.437 651.757,1683.489 651.757,1683.489C651.757,1683.489 670.594,1681.302 678.289,1681.226C685.983,1681.15 756.72,1667.531 795.404,1648.79L796.841,1646.009L786.364,1621.509C786.364,1621.509 784.813,1615.863 780.271,1608.115C775.729,1600.367 770.713,1586.22 768.308,1581.945C765.903,1577.67 759.491,1561.167 758.155,1556.06C756.82,1550.953 753.429,1535.991 754.59,1529.579C755.751,1523.166 758.69,1494.163 760.293,1489.963C761.896,1485.762 770.445,1460.113 773.117,1453.968C775.789,1447.823 787.812,1416.053 787.812,1416.053C787.812,1416.053 840.79,1342.819 786.248,1317.753C786.248,1317.753 743.92,1295.854 738.449,1292.263C732.977,1288.672 720.924,1283.066 719.256,1280.312C717.588,1277.558 713.142,1274.549 710.748,1271.813C708.354,1269.077 707.089,1268.488 707.089,1268.488L705.442,1273.686Z"/>
                        </clipPath>
                        <g clip-path="url(#_clip1)">
                            <g transform="matrix(0.012435,0.000519,-0.000835,0.012421,696.654556,1430.595276)">
                                <g transform="matrix(1,0,0,1,-3643.75,-5168.75)">
                                    <g id="Balenciaga-Logo-2017-present.jpg" transform="matrix(6.559246,0,0,6.559246,283.333333,2800)">
                                        <path d="M420.896,335.5C420.896,232.572 420.895,232.58 420.903,232.527C421.335,229.788 422.659,229.997 455.499,230.516C459.569,230.58 458.206,232.812 478.785,291.392C490.394,324.437 486.472,327.292 489.468,327.293C491.073,327.293 489.841,318.388 489.785,317.493C488.903,303.406 489.234,232.193 489.507,231.503C490.067,230.089 490.533,230.189 508.499,230.51C510.978,230.555 510.734,232.599 510.736,233.497C510.757,242.62 510.999,346.184 510.632,347.537C510.292,348.787 509.788,348.991 478.495,348.91C475.561,348.902 475.291,348.338 472.687,340.439C461.067,305.19 447.952,273.72 443.321,250.577C443.02,249.073 441.094,248.995 441.292,251.473C441.896,259.052 443.361,277.402 442.632,346.506C442.603,349.279 441.197,349.044 423.487,348.908C419.677,348.879 420.917,341.085 420.896,335.5Z" style="fill:white;"/>
                                        <path d="M862.5,302.9C858.461,302.742 856.498,304.489 856.476,300.501C856.394,286.027 856.156,284.161 858.438,284.034C859.985,283.948 893.668,283.823 894.641,284.175C895.944,284.646 895.811,285.226 895.801,335.5C895.799,340.728 897.578,342.725 890.398,345.211C879.123,349.114 827.615,361.799 815.729,325.428C812.398,315.234 806.998,265.577 820.797,244.705C837.125,220.009 893.338,220.33 896.055,259.513C896.277,262.712 891.352,261.881 876.5,261.882C872.625,261.882 872.291,261.379 871.552,257.491C868.708,242.532 841.462,238.716 838.341,268.481C838.335,268.538 834.883,309.379 840.825,322.354C848.104,338.249 871.625,331.495 872.364,328.467C872.492,327.941 872.764,304.625 872.192,303.69C871.713,302.908 863.278,302.9 862.5,302.9Z" style="fill:white;"/>
                                        <path d="M384.826,281.501C384.823,291.732 385.744,296.824 382.532,296.962C368.769,297.552 348.008,295.57 347.347,298.465C347.268,298.809 347.219,327.961 347.378,328.534C348.272,331.75 386.568,328.387 388.487,330.509C388.613,330.649 389.985,348.153 387.601,348.805C387.161,348.925 387.185,348.91 332.5,348.91C329.039,348.91 323.172,349.948 323.128,346.523C322.958,333.398 323.11,242.539 323.126,233.496C323.128,232.018 322.956,230.313 325.488,230.279C330.361,230.215 384.878,229.493 386.402,230.643C387.14,231.199 388.489,248.798 385.458,249.205C380.774,249.833 348.247,247.856 347.414,250.471C347.402,250.51 346.793,276.157 347.781,277.241C349.257,278.86 382.866,276.691 384.47,278.521C384.628,278.701 384.496,278.739 384.826,281.501Z" style="fill:white;"/>
                                        <path d="M541.086,287.5C541.175,254.116 546.681,228.691 585.498,228.79C625.365,228.891 624.189,263.012 622.621,263.714C621.546,264.196 600.543,263.898 600.386,263.855C597.914,263.181 599.977,248.823 588.413,246.937C567.802,243.577 567.047,266.764 566.875,272.516C565.617,314.704 567.329,331.173 582.534,332.193C601.24,333.448 599.077,317.166 600.277,314.376C601.107,312.445 623.359,313.609 623.428,313.646C624.951,314.46 626.731,349.081 586.5,350.493C537.739,352.205 541.098,304.864 541.086,287.5Z" style="fill:white;"/>
                                        <path d="M290.5,348.91C236.997,348.91 236.968,348.939 236.395,348.731C235.31,348.337 235.311,341.164 235.311,340.5C235.327,232.306 235.216,232.295 235.523,231.51C236.219,229.732 258.022,230.258 258.874,231.159C260.058,232.41 259.095,321.706 259.408,327.505C259.569,330.497 261.206,329.826 295.498,329.855C299.156,329.858 298.418,333.236 298.319,345.499C298.276,350.732 295.737,348.653 290.5,348.91Z" style="fill:white;"/>
                                        <path d="M674.071,234.5C674.057,347.519 674.197,347.739 673.465,348.46C673.135,348.785 650.9,350.1 650.183,347.608C650.099,347.318 649.803,232.627 650.337,231.407C650.979,229.944 673.156,229.999 673.745,231.349C673.846,231.581 673.769,231.582 674.071,234.5Z" style="fill:white;"/>
                                        <path d="M92.904,262.527C91.784,268.297 91.31,282.303 71.613,285.775C65.711,286.815 75.189,288.203 75.558,288.258C98.911,291.679 106.879,341.584 68.546,347.787C54.013,350.139 14.477,348.584 14.455,348.564C13.639,347.846 13.734,347.6 13.734,244.5C13.734,238.883 12.936,230.619 15.503,230.524C19.18,230.389 41.534,229.568 61.495,230.612C87.935,231.996 92.943,244.788 92.904,262.527ZM37.958,274.5C38.316,276.905 37.271,277.959 39.554,278.163C62.68,280.228 66.09,273.327 67.096,271.291C69.487,266.454 71.913,249.77 55.483,248.689C38.462,247.569 38.086,249.03 38.037,250.432C37.969,252.356 38.219,252.273 37.958,274.5ZM37.962,316.5C37.964,324.069 36.866,330.881 40.481,330.915C46.268,330.969 75.963,335.424 70.186,307.579C67.428,294.289 49.322,296.233 40.495,296.31C37.282,296.339 38.165,298.095 37.962,316.5Z" style="fill:white;"/>
                                        <path d="M983.977,240.355C992.635,273.479 1013.572,347.355 1012.524,348.524C1012.447,348.61 988.94,350.339 987.575,347.461C985.709,343.527 982.187,323.07 979.522,322.403C979.258,322.337 947.481,322.004 946.548,322.602C943.824,324.347 940.421,347.956 937.585,348.777C937.25,348.874 916.162,349.235 915.454,348.555C914.11,347.263 927.689,301.722 939.854,255.589C946.08,231.977 945.603,231.379 947.573,230.696C949.911,229.885 949.995,230.437 978.5,230.506C982.576,230.516 983.005,236.811 983.977,240.355ZM954.082,287.38C950.644,301.769 949.558,303.916 952.45,303.968C975.538,304.382 976.75,304.431 976.587,302.503C976.25,298.523 967.586,268.464 964.707,251.399C963.623,244.969 962.162,254.093 962.112,254.407C961.88,255.853 954.734,284.744 954.082,287.38Z" style="fill:white;"/>
                                        <path d="M703.896,327.623C729.731,232.807 728.533,231.288 731.526,230.613C732.437,230.408 762.976,230.503 763.491,230.559C765.094,230.735 765.22,231.193 770.122,249.599C796.137,347.281 797.3,348.112 795.635,348.749C794.871,349.042 772.922,348.94 772.412,348.801C769.617,348.043 766.06,323.834 763.454,322.598C762.226,322.016 730.945,322.303 730.481,322.429C727.984,323.111 724.655,341.743 722.441,347.472C721.806,349.116 721.295,349.295 700.453,348.918C696.906,348.853 700.052,342.102 703.896,327.623ZM749.883,260.414C748.05,251.439 748.395,251.391 748.234,250.612C747.371,246.437 746.324,251.449 742.733,266.552C734.197,302.459 733.662,302.714 734.46,303.537C735.808,304.93 756.658,304.033 758.587,303.95C760.915,303.85 760.125,302.304 754.177,277.584C751.149,265.003 750.124,261.383 749.883,260.414Z" style="fill:white;"/>
                                        <path d="M137.979,341.64C136.544,346.751 137.775,348.869 132.503,348.911C113.684,349.062 111.865,349.153 112.556,346.512C112.609,346.307 132.728,272.445 142.961,234.624C144.544,228.774 146.467,230.503 152.5,230.504C177.015,230.51 178.524,229.699 179.547,233.486C181.944,242.366 209.221,343.423 209.508,344.498C210.277,347.379 211.552,348.814 208.564,348.91C206.793,348.967 189.091,349.536 186.413,348.791C182.904,347.815 180.463,322.788 176.521,322.349C176.044,322.296 145.231,322.208 144.475,322.393C142.829,322.795 142.386,325.033 137.979,341.64ZM150.91,289.598C148.262,301.098 147.146,303.859 149.405,303.96C151.337,304.046 172.161,304.976 173.581,303.587C175.04,302.159 163.162,261.148 161.978,251.139C161.171,244.314 159.484,254.153 159.427,254.484C158.738,258.5 151.616,286.795 150.91,289.598Z" style="fill:white;"/>
                                    </g>
                                </g>
                            </g>
                        </g>
                    </g>
                </g>
                <path d="M848.651,1649.382C833.956,1609.306 821.203,1587.677 815.414,1573.873C809.626,1560.069 806.508,1544.039 806.954,1531.125C807.399,1518.212 814.078,1484.815 818.977,1473.238C823.875,1461.66 835.452,1427.889 840.351,1418.28" style="fill:none;stroke:black;stroke-width:4.17px;"/>
                <g transform="matrix(1,0,0,1,52.321714,2.226456)">
                    <path d="M595.234,1296.593C595.234,1296.593 562.565,1309.614 557.222,1313.431" style="fill:none;stroke:black;stroke-width:4.17px;"/>
                </g>
                <path d="M771.578,1282.538C785.803,1291.91 811.88,1306.348 838.569,1318.054" style="fill:none;stroke:black;stroke-width:4.17px;"/>
                <path d="M604.346,1366.145C604.346,1366.145 608.354,1375.941 606.127,1380.84C606.127,1380.84 578.965,1408.002 578.965,1433.829C578.965,1433.829 578.742,1453.867 584.086,1485.928C584.086,1485.928 584.226,1505.022 585.771,1522.569C587.664,1544.055 585.93,1551.195 585.93,1572.569C585.93,1593.943 582.972,1642.337 582.75,1666.049" style="fill:none;stroke:black;stroke-width:4.17px;"/>
                <g transform="matrix(1,0,0,1,52.321714,2.226456)">
                    <path d="M620.724,1317.118C584.321,1390.067 573.23,1433.529 572.776,1459.942C572.203,1493.196 571.583,1536.421 572.251,1549.78C572.919,1563.139 563.425,1666.144 562.757,1678.167" style="fill:none;stroke:black;stroke-width:4.17px;"/>
                </g>
                <g transform="matrix(1,0,0,1,52.321714,2.226456)">
                    <path d="M602.192,1292.986L594.427,1297.187" style="fill:none;stroke:black;stroke-width:4.17px;"/>
                </g>
                <g transform="matrix(1,0,0,1,52.321714,2.226456)">
                    <path d="M661.094,1325.703C715.703,1313.264 722.76,1282.784 722.76,1282.784C716.775,1278.936 705.661,1266.967 705.661,1266.967C709.508,1291.974 663.576,1313.776 663.576,1313.776C658.857,1331.489 643.142,1441.523 641.445,1455.337C635.243,1505.814 651.241,1675.962 651.687,1683.668C651.687,1683.668 715.216,1683.393 796.329,1647.975" style="fill:none;stroke:black;stroke-width:4.17px;"/>
                </g>
                <g transform="matrix(1,0,0,1,52.321714,2.226456)">
                    <path d="M620.724,1317.118C620.724,1317.118 614.016,1299.455 620.724,1282.142C620.724,1282.142 606.805,1291.432 602.798,1292.986C602.798,1292.986 602.425,1318.906 615.035,1325.532" style="fill:none;stroke:black;stroke-width:4.17px;"/>
                </g>
                <g transform="matrix(1,0,0,1,52.321714,2.226456)">
                    <path d="M611.76,1323.139C611.76,1323.139 554.12,1346.318 551.448,1349.257" style="fill:none;stroke:black;stroke-width:2.08px;"/>
                </g>
                <g transform="matrix(1,0,0,1,52.321714,2.226456)">
                    <path d="M675.832,1323.139C675.832,1323.139 754.797,1371.892 765.484,1381.689" style="fill:none;stroke:black;stroke-width:2.08px;"/>
                </g>
                <g transform="matrix(1,0,0,1,52.321714,2.226456)">
                    <path d="M788.372,1626.862C788.372,1626.862 746.006,1655.488 650.968,1662.74" style="fill:none;stroke:black;stroke-width:2.08px;"/>
                </g>
                <g transform="matrix(1,0,0,1,52.321714,2.226456)">
                    <path d="M530.263,1662.74C530.263,1662.74 541.284,1675.359 562.324,1678.031" style="fill:none;stroke:black;stroke-width:4.17px;"/>
                </g>
                <g transform="matrix(1,0,0,1,52.321714,2.226456)">
                    <path d="M530.263,1644.801C530.263,1644.801 546.825,1656.323 562.757,1657.992" style="fill:none;stroke:black;stroke-width:2.08px;"/>
                </g>
                <g transform="matrix(1,0,0,1,52.321714,2.226456)">
                    <path d="M646.862,1431.306C646.862,1431.306 747.498,1434.423 759.075,1437.54" style="fill:none;stroke:black;stroke-width:2.08px;"/>
                </g>
                <g transform="matrix(1,0,0,1,52.321714,2.226456)">
                    <path d="M576.061,1431.306C576.061,1431.306 531.993,1425.072 526.642,1425.962" style="fill:none;stroke:black;stroke-width:2.08px;"/>
                </g>
                <g transform="matrix(1,0,0,1,52.321714,2.226456)">
                    <path d="M778.713,1417.19C778.713,1417.19 734.896,1495.739 747.72,1544.9C747.72,1544.9 751.461,1569.268 764.285,1591.549C764.285,1591.549 784.056,1637.665 789.934,1651.397" style="fill:none;stroke:black;stroke-width:2.08px;"/>
                </g>
            </g>
            <g id="r-hand" serif:id="r hand" transform="matrix(1,0,0,1,-65.715242,-5.299201)">
                <path d="M885.495,1423.885C885.495,1423.885 900.146,1470.263 915.341,1528.179C918.696,1540.966 921.318,1554.392 923.349,1567.949C925.289,1580.895 924.243,1593.13 924.737,1605.9C927.054,1665.868 928.117,1715.218 927.046,1718.691L950.685,1718.942C950.685,1718.942 956.412,1721.466 985.522,1728.947C985.522,1728.947 991.703,1693.308 992.053,1675.703C992.295,1663.532 994.628,1636.739 996.336,1611.149C996.947,1602 996.642,1593.233 996.336,1585.296C994.953,1549.328 989.679,1519.777 989.679,1519.777L980.702,1454.159L968.092,1394.953C968.092,1394.953 959.542,1360.327 952.275,1354.129C952.275,1354.129 925.771,1321.224 898.626,1323.356C898.626,1323.356 845.632,1314.474 885.495,1423.885Z" style="fill:rgb(29,29,29);"/>
                <path d="M993.272,1549.035C993.272,1549.035 985.59,1474.643 975.571,1429.224C975.571,1429.224 965.886,1369.443 948.854,1350.741C948.854,1350.741 928.816,1323.69 899.093,1323.356M885.495,1424.779C885.495,1424.779 918.002,1531.465 922.9,1560.056" style="fill:none;stroke:black;stroke-width:4.17px;"/>
                <g transform="matrix(1,0,0,1,0.925382,0.623644)">
                    <path d="M928.594,1564.93C928.594,1564.93 941.418,1542.22 949.968,1532.601" style="fill:none;stroke:black;stroke-width:4.17px;"/>
                </g>
                <g transform="matrix(1,0,0,1,0.925382,0.623644)">
                    <path d="M921.974,1559.432L921.536,1569.913C921.536,1569.913 928.215,1708.176 925.209,1717.527C925.209,1717.527 978.347,1721.182 985.175,1731.275C985.175,1731.275 992.096,1668.935 992.346,1662.404C992.597,1655.873 996.159,1589.376 995.269,1584.033C994.378,1578.689 993.283,1549.894 992.346,1546.034" style="fill:none;stroke:black;stroke-width:4.17px;"/>
                </g>
                <g transform="matrix(1,0,0,1,118.036955,7.525657)">
                    <path d="M808.84,1687.565C808.84,1687.565 851.743,1679.541 870.876,1698.691" style="fill:none;stroke:black;stroke-width:2.08px;"/>
                </g>
            </g>
        </g>
    </g>
</svg>
