<?xml version="1.0" encoding="UTF-8" standalone="no"?>
<!DOCTYPE svg PUBLIC "-//W3C//DTD SVG 1.1//EN" "http://www.w3.org/Graphics/SVG/1.1/DTD/svg11.dtd">
<svg width="100%" height="100%" viewBox="0 0 413 589" version="1.1" xmlns="http://www.w3.org/2000/svg" xmlns:xlink="http://www.w3.org/1999/xlink" xml:space="preserve" xmlns:serif="http://www.serif.com/" style="fill-rule:evenodd;clip-rule:evenodd;stroke-linecap:round;stroke-linejoin:round;stroke-miterlimit:1.5;">
    <g transform="matrix(1,0,0,1,-467.591152,-1243.418729)">
        <g transform="matrix(1,0,0,1,-52.321714,-2.226456)">
            <g id="l-hand" serif:id="l hand" transform="matrix(1,0,0,1,54.221268,0.864502)">
                <path d="M557.097,1314.801C557.097,1314.801 528.509,1323.822 514.883,1355.615C514.883,1355.615 502.775,1382.272 504.955,1410.552C504.955,1410.552 500.99,1455.129 500.723,1467.419C500.456,1479.709 497.528,1522.19 496.855,1525.663C496.855,1525.663 488.621,1549.95 484.169,1578.034C480.359,1602.071 470.561,1675.066 467.775,1700.593C467.507,1703.052 477.026,1703.329 489.841,1706.369C501.766,1709.198 512.426,1719.747 514.234,1723.049L539.122,1648.937C539.122,1648.937 549.957,1616.661 553.104,1598.92C558.549,1568.222 571.791,1464.747 571.791,1464.747L577.484,1420.931C577.484,1420.931 609.463,1313.672 557.097,1314.801Z" style="fill:rgb(34,34,34);"/>
                <path d="M560.786,1546.79C560.786,1546.79 576.816,1429.233 577.484,1421.218M557.542,1314.801C557.542,1314.801 502.198,1331.595 504.488,1412.893C504.488,1412.893 498.763,1515.182 496.855,1526.633" style="fill:none;stroke:black;stroke-width:4.17px;"/>
                <g transform="matrix(1,0,0,1,-0.487269,-0.864276)">
                    <path d="M514.721,1530.657C514.721,1530.657 531.197,1546.806 534.759,1558.028" style="fill:none;stroke:black;stroke-width:4.17px;"/>
                </g>
                <g transform="matrix(1,0,0,1,-0.487269,-0.864276)">
                    <path d="M497.342,1527.497L490.824,1544.906C490.824,1544.906 486.371,1566.28 484.293,1584.686C482.215,1603.091 471.231,1699.274 468.262,1704.914C468.262,1704.914 500.026,1702.539 513.979,1723.913C513.979,1723.913 548.118,1627.137 549.305,1618.825C550.493,1610.512 557.914,1588.104 561.18,1547.654" style="fill:none;stroke:black;stroke-width:4.17px;"/>
                </g>
            </g>
            <g id="body">
                <path d="M604.12,1364.987C604.12,1364.987 607.949,1375.6 606.613,1379.608C606.613,1379.608 591.651,1397.695 588.873,1403.894C586.094,1410.092 576.903,1420.993 577.972,1442.153C579.041,1463.313 582.888,1474.855 589.942,1486.611C596.995,1498.367 605.972,1511.832 607.254,1520.168C608.537,1528.504 610.674,1535.373 610.674,1540.061C610.674,1544.748 611.102,1563.164 610.033,1569.452C608.964,1575.741 602.125,1606.092 599.987,1612.718C597.85,1619.343 586.735,1653.328 585.026,1661.664C583.316,1670 576.05,1709.328 575.836,1718.946C575.622,1728.564 577.117,1755.496 577.972,1762.549C578.827,1769.602 583.088,1811.332 585.867,1817.744C585.867,1817.744 639.851,1833.972 671.435,1832.048C671.435,1832.048 754.638,1832.228 773.019,1829.022C773.019,1829.022 855.683,1820.095 860.172,1817.744C860.172,1817.744 867.439,1754.213 866.156,1745.664C866.156,1745.664 863.378,1692.87 860.599,1683.679C860.599,1683.679 850.126,1633.45 835.378,1611.221C835.378,1611.221 815.714,1579.16 811.653,1563.13C811.653,1563.13 806.737,1545.229 806.95,1537.481C806.95,1537.481 809.088,1503.443 812.508,1493.397C812.508,1493.397 836.233,1428.039 839.866,1418.588C839.866,1418.588 889.119,1354.71 838.569,1320.265C838.569,1320.265 799.031,1298.378 794.928,1294.958C794.928,1294.958 780.237,1288.366 776.328,1284.32C772.48,1280.338 771.469,1270.683 771.469,1270.683C771.469,1270.683 757.802,1249.226 757.138,1248.277L755.086,1273.242C755.086,1273.242 728.412,1334.799 718.665,1347.795C718.665,1347.795 674.849,1412.13 672.284,1416.405L670.403,1416.063L664.418,1370.408L663.734,1339.63L664.76,1316.546L669.035,1300.302L671.258,1287.477L675.458,1267.743L656.868,1286.827C656.868,1286.827 650.648,1296.284 647.556,1297.682C621.883,1309.293 609.543,1317.503 609.543,1317.503C609.543,1317.503 583.546,1331.639 604.12,1364.987Z" style="fill:rgb(34,34,34);"/>
                <path d="M672.474,1286.982C672.474,1286.982 654.281,1323.949 670.184,1418.28" style="fill:none;stroke:black;stroke-width:4.17px;"/>
                <path d="M665.361,1575.429C665.315,1604.149 663.846,1661.32 663.664,1669.974C663.303,1687.149 672.434,1824.567 671.571,1832.048M756.443,1270.086C756.443,1270.086 736.946,1327.942 683.718,1399.475C683.718,1399.475 664.109,1422.731 658.765,1456.276C658.765,1456.276 654.312,1493.681 659.953,1521.586C665.593,1549.49 664.62,1572.164 665.361,1575.429" style="fill:none;stroke:black;stroke-width:4.17px;"/>
                <path d="M585.867,1818.227C585.867,1818.227 668.913,1849.62 859.943,1817.782C859.943,1817.782 864.396,1777.817 866.177,1744.865C866.177,1744.865 866.623,1690.985 851.928,1650.909C837.234,1610.833 821.203,1587.677 815.414,1573.873C809.626,1560.069 806.508,1544.039 806.954,1531.125C807.399,1518.212 814.078,1484.815 818.977,1473.238C823.875,1461.66 835.452,1427.889 840.351,1418.28" style="fill:none;stroke:black;stroke-width:4.17px;"/>
                <g transform="matrix(1,0,0,1,52.321714,2.226456)">
                    <path d="M622.86,1264.054C622.86,1264.054 621.719,1279.542 620.152,1284.756" style="fill:none;stroke:black;stroke-width:4.17px;"/>
                </g>
                <g transform="matrix(1,0,0,1,52.321714,2.226456)">
                    <path d="M622.86,1264.054C622.86,1264.054 581.448,1310.275 579.578,1324.435L598.814,1336.191L579.578,1358.901C579.578,1358.901 607.306,1419.817 611.342,1426.496" style="fill:none;stroke:black;stroke-width:4.17px;"/>
                </g>
                <g transform="matrix(1,0,0,1,52.321714,2.226456)">
                    <path d="M704.121,1267.86L704.121,1245.502C704.121,1245.502 737.828,1276.418 717.472,1330.107L688.575,1334.059L698.26,1359.107C698.26,1359.107 624.119,1417.551 616.438,1436.254" style="fill:none;stroke:black;stroke-width:4.17px;"/>
                </g>
                <g transform="matrix(1,0,0,1,52.321714,2.226456)">
                    <path d="M595.234,1296.593C595.234,1296.593 562.565,1309.614 557.222,1313.431" style="fill:none;stroke:black;stroke-width:4.17px;"/>
                </g>
                <path d="M776.328,1284.32C790.553,1293.691 811.88,1306.348 838.569,1318.054" style="fill:none;stroke:black;stroke-width:4.17px;"/>
                <path d="M604.346,1366.145C604.346,1366.145 608.354,1375.941 606.127,1380.84C606.127,1380.84 578.965,1408.002 578.965,1433.829C578.965,1433.829 574.066,1455.203 588.761,1484.592C588.761,1484.592 599.003,1497.506 605.237,1513.982C611.471,1530.457 611.026,1539.363 611.026,1560.737C611.026,1582.111 603.01,1599.923 599.448,1614.617C595.886,1629.312 585.199,1650.241 579.855,1688.981C579.855,1688.981 567.61,1722.786 585.867,1817.744" style="fill:none;stroke:black;stroke-width:4.17px;"/>
                <g transform="matrix(0.976977,0.213344,-0.213344,0.976977,371.84371,-99.79688)">
                    <ellipse cx="629.495" cy="1445.408" rx="6.902" ry="9.155" style="fill:none;stroke:black;stroke-width:4.17px;"/>
                </g>
                <g transform="matrix(0.999374,-0.035367,0.035367,0.999374,-1.743321,115.231256)">
                    <ellipse cx="629.495" cy="1445.408" rx="6.902" ry="9.155" style="fill:none;stroke:black;stroke-width:4.17px;"/>
                </g>
            </g>
            <g id="r-hand" serif:id="r hand" transform="matrix(1,0,0,1,-65.715242,-5.299201)">
                <path d="M885.495,1423.885C885.495,1423.885 900.146,1470.263 915.341,1528.179C918.696,1540.966 921.318,1554.392 923.349,1567.949C925.289,1580.895 924.243,1593.13 924.737,1605.9C927.054,1665.868 928.117,1715.218 927.046,1718.691L950.685,1718.942C950.685,1718.942 956.412,1721.466 985.522,1728.947C985.522,1728.947 991.703,1693.308 992.053,1675.703C992.295,1663.532 994.628,1636.739 996.336,1611.149C996.947,1602 996.642,1593.233 996.336,1585.296C994.953,1549.328 989.679,1519.777 989.679,1519.777L980.702,1454.159L968.092,1394.953C968.092,1394.953 959.542,1360.327 952.275,1354.129C952.275,1354.129 925.771,1321.224 898.626,1323.356C898.626,1323.356 845.632,1314.474 885.495,1423.885Z" style="fill:rgb(34,34,34);"/>
                <path d="M993.272,1549.035C993.272,1549.035 985.59,1474.643 975.571,1429.224C975.571,1429.224 965.886,1369.443 948.854,1350.741C948.854,1350.741 928.816,1323.69 899.093,1323.356M885.495,1424.779C885.495,1424.779 918.002,1531.465 922.9,1560.056" style="fill:none;stroke:black;stroke-width:4.17px;"/>
                <g transform="matrix(1,0,0,1,0.925382,0.623644)">
                    <path d="M928.594,1564.93C928.594,1564.93 941.418,1542.22 949.968,1532.601" style="fill:none;stroke:black;stroke-width:4.17px;"/>
                </g>
                <g transform="matrix(1,0,0,1,0.925382,0.623644)">
                    <path d="M921.974,1559.432L921.536,1569.913C921.536,1569.913 928.215,1708.176 925.209,1717.527C925.209,1717.527 978.347,1721.182 985.175,1731.275C985.175,1731.275 992.096,1668.935 992.346,1662.404C992.597,1655.873 996.159,1589.376 995.269,1584.033C994.378,1578.689 993.283,1549.894 992.346,1546.034" style="fill:none;stroke:black;stroke-width:4.17px;"/>
                </g>
            </g>
        </g>
    </g>
</svg>
