<?xml version="1.0" encoding="UTF-8" standalone="no"?>
<!DOCTYPE svg PUBLIC "-//W3C//DTD SVG 1.1//EN" "http://www.w3.org/Graphics/SVG/1.1/DTD/svg11.dtd">
<svg width="100%" height="100%" viewBox="0 0 400 474" version="1.1" xmlns="http://www.w3.org/2000/svg" xmlns:xlink="http://www.w3.org/1999/xlink" xml:space="preserve" xmlns:serif="http://www.serif.com/" style="fill-rule:evenodd;clip-rule:evenodd;stroke-linecap:round;stroke-linejoin:round;stroke-miterlimit:1.5;">
    <g transform="matrix(1,0,0,1,-654.777506,-1555.412661)">
        <g transform="matrix(1,0,0,1,0,3)">
            <g id="l-hand" serif:id="l hand" transform="matrix(1,0,0,1,81.710925,-16.772633)">
                <path d="M663.175,1636.901C663.175,1636.901 616.283,1640.441 602.687,1695.438C602.687,1695.438 597.771,1732.414 604.611,1751.865C604.611,1751.865 600.336,1770.46 602.901,1790.124C602.901,1790.124 603.328,1814.277 603.115,1819.62C603.115,1819.62 590.931,1886.735 589.649,1893.574C589.649,1893.574 582.596,1949.147 582.168,1955.559C581.741,1961.971 575.15,2020.108 575.15,2020.108C575.15,2020.108 608.031,2024.561 620.641,2040.716L637.74,2001.727C637.74,2001.727 658.687,1951.284 659.542,1947.437C660.397,1943.589 666.595,1912.17 666.595,1909.605C666.595,1907.04 669.374,1880.75 669.374,1880.75L676.427,1838.808L684.122,1772.384L687.3,1749.086C687.3,1749.086 713.404,1632.146 663.175,1636.901Z" style="fill:rgb(29,29,29);"/>
                <path d="M687.3,1749.273C687.3,1749.273 674.386,1855.984 669.806,1876.976C669.806,1876.976 665.226,1930.793 658.737,1949.877C658.737,1949.877 625.531,2032.701 620.951,2040.716C620.951,2040.716 603.776,2021.25 575.15,2019.724C575.15,2019.724 586.6,1899.877 590.417,1890.335C590.417,1890.335 598.051,1854.839 599.959,1843.388C599.959,1843.388 604.921,1816.671 603.776,1809.037C603.776,1809.037 600.722,1763.618 604.539,1752.931C604.539,1752.931 592.325,1701.404 611.791,1672.397C611.791,1672.397 627.058,1641.862 663.318,1636.901" style="fill:none;stroke:black;stroke-width:4.17px;"/>
                <path d="M621.651,1854.394C621.651,1854.394 638.127,1874.432 641.244,1892.689" style="fill:none;stroke:black;stroke-width:4.17px;"/>
            </g>
            <g id="body">
                <g transform="matrix(1,0,0,1,0,-3)">
                    <path d="M962.325,1712.937C962.325,1712.937 950.035,1782.135 948.165,1791.754C948.165,1791.754 939.883,1820.876 940.684,1830.494C940.684,1830.494 943.356,1852.669 948.966,1862.822C948.966,1862.822 972.745,1915.188 975.15,1920.799C975.15,1920.799 983.165,1943.509 984.501,1947.784C984.501,1947.784 993.852,1991.867 993.317,1995.074C993.317,1995.074 934.331,2020.322 861.6,2013.241L857.741,1958.367L854.476,1875.246L851.21,1808.749C851.21,1808.749 848.835,1745.814 850.32,1736.909C850.32,1736.909 853.288,1672.787 854.179,1668.037C854.179,1668.037 856.852,1647.163 860.699,1629.028C860.699,1629.028 857.055,1610.454 853.699,1597.725L882.757,1557.496C882.757,1557.496 889.693,1566.562 900.519,1584.099C900.519,1584.099 944.603,1611.527 953.954,1615.847C953.954,1615.847 1015.196,1643.902 962.325,1712.937Z" style="fill:rgb(29,29,29);"/>
                    <clipPath id="_clip1">
                        <path d="M962.325,1712.937C962.325,1712.937 950.035,1782.135 948.165,1791.754C948.165,1791.754 939.883,1820.876 940.684,1830.494C940.684,1830.494 943.356,1852.669 948.966,1862.822C948.966,1862.822 972.745,1915.188 975.15,1920.799C975.15,1920.799 983.165,1943.509 984.501,1947.784C984.501,1947.784 993.852,1991.867 993.317,1995.074C993.317,1995.074 934.331,2020.322 861.6,2013.241L857.741,1958.367L854.476,1875.246L851.21,1808.749C851.21,1808.749 848.835,1745.814 850.32,1736.909C850.32,1736.909 853.288,1672.787 854.179,1668.037C854.179,1668.037 856.852,1647.163 860.699,1629.028C860.699,1629.028 857.055,1610.454 853.699,1597.725L882.757,1557.496C882.757,1557.496 889.693,1566.562 900.519,1584.099C900.519,1584.099 944.603,1611.527 953.954,1615.847C953.954,1615.847 1015.196,1643.902 962.325,1712.937Z"/>
                    </clipPath>
                    <g clip-path="url(#_clip1)">
                        <g transform="matrix(0.025156,0,0,0.025156,885.976348,1713.128508)">
                            <g transform="matrix(1,0,0,1,-3643.75,-5168.75)">
                                <g id="alo-yoga-1.jpg" transform="matrix(4.903158,0,0,4.903158,1383.333333,2983.333333)">
                                    <path d="M526.5,163.05C530.783,163.219 531.899,161.739 532.591,164.475C532.776,165.206 532.68,441.658 532.639,442.524C532.514,445.183 523.948,444.34 521.5,444.34C500.215,444.34 498.333,445.156 498.31,441.506C498.309,441.322 498.303,166.24 498.313,165.49C498.356,162.433 500.048,163.05 526.5,163.05Z" style="fill:rgb(254,254,254);"/>
                                    <path d="M372.42,277.083C376.079,276.525 397.741,273.223 418.467,281.584C436.251,288.758 434.854,291.27 436.465,291.624C440.904,292.6 434.476,281.303 441.499,281.304C470.944,281.31 472.28,280.858 472.538,283.497C472.55,283.625 472.602,441.955 472.51,442.502C472.142,444.685 471.084,444.354 441.5,444.343C436.771,444.341 438.148,442.196 438.17,437.502C438.201,430.732 434.708,436.415 425.306,441.145C357.045,475.491 286.21,408.034 305.863,339.605C321.679,284.539 370.873,277.453 372.42,277.083ZM388.501,311.113C384.998,311.191 362.481,311.696 348.885,329.813C315.927,373.73 358.062,423.486 397.582,413.863C456.799,399.443 448.001,313.637 388.501,311.113Z" style="fill:rgb(254,254,254);"/>
                                    <path d="M621.423,277.062C627.428,276.159 665.367,270.454 694.124,298.871C758.208,362.194 700.197,464.742 620.466,448.673C552.6,434.995 533.227,351.858 570.784,307.736C589.789,285.409 604.735,281.04 621.423,277.062ZM635.498,311.113C580.651,313.623 569.337,386.262 613.65,409.214C664.587,435.597 713.862,366.637 670.352,324.652C657.412,312.165 638.486,311.257 635.498,311.113Z" style="fill:rgb(254,254,254);"/>
                                </g>
                            </g>
                        </g>
                    </g>
                </g>
                <g transform="matrix(1,0,0,1,0,-3)">
                    <path d="M802.785,1587.569C802.785,1587.569 795.438,1600.514 793.434,1608.068C793.434,1608.068 776.401,1674.735 774.731,1685.088C774.731,1685.088 761.039,1744.868 761.039,1751.214C761.039,1757.559 762.041,1796.633 762.375,1807.988C762.709,1819.343 764.771,1866.099 765.076,1875.45C765.38,1884.801 766.775,1917.864 765.076,1928.551C763.377,1939.238 761.707,2014.23 761.707,2014.23C761.707,2014.23 720.525,2015.049 711.559,2004.696C711.559,2004.696 715.285,1974.638 716.287,1970.965C717.289,1967.291 725.638,1934.228 727.308,1929.553C728.978,1924.877 737.925,1888.475 739.296,1883.799C740.667,1879.123 744.006,1866.099 743.672,1860.087C743.338,1854.076 734.655,1820.011 731.65,1815.335C731.65,1815.335 712.279,1793.294 707.604,1776.261C702.928,1759.229 699.923,1757.893 701.258,1740.193C701.258,1740.193 706.832,1703.306 731.264,1677.902C731.264,1677.902 731.909,1666.619 729.831,1663.65C729.831,1663.65 709.278,1637.335 739.296,1623.626C739.296,1623.626 762.322,1608.89 765.076,1608.068C765.076,1608.068 783.138,1598.248 786.701,1592.399C786.701,1592.399 796.012,1577.746 799.106,1577.709L803.793,1571.92L802.785,1587.569Z" style="fill:rgb(29,29,29);"/>
                </g>
                <path d="M785.388,1591.545C774.162,1597.677 747.376,1615.347 739.296,1620.626" style="fill:none;stroke:black;stroke-width:4.17px;"/>
                <path d="M900.713,1581.334C913.905,1590.125 935.296,1603.63 954.559,1612.42" style="fill:none;stroke:black;stroke-width:4.17px;"/>
                <path d="M993.085,1992.577C993.085,1992.577 990.175,1951.999 971.854,1910.015C971.854,1910.015 943.992,1852.381 942.084,1840.931C942.084,1840.931 939.412,1828.336 942.084,1816.504C944.755,1804.672 961.167,1718.412 961.931,1710.397" style="fill:none;stroke:black;stroke-width:4.17px;"/>
                <path d="M729.68,1659.751C729.68,1659.751 732.945,1669.547 730.867,1674C730.867,1674 691.427,1719.42 702.114,1758.308C702.114,1758.308 706.609,1783.584 732.606,1813.609C732.606,1813.609 738.331,1829.597 742.148,1848.257C745.658,1865.417 737.695,1886.255 734.726,1898.427C731.758,1910.598 717.657,1958.448 715.319,1975.147C714.287,1982.519 713.002,1990.214 711.312,2001.65" style="fill:none;stroke:black;stroke-width:4.17px;"/>
                <path d="M899.214,1580.103C893.458,1568.817 889.513,1563.325 884.003,1554.496L853.728,1594.885C853.728,1594.885 856.621,1602.487 859.696,1617.909C862.719,1633.071 854.132,1654.354 852.4,1684.139C852.4,1684.139 848.197,1734.676 851.759,1806.368C855.322,1878.06 858.528,1991.654 861.2,2010.356C861.2,2010.356 937.971,2017.2 993.085,1992.577" style="fill:none;stroke:black;stroke-width:4.17px;"/>
                <g transform="matrix(1,0,0,1,0,-3)">
                    <path d="M711.559,2004.65C711.559,2004.65 729.009,2014.424 761.696,2014.23C761.696,2014.23 765.269,1885.513 765.076,1865.92C764.883,1846.327 758.649,1773.3 760.875,1751.48C760.875,1751.48 787.148,1608.295 801.842,1588.159" style="fill:none;stroke:black;stroke-width:4.17px;"/>
                </g>
                <path d="M802.349,1585.627C802.349,1585.627 803.222,1581.722 803.24,1568.66C803.24,1568.66 796.819,1576.916 785.388,1591.545" style="fill:none;stroke:black;stroke-width:4.17px;"/>
            </g>
            <g id="r-hand" serif:id="r hand" transform="matrix(1,0,0,1,-50.76319,8.015241)">
                <path d="M984.315,1698.89L987.822,1708.508C987.822,1708.508 994.502,1762.21 1005.189,1795.34C1005.189,1795.34 1022.983,1858.687 1023.837,1860.825C1024.692,1862.962 1023.624,1868.092 1023.624,1868.092C1023.624,1868.092 1024.906,1901.863 1026.402,1912.763L1028.967,1937.985L1031.318,2003.389C1031.318,2003.389 1055.257,1997.404 1071.501,2002.748L1088.387,2010.576L1090.311,1999.755L1098.433,1924.733L1102.552,1888.183C1102.552,1888.183 1098.646,1847.145 1097.791,1842.229C1096.936,1837.313 1095.013,1799.909 1095.013,1799.909C1095.013,1799.909 1093.944,1752.886 1092.662,1746.474L1084.967,1713.344C1084.967,1713.344 1086.891,1701.375 1085.395,1694.963C1085.395,1694.963 1079.41,1660.978 1076.631,1655.634C1076.631,1655.634 1061.456,1628.062 1057.822,1625.711C1057.822,1625.711 1031.746,1602.658 1005.67,1604.566C1005.67,1604.566 944.259,1611.497 984.315,1698.89Z" style="fill:rgb(29,29,29);"/>
                <path d="M1006.739,1604.566C1006.739,1604.566 1088.513,1603.946 1085.365,1714.108C1085.365,1714.108 1094.429,1739.966 1094.429,1769.356C1094.429,1769.356 1095.574,1821.646 1097.864,1843.02C1097.864,1843.02 1104.353,1880.424 1102.063,1897.218C1102.063,1897.218 1090.231,2005.614 1088.704,2010.576C1088.704,2010.576 1068.094,1993.401 1031.452,2004.469C1031.452,2004.469 1028.781,1921.645 1024.582,1896.073C1024.582,1896.073 1022.674,1868.974 1023.819,1862.103C1023.819,1862.103 992.012,1757.874 987.941,1708.287L984.315,1699.668" style="fill:none;stroke:black;stroke-width:4.17px;"/>
                <path d="M1030.804,1854.394C1030.804,1854.394 1040.422,1834.546 1048.971,1827.6" style="fill:none;stroke:black;stroke-width:4.17px;"/>
            </g>
        </g>
    </g>
</svg>
