<?xml version="1.0" encoding="UTF-8" standalone="no"?>
<svg width="100%" height="100%" viewBox="0 0 527 572" version="1.1" xmlns="http://www.w3.org/2000/svg" xmlns:xlink="http://www.w3.org/1999/xlink" xml:space="preserve" xmlns:serif="http://www.serif.com/" style="fill-rule:evenodd;clip-rule:evenodd;stroke-linecap:round;stroke-linejoin:round;stroke-miterlimit:1.5;">
    <g transform="matrix(1,0,0,1,-611.242389,-920.094106)">
        <g transform="matrix(1,0,0,1,253.700265,-100.729758)">
            <g id="l-hand" serif:id="l hand" transform="matrix(1,0,0,1,104.705558,-24.751549)">
                <g>
                    <path d="M344.133,1128.014L319.595,1137.856L302.964,1151.797L289.516,1173.007L283.371,1196.786L278.829,1253.694L273.782,1324.837L270.517,1373.522L263.689,1445.362L259.83,1491.376C259.83,1491.376 258.185,1513.046 254.92,1533.53L254.92,1564.953C254.92,1564.953 327.217,1571.691 334.431,1585.493L343.545,1553.82L347.129,1542.473C347.129,1542.473 349.534,1533.234 353.274,1512.472L370.373,1433.198L378.723,1358.723L389.907,1248.38L389.907,1240.157C389.907,1240.157 415.278,1121.163 344.133,1128.014Z" style="fill:rgb(117,140,178);"/>
                    <path d="M259.533,1532.046L256.607,1560.254L253.936,1564.902L258.761,1565.116C258.761,1565.116 327.158,1570.007 331.005,1580.505L340.41,1549.965C340.41,1549.965 319.036,1521.324 261.967,1532.652" style="fill:rgb(117,140,178);"/>
                </g>
                <path d="M343.088,1554.536C343.088,1554.536 376.739,1426.887 377.439,1367.593C377.439,1367.593 386.344,1259.929 389.907,1240.157M254.92,1565.646C254.92,1565.646 314.843,1568.318 334.309,1585.493L343.088,1554.536M346.001,1128.014C346.001,1128.014 284.016,1134.426 281.879,1213.51C281.879,1213.51 273.33,1318.242 271.726,1356.181C271.726,1356.181 255.76,1527.631 254.92,1565.646" style="fill:none;stroke:black;stroke-width:4.17px;"/>
                <g transform="matrix(1,0,0,1,-0.754951,20.179644)">
                    <path d="M299.926,1327.234C299.926,1327.234 336.873,1343.831 344.888,1367.593" style="fill:none;stroke:black;stroke-width:4.17px;"/>
                </g>
            </g>
            <g id="body">
                <g>
                    <path d="M702.174,1058.069L779.272,1102.343L805.751,1118.111C805.751,1118.111 865.961,1163.269 816.82,1269.614L806.82,1295.027C806.82,1295.027 788.372,1371.14 787.227,1384.88C787.227,1384.88 782.119,1457.738 785.57,1494.685C785.57,1494.685 785.938,1496.82 785.57,1523.412C785.57,1523.412 785.035,1546.913 785.57,1551.188C785.57,1551.188 732.547,1589.36 617.41,1590.529L612.683,1554.127C612.683,1554.127 599.191,1382.913 601.417,1367.773C601.417,1367.773 594.947,1225.725 597.514,1186.539C597.514,1186.539 598.533,1143.469 600.823,1139.045C600.823,1139.045 605.074,1140.542 610.808,1125.97C613.581,1118.922 613.846,1099.978 620.315,1096.288C628.978,1091.347 633.058,1086.092 635.408,1083.978C635.408,1083.978 670.715,1045.115 680.507,1022.907L688.614,1025.846C688.614,1025.846 698.74,1056.921 702.174,1058.069Z" style="fill:rgb(117,140,178);"/>
                    <path d="M527.374,1043.602L527.374,1052.15L528.057,1059.418L525.222,1069.998L524.474,1081.334L523.779,1095.433L522.711,1109.952C522.711,1109.952 481.581,1381.491 484.252,1584.847C484.252,1584.847 437.163,1576.967 426.142,1561.604C426.142,1561.604 428.146,1539.228 427.144,1534.219C427.144,1534.219 427.194,1526.698 426.581,1509.999C426.581,1509.999 425.514,1471.232 424.846,1452.731L426.142,1387.941C426.142,1387.941 419.575,1228.885 419.439,1217.435C419.439,1217.435 389.772,1157.289 415.734,1118.087C415.734,1118.087 429.672,1107.328 441.027,1099.98C452.382,1092.633 484.443,1076.603 494.128,1070.591C503.813,1064.58 507.153,1061.574 507.153,1061.574L518.709,1044.654L527.374,1043.602Z" style="fill:rgb(117,140,178);"/>
                    <path d="M427.713,1533.431L425.843,1560.415L443.477,1572.171L481.415,1584.847L483.286,1556.942C483.286,1556.942 460.843,1551.064 451.759,1546.789C442.675,1542.515 427.713,1533.431 427.713,1533.431Z" style="fill:rgb(117,140,178);"/>
                    <path d="M613.667,1556.556L616.606,1589.337C616.606,1589.337 693.499,1585.821 707.418,1578.874C707.418,1578.874 775.367,1562.961 784.718,1552.014C784.718,1552.014 785.794,1525.015 785.527,1523.412C785.527,1523.412 716.796,1548.726 667.369,1550.864L613.667,1556.556Z" style="fill:rgb(117,140,178);"/>
                </g>
                <path d="M427.178,1533.003C427.178,1533.003 423.081,1316.197 421.478,1257.953L419.741,1203.449M514.285,1161.641C516.543,1147.418 508.687,1128.775 508.687,1128.775L512.695,1113.413L508.353,1105.731C506.683,1107.401 474.956,1122.096 474.956,1122.096C476.96,1115.416 502.476,1065.988 502.476,1065.988C509.958,1059.307 519.374,1044.281 519.374,1044.281L528.057,1041.943C528.057,1041.943 522.601,1110.324 518.895,1132.424C508.249,1195.917 487.121,1349.283 483.157,1584.847C483.157,1584.847 439.773,1576.896 426.033,1560.865C426.033,1560.865 427.559,1535.675 427.178,1533.003" style="fill:none;stroke:black;stroke-width:4.17px;"/>
                <g transform="matrix(1,0,0,1,-253.700265,100.729758)">
                    <path d="M854.563,1039.031C854.563,1039.031 865.25,1028.711 867.587,1017.357C869.925,1006.003 871.261,1003.666 871.261,998.322C871.261,998.322 914.343,964.925 934.047,922.177L942.73,924.849C942.73,924.849 946.07,944.219 954.419,956.91C954.419,956.91 942.396,1016.357 932.711,1031.719C932.711,1031.719 918.685,1032.387 884.62,1001.328L876.939,1003.332" style="fill:none;stroke:black;stroke-width:4.17px;"/>
                </g>
                <path d="M502.476,1065.988C502.476,1065.988 426.51,1105.174 415.734,1118.087" style="fill:none;stroke:black;stroke-width:4.17px;"/>
                <path d="M701.124,1058.187C701.124,1058.187 786.286,1107.519 804.988,1118.087" style="fill:none;stroke:black;stroke-width:4.17px;"/>
                <path d="M600.168,1139.76C596.758,1201.399 592.579,1356.938 616.201,1590.524C616.201,1590.524 733.735,1584.576 785.5,1552.181C785.5,1552.181 784.164,1533.478 786.279,1524.684C786.279,1524.684 785.5,1522.235 785.166,1494.961C785.166,1494.961 782.161,1432.731 787.17,1385.308C787.17,1385.308 802.31,1293.459 817.323,1267.663" style="fill:none;stroke:black;stroke-width:4.17px;"/>
                <path d="M419.439,1217.435C419.439,1217.435 389.127,1155.603 414.97,1120.107" style="fill:none;stroke:black;stroke-width:4.17px;"/>
                <g transform="matrix(1,0,0,1,-253.700265,100.729758)">
                    <path d="M869.716,1118.336C869.716,1118.336 865.899,1141.619 867.426,1146.581C867.426,1146.581 903.303,1162.229 907.502,1164.519C907.502,1164.519 957.12,1153.451 962.464,1151.161C962.464,1151.161 967.425,1128.642 967.807,1125.97" style="fill:none;stroke:black;stroke-width:4.17px;"/>
                </g>
                <g transform="matrix(1,0,0,1,-253.700265,100.729758)">
                    <path d="M869.716,1118.336C869.716,1118.336 953.43,1125.215 967.807,1125.97" style="fill:rgb(117,140,178);stroke:black;stroke-width:4.17px;"/>
                </g>
                <g transform="matrix(1,0,0,1,-253.700265,100.729758)">
                    <path d="M682.948,1113.366C682.948,1113.366 740.581,1114.511 751.65,1114.511" style="fill:rgb(117,140,178);stroke:black;stroke-width:4.17px;"/>
                </g>
                <g transform="matrix(1,0,0,1,-253.700265,100.729758)">
                    <path d="M874.016,1149.464C874.016,1149.464 870.193,1208.961 870.527,1223.322C870.527,1223.322 901.92,1257.387 964.372,1228.331C964.372,1228.331 971.719,1137.158 973.055,1129.143" style="fill:none;stroke:black;stroke-width:4.17px;"/>
                </g>
                <g transform="matrix(1,0,0,1,-253.700265,100.729758)">
                    <path d="M682.153,1116.705C682.153,1116.705 681.262,1130.221 680.965,1137.94C680.965,1137.94 707.089,1150.705 709.761,1153.673C709.761,1153.673 746.275,1140.463 749.54,1141.428C749.54,1141.428 751.024,1122.484 752.509,1116.705" style="fill:none;stroke:black;stroke-width:4.17px;"/>
                </g>
                <g transform="matrix(1,0,0,1,-253.700265,100.729758)">
                    <path d="M683.702,1139.29C683.702,1139.29 683.043,1200.281 683.34,1206.218C683.34,1206.218 699.074,1230.56 743.603,1211.858C743.603,1211.858 747.462,1153.219 748.65,1141.72" style="fill:none;stroke:black;stroke-width:4.17px;"/>
                </g>
            </g>
            <g id="r-hand" serif:id="r hand" transform="matrix(1,0,0,1,-113.805942,-17.82059)">
                <g>
                    <path d="M850.836,1291.19L865.585,1360.652L874.016,1411.992L874.016,1421.152L874.074,1517.929L871.068,1536.731C871.068,1536.731 868.206,1539.6 874.016,1544.053L870.623,1581.457L886.95,1581.754C886.95,1581.754 956.931,1583.391 970.29,1600.166L978.438,1561.983C978.438,1561.983 978.903,1559.593 981.763,1539.991C981.763,1539.991 995.79,1415.751 995.993,1416.048C995.993,1416.048 982.539,1299.678 982.836,1293.444C982.836,1293.444 967.103,1199.933 962.353,1190.73C962.353,1190.73 953.791,1163.563 919.356,1138.311C919.356,1138.311 816.884,1097.223 849.301,1281.18" style="fill:rgb(117,140,178);"/>
                    <path d="M874.016,1544.053L871.101,1576.19L870.393,1580.713C870.393,1580.713 952.623,1580.596 965.091,1599.653C965.091,1599.653 974.082,1564.499 976.266,1561.474C978.45,1558.449 976.266,1558.922 976.266,1558.922L973.107,1556.371C973.107,1556.371 945.202,1533.809 881.08,1543.606L874.016,1544.053Z" style="fill:rgb(117,140,178);"/>
                    <path d="M849.301,1283.092L864.864,1225.983C864.864,1225.983 893.585,1151.508 943.346,1159.189L916.626,1135.533C916.626,1135.533 809.915,1098.017 849.301,1283.092Z" style="fill:rgb(117,140,178);"/>
                </g>
                <path d="M970.086,1599.987C980.63,1566.352 994.084,1438.967 995.993,1416.83C995.993,1416.83 981.552,1255.857 969.975,1222.46C969.975,1222.46 963.55,1166.067 918.13,1135.533M849.301,1284.527C849.301,1284.527 870.944,1376.97 874.016,1414.374C874.016,1414.374 875.484,1519.565 872.278,1535.595C872.278,1535.595 867.306,1538.394 874.016,1544.978C874.016,1544.978 872.268,1566.902 870.581,1581.369C870.581,1581.369 947.567,1579.377 970.086,1599.987" style="fill:none;stroke:black;stroke-width:4.17px;"/>
                <path d="M849.301,1284.527C849.301,1284.527 868.402,1149.95 943.596,1159.599" style="fill:none;stroke:black;stroke-width:4.17px;"/>
                <path d="M896.449,1413.089C896.449,1413.089 929.733,1370.189 951.998,1367.593" style="fill:none;stroke:black;stroke-width:4.17px;"/>
            </g>
        </g>
    </g>
</svg>
