<?xml version="1.0" encoding="UTF-8" standalone="no"?>
<!DOCTYPE svg PUBLIC "-//W3C//DTD SVG 1.1//EN" "http://www.w3.org/Graphics/SVG/1.1/DTD/svg11.dtd">
<svg width="100%" height="100%" viewBox="0 0 1749 2481" version="1.1" xmlns="http://www.w3.org/2000/svg" xmlns:xlink="http://www.w3.org/1999/xlink" xml:space="preserve" xmlns:serif="http://www.serif.com/" style="fill-rule:evenodd;clip-rule:evenodd;stroke-linecap:round;stroke-linejoin:round;stroke-miterlimit:1.5;">
    <g transform="matrix(1,0,0,1,253.700265,-100.729758)">
        <g id="l-hand" serif:id="l hand" transform="matrix(1,0,0,1,102.862254,-25.088702)">
            <g>
                <path d="M344.133,1128.014L319.595,1137.856L302.964,1151.797L289.516,1173.007L283.371,1196.786L278.829,1253.694L273.782,1324.837L270.517,1373.522L263.689,1445.362L259.83,1491.376C259.83,1491.376 246.768,1519.577 259.533,1532.046L256.089,1565.249C256.089,1565.249 323.952,1568.638 331.165,1582.44L339.982,1550.555L358.15,1538.799C358.15,1538.799 364.562,1524.885 362.959,1508.464L372.043,1420.174L378.723,1358.723L389.907,1248.38L389.907,1240.157C389.907,1240.157 415.278,1121.163 344.133,1128.014Z" style="fill:rgb(43,43,43);"/>
                <path d="M259.533,1532.046L256.607,1560.254L253.936,1564.902L258.761,1565.116C258.761,1565.116 327.158,1570.007 331.005,1580.505L340.41,1549.965C340.41,1549.965 319.036,1521.324 261.967,1532.652" style="fill:rgb(43,43,43);"/>
            </g>
            <path d="M346.001,1128.014C346.001,1128.014 284.016,1134.426 281.879,1213.51C281.879,1213.51 273.33,1318.242 271.726,1356.181C271.726,1356.181 261.574,1469.463 259.971,1492.974C259.971,1492.974 253.868,1505.179 253.423,1516.947C253.183,1523.274 257.918,1527.471 259.436,1533.585C259.436,1533.585 255.683,1559.539 254.92,1565.646C254.92,1565.646 312.172,1565.264 331.637,1582.44L340.416,1549.956C340.416,1549.956 341.712,1549.174 356.329,1540.411C357.938,1539.447 362.603,1538.224 363.316,1506.867C363.316,1506.867 375.212,1385.666 377.439,1367.593C377.439,1367.593 386.344,1259.929 389.907,1240.157" style="fill:none;stroke:black;stroke-width:4.17px;"/>
            <path d="M259.436,1533.585C259.436,1533.585 314.78,1521.009 340.416,1549.956" style="fill:none;stroke:black;stroke-width:4.17px;"/>
            <g transform="matrix(1,0,0,1,-0.754951,20.179644)">
                <path d="M299.926,1327.234C299.926,1327.234 336.873,1343.831 344.888,1367.593" style="fill:none;stroke:black;stroke-width:4.17px;"/>
            </g>
        </g>
        <g id="body">
            <g>
                <path d="M735.838,1078.107L779.272,1102.343L805.751,1118.111C805.751,1118.111 865.961,1163.269 816.82,1269.614L806.82,1295.027C806.82,1295.027 788.372,1371.14 787.227,1384.88C787.227,1384.88 783.029,1457.781 789.899,1493.659C789.899,1493.659 795.2,1502.31 771.748,1528.731C771.748,1528.731 769.165,1554.127 769.7,1558.402C769.7,1558.402 732.547,1589.36 617.41,1590.529L612.683,1554.127C612.683,1554.127 599.191,1382.913 601.417,1367.773C601.417,1367.773 594.947,1225.725 597.514,1186.539C597.514,1186.539 600.908,1114.377 603.198,1109.952C603.198,1109.952 625.87,1073.224 635.889,1064.207C635.889,1064.207 650.447,1055.387 668.77,1035.613C671.879,1032.258 674.946,1029.9 675.16,1025.445C675.636,1015.515 674.475,1001.065 675.16,994.931L694.093,994.931L718.698,1005.754C718.698,1005.754 717.583,1021.972 722.905,1035.613C727.03,1046.188 730.845,1057.218 736.977,1063.456C744.072,1070.674 734.728,1077.736 735.838,1078.107Z" style="fill:rgb(43,43,43);"/>
                <path d="M520.695,1029.708L521.909,1056.425L531.528,1083.677L556.909,1101.311L572.94,1095.765L602.062,1083.677L641.069,1061.594C641.069,1061.594 617.644,1387.174 620.315,1590.529C620.315,1590.529 489.834,1593.379 426.142,1561.604C426.142,1561.604 428.146,1539.228 427.144,1534.219C427.144,1534.219 420.354,1525.202 419.741,1508.503C419.741,1508.503 423.804,1469.095 428.48,1452.731L426.142,1387.941C426.142,1387.941 419.575,1228.885 419.439,1217.435C419.439,1217.435 389.772,1157.289 415.734,1118.087C415.734,1118.087 429.672,1107.328 441.027,1099.98C452.382,1092.633 475.894,1079.454 485.579,1073.443C488.376,1071.707 479.165,1072.807 484.321,1063.745C489.818,1054.083 486.854,1029.933 488.316,1023.733C490.438,1014.728 502.077,1025.773 502.077,1025.773L520.695,1029.708Z" style="fill:rgb(43,43,43);"/>
            </g>
            <path d="M615.746,1590.529C615.746,1590.529 494.989,1596.043 426.033,1560.865C426.033,1560.865 427.559,1535.675 427.178,1533.003C427.178,1533.003 411.147,1519.263 428.704,1452.087C428.704,1452.087 423.081,1316.197 421.478,1257.953L419.741,1203.449" style="fill:none;stroke:black;stroke-width:4.17px;"/>
            <path d="M488.316,1073.443C465.797,1085.458 423.562,1108.706 415.734,1118.087" style="fill:none;stroke:black;stroke-width:4.17px;"/>
            <g transform="matrix(1,0,0,1,-253.700265,100.729758)">
                <path d="M793.699,989.809C793.699,989.809 739.262,947.302 756.962,931.877" style="fill:none;stroke:black;stroke-width:4.17px;"/>
            </g>
            <path d="M724.488,1071.712C751.134,1087.126 792.612,1111.094 804.988,1118.087" style="fill:none;stroke:black;stroke-width:4.17px;"/>
            <path d="M616.201,1590.524C616.201,1590.524 717.705,1591.7 769.47,1559.305C769.47,1559.305 770.806,1533.924 771.14,1528.246C771.14,1528.246 793.515,1508.876 789.174,1491.844C789.174,1491.844 782.161,1432.731 787.17,1385.308C787.17,1385.308 802.31,1293.459 817.323,1267.663" style="fill:none;stroke:black;stroke-width:4.17px;"/>
            <path d="M771.14,1528.246C771.14,1528.246 748.888,1544.533 617.082,1556.556" style="fill:none;stroke:black;stroke-width:4.17px;"/>
            <path d="M428.723,1533.4C428.723,1533.4 448.316,1556.556 615.746,1557.001" style="fill:none;stroke:black;stroke-width:4.17px;"/>
            <g transform="matrix(1,0,0,1,-253.700265,100.729758)">
                <path d="M877.525,970.982C877.525,970.982 980.387,919.458 958.011,909.439" style="fill:none;stroke:black;stroke-width:4.17px;"/>
            </g>
            <g transform="matrix(1,0,0,1,-253.700265,100.729758)">
                <path d="M682.424,1352.276C684.841,1346.398 699.268,1304.719 705.146,1291.895C705.146,1291.895 915.68,1294.032 926.367,1290.826C926.367,1290.826 949.344,1367.238 1002.244,1387.543" style="fill:none;stroke:black;stroke-width:4.17px;"/>
            </g>
            <g transform="matrix(1,0,0,1,-253.700265,100.729758)">
                <path d="M928.86,894.72C928.86,894.72 927.715,921.82 928.097,927.545C928.097,927.545 902.588,970.579 811.304,1000.064C811.304,1000.064 781.533,992.812 775.807,953.881L775.044,929.071C775.044,929.071 754.815,927.163 745.655,918.766C745.655,918.766 740.693,919.53 740.311,922.965C740.311,922.965 746.418,941.903 738.021,968.693C738.021,968.693 759.065,996.247 771.444,1004.644C771.444,1004.644 803.67,1008.461 804.433,1007.697" style="fill:none;stroke:black;stroke-width:4.17px;"/>
            </g>
            <g transform="matrix(1,0,0,1,-253.700265,100.729758)">
                <path d="M812.067,1007.798C812.067,1007.798 844.128,1011.716 855.578,1007.798C855.578,1007.798 973.517,967.857 984.204,969.457" style="fill:none;stroke:black;stroke-width:4.17px;"/>
            </g>
            <g transform="matrix(1,0,0,1,-253.700265,100.729758)">
                <path d="M989.738,975.565C989.738,975.565 995.749,971.984 992.41,965.258C992.41,965.258 972.372,940.498 971.37,905.431C971.37,905.431 954.481,891.357 928.86,894.72" style="fill:none;stroke:black;stroke-width:4.17px;"/>
            </g>
            <path d="M419.439,1217.435C419.439,1217.435 389.127,1155.603 414.97,1120.107" style="fill:none;stroke:black;stroke-width:4.17px;"/>
        </g>
        <g id="r-hand" serif:id="r hand" transform="matrix(1,0,0,1,-111.637944,-16.412159)">
            <g>
                <path d="M850.836,1291.19L865.585,1360.652L874.016,1411.992L874.016,1421.152L869.732,1501.898L867.061,1527.132C867.061,1527.132 868.206,1539.6 874.016,1544.053L870.623,1581.457L886.95,1581.754C886.95,1581.754 950.775,1582.878 964.134,1599.653L976.899,1559.728C976.899,1559.728 982.836,1560.619 988.773,1542.214C988.773,1542.214 995.79,1415.751 995.993,1416.048C995.993,1416.048 982.539,1299.678 982.836,1293.444C982.836,1293.444 967.103,1199.933 962.353,1190.73C962.353,1190.73 953.791,1163.563 919.356,1138.311C919.356,1138.311 816.884,1097.223 849.301,1281.18" style="fill:rgb(43,43,43);"/>
                <path d="M874.016,1544.053L871.101,1576.19L870.393,1580.713C870.393,1580.713 952.623,1580.596 965.091,1599.653C965.091,1599.653 974.082,1564.499 976.266,1561.474C978.45,1558.449 976.266,1558.922 976.266,1558.922L973.107,1556.371C973.107,1556.371 945.202,1533.809 881.08,1543.606L874.016,1544.053Z" style="fill:rgb(43,43,43);"/>
                <path d="M849.301,1283.092L864.864,1225.983C864.864,1225.983 893.585,1151.508 943.346,1159.189L916.626,1135.533C916.626,1135.533 809.915,1098.017 849.301,1283.092Z" style="fill:rgb(43,43,43);"/>
            </g>
            <path d="M849.301,1284.527C849.301,1284.527 870.944,1376.97 874.016,1414.374C874.016,1414.374 870.141,1510.023 866.934,1526.053C866.934,1526.053 867.306,1538.394 874.016,1544.978C874.016,1544.978 872.268,1566.902 870.581,1581.369C870.581,1581.369 942.558,1579.043 965.077,1599.653C965.077,1599.653 975.764,1564.921 976.909,1561.486C976.909,1561.486 988.359,1551.18 988.359,1537.822C988.359,1537.822 994.084,1438.967 995.993,1416.83C995.993,1416.83 981.552,1255.857 969.975,1222.46C969.975,1222.46 963.55,1166.067 918.13,1135.533" style="fill:none;stroke:black;stroke-width:4.17px;"/>
            <path d="M849.301,1284.527C849.301,1284.527 868.402,1149.95 943.596,1159.599" style="fill:none;stroke:black;stroke-width:4.17px;"/>
            <path d="M896.449,1413.089C896.449,1413.089 929.733,1370.189 951.998,1367.593" style="fill:none;stroke:black;stroke-width:4.17px;"/>
            <path d="M874.016,1545.563C874.016,1545.563 935.656,1528.998 976.266,1558.922" style="fill:none;stroke:black;stroke-width:4.17px;"/>
        </g>
    </g>
</svg>
