<?xml version="1.0" encoding="UTF-8" standalone="no"?>
<!DOCTYPE svg PUBLIC "-//W3C//DTD SVG 1.1//EN" "http://www.w3.org/Graphics/SVG/1.1/DTD/svg11.dtd">
<svg width="100%" height="100%" viewBox="0 0 533 568" version="1.1" xmlns="http://www.w3.org/2000/svg" xmlns:xlink="http://www.w3.org/1999/xlink" xml:space="preserve" xmlns:serif="http://www.serif.com/" style="fill-rule:evenodd;clip-rule:evenodd;stroke-linecap:round;stroke-linejoin:round;stroke-miterlimit:1.5;">
    <g transform="matrix(1,0,0,1,-607.893337,-924.31523)">
        <g transform="matrix(1,0,0,1,253.700265,-100.729758)">
            <g id="l-hand" serif:id="l hand" transform="matrix(1,0,0,1,102.862254,-25.088702)">
                <g>
                    <path d="M344.133,1128.014L319.595,1137.856L302.964,1151.797L289.516,1173.007L283.371,1196.786L278.829,1253.694L273.782,1324.837L270.517,1373.522L263.689,1445.362L259.83,1491.376C259.83,1491.376 246.768,1519.577 259.533,1532.046L256.089,1565.249C256.089,1565.249 323.952,1568.638 331.165,1582.44L339.982,1550.555L358.15,1538.799C358.15,1538.799 364.562,1524.885 362.959,1508.464L372.043,1420.174L378.723,1358.723L389.907,1248.38L389.907,1240.157C389.907,1240.157 415.278,1121.163 344.133,1128.014Z" style="fill:rgb(43,43,43);"/>
                    <path d="M259.533,1532.046L256.607,1560.254L253.936,1564.902L258.761,1565.116C258.761,1565.116 327.158,1570.007 331.005,1580.505L340.41,1549.965C340.41,1549.965 319.036,1521.324 261.967,1532.652" style="fill:rgb(43,43,43);"/>
                </g>
                <path d="M346.001,1128.014C346.001,1128.014 284.016,1134.426 281.879,1213.51C281.879,1213.51 273.33,1318.242 271.726,1356.181C271.726,1356.181 261.574,1469.463 259.971,1492.974C259.971,1492.974 253.868,1505.179 253.423,1516.947C253.183,1523.274 257.918,1527.471 259.436,1533.585C259.436,1533.585 255.683,1559.539 254.92,1565.646C254.92,1565.646 312.172,1565.264 331.637,1582.44L340.416,1549.956C340.416,1549.956 341.712,1549.174 356.329,1540.411C357.938,1539.447 362.603,1538.224 363.316,1506.867C363.316,1506.867 375.212,1385.666 377.439,1367.593C377.439,1367.593 386.344,1259.929 389.907,1240.157" style="fill:none;stroke:black;stroke-width:4.17px;"/>
                <path d="M259.436,1533.585C259.436,1533.585 314.78,1521.009 340.416,1549.956" style="fill:none;stroke:black;stroke-width:4.17px;"/>
                <g transform="matrix(1,0,0,1,-0.754951,20.179644)">
                    <path d="M299.926,1327.234C299.926,1327.234 336.873,1343.831 344.888,1367.593" style="fill:none;stroke:black;stroke-width:4.17px;"/>
                </g>
            </g>
            <g id="body">
                <g>
                    <path d="M702.174,1058.069L779.272,1102.343L805.751,1118.111C805.751,1118.111 865.961,1163.269 816.82,1269.614L806.82,1295.027C806.82,1295.027 788.372,1371.14 787.227,1384.88C787.227,1384.88 783.029,1457.781 789.899,1493.659C789.899,1493.659 795.2,1502.31 771.748,1528.731C771.748,1528.731 769.165,1554.127 769.7,1558.402C769.7,1558.402 732.547,1589.36 617.41,1590.529L612.683,1554.127C612.683,1554.127 599.191,1382.913 601.417,1367.773C601.417,1367.773 594.947,1225.725 597.514,1186.539C597.514,1186.539 600.908,1114.377 603.198,1109.952C603.198,1109.952 632.015,1090.857 642.034,1081.84C642.034,1081.84 683.112,1051.901 679.438,1027.128L685.836,1027.128C685.836,1027.128 698.74,1056.921 702.174,1058.069Z" style="fill:rgb(43,43,43);"/>
                    <path d="M527.374,1043.602L527.374,1052.15L520.039,1062.837L518.169,1071.921L518.703,1081.807L524.848,1098.639L522.711,1109.952C522.711,1109.952 481.581,1381.491 484.252,1584.847C484.252,1584.847 437.163,1576.967 426.142,1561.604C426.142,1561.604 428.146,1539.228 427.144,1534.219C427.144,1534.219 420.354,1525.202 419.741,1508.503C419.741,1508.503 423.804,1469.095 428.48,1452.731L426.142,1387.941C426.142,1387.941 419.575,1228.885 419.439,1217.435C419.439,1217.435 389.772,1157.289 415.734,1118.087C415.734,1118.087 429.672,1107.328 441.027,1099.98C452.382,1092.633 484.443,1076.603 494.128,1070.591C503.813,1064.58 507.153,1061.574 507.153,1061.574L527.374,1043.602Z" style="fill:rgb(43,43,43);"/>
                    <g transform="matrix(1,0,0,1,-253.700265,100.729758)">
                        <path d="M673.842,1100.114L762.455,1099.669L754.885,1165.795L754.885,1169.993L754.503,1174.955C754.503,1174.955 677.071,1176.983 676.403,1173.309C675.735,1169.635 673.441,1105.179 673.441,1105.179L673.842,1100.114Z" style="fill:rgb(220,220,220);"/>
                    </g>
                    <g transform="matrix(1,0,0,1,-253.700265,100.729758)">
                        <path d="M851.214,1099.669L1011.373,1099.669L1007.174,1108.543L999.541,1130.299L994.579,1147.856L991.363,1167.385L991.363,1175.513C991.363,1175.513 861.666,1178.361 851.214,1175.513L851.214,1099.669Z" style="fill:rgb(220,220,220);"/>
                    </g>
                    <path d="M446.215,1406.341L428.315,1448.166L425.509,1464.451L422.392,1479.944L419.741,1493.302L430.407,1472.522L441.391,1440.758L455.344,1408.103L446.215,1406.341Z" style="fill:rgb(43,43,43);"/>
                    <path d="M427.713,1533.431L425.843,1560.415L443.477,1572.171L481.415,1584.847L483.286,1556.942C483.286,1556.942 460.843,1551.064 451.759,1546.789C442.675,1542.515 427.713,1533.431 427.713,1533.431Z" style="fill:rgb(43,43,43);"/>
                    <path d="M613.667,1556.556L616.606,1589.337C616.606,1589.337 693.499,1589.07 707.418,1582.123C707.418,1582.123 758.743,1570.085 768.094,1559.139C768.094,1559.139 770.765,1531.36 770.498,1529.757C770.498,1529.757 716.796,1548.726 667.369,1550.864L613.667,1556.556Z" style="fill:rgb(43,43,43);"/>
                    <path d="M743.162,1507.946L750.375,1493.302L722.589,1471.61C722.589,1471.61 687.322,1432.445 680.108,1406.341L665.948,1406.341C665.948,1406.341 682.78,1458.252 716.177,1486.572L743.162,1507.946Z" style="fill:rgb(43,43,43);"/>
                    <path d="M604.29,1109.952C604.29,1109.952 650.897,1103.043 668.412,1092.95C685.927,1082.856 686.086,1081.981 692.092,1075.836C698.098,1069.691 701.571,1063.278 701.304,1059.805C701.037,1056.332 699.167,1053.126 695.961,1048.584C692.755,1044.042 685.808,1026.78 685.541,1027.128L679.663,1027.128L679.396,1032.019C679.396,1032.019 672.249,1071.193 607.259,1106.026" style="fill:rgb(43,43,43);"/>
                    <path d="M527,1044.336L526.786,1052.03C526.786,1052.03 509.473,1070.198 522.938,1096.488L518.877,1094.778C518.877,1094.778 497.503,1084.618 501.351,1068.538L504.129,1064L524.862,1046.046L527,1044.336Z" style="fill:rgb(43,43,43);"/>
                    <g transform="matrix(1,0,0,1,-253.700265,100.729758)">
                        <g transform="matrix(0.253282,0,0,0.253282,448.177106,1064.326648)">
                            <g transform="matrix(0.550241,0,0,1.300944,908.40307,-88.203287)">
                                <path d="M420.896,335.5C420.896,232.572 420.895,232.58 420.903,232.527C421.335,229.788 422.659,229.997 455.499,230.516C459.569,230.58 458.206,232.812 478.785,291.392C490.394,324.437 486.472,327.292 489.468,327.293C491.073,327.293 489.841,318.388 489.785,317.493C488.903,303.406 489.234,232.193 489.507,231.503C490.067,230.089 490.533,230.189 508.499,230.51C510.978,230.555 510.734,232.599 510.736,233.497C510.757,242.62 510.999,346.184 510.632,347.537C510.292,348.787 509.788,348.991 478.495,348.91C475.561,348.902 475.291,348.338 472.687,340.439C461.067,305.19 447.952,273.72 443.321,250.577C443.02,249.073 441.094,248.995 441.292,251.473C441.896,259.052 443.361,277.402 442.632,346.506C442.603,349.279 441.197,349.044 423.487,348.908C419.677,348.879 420.917,341.085 420.896,335.5Z"/>
                            </g>
                            <g transform="matrix(0.550241,0,0,1.300944,908.40307,-88.203287)">
                                <path d="M384.826,281.501C384.823,291.732 385.744,296.824 382.532,296.962C368.769,297.552 348.008,295.57 347.347,298.465C347.268,298.809 347.219,327.961 347.378,328.534C348.272,331.75 386.568,328.387 388.487,330.509C388.613,330.649 389.985,348.153 387.601,348.805C387.161,348.925 387.185,348.91 332.5,348.91C329.039,348.91 323.172,349.948 323.128,346.523C322.958,333.398 323.11,242.539 323.126,233.496C323.128,232.018 322.956,230.313 325.488,230.279C330.361,230.215 384.878,229.493 386.402,230.643C387.14,231.199 388.489,248.798 385.458,249.205C380.774,249.833 348.247,247.856 347.414,250.471C347.402,250.51 346.793,276.157 347.781,277.241C349.257,278.86 382.866,276.691 384.47,278.521C384.628,278.701 384.496,278.739 384.826,281.501Z"/>
                            </g>
                            <g transform="matrix(0.550241,0,0,1.300944,908.40307,-88.203287)">
                                <path d="M290.5,348.91C236.997,348.91 236.968,348.939 236.395,348.731C235.31,348.337 235.311,341.164 235.311,340.5C235.327,232.306 235.216,232.295 235.523,231.51C236.219,229.732 258.022,230.258 258.874,231.159C260.058,232.41 259.095,321.706 259.408,327.505C259.569,330.497 261.206,329.826 295.498,329.855C299.156,329.858 298.418,333.236 298.319,345.499C298.276,350.732 295.737,348.653 290.5,348.91Z"/>
                            </g>
                            <g transform="matrix(0.550241,0,0,1.300944,908.40307,-88.203287)">
                                <path d="M92.904,262.527C91.784,268.297 91.31,282.303 71.613,285.775C65.711,286.815 75.189,288.203 75.558,288.258C98.911,291.679 106.879,341.584 68.546,347.787C54.013,350.139 14.477,348.584 14.455,348.564C13.639,347.846 13.734,347.6 13.734,244.5C13.734,238.883 12.936,230.619 15.503,230.524C19.18,230.389 41.534,229.568 61.495,230.612C87.935,231.996 92.943,244.788 92.904,262.527ZM37.958,274.5C38.316,276.905 37.271,277.959 39.554,278.163C62.68,280.228 66.09,273.327 67.096,271.291C69.487,266.454 71.913,249.77 55.483,248.689C38.462,247.569 38.086,249.03 38.037,250.432C37.969,252.356 38.219,252.273 37.958,274.5ZM37.962,316.5C37.964,324.069 36.866,330.881 40.481,330.915C46.268,330.969 75.963,335.424 70.186,307.579C67.428,294.289 49.322,296.233 40.495,296.31C37.282,296.339 38.165,298.095 37.962,316.5Z"/>
                            </g>
                            <g transform="matrix(0.550241,0,0,1.300944,908.40307,-88.203287)">
                                <path d="M137.979,341.64C136.544,346.751 137.775,348.869 132.503,348.911C113.684,349.062 111.865,349.153 112.556,346.512C112.609,346.307 132.728,272.445 142.961,234.624C144.544,228.774 146.467,230.503 152.5,230.504C177.015,230.51 178.524,229.699 179.547,233.486C181.944,242.366 209.221,343.423 209.508,344.498C210.277,347.379 211.552,348.814 208.564,348.91C206.793,348.967 189.091,349.536 186.413,348.791C182.904,347.815 180.463,322.788 176.521,322.349C176.044,322.296 145.231,322.208 144.475,322.393C142.829,322.795 142.386,325.033 137.979,341.64ZM150.91,289.598C148.262,301.098 147.146,303.859 149.405,303.96C151.337,304.046 172.161,304.976 173.581,303.587C175.04,302.159 163.162,261.148 161.978,251.139C161.171,244.314 159.484,254.153 159.427,254.484C158.738,258.5 151.616,286.795 150.91,289.598Z" style="fill:rgb(1,1,1);"/>
                            </g>
                        </g>
                        <g transform="matrix(0.315426,0,0,0.315426,295.853465,1046.469382)">
                            <g transform="matrix(0.672328,0,0,1.048311,1429.220298,-16.935212)">
                                <path d="M862.5,302.9C858.461,302.742 856.498,304.489 856.476,300.501C856.394,286.027 856.156,284.161 858.438,284.034C859.985,283.948 893.668,283.823 894.641,284.175C895.944,284.646 895.811,285.226 895.801,335.5C895.799,340.728 897.578,342.725 890.398,345.211C879.123,349.114 827.615,361.799 815.729,325.428C812.398,315.234 806.998,265.577 820.797,244.705C837.125,220.009 893.338,220.33 896.055,259.513C896.277,262.712 891.352,261.881 876.5,261.882C872.625,261.882 872.291,261.379 871.552,257.491C868.708,242.532 841.462,238.716 838.341,268.481C838.335,268.538 834.883,309.379 840.825,322.354C848.104,338.249 871.625,331.495 872.364,328.467C872.492,327.941 872.764,304.625 872.192,303.69C871.713,302.908 863.278,302.9 862.5,302.9Z"/>
                            </g>
                            <g transform="matrix(0.672328,0,0,1.048311,1429.220298,-16.935212)">
                                <path d="M541.086,287.5C541.175,254.116 546.681,228.691 585.498,228.79C625.365,228.891 624.189,263.012 622.621,263.714C621.546,264.196 600.543,263.898 600.386,263.855C597.914,263.181 599.977,248.823 588.413,246.937C567.802,243.577 567.047,266.764 566.875,272.516C565.617,314.704 567.329,331.173 582.534,332.193C601.24,333.448 599.077,317.166 600.277,314.376C601.107,312.445 623.359,313.609 623.428,313.646C624.951,314.46 626.731,349.081 586.5,350.493C537.739,352.205 541.098,304.864 541.086,287.5Z"/>
                            </g>
                            <g transform="matrix(0.672328,0,0,1.048311,1429.220298,-16.935212)">
                                <path d="M674.071,234.5C674.057,347.519 674.197,347.739 673.465,348.46C673.135,348.785 650.9,350.1 650.183,347.608C650.099,347.318 649.803,232.627 650.337,231.407C650.979,229.944 673.156,229.999 673.745,231.349C673.846,231.581 673.769,231.582 674.071,234.5Z"/>
                            </g>
                            <g transform="matrix(0.672328,0,0,1.048311,1429.220298,-16.935212)">
                                <path d="M983.977,240.355C992.635,273.479 1013.572,347.355 1012.524,348.524C1012.447,348.61 988.94,350.339 987.575,347.461C985.709,343.527 982.187,323.07 979.522,322.403C979.258,322.337 947.481,322.004 946.548,322.602C943.824,324.347 940.421,347.956 937.585,348.777C937.25,348.874 916.162,349.235 915.454,348.555C914.11,347.263 927.689,301.722 939.854,255.589C946.08,231.977 945.603,231.379 947.573,230.696C949.911,229.885 949.995,230.437 978.5,230.506C982.576,230.516 983.005,236.811 983.977,240.355ZM954.082,287.38C950.644,301.769 949.558,303.916 952.45,303.968C975.538,304.382 976.75,304.431 976.587,302.503C976.25,298.523 967.586,268.464 964.707,251.399C963.623,244.969 962.162,254.093 962.112,254.407C961.88,255.853 954.734,284.744 954.082,287.38Z" style="fill:rgb(1,1,1);"/>
                            </g>
                            <g transform="matrix(0.672328,0,0,1.048311,1429.220298,-16.935212)">
                                <path d="M703.896,327.623C729.731,232.807 728.533,231.288 731.526,230.613C732.437,230.408 762.976,230.503 763.491,230.559C765.094,230.735 765.22,231.193 770.122,249.599C796.137,347.281 797.3,348.112 795.635,348.749C794.871,349.042 772.922,348.94 772.412,348.801C769.617,348.043 766.06,323.834 763.454,322.598C762.226,322.016 730.945,322.303 730.481,322.429C727.984,323.111 724.655,341.743 722.441,347.472C721.806,349.116 721.295,349.295 700.453,348.918C696.906,348.853 700.052,342.102 703.896,327.623ZM749.883,260.414C748.05,251.439 748.395,251.391 748.234,250.612C747.371,246.437 746.324,251.449 742.733,266.552C734.197,302.459 733.662,302.714 734.46,303.537C735.808,304.93 756.658,304.033 758.587,303.95C760.915,303.85 760.125,302.304 754.177,277.584C751.149,265.003 750.124,261.383 749.883,260.414Z" style="fill:rgb(1,1,1);"/>
                            </g>
                        </g>
                    </g>
                </g>
                <path d="M527.374,1043.602C527.374,1043.602 526.707,1049.685 526.707,1053.358C526.707,1053.358 508.338,1071.726 525.037,1099.112C525.037,1099.112 488.501,1267.289 483.157,1584.847C483.157,1584.847 439.773,1576.896 426.033,1560.865C426.033,1560.865 427.559,1535.675 427.178,1533.003C427.178,1533.003 411.147,1519.263 428.704,1452.087C428.704,1452.087 423.081,1316.197 421.478,1257.953L419.741,1203.449" style="fill:none;stroke:black;stroke-width:4.17px;"/>
                <path d="M527.374,1043.602C527.374,1043.602 508.71,1061.535 502.476,1065.988C502.476,1065.988 426.51,1105.174 415.734,1118.087" style="fill:none;stroke:black;stroke-width:4.17px;"/>
                <path d="M502.476,1065.988C502.476,1065.988 494.731,1081.565 524.121,1098.598" style="fill:none;stroke:black;stroke-width:4.17px;"/>
                <path d="M679.082,1027.128C679.082,1027.128 690.66,1054.458 602.269,1109.952C602.269,1109.952 694.556,1100.768 701.124,1058.187C701.124,1058.187 687.209,1035.83 685.724,1028.112L679.082,1027.128Z" style="fill:none;stroke:black;stroke-width:4.17px;"/>
                <path d="M701.124,1058.187C701.124,1058.187 786.286,1107.519 804.988,1118.087" style="fill:none;stroke:black;stroke-width:4.17px;"/>
                <path d="M602.269,1109.952C602.269,1109.952 585.03,1282.286 616.201,1590.524C616.201,1590.524 717.705,1591.7 769.47,1559.305C769.47,1559.305 770.806,1533.924 771.14,1528.246C771.14,1528.246 793.515,1508.876 789.174,1491.844C789.174,1491.844 782.161,1432.731 787.17,1385.308C787.17,1385.308 802.31,1293.459 817.323,1267.663" style="fill:none;stroke:black;stroke-width:4.17px;"/>
                <path d="M771.14,1528.246C771.14,1528.246 748.888,1544.533 617.082,1556.556" style="fill:none;stroke:black;stroke-width:4.17px;"/>
                <path d="M428.723,1533.4C428.723,1533.4 447.871,1548.986 482.604,1556.556" style="fill:none;stroke:black;stroke-width:4.17px;"/>
                <path d="M428.723,1453.248C428.723,1453.248 438.075,1426.085 446.09,1406.047L455.664,1407.383C455.664,1407.383 419.818,1487.536 421.599,1508.464" style="fill:none;stroke:black;stroke-width:4.17px;"/>
                <path d="M419.439,1217.435C419.439,1217.435 389.127,1155.603 414.97,1120.107" style="fill:none;stroke:black;stroke-width:4.17px;"/>
                <path d="M665.618,1406.047L679.868,1406.047C679.868,1406.047 700.351,1463.49 750.669,1493.77L742.654,1508.464C742.654,1508.464 687.438,1473.286 665.618,1406.047Z" style="fill:rgb(43,43,43);stroke:black;stroke-width:4.17px;"/>
            </g>
            <g id="r-hand" serif:id="r hand" transform="matrix(1,0,0,1,-111.637944,-16.412159)">
                <g>
                    <path d="M850.836,1291.19L865.585,1360.652L874.016,1411.992L874.016,1421.152L869.732,1501.898L867.061,1527.132C867.061,1527.132 868.206,1539.6 874.016,1544.053L870.623,1581.457L886.95,1581.754C886.95,1581.754 950.775,1582.878 964.134,1599.653L976.899,1559.728C976.899,1559.728 982.836,1560.619 988.773,1542.214C988.773,1542.214 995.79,1415.751 995.993,1416.048C995.993,1416.048 982.539,1299.678 982.836,1293.444C982.836,1293.444 967.103,1199.933 962.353,1190.73C962.353,1190.73 953.791,1163.563 919.356,1138.311C919.356,1138.311 816.884,1097.223 849.301,1281.18" style="fill:rgb(43,43,43);"/>
                    <path d="M874.016,1544.053L871.101,1576.19L870.393,1580.713C870.393,1580.713 952.623,1580.596 965.091,1599.653C965.091,1599.653 974.082,1564.499 976.266,1561.474C978.45,1558.449 976.266,1558.922 976.266,1558.922L973.107,1556.371C973.107,1556.371 945.202,1533.809 881.08,1543.606L874.016,1544.053Z" style="fill:rgb(43,43,43);"/>
                    <path d="M849.301,1283.092L864.864,1225.983C864.864,1225.983 893.585,1151.508 943.346,1159.189L916.626,1135.533C916.626,1135.533 809.915,1098.017 849.301,1283.092Z" style="fill:rgb(43,43,43);"/>
                </g>
                <path d="M849.301,1284.527C849.301,1284.527 870.944,1376.97 874.016,1414.374C874.016,1414.374 870.141,1510.023 866.934,1526.053C866.934,1526.053 867.306,1538.394 874.016,1544.978C874.016,1544.978 872.268,1566.902 870.581,1581.369C870.581,1581.369 942.558,1579.043 965.077,1599.653C965.077,1599.653 975.764,1564.921 976.909,1561.486C976.909,1561.486 988.359,1551.18 988.359,1537.822C988.359,1537.822 994.084,1438.967 995.993,1416.83C995.993,1416.83 981.552,1255.857 969.975,1222.46C969.975,1222.46 963.55,1166.067 918.13,1135.533" style="fill:none;stroke:black;stroke-width:4.17px;"/>
                <path d="M849.301,1284.527C849.301,1284.527 868.402,1149.95 943.596,1159.599" style="fill:none;stroke:black;stroke-width:4.17px;"/>
                <path d="M896.449,1413.089C896.449,1413.089 929.733,1370.189 951.998,1367.593" style="fill:none;stroke:black;stroke-width:4.17px;"/>
                <path d="M874.016,1545.563C874.016,1545.563 935.656,1528.998 976.266,1558.922" style="fill:none;stroke:black;stroke-width:4.17px;"/>
            </g>
        </g>
    </g>
</svg>
