<?xml version="1.0" encoding="UTF-8" standalone="no"?>
<!DOCTYPE svg PUBLIC "-//W3C//DTD SVG 1.1//EN" "http://www.w3.org/Graphics/SVG/1.1/DTD/svg11.dtd">
<svg width="100%" height="100%" viewBox="0 0 1749 2481" version="1.1" xmlns="http://www.w3.org/2000/svg" xmlns:xlink="http://www.w3.org/1999/xlink" xml:space="preserve" xmlns:serif="http://www.serif.com/" style="fill-rule:evenodd;clip-rule:evenodd;stroke-linecap:round;stroke-linejoin:round;stroke-miterlimit:1.5;">
    <g transform="matrix(1,0,0,1,253.700265,-100.729758)">
        <g id="l-hand" serif:id="l hand" transform="matrix(1,0,0,1,102.862254,-25.088702)">
            <g>
                <path d="M344.133,1128.014L319.595,1137.856L302.964,1151.797L289.516,1173.007L283.371,1196.786L278.829,1253.694L273.782,1324.837L270.517,1373.522L263.689,1445.362L259.83,1491.376C259.83,1491.376 246.768,1519.577 259.533,1532.046L256.089,1565.249C256.089,1565.249 323.952,1568.638 331.165,1582.44L339.982,1550.555L358.15,1538.799C358.15,1538.799 364.562,1524.885 362.959,1508.464L372.043,1420.174L378.723,1358.723L389.907,1248.38L389.907,1240.157C389.907,1240.157 415.278,1121.163 344.133,1128.014Z" style="fill:rgb(43,43,43);"/>
                <path d="M259.533,1532.046L256.607,1560.254L253.936,1564.902L258.761,1565.116C258.761,1565.116 327.158,1570.007 331.005,1580.505L340.41,1549.965C340.41,1549.965 319.036,1521.324 261.967,1532.652" style="fill:rgb(43,43,43);"/>
            </g>
            <path d="M346.001,1128.014C346.001,1128.014 284.016,1134.426 281.879,1213.51C281.879,1213.51 273.33,1318.242 271.726,1356.181C271.726,1356.181 261.574,1469.463 259.971,1492.974C259.971,1492.974 253.868,1505.179 253.423,1516.947C253.183,1523.274 257.918,1527.471 259.436,1533.585C259.436,1533.585 255.683,1559.539 254.92,1565.646C254.92,1565.646 312.172,1565.264 331.637,1582.44L340.416,1549.956C340.416,1549.956 341.712,1549.174 356.329,1540.411C357.938,1539.447 362.603,1538.224 363.316,1506.867C363.316,1506.867 375.212,1385.666 377.439,1367.593C377.439,1367.593 386.344,1259.929 389.907,1240.157" style="fill:none;stroke:black;stroke-width:4.17px;"/>
            <path d="M259.436,1533.585C259.436,1533.585 314.78,1521.009 340.416,1549.956" style="fill:none;stroke:black;stroke-width:4.17px;"/>
            <g transform="matrix(1,0,0,1,-0.754951,20.179644)">
                <path d="M299.926,1327.234C299.926,1327.234 336.873,1343.831 344.888,1367.593" style="fill:none;stroke:black;stroke-width:4.17px;"/>
            </g>
        </g>
        <g id="body">
            <g>
                <path d="M735.838,1078.107L779.272,1102.343L805.751,1118.111C805.751,1118.111 865.961,1163.269 816.82,1269.614L806.82,1295.027C806.82,1295.027 788.372,1371.14 787.227,1384.88C787.227,1384.88 783.029,1457.781 789.899,1493.659C789.899,1493.659 795.2,1502.31 771.748,1528.731C771.748,1528.731 769.165,1554.127 769.7,1558.402C769.7,1558.402 732.547,1589.36 617.41,1590.529L612.683,1554.127C612.683,1554.127 599.191,1382.913 601.417,1367.773C601.417,1367.773 594.947,1225.725 597.514,1186.539C597.514,1186.539 600.908,1114.377 603.198,1109.952C603.198,1109.952 625.87,1073.224 635.889,1064.207C635.889,1064.207 650.447,1055.387 668.77,1035.613C671.879,1032.258 674.946,1029.9 675.16,1025.445C675.636,1015.515 674.475,1001.065 675.16,994.931L694.093,994.931L718.698,1005.754C718.698,1005.754 717.583,1021.972 722.905,1035.613C727.03,1046.188 730.845,1057.218 736.977,1063.456C744.072,1070.674 734.728,1077.736 735.838,1078.107Z" style="fill:rgb(43,43,43);"/>
                <path d="M520.695,1029.708L521.909,1056.425L531.528,1083.677L556.909,1101.311L572.94,1095.765L602.062,1083.677L641.069,1061.594C641.069,1061.594 617.644,1387.174 620.315,1590.529C620.315,1590.529 489.834,1593.379 426.142,1561.604C426.142,1561.604 428.146,1539.228 427.144,1534.219C427.144,1534.219 420.354,1525.202 419.741,1508.503C419.741,1508.503 423.804,1469.095 428.48,1452.731L426.142,1387.941C426.142,1387.941 419.575,1228.885 419.439,1217.435C419.439,1217.435 389.772,1157.289 415.734,1118.087C415.734,1118.087 429.672,1107.328 441.027,1099.98C452.382,1092.633 475.894,1079.454 485.579,1073.443C488.376,1071.707 479.165,1072.807 484.321,1063.745C489.818,1054.083 486.854,1029.933 488.316,1023.733C490.438,1014.728 502.077,1025.773 502.077,1025.773L520.695,1029.708Z" style="fill:rgb(43,43,43);"/>
                <g transform="matrix(0.066553,0,0,0.066553,596.911981,1292.73014)">
                    <g transform="matrix(1,0,0,1,-3643.75,-5168.75)">
                        <g id="_5a7f5f47abc3d121aba71181.png" serif:id="5a7f5f47abc3d121aba71181.png" transform="matrix(9.809338,0,0,9.809338,1487.916371,3540.618292)">
                            <path d="M68.5,2.034L374.5,2.034C380.228,1.997 377.965,4.825 377.966,10.5C377.971,125.615 377.931,125.602 378.034,129.495C378.115,132.53 376.364,131.966 345.5,131.966C7.396,131.966 7.4,131.958 4.505,132.034C2.224,132.095 2.044,130.955 2.035,129.512C1.968,119.35 1.206,3.811 2.483,2.483C2.979,1.967 3.134,2.034 68.5,2.034Z" style="fill:rgb(227,36,31);"/>
                            <path d="M131.908,46.381C133.181,46.559 133.23,46.931 134.237,46.096C142.771,39.013 156.65,41.486 161.526,50.484C175.436,76.149 142.517,105.234 127.284,89.739C123.632,86.025 125.05,91.603 121.092,115.436C120.525,118.854 117.019,118.398 108.534,118.196C105.957,118.134 107.621,112.401 107.761,111.541C118.48,45.713 117.115,43.654 120.503,43.541C130.398,43.21 131.81,42.973 131.908,46.381Z" style="fill:rgb(254,254,254);"/>
                            <path d="M303.935,61.531C303.934,60.823 303.926,54.362 300.541,53.363C286.181,49.127 288.392,89.962 284.333,92.047C283.837,92.301 272.861,92.251 272.605,92.132C268.421,90.19 281.877,56.107 272.538,53.37C259.576,49.57 259.998,82.28 257.572,90.52C256.756,93.293 243.399,93.064 243.666,90.502C243.715,90.035 250.879,45.057 250.992,44.692C251.593,42.738 263.815,43.515 264.262,43.842C264.904,44.312 264.047,48.491 266.707,45.911C270.1,42.62 277.748,40.606 283.649,43.139C288.949,45.414 288.559,50.733 292.806,46.858C298.682,41.496 310.238,39.854 315.44,45.555C317.864,48.212 320.64,51.255 313.431,90.482C312.985,92.906 306.42,92.26 301.516,92.215C297.789,92.18 300.305,89.827 303.935,61.531Z" style="fill:rgb(254,254,254);"/>
                            <path d="M31.534,94.12C24.437,92.448 23.744,93.497 18.721,88.276C10.687,79.927 14.616,78.172 14.886,77.95C19.728,73.96 23.153,69.353 24.833,73.35C29.157,83.637 39.907,82.6 44.084,77.155C54.882,63.076 34.131,57.494 33.627,57.244C31.505,56.191 14.844,47.923 25.818,28.684C39.127,5.351 70.443,19.701 66.017,25.15C60.919,31.428 59.199,34.206 57.147,31.837C51.166,24.932 42.528,28.407 39.923,31.856C32.396,41.822 48.092,46.359 51.301,47.896C70.258,56.982 61.991,76.538 55.01,85.06C47.775,93.892 33.547,94.092 31.534,94.12Z" style="fill:rgb(254,254,254);"/>
                            <path d="M319.92,72.513C320.168,70.685 321.868,58.142 327.954,50.895C331.622,46.526 337.314,43.723 340.612,42.917C366.657,36.557 369.802,60.597 367,68.69C365.695,72.46 335.593,67.786 334.678,71.55C332.429,80.805 342.682,87.783 350.436,79.439C353.217,76.447 353.736,76.32 363.572,78.326C366.432,78.909 360.859,84.983 360.438,85.441C352.064,94.567 321.689,103.426 319.92,72.513Z" style="fill:rgb(254,254,254);"/>
                            <path d="M215.5,70.122C214.815,70.238 214.102,70.09 213.417,70.206C210.818,70.648 210.769,82.986 219.509,83.134C225.758,83.239 229.223,77.863 229.555,77.56C230.97,76.267 243.183,77.261 241.642,80.565C234.059,96.83 197.48,101.595 197.311,73.501C197.072,33.796 252.797,31.215 244.44,68.482C243.982,70.526 243.114,70.122 215.5,70.122Z" style="fill:rgb(254,254,254);"/>
                            <path d="M79.084,74.5C80.325,87.292 92.578,83.241 94.823,72.576C97.799,58.434 97.797,43.633 101.503,43.542C106.551,43.417 113.528,42.841 113.173,45.479C108.891,77.371 106.773,80.66 105.1,83.258C95.049,98.868 61.59,99.663 64.941,73.552C65.245,71.179 68.522,45.642 70.152,44.11C70.784,43.515 83.598,42.102 83.337,45.491C83.017,49.651 79.894,63.977 79.084,74.5Z" style="fill:rgb(254,254,254);"/>
                            <path d="M165.894,78.56C170.717,48.561 171.05,44.652 171.903,43.986C172.258,43.709 185.648,41.921 185.003,45.608C184.052,51.043 189.498,41.679 197.511,41.95C206.416,42.252 202.117,48.154 201.71,49.562C200.558,53.543 200.444,55.85 197.4,54.808C181.133,49.239 180.124,77.564 178.131,89.442C177.57,92.785 174.602,92.44 165.534,92.211C163.063,92.149 164.829,85.167 165.894,78.56Z" style="fill:rgb(254,254,254);"/>
                            <path d="M127.087,69.483C130.477,49.759 145.369,53.163 148.499,58.5C158.395,75.371 128.239,94.607 127.087,69.483Z" style="fill:rgb(227,36,31);"/>
                            <path d="M217.342,55.359C225.06,47.705 231.811,53.354 232.381,59.506C232.506,60.858 232.127,62.303 215.516,61.444C212.97,61.312 217.041,55.769 217.342,55.359Z" style="fill:rgb(227,34,29);"/>
                            <path d="M338.382,57.427C346.774,45.716 355.013,54.425 354.939,59.5C354.92,60.824 354.542,61.939 338.501,61.491C335.7,61.412 337.402,60.017 338.382,57.427Z" style="fill:rgb(227,34,29);"/>
                        </g>
                    </g>
                </g>
            </g>
            <path d="M615.746,1590.529C615.746,1590.529 494.989,1596.043 426.033,1560.865C426.033,1560.865 427.559,1535.675 427.178,1533.003C427.178,1533.003 411.147,1519.263 428.704,1452.087C428.704,1452.087 423.081,1316.197 421.478,1257.953L419.741,1203.449" style="fill:none;stroke:black;stroke-width:4.17px;"/>
            <path d="M488.316,1073.443C465.797,1085.458 423.562,1108.706 415.734,1118.087" style="fill:none;stroke:black;stroke-width:4.17px;"/>
            <g transform="matrix(1,0,0,1,-253.700265,100.729758)">
                <path d="M793.699,989.809C793.699,989.809 739.262,947.302 756.962,931.877" style="fill:none;stroke:black;stroke-width:4.17px;"/>
            </g>
            <path d="M724.488,1071.712C751.134,1087.126 792.612,1111.094 804.988,1118.087" style="fill:none;stroke:black;stroke-width:4.17px;"/>
            <path d="M616.201,1590.524C616.201,1590.524 717.705,1591.7 769.47,1559.305C769.47,1559.305 770.806,1533.924 771.14,1528.246C771.14,1528.246 793.515,1508.876 789.174,1491.844C789.174,1491.844 782.161,1432.731 787.17,1385.308C787.17,1385.308 802.31,1293.459 817.323,1267.663" style="fill:none;stroke:black;stroke-width:4.17px;"/>
            <path d="M771.14,1528.246C771.14,1528.246 748.888,1544.533 617.082,1556.556" style="fill:none;stroke:black;stroke-width:4.17px;"/>
            <path d="M428.723,1533.4C428.723,1533.4 448.316,1556.556 615.746,1557.001" style="fill:none;stroke:black;stroke-width:4.17px;"/>
            <g transform="matrix(1,0,0,1,-253.700265,100.729758)">
                <path d="M877.525,970.982C877.525,970.982 980.387,919.458 958.011,909.439" style="fill:none;stroke:black;stroke-width:4.17px;"/>
            </g>
            <g transform="matrix(1,0,0,1,-253.700265,100.729758)">
                <path d="M682.424,1352.276C684.841,1346.398 699.268,1304.719 705.146,1291.895C705.146,1291.895 915.68,1294.032 926.367,1290.826C926.367,1290.826 949.344,1367.238 1002.244,1387.543" style="fill:none;stroke:black;stroke-width:4.17px;"/>
            </g>
            <g transform="matrix(1,0,0,1,-253.700265,100.729758)">
                <path d="M928.86,894.72C928.86,894.72 927.715,921.82 928.097,927.545C928.097,927.545 902.588,970.579 811.304,1000.064C811.304,1000.064 781.533,992.812 775.807,953.881L775.044,929.071C775.044,929.071 754.815,927.163 745.655,918.766C745.655,918.766 740.693,919.53 740.311,922.965C740.311,922.965 746.418,941.903 738.021,968.693C738.021,968.693 759.065,996.247 771.444,1004.644C771.444,1004.644 803.67,1008.461 804.433,1007.697" style="fill:none;stroke:black;stroke-width:4.17px;"/>
            </g>
            <g transform="matrix(1,0,0,1,-253.700265,100.729758)">
                <path d="M812.067,1007.798C812.067,1007.798 844.128,1011.716 855.578,1007.798C855.578,1007.798 973.517,967.857 984.204,969.457" style="fill:none;stroke:black;stroke-width:4.17px;"/>
            </g>
            <g transform="matrix(1,0,0,1,-253.700265,100.729758)">
                <path d="M989.738,975.565C989.738,975.565 995.749,971.984 992.41,965.258C992.41,965.258 972.372,940.498 971.37,905.431C971.37,905.431 954.481,891.357 928.86,894.72" style="fill:none;stroke:black;stroke-width:4.17px;"/>
            </g>
            <path d="M419.439,1217.435C419.439,1217.435 389.127,1155.603 414.97,1120.107" style="fill:none;stroke:black;stroke-width:4.17px;"/>
        </g>
        <g id="r-hand" serif:id="r hand" transform="matrix(1,0,0,1,-111.637944,-16.412159)">
            <g>
                <path d="M850.836,1291.19L865.585,1360.652L874.016,1411.992L874.016,1421.152L869.732,1501.898L867.061,1527.132C867.061,1527.132 868.206,1539.6 874.016,1544.053L870.623,1581.457L886.95,1581.754C886.95,1581.754 950.775,1582.878 964.134,1599.653L976.899,1559.728C976.899,1559.728 982.836,1560.619 988.773,1542.214C988.773,1542.214 995.79,1415.751 995.993,1416.048C995.993,1416.048 982.539,1299.678 982.836,1293.444C982.836,1293.444 967.103,1199.933 962.353,1190.73C962.353,1190.73 953.791,1163.563 919.356,1138.311C919.356,1138.311 816.884,1097.223 849.301,1281.18" style="fill:rgb(43,43,43);"/>
                <path d="M874.016,1544.053L871.101,1576.19L870.393,1580.713C870.393,1580.713 952.623,1580.596 965.091,1599.653C965.091,1599.653 974.082,1564.499 976.266,1561.474C978.45,1558.449 976.266,1558.922 976.266,1558.922L973.107,1556.371C973.107,1556.371 945.202,1533.809 881.08,1543.606L874.016,1544.053Z" style="fill:rgb(43,43,43);"/>
                <path d="M849.301,1283.092L864.864,1225.983C864.864,1225.983 893.585,1151.508 943.346,1159.189L916.626,1135.533C916.626,1135.533 809.915,1098.017 849.301,1283.092Z" style="fill:rgb(43,43,43);"/>
            </g>
            <path d="M849.301,1284.527C849.301,1284.527 870.944,1376.97 874.016,1414.374C874.016,1414.374 870.141,1510.023 866.934,1526.053C866.934,1526.053 867.306,1538.394 874.016,1544.978C874.016,1544.978 872.268,1566.902 870.581,1581.369C870.581,1581.369 942.558,1579.043 965.077,1599.653C965.077,1599.653 975.764,1564.921 976.909,1561.486C976.909,1561.486 988.359,1551.18 988.359,1537.822C988.359,1537.822 994.084,1438.967 995.993,1416.83C995.993,1416.83 981.552,1255.857 969.975,1222.46C969.975,1222.46 963.55,1166.067 918.13,1135.533" style="fill:none;stroke:black;stroke-width:4.17px;"/>
            <path d="M849.301,1284.527C849.301,1284.527 868.402,1149.95 943.596,1159.599" style="fill:none;stroke:black;stroke-width:4.17px;"/>
            <path d="M896.449,1413.089C896.449,1413.089 929.733,1370.189 951.998,1367.593" style="fill:none;stroke:black;stroke-width:4.17px;"/>
            <path d="M874.016,1545.563C874.016,1545.563 935.656,1528.998 976.266,1558.922" style="fill:none;stroke:black;stroke-width:4.17px;"/>
        </g>
    </g>
</svg>
