<?xml version="1.0" encoding="UTF-8" standalone="no"?>
<!DOCTYPE svg PUBLIC "-//W3C//DTD SVG 1.1//EN" "http://www.w3.org/Graphics/SVG/1.1/DTD/svg11.dtd">
<svg width="100%" height="100%" viewBox="0 0 1749 2481" version="1.1" xmlns="http://www.w3.org/2000/svg" xmlns:xlink="http://www.w3.org/1999/xlink" xml:space="preserve" xmlns:serif="http://www.serif.com/" style="fill-rule:evenodd;clip-rule:evenodd;stroke-linecap:round;stroke-linejoin:round;stroke-miterlimit:1.5;">
    <g transform="matrix(1,0,0,1,253.700265,-100.729758)">
        <g id="l-hand" serif:id="l hand" transform="matrix(1,0,0,1,104.705558,-24.751549)">
            <g>
                <path d="M344.133,1128.014L319.595,1137.856L302.964,1151.797L289.516,1173.007L283.371,1196.786L278.829,1253.694L273.782,1324.837L270.517,1373.522L263.689,1445.362L259.83,1491.376C259.83,1491.376 258.185,1513.046 254.92,1533.53L254.92,1564.953C254.92,1564.953 327.217,1571.691 334.431,1585.493L343.545,1553.82L347.129,1542.473C347.129,1542.473 349.534,1533.234 353.274,1512.472L370.373,1433.198L378.723,1358.723L389.907,1248.38L389.907,1240.157C389.907,1240.157 415.278,1121.163 344.133,1128.014Z" style="fill:rgb(43,43,43);"/>
            </g>
            <path d="M343.088,1554.536C343.088,1554.536 376.739,1426.887 377.439,1367.593C377.439,1367.593 386.344,1259.929 389.907,1240.157M254.92,1565.646C254.92,1565.646 314.843,1568.318 334.309,1585.493L343.088,1554.536M346.001,1128.014C346.001,1128.014 284.016,1134.426 281.879,1213.51C281.879,1213.51 273.33,1318.242 271.726,1356.181C271.726,1356.181 255.76,1527.631 254.92,1565.646" style="fill:none;stroke:black;stroke-width:4.17px;"/>
            <g transform="matrix(1,0,0,1,-0.754951,20.179644)">
                <path d="M299.926,1327.234C299.926,1327.234 336.873,1343.831 344.888,1367.593" style="fill:none;stroke:black;stroke-width:4.17px;"/>
            </g>
        </g>
        <g id="body">
            <g>
                <path d="M702.174,1058.069L779.272,1102.343L805.751,1118.111C805.751,1118.111 865.961,1163.269 816.82,1269.614L806.82,1295.027C806.82,1295.027 788.372,1371.14 787.227,1384.88C787.227,1384.88 782.119,1457.738 785.57,1494.685C785.57,1494.685 785.938,1496.82 785.57,1523.412C785.57,1523.412 785.035,1546.913 785.57,1551.188C785.57,1551.188 732.547,1589.36 617.41,1590.529L612.683,1554.127C612.683,1554.127 599.191,1382.913 601.417,1367.773C601.417,1367.773 594.947,1225.725 597.514,1186.539C597.514,1186.539 598.533,1143.469 600.823,1139.045C600.823,1139.045 600.346,1137.264 604.652,1122.208C606.913,1114.305 601.192,1093.822 607.662,1090.132C616.324,1085.191 627.587,1080.621 629.936,1078.506C629.936,1078.506 663.533,1064.502 679.481,1033.061L681.946,1033.061C681.946,1033.061 698.74,1056.921 702.174,1058.069Z" style="fill:rgb(43,43,43);"/>
                <clipPath id="_clip1">
                    <path d="M702.174,1058.069L779.272,1102.343L805.751,1118.111C805.751,1118.111 865.961,1163.269 816.82,1269.614L806.82,1295.027C806.82,1295.027 788.372,1371.14 787.227,1384.88C787.227,1384.88 782.119,1457.738 785.57,1494.685C785.57,1494.685 785.938,1496.82 785.57,1523.412C785.57,1523.412 785.035,1546.913 785.57,1551.188C785.57,1551.188 732.547,1589.36 617.41,1590.529L612.683,1554.127C612.683,1554.127 599.191,1382.913 601.417,1367.773C601.417,1367.773 594.947,1225.725 597.514,1186.539C597.514,1186.539 598.533,1143.469 600.823,1139.045C600.823,1139.045 600.346,1137.264 604.652,1122.208C606.913,1114.305 601.192,1093.822 607.662,1090.132C616.324,1085.191 627.587,1080.621 629.936,1078.506C629.936,1078.506 663.533,1064.502 679.481,1033.061L681.946,1033.061C681.946,1033.061 698.74,1056.921 702.174,1058.069Z"/>
                </clipPath>
                <g clip-path="url(#_clip1)">
                    <g transform="matrix(0.038811,0,0,0.038811,657.173391,1233.667048)">
                        <g transform="matrix(1,0,0,1,-3643.75,-5168.75)">
                            <g id="alo-yoga-1.jpg" transform="matrix(4.903158,0,0,4.903158,1383.333333,2983.333333)">
                                <path d="M526.5,163.05C530.783,163.219 531.899,161.739 532.591,164.475C532.776,165.206 532.68,441.658 532.639,442.524C532.514,445.183 523.948,444.34 521.5,444.34C500.215,444.34 498.333,445.156 498.31,441.506C498.309,441.322 498.303,166.24 498.313,165.49C498.356,162.433 500.048,163.05 526.5,163.05Z" style="fill:rgb(254,254,254);"/>
                                <path d="M372.42,277.083C376.079,276.525 397.741,273.223 418.467,281.584C436.251,288.758 434.854,291.27 436.465,291.624C440.904,292.6 434.476,281.303 441.499,281.304C470.944,281.31 472.28,280.858 472.538,283.497C472.55,283.625 472.602,441.955 472.51,442.502C472.142,444.685 471.084,444.354 441.5,444.343C436.771,444.341 438.148,442.196 438.17,437.502C438.201,430.732 434.708,436.415 425.306,441.145C357.045,475.491 286.21,408.034 305.863,339.605C321.679,284.539 370.873,277.453 372.42,277.083ZM388.501,311.113C384.998,311.191 362.481,311.696 348.885,329.813C315.927,373.73 358.062,423.486 397.582,413.863C456.799,399.443 448.001,313.637 388.501,311.113Z" style="fill:rgb(254,254,254);"/>
                                <path d="M621.423,277.062C627.428,276.159 665.367,270.454 694.124,298.871C758.208,362.194 700.197,464.742 620.466,448.673C552.6,434.995 533.227,351.858 570.784,307.736C589.789,285.409 604.735,281.04 621.423,277.062ZM635.498,311.113C580.651,313.623 569.337,386.262 613.65,409.214C664.587,435.597 713.862,366.637 670.352,324.652C657.412,312.165 638.486,311.257 635.498,311.113Z" style="fill:rgb(254,254,254);"/>
                            </g>
                        </g>
                    </g>
                </g>
                <path d="M527.374,1043.602L524.596,1053.005L525.065,1061.769L528.057,1072.99L536.71,1080.265L528.057,1104.837L519.195,1133.892C519.195,1133.892 481.581,1381.491 484.252,1584.847C484.252,1584.847 437.163,1576.967 426.142,1561.604C426.142,1561.604 428.146,1539.228 427.144,1534.219C427.144,1534.219 427.194,1526.698 426.581,1509.999C426.581,1509.999 425.514,1471.232 424.846,1452.731L426.142,1387.941C426.142,1387.941 419.575,1228.885 419.439,1217.435C419.439,1217.435 389.772,1157.289 415.734,1118.087C415.734,1118.087 429.672,1107.328 441.027,1099.98C452.382,1092.633 484.443,1076.603 494.128,1070.591C503.813,1064.58 507.153,1061.574 507.153,1061.574L518.709,1044.654L527.374,1043.602Z" style="fill:rgb(43,43,43);"/>
            </g>
            <path d="M427.178,1533.003C427.178,1533.003 423.081,1316.197 421.478,1257.953L419.741,1203.449M518.895,1132.424C508.249,1195.917 487.121,1349.283 483.157,1584.847C483.157,1584.847 439.773,1576.896 426.033,1560.865C426.033,1560.865 427.559,1535.675 427.178,1533.003M502.476,1065.988C509.958,1059.307 519.374,1044.281 519.374,1044.281L528.057,1041.943" style="fill:none;stroke:black;stroke-width:4.17px;"/>
            <g transform="matrix(1,0,0,1,-253.700265,100.729758)">
                <path d="M954.634,957.178C954.634,957.178 937.535,937.407 936.199,932.865L932.458,932.331C932.458,932.331 930.321,960.651 859.52,989.239C859.52,989.239 857.97,1003.64 860.749,1014.754C860.749,1014.754 856.046,1024.586 853.909,1038.052" style="fill:none;stroke:black;stroke-width:4.17px;"/>
            </g>
            <g transform="matrix(1,0,0,1,-253.700265,100.729758)">
                <path d="M954.634,957.178C954.634,957.178 937.024,994.592 860.749,1014.754" style="fill:none;stroke:black;stroke-width:4.17px;"/>
            </g>
            <g transform="matrix(1,0,0,1,-253.700265,100.729758)">
                <path d="M781.758,941.214C781.758,941.214 769.333,961.592 790.41,978.217C790.41,978.217 786.464,1000.184 781.758,1005.528C781.758,1005.528 777.645,1013.755 772.896,1030.718" style="fill:none;stroke:black;stroke-width:4.17px;"/>
            </g>
            <g transform="matrix(1,0,0,1,-253.700265,100.729758)">
                <path d="M757.162,965.155C757.162,965.155 755.887,986.826 781.758,1005.528" style="fill:none;stroke:black;stroke-width:4.17px;"/>
            </g>
            <path d="M502.476,1065.988C502.476,1065.988 426.51,1105.174 415.734,1118.087" style="fill:none;stroke:black;stroke-width:4.17px;"/>
            <path d="M701.124,1058.187C701.124,1058.187 786.286,1107.519 804.988,1118.087" style="fill:none;stroke:black;stroke-width:4.17px;"/>
            <path d="M600.168,1139.76C596.758,1201.399 592.579,1356.938 616.201,1590.524C616.201,1590.524 733.735,1584.576 785.5,1552.181C785.5,1552.181 784.164,1533.478 786.279,1524.684C786.279,1524.684 785.5,1522.235 785.166,1494.961C785.166,1494.961 782.161,1432.731 787.17,1385.308C787.17,1385.308 802.31,1293.459 817.323,1267.663" style="fill:none;stroke:black;stroke-width:4.17px;"/>
            <path d="M419.439,1217.435C419.439,1217.435 389.127,1155.603 414.97,1120.107" style="fill:none;stroke:black;stroke-width:4.17px;"/>
        </g>
        <g id="r-hand" serif:id="r hand" transform="matrix(1,0,0,1,-113.805942,-17.82059)">
            <g>
                <path d="M850.836,1291.19L865.585,1360.652L874.016,1411.992L874.016,1421.152L874.074,1517.929L871.068,1536.731C871.068,1536.731 868.206,1539.6 874.016,1544.053L870.623,1581.457L886.95,1581.754C886.95,1581.754 956.931,1583.391 970.29,1600.166L978.438,1561.983C978.438,1561.983 978.903,1559.593 981.763,1539.991C981.763,1539.991 995.79,1415.751 995.993,1416.048C995.993,1416.048 982.539,1299.678 982.836,1293.444C982.836,1293.444 967.103,1199.933 962.353,1190.73C962.353,1190.73 953.791,1163.563 919.356,1138.311C919.356,1138.311 816.884,1097.223 849.301,1281.18" style="fill:rgb(43,43,43);"/>
            </g>
            <path d="M970.086,1599.987C980.63,1566.352 994.084,1438.967 995.993,1416.83C995.993,1416.83 981.552,1255.857 969.975,1222.46C969.975,1222.46 963.55,1166.067 918.13,1135.533M849.301,1284.527C849.301,1284.527 870.944,1376.97 874.016,1414.374C874.016,1414.374 875.484,1519.565 872.278,1535.595C872.278,1535.595 867.306,1538.394 874.016,1544.978C874.016,1544.978 872.268,1566.902 870.581,1581.369C870.581,1581.369 947.567,1579.377 970.086,1599.987" style="fill:none;stroke:black;stroke-width:4.17px;"/>
            <path d="M849.301,1284.527C849.301,1284.527 868.402,1149.95 943.596,1159.599" style="fill:none;stroke:black;stroke-width:4.17px;"/>
            <path d="M896.449,1413.089C896.449,1413.089 929.733,1370.189 951.998,1367.593" style="fill:none;stroke:black;stroke-width:4.17px;"/>
        </g>
    </g>
</svg>
