<?xml version="1.0" encoding="UTF-8" standalone="no"?>
<svg width="100%" height="100%" viewBox="0 0 613 545" version="1.1" xmlns="http://www.w3.org/2000/svg" xmlns:xlink="http://www.w3.org/1999/xlink" xml:space="preserve" xmlns:serif="http://www.serif.com/" style="fill-rule:evenodd;clip-rule:evenodd;stroke-linecap:round;stroke-linejoin:round;stroke-miterlimit:1.5;">
    <g transform="matrix(1,0,0,1,-679.128166,-821.39027)">
        <g>
            <g id="l-hand" serif:id="l hand" transform="matrix(1,0,0,1,91.237589,-16.908036)">
                <g>
                    <path d="M690.395,918.967C690.395,918.967 764.41,906.874 738.717,1045.738L738.717,1060.804C738.717,1060.804 721.151,1165.937 713.433,1178.109L712.245,1181.968C712.245,1181.968 711.503,1235.169 694.434,1287.947L693.64,1296.151L693.907,1313.648C693.907,1313.648 692.336,1320.502 684.47,1324.948C684.47,1324.948 674.895,1352.306 673.869,1354.187C672.843,1356.068 671.646,1354.187 671.646,1354.187L659.505,1349.399C659.505,1349.399 627.872,1344.783 605.814,1351.964L603.249,1349.057L601.368,1320.502C601.368,1320.502 589.523,1307.335 589.974,1304.77C590.425,1302.206 592.818,1289.381 594.357,1285.448L594.528,1274.163C594.528,1274.163 593.844,1225.81 595.18,1215.123C595.18,1215.123 613.081,1144.054 614.417,1141.115C614.417,1141.115 615.486,1089.551 616.02,1084.474C616.02,1084.474 625.371,1053.669 626.44,1051.532C626.44,1051.532 609.934,981.799 646.478,943.032C646.478,943.032 660.531,926.515 686.607,918.967L690.395,918.967Z" style="fill:rgb(220,220,220);"/>
                    <g transform="matrix(1,0,0,1,-67.595358,17.557194)">
                        <path d="M668.963,1302.945L670.286,1323.02L671.315,1333.656L672.409,1335.161L676.513,1333.793L689.508,1331.741C689.508,1331.741 737.249,1328.281 740.122,1337.466L743.268,1331.057L750.518,1307.939C750.518,1307.939 729.315,1291.387 701.957,1295.08L668.963,1302.945Z" style="fill:rgb(117,140,178);"/>
                    </g>
                </g>
                <path d="M690.006,918.967C690.006,918.967 603.62,931.159 626.33,1051.693C626.33,1051.693 617.646,1071.925 616.31,1087.51C616.31,1087.51 615.42,1135.958 614.975,1140.9C614.975,1140.9 596.272,1197.942 594.937,1221.097C594.937,1221.097 596.272,1276.631 594.046,1286.046C594.046,1286.046 588.257,1299.468 590.484,1305.703C590.484,1305.703 598.626,1317.757 601.68,1320.047C601.68,1320.047 602.443,1349.818 603.97,1352.872C603.97,1352.872 653.651,1340.181 673.053,1355.925C673.053,1355.925 682.214,1330.734 682.977,1325.391C682.977,1325.391 694.046,1318.521 694.046,1313.94C694.046,1313.94 692.901,1297.147 694.046,1289.513C694.046,1289.513 711.285,1233.947 712.621,1180.957C712.621,1180.957 712.621,1178.731 716.628,1167.599C716.628,1167.599 741.565,1071.416 738.447,1046.034" style="fill:none;stroke:black;stroke-width:4.17px;"/>
                <path d="M642.71,1159.138C642.71,1159.138 654.733,1180.24 669.427,1187.056" style="fill:none;stroke:black;stroke-width:4.17px;"/>
                <path d="M601.68,1320.047C601.68,1320.047 645.859,1301.218 682.977,1325.391" style="fill:none;stroke:black;stroke-width:4.17px;"/>
            </g>
            <g id="body">
                <g>
                    <path d="M905.597,847.703L879.882,861.085L863.332,865.863C863.332,865.863 777.502,896.922 768.819,905.94C768.819,905.94 754.458,932.144 764.811,977.653L764.143,982.084C764.143,982.084 748.781,1033.594 767.817,1085.281C767.817,1085.281 784.849,1168.36 784.515,1177.377L783.736,1184.224L777.535,1208.269C777.535,1208.269 765.331,1262.298 780.767,1278.032L781.658,1310.389C781.658,1310.389 809.563,1327.607 815.203,1327.904L821.483,1245.377L824.703,1169.381L830.64,1097.837L839.249,1038.762L846.967,1004.623L858.545,969.593C858.545,969.593 876.653,920.908 899.512,892.113L900.105,879.348L901.59,859.333L905.597,847.703Z" style="fill:rgb(117,140,178);"/>
                    <path d="M967.705,898.792C967.705,898.792 960.453,981.235 960.453,998.41C960.453,1015.586 957.781,1056.425 957.781,1056.425L957.399,1128.832L956.636,1180.089L959.308,1231.234L962.361,1268.638L968.993,1333.261L1017.233,1330.682C1017.233,1330.682 1106.588,1321.182 1115.791,1306.043C1115.791,1306.043 1114.009,1278.435 1115.494,1274.575C1115.494,1274.575 1125.884,1257.357 1125.587,1252.905C1125.29,1248.452 1114.983,1209.266 1114.983,1209.266L1119.234,1198.74L1114.983,1186.571L1128.318,1164.663C1128.318,1164.663 1158.208,1100.87 1170.708,1038.423C1170.708,1038.423 1246.439,930.11 1182.317,892.706L1101.905,854.114L1066.519,837.802L1045.145,823.908C1045.145,823.908 1045.466,834.943 1033.924,845.843C1022.382,856.744 986.687,888.805 977.924,893.294C969.161,897.782 967.705,898.792 967.705,898.792Z" style="fill:rgb(117,140,178);"/>
                    <path d="M980.693,891.594C980.693,891.594 993.099,893.507 1034.779,873.416L1050.809,861.085L1058.718,853.752L1063.634,844.134L1065.38,836.866L1054.87,829.813L1045.466,823.908C1045.466,823.908 1043.115,835.798 1026.657,854.179C1026.657,854.179 1001.863,877.263 989.68,884.53L980.693,891.594Z" style="fill:rgb(220,220,220);"/>
                    <path d="M905.597,847.703C905.597,847.703 897.399,875.13 900.665,891.643L897.352,888.664L890.298,886.313L883.672,878.404L880.68,871.351L880.466,861.085L899.703,849.977L905.597,847.703Z" style="fill:rgb(220,220,220);"/>
                    <path d="M1031.809,1147.644L1023.036,1152.186C1023.036,1152.186 1040.626,1187.987 1048.107,1197.606C1048.107,1197.606 1088.183,1246.897 1101.542,1249.503L1106.249,1240.157C1106.249,1240.157 1098.87,1239.018 1079.099,1215.239L1040.893,1162.606L1031.809,1147.644Z" style="fill:rgb(220,220,220);"/>
                    <path d="M796.517,1147.644C796.517,1147.644 775.571,1210.213 774.288,1224.961C774.288,1224.961 772.151,1248.259 773.861,1254.457L778.136,1236.931L783.052,1218.335L791.388,1187.343L801.433,1158.916L803.998,1147.977L796.517,1147.644Z" style="fill:rgb(220,220,220);"/>
                    <path d="M780.885,1278.183C780.885,1278.183 804.04,1298.666 816.805,1298.072L817.428,1303.698L815.291,1327.904L781.627,1310.377L780.885,1278.183Z" style="fill:rgb(220,220,220);"/>
                    <path d="M965.243,1303.043L968.983,1333.154L1006.655,1331.551C1006.655,1331.551 1093.754,1325.139 1115.662,1305.635L1115.395,1274.643L1092.952,1283.994C1092.952,1283.994 1059.823,1294.413 1017.609,1298.688L965.243,1303.043Z" style="fill:rgb(220,220,220);"/>
                </g>
                <path d="M767.678,973.334C767.678,973.334 747.907,1023.563 768.212,1086.082C768.212,1086.082 785.693,1170.967 784.93,1182.799C784.93,1182.799 760.884,1250.356 780.731,1277.837C780.731,1277.837 781.829,1305.055 781.495,1310.399C781.495,1310.399 803.536,1325.093 816.227,1327.765C816.227,1327.765 829.052,1078.524 838.136,1045.929C838.136,1045.929 849.624,958.162 900.387,891.368C900.387,891.368 897.593,856.407 908.28,846.483L882.029,859.333C882.029,859.333 871.418,878.366 900.387,891.368" style="fill:none;stroke:black;stroke-width:4.17px;"/>
                <path d="M1031.44,1147.977L1021.134,1152.557C1021.134,1152.557 1065.409,1235 1102.813,1249.503L1106.249,1240.157C1106.249,1240.157 1088.31,1237.271 1031.44,1147.977Z" style="fill:none;stroke:black;stroke-width:4.17px;"/>
                <path d="M882.029,859.333C882.029,859.333 779.357,894.447 768.67,907.043C768.67,907.043 754.548,928.035 764.472,977.653" style="fill:none;stroke:black;stroke-width:4.17px;"/>
                <path d="M782.045,1278.742C782.045,1278.742 795.404,1293.102 817.779,1297.11" style="fill:none;stroke:black;stroke-width:4.17px;"/>
                <path d="M785.051,1182.893C785.051,1182.893 795.07,1150.832 796.072,1147.492L804.755,1148.828C804.755,1148.828 772.694,1233.656 775.365,1261.542" style="fill:none;stroke:black;stroke-width:4.17px;"/>
                <path d="M968.132,898.697C968.132,898.697 940.747,1138.101 968.132,1327.765L969.182,1333.937C969.182,1333.937 1081.395,1330.12 1116.128,1305.693C1116.128,1305.693 1114.983,1277.067 1114.983,1273.25C1114.983,1273.25 1095.493,1294.025 964.971,1303.676" style="fill:none;stroke:black;stroke-width:4.17px;"/>
                <path d="M1114.983,1273.25C1114.983,1273.25 1125.161,1259.955 1125.161,1253.085C1125.161,1253.085 1116.637,1218.734 1116.128,1209.955L1120.199,1198.886L1116.128,1186.673C1116.128,1186.673 1146.662,1141.521 1170.708,1038.423" style="fill:none;stroke:black;stroke-width:4.17px;"/>
                <path d="M969.169,898.697C969.169,898.697 1042.069,855.197 1044.359,823.474C1044.359,823.474 1061.917,832.59 1065.352,836.788C1065.352,836.788 1069.569,871.88 974.522,895.365" style="fill:none;stroke:black;stroke-width:4.17px;"/>
                <path d="M1065.352,836.788C1065.352,836.788 1158.1,880.681 1181.382,892.513" style="fill:none;stroke:black;stroke-width:4.17px;"/>
            </g>
            <g id="r-hand" serif:id="r hand" transform="matrix(1,0,0,1,-96.134035,-9.100312)">
                <g>
                    <path d="M1274.088,903.489C1274.088,903.489 1169.088,870.779 1206.735,1017.131L1206.735,1028.392C1206.735,1028.392 1209.604,1043.421 1214.191,1049.098L1214.191,1051.785C1214.191,1051.785 1213.623,1153.079 1260.952,1209.1L1260.952,1213.159C1260.952,1213.159 1241.428,1256.501 1245.412,1282.327C1245.412,1282.327 1240.311,1303.835 1237.477,1306.24C1237.477,1306.24 1237.315,1314.255 1239.986,1317.728L1243.037,1351.926L1245.65,1352.007C1245.65,1352.007 1312.123,1352.559 1324.52,1373.07C1324.52,1373.07 1339.268,1352.116 1341.62,1342.711C1341.62,1342.711 1349.314,1341.642 1351.665,1337.368C1351.665,1337.368 1353.375,1334.803 1355.085,1326.681L1372.184,1263.2C1372.184,1263.2 1384.858,1210.192 1385.681,1206.559C1385.681,1206.559 1384.154,1187.322 1383.513,1179.414C1383.513,1179.414 1382.016,1110.162 1380.734,1101.399C1380.734,1101.399 1376.673,1053.307 1366.413,1035.995C1366.413,1035.995 1351.452,988.012 1349.1,980.37C1349.1,980.37 1329.864,922.071 1291.818,906.468L1274.088,903.489Z" style="fill:rgb(220,220,220);"/>
                    <g transform="matrix(1,0,0,1,101.388471,8.485977)">
                        <path d="M1138.769,1311.163L1139.748,1341.797L1141.201,1344.084L1146.502,1343.913L1166.166,1344.768C1166.166,1344.768 1216.78,1350.605 1222.935,1364.584L1239.693,1333.261C1239.693,1333.261 1223.619,1310.167 1195.577,1306.405C1195.577,1306.405 1163.183,1300.531 1138.769,1311.163Z" style="fill:rgb(117,140,178);"/>
                    </g>
                    <g transform="matrix(1,0,0,1,101.388471,8.485977)">
                        <path d="M1190.791,898.701L1174.982,900.571L1151.471,910.724L1141.585,920.342C1141.585,920.342 1129.562,931.563 1119.944,955.876C1119.944,955.876 1104.982,1009.311 1104.715,1011.449C1104.448,1013.586 1103.423,1006.372 1103.423,1006.372C1103.423,1006.372 1061.363,867.203 1175.484,894.79" style="fill:rgb(117,140,178);"/>
                    </g>
                </g>
                <path d="M1214.197,1051.693C1214.197,1051.693 1212.638,1153.995 1260.952,1209.1" style="fill:none;stroke:black;stroke-width:4.17px;"/>
                <path d="M1281.817,1173.097C1281.817,1173.097 1240.214,1238.076 1245.176,1282.732C1245.176,1282.732 1242.515,1295.924 1237.571,1306.611C1237.571,1306.611 1236.636,1315.294 1240.644,1318.967C1240.644,1318.967 1241.646,1349.025 1241.98,1352.698C1241.98,1352.698 1307.437,1350.766 1324.804,1373.07C1324.804,1373.07 1339.117,1350.718 1341.025,1342.703C1341.025,1342.703 1349.804,1342.488 1353.239,1334.389C1353.239,1334.389 1355.529,1320.184 1360.491,1306.825C1360.491,1306.825 1376.521,1253.009 1383.01,1215.223C1383.01,1215.223 1384.536,1209.879 1385.681,1204.917C1385.681,1204.917 1381.865,1171.756 1382.628,1159.138C1382.628,1159.138 1383.449,1078.391 1370.624,1046.33C1370.624,1046.33 1362.965,1029.364 1352.278,991.069C1352.278,991.069 1330.904,910.917 1275.688,901.566" style="fill:none;stroke:black;stroke-width:4.17px;"/>
                <path d="M1214.191,1051.693C1214.191,1051.693 1204.531,1036.266 1207.202,1014.892C1207.202,1014.892 1219.492,917.552 1279.339,909.047" style="fill:none;stroke:black;stroke-width:4.17px;"/>
                <path d="M1341.101,1341.469C1341.101,1341.469 1312.276,1299.771 1243.037,1318.473" style="fill:none;stroke:black;stroke-width:4.17px;"/>
            </g>
        </g>
    </g>
</svg>
