<?xml version="1.0" encoding="UTF-8" standalone="no"?>
<!DOCTYPE svg PUBLIC "-//W3C//DTD SVG 1.1//EN" "http://www.w3.org/Graphics/SVG/1.1/DTD/svg11.dtd">
<svg width="100%" height="100%" viewBox="0 0 608 563" version="1.1" xmlns="http://www.w3.org/2000/svg" xmlns:xlink="http://www.w3.org/1999/xlink" xml:space="preserve" xmlns:serif="http://www.serif.com/" style="fill-rule:evenodd;clip-rule:evenodd;stroke-linecap:round;stroke-linejoin:round;stroke-miterlimit:1.5;">
    <g transform="matrix(1,0,0,1,-683.936883,-803.194353)">
        <g>
            <g id="l-hand" serif:id="l hand" transform="matrix(1,0,0,1,91.237589,-16.908036)">
                <g>
                    <path d="M690.395,918.967C690.395,918.967 764.41,906.874 738.717,1045.738L738.717,1060.804C738.717,1060.804 721.151,1165.937 713.433,1178.109L712.245,1181.968C712.245,1181.968 711.503,1235.169 694.434,1287.947L693.64,1296.151L687.227,1321.456C687.227,1321.456 688.862,1319.166 684.47,1324.948C684.47,1324.948 674.895,1352.306 673.869,1354.187C672.843,1356.068 671.646,1354.187 671.646,1354.187L659.505,1349.399C659.505,1349.399 627.872,1344.783 605.814,1351.964L603.249,1349.057L601.368,1320.502C601.368,1320.502 597.538,1313.681 597.989,1311.116C598.44,1308.551 596.292,1300.068 594.357,1285.448L594.528,1274.163C594.528,1274.163 593.844,1225.81 595.18,1215.123C595.18,1215.123 613.081,1144.054 614.417,1141.115C614.417,1141.115 615.486,1089.551 616.02,1084.474C616.02,1084.474 625.371,1053.669 626.44,1051.532C626.44,1051.532 609.934,981.799 646.478,943.032C646.478,943.032 660.531,926.515 686.607,918.967L690.395,918.967Z" style="fill:rgb(220,220,220);"/>
                </g>
                <path d="M690.006,918.967C690.006,918.967 603.62,931.159 626.33,1051.693C626.33,1051.693 617.646,1071.925 616.31,1087.51C616.31,1087.51 615.42,1135.958 614.975,1140.9C614.975,1140.9 596.272,1197.942 594.937,1221.097C594.937,1221.097 594.269,1279.636 595.716,1289.719C595.716,1289.719 598.276,1312.827 598.833,1318.059C598.833,1318.059 598.626,1317.757 601.68,1320.047C601.68,1320.047 602.443,1349.818 603.97,1352.872C603.97,1352.872 653.651,1340.181 673.053,1355.925C673.053,1355.925 682.214,1330.734 682.977,1325.391C682.977,1325.391 687.032,1326.036 687.032,1321.456C687.032,1321.456 692.901,1297.147 694.046,1289.513C694.046,1289.513 711.285,1233.947 712.621,1180.957C712.621,1180.957 712.621,1178.731 716.628,1167.599C716.628,1167.599 741.565,1071.416 738.447,1046.034" style="fill:none;stroke:black;stroke-width:4.17px;"/>
                <path d="M642.71,1159.138C642.71,1159.138 654.733,1180.24 669.427,1187.056" style="fill:none;stroke:black;stroke-width:4.17px;"/>
            </g>
            <g id="body">
                <g>
                    <path d="M911.576,834.024L880.309,859.333L863.332,865.863C863.332,865.863 777.502,896.922 768.819,905.94C768.819,905.94 754.458,932.144 764.811,977.653L764.143,982.084C764.143,982.084 748.781,1033.594 767.817,1085.281C767.817,1085.281 774.925,1167.978 774.592,1176.996L776.484,1192.621L778.298,1226.972C778.298,1226.972 779.071,1254.664 780.767,1278.032L781.658,1310.389C781.658,1310.389 809.563,1327.607 815.203,1327.904L821.483,1245.377L824.703,1169.381L830.64,1097.837L839.249,1038.762L846.967,1004.623L858.545,969.593C858.545,969.593 865.882,946.602 880.891,919.18C887.082,907.869 893.132,889.409 894.591,887.338C898.603,881.646 895.711,880.111 899.642,875.159L902.296,870.146L911.576,848.407L911.576,834.024Z" style="fill:rgb(220,220,220);"/>
                    <path d="M976.964,899.011C976.964,899.011 972.269,908.504 970.214,915.042C963.453,936.558 960.453,985.414 960.453,998.41C960.453,1015.586 957.781,1056.425 957.781,1056.425L957.399,1128.832L956.636,1180.089L959.308,1231.234L962.361,1268.638L968.993,1333.261L1017.233,1330.682C1017.233,1330.682 1106.588,1321.182 1115.791,1306.043C1115.791,1306.043 1114.009,1278.435 1115.494,1274.575C1115.494,1274.575 1115.28,1256.594 1114.983,1252.141C1114.686,1247.688 1114.983,1209.266 1114.983,1209.266L1119.234,1198.74L1114.983,1186.571L1128.318,1164.663C1128.318,1164.663 1158.208,1100.87 1170.708,1038.423C1170.708,1038.423 1246.439,930.11 1182.317,892.706L1101.905,854.114L1066.519,837.802L1059.252,824.336C1059.252,824.336 1056.821,803.771 1052.793,805.278C1049.375,806.556 1044.726,812.545 1041.553,818.261C1034.484,830.995 1018.997,840.987 1014.616,845.138C1003.091,856.056 988.336,861.852 983.713,870.545C981.888,873.977 982.972,874.58 983.713,878.743C984.623,883.852 976.964,899.011 976.964,899.011Z" style="fill:rgb(220,220,220);"/>
                </g>
                <path d="M780.731,1277.837C780.731,1277.837 781.829,1305.055 781.495,1310.399C781.495,1310.399 803.536,1325.093 816.227,1327.765C816.227,1327.765 829.052,1078.524 838.136,1045.929C838.136,1045.929 846.09,985.159 878.009,926.27M767.678,973.334C767.678,973.334 747.907,1023.563 768.212,1086.082C768.212,1086.082 781.495,1266.005 780.731,1277.837" style="fill:none;stroke:black;stroke-width:4.17px;"/>
                <path d="M911.576,848.407L911.576,833.355C911.576,833.355 879.133,855.874 847.406,896.546C847.406,896.546 871.875,886.122 878.009,880.444L883.809,891.537L874.016,900.149C874.016,900.149 882.473,916.179 871.118,937.219" style="fill:none;stroke:black;stroke-width:4.17px;"/>
                <path d="M882.029,859.333C882.029,859.333 779.357,894.447 768.67,907.043C768.67,907.043 754.548,928.035 764.472,977.653" style="fill:none;stroke:black;stroke-width:4.17px;"/>
                <path d="M965.054,930.115C958.763,1001.185 946.745,1179.644 968.132,1327.765L969.182,1333.937C969.182,1333.937 1081.395,1330.12 1116.128,1305.693C1116.128,1305.693 1114.983,1277.067 1114.983,1273.25" style="fill:none;stroke:black;stroke-width:4.17px;"/>
                <path d="M971.813,910.025C971.813,910.025 968.279,918.136 965.607,930.115" style="fill:none;stroke:black;stroke-width:4.17px;"/>
                <path d="M1114.983,1273.25C1114.983,1273.25 1116.128,1259.955 1116.128,1253.085C1116.128,1253.085 1116.637,1218.734 1116.128,1209.955L1120.199,1198.886L1116.128,1186.673C1116.128,1186.673 1146.662,1141.521 1170.708,1038.423" style="fill:none;stroke:black;stroke-width:4.17px;"/>
                <path d="M983.713,870.545C983.713,870.545 1032.95,835.049 1048.598,805.659L1054.705,805.278C1054.705,805.278 1058.823,830.131 1065.352,836.788C1065.352,836.788 1042.574,905.659 1036.044,912.529C1036.044,912.529 1005.087,877.033 998.599,874.361L987.53,878.942" style="fill:none;stroke:black;stroke-width:4.17px;"/>
                <path d="M983.713,870.545C983.713,870.545 983.815,886.957 970.214,912.529" style="fill:none;stroke:black;stroke-width:4.17px;"/>
                <path d="M911.576,848.407C911.576,848.407 884.859,907.567 877.607,926.27" style="fill:none;stroke:black;stroke-width:4.17px;"/>
                <path d="M1065.352,836.788C1065.352,836.788 1158.1,880.681 1181.382,892.513" style="fill:none;stroke:black;stroke-width:4.17px;"/>
            </g>
            <g id="r-hand" serif:id="r hand" transform="matrix(1,0,0,1,-96.134035,-9.100312)">
                <g>
                    <path d="M1270.526,903.044C1270.526,903.044 1212.727,885.919 1206.735,1017.131L1206.735,1028.392C1206.735,1028.392 1209.604,1043.421 1214.191,1049.098L1214.191,1051.785C1214.191,1051.785 1213.623,1153.079 1260.952,1209.1L1260.952,1213.159C1260.952,1213.159 1241.428,1256.501 1245.412,1282.327C1245.412,1282.327 1241.184,1311.243 1238.35,1313.648C1238.35,1313.648 1237.315,1314.255 1239.986,1317.728L1243.037,1351.926L1245.65,1352.007C1245.65,1352.007 1312.123,1352.559 1324.52,1373.07C1324.52,1373.07 1339.268,1352.116 1341.62,1342.711C1341.62,1342.711 1346.049,1336.299 1348.4,1332.024C1348.4,1332.024 1356.938,1314.616 1358.647,1306.494L1372.184,1263.2C1372.184,1263.2 1384.858,1210.192 1385.681,1206.559C1385.681,1206.559 1384.154,1187.322 1383.513,1179.414C1383.513,1179.414 1382.016,1110.162 1380.734,1101.399C1380.734,1101.399 1376.673,1053.307 1366.413,1035.995C1366.413,1035.995 1351.452,988.012 1349.1,980.37C1349.1,980.37 1329.864,922.071 1291.818,906.468L1270.526,903.044Z" style="fill:rgb(220,220,220);"/>
                </g>
                <path d="M1214.197,1051.693C1214.197,1051.693 1212.638,1153.995 1260.952,1209.1" style="fill:none;stroke:black;stroke-width:4.17px;"/>
                <path d="M1281.817,1173.097C1281.817,1173.097 1240.214,1238.076 1245.176,1282.732C1245.176,1282.732 1244.041,1302.961 1239.098,1313.648C1239.098,1313.648 1236.636,1315.294 1240.644,1318.967C1240.644,1318.967 1241.646,1349.025 1241.98,1352.698C1241.98,1352.698 1307.437,1350.766 1324.804,1373.07C1324.804,1373.07 1339.117,1350.718 1341.025,1342.703C1341.025,1342.703 1344.46,1339.816 1347.895,1331.718C1347.895,1331.718 1352.475,1322.856 1358.582,1308.352C1358.582,1308.352 1376.521,1253.009 1383.01,1215.223C1383.01,1215.223 1384.536,1209.879 1385.681,1204.917C1385.681,1204.917 1381.865,1171.756 1382.628,1159.138C1382.628,1159.138 1383.449,1078.391 1370.624,1046.33C1370.624,1046.33 1362.965,1029.364 1352.278,991.069C1352.278,991.069 1330.904,910.917 1275.688,901.566" style="fill:none;stroke:black;stroke-width:4.17px;"/>
                <path d="M1214.191,1051.693C1214.191,1051.693 1204.531,1036.266 1207.202,1014.892C1207.202,1014.892 1219.492,917.552 1279.339,909.047" style="fill:none;stroke:black;stroke-width:4.17px;"/>
            </g>
        </g>
    </g>
</svg>
