<?xml version="1.0" encoding="UTF-8" standalone="no"?>
<svg width="100%" height="100%" viewBox="0 0 631 597" version="1.1" xmlns="http://www.w3.org/2000/svg" xmlns:xlink="http://www.w3.org/1999/xlink" xml:space="preserve" xmlns:serif="http://www.serif.com/" style="fill-rule:evenodd;clip-rule:evenodd;stroke-linecap:round;stroke-linejoin:round;stroke-miterlimit:1.5;">
    <g transform="matrix(1,0,0,1,-655.485935,-770.347964)">
        <g>
            <g id="l-hand" serif:id="l hand" transform="matrix(1,0,0,1,67.595358,-17.557194)">
                <path d="M690.395,918.967C690.395,918.967 764.41,906.874 738.717,1045.738L738.717,1060.804C738.717,1060.804 721.151,1165.937 713.433,1178.109L712.245,1181.968C712.245,1181.968 711.503,1235.169 694.434,1287.947L693.64,1296.151L693.907,1313.648C693.907,1313.648 692.336,1320.502 684.47,1324.948C684.47,1324.948 674.895,1352.306 673.869,1354.187C672.843,1356.068 671.646,1354.187 671.646,1354.187L659.505,1349.399C659.505,1349.399 627.872,1344.783 605.814,1351.964L603.249,1349.057L601.368,1320.502C601.368,1320.502 589.523,1307.335 589.974,1304.77C590.425,1302.206 592.818,1289.381 594.357,1285.448L594.528,1274.163C594.528,1274.163 593.844,1225.81 595.18,1215.123C595.18,1215.123 613.081,1144.054 614.417,1141.115C614.417,1141.115 615.486,1089.551 616.02,1084.474C616.02,1084.474 625.371,1053.669 626.44,1051.532C626.44,1051.532 609.934,981.799 646.478,943.032C646.478,943.032 660.531,926.515 686.607,918.967L690.395,918.967Z" style="fill:rgb(43,43,43);"/>
                <path d="M690.006,918.967C690.006,918.967 603.62,931.159 626.33,1051.693C626.33,1051.693 617.646,1071.925 616.31,1087.51C616.31,1087.51 615.42,1135.958 614.975,1140.9C614.975,1140.9 596.272,1197.942 594.937,1221.097C594.937,1221.097 596.272,1276.631 594.046,1286.046C594.046,1286.046 588.257,1299.468 590.484,1305.703C590.484,1305.703 598.626,1317.757 601.68,1320.047C601.68,1320.047 602.443,1349.818 603.97,1352.872C603.97,1352.872 653.651,1340.181 673.053,1355.925C673.053,1355.925 682.214,1330.734 682.977,1325.391C682.977,1325.391 694.046,1318.521 694.046,1313.94C694.046,1313.94 692.901,1297.147 694.046,1289.513C694.046,1289.513 711.285,1233.947 712.621,1180.957C712.621,1180.957 712.621,1178.731 716.628,1167.599C716.628,1167.599 741.565,1071.416 738.447,1046.034" style="fill:none;stroke:black;stroke-width:4.17px;"/>
                <path d="M642.71,1159.138C642.71,1159.138 654.733,1180.24 669.427,1187.056" style="fill:none;stroke:black;stroke-width:4.17px;"/>
                <path d="M601.68,1320.047C601.68,1320.047 645.859,1301.218 682.977,1325.391" style="fill:none;stroke:black;stroke-width:4.17px;"/>
            </g>
            <g id="body">
                <path d="M752.673,901.566C752.673,901.566 715.651,932.011 747.712,980.102L747.584,985.949C747.584,985.949 733.335,1036.119 752.037,1072.929C752.037,1072.929 765.693,1167.628 766.88,1177.424L765.693,1185.143C765.693,1185.143 747.51,1248.392 764.802,1268.857L766.819,1274.661L766.819,1304.585C766.819,1304.585 787.505,1320.882 823.573,1325.691C823.573,1325.691 903.191,1337.714 965.443,1326.226C965.443,1326.226 1091.817,1307.722 1098.763,1300.81C1098.763,1300.81 1097.695,1276.719 1098.763,1271.282C1098.763,1271.282 1109.985,1256.493 1109.45,1249.012C1109.45,1249.012 1100.099,1208.936 1101.168,1204.928L1105.175,1191.57L1103.84,1181.15C1103.84,1181.15 1131.893,1125.845 1135.099,1109.013C1135.099,1109.013 1146.32,1084.7 1150.595,1055.578L1157.428,1027.792C1157.428,1027.792 1225.885,929.4 1166.678,888.775C1166.678,888.775 1085.724,844.057 1079.846,841.118C1079.846,841.118 1083.212,839.488 1080.434,834.786C1080.434,834.786 1071.029,815.336 1064.617,781.565C1064.617,781.565 1059.06,773.229 1034.907,772.374L1033.411,775.366L1032.128,825.168C1032.128,825.168 972.844,866.485 910.724,890.572C910.724,890.572 900.863,879.832 897.871,872.992C897.871,872.992 888.253,852.259 895.52,828.534C895.52,828.534 877.138,829.603 868.802,824.259C868.802,824.259 861.624,848.578 859.122,853.731C859.122,853.731 807.673,874.608 799.551,877.968C791.429,881.328 752.673,901.566 752.673,901.566Z" style="fill:rgb(43,43,43);"/>
                <path d="M895.59,829.039C895.59,829.039 883.377,863.772 909.713,890.871C909.713,890.871 1081.42,817.35 1055.991,786.458" style="fill:none;stroke:black;stroke-width:4.17px;"/>
                <path d="M1032.083,825.291C1032.083,825.291 1032.613,775.103 1033.615,772.431C1033.615,772.431 1063.004,774.435 1065.342,783.118L1067.346,792.803C1067.346,792.803 1073.023,824.626 1079.035,833.428C1079.035,833.428 1085.38,839.225 1072.355,845.57C1059.33,851.916 1023.262,877.727 935.094,890.871" style="fill:none;stroke:black;stroke-width:4.17px;"/>
                <path d="M895.315,827.332C895.315,827.332 884.628,830.894 866.816,823.77C866.816,823.77 866.519,840.097 859.692,851.081C859.692,851.081 856.129,861.471 866.816,871.564C866.816,871.564 884.866,885.835 896.028,888.496" style="fill:none;stroke:black;stroke-width:4.17px;"/>
                <path d="M905.408,886.11C905.408,886.11 867.56,856.127 874.016,834.16" style="fill:none;stroke:black;stroke-width:4.17px;"/>
                <path d="M859.122,853.731C859.122,853.731 769.107,888.846 752.313,902.205" style="fill:none;stroke:black;stroke-width:4.17px;"/>
                <path d="M752.313,970.309C752.313,970.309 729.73,1026.416 752.313,1074.953C752.313,1074.953 766.435,1164.456 766.88,1180.932C766.88,1180.932 755.748,1224.574 757.084,1240.157C757.084,1240.157 758.42,1261.975 765.544,1270.435C765.544,1270.435 768.216,1299.825 766.88,1304.278C766.88,1304.278 829.995,1366.129 1099.156,1301.472C1099.156,1301.472 1097.581,1275.779 1098.917,1269.1C1098.917,1269.1 1108.713,1258.413 1109.604,1249.062C1109.604,1249.062 1101.143,1217.001 1101.143,1204.532L1105.151,1192.064L1103.37,1181.377C1103.37,1181.377 1139.795,1116.231 1151.016,1051.575L1157.428,1027.173" style="fill:none;stroke:black;stroke-width:4.17px;"/>
                <path d="M1080.58,841.754C1080.58,841.754 1163.135,884.25 1174.356,893.08" style="fill:none;stroke:black;stroke-width:4.17px;"/>
                <path d="M766.819,1182.535L782.849,1141.568C782.849,1141.568 981.413,1147.847 1007.837,1140.9C1007.837,1140.9 1045.144,1207.43 1086.458,1233.211" style="fill:none;stroke:black;stroke-width:4.17px;"/>
                <path d="M766.819,1271.282C766.819,1271.282 826.221,1337.363 1094.108,1271.816" style="fill:none;stroke:black;stroke-width:4.17px;"/>
            </g>
            <g id="r-hand" serif:id="r hand" transform="matrix(1,0,0,1,-101.388471,-8.485977)">
                <path d="M1275.584,901.566C1275.584,901.566 1169.088,870.779 1206.735,1017.131L1206.735,1028.392C1206.735,1028.392 1209.604,1043.421 1214.191,1049.098L1214.191,1051.785C1214.191,1051.785 1213.623,1153.079 1260.952,1209.1L1260.952,1213.159C1260.952,1213.159 1241.428,1256.501 1245.412,1282.327C1245.412,1282.327 1240.311,1303.835 1237.477,1306.24C1237.477,1306.24 1237.315,1314.255 1239.986,1317.728L1243.037,1351.926L1245.65,1352.007C1245.65,1352.007 1312.123,1352.559 1324.52,1373.07C1324.52,1373.07 1339.268,1352.116 1341.62,1342.711C1341.62,1342.711 1349.314,1341.642 1351.665,1337.368C1351.665,1337.368 1353.375,1334.803 1355.085,1326.681L1372.184,1263.2C1372.184,1263.2 1384.858,1210.192 1385.681,1206.559C1385.681,1206.559 1384.154,1187.322 1383.513,1179.414C1383.513,1179.414 1382.016,1110.162 1380.734,1101.399C1380.734,1101.399 1376.673,1053.307 1366.413,1035.995C1366.413,1035.995 1351.452,988.012 1349.1,980.37C1349.1,980.37 1329.864,922.071 1291.818,906.468L1275.584,901.566Z" style="fill:rgb(43,43,43);"/>
                <path d="M1214.197,1051.693C1214.197,1051.693 1212.638,1153.995 1260.952,1209.1" style="fill:none;stroke:black;stroke-width:4.17px;"/>
                <path d="M1281.817,1173.097C1281.817,1173.097 1240.214,1238.076 1245.176,1282.732C1245.176,1282.732 1242.515,1295.924 1237.571,1306.611C1237.571,1306.611 1236.636,1315.294 1240.644,1318.967C1240.644,1318.967 1241.646,1349.025 1241.98,1352.698C1241.98,1352.698 1307.437,1350.766 1324.804,1373.07C1324.804,1373.07 1339.117,1350.718 1341.025,1342.703C1341.025,1342.703 1349.804,1342.488 1353.239,1334.389C1353.239,1334.389 1355.529,1320.184 1360.491,1306.825C1360.491,1306.825 1376.521,1253.009 1383.01,1215.223C1383.01,1215.223 1384.536,1209.879 1385.681,1204.917C1385.681,1204.917 1381.865,1171.756 1382.628,1159.138C1382.628,1159.138 1383.449,1078.391 1370.624,1046.33C1370.624,1046.33 1362.965,1029.364 1352.278,991.069C1352.278,991.069 1330.904,910.917 1275.688,901.566" style="fill:none;stroke:black;stroke-width:4.17px;"/>
                <path d="M1214.191,1051.693C1214.191,1051.693 1204.531,1036.266 1207.202,1014.892C1207.202,1014.892 1219.492,917.552 1279.339,909.047" style="fill:none;stroke:black;stroke-width:4.17px;"/>
                <path d="M1341.101,1341.469C1341.101,1341.469 1312.276,1299.771 1243.037,1318.473" style="fill:none;stroke:black;stroke-width:4.17px;"/>
            </g>
        </g>
    </g>
</svg>
