<?xml version="1.0" encoding="UTF-8" standalone="no"?>
<!DOCTYPE svg PUBLIC "-//W3C//DTD SVG 1.1//EN" "http://www.w3.org/Graphics/SVG/1.1/DTD/svg11.dtd">
<svg width="100%" height="100%" viewBox="0 0 631 597" version="1.1" xmlns="http://www.w3.org/2000/svg" xmlns:xlink="http://www.w3.org/1999/xlink" xml:space="preserve" xmlns:serif="http://www.serif.com/" style="fill-rule:evenodd;clip-rule:evenodd;stroke-linecap:round;stroke-linejoin:round;stroke-miterlimit:1.5;">
    <g transform="matrix(1,0,0,1,-655.485935,-770.347964)">
        <g>
            <g id="l-hand" serif:id="l hand" transform="matrix(1,0,0,1,67.595358,-17.557194)">
                <path d="M690.395,918.967C690.395,918.967 764.41,906.874 738.717,1045.738L738.717,1060.804C738.717,1060.804 721.151,1165.937 713.433,1178.109L712.245,1181.968C712.245,1181.968 711.503,1235.169 694.434,1287.947L693.64,1296.151L693.907,1313.648C693.907,1313.648 692.336,1320.502 684.47,1324.948C684.47,1324.948 674.895,1352.306 673.869,1354.187C672.843,1356.068 671.646,1354.187 671.646,1354.187L659.505,1349.399C659.505,1349.399 627.872,1344.783 605.814,1351.964L603.249,1349.057L601.368,1320.502C601.368,1320.502 589.523,1307.335 589.974,1304.77C590.425,1302.206 592.818,1289.381 594.357,1285.448L594.528,1274.163C594.528,1274.163 593.844,1225.81 595.18,1215.123C595.18,1215.123 613.081,1144.054 614.417,1141.115C614.417,1141.115 615.486,1089.551 616.02,1084.474C616.02,1084.474 625.371,1053.669 626.44,1051.532C626.44,1051.532 609.934,981.799 646.478,943.032C646.478,943.032 660.531,926.515 686.607,918.967L690.395,918.967Z" style="fill:rgb(43,43,43);"/>
                <path d="M690.006,918.967C690.006,918.967 603.62,931.159 626.33,1051.693C626.33,1051.693 617.646,1071.925 616.31,1087.51C616.31,1087.51 615.42,1135.958 614.975,1140.9C614.975,1140.9 596.272,1197.942 594.937,1221.097C594.937,1221.097 596.272,1276.631 594.046,1286.046C594.046,1286.046 588.257,1299.468 590.484,1305.703C590.484,1305.703 598.626,1317.757 601.68,1320.047C601.68,1320.047 602.443,1349.818 603.97,1352.872C603.97,1352.872 653.651,1340.181 673.053,1355.925C673.053,1355.925 682.214,1330.734 682.977,1325.391C682.977,1325.391 694.046,1318.521 694.046,1313.94C694.046,1313.94 692.901,1297.147 694.046,1289.513C694.046,1289.513 711.285,1233.947 712.621,1180.957C712.621,1180.957 712.621,1178.731 716.628,1167.599C716.628,1167.599 741.565,1071.416 738.447,1046.034" style="fill:none;stroke:black;stroke-width:4.17px;"/>
                <path d="M642.71,1159.138C642.71,1159.138 654.733,1180.24 669.427,1187.056" style="fill:none;stroke:black;stroke-width:4.17px;"/>
                <path d="M601.68,1320.047C601.68,1320.047 645.859,1301.218 682.977,1325.391" style="fill:none;stroke:black;stroke-width:4.17px;"/>
            </g>
            <g id="body">
                <path d="M752.673,901.566C752.673,901.566 715.651,932.011 747.712,980.102L747.584,985.949C747.584,985.949 733.335,1036.119 752.037,1072.929C752.037,1072.929 765.693,1167.628 766.88,1177.424L765.693,1185.143C765.693,1185.143 747.51,1248.392 764.802,1268.857L766.819,1274.661L766.819,1304.585C766.819,1304.585 787.505,1320.882 823.573,1325.691C823.573,1325.691 903.191,1337.714 965.443,1326.226C965.443,1326.226 1091.817,1307.722 1098.763,1300.81C1098.763,1300.81 1097.695,1276.719 1098.763,1271.282C1098.763,1271.282 1109.985,1256.493 1109.45,1249.012C1109.45,1249.012 1100.099,1208.936 1101.168,1204.928L1105.175,1191.57L1103.84,1181.15C1103.84,1181.15 1131.893,1125.845 1135.099,1109.013C1135.099,1109.013 1146.32,1084.7 1150.595,1055.578L1157.428,1027.792C1157.428,1027.792 1225.885,929.4 1166.678,888.775C1166.678,888.775 1085.724,844.057 1079.846,841.118C1079.846,841.118 1083.212,839.488 1080.434,834.786C1080.434,834.786 1071.029,815.336 1064.617,781.565C1064.617,781.565 1059.06,773.229 1034.907,772.374L1033.411,775.366L1032.128,825.168C1032.128,825.168 972.844,866.485 910.724,890.572C910.724,890.572 900.863,879.832 897.871,872.992C897.871,872.992 888.253,852.259 895.52,828.534C895.52,828.534 877.138,829.603 868.802,824.259C868.802,824.259 861.624,848.578 859.122,853.731C859.122,853.731 807.673,874.608 799.551,877.968C791.429,881.328 752.673,901.566 752.673,901.566Z" style="fill:rgb(43,43,43);"/>
                <clipPath id="_clip1">
                    <path d="M752.673,901.566C752.673,901.566 715.651,932.011 747.712,980.102L747.584,985.949C747.584,985.949 733.335,1036.119 752.037,1072.929C752.037,1072.929 765.693,1167.628 766.88,1177.424L765.693,1185.143C765.693,1185.143 747.51,1248.392 764.802,1268.857L766.819,1274.661L766.819,1304.585C766.819,1304.585 787.505,1320.882 823.573,1325.691C823.573,1325.691 903.191,1337.714 965.443,1326.226C965.443,1326.226 1091.817,1307.722 1098.763,1300.81C1098.763,1300.81 1097.695,1276.719 1098.763,1271.282C1098.763,1271.282 1109.985,1256.493 1109.45,1249.012C1109.45,1249.012 1100.099,1208.936 1101.168,1204.928L1105.175,1191.57L1103.84,1181.15C1103.84,1181.15 1131.893,1125.845 1135.099,1109.013C1135.099,1109.013 1146.32,1084.7 1150.595,1055.578L1157.428,1027.792C1157.428,1027.792 1225.885,929.4 1166.678,888.775C1166.678,888.775 1085.724,844.057 1079.846,841.118C1079.846,841.118 1083.212,839.488 1080.434,834.786C1080.434,834.786 1071.029,815.336 1064.617,781.565C1064.617,781.565 1059.06,773.229 1034.907,772.374L1033.411,775.366L1032.128,825.168C1032.128,825.168 972.844,866.485 910.724,890.572C910.724,890.572 900.863,879.832 897.871,872.992C897.871,872.992 888.253,852.259 895.52,828.534C895.52,828.534 877.138,829.603 868.802,824.259C868.802,824.259 861.624,848.578 859.122,853.731C859.122,853.731 807.673,874.608 799.551,877.968C791.429,881.328 752.673,901.566 752.673,901.566Z"/>
                </clipPath>
                <g clip-path="url(#_clip1)">
                    <g transform="matrix(0.053686,0,0,0.053686,915.018536,1049.866117)">
                        <g transform="matrix(1,0,0,1,-3643.75,-5168.75)">
                            <g id="_5a7f5f47abc3d121aba71181.png" serif:id="5a7f5f47abc3d121aba71181.png" transform="matrix(9.809338,0,0,9.809338,1487.916371,3540.618292)">
                                <path d="M68.5,2.034L374.5,2.034C380.228,1.997 377.965,4.825 377.966,10.5C377.971,125.615 377.931,125.602 378.034,129.495C378.115,132.53 376.364,131.966 345.5,131.966C7.396,131.966 7.4,131.958 4.505,132.034C2.224,132.095 2.044,130.955 2.035,129.512C1.968,119.35 1.206,3.811 2.483,2.483C2.979,1.967 3.134,2.034 68.5,2.034Z" style="fill:rgb(227,36,31);"/>
                                <path d="M131.908,46.381C133.181,46.559 133.23,46.931 134.237,46.096C142.771,39.013 156.65,41.486 161.526,50.484C175.436,76.149 142.517,105.234 127.284,89.739C123.632,86.025 125.05,91.603 121.092,115.436C120.525,118.854 117.019,118.398 108.534,118.196C105.957,118.134 107.621,112.401 107.761,111.541C118.48,45.713 117.115,43.654 120.503,43.541C130.398,43.21 131.81,42.973 131.908,46.381Z" style="fill:rgb(254,254,254);"/>
                                <path d="M303.935,61.531C303.934,60.823 303.926,54.362 300.541,53.363C286.181,49.127 288.392,89.962 284.333,92.047C283.837,92.301 272.861,92.251 272.605,92.132C268.421,90.19 281.877,56.107 272.538,53.37C259.576,49.57 259.998,82.28 257.572,90.52C256.756,93.293 243.399,93.064 243.666,90.502C243.715,90.035 250.879,45.057 250.992,44.692C251.593,42.738 263.815,43.515 264.262,43.842C264.904,44.312 264.047,48.491 266.707,45.911C270.1,42.62 277.748,40.606 283.649,43.139C288.949,45.414 288.559,50.733 292.806,46.858C298.682,41.496 310.238,39.854 315.44,45.555C317.864,48.212 320.64,51.255 313.431,90.482C312.985,92.906 306.42,92.26 301.516,92.215C297.789,92.18 300.305,89.827 303.935,61.531Z" style="fill:rgb(254,254,254);"/>
                                <path d="M31.534,94.12C24.437,92.448 23.744,93.497 18.721,88.276C10.687,79.927 14.616,78.172 14.886,77.95C19.728,73.96 23.153,69.353 24.833,73.35C29.157,83.637 39.907,82.6 44.084,77.155C54.882,63.076 34.131,57.494 33.627,57.244C31.505,56.191 14.844,47.923 25.818,28.684C39.127,5.351 70.443,19.701 66.017,25.15C60.919,31.428 59.199,34.206 57.147,31.837C51.166,24.932 42.528,28.407 39.923,31.856C32.396,41.822 48.092,46.359 51.301,47.896C70.258,56.982 61.991,76.538 55.01,85.06C47.775,93.892 33.547,94.092 31.534,94.12Z" style="fill:rgb(254,254,254);"/>
                                <path d="M319.92,72.513C320.168,70.685 321.868,58.142 327.954,50.895C331.622,46.526 337.314,43.723 340.612,42.917C366.657,36.557 369.802,60.597 367,68.69C365.695,72.46 335.593,67.786 334.678,71.55C332.429,80.805 342.682,87.783 350.436,79.439C353.217,76.447 353.736,76.32 363.572,78.326C366.432,78.909 360.859,84.983 360.438,85.441C352.064,94.567 321.689,103.426 319.92,72.513Z" style="fill:rgb(254,254,254);"/>
                                <path d="M215.5,70.122C214.815,70.238 214.102,70.09 213.417,70.206C210.818,70.648 210.769,82.986 219.509,83.134C225.758,83.239 229.223,77.863 229.555,77.56C230.97,76.267 243.183,77.261 241.642,80.565C234.059,96.83 197.48,101.595 197.311,73.501C197.072,33.796 252.797,31.215 244.44,68.482C243.982,70.526 243.114,70.122 215.5,70.122Z" style="fill:rgb(254,254,254);"/>
                                <path d="M79.084,74.5C80.325,87.292 92.578,83.241 94.823,72.576C97.799,58.434 97.797,43.633 101.503,43.542C106.551,43.417 113.528,42.841 113.173,45.479C108.891,77.371 106.773,80.66 105.1,83.258C95.049,98.868 61.59,99.663 64.941,73.552C65.245,71.179 68.522,45.642 70.152,44.11C70.784,43.515 83.598,42.102 83.337,45.491C83.017,49.651 79.894,63.977 79.084,74.5Z" style="fill:rgb(254,254,254);"/>
                                <path d="M165.894,78.56C170.717,48.561 171.05,44.652 171.903,43.986C172.258,43.709 185.648,41.921 185.003,45.608C184.052,51.043 189.498,41.679 197.511,41.95C206.416,42.252 202.117,48.154 201.71,49.562C200.558,53.543 200.444,55.85 197.4,54.808C181.133,49.239 180.124,77.564 178.131,89.442C177.57,92.785 174.602,92.44 165.534,92.211C163.063,92.149 164.829,85.167 165.894,78.56Z" style="fill:rgb(254,254,254);"/>
                                <path d="M127.087,69.483C130.477,49.759 145.369,53.163 148.499,58.5C158.395,75.371 128.239,94.607 127.087,69.483Z" style="fill:rgb(227,36,31);"/>
                                <path d="M217.342,55.359C225.06,47.705 231.811,53.354 232.381,59.506C232.506,60.858 232.127,62.303 215.516,61.444C212.97,61.312 217.041,55.769 217.342,55.359Z" style="fill:rgb(227,34,29);"/>
                                <path d="M338.382,57.427C346.774,45.716 355.013,54.425 354.939,59.5C354.92,60.824 354.542,61.939 338.501,61.491C335.7,61.412 337.402,60.017 338.382,57.427Z" style="fill:rgb(227,34,29);"/>
                            </g>
                        </g>
                    </g>
                </g>
                <path d="M895.59,829.039C895.59,829.039 883.377,863.772 909.713,890.871C909.713,890.871 1081.42,817.35 1055.991,786.458" style="fill:none;stroke:black;stroke-width:4.17px;"/>
                <path d="M1032.083,825.291C1032.083,825.291 1032.613,775.103 1033.615,772.431C1033.615,772.431 1063.004,774.435 1065.342,783.118L1067.346,792.803C1067.346,792.803 1073.023,824.626 1079.035,833.428C1079.035,833.428 1085.38,839.225 1072.355,845.57C1059.33,851.916 1023.262,877.727 935.094,890.871" style="fill:none;stroke:black;stroke-width:4.17px;"/>
                <path d="M895.315,827.332C895.315,827.332 884.628,830.894 866.816,823.77C866.816,823.77 866.519,840.097 859.692,851.081C859.692,851.081 856.129,861.471 866.816,871.564C866.816,871.564 884.866,885.835 896.028,888.496" style="fill:none;stroke:black;stroke-width:4.17px;"/>
                <path d="M905.408,886.11C905.408,886.11 867.56,856.127 874.016,834.16" style="fill:none;stroke:black;stroke-width:4.17px;"/>
                <path d="M859.122,853.731C859.122,853.731 769.107,888.846 752.313,902.205" style="fill:none;stroke:black;stroke-width:4.17px;"/>
                <path d="M752.313,970.309C752.313,970.309 729.73,1026.416 752.313,1074.953C752.313,1074.953 766.435,1164.456 766.88,1180.932C766.88,1180.932 755.748,1224.574 757.084,1240.157C757.084,1240.157 758.42,1261.975 765.544,1270.435C765.544,1270.435 768.216,1299.825 766.88,1304.278C766.88,1304.278 829.995,1366.129 1099.156,1301.472C1099.156,1301.472 1097.581,1275.779 1098.917,1269.1C1098.917,1269.1 1108.713,1258.413 1109.604,1249.062C1109.604,1249.062 1101.143,1217.001 1101.143,1204.532L1105.151,1192.064L1103.37,1181.377C1103.37,1181.377 1139.795,1116.231 1151.016,1051.575L1157.428,1027.173" style="fill:none;stroke:black;stroke-width:4.17px;"/>
                <path d="M1080.58,841.754C1080.58,841.754 1163.135,884.25 1174.356,893.08" style="fill:none;stroke:black;stroke-width:4.17px;"/>
                <path d="M766.819,1182.535L782.849,1141.568C782.849,1141.568 981.413,1147.847 1007.837,1140.9C1007.837,1140.9 1045.144,1207.43 1086.458,1233.211" style="fill:none;stroke:black;stroke-width:4.17px;"/>
                <path d="M766.819,1271.282C766.819,1271.282 826.221,1337.363 1094.108,1271.816" style="fill:none;stroke:black;stroke-width:4.17px;"/>
            </g>
            <g id="r-hand" serif:id="r hand" transform="matrix(1,0,0,1,-101.388471,-8.485977)">
                <path d="M1275.584,901.566C1275.584,901.566 1169.088,870.779 1206.735,1017.131L1206.735,1028.392C1206.735,1028.392 1209.604,1043.421 1214.191,1049.098L1214.191,1051.785C1214.191,1051.785 1213.623,1153.079 1260.952,1209.1L1260.952,1213.159C1260.952,1213.159 1241.428,1256.501 1245.412,1282.327C1245.412,1282.327 1240.311,1303.835 1237.477,1306.24C1237.477,1306.24 1237.315,1314.255 1239.986,1317.728L1243.037,1351.926L1245.65,1352.007C1245.65,1352.007 1312.123,1352.559 1324.52,1373.07C1324.52,1373.07 1339.268,1352.116 1341.62,1342.711C1341.62,1342.711 1349.314,1341.642 1351.665,1337.368C1351.665,1337.368 1353.375,1334.803 1355.085,1326.681L1372.184,1263.2C1372.184,1263.2 1384.858,1210.192 1385.681,1206.559C1385.681,1206.559 1384.154,1187.322 1383.513,1179.414C1383.513,1179.414 1382.016,1110.162 1380.734,1101.399C1380.734,1101.399 1376.673,1053.307 1366.413,1035.995C1366.413,1035.995 1351.452,988.012 1349.1,980.37C1349.1,980.37 1329.864,922.071 1291.818,906.468L1275.584,901.566Z" style="fill:rgb(43,43,43);"/>
                <path d="M1214.197,1051.693C1214.197,1051.693 1212.638,1153.995 1260.952,1209.1" style="fill:none;stroke:black;stroke-width:4.17px;"/>
                <path d="M1281.817,1173.097C1281.817,1173.097 1240.214,1238.076 1245.176,1282.732C1245.176,1282.732 1242.515,1295.924 1237.571,1306.611C1237.571,1306.611 1236.636,1315.294 1240.644,1318.967C1240.644,1318.967 1241.646,1349.025 1241.98,1352.698C1241.98,1352.698 1307.437,1350.766 1324.804,1373.07C1324.804,1373.07 1339.117,1350.718 1341.025,1342.703C1341.025,1342.703 1349.804,1342.488 1353.239,1334.389C1353.239,1334.389 1355.529,1320.184 1360.491,1306.825C1360.491,1306.825 1376.521,1253.009 1383.01,1215.223C1383.01,1215.223 1384.536,1209.879 1385.681,1204.917C1385.681,1204.917 1381.865,1171.756 1382.628,1159.138C1382.628,1159.138 1383.449,1078.391 1370.624,1046.33C1370.624,1046.33 1362.965,1029.364 1352.278,991.069C1352.278,991.069 1330.904,910.917 1275.688,901.566" style="fill:none;stroke:black;stroke-width:4.17px;"/>
                <path d="M1214.191,1051.693C1214.191,1051.693 1204.531,1036.266 1207.202,1014.892C1207.202,1014.892 1219.492,917.552 1279.339,909.047" style="fill:none;stroke:black;stroke-width:4.17px;"/>
                <path d="M1341.101,1341.469C1341.101,1341.469 1312.276,1299.771 1243.037,1318.473" style="fill:none;stroke:black;stroke-width:4.17px;"/>
            </g>
        </g>
    </g>
</svg>
