<?xml version="1.0" encoding="UTF-8" standalone="no"?>
<svg width="100%" height="100%" viewBox="0 0 613 545" version="1.1" xmlns="http://www.w3.org/2000/svg" xmlns:xlink="http://www.w3.org/1999/xlink" xml:space="preserve" xmlns:serif="http://www.serif.com/" style="fill-rule:evenodd;clip-rule:evenodd;stroke-linecap:round;stroke-linejoin:round;stroke-miterlimit:1.5;">
    <g transform="matrix(1,0,0,1,-679.128166,-821.39027)">
        <g>
            <g id="l-hand" serif:id="l hand" transform="matrix(1,0,0,1,91.237589,-16.908036)">
                <g>
                    <path d="M690.395,918.967C690.395,918.967 764.41,906.874 738.717,1045.738L738.717,1060.804C738.717,1060.804 721.151,1165.937 713.433,1178.109L712.245,1181.968C712.245,1181.968 711.503,1235.169 694.434,1287.947L693.64,1296.151L693.907,1313.648C693.907,1313.648 692.336,1320.502 684.47,1324.948C684.47,1324.948 674.895,1352.306 673.869,1354.187C672.843,1356.068 671.646,1354.187 671.646,1354.187L659.505,1349.399C659.505,1349.399 627.872,1344.783 605.814,1351.964L603.249,1349.057L601.368,1320.502C601.368,1320.502 589.523,1307.335 589.974,1304.77C590.425,1302.206 592.818,1289.381 594.357,1285.448L594.528,1274.163C594.528,1274.163 593.844,1225.81 595.18,1215.123C595.18,1215.123 613.081,1144.054 614.417,1141.115C614.417,1141.115 615.486,1089.551 616.02,1084.474C616.02,1084.474 625.371,1053.669 626.44,1051.532C626.44,1051.532 609.934,981.799 646.478,943.032C646.478,943.032 660.531,926.515 686.607,918.967L690.395,918.967Z" style="fill:rgb(43,43,43);"/>
                </g>
                <path d="M690.006,918.967C690.006,918.967 603.62,931.159 626.33,1051.693C626.33,1051.693 617.646,1071.925 616.31,1087.51C616.31,1087.51 615.42,1135.958 614.975,1140.9C614.975,1140.9 596.272,1197.942 594.937,1221.097C594.937,1221.097 596.272,1276.631 594.046,1286.046C594.046,1286.046 588.257,1299.468 590.484,1305.703C590.484,1305.703 598.626,1317.757 601.68,1320.047C601.68,1320.047 602.443,1349.818 603.97,1352.872C603.97,1352.872 653.651,1340.181 673.053,1355.925C673.053,1355.925 682.214,1330.734 682.977,1325.391C682.977,1325.391 694.046,1318.521 694.046,1313.94C694.046,1313.94 692.901,1297.147 694.046,1289.513C694.046,1289.513 711.285,1233.947 712.621,1180.957C712.621,1180.957 712.621,1178.731 716.628,1167.599C716.628,1167.599 741.565,1071.416 738.447,1046.034" style="fill:none;stroke:black;stroke-width:4.17px;"/>
                <path d="M642.71,1159.138C642.71,1159.138 654.733,1180.24 669.427,1187.056" style="fill:none;stroke:black;stroke-width:4.17px;"/>
                <path d="M601.68,1320.047C601.68,1320.047 645.859,1301.218 682.977,1325.391" style="fill:none;stroke:black;stroke-width:4.17px;"/>
            </g>
            <g id="body">
                <g>
                    <path d="M905.597,847.703L879.882,861.085L863.332,865.863C863.332,865.863 777.502,896.922 768.819,905.94C768.819,905.94 754.458,932.144 764.811,977.653L764.143,982.084C764.143,982.084 748.781,1033.594 767.817,1085.281C767.817,1085.281 784.849,1168.36 784.515,1177.377L783.736,1184.224L777.535,1208.269C777.535,1208.269 765.331,1262.298 780.767,1278.032L781.658,1310.389C781.658,1310.389 809.563,1327.607 815.203,1327.904L821.483,1245.377L824.703,1169.381L830.64,1097.837L839.249,1038.762L846.967,1004.623L858.545,969.593C858.545,969.593 876.653,920.908 899.512,892.113L900.105,879.348L901.59,859.333L905.597,847.703Z" style="fill:rgb(43,43,43);"/>
                    <path d="M764.811,977.653C764.811,977.653 849.45,982.463 855.03,980.227C855.03,980.227 836.387,1041.345 835.373,1055.706C835.373,1055.706 759.872,1055.038 760.213,1048.692C760.213,1048.692 755.71,1019.053 764.811,977.653Z" style="fill:rgb(220,220,220);"/>
                    <path d="M967.705,898.792C967.705,898.792 960.453,981.235 960.453,998.41C960.453,1015.586 957.781,1056.425 957.781,1056.425L957.399,1128.832L956.636,1180.089L959.308,1231.234L962.361,1268.638L968.993,1333.261L1017.233,1330.682C1017.233,1330.682 1106.588,1321.182 1115.791,1306.043C1115.791,1306.043 1114.009,1278.435 1115.494,1274.575C1115.494,1274.575 1125.884,1257.357 1125.587,1252.905C1125.29,1248.452 1114.983,1209.266 1114.983,1209.266L1119.234,1198.74L1114.983,1186.571L1128.318,1164.663C1128.318,1164.663 1158.208,1100.87 1170.708,1038.423C1170.708,1038.423 1246.439,930.11 1182.317,892.706L1101.905,854.114L1066.519,837.802L1045.145,823.908C1045.145,823.908 1045.466,834.943 1033.924,845.843C1022.382,856.744 986.687,888.805 977.924,893.294C969.161,897.782 967.705,898.792 967.705,898.792Z" style="fill:rgb(43,43,43);"/>
                    <path d="M961.45,977.653L957.781,1056.425C957.781,1056.425 1079.082,1055.597 1116.128,1055.706C1116.128,1055.706 1111.811,976.998 1116.128,974.994C1116.128,974.994 1128.631,981.593 961.45,977.653Z" style="fill:rgb(220,220,220);"/>
                    <g>
                        <g transform="matrix(0.400705,0,0,0.400705,251.350537,906.800592)">
                            <g transform="matrix(0.559203,0.000028,-0.000053,1.048311,1490.440899,-16.957057)">
                                <path d="M862.5,302.9C858.461,302.742 856.498,304.489 856.476,300.501C856.394,286.027 856.156,284.161 858.438,284.034C859.985,283.948 893.668,283.823 894.641,284.175C895.944,284.646 895.811,285.226 895.801,335.5C895.799,340.728 897.578,342.725 890.398,345.211C879.123,349.114 827.615,361.799 815.729,325.428C812.398,315.234 806.998,265.577 820.797,244.705C837.125,220.009 893.338,220.33 896.055,259.513C896.277,262.712 891.352,261.881 876.5,261.882C872.625,261.882 872.291,261.379 871.552,257.491C868.708,242.532 841.462,238.716 838.341,268.481C838.335,268.538 834.883,309.379 840.825,322.354C848.104,338.249 871.625,331.495 872.364,328.467C872.492,327.941 872.764,304.625 872.192,303.69C871.713,302.908 863.278,302.9 862.5,302.9Z"/>
                            </g>
                            <g transform="matrix(0.559203,0.000028,-0.000053,1.048311,1490.440899,-16.957057)">
                                <path d="M541.086,287.5C541.175,254.116 546.681,228.691 585.498,228.79C625.365,228.891 624.189,263.012 622.621,263.714C621.546,264.196 600.543,263.898 600.386,263.855C597.914,263.181 599.977,248.823 588.413,246.937C567.802,243.577 567.047,266.764 566.875,272.516C565.617,314.704 567.329,331.173 582.534,332.193C601.24,333.448 599.077,317.166 600.277,314.376C601.107,312.445 623.359,313.609 623.428,313.646C624.951,314.46 626.731,349.081 586.5,350.493C537.739,352.205 541.098,304.864 541.086,287.5Z"/>
                            </g>
                            <g transform="matrix(0.559203,0.000028,-0.000053,1.048311,1490.440899,-16.957057)">
                                <path d="M674.071,234.5C674.057,347.519 674.197,347.739 673.465,348.46C673.135,348.785 650.9,350.1 650.183,347.608C650.099,347.318 649.803,232.627 650.337,231.407C650.979,229.944 673.156,229.999 673.745,231.349C673.846,231.581 673.769,231.582 674.071,234.5Z"/>
                            </g>
                            <g transform="matrix(0.559203,0.000028,-0.000053,1.048311,1490.440899,-16.957057)">
                                <path d="M983.977,240.355C992.635,273.479 1013.572,347.355 1012.524,348.524C1012.447,348.61 988.94,350.339 987.575,347.461C985.709,343.527 982.187,323.07 979.522,322.403C979.258,322.337 947.481,322.004 946.548,322.602C943.824,324.347 940.421,347.956 937.585,348.777C937.25,348.874 916.162,349.235 915.454,348.555C914.11,347.263 927.689,301.722 939.854,255.589C946.08,231.977 945.603,231.379 947.573,230.696C949.911,229.885 949.995,230.437 978.5,230.506C982.576,230.516 983.005,236.811 983.977,240.355ZM954.082,287.38C950.644,301.769 949.558,303.916 952.45,303.968C975.538,304.382 976.75,304.431 976.587,302.503C976.25,298.523 967.586,268.464 964.707,251.399C963.623,244.969 962.162,254.093 962.112,254.407C961.88,255.853 954.734,284.744 954.082,287.38Z" style="fill:rgb(1,1,1);"/>
                            </g>
                            <g transform="matrix(0.559203,0.000028,-0.000053,1.048311,1490.440899,-16.957057)">
                                <path d="M703.896,327.623C729.731,232.807 728.533,231.288 731.526,230.613C732.437,230.408 762.976,230.503 763.491,230.559C765.094,230.735 765.22,231.193 770.122,249.599C796.137,347.281 797.3,348.112 795.635,348.749C794.871,349.042 772.922,348.94 772.412,348.801C769.617,348.043 766.06,323.834 763.454,322.598C762.226,322.016 730.945,322.303 730.481,322.429C727.984,323.111 724.655,341.743 722.441,347.472C721.806,349.116 721.295,349.295 700.453,348.918C696.906,348.853 700.052,342.102 703.896,327.623ZM749.883,260.414C748.05,251.439 748.395,251.391 748.234,250.612C747.371,246.437 746.324,251.449 742.733,266.552C734.197,302.459 733.662,302.714 734.46,303.537C735.808,304.93 756.658,304.033 758.587,303.95C760.915,303.85 760.125,302.304 754.177,277.584C751.149,265.003 750.124,261.383 749.883,260.414Z" style="fill:rgb(1,1,1);"/>
                            </g>
                        </g>
                        <g transform="matrix(0.29945,0,0,0.29945,487.382091,937.213708)">
                            <g transform="matrix(0.454337,0.03236,-0.113124,1.588271,957.555105,-189.579701)">
                                <path d="M420.896,335.5C420.896,232.572 420.895,232.58 420.903,232.527C421.335,229.788 422.659,229.997 455.499,230.516C459.569,230.58 458.206,232.812 478.785,291.392C490.394,324.437 486.472,327.292 489.468,327.293C491.073,327.293 489.841,318.388 489.785,317.493C488.903,303.406 489.234,232.193 489.507,231.503C490.067,230.089 490.533,230.189 508.499,230.51C510.978,230.555 510.734,232.599 510.736,233.497C510.757,242.62 510.999,346.184 510.632,347.537C510.292,348.787 509.788,348.991 478.495,348.91C475.561,348.902 475.291,348.338 472.687,340.439C461.067,305.19 447.952,273.72 443.321,250.577C443.02,249.073 441.094,248.995 441.292,251.473C441.896,259.052 443.361,277.402 442.632,346.506C442.603,349.279 441.197,349.044 423.487,348.908C419.677,348.879 420.917,341.085 420.896,335.5Z"/>
                            </g>
                            <g transform="matrix(0.454337,0.03236,-0.113124,1.588271,957.555105,-189.579701)">
                                <path d="M384.826,281.501C384.823,291.732 385.744,296.824 382.532,296.962C368.769,297.552 348.008,295.57 347.347,298.465C347.268,298.809 347.219,327.961 347.378,328.534C348.272,331.75 386.568,328.387 388.487,330.509C388.613,330.649 389.985,348.153 387.601,348.805C387.161,348.925 387.185,348.91 332.5,348.91C329.039,348.91 323.172,349.948 323.128,346.523C322.958,333.398 323.11,242.539 323.126,233.496C323.128,232.018 322.956,230.313 325.488,230.279C330.361,230.215 384.878,229.493 386.402,230.643C387.14,231.199 388.489,248.798 385.458,249.205C380.774,249.833 348.247,247.856 347.414,250.471C347.402,250.51 346.793,276.157 347.781,277.241C349.257,278.86 382.866,276.691 384.47,278.521C384.628,278.701 384.496,278.739 384.826,281.501Z"/>
                            </g>
                            <g transform="matrix(0.454337,0.03236,-0.113124,1.588271,957.555105,-189.579701)">
                                <path d="M290.5,348.91C236.997,348.91 236.968,348.939 236.395,348.731C235.31,348.337 235.311,341.164 235.311,340.5C235.327,232.306 235.216,232.295 235.523,231.51C236.219,229.732 258.022,230.258 258.874,231.159C260.058,232.41 259.095,321.706 259.408,327.505C259.569,330.497 261.206,329.826 295.498,329.855C299.156,329.858 298.418,333.236 298.319,345.499C298.276,350.732 295.737,348.653 290.5,348.91Z"/>
                            </g>
                            <g transform="matrix(0.454337,0.03236,-0.113124,1.588271,957.555105,-189.579701)">
                                <path d="M92.904,262.527C91.784,268.297 91.31,282.303 71.613,285.775C65.711,286.815 75.189,288.203 75.558,288.258C98.911,291.679 106.879,341.584 68.546,347.787C54.013,350.139 14.477,348.584 14.455,348.564C13.639,347.846 13.734,347.6 13.734,244.5C13.734,238.883 12.936,230.619 15.503,230.524C19.18,230.389 41.534,229.568 61.495,230.612C87.935,231.996 92.943,244.788 92.904,262.527ZM37.958,274.5C38.316,276.905 37.271,277.959 39.554,278.163C62.68,280.228 66.09,273.327 67.096,271.291C69.487,266.454 71.913,249.77 55.483,248.689C38.462,247.569 38.086,249.03 38.037,250.432C37.969,252.356 38.219,252.273 37.958,274.5ZM37.962,316.5C37.964,324.069 36.866,330.881 40.481,330.915C46.268,330.969 75.963,335.424 70.186,307.579C67.428,294.289 49.322,296.233 40.495,296.31C37.282,296.339 38.165,298.095 37.962,316.5Z"/>
                            </g>
                            <g transform="matrix(0.454337,0.03236,-0.113124,1.588271,957.555105,-189.579701)">
                                <path d="M137.979,341.64C136.544,346.751 137.775,348.869 132.503,348.911C113.684,349.062 111.865,349.153 112.556,346.512C112.609,346.307 132.728,272.445 142.961,234.624C144.544,228.774 146.467,230.503 152.5,230.504C177.015,230.51 178.524,229.699 179.547,233.486C181.944,242.366 209.221,343.423 209.508,344.498C210.277,347.379 211.552,348.814 208.564,348.91C206.793,348.967 189.091,349.536 186.413,348.791C182.904,347.815 180.463,322.788 176.521,322.349C176.044,322.296 145.231,322.208 144.475,322.393C142.829,322.795 142.386,325.033 137.979,341.64ZM150.91,289.598C148.262,301.098 147.146,303.859 149.405,303.96C151.337,304.046 172.161,304.976 173.581,303.587C175.04,302.159 163.162,261.148 161.978,251.139C161.171,244.314 159.484,254.153 159.427,254.484C158.738,258.5 151.616,286.795 150.91,289.598Z" style="fill:rgb(1,1,1);"/>
                            </g>
                        </g>
                    </g>
                </g>
                <path d="M767.678,973.334C767.678,973.334 747.907,1023.563 768.212,1086.082C768.212,1086.082 785.693,1170.967 784.93,1182.799C784.93,1182.799 760.884,1250.356 780.731,1277.837C780.731,1277.837 781.829,1305.055 781.495,1310.399C781.495,1310.399 803.536,1325.093 816.227,1327.765C816.227,1327.765 829.052,1078.524 838.136,1045.929C838.136,1045.929 849.624,958.162 900.387,891.368C900.387,891.368 897.593,856.407 908.28,846.483L882.029,859.333C882.029,859.333 871.418,878.366 900.387,891.368" style="fill:none;stroke:black;stroke-width:4.17px;"/>
                <path d="M1031.44,1147.977L1021.134,1152.557C1021.134,1152.557 1065.409,1235 1102.813,1249.503L1106.249,1240.157C1106.249,1240.157 1088.31,1237.271 1031.44,1147.977Z" style="fill:none;stroke:black;stroke-width:4.17px;"/>
                <path d="M882.029,859.333C882.029,859.333 779.357,894.447 768.67,907.043C768.67,907.043 754.548,928.035 764.472,977.653" style="fill:none;stroke:black;stroke-width:4.17px;"/>
                <path d="M782.045,1278.742C782.045,1278.742 795.404,1293.102 817.779,1297.11" style="fill:none;stroke:black;stroke-width:4.17px;"/>
                <path d="M785.051,1182.893C785.051,1182.893 795.07,1150.832 796.072,1147.492L804.755,1148.828C804.755,1148.828 772.694,1233.656 775.365,1261.542" style="fill:none;stroke:black;stroke-width:4.17px;"/>
                <path d="M968.132,898.697C968.132,898.697 940.747,1138.101 968.132,1327.765L969.182,1333.937C969.182,1333.937 1081.395,1330.12 1116.128,1305.693C1116.128,1305.693 1114.983,1277.067 1114.983,1273.25C1114.983,1273.25 1095.493,1294.025 964.971,1303.676" style="fill:none;stroke:black;stroke-width:4.17px;"/>
                <path d="M1114.983,1273.25C1114.983,1273.25 1125.161,1259.955 1125.161,1253.085C1125.161,1253.085 1116.637,1218.734 1116.128,1209.955L1120.199,1198.886L1116.128,1186.673C1116.128,1186.673 1146.662,1141.521 1170.708,1038.423" style="fill:none;stroke:black;stroke-width:4.17px;"/>
                <path d="M969.169,898.697C969.169,898.697 1042.069,855.197 1044.359,823.474C1044.359,823.474 1061.917,832.59 1065.352,836.788C1065.352,836.788 1069.569,871.88 974.522,895.365" style="fill:none;stroke:black;stroke-width:4.17px;"/>
                <path d="M1065.352,836.788C1065.352,836.788 1158.1,880.681 1181.382,892.513" style="fill:none;stroke:black;stroke-width:4.17px;"/>
            </g>
            <g id="r-hand" serif:id="r hand" transform="matrix(1,0,0,1,-96.134035,-9.100312)">
                <g>
                    <path d="M1274.088,903.489C1274.088,903.489 1169.088,870.779 1206.735,1017.131L1206.735,1028.392C1206.735,1028.392 1209.604,1043.421 1214.191,1049.098L1214.191,1051.785C1214.191,1051.785 1213.623,1153.079 1260.952,1209.1L1260.952,1213.159C1260.952,1213.159 1241.428,1256.501 1245.412,1282.327C1245.412,1282.327 1240.311,1303.835 1237.477,1306.24C1237.477,1306.24 1237.315,1314.255 1239.986,1317.728L1243.037,1351.926L1245.65,1352.007C1245.65,1352.007 1312.123,1352.559 1324.52,1373.07C1324.52,1373.07 1339.268,1352.116 1341.62,1342.711C1341.62,1342.711 1349.314,1341.642 1351.665,1337.368C1351.665,1337.368 1353.375,1334.803 1355.085,1326.681L1372.184,1263.2C1372.184,1263.2 1384.858,1210.192 1385.681,1206.559C1385.681,1206.559 1384.154,1187.322 1383.513,1179.414C1383.513,1179.414 1382.016,1110.162 1380.734,1101.399C1380.734,1101.399 1376.673,1053.307 1366.413,1035.995C1366.413,1035.995 1351.452,988.012 1349.1,980.37C1349.1,980.37 1329.864,922.071 1291.818,906.468L1274.088,903.489Z" style="fill:rgb(43,43,43);"/>
                </g>
                <path d="M1214.197,1051.693C1214.197,1051.693 1212.638,1153.995 1260.952,1209.1" style="fill:none;stroke:black;stroke-width:4.17px;"/>
                <path d="M1281.817,1173.097C1281.817,1173.097 1240.214,1238.076 1245.176,1282.732C1245.176,1282.732 1242.515,1295.924 1237.571,1306.611C1237.571,1306.611 1236.636,1315.294 1240.644,1318.967C1240.644,1318.967 1241.646,1349.025 1241.98,1352.698C1241.98,1352.698 1307.437,1350.766 1324.804,1373.07C1324.804,1373.07 1339.117,1350.718 1341.025,1342.703C1341.025,1342.703 1349.804,1342.488 1353.239,1334.389C1353.239,1334.389 1355.529,1320.184 1360.491,1306.825C1360.491,1306.825 1376.521,1253.009 1383.01,1215.223C1383.01,1215.223 1384.536,1209.879 1385.681,1204.917C1385.681,1204.917 1381.865,1171.756 1382.628,1159.138C1382.628,1159.138 1383.449,1078.391 1370.624,1046.33C1370.624,1046.33 1362.965,1029.364 1352.278,991.069C1352.278,991.069 1330.904,910.917 1275.688,901.566" style="fill:none;stroke:black;stroke-width:4.17px;"/>
                <path d="M1214.191,1051.693C1214.191,1051.693 1204.531,1036.266 1207.202,1014.892C1207.202,1014.892 1219.492,917.552 1279.339,909.047" style="fill:none;stroke:black;stroke-width:4.17px;"/>
                <path d="M1341.101,1341.469C1341.101,1341.469 1312.276,1299.771 1243.037,1318.473" style="fill:none;stroke:black;stroke-width:4.17px;"/>
            </g>
        </g>
    </g>
</svg>
