<?xml version="1.0" encoding="UTF-8" standalone="no"?>
<svg width="100%" height="100%" viewBox="0 0 98 42" version="1.1" xmlns="http://www.w3.org/2000/svg" xmlns:xlink="http://www.w3.org/1999/xlink" xml:space="preserve" xmlns:serif="http://www.serif.com/" style="fill-rule:evenodd;clip-rule:evenodd;stroke-linecap:round;stroke-linejoin:round;stroke-miterlimit:1.5;">
    <g transform="matrix(1,0,0,1,-1104.828169,-1386.160634)">
        <g>
            <g>
                <path d="M1108.497,1388.244L1106.912,1411.254L1113.012,1414.202L1128.059,1419.6L1143.927,1423.738L1162.12,1425.249L1178.664,1423.738L1189.342,1422.609L1199.824,1420.01L1199.824,1399.901L1187.29,1400.996L1173.201,1402.09L1153.368,1400.175L1138.045,1397.849L1122.587,1392.856L1108.497,1388.244Z" style="fill:rgb(61,61,61);"/>
                <path d="M1142.285,1400.175L1139.823,1407.972L1139.276,1412.486L1139.139,1418.505L1139.55,1421.925L1117.398,1415.769L1116.099,1412.35L1114.801,1406.746L1114.801,1401.132L1117.398,1394.293L1118.347,1392.856L1121.356,1392.856L1142.285,1400.175Z" style="fill:rgb(240,182,40);"/>
                <path d="M1178.655,1403.529C1178.655,1403.529 1181.802,1411.23 1178.792,1423.404L1185.905,1423.267L1198.49,1419.848L1199.824,1400.651L1189.052,1400.651L1178.655,1403.529Z" style="fill:rgb(240,182,40);"/>
            </g>
            <g>
                <path d="M1108.344,1388.244C1108.344,1388.244 1149.156,1409.078 1199.824,1399.572C1199.824,1399.572 1199.781,1416.436 1199.097,1420.369C1199.097,1420.369 1154.319,1435.871 1106.912,1411.616L1108.344,1388.244Z" style="fill:none;stroke:black;stroke-width:4.17px;"/>
                <path d="M1107.583,1400.651C1107.583,1400.651 1134.851,1419.783 1199.639,1411.684" style="fill:none;stroke:black;stroke-width:4.17px;"/>
                <path d="M1141.61,1400.651C1141.61,1400.651 1138.464,1408.451 1139.285,1421.857" style="fill:none;stroke:black;stroke-width:2.08px;"/>
                <path d="M1117.398,1392.856C1117.398,1392.856 1112.747,1403.128 1115.893,1414.202" style="fill:none;stroke:black;stroke-width:2.08px;"/>
                <path d="M1178.664,1403.529C1178.664,1403.529 1181.4,1411.46 1178.835,1423.738" style="fill:none;stroke:black;stroke-width:2.08px;"/>
            </g>
        </g>
    </g>
</svg>
