<?xml version="1.0" encoding="UTF-8" standalone="no"?>
<svg width="100%" height="100%" viewBox="0 0 99 39" version="1.1" xmlns="http://www.w3.org/2000/svg" xmlns:xlink="http://www.w3.org/1999/xlink" xml:space="preserve" xmlns:serif="http://www.serif.com/" style="fill-rule:evenodd;clip-rule:evenodd;stroke-linecap:round;stroke-linejoin:round;stroke-miterlimit:1.5;">
    <g transform="matrix(1,0,0,1,-1103.080233,-1419.826)">
        <g>
            <g>
                <path d="M1105.691,1420.931L1104.185,1426.84L1104.185,1441.304L1107.683,1442.777L1118.939,1447.765L1129.23,1451.045L1145.037,1454.033L1146.949,1455.452L1149.021,1456.633L1152.492,1457.303L1155.954,1457.303L1158.265,1456.155L1160.974,1455.452L1175.557,1455.452L1187.192,1452.888L1194.523,1451.533L1199.224,1449.461L1200.799,1430.256L1198.348,1428.902L1196.037,1431.691L1177.39,1434.082L1154.998,1434.082L1140.255,1432.169L1126.31,1429.061L1115.154,1424.678L1105.691,1420.931Z" style="fill:rgb(41,41,41);"/>
                <path d="M1116.997,1426.567L1116.509,1436.79L1116.021,1446.194L1111.01,1444.68L1111.09,1439.117L1111.568,1430.655L1112.205,1424.36L1116.997,1426.567Z" style="fill:rgb(255,189,0);"/>
                <path d="M1191.79,1433.222L1191.178,1451.782L1195.555,1450.994L1195.818,1446.194L1195.993,1432.171L1191.79,1433.222Z" style="fill:rgb(255,189,0);"/>
                <path d="M1174.981,1435.277L1186.713,1444.078L1176.207,1454.408L1161.324,1455.459L1163.6,1451.782L1165.001,1448.017L1179.271,1447.013L1181.635,1444.078L1177.958,1441.977L1164.476,1441.977L1164.826,1446.194L1164.104,1450.426L1161.061,1454.233L1159.048,1456.247L1154.32,1457.303L1149.943,1456.597L1146.091,1454.759L1144.427,1454.146L1128.844,1450.381L1122.453,1439.117L1133.921,1431.208L1145.04,1432.171L1150.205,1433.922L1147.229,1435.277L1144.602,1438.387L1142.851,1439.963L1142.501,1441.304L1129.281,1437.862L1126.567,1439.117L1128.109,1442.765L1141.976,1446.194L1142.414,1443.202L1142.851,1439.963L1144.602,1438.387L1147.229,1435.277L1150.205,1433.922L1152.492,1433.572L1154.408,1433.835L1157.822,1434.36L1164.125,1434.535L1174.981,1435.277Z" style="fill:rgb(255,189,0);"/>
            </g>
            <g>
                <path d="M1144.517,1454.203C1132.013,1452.441 1118.248,1448.588 1104.189,1441.263C1104.189,1441.263 1104.039,1422.165 1105.632,1420.931C1105.632,1420.931 1142.662,1441.904 1196.311,1432.072L1198.234,1428.652L1200.799,1430.148L1199.517,1449.812C1199.517,1449.812 1184.097,1455.608 1161.491,1455.449" style="fill:none;stroke:black;stroke-width:2.21px;"/>
                <g transform="matrix(1,0,0,1,1.167304,-3.852103)">
                    <path d="M1145.56,1440.581L1141.84,1443.645L1140.964,1449.993L1141.511,1452.291L1142.606,1455.246L1144.247,1457.981L1146.983,1460.061L1150.704,1461.155L1154.972,1461.155L1158.693,1459.842L1160.881,1457.215L1162.851,1454.37L1163.508,1451.744L1163.617,1448.351L1162.961,1445.506L1161.866,1443.208L1159.787,1441.019L1157.489,1439.596L1154.534,1438.393L1151.798,1438.174L1148.844,1438.611L1146.217,1439.487L1145.889,1442.879L1146.217,1445.615L1148.734,1448.461L1150.813,1449.227L1152.783,1449.336L1151.689,1450.759L1148.734,1451.744L1145.342,1451.525L1143.7,1450.212L1142.715,1448.789L1141.541,1445.808" style="fill:none;stroke:black;stroke-width:1.61px;"/>
                </g>
                <g transform="matrix(1,0,0,1,1.167304,-3.852103)">
                    <path d="M1152.291,1449.976L1152.291,1452.838L1150.594,1454.917L1148.625,1456.668L1146.436,1457.215L1144.794,1457.215" style="fill:none;stroke:black;stroke-width:1.61px;"/>
                </g>
                <g transform="matrix(1,0,0,1,1.167304,-3.852103)">
                    <path d="M1153.44,1449.976L1154.534,1452.4L1154.862,1455.027L1154.753,1457.215L1153.987,1459.076L1152.291,1461.155" style="fill:none;stroke:black;stroke-width:1.61px;"/>
                </g>
                <g transform="matrix(1,0,0,1,1.167304,-3.852103)">
                    <path d="M1153.44,1449.976L1156.066,1449.664L1158.036,1450.978L1159.459,1453.596L1160.444,1455.566" style="fill:none;stroke:black;stroke-width:1.61px;"/>
                </g>
                <g transform="matrix(1,0,0,1,1.167304,-3.852103)">
                    <path d="M1153.85,1449.664L1154.862,1447.147L1156.942,1446.272L1158.583,1446.162L1160.444,1446.6L1161.976,1447.366L1163.617,1449.664" style="fill:none;stroke:black;stroke-width:1.61px;"/>
                </g>
                <g transform="matrix(1,0,0,1,1.167304,-3.852103)">
                    <path d="M1153.44,1447.913L1152.291,1446.162L1152.291,1442.332L1153.44,1440.581L1154.862,1439.268" style="fill:none;stroke:black;stroke-width:1.61px;"/>
                </g>
                <path d="M1175.362,1435.416L1186.848,1444.061L1177.043,1453.363" style="fill:none;stroke:black;stroke-width:1.61px;"/>
                <path d="M1191.704,1433.011C1191.704,1433.011 1191.891,1446.815 1191.144,1452.006" style="fill:none;stroke:black;stroke-width:1.61px;"/>
                <path d="M1196.093,1433.011C1196.093,1433.011 1196.186,1448.723 1195.439,1450.906" style="fill:none;stroke:black;stroke-width:1.61px;"/>
                <path d="M1133.899,1431.703L1122.319,1439.739L1128.576,1450.906" style="fill:none;stroke:black;stroke-width:1.61px;"/>
                <path d="M1116.997,1426.567C1116.997,1426.567 1115.783,1438.977 1116.063,1447.013" style="fill:none;stroke:black;stroke-width:1.61px;"/>
                <path d="M1112.327,1424.513C1112.327,1424.513 1110.74,1440.388 1111.3,1444.31" style="fill:none;stroke:black;stroke-width:1.61px;"/>
                <path d="M1129.23,1438.334L1126.242,1440.014L1128.109,1443.096L1141.463,1446.178" style="fill:none;stroke:black;stroke-width:1.61px;"/>
                <path d="M1129.23,1438.334L1141.463,1441.304" style="fill:none;stroke:black;stroke-width:1.61px;"/>
                <path d="M1164.903,1442.256L1178.257,1441.958L1181.992,1444.31L1179.471,1447.013L1165.183,1447.765" style="fill:none;stroke:black;stroke-width:1.61px;"/>
            </g>
        </g>
    </g>
</svg>
