<?xml version="1.0" encoding="UTF-8" standalone="no"?>
<!DOCTYPE svg PUBLIC "-//W3C//DTD SVG 1.1//EN" "http://www.w3.org/Graphics/SVG/1.1/DTD/svg11.dtd">
<svg width="100%" height="100%" viewBox="0 0 80 60" version="1.1" xmlns="http://www.w3.org/2000/svg" xmlns:xlink="http://www.w3.org/1999/xlink" xml:space="preserve" xmlns:serif="http://www.serif.com/" style="fill-rule:evenodd;clip-rule:evenodd;stroke-linecap:round;stroke-linejoin:round;stroke-miterlimit:1.5;">
    <g transform="matrix(1,0,0,1,-957.709659,-1570.96131)">
        <g>
            <g>
                <path d="M959.86,1583.704L958.751,1585.244L958.751,1607.131L960.385,1607.656L965.201,1607.131L994.617,1607.394L997.449,1608.605L999.169,1608.605L1007.486,1613.259L1011.163,1616.061L1014.052,1620.176L1016.941,1623.24L1018.079,1624.29L1018.079,1627.88L1022.754,1629.044L1024.07,1628.318L1024.07,1625.294L1027.938,1623.765L1031.299,1618.337L1033.75,1613.785L1036.146,1604.942L1036.146,1594.437L1032.35,1578.853L1029.898,1576.052L1026.004,1572.003L1022.754,1572.003L1017.904,1573.425L1014.928,1574.219L999.869,1580.692L994.354,1580.516L978.245,1581.217L968.265,1581.567L962.487,1582.267L959.86,1583.704Z" style="fill:rgb(215,168,8);"/>
                <path d="M999.519,1580.867L998.906,1604.855L998.294,1608.605L995.842,1607.481L987.788,1607.219L976.582,1606.868L965.113,1606.956L958.751,1607.394L958.751,1584.894L959.948,1582.968L964.15,1582.092L974.743,1581.304L982.973,1580.516L992.691,1580.604L999.519,1580.867Z" style="fill:rgb(193,124,7);"/>
                <path d="M1015.304,1599L1015.703,1606.471L1017.595,1612.846L1019.687,1616.83L1022.377,1620.018L1024.07,1620.416L1026.859,1619.321L1028.752,1616.93L1030.146,1613.344L1031.541,1608.605L1032.338,1602.885L1032.338,1592.326L1031.242,1587.844L1029.15,1582.365L1027.556,1579.078L1025.066,1576.986L1022.875,1576.887L1020.683,1578.58L1018.691,1580.516L1016.998,1584.656L1015.802,1590.832L1015.304,1599Z" style="fill:rgb(177,241,255);"/>
            </g>
            <g>
                <path d="M1024.07,1583.704L1024.07,1599.798L1027.938,1608.605" style="fill:none;stroke:black;stroke-width:2.08px;"/>
                <path d="M1016.626,1574.219C1016.626,1574.219 1002.491,1578.975 999.618,1580.753C999.618,1580.753 962.547,1581.164 959.538,1583.353L958.751,1585.285L958.751,1607.685C958.751,1607.685 988.504,1606.659 997.566,1608.027C997.566,1608.027 1007.826,1612.985 1010.562,1615.721C1010.562,1615.721 1015.692,1623.416 1017.914,1624.271L1017.914,1628.033C1017.914,1628.033 1021.334,1629.743 1023.728,1628.717L1024.07,1625.126L1017.914,1624.271" style="fill:none;stroke:black;stroke-width:2.08px;"/>
                <g transform="matrix(0.955677,0,0,1.009434,40.689765,-15.332965)">
                    <ellipse cx="1027.611" cy="1598.898" rx="14.013" ry="26.397" style="fill:none;stroke:black;stroke-width:2.12px;"/>
                </g>
                <path d="M999.618,1580.753C999.618,1580.753 999.34,1604.487 998.736,1608.605" style="fill:none;stroke:black;stroke-width:2.08px;"/>
                <g transform="matrix(1.113821,0,0,0.988111,-117.08935,18.28222)">
                    <ellipse cx="1024.338" cy="1599.624" rx="7.658" ry="21.914" style="fill:none;stroke:black;stroke-width:1.98px;"/>
                </g>
            </g>
        </g>
    </g>
</svg>
