<?xml version="1.0" encoding="UTF-8" standalone="no"?>
<svg width="100%" height="100%" viewBox="0 0 333 533" version="1.1" xmlns="http://www.w3.org/2000/svg" xmlns:xlink="http://www.w3.org/1999/xlink" xml:space="preserve" xmlns:serif="http://www.serif.com/" style="fill-rule:evenodd;clip-rule:evenodd;stroke-linecap:round;stroke-linejoin:round;stroke-miterlimit:1.5;">
    <g transform="matrix(1,0,0,1,-523.32874,-1052.377938)">
        <g>
            <g>
                <path d="M680.987,1441.713C680.987,1441.713 707.022,1573.427 707.319,1578.77C707.319,1578.77 736.697,1589.769 760.615,1578.547C760.615,1578.547 803.235,1569.463 829.418,1547.555C829.418,1547.555 850.318,1529.12 853.894,1525.112C853.894,1525.112 855.066,1484.769 847.318,1460.991L847.853,1456.983C847.853,1456.983 834.494,1390.724 829.15,1382.441C829.15,1382.441 829.63,1376.288 807.348,1372.819C807.348,1372.819 793.493,1371.538 788.552,1372.819C788.552,1372.819 714.32,1404.023 689.653,1408.565C689.653,1408.565 708.536,1442.763 710.673,1446.504C710.673,1446.504 712.859,1463.87 691.728,1457.458L680.987,1441.713Z" style="fill:rgb(193,167,116);"/>
                <path d="M782.989,1375.131L765.936,1301.721C765.936,1301.721 775.314,1250.69 776.382,1243.744L780.123,1252.026C780.123,1252.026 805.719,1368.236 807.348,1372.249C808.978,1376.262 798.878,1372.819 798.878,1372.819L786.642,1372.819L782.989,1375.131Z" style="fill:rgb(50,33,0);"/>
                <path d="M689.016,1407.522L711.192,1445.995C711.192,1445.995 710.657,1467.102 691.421,1457.216L657.223,1398.438L619.551,1327.369L601.116,1289.965L578.139,1240.157L557.834,1188.973L539.666,1132.866L532.986,1106.95L525.773,1063.935C525.773,1063.935 541.002,1056.454 544.742,1054.851C544.742,1054.851 549.284,1084.24 551.689,1093.859C554.093,1103.477 569.856,1160.652 576.803,1176.148C583.749,1191.645 597.108,1234.927 609.665,1257.637L647.07,1334.316L671.65,1379.468L689.016,1407.522Z" style="fill:rgb(50,33,0);"/>
                <path d="M845.595,1449.275C845.595,1449.275 802.353,1480.609 753.277,1491.489L753.277,1501.647C753.277,1501.647 795.521,1494.448 828.651,1470.796L847.032,1459.852L845.595,1449.275Z" style="fill:rgb(50,33,0);"/>
                <path d="M853.958,1497.373L853.958,1523.876L844.478,1533.495L844.478,1515.113L847.032,1504.64L850.452,1501.647L853.958,1497.373Z" style="fill:rgb(50,33,0);"/>
                <path d="M755.765,1548.456C755.765,1548.456 783.979,1554.014 788.681,1567.479L787.356,1569.467C787.356,1569.467 748.37,1584.724 742.043,1583.593L739.82,1583.593L740.504,1576.991C740.504,1576.991 748.096,1553.394 753.277,1548.777L755.765,1548.456Z" style="fill:rgb(50,33,0);"/>
                <path d="M703.741,1554.933C703.741,1554.933 718.104,1566.389 722.721,1580.923L720.669,1581.668L707.674,1578.359L703.659,1557.156L703.741,1554.933Z" style="fill:rgb(50,33,0);"/>
            </g>
            <g>
                <path d="M525.412,1064.258C525.412,1064.258 531.201,1193.644 691.728,1457.227" style="fill:none;stroke:black;stroke-width:4.17px;"/>
                <g transform="matrix(1,0,0,1,19.59281,-9.796405)">
                    <path d="M525.412,1064.258C525.412,1064.258 531.201,1193.644 691.728,1457.227" style="fill:none;stroke:black;stroke-width:4.17px;"/>
                </g>
                <path d="M545.005,1054.461C545.005,1054.461 529.791,1061.541 525.412,1064.258" style="fill:none;stroke:black;stroke-width:4.17px;"/>
                <path d="M691.728,1457.227C691.728,1457.227 707.633,1468.225 711.321,1447.431" style="fill:none;stroke:black;stroke-width:4.17px;"/>
                <path d="M691.728,1407.804C691.728,1407.804 773.261,1381.755 787.811,1373.072C787.811,1373.072 823.067,1370.4 829.746,1382.423C829.746,1382.423 845.109,1428.636 847.447,1460.133C847.447,1460.133 804.365,1490.962 753.602,1502.985C753.602,1502.985 738.907,1429.846 729.556,1421.163C729.556,1421.163 708.516,1416.487 696.493,1417.155" style="fill:none;stroke:black;stroke-width:4.17px;"/>
                <path d="M723.21,1423.501C723.21,1423.501 758.563,1559.593 760.615,1578.462C760.615,1578.462 825.643,1562.98 853.887,1523.667C853.887,1523.667 854.365,1489.159 847.447,1463.093" style="fill:none;stroke:black;stroke-width:4.17px;"/>
                <path d="M760.615,1578.462C760.615,1578.462 736.331,1588.982 707.323,1578.462C707.323,1578.462 685.567,1463.586 680.987,1437.902" style="fill:none;stroke:black;stroke-width:4.17px;"/>
                <path d="M736.474,1420.686C736.474,1420.686 811.951,1389.741 822.304,1382.17" style="fill:none;stroke:black;stroke-width:4.17px;"/>
                <path d="M753.277,1491.489C753.277,1491.489 806.969,1480.09 844.478,1450.102" style="fill:none;stroke:black;stroke-width:4.17px;"/>
                <path d="M703.659,1554.847C703.659,1554.847 720.539,1571.027 723.21,1581.668" style="fill:none;stroke:black;stroke-width:4.17px;"/>
                <path d="M753.277,1548.359C753.277,1548.359 740.777,1564.92 740.405,1581.668" style="fill:none;stroke:black;stroke-width:4.17px;"/>
                <path d="M753.277,1548.359C753.277,1548.359 778.452,1551.077 787.811,1565.748" style="fill:none;stroke:black;stroke-width:4.17px;"/>
                <path d="M851.75,1497.214C851.75,1497.214 841.826,1520.878 844.116,1531.947" style="fill:none;stroke:black;stroke-width:4.17px;"/>
                <path d="M782.412,1372.819C782.412,1372.819 768.608,1308.824 765.936,1301.699C765.936,1301.699 776.178,1244.073 777.068,1240.157C777.068,1240.157 799.778,1347.755 807.348,1372.819" style="fill:none;stroke:black;stroke-width:4.17px;"/>
            </g>
        </g>
    </g>
</svg>
