<?xml version="1.0" encoding="UTF-8" standalone="no"?>
<svg width="100%" height="100%" viewBox="0 0 260 606" version="1.1" xmlns="http://www.w3.org/2000/svg" xmlns:xlink="http://www.w3.org/1999/xlink" xml:space="preserve" xmlns:serif="http://www.serif.com/" style="fill-rule:evenodd;clip-rule:evenodd;stroke-linecap:round;stroke-linejoin:round;stroke-miterlimit:1.5;">
    <g transform="matrix(1,0,0,1,-534.703948,-1064.615382)">
        <g>
            <g>
                <path d="M536.787,1336.179C536.787,1336.179 552.349,1495.639 554.724,1516.123C554.724,1516.123 560.475,1579.651 561.96,1590.041C563.444,1600.431 569.171,1652.723 569.632,1656.731C569.632,1656.731 581.4,1667.929 588.069,1668.376C588.069,1668.376 640.115,1666.737 664.364,1660.941C664.364,1660.941 725.376,1650.869 743.33,1643.858C743.33,1643.858 783,1632.573 784.881,1630.521C784.881,1630.521 789.326,1572.042 789.497,1566.741C789.497,1566.741 791.946,1480.198 791.94,1473.999C791.934,1467.801 792.587,1410.305 791.94,1404.32C791.293,1398.335 789.155,1342.763 788.942,1338.488C788.728,1334.213 786.601,1320.962 786.601,1320.962C786.601,1320.962 749.827,1322.18 747.775,1322.009C745.724,1321.838 699.898,1322.693 695.11,1323.035C690.322,1323.377 651.678,1325.6 646.89,1325.6C642.103,1325.6 603.971,1328.535 598.671,1328.863C593.37,1329.191 541.388,1332.952 538.482,1333.465L536.787,1336.179Z" style="fill:rgb(245,196,152);"/>
                <path d="M569.632,1645.728C569.632,1645.728 584.761,1654.091 615.941,1644.473C615.941,1644.473 655.799,1642.058 660.758,1641.203C665.717,1640.348 706.242,1634.705 716.16,1631.627C726.077,1628.549 749.674,1623.932 755.83,1621.026C761.985,1618.119 780.794,1612.305 783.701,1610.937L786.601,1609.431L785.069,1629.081C785.069,1629.081 751.042,1642.741 729.497,1646.845C729.497,1646.845 688.972,1657.276 676.318,1659.328C676.318,1659.328 606.212,1669.559 589.626,1668.376C589.626,1668.376 577.998,1665.312 575.775,1663.09L569.632,1656.934L568.252,1650.949L567.91,1644.28L569.632,1645.728Z" style="fill:rgb(126,86,51);"/>
                <path d="M536.787,1333.651L536.787,1341.132C536.787,1341.132 560.187,1343.135 603.148,1338.006L608.492,1337.151L629.011,1336.937L636.919,1374.484L652.095,1374.484L647.392,1337.792C647.392,1337.792 678.385,1335.227 680.949,1335.013C683.514,1334.799 728.4,1333.09 731.82,1333.303L733.743,1338.647L737.377,1358.738L751.484,1358.952L748.491,1332.448L786.601,1329.242L786.601,1320.962L747.423,1320.962L737.804,1262.983L727.972,1195.014L717.071,1137.09L709.591,1166.159L713.865,1216.601L717.285,1282.647L720.064,1320.962L717.926,1323.471L647.606,1325.609L645.114,1310.861L645.114,1224.51L647.179,1176.846C647.179,1176.846 649.53,1150.77 651.881,1142.434C654.232,1134.098 658.079,1106.098 659.148,1101.823C660.217,1097.548 665.304,1081.945 665.432,1079.808L661.285,1074.464L648.247,1066.699L645.114,1072.541L640.339,1086.648C640.339,1086.648 626.472,1136.449 625.711,1149.701C624.95,1162.953 621.102,1183.899 620.247,1198.006C619.392,1212.113 616.614,1244.601 616.4,1260.204C616.186,1275.807 615.545,1323.685 615.973,1327.532L604.003,1329.029L536.787,1333.651Z" style="fill:rgb(126,86,51);"/>
                <path d="M709.053,1359.112C709.053,1359.112 699.135,1359.625 697.938,1379.46C697.938,1379.46 698.793,1395.021 707.001,1398.782C707.001,1398.782 715.892,1399.808 717.773,1392.456C717.773,1392.456 721.706,1378.263 719.654,1372.963C719.654,1372.963 718.799,1359.112 709.053,1359.112Z" style="fill:rgb(126,86,51);"/>
            </g>
            <g>
                <path d="M647.976,1066.699C647.976,1066.699 604.872,1225.222 636.221,1374.484L651.615,1373.822C651.615,1373.822 625.89,1215.07 665.432,1078.633C665.432,1078.633 653.097,1069.267 647.976,1066.699Z" style="fill:none;stroke:black;stroke-width:4.17px;"/>
                <path d="M746.888,1322.029C761.077,1321.749 774.872,1321.643 787.931,1321.761C787.931,1321.761 798.327,1458.911 785.636,1630.237C785.636,1630.237 690.121,1666.773 588.595,1668.376C588.595,1668.376 572.564,1664.101 568.824,1656.62C568.824,1656.62 544.159,1422.264 536.787,1333.784C536.787,1333.784 574.394,1330.559 627.349,1327.353C632.111,1327.065 615.89,1328.061 615.89,1328.061C615.89,1328.061 609.231,1172.288 645.114,1072.042M647.786,1326.058C674.636,1324.525 702.886,1323.201 730.206,1322.43" style="fill:none;stroke:black;stroke-width:4.17px;"/>
                <path d="M737.103,1359.344C737.103,1359.344 716.196,1209.916 709.283,1167.168C709.283,1167.168 713.981,1140.451 717.193,1135.107C717.193,1135.107 750.462,1342.299 751.13,1359.599C751.13,1359.599 740.004,1359.87 737.103,1359.344Z" style="fill:none;stroke:black;stroke-width:4.17px;"/>
                <path d="M710.496,1174.832C710.496,1174.832 718.541,1301.957 720.341,1322.029" style="fill:none;stroke:black;stroke-width:4.17px;"/>
                <path d="M603.442,1328.863C603.442,1328.863 616.869,1619.35 615.89,1656.754C615.89,1656.754 591.452,1665.549 569.632,1657.645" style="fill:none;stroke:black;stroke-width:4.17px;"/>
                <path d="M615.89,1656.754C615.89,1656.754 642.735,1665.526 780.56,1623.802" style="fill:none;stroke:black;stroke-width:4.17px;"/>
                <path d="M569.632,1646.223C569.632,1646.223 593.898,1653.081 615.941,1644.114C615.941,1644.114 709.883,1644.378 786.601,1609.431" style="fill:none;stroke:black;stroke-width:4.17px;"/>
                <ellipse cx="709.283" cy="1379.382" rx="11.058" ry="20.038" style="fill:none;stroke:black;stroke-width:4.17px;"/>
                <path d="M748.373,1332.372C766.53,1331.301 780.798,1330.404 786.601,1330.025M647.786,1337.525C673.635,1336.532 706.466,1334.786 734.008,1333.207M536.787,1342.334C536.787,1342.334 594.057,1341.177 603.408,1337.525C603.408,1337.525 613.042,1338.148 629.41,1337.525" style="fill:none;stroke:black;stroke-width:4.17px;"/>
            </g>
        </g>
    </g>
</svg>
