<?xml version="1.0" encoding="UTF-8" standalone="no"?>
<!DOCTYPE svg PUBLIC "-//W3C//DTD SVG 1.1//EN" "http://www.w3.org/Graphics/SVG/1.1/DTD/svg11.dtd">
<svg width="100%" height="100%" viewBox="0 0 80 52" version="1.1" xmlns="http://www.w3.org/2000/svg" xmlns:xlink="http://www.w3.org/1999/xlink" xml:space="preserve" xmlns:serif="http://www.serif.com/" style="fill-rule:evenodd;clip-rule:evenodd;stroke-linecap:round;stroke-linejoin:round;stroke-miterlimit:1.5;">
    <g transform="matrix(1,0,0,1,-594.789849,-1473.117357)">
        <g>
            <g>
                <path d="M596.873,1507.516C596.873,1507.516 616.636,1505.464 628.122,1509.978L629.075,1506.736L634.491,1504.945C634.491,1504.945 635.969,1494.042 635.86,1491.744L635.75,1482.332L631.811,1479.378C631.811,1479.378 600.029,1478.393 598.301,1480.91L596.873,1507.516Z" style="fill:rgb(57,37,20);"/>
                <path d="M631.519,1479.188L635.865,1482.607L634.491,1504.366L629.184,1506.514L628.344,1509.222L630.211,1511.463L635.865,1514.825L666.818,1522.052L669.433,1507.821L672.11,1484.942C672.11,1484.942 662.429,1476.666 642.818,1475.201L633.2,1477.378L631.519,1479.188Z" style="fill:rgb(225,158,5);"/>
                <path d="M643.939,1480.339L641.336,1506.42C641.336,1506.42 661.682,1513.362 664.203,1514.794L665.417,1507.821L667.929,1486.716C667.929,1486.716 652.997,1479.565 648.048,1480.339L643.939,1480.339Z" style="fill:rgb(171,232,255);"/>
            </g>
            <g>
                <path d="M641.844,1475.201C641.844,1475.201 661.508,1476.227 672.11,1484.947C672.11,1484.947 669.374,1518.975 666.98,1522.052C666.98,1522.052 639.963,1515.555 636.543,1514.187C636.543,1514.187 630.217,1511.451 627.994,1509.912C627.994,1509.912 601.319,1505.466 596.873,1507.518C596.873,1507.518 597.899,1483.75 598.241,1480.843C598.241,1480.843 615.682,1477.082 630.73,1479.475C630.73,1479.475 638.424,1475.885 641.844,1475.201" style="fill:none;stroke:black;stroke-width:4.17px;"/>
                <path d="M630.73,1479.475L636.056,1482.305C636.056,1482.305 635.526,1501.867 634.491,1504.603C634.491,1504.603 634.278,1504.603 628.943,1506.518L628.122,1508.843" style="fill:none;stroke:black;stroke-width:2.08px;"/>
                <path d="M632.089,1508.843L639.339,1510.211C639.339,1510.211 661.773,1515.683 665.877,1518.556" style="fill:none;stroke:black;stroke-width:2.08px;"/>
                <path d="M641.336,1506.874C641.336,1506.874 661.773,1513.084 664.235,1514.794C664.235,1514.794 667.929,1489.008 667.929,1486.82C667.929,1486.82 658.9,1480.835 643.58,1480.339C643.58,1480.339 641.856,1504.822 641.336,1506.874Z" style="fill:none;stroke:black;stroke-width:2.08px;"/>
                <path d="M598.301,1503.577C598.301,1503.577 600.661,1500.841 628.122,1504.945" style="fill:none;stroke:black;stroke-width:2.08px;"/>
                <path d="M657.133,1488.79L656.449,1497.566L646.531,1502.683" style="fill:none;stroke:black;stroke-width:2.08px;"/>
            </g>
        </g>
    </g>
</svg>
