<?xml version="1.0" encoding="UTF-8" standalone="no"?>
<!DOCTYPE svg PUBLIC "-//W3C//DTD SVG 1.1//EN" "http://www.w3.org/Graphics/SVG/1.1/DTD/svg11.dtd">
<svg width="100%" height="100%" viewBox="0 0 168 155" version="1.1" xmlns="http://www.w3.org/2000/svg" xmlns:xlink="http://www.w3.org/1999/xlink" xml:space="preserve" xmlns:serif="http://www.serif.com/" style="fill-rule:evenodd;clip-rule:evenodd;stroke-linecap:round;stroke-linejoin:round;stroke-miterlimit:1.5;">
    <g transform="matrix(1,0,0,1,-777.840969,-938.909787)">
        <g>
            <path d="M797.753,948.74L792.394,962.532C788.542,972.71 787.757,991.797 787.757,991.797C784.909,1011.022 799.448,1026.355 799.448,1026.355L802.331,1028.212L803.053,1026.974L810.803,1027.181L810.803,1029.141C823.4,1028.315 858.463,1009.615 858.463,1009.615C871.809,1004.682 901.983,981.858 901.983,981.858C913.879,974.508 935.881,948.396 935.881,948.396L935.881,939.906C949.856,942.151 942.56,950.805 942.56,950.805C940.735,958.058 906.607,987.506 906.607,987.506C897.54,999.406 842.756,1025.144 842.756,1025.144L818.452,1034.627L809.208,1037.655L809.048,1041.4C811.359,1039.727 819.408,1044.347 819.408,1044.347C830.883,1047.293 829.608,1058.215 829.608,1058.215C836.62,1067.777 828.652,1076.224 828.652,1076.224C829.448,1090.807 814.148,1089.532 814.148,1089.532C802.355,1096.624 794.625,1087.301 794.625,1087.301C781.078,1088.416 781.556,1072.724 781.556,1072.724C775.34,1063.247 783.288,1054.629 783.288,1054.629C782.31,1046.979 790.481,1045.624 790.481,1045.624L793.603,1042.914L797.753,1043.313L800.465,1041.799L802.514,1040.922L802.434,1037.655L801.618,1036.78L797.753,1031.955C782.542,1023.551 780.929,997.986 780.929,997.986C778.971,978.743 791.876,943.378 791.876,943.378L795.265,941.408L797.753,941.408L797.753,948.74ZM799.448,1065.179C799.448,1065.179 789.644,1056.933 792.749,1048.948L791.331,1049.36L789.577,1050.647C789.577,1050.647 785.62,1054.715 789.081,1060.186C789.081,1060.186 794.053,1066.365 799.448,1065.179ZM800.617,1069.358C800.617,1069.358 787.85,1070.41 784.429,1062.555L783.712,1063.846L783.374,1065.995C783.374,1065.995 783.43,1071.67 789.74,1073.116C789.74,1073.116 797.622,1074 800.617,1069.358ZM804.887,1072.572C804.887,1072.572 795.439,1081.224 787.924,1077.11L788.148,1078.57L789.197,1080.476C789.197,1080.476 792.717,1084.927 798.591,1082.204C798.591,1082.204 805.363,1078.075 804.887,1072.572ZM814.819,1065.553C814.819,1065.553 823.51,1074.965 819.427,1082.497L820.886,1082.267L822.787,1081.211C822.787,1081.211 827.224,1077.672 824.477,1071.809C824.477,1071.809 820.32,1065.055 814.819,1065.553ZM800.956,1060.959C800.956,1060.959 801.771,1049.407 805.483,1047.115L803.002,1046.811L802.925,1045.124C802.925,1045.124 799.866,1043.652 797.977,1049.844C797.977,1049.844 796.538,1057.644 800.956,1060.959ZM812.333,1071.031C812.333,1071.031 811.244,1083.795 802.928,1085.859L804.082,1086.781L806.144,1087.473C806.144,1087.473 811.749,1088.363 814.227,1082.381C814.227,1082.381 816.411,1074.757 812.333,1071.031ZM806.226,1058.845L806.898,1059.234C812.812,1050.873 821.902,1052.402 821.902,1052.402L823.413,1052.626C821.338,1045.174 810.803,1049.488 810.803,1049.488C805.306,1052.738 806.226,1058.845 806.226,1058.845ZM810.803,1060.679C810.803,1060.679 823.292,1060.029 827.377,1067.271C827.377,1067.271 830.858,1060.818 821.992,1057.058C821.992,1057.058 813.865,1056.733 810.803,1060.679Z" style="fill:rgb(207,209,212);"/>
            <g>
                <path d="M802.253,1027.023L802.68,1046.474L807.597,1047.115C807.597,1047.115 809.093,1033.008 810.803,1029.588L810.161,1026.809L802.253,1027.023Z" style="fill:none;stroke:black;stroke-width:1.99px;"/>
                <path d="M802.253,1041.94C802.253,1041.94 799.145,1041.273 797.463,1043.598C797.463,1043.598 793.319,1041.273 790.309,1045.924C790.309,1045.924 782.785,1046.608 783.469,1054.952C783.469,1054.952 774.578,1061.518 781.554,1072.599C781.554,1072.599 780.267,1088.467 795.001,1087.099C795.001,1087.099 801.526,1096.674 814.522,1089.151C814.522,1089.151 829.432,1090.382 828.611,1076.292C828.611,1076.292 836.408,1067.537 829.569,1058.235C829.569,1058.235 830.937,1046.061 818.489,1044.693C818.489,1044.693 814.248,1039.768 809.323,1041.547" style="fill:none;stroke:black;stroke-width:2.08px;"/>
                <path d="M797.484,948.771C797.484,948.771 771.182,1002.253 802.234,1029.481" style="fill:none;stroke:black;stroke-width:1.99px;"/>
                <path d="M792.408,944.763C792.408,944.763 760.495,1007.863 802.234,1036.962" style="fill:none;stroke:black;stroke-width:1.99px;"/>
                <path d="M935.881,948.771C935.881,948.771 893.379,1004.732 810.803,1029.481" style="fill:none;stroke:black;stroke-width:1.99px;"/>
                <path d="M942.56,952.408C942.56,952.408 897.46,1010.769 810.803,1036.962" style="fill:none;stroke:black;stroke-width:1.99px;"/>
                <path d="M935.881,939.906C935.881,939.906 949.838,940.149 942.56,952.408" style="fill:none;stroke:black;stroke-width:1.99px;"/>
                <path d="M935.881,948.771L935.881,939.906" style="fill:none;stroke:black;stroke-width:1.99px;"/>
                <path d="M797.463,948.771L797.463,941.394C797.463,941.394 793.906,941.265 792.538,944.339" style="fill:none;stroke:black;stroke-width:1.99px;"/>
                <path d="M806.528,1059.234C806.528,1059.234 813.455,1049.713 823.413,1052.996C823.413,1052.996 822.071,1044.967 810.803,1049.52C810.803,1049.52 804.836,1053.084 806.528,1059.234Z" style="fill:none;stroke:black;stroke-width:0.83px;"/>
                <path d="M810.803,1060.808C810.803,1060.808 823.534,1060.061 827.456,1067.625C827.456,1067.625 830.725,1060.247 822.04,1057.352C822.04,1057.352 815.067,1056.138 810.803,1060.808Z" style="fill:none;stroke:black;stroke-width:0.83px;"/>
                <g transform="matrix(0.617452,0.786609,-0.786609,0.617452,1148.628858,-227.451464)">
                    <path d="M810.803,1060.808C810.803,1060.808 823.534,1060.061 827.456,1067.625C827.456,1067.625 830.725,1060.247 822.04,1057.352C822.04,1057.352 815.067,1056.138 810.803,1060.808Z" style="fill:none;stroke:black;stroke-width:0.83px;"/>
                </g>
                <g transform="matrix(-0.187938,0.982181,-0.982181,-0.187938,2006.696058,474.300971)">
                    <path d="M810.803,1060.808C810.803,1060.808 823.534,1060.061 827.456,1067.625C827.456,1067.625 830.725,1060.247 822.04,1057.352C822.04,1057.352 815.067,1056.138 810.803,1060.808Z" style="fill:none;stroke:black;stroke-width:0.83px;"/>
                </g>
                <g transform="matrix(-0.789097,0.614269,-0.614269,-0.789097,2096.509124,1411.752893)">
                    <path d="M810.803,1060.808C810.803,1060.808 823.534,1060.061 827.456,1067.625C827.456,1067.625 830.725,1060.247 822.04,1057.352C822.04,1057.352 815.067,1056.138 810.803,1060.808Z" style="fill:none;stroke:black;stroke-width:0.83px;"/>
                </g>
                <g transform="matrix(-0.999779,-0.021018,0.021018,-0.999779,1588.792985,2146.930934)">
                    <path d="M810.803,1060.808C810.803,1060.808 823.534,1060.061 827.456,1067.625C827.456,1067.625 830.725,1060.247 822.04,1057.352C822.04,1057.352 815.067,1056.138 810.803,1060.808Z" style="fill:none;stroke:black;stroke-width:0.83px;"/>
                </g>
                <g transform="matrix(-0.712839,-0.701327,0.701327,-0.712839,633.446021,2390.139558)">
                    <path d="M810.803,1060.808C810.803,1060.808 823.534,1060.061 827.456,1067.625C827.456,1067.625 830.725,1060.247 822.04,1057.352C822.04,1057.352 815.067,1056.138 810.803,1060.808Z" style="fill:none;stroke:black;stroke-width:0.83px;"/>
                </g>
                <g transform="matrix(0.049429,-0.998778,0.998778,0.049429,-298.675734,1818.335704)">
                    <path d="M827.477,1061.657C826.737,1060.01 825.159,1058.392 822.04,1057.352C822.04,1057.352 815.067,1056.138 810.803,1060.808C810.803,1060.808 819.899,1060.274 825.083,1064.677" style="fill:none;stroke:black;stroke-width:0.83px;"/>
                </g>
            </g>
        </g>
    </g>
</svg>
