<?xml version="1.0" encoding="UTF-8" standalone="no"?>
<!DOCTYPE svg PUBLIC "-//W3C//DTD SVG 1.1//EN" "http://www.w3.org/Graphics/SVG/1.1/DTD/svg11.dtd">
<svg width="100%" height="100%" viewBox="0 0 1749 2481" version="1.1" xmlns="http://www.w3.org/2000/svg" xmlns:xlink="http://www.w3.org/1999/xlink" xml:space="preserve" xmlns:serif="http://www.serif.com/" style="fill-rule:evenodd;clip-rule:evenodd;stroke-linecap:round;stroke-linejoin:round;stroke-miterlimit:1.5;">
    <g>
        <g>
            <path d="M779.484,1059.003L780.447,1068.635L784.736,1072.135L784.824,1078.088L780.534,1079.935L778.015,1090.87L788.501,1086.843L789.989,1083.691L796.818,1082.83L798.569,1085.705C798.569,1085.705 796.018,1115.568 795.178,1118.929C794.337,1122.291 793.366,1122.945 793.366,1122.945L789.268,1123.692L787.334,1138.447C787.334,1138.447 803.551,1121.179 817.891,1139.429L817.891,1124.758L813.922,1123.376L810.891,1087.357L813.922,1084.382L819.361,1084.064L820.317,1086.826L830.517,1092.564L829.242,1081.195L826.055,1079.935L825.524,1073.12L828.924,1072.27L832.855,1061.963L821.86,1063.345L821.86,1066.532L815.961,1068.635L812.242,1064.62L815.217,1051.338L818.83,1050.276L820.317,1038.801L808.63,1042.307L809.799,1037.42L813.922,1036.251L837.105,1027.857L850.918,1021.801L880.172,1005.987L890.23,999.045L909.214,985.304L921.255,974.395L933.156,963.487L940.097,955.128L944.662,950.028C944.662,950.028 947.294,940.338 936.641,939.906L935.961,948.088C935.961,948.088 915.787,974.834 902.98,980.841C902.98,980.841 884.507,995.575 876.12,999.655C876.12,999.655 855.833,1012.801 845.633,1015.861C845.633,1015.861 824.203,1026.515 810.891,1029.121L810.891,1026.628L802.453,1026.968L801.886,1028.215C801.886,1028.215 776.386,1010.498 791.535,964.993L797.463,948.997L797.463,941.063L793.366,942.158L791.962,944.073L787.585,954.743L782.934,971.842L780.742,989.215L780.742,998.38L784.028,1012.196L787.995,1020.814L792.538,1028.885L802.234,1036.962L802.234,1042.113L791.488,1039.668L791.488,1049.554L796.148,1051.415L798.993,1063.89L796.586,1067.064L791.488,1067.283L791.488,1061.92L779.484,1059.003Z" style="fill:rgb(238,187,35);"/>
            <path d="M801.062,1051.012L802.234,1064.559L808.633,1064.798L810.891,1050.956L801.062,1051.012Z" style="fill:rgb(138,179,255);"/>
            <path d="M802.234,1086.533L799.758,1107.784L797.463,1125.192L810.475,1125.798L809.12,1107.63L807.418,1086.533L802.234,1086.533Z" style="fill:rgb(138,179,255);"/>
            <path d="M802.234,1068.55L800.439,1069.726L800.101,1070.655L800.101,1080.738L801.062,1082.124L802.036,1082.83L808.77,1082.83L809.909,1081.975L810.891,1080.886L810.891,1070.537L810.008,1069.2L808.473,1068.635L802.234,1068.55Z" style="fill:rgb(138,179,255);"/>
            <path d="M817.751,1071.16C817.751,1071.16 813.526,1071.178 813.948,1075.733C813.948,1075.733 814.227,1079.667 817.891,1079.935C817.891,1079.935 821.531,1079.882 821.86,1075.69C821.86,1075.69 821.892,1071.118 817.751,1071.16Z" style="fill:rgb(138,179,255);"/>
            <path d="M792.906,1071.16C792.906,1071.16 789.61,1071.009 789.23,1075.733C789.23,1075.733 789.727,1079.583 793.366,1079.935C793.366,1079.935 796.569,1080.178 797.463,1075.69C797.463,1075.69 797.258,1070.864 792.906,1071.16Z" style="fill:rgb(138,179,255);"/>
        </g>
        <g>
            <path d="M802.253,1027.023L802.68,1046.474L807.597,1047.115C807.597,1047.115 809.093,1033.008 810.803,1029.588L810.161,1026.809L802.253,1027.023Z" style="fill:none;stroke:black;stroke-width:1.99px;"/>
            <path d="M802.253,1042.412L790.711,1038.993L791.865,1049.829L796.311,1051.368L799.389,1064.364L796.653,1067.27L790.839,1067.441L790.839,1062.312L779.383,1058.721L780.238,1069.151L784.684,1071.887L785.026,1079.069L780.58,1079.411L778.015,1091.038L788.958,1086.763L789.813,1083.515L796.995,1083.515L798.705,1085.567C798.705,1085.567 796.311,1117.713 793.917,1123.014L789.642,1123.698L787.248,1138.745C787.248,1138.745 801.793,1121.694 818.027,1139.429L817.514,1124.98L813.41,1123.339C813.41,1123.339 810.52,1092.97 810.803,1087.088L813.191,1084.065L819.429,1084.175L820.195,1087.129L830.373,1092.382L829.169,1081.11L825.557,1080.673L825.448,1072.903L829.278,1072.356L832.999,1062.178L822.384,1063.163L821.18,1066.556L816.146,1067.869L812.097,1064.914L815.052,1051.454L819.429,1050.469L820.305,1038.978L808.595,1042.48" style="fill:none;stroke:black;stroke-width:1.99px;"/>
            <path d="M797.484,948.771C797.484,948.771 771.182,1002.253 802.234,1029.481" style="fill:none;stroke:black;stroke-width:1.99px;"/>
            <path d="M792.408,944.763C792.408,944.763 760.495,1007.863 802.234,1036.962" style="fill:none;stroke:black;stroke-width:1.99px;"/>
            <path d="M935.881,948.771C935.881,948.771 893.379,1004.732 810.803,1029.481" style="fill:none;stroke:black;stroke-width:1.99px;"/>
            <path d="M942.56,952.408C942.56,952.408 897.46,1010.769 810.803,1036.962" style="fill:none;stroke:black;stroke-width:1.99px;"/>
            <path d="M935.881,939.906C935.881,939.906 949.838,940.149 942.56,952.408" style="fill:none;stroke:black;stroke-width:1.99px;"/>
            <path d="M935.881,948.771L935.881,939.906" style="fill:none;stroke:black;stroke-width:1.99px;"/>
            <path d="M797.463,948.771L797.463,941.394C797.463,941.394 793.906,941.265 792.538,944.339" style="fill:none;stroke:black;stroke-width:1.99px;"/>
            <path d="M800.987,1051.024C800.987,1051.024 802.142,1062.241 802.522,1064.704L808.593,1064.854L810.891,1050.956L800.987,1051.024Z" style="fill:none;stroke:black;stroke-width:0.75px;"/>
            <path d="M802.234,1086.621L807.455,1086.533C807.455,1086.533 809.76,1121.596 810.475,1125.798L797.463,1125.565C797.463,1125.565 801.915,1088.182 802.234,1086.621Z" style="fill:none;stroke:black;stroke-width:0.75px;"/>
            <path d="M810.891,1071.333L810.891,1080.132C810.891,1081.621 809.683,1082.83 808.194,1082.83L802.799,1082.83C801.31,1082.83 800.101,1081.621 800.101,1080.132L800.101,1071.333C800.101,1069.844 801.31,1068.635 802.799,1068.635L808.194,1068.635C809.683,1068.635 810.891,1069.844 810.891,1071.333Z" style="fill:none;stroke:black;stroke-width:0.75px;"/>
            <ellipse cx="793.366" cy="1075.499" rx="4.097" ry="4.436" style="fill:none;stroke:black;stroke-width:0.75px;"/>
            <ellipse cx="817.891" cy="1075.499" rx="3.969" ry="4.436" style="fill:none;stroke:black;stroke-width:0.75px;"/>
        </g>
    </g>
</svg>
