<?xml version="1.0" encoding="UTF-8" standalone="no"?>
<!DOCTYPE svg PUBLIC "-//W3C//DTD SVG 1.1//EN" "http://www.w3.org/Graphics/SVG/1.1/DTD/svg11.dtd">
<svg width="100%" height="100%" viewBox="0 0 1749 2481" version="1.1" xmlns="http://www.w3.org/2000/svg" xmlns:xlink="http://www.w3.org/1999/xlink" xml:space="preserve" xmlns:serif="http://www.serif.com/" style="fill-rule:evenodd;clip-rule:evenodd;stroke-linecap:round;stroke-linejoin:round;stroke-miterlimit:1.5;">
    <g>
        <g>
            <path d="M748.927,1104.796L757.833,1163.663L761.395,1179.1L768.263,1199.287L771.192,1206.411L776.758,1212.645L785.253,1224.817L794.347,1237.582L797.612,1240.157L785.253,1242.762L776.758,1246.502L765.047,1252.47L750.666,1264.782L742.871,1240.157L739.131,1222.457L734.589,1206.426L727.375,1173.564L722.343,1152.457L722.343,1118.526L734.589,1110.778L744.742,1104.796L748.927,1104.796Z" style="fill:rgb(73,73,73);"/>
            <path d="M926.509,1374.791C926.509,1374.791 978.808,1375.7 1014.257,1357.879C1014.257,1357.879 1015.025,1386.368 1014.257,1390.821C1014.257,1390.821 990.631,1405.071 939.274,1409.227L926.509,1374.791Z" style="fill:rgb(73,73,73);"/>
            <path d="M797.612,1240.157C797.612,1240.157 779.104,1238.534 750.666,1264.782L750.666,1269.869L754.931,1317.319L759.978,1342.968C759.978,1342.968 773.579,1403.647 835.03,1471.851L858.541,1468.155C858.541,1468.155 899.419,1454.692 934.953,1420.227L938.472,1414.429L938.472,1405.238L933.457,1390.49C933.457,1390.49 894.936,1318.214 867.328,1285.17C867.328,1285.17 839.126,1262.312 824.283,1254.89L797.612,1240.157Z" style="fill:rgb(0,87,170);"/>
            <path d="M846.904,1304.6L841.293,1308.874C841.293,1308.874 896.331,1410.134 901.675,1414.141L907.737,1409.227C907.737,1409.227 856.255,1331.852 853.049,1315.821L846.904,1304.6Z" style="fill:rgb(227,241,255);"/>
            <path d="M771.949,1257.936L769.076,1261.356L768.255,1264.365L769.213,1267.238L771.812,1269.29L775.369,1269.837L779.199,1269.29L783.029,1266.691L784.534,1264.092L785.355,1261.219L784.671,1258.209L783.439,1256.431L780.977,1255.063L778.105,1254.653L774.821,1255.61L771.949,1257.936Z" style="fill:rgb(227,241,255);"/>
        </g>
        <g>
            <path d="M748.821,1104.985C748.821,1104.985 757.218,1189.336 771.722,1206.512C771.722,1206.512 793.859,1237.925 797.294,1240.157C797.294,1240.157 856.081,1271.779 870.199,1289.718C870.199,1289.718 958.363,1405.748 934.317,1421.397C934.317,1421.397 874.775,1474.068 835.462,1471.778C835.462,1471.778 792.409,1437.045 759.127,1343.916C759.127,1343.916 748.821,1284.501 749.966,1265.417C749.966,1265.417 738.754,1228.085 739.088,1222.741C739.088,1222.741 719.384,1159.048 722.724,1118.209C722.724,1118.209 748.275,1102.934 748.821,1104.985Z" style="fill:none;stroke:black;stroke-width:4.17px;"/>
            <path d="M739.088,1222.741C739.088,1222.741 769.92,1207.614 771.722,1206.512" style="fill:none;stroke:black;stroke-width:4.17px;"/>
            <path d="M750.666,1264.782C750.666,1264.782 776.196,1240.767 796.976,1240.157" style="fill:none;stroke:black;stroke-width:4.17px;"/>
            <path d="M927.107,1375.45C927.107,1375.45 974.865,1375.116 1013.605,1358.417C1013.605,1358.417 1015.275,1387.473 1013.271,1392.148C1013.271,1392.148 995.59,1403.169 938.472,1409.848" style="fill:none;stroke:black;stroke-width:4.17px;"/>
            <path d="M846.955,1305.316C846.955,1305.316 896.048,1398.827 907.737,1409.848L901.726,1415.192C901.726,1415.192 861.316,1351.404 840.943,1309.658L846.955,1305.316Z" style="fill:none;stroke:black;stroke-width:4.17px;"/>
            <path d="M755.405,1318.675C755.405,1318.675 797.909,1248.327 848.291,1271.92" style="fill:none;stroke:black;stroke-width:4.17px;"/>
            <g transform="matrix(0.717234,-0.397514,0.457513,0.825491,-363.565038,529.189743)">
                <ellipse cx="782.645" cy="1265.503" rx="10.923" ry="7.18" style="fill:none;stroke:black;stroke-width:2.26px;"/>
            </g>
        </g>
    </g>
</svg>
