<?xml version='1.0' encoding='utf-8'?>
<svg xmlns="http://www.w3.org/2000/svg" width="100%" height="100%" viewBox="673.664 689.931 309.825 98.1353" version="1.1" xml:space="preserve" style="fill-rule:evenodd;clip-rule:evenodd;stroke-linecap:round;stroke-linejoin:round;stroke-miterlimit:1.5;">
    <g>
        <g>
            <path d="M697.396,712.6L690.479,714.176C690.479,714.176 685.139,723.544 693.193,728.096C701.248,732.649 697.658,729.76 697.658,729.76C697.658,729.76 700.868,755.951 703.903,760.62C703.903,760.62 706.5,778.365 736.719,779.424L739.203,778.289L741.568,773.255L756.759,756.5L763.483,750.647L771.516,741.85L776.307,730.476L779.42,725.362L786.891,721.014L792.245,721.014L798.097,722.383L800.712,724.002C800.712,724.002 809.428,773.948 818.517,774.375C818.517,774.375 832.421,781.215 864.711,777.293C864.711,777.293 881.396,777.355 887.207,769.885C887.207,769.885 903.583,759.408 904.14,727.716L904.312,722.806L907.048,725.362L959.201,753.243L967.237,752.046L970.664,751.362L967.408,747.429L915.534,716.138L915.534,710.445L912.349,703.484L903.423,704.39L901.508,700.56L862.796,698.428L828.597,699.739L802.236,704.664L799.05,710.445L780.036,711.798L777.573,704.254C777.573,704.254 756.233,702.338 754.729,702.338C753.224,702.338 729.696,704.801 729.696,704.801L701.516,709.315L698.507,710.445L697.396,712.6Z" style="fill:rgb(22,22,22);" />
            <path d="M702.948,718.061C702.948,718.061 705.056,759.099 712.066,763.203C712.066,763.203 718.564,773.611 740.314,773.255L744.965,769.342L760.012,753.474L767.536,746.087L770.49,740.068L770.49,736.922L771.516,731.587C771.516,731.587 771.255,719.412 770.49,711.888L758.371,710.445C758.371,710.445 719.861,710.267 702.948,718.061Z" style="fill:rgb(85,85,85);" />
            <path d="M806.537,710.445L807.938,727.593L811.206,746.892L814.941,757.787L819.455,766.191L822.256,768.682C822.256,768.682 827.704,773.781 857.743,773.255C857.743,773.255 879.532,769.46 882.489,767.125C882.489,767.125 892.45,759.499 894.941,747.359C894.941,747.359 899.595,722.869 898.124,710.445L894.629,708.293L884.668,707.359L874.016,705.755L835.953,705.755L818.397,708.06L806.537,710.445Z" style="fill:rgb(85,85,85);" />
        </g>
        <g>
            <path d="M698.79,710.107C698.79,710.107 742.725,699.123 777.161,704.764C777.161,704.764 778.794,709.944 777.992,712.883C777.992,712.883 786.542,710.478 799.099,711.28L800.542,704.627C800.542,704.627 844.762,693.566 901.854,700.994L903.511,704.627L911.847,704.841C911.847,704.841 919.541,709.543 912.701,717.879L904.152,719.375C904.152,719.375 906.491,763.851 879.144,774.52C879.144,774.52 841.793,784.432 818.282,773.211C818.282,773.211 806.727,770.573 800.381,724.051C800.381,724.051 791.137,715.795 778.954,724.772C778.954,724.772 772.061,744.516 761.107,752.532C761.107,752.532 740.267,773.291 738.771,779.276C738.771,779.276 711.198,782.722 702.221,756.406C702.221,756.406 697.006,732.811 697.861,729.177L692.817,727.39C692.817,727.39 685.763,723.116 690.679,713.711L697.519,712.429L698.79,710.107Z" style="fill:none;stroke:black;stroke-width:4.17px;" />
            <path d="M913.935,716.177C913.935,716.177 969.022,748.818 970.518,751.383C972.014,753.948 961.541,752.024 959.404,753.52L905.327,722.955" style="fill:none;stroke:black;stroke-width:4.17px;" />
            <path d="M806.58,710.345C806.58,710.345 808.29,756.726 820.9,767.627C820.9,767.627 836.215,779.848 880.523,767.873C880.523,767.873 900.705,761.248 897.847,709.704C897.847,709.704 856.488,700.406 806.58,710.345Z" style="fill:none;stroke:black;stroke-width:2.08px;" />
            <path d="M770.49,711.798C770.49,711.798 741.955,706.22 702.948,717.716C702.948,717.716 704.872,762.2 715.559,766.506C715.559,766.506 723.552,774.319 739.626,773.132" style="fill:none;stroke:black;stroke-width:2.08px;" />
            <path d="M770.49,711.798C770.49,711.798 772.798,730.53 770.49,738.926" style="fill:none;stroke:black;stroke-width:2.08px;" />
        </g>
    </g>
</svg>