<?xml version="1.0" encoding="UTF-8" standalone="no"?>
<!DOCTYPE svg PUBLIC "-//W3C//DTD SVG 1.1//EN" "http://www.w3.org/Graphics/SVG/1.1/DTD/svg11.dtd">
<svg width="100%" height="100%" viewBox="0 0 1749 2481" version="1.1" xmlns="http://www.w3.org/2000/svg" xmlns:xlink="http://www.w3.org/1999/xlink" xml:space="preserve" xmlns:serif="http://www.serif.com/" style="fill-rule:evenodd;clip-rule:evenodd;stroke-linecap:round;stroke-linejoin:round;stroke-miterlimit:1.5;">
    <g>
        <g>
            <path d="M694.159,610.028L694.159,621.142L700.781,621.655L703.004,617.551L710.528,614.303L725.575,611.82L736.518,611.82L763.453,616.012L776.702,621.655L780.018,624.748L783.541,622.339L794.656,622.51L799.101,621.826L805.345,624.748L810.558,624.748L827.657,616.012L847.834,611.82L859.633,609.344L890.411,609.857L904.603,613.448L910.588,616.354L914.35,622.168L918.112,623.194L956.072,649.438L965.135,647.817L969.488,649.438L964.451,642.858L923.555,612.935L922.045,606.779L911.614,606.608L903.406,604.727C903.406,604.727 850.404,592.416 805.345,617.551C805.345,617.551 798.93,611.567 783.712,616.012C783.712,616.012 747.12,596.348 703.004,609.686L694.159,610.028Z" style="fill:rgb(230,199,1);"/>
            <path d="M700.781,621.655L701.668,624.748L706.285,634.786L708.337,641.129C708.337,641.129 721.318,667.403 746.888,667.945C746.888,667.945 777.831,640.172 780.018,624.748C780.018,624.748 750.743,609.666 738.26,612.231C738.26,612.231 706.798,612.06 703.72,617.703C700.642,623.346 700.781,621.655 700.781,621.655Z" style="fill:rgb(72,72,72);"/>
            <path d="M806.572,625.575C806.572,625.575 814.095,655.599 836.153,666.542C836.153,666.542 900.558,677.987 914.468,622.329L910.577,615.052C910.577,615.052 878.516,605.007 851.799,610.136L806.572,625.575Z" style="fill:rgb(72,72,72);"/>
        </g>
        <g>
            <path d="M805.345,618.047C805.345,618.047 849.28,589.845 911.324,607.36C911.324,607.36 920.883,606.603 922.753,607.671L923.555,619.694L914.738,621.832C914.738,621.832 906.99,673.114 838.326,667.518C838.326,667.518 814.548,658.702 805.998,625.839C805.998,625.839 861.945,595.274 910.41,616.141L914.738,621.832" style="fill:none;stroke:black;stroke-width:4.17px;"/>
            <path d="M805.345,618.047C805.345,618.047 799.543,611.759 782.872,616.675C782.872,616.675 745.414,594.676 702.463,609.729C702.463,609.729 694.501,610.06 694.159,611.086L694.33,621.003C694.33,621.003 699.118,621.345 700.998,621.687C702.879,622.029 702.879,617.412 702.879,617.412C702.879,617.412 736.479,602.039 779.484,623.226C779.484,623.226 797.384,618.319 805.345,624.748" style="fill:none;stroke:black;stroke-width:4.17px;"/>
            <path d="M701.853,622.329C701.853,622.329 706.005,663.096 746.888,667.945" style="fill:none;stroke:black;stroke-width:4.17px;"/>
            <path d="M780.018,624.748C780.018,624.748 776.278,641.932 746.888,667.945" style="fill:none;stroke:black;stroke-width:4.17px;"/>
            <path d="M916.651,622.329C916.651,622.329 954.098,646.702 956.321,649.438C956.321,649.438 965.726,647.557 969.488,648.583C969.488,648.583 924.132,612.162 923.555,611.82" style="fill:none;stroke:black;stroke-width:4.17px;"/>
        </g>
    </g>
</svg>
