<?xml version='1.0' encoding='utf-8'?>
<svg xmlns="http://www.w3.org/2000/svg" width="100%" height="100%" viewBox="961.614 1219.29 116.402 86.4724" version="1.1" xml:space="preserve" style="fill-rule:evenodd;clip-rule:evenodd;stroke-linecap:round;stroke-linejoin:round;stroke-miterlimit:1.5;">
    <g>
        <g>
            <path d="M968.204,1232.611C968.204,1232.611 1020.596,1231.125 1023.331,1236.791C1023.331,1236.791 1014.44,1258.736 1016.355,1272.962C1016.355,1272.962 978.059,1264.162 966.086,1263.911C966.086,1263.911 966.289,1238.087 968.204,1232.611Z" style="fill:rgb(76,28,1);" />
            <path d="M1004.105,1270.27L1003.269,1275.52C1003.269,1275.52 1027.408,1296.203 1033.099,1296.751L1033.427,1300.362L1035.506,1302.113L1038.242,1302.113L1039.008,1298.339L1045.076,1298.339C1045.076,1298.339 1061.661,1298.394 1067.461,1271.581C1073.261,1244.767 1059.436,1235.734 1055.058,1232.435L1045.076,1229.913L1041.051,1229.913C1041.051,1229.913 1015.954,1229.245 1014.553,1229.913L1012.452,1233.733C1012.452,1233.733 1022.655,1235.717 1023.331,1236.184C1023.331,1236.184 1014.281,1259.688 1015.954,1272.962L1004.105,1270.27Z" style="fill:rgb(246,197,56);" />
            <path d="M1028.976,1263.292C1028.976,1263.292 1026.287,1280.486 1033.558,1287.029C1033.558,1287.029 1041.029,1298.753 1052.783,1290.784C1052.783,1290.784 1062.943,1282.218 1064.437,1271.858C1064.437,1271.858 1068.92,1254.526 1060.752,1242.573C1060.752,1242.573 1051.687,1229.425 1038.24,1242.374C1038.24,1242.374 1030.47,1251.638 1029.375,1260.204L1028.976,1263.292Z" style="fill:rgb(56,196,246);" />
            <path d="M1056.057,1238.377L1049.441,1258.681L1045.076,1254.577L1032.513,1284.843C1032.513,1284.843 1035.871,1292.65 1041.453,1293.56L1049.441,1264.443L1051.63,1271.269L1061.37,1243.801C1061.37,1243.801 1058.952,1239.41 1056.057,1238.377Z" style="fill:rgb(140,225,255);" />
        </g>
        <g>
            <g transform="matrix(1.083573,0.197047,-0.181323,0.997104,143.246131,-201.072073)">
                <ellipse cx="1045.667" cy="1263.837" rx="16.624" ry="28.35" style="fill:none;stroke:black;stroke-width:1.97px;" />
            </g>
            <path d="M1052.637,1231.562C1052.637,1231.562 1032.973,1222.492 1022.072,1258.554C1022.072,1258.554 1015.019,1299.531 1044.258,1298.313C1044.258,1298.313 1062.834,1296.943 1068.169,1268.528C1068.169,1268.528 1073.705,1240.259 1052.637,1231.562Z" style="fill:none;stroke:black;stroke-width:2.08px;" />
            <path d="M1047.14,1230.546C1047.14,1230.546 1019.001,1229.122 1014.555,1230.546L1011.819,1234.877C1011.819,1234.877 1020.063,1234.746 1023.892,1236.693C1023.892,1236.693 1015.41,1251.281 1016.094,1273.088C1016.094,1273.088 1003.269,1270.443 1003.782,1270.785L1003.269,1275.915C1003.269,1275.915 1028.77,1297.167 1037.736,1298.339" style="fill:none;stroke:black;stroke-width:2.08px;" />
            <path d="M1003.269,1275.915L1006.347,1275.573C1006.347,1275.573 1024.398,1285.833 1025.205,1287.029" style="fill:none;stroke:black;stroke-width:2.08px;" />
            <path d="M1034.048,1296.947L1033.706,1300.709C1033.706,1300.709 1035.293,1302.559 1037.81,1302.012L1038.576,1298.339" style="fill:none;stroke:black;stroke-width:2.08px;" />
            <path d="M1011.922,1234.108C1011.922,1234.108 995.677,1231.241 968.148,1233.444C968.148,1233.444 965.925,1245.241 966.096,1264.126C966.096,1264.126 992.223,1266.938 1003.269,1270.7" style="fill:none;stroke:black;stroke-width:2.08px;" />
            <g transform="matrix(1,0,0,1,-4.118698,0.341984)">
                <path d="M1051.958,1242.93C1051.958,1242.93 1047.623,1264.646 1047.14,1268.92L1055.377,1281.301" style="fill:none;stroke:black;stroke-width:2.08px;" />
            </g>
            <path d="M1048.478,1236.791C1048.478,1236.791 1066.808,1243.357 1062.021,1269.348C1062.021,1269.348 1057.674,1292.466 1038.576,1290.961" style="fill:none;stroke:black;stroke-width:0.87px;" />
        </g>
    </g>
</svg>