<?xml version="1.0" encoding="UTF-8" standalone="no"?>
<svg width="100%" height="100%" viewBox="0 0 109 64" version="1.1" xmlns="http://www.w3.org/2000/svg" xmlns:xlink="http://www.w3.org/1999/xlink" xml:space="preserve" xmlns:serif="http://www.serif.com/" style="fill-rule:evenodd;clip-rule:evenodd;stroke-linecap:round;stroke-linejoin:round;stroke-miterlimit:1.5;">
    <g transform="matrix(1,0,0,1,-982.318265,-1121.737376)">
        <g>
            <g>
                <path d="M986.789,1126.549C986.789,1126.549 981.224,1141.813 984.374,1156.031L997.674,1161.536L1017.81,1168.565L1033.24,1174.312L1044.534,1178.247L1057.973,1182.767L1068.478,1184.106L1076.358,1184.106L1081.282,1176.42L1085.441,1165.586L1090.028,1148.545L1090.028,1140.306L1079.312,1132.427L1068.26,1126.955L1059.067,1122.779L1025.799,1122.779L1005.882,1124.766L986.789,1126.549Z" style="fill:rgb(255,189,0);"/>
                <path d="M1067.846,1133.425C1067.846,1133.425 1052.197,1134.954 1049.22,1155.192C1049.22,1155.192 1047.504,1174.531 1060.204,1178.173C1060.204,1178.173 1071.149,1183.935 1080.263,1170.189C1080.263,1170.189 1086.464,1160.626 1084.596,1150.541C1084.596,1150.541 1083.888,1137.71 1071.355,1133.816L1067.846,1133.425Z" style="fill:rgb(181,204,249);"/>
                <path d="M1020.718,1133.816C1020.718,1133.816 1017.522,1149.739 1017.93,1152.203L1018.311,1153.029L1020.052,1153.41L1027.124,1151.724L1030.442,1136.274L1025.086,1133.816L1020.718,1133.816Z" style="fill:rgb(205,205,206);"/>
                <path d="M1009.553,1134.458C1009.553,1134.458 1007.05,1143.209 1007.485,1151.18L997.726,1149.679L997.508,1146.241L997.9,1141.497L999.336,1134.456L1009.553,1134.458Z" style="fill:rgb(205,205,206);"/>
                <path d="M991.215,1135.16L989.705,1142.818L989.705,1148.354L984.122,1147.341L983.825,1141.201L984.815,1135.16L986.35,1135.16L989.173,1134.456L991.215,1135.16Z" style="fill:rgb(205,205,206);"/>
                <path d="M1077.417,1136.95L1063.193,1152.019L1067.045,1154.569L1052.25,1170.932L1054.188,1174.312L1058.268,1177.44L1074.316,1156.031L1071.355,1153.443L1082.347,1143.177L1081.25,1141.11L1079.509,1138.846L1077.417,1136.95Z" style="fill:rgb(216,229,255);"/>
                <path d="M1064.151,1125.836L1052.874,1129.549L1051.264,1132.77L1049.142,1138.212L1046.319,1144.432L1043.742,1152.5L1042.565,1156.398L1040.772,1164.098L1042.509,1168.861L1046.207,1178.834L1042.509,1177.994L1042.173,1176.145L1038.474,1164.939L1041.164,1151.808L1044.806,1140.622L1049.142,1130.256L1050.129,1128.071L1055.956,1125.998L1060.046,1124.298L1064.151,1125.836Z" style="fill:rgb(226,147,0);"/>
            </g>
            <g>
                <path d="M986.572,1126.668C986.572,1126.668 1045.677,1120.805 1059.303,1123.477C1059.303,1123.477 1083.082,1131.759 1090.028,1140.576C1090.028,1140.576 1090.028,1167.22 1076.67,1183.287C1076.67,1183.287 1064.112,1188.373 1030.983,1173.198C1030.983,1173.198 988.021,1158.877 983.96,1156.099C983.96,1156.099 981.49,1138.916 986.572,1126.668Z" style="fill:none;stroke:black;stroke-width:2.08px;"/>
                <path d="M1044.534,1122.779C1044.534,1122.779 1028.197,1144.989 1033.458,1174.312" style="fill:none;stroke:black;stroke-width:2.08px;"/>
                <g transform="matrix(1.059084,0.188436,-0.170011,0.955526,132.820893,-147.647954)">
                    <ellipse cx="1067.31" cy="1154.419" rx="16.484" ry="23.665" style="fill:none;stroke:black;stroke-width:0.81px;"/>
                </g>
                <path d="M1066.928,1133.816C1066.928,1133.816 1084.468,1137.48 1082.133,1158.656C1082.133,1158.656 1081.094,1177.847 1060.363,1178.247" style="fill:none;stroke:black;stroke-width:0.83px;"/>
                <path d="M1064.656,1125.802C1064.656,1125.802 1054.67,1128.949 1052.755,1129.632C1052.755,1129.632 1043.179,1147.689 1040.717,1164.515C1040.717,1164.515 1045.231,1175.837 1046.052,1178.247C1046.873,1180.656 1042.769,1178.247 1042.769,1178.247L1038.474,1165.199C1038.474,1165.199 1041.577,1144.269 1050.381,1128.128L1060.363,1124.298L1064.656,1125.802Z" style="fill:none;stroke:black;stroke-width:0.83px;"/>
                <path d="M1027.735,1124.298C1027.735,1124.298 1024.349,1132.069 1024.816,1133.816L1030.536,1136.263L1027.151,1151.808L1020.03,1153.443C1020.03,1153.443 1019.33,1165.329 1019.797,1168.364" style="fill:none;stroke:black;stroke-width:0.83px;"/>
                <path d="M1020.03,1153.443C1020.03,1153.443 984.86,1147.703 983.36,1147.353" style="fill:none;stroke:black;stroke-width:0.83px;"/>
                <path d="M1025.086,1133.816C1025.086,1133.816 986.161,1134.637 984.761,1135.1" style="fill:none;stroke:black;stroke-width:0.83px;"/>
                <path d="M1011.31,1152.203C1011.071,1156.496 1010.97,1160.455 1011.276,1165.446M1016.178,1124.298C1016.178,1124.298 1014.949,1127.38 1013.613,1133.816" style="fill:none;stroke:black;stroke-width:0.83px;"/>
                <path d="M1001.616,1150.55C1001.369,1154.621 1001.337,1158.543 1001.695,1161.743M1004.923,1125.323C1004.923,1125.323 1004.246,1128.467 1003.449,1133.816" style="fill:none;stroke:black;stroke-width:0.83px;"/>
                <path d="M992.905,1149.283C992.738,1152.78 992.685,1156.14 992.832,1158.942M995.167,1125.323C995.167,1125.323 994.648,1129.145 994.091,1134.456" style="fill:none;stroke:black;stroke-width:0.83px;"/>
                <path d="M986.351,1147.955C986.331,1150.996 986.573,1153.931 987.229,1156.451M989.705,1126.549C989.705,1126.549 988.658,1129.175 987.726,1134.456" style="fill:none;stroke:black;stroke-width:0.83px;"/>
                <path d="M1071.666,1139.834L1066.632,1160.627L1055.141,1164.019" style="fill:none;stroke:black;stroke-width:0.83px;"/>
                <g transform="matrix(1.170912,0.431335,-0.432055,1.19735,322.205368,-693.715923)">
                    <ellipse cx="1070.011" cy="1169.874" rx="3.078" ry="4.035" style="fill:none;stroke:black;stroke-width:0.66px;"/>
                </g>
                <path d="M1020.449,1134.456C1020.449,1134.456 1017.579,1150.662 1017.89,1152.686" style="fill:none;stroke:black;stroke-width:0.83px;"/>
                <path d="M1009.372,1134.456C1009.372,1134.456 1007.306,1143.801 1007.37,1151.196" style="fill:none;stroke:black;stroke-width:0.83px;"/>
                <path d="M999.401,1134.456C999.019,1135.093 996.979,1143.572 997.68,1149.756" style="fill:none;stroke:black;stroke-width:0.83px;"/>
                <path d="M991.215,1135.16C991.215,1135.16 989.536,1140.193 989.719,1148.354" style="fill:none;stroke:black;stroke-width:0.83px;"/>
            </g>
        </g>
    </g>
</svg>
