<?xml version="1.0" encoding="UTF-8" standalone="no"?>
<!DOCTYPE svg PUBLIC "-//W3C//DTD SVG 1.1//EN" "http://www.w3.org/Graphics/SVG/1.1/DTD/svg11.dtd">
<svg width="100%" height="100%" viewBox="0 0 395 316" version="1.1" xmlns="http://www.w3.org/2000/svg" xmlns:xlink="http://www.w3.org/1999/xlink" xml:space="preserve" xmlns:serif="http://www.serif.com/" style="fill-rule:evenodd;clip-rule:evenodd;stroke-linecap:round;stroke-linejoin:round;stroke-miterlimit:1.5;">
    <g transform="matrix(1,0,0,1,-435.06626,-1962.558569)">
        <g>
            <g>
                <path d="M665.206,1986.818C665.206,1986.818 645.852,2114.822 644.516,2123.104L646.87,2129.652L644.623,2133.214C644.623,2133.214 655.215,2165.805 657.661,2215.894C657.661,2215.894 646.25,2221.448 608.632,2224.013C608.632,2224.013 558.403,2235.341 540.235,2239.402C540.235,2239.402 496.418,2245.677 468.846,2243.715C468.846,2243.715 442.003,2239.829 437.15,2234.272C437.15,2234.272 436.571,2215.463 451.533,2196.654C451.533,2196.654 462.092,2186.074 490.135,2180.431C490.135,2180.431 505.011,2173.249 511.508,2168.633C518.006,2164.016 552.205,2139.86 557.334,2133.214C557.334,2133.214 560.583,2111.008 558.531,2102.972C556.479,2094.935 554.256,2033.229 553.401,2025.748C552.547,2018.267 550.195,1983.542 549.554,1978.889C549.554,1978.889 560.719,1962.401 622.012,1974.664L665.206,1986.818Z" style="fill:rgb(126,86,51);"/>
                <path d="M549.444,1978.432C549.444,1978.432 560.131,2097.929 558.222,2132.662C558.222,2132.662 538.9,2153.463 491.996,2179.587C491.996,2179.587 455.897,2186.994 448.951,2200.352C448.951,2200.352 434.897,2219.242 437.462,2233.776C437.462,2233.776 452.564,2251.783 539.645,2239.321C539.645,2239.321 586.472,2228.803 607.846,2224.796C607.846,2224.796 650.326,2221.59 657.54,2216.246C657.54,2216.246 655.195,2163.361 644.745,2133.689L646.408,2130.483L644.538,2124.605C644.538,2124.605 664.873,1996.721 665.206,1986.368C665.206,1986.368 576.285,1955.133 549.444,1978.432Z" style="fill:none;stroke:black;stroke-width:4.17px;"/>
                <path d="M656.4,2199.708C656.4,2199.708 612.328,2208.028 579.933,2213.038C579.933,2213.038 540.525,2223.391 512.806,2227.398C512.806,2227.398 464.714,2231.072 440.668,2220.719" style="fill:none;stroke:black;stroke-width:2.08px;"/>
                <path d="M624.542,2205.526C624.542,2205.526 620.153,2153.31 646.87,2142.241" style="fill:none;stroke:black;stroke-width:2.08px;"/>
                <path d="M560.356,2133.214C560.356,2133.214 568.817,2125.199 574.16,2133.214" style="fill:none;stroke:black;stroke-width:2.08px;"/>
                <path d="M635.572,1978.889C635.572,1978.889 614.237,2119.665 613.791,2129.652L617.799,2133.214L615.127,2137.413C615.127,2137.413 609.784,2195.268 612.901,2205.526" style="fill:none;stroke:black;stroke-width:2.08px;"/>
            </g>
            <g>
                <path d="M704.42,1975.397C704.42,1975.397 718.955,2074.573 719.81,2089.962C720.665,2105.351 724.78,2147.771 723.791,2155.309C723.791,2155.309 693.819,2201.684 679.626,2211.943C679.626,2211.943 640.64,2229.384 636.024,2242.722C636.024,2242.722 631.798,2257.085 635.108,2269.909C635.108,2269.909 653.807,2277.809 681.849,2275.997C681.849,2275.997 734.173,2266.421 748.365,2260.214C748.365,2260.214 796.072,2239.986 807.528,2237.421L816.134,2235.027L818.472,2231.778L816.134,2204.762L806.115,2163.895L806.115,2136.472L809.666,2112.105C809.666,2112.105 822.407,2018.85 824.188,2008.459C825.969,1998.069 827.861,1974.602 827.861,1974.602C827.861,1974.602 787.122,1964.006 766.817,1964.642C766.817,1964.642 725.779,1965.278 718.725,1969.767L704.42,1975.397Z" style="fill:rgb(126,86,51);"/>
                <path d="M704.198,1975.412C704.198,1975.412 723.791,2090.408 723.791,2155.309C723.791,2155.309 700.079,2194.532 678.408,2212.641C678.408,2212.641 639.253,2229.695 635.512,2243.855C635.512,2243.855 632.253,2253.661 634.176,2269.477C634.176,2269.477 662.7,2288.341 744.723,2261.891C744.723,2261.891 801.631,2238.113 815.791,2235.174C815.791,2235.174 818.463,2234.639 818.196,2229.296C818.196,2229.296 813.387,2189.22 806.974,2163.838C806.974,2163.838 805.342,2150.125 808.013,2124.934C810.685,2099.744 827.479,1985.24 827.861,1974.935C827.861,1974.935 755.726,1951.461 704.198,1975.412Z" style="fill:none;stroke:black;stroke-width:4.17px;"/>
                <path d="M723.791,2155.309C723.791,2155.309 736.983,2142.417 753.014,2152.436" style="fill:none;stroke:black;stroke-width:2.08px;"/>
                <path d="M633.569,2259.64C633.569,2259.64 686.721,2270.995 738.402,2249.287C738.402,2249.287 797.431,2220.566 816.134,2218.896" style="fill:none;stroke:black;stroke-width:2.08px;"/>
                <path d="M806.115,2166.868C806.115,2166.868 796.035,2173.728 801.266,2222.566" style="fill:none;stroke:black;stroke-width:2.08px;"/>
            </g>
        </g>
    </g>
</svg>
