<?xml version="1.0" encoding="UTF-8" standalone="no"?>
<!DOCTYPE svg PUBLIC "-//W3C//DTD SVG 1.1//EN" "http://www.w3.org/Graphics/SVG/1.1/DTD/svg11.dtd">
<svg width="100%" height="100%" viewBox="0 0 386 136" version="1.1" xmlns="http://www.w3.org/2000/svg" xmlns:xlink="http://www.w3.org/1999/xlink" xml:space="preserve" xmlns:serif="http://www.serif.com/" style="fill-rule:evenodd;clip-rule:evenodd;stroke-linecap:round;stroke-linejoin:round;stroke-miterlimit:1.5;">
    <g transform="matrix(1,0,0,1,-281.954945,-2101.112991)">
        <g>
            <g>
                <path d="M338.518,2132.287C338.518,2132.287 304.491,2146.906 298.848,2151.224C298.848,2151.224 282.694,2167.08 284.038,2189.421C284.038,2189.421 354.381,2204.324 399.733,2197.377C399.733,2197.377 423.527,2174.647 455.253,2170.676L458.765,2189.421L466.051,2190.696L496.64,2189.421C496.64,2189.421 508.408,2141.933 508.167,2138.171C507.925,2134.409 499.717,2104.814 495.443,2103.196C495.443,2103.196 432.86,2129.451 422.087,2132.529C422.087,2132.529 372.499,2147.747 359.504,2148.773C359.504,2148.773 343.773,2152.022 337.617,2146.037C337.617,2146.037 331.632,2141.42 335.907,2138L338.518,2132.287Z" style="fill:rgb(193,54,45);"/>
                <path d="M339.811,2131.918C339.811,2131.918 308.418,2145.944 300.737,2150.62C300.737,2150.62 286.376,2157.967 284.038,2188.692C284.038,2188.692 327.788,2205.057 400.259,2197.041C400.259,2197.041 420.297,2176.335 463.045,2168.654C463.045,2168.654 465.717,2189.694 466.051,2190.696L496.776,2189.36C496.776,2189.36 507.463,2147.948 508.131,2139.265C508.131,2139.265 509.467,2129.246 495.774,2103.196C495.774,2103.196 412.95,2138.931 368.198,2147.614C368.198,2147.614 337.473,2154.293 334.467,2141.269C334.467,2141.269 336.137,2135.591 339.811,2131.918Z" style="fill:none;stroke:black;stroke-width:4.17px;"/>
                <path d="M466.051,2190.696L459.409,2188.488L455.253,2170.676" style="fill:none;stroke:black;stroke-width:4.17px;"/>
                <path d="M508.167,2140.1C508.167,2140.1 443.306,2154.646 396.102,2185.816C396.102,2185.816 346.202,2197.821 286.559,2178.015" style="fill:none;stroke:black;stroke-width:2.08px;"/>
            </g>
            <g>
                <path d="M523.287,2167.802C523.287,2167.802 495.709,2183.67 492.426,2186.296C492.426,2186.296 476.2,2194.995 473.515,2228.186C473.515,2228.186 539.948,2242.156 592.239,2229.457C592.239,2229.457 610.417,2208.316 627.345,2201.134L629.91,2201.818L633.671,2215.155L645.641,2217.72L660.688,2214.129C660.688,2214.129 665.861,2164.713 664.899,2159.07C664.899,2159.07 657.097,2130.44 656.071,2129.879C656.071,2129.879 627.687,2151.888 609.904,2159.925C592.12,2167.961 576.389,2176.511 565.617,2178.905C554.844,2181.299 540.481,2183.351 534.667,2180.786C528.854,2178.221 524.237,2177.195 523.724,2173.433C523.211,2169.671 523.287,2167.802 523.287,2167.802Z" style="fill:rgb(193,54,45);"/>
                <path d="M524.011,2167.079C524.011,2167.079 505.042,2179.636 492.752,2185.781C492.752,2185.781 473.515,2203.147 473.515,2227.193C473.515,2227.193 523.623,2242.751 592.301,2228.983C592.301,2228.983 603.181,2212.676 643.525,2192.104C643.525,2192.104 646.303,2215.589 646.731,2217.94L660.838,2214.947C660.838,2214.947 664.685,2171.772 664.899,2160.657C664.899,2160.657 665.112,2151.894 656.563,2129.879C656.563,2129.879 614.029,2163.436 565.082,2178.825C565.082,2178.825 531.739,2187.589 523.403,2173.054L524.011,2167.079Z" style="fill:none;stroke:black;stroke-width:4.17px;"/>
                <path d="M646.731,2217.94L633.9,2215.859L629.626,2200.363" style="fill:none;stroke:black;stroke-width:4.17px;"/>
                <path d="M664.899,2169.637C664.899,2169.637 603.977,2200.63 585.275,2221.737C585.275,2221.737 524.703,2232.578 475.199,2217.94" style="fill:none;stroke:black;stroke-width:2.08px;"/>
            </g>
        </g>
    </g>
</svg>
