<?xml version="1.0" encoding="UTF-8" standalone="no"?>
<!DOCTYPE svg PUBLIC "-//W3C//DTD SVG 1.1//EN" "http://www.w3.org/Graphics/SVG/1.1/DTD/svg11.dtd">
<svg width="100%" height="100%" viewBox="0 0 381 158" version="1.1" xmlns="http://www.w3.org/2000/svg" xmlns:xlink="http://www.w3.org/1999/xlink" xml:space="preserve" xmlns:serif="http://www.serif.com/" style="fill-rule:evenodd;clip-rule:evenodd;stroke-linecap:round;stroke-linejoin:round;stroke-miterlimit:1.5;">
    <g transform="matrix(1,0,0,1,-1084.511663,-2128.993766)">
        <g>
            <g>
                <path d="M1207.617,2133.379C1207.617,2133.379 1196.857,2148.061 1174.833,2163.108C1174.833,2163.108 1148.432,2179.92 1133.932,2186.63C1133.932,2186.63 1105.205,2197.443 1100.007,2203.189C1100.007,2203.189 1086.452,2214.406 1086.595,2223.571L1086.595,2237.797C1086.595,2237.797 1109.436,2247.463 1132.217,2247.281C1154.998,2247.099 1165.531,2246.826 1182.357,2241.901C1199.182,2236.977 1215.734,2233.283 1229.14,2231.642C1242.546,2230 1281.259,2226.033 1291.928,2221.656L1302.188,2217.278C1302.188,2217.278 1304.309,2197.717 1302.291,2190.33L1291.655,2147.038C1291.655,2147.038 1287.551,2154.627 1267.306,2155.721C1267.306,2155.721 1254.173,2155.762 1238.853,2146.303C1238.853,2146.303 1235.296,2145.605 1233.107,2147.038C1233.107,2147.038 1225.9,2130.645 1216.098,2131.077L1207.617,2133.379Z" style="fill:rgb(53,54,58);"/>
                <clipPath id="_clip1">
                    <path d="M1207.617,2133.379C1207.617,2133.379 1196.857,2148.061 1174.833,2163.108C1174.833,2163.108 1148.432,2179.92 1133.932,2186.63C1133.932,2186.63 1105.205,2197.443 1100.007,2203.189C1100.007,2203.189 1086.452,2214.406 1086.595,2223.571L1086.595,2237.797C1086.595,2237.797 1109.436,2247.463 1132.217,2247.281C1154.998,2247.099 1165.531,2246.826 1182.357,2241.901C1199.182,2236.977 1215.734,2233.283 1229.14,2231.642C1242.546,2230 1281.259,2226.033 1291.928,2221.656L1302.188,2217.278C1302.188,2217.278 1304.309,2197.717 1302.291,2190.33L1291.655,2147.038C1291.655,2147.038 1287.551,2154.627 1267.306,2155.721C1267.306,2155.721 1254.173,2155.762 1238.853,2146.303C1238.853,2146.303 1235.296,2145.605 1233.107,2147.038C1233.107,2147.038 1225.9,2130.645 1216.098,2131.077L1207.617,2133.379Z"/>
                </clipPath>
                <g clip-path="url(#_clip1)">
                    <path d="M1133.231,2186.72C1133.231,2186.72 1160.839,2203.621 1161.253,2229.651L1173.183,2228.592C1173.183,2228.592 1210.117,2217.502 1227.901,2215.86C1227.901,2215.86 1251.703,2213.671 1265.519,2211.072C1265.519,2211.072 1300.861,2205.327 1303.162,2202.181L1302.043,2217.365C1302.043,2217.365 1288.91,2224.498 1250.471,2228.592C1250.471,2228.592 1220.65,2230.634 1203.278,2236.653C1203.278,2236.653 1172.362,2245.544 1158.957,2246.091C1158.957,2246.091 1122.934,2251.426 1086.595,2238.568C1086.595,2238.568 1084.728,2219.28 1090.611,2213.535C1090.611,2213.535 1100.87,2200.402 1114.276,2194.794L1133.231,2186.72Z" style="fill:rgb(240,240,240);"/>
                </g>
                <path d="M1206.995,2133.379C1206.995,2133.379 1191.766,2160.097 1127.11,2188.951C1127.11,2188.951 1090.774,2201.535 1087.14,2221.413C1087.14,2221.413 1086.072,2233.596 1086.927,2237.871C1086.927,2237.871 1114.499,2253.474 1172.209,2244.497C1172.209,2244.497 1210.254,2234.024 1231.842,2231.031C1231.842,2231.031 1289.595,2226.222 1302.248,2216.818C1302.248,2216.818 1309.386,2203.085 1291.55,2146.737C1291.55,2146.737 1279.41,2166.159 1241.621,2147.863C1241.621,2147.863 1236.545,2143.997 1231.769,2147.038" style="fill:none;stroke:black;stroke-width:4.17px;"/>
                <path d="M1231.769,2147.038C1231.769,2147.038 1184.503,2186.07 1159.282,2193.337C1159.282,2193.337 1173.388,2208.12 1173.816,2226.402" style="fill:none;stroke:black;stroke-width:2.08px;"/>
                <path d="M1132.217,2186.63C1132.217,2186.63 1158.492,2201.233 1161.253,2228.592" style="fill:none;stroke:black;stroke-width:2.08px;"/>
                <path d="M1207.617,2133.379C1207.617,2133.379 1222.151,2123.005 1231.769,2146.303" style="fill:none;stroke:black;stroke-width:4.17px;"/>
                <path d="M1303.659,2200.593C1303.659,2200.593 1298.67,2208.715 1234.334,2214.699C1234.334,2214.699 1193.724,2220.897 1172.35,2228.592C1172.35,2228.592 1132.403,2235.992 1086.595,2223.676" style="fill:none;stroke:black;stroke-width:4.17px;"/>
            </g>
            <g>
                <path d="M1376.309,2154.302C1376.309,2154.302 1365.254,2175.882 1350.206,2191.955C1350.206,2191.955 1333.449,2211.107 1314.982,2222.563C1314.982,2222.563 1290.393,2236.088 1286.29,2244.022C1286.29,2244.022 1278.378,2255.65 1279.187,2272.612C1279.187,2272.612 1289.025,2284.789 1325.96,2284.241C1325.96,2284.241 1359.107,2283.556 1370.849,2279.452C1370.849,2279.452 1397.639,2270.107 1418.022,2259.048C1418.022,2259.048 1460.218,2242.655 1462.511,2239.919C1462.511,2239.919 1460.701,2183.697 1454.272,2172.616C1454.272,2172.616 1449.484,2176.857 1442.918,2177.541C1442.918,2177.541 1431.701,2180.995 1413.644,2168.187L1410.79,2168.187C1410.79,2168.187 1405.71,2151.12 1389.705,2150.856L1376.309,2154.302Z" style="fill:rgb(53,54,58);"/>
                <path d="M1312.955,2225.295C1312.955,2225.295 1355.675,2228.441 1365.298,2263.718L1374.889,2262.504L1387.063,2256.639L1415.379,2242.275L1448.21,2230.374L1462.511,2225.295L1462.511,2239.813C1462.511,2239.813 1435.214,2254.04 1416.884,2258.827C1416.884,2258.827 1392.398,2273.875 1367.775,2280.578C1367.775,2280.578 1331.935,2286.46 1304.85,2282.63C1304.85,2282.63 1294.72,2283.04 1279.129,2271.96C1279.129,2271.96 1276.534,2257.186 1286.93,2242.959C1286.93,2242.959 1298.284,2233.657 1302.525,2231.332L1312.955,2225.295Z" style="fill:rgb(240,240,240);"/>
                <path d="M1376.309,2154.302C1376.309,2154.302 1360.575,2190.816 1317.531,2221.096C1317.531,2221.096 1289.495,2235.838 1284.579,2246.525C1284.579,2246.525 1278.594,2257.212 1279.235,2272.174C1279.235,2272.174 1288.486,2292.366 1367.937,2280.51C1367.937,2280.51 1396.092,2271.636 1417.466,2258.545C1417.466,2258.545 1453.748,2246.656 1462.511,2239.602C1462.511,2239.602 1461.87,2196.213 1453.748,2170.992C1453.748,2170.992 1450.142,2176.919 1440.743,2177.734C1435.241,2178.212 1427.752,2176.938 1417.84,2171.697C1417.84,2171.697 1413.052,2164.344 1407.751,2170.329" style="fill:none;stroke:black;stroke-width:4.17px;"/>
                <path d="M1410.79,2168.187C1410.79,2168.187 1400.781,2140.156 1376.309,2154.302" style="fill:none;stroke:black;stroke-width:4.17px;"/>
                <path d="M1460.117,2225.295C1460.117,2225.295 1460.714,2225.956 1457.761,2227.033C1448.72,2230.33 1428.849,2237.52 1416.564,2241.548C1416.564,2241.548 1400.534,2249.563 1380.228,2259.449C1380.228,2259.449 1364.497,2266.754 1337.363,2269.62C1337.363,2269.62 1301.681,2274.388 1281.157,2262.365" style="fill:none;stroke:black;stroke-width:4.17px;"/>
                <path d="M1312.847,2225.295C1312.847,2225.295 1355.644,2226.181 1365.298,2264.907" style="fill:none;stroke:black;stroke-width:2.08px;"/>
                <path d="M1376.309,2261.346C1376.309,2261.346 1372.833,2239.288 1351.459,2227.147C1351.459,2227.147 1391.856,2192.115 1407.544,2170.549" style="fill:none;stroke:black;stroke-width:2.08px;"/>
            </g>
        </g>
    </g>
</svg>
