<?xml version="1.0" encoding="UTF-8" standalone="no"?>
<svg width="100%" height="100%" viewBox="0 0 381 120" version="1.1" xmlns="http://www.w3.org/2000/svg" xmlns:xlink="http://www.w3.org/1999/xlink" xml:space="preserve" xmlns:serif="http://www.serif.com/" style="fill-rule:evenodd;clip-rule:evenodd;stroke-linecap:round;stroke-linejoin:round;stroke-miterlimit:1.5;">
    <g transform="matrix(1,0,0,1,-991.560832,-1987.241718)">
        <g>
            <g>
                <g>
                    <path d="M1203.452,1989.325C1203.452,1989.325 1215.173,2005.133 1214.315,2042.104C1214.315,2042.104 1204.009,2049.899 1147.069,2055.028C1147.069,2055.028 1125.353,2056.225 1113.896,2060.329C1113.896,2060.329 1095.6,2066.656 1079.527,2069.563C1079.527,2069.563 1038.697,2078.796 1000.7,2067.511C1000.7,2067.511 988.864,2060.5 995.703,2044.427C995.703,2044.427 1004.253,2023.566 1050.934,2009.545C1050.934,2009.545 1058.97,2009.173 1072.479,2023.637C1072.479,2023.637 1078.292,2027.157 1091.801,2025.96C1091.801,2025.96 1133.181,2022.027 1149.767,2015.7C1149.767,2015.7 1184.124,2006.211 1203.452,1989.325Z" style="fill:rgb(248,220,159);"/>
                    <path d="M994.884,2057.673C994.884,2057.673 1014.019,2067.821 1057.918,2064.005C1057.918,2064.005 1090.983,2059.971 1107.617,2053.952C1107.617,2053.952 1129.285,2048.699 1142.308,2046.51C1142.308,2046.51 1163.319,2044.103 1177.655,2042.352C1177.655,2042.352 1209.5,2036.989 1213.002,2034.363L1213.112,2042.68L1210.376,2044.869C1210.376,2044.869 1180.281,2051.107 1165.179,2052.748C1165.179,2052.748 1135.085,2054.171 1124.907,2057.782C1124.907,2057.782 1092.624,2066.646 1079.492,2070.367C1066.36,2074.088 1051.039,2072.261 1042.831,2073.12C1034.624,2073.978 1003.107,2069.273 1000.808,2067.741C998.51,2066.209 994.884,2057.673 994.884,2057.673Z" style="fill:rgb(93,69,18);"/>
                </g>
                <path d="M1050.82,2009.764C1050.82,2009.764 993.911,2025.794 993.644,2053.848C993.644,2053.848 993.537,2063.92 1001.873,2067.981C1001.873,2067.981 1040.56,2079.523 1090.148,2067.34C1090.148,2067.34 1121.995,2056.867 1138.025,2055.798C1138.025,2055.798 1207.491,2050.027 1213.903,2042.333C1213.903,2042.333 1217.537,2014.43 1203.216,1989.325C1203.216,1989.325 1164.476,2022.758 1087.797,2026.205C1087.797,2026.205 1081.213,2027.124 1073.177,2023.362C1073.177,2023.362 1058.557,2008.648 1050.82,2009.764Z" style="fill:none;stroke:black;stroke-width:4.17px;"/>
                <path d="M993.948,2056.735C993.948,2056.735 1032.305,2075.883 1103.979,2055.167C1103.979,2055.167 1136.487,2045.27 1159.357,2044.629C1159.357,2044.629 1206.647,2039.713 1214.315,2033.087" style="fill:none;stroke:black;stroke-width:2.08px;"/>
            </g>
            <g>
                <g>
                    <path d="M1227.487,2047.48C1227.487,2047.48 1187.782,2067.691 1189.167,2085.919C1189.167,2085.919 1187.406,2095.529 1205.189,2101.685C1205.189,2101.685 1231.864,2108.387 1265.652,2101.411C1265.652,2101.411 1290.412,2097.17 1307.784,2088.552C1307.784,2088.552 1365.27,2071.316 1370.178,2066.529C1370.178,2066.529 1371.53,2031.099 1366.058,2025.627C1366.058,2025.627 1363.459,2026.722 1350.054,2035.34C1350.054,2035.34 1317.77,2053.26 1295.063,2057.911C1295.063,2057.911 1280.973,2062.288 1277.416,2061.878C1277.416,2061.878 1266.473,2060.783 1263.19,2058.868C1263.19,2058.868 1250.331,2043.479 1227.487,2047.48" style="fill:rgb(248,220,159);stroke:black;stroke-width:2.08px;"/>
                    <path d="M1369.052,2057.453C1369.052,2057.453 1364.812,2061.147 1337.453,2071.817C1310.094,2082.486 1331.106,2074.457 1325.525,2076.098C1325.525,2076.098 1310.641,2080.913 1307.468,2082.008C1307.468,2082.008 1282.079,2090.106 1276.607,2092.185C1276.607,2092.185 1259.645,2095.578 1248.045,2095.906C1236.445,2096.234 1229.222,2096.96 1229.222,2096.96L1215.324,2095.687L1204.052,2093.717L1195.954,2091.31L1190.81,2089.121L1190.591,2091.857L1200.331,2099.517C1200.331,2099.517 1210.04,2108.574 1249.796,2104.374C1289.551,2100.174 1271.042,2100.134 1286.801,2096.96C1286.801,2096.96 1302.326,2089.467 1309.33,2088.067C1316.333,2086.666 1321.47,2084.798 1336.995,2079.779C1352.52,2074.759 1369.277,2068.339 1370.178,2066.121L1369.052,2057.453Z" style="fill:rgb(93,69,18);"/>
                </g>
                <path d="M1227.259,2047.421C1227.259,2047.421 1178.954,2075.421 1191.137,2092.52C1191.137,2092.52 1200.862,2113.835 1277.809,2099.301C1277.809,2099.301 1288.068,2096.522 1304.312,2089.682C1304.312,2089.682 1362.022,2073.011 1370.144,2065.53C1370.144,2065.53 1370.785,2038.385 1366.511,2023.637C1366.511,2023.637 1333.167,2050.995 1278.664,2060.827C1278.664,2060.827 1270.755,2061.682 1262.633,2058.476C1262.633,2058.476 1249.595,2044.916 1227.259,2047.421" style="fill:none;stroke:black;stroke-width:4.17px;"/>
                <path d="M1189.28,2087.985C1189.28,2087.985 1209.266,2104.645 1275.705,2092.568C1275.705,2092.568 1305.381,2082.629 1325.686,2076.217C1325.686,2076.217 1364.869,2061.682 1370.178,2056.766" style="fill:none;stroke:black;stroke-width:2.08px;"/>
            </g>
        </g>
    </g>
</svg>
