<?xml version="1.0" encoding="UTF-8" standalone="no"?>
<!DOCTYPE svg PUBLIC "-//W3C//DTD SVG 1.1//EN" "http://www.w3.org/Graphics/SVG/1.1/DTD/svg11.dtd">
<svg width="100%" height="100%" viewBox="0 0 382 134" version="1.1" xmlns="http://www.w3.org/2000/svg" xmlns:xlink="http://www.w3.org/1999/xlink" xml:space="preserve" xmlns:serif="http://www.serif.com/" style="fill-rule:evenodd;clip-rule:evenodd;stroke-linecap:round;stroke-linejoin:round;stroke-miterlimit:1.5;">
    <g transform="matrix(1,0,0,1,-984.130297,-2119.855233)">
        <g>
            <g>
                <path d="M1263.823,2147.53C1263.823,2147.53 1245.185,2170.165 1236.123,2176.321C1227.06,2182.476 1211.5,2195.472 1194.913,2204.192C1194.913,2204.192 1179.164,2214.863 1180.22,2242.495C1180.22,2242.495 1206.304,2257.392 1243.887,2250.334C1243.887,2250.334 1288.856,2243.686 1290.771,2242.318C1290.771,2242.318 1309.375,2227.545 1312.522,2226.998L1315.121,2226.314L1318.541,2229.46L1320.592,2229.87L1363.972,2213.181C1363.972,2213.181 1359.989,2162.158 1355.475,2159.011C1355.475,2159.011 1304.177,2180.488 1299.526,2181.035L1305.682,2169.544C1305.682,2169.544 1301.615,2152.778 1283.084,2148.984L1263.823,2147.53Z" style="fill:rgb(39,40,43);"/>
                <path d="M1264.369,2148.209C1264.369,2148.209 1238.186,2180.884 1194.904,2204.088C1194.904,2204.088 1176.202,2219.812 1181.011,2243.323C1181.011,2243.323 1209.866,2262.56 1290.553,2242.255C1290.553,2242.255 1307.117,2228.388 1314.598,2226.251L1319.301,2230.098C1319.301,2230.098 1356.491,2217.274 1363.972,2213.427C1363.972,2213.427 1361.407,2170.679 1354.995,2158.282C1354.995,2158.282 1307.759,2179.991 1297.927,2181.533L1305.648,2169.493C1305.648,2169.493 1297.546,2142.998 1264.369,2148.209Z" style="fill:none;stroke:black;stroke-width:4.17px;"/>
                <path d="M1192.945,2210.318C1192.945,2210.318 1211.053,2238.054 1293.877,2185.679" style="fill:none;stroke:black;stroke-width:2.08px;"/>
                <path d="M1180.22,2234.364C1180.22,2234.364 1227.974,2248.317 1289.424,2230.505C1289.424,2230.505 1301.299,2220.115 1319.407,2214.178C1337.516,2208.24 1349.093,2204.807 1361.265,2199.548" style="fill:none;stroke:black;stroke-width:2.08px;"/>
            </g>
            <g>
                <path d="M1096.351,2122.019C1096.351,2122.019 1106.063,2121.335 1114.545,2141.991L1109.73,2148.762L1118.484,2148.981C1118.484,2148.981 1185.896,2139.022 1195.964,2134.973C1195.964,2134.973 1210.142,2162.103 1206.251,2194.269C1206.251,2194.269 1174.5,2202.641 1138.08,2203.575L1130.236,2198.143C1130.236,2198.143 1112.306,2202.501 1107.45,2209.474C1107.45,2209.474 1066.112,2218.563 1038.844,2216.944C1038.844,2216.944 999.996,2215.948 986.673,2207.855C986.673,2207.855 982.066,2188.307 1004.728,2169.256C1004.728,2169.256 1041.583,2156.805 1059.264,2146.221C1076.945,2135.638 1095.213,2123.341 1096.351,2122.019Z" style="fill:rgb(39,40,43);"/>
                <path d="M1096.189,2121.939C1096.189,2121.939 1078.08,2141.828 1005.349,2169.436C1005.349,2169.436 984.415,2181.602 986.339,2207.892C986.339,2207.892 1020.644,2227.455 1107.529,2209.388C1107.529,2209.388 1111.709,2202.705 1130.678,2198.164L1137.892,2203.507C1137.892,2203.507 1199.342,2198.164 1206.289,2194.69C1206.289,2194.69 1211.365,2168.507 1196.403,2134.576C1196.403,2134.576 1154.991,2146.599 1107.701,2149.805L1114.381,2141.522C1114.381,2141.522 1108.722,2124.263 1096.189,2121.939Z" style="fill:none;stroke:black;stroke-width:4.17px;"/>
                <path d="M1001.098,2175.454C1001.098,2175.454 996.623,2191.384 1103.159,2155.416" style="fill:none;stroke:black;stroke-width:2.08px;"/>
                <path d="M986.214,2197.763C986.214,2197.763 1037.765,2213.397 1107.358,2195.508C1107.358,2195.508 1127.428,2190.286 1140.452,2188.616C1153.477,2186.946 1192.964,2183.682 1207.118,2178.968" style="fill:none;stroke:black;stroke-width:2.08px;"/>
            </g>
        </g>
    </g>
</svg>
