<?xml version="1.0" encoding="UTF-8" standalone="no"?>
<!DOCTYPE svg PUBLIC "-//W3C//DTD SVG 1.1//EN" "http://www.w3.org/Graphics/SVG/1.1/DTD/svg11.dtd">
<svg width="100%" height="100%" viewBox="0 0 476 202" version="1.1" xmlns="http://www.w3.org/2000/svg" xmlns:xlink="http://www.w3.org/1999/xlink" xml:space="preserve" xmlns:serif="http://www.serif.com/" style="fill-rule:evenodd;clip-rule:evenodd;stroke-linecap:round;stroke-linejoin:round;stroke-miterlimit:1.5;">
    <g transform="matrix(1,0,0,1,-612.052107,-1920.415644)">
        <g>
            <g id="l-shoe" serif:id="l shoe">
                <g>
                    <path d="M778.086,1941.37C778.086,1941.37 767.209,1910.889 742.629,1927.454C718.049,1944.019 671.294,1973.675 665.683,1977.683C660.072,1981.69 642.439,1994.782 642.439,1994.782L624.004,2011.614C624.004,2011.614 604.767,2038.668 620.263,2057.034C620.263,2057.034 638.966,2075.666 704.156,2064.445C704.156,2064.445 824.652,2035.59 841.217,2033.186C841.217,2033.186 881.56,2024.903 884.232,2021.964C884.232,2021.964 889.656,2020.094 887.612,2002.995C887.612,2002.995 870.072,1935.132 868.736,1936.736C868.736,1936.736 840.843,1977.934 786.927,1937.297L778.086,1941.37Z" style="fill:rgb(107,135,181);"/>
                    <path d="M666.736,1977.681C666.736,1977.681 711.539,2002.426 715.384,2038.575L744.7,2031.634L822.982,2014.535L879.89,2002.784L887.612,2002.784L887.612,2019.077L882.295,2024.442C882.295,2024.442 729.738,2057.55 713.173,2062.092C713.173,2062.092 646.233,2077.158 618.326,2054.879C618.326,2054.879 613.43,2044.474 614.69,2032.302C614.69,2032.302 622.184,2009.487 630.199,2003.528C638.215,1997.57 656.026,1984.805 656.026,1984.805L666.736,1977.681Z" style="fill:rgb(220,220,220);"/>
                </g>
                <path d="M739.999,1930.091C739.999,1930.091 637.709,1991.159 623.206,2012.151C623.206,2012.151 605.648,2037.342 619.389,2055.663C619.389,2055.663 634.274,2074.747 708.32,2063.678C708.32,2063.678 800.304,2042.304 823.587,2036.961C823.587,2036.961 876.64,2027.037 884.273,2022.457C884.273,2022.457 890.554,2020.167 885.887,1996.503C885.887,1996.503 871.678,1942.686 868.243,1936.961C868.243,1936.961 839.617,1977.8 786.564,1936.961C786.564,1936.961 681.908,1989.251 704.808,2009.48" style="fill:none;stroke:black;stroke-width:4.17px;"/>
                <path d="M739.999,1930.091C739.999,1930.091 760.961,1907.008 778.137,1941.342" style="fill:none;stroke:black;stroke-width:4.17px;"/>
                <path d="M666.736,1977.681C666.736,1977.681 710.374,2001.115 715.384,2038.575" style="fill:none;stroke:black;stroke-width:4.17px;"/>
                <path d="M614.69,2033.979C614.69,2033.979 644.233,2057.865 715.384,2038.575C715.384,2038.575 877.477,2002.649 887.612,2002.784" style="fill:none;stroke:black;stroke-width:4.17px;"/>
            </g>
            <g id="r-shoe" serif:id="r shoe">
                <g>
                    <path d="M1070.983,1960.957L1078.746,1999.803L1083.075,2031.931L1085.458,2042.618L1085.458,2049.743L1083.075,2055.383L1080.701,2057.758L1053.389,2069.039C1053.389,2069.039 971.243,2102.881 959.772,2106.74C959.772,2106.74 867.555,2134.942 838.165,2108.521C838.165,2108.521 833.27,2096.944 834.085,2088.335C834.085,2088.335 838.62,2058.055 874.016,2027.182C874.016,2027.182 942.363,1963.095 946.223,1953.43C946.223,1953.43 970.565,1936.342 996.392,1973.45L1003.546,1970.912C1003.546,1970.912 1043.89,1996.293 1063.661,1969.041L1068.47,1958.622L1070.983,1960.957Z" style="fill:rgb(107,135,181);"/>
                    <path d="M876.557,2027.993L905.839,2034.661L920.801,2043.383L938.328,2060.696L944.099,2073.734L947.091,2086.986L983.427,2075.657L1011.213,2064.329L1046.052,2051.719L1075.549,2039.963L1085.458,2036.596L1085.458,2047.658L1083.029,2055.352L1080.678,2057.703C1080.678,2057.703 968.465,2101.947 956.068,2107.505C956.068,2107.505 868.007,2134.222 838.511,2109.215L833.994,2092.329C833.994,2092.329 835.305,2066.253 858.175,2043.383L871.855,2028.848L876.557,2027.993Z" style="fill:rgb(220,220,220);"/>
                </g>
                <path d="M946.754,1953.43C946.754,1953.43 897.46,2007.532 874.016,2027.904C854.997,2044.431 829.296,2075.683 834.856,2096.699C836.15,2101.59 836.167,2108.003 841.324,2111.471C841.324,2111.471 866.713,2133.346 959.927,2106.034C959.927,2106.034 1070.656,2062.396 1082.828,2057.349C1082.828,2057.349 1087.577,2050.818 1084.312,2037.757C1084.312,2037.757 1075.406,1970.072 1069.766,1957.604C1069.766,1957.604 1055.813,2000.946 1003.863,1970.963C1003.863,1970.963 911.539,2040.491 933.507,2054.084" style="fill:none;stroke:black;stroke-width:4.17px;"/>
                <path d="M946.754,1953.43C946.754,1953.43 973.23,1936.074 998.224,1975.314" style="fill:none;stroke:black;stroke-width:4.17px;"/>
                <path d="M874.016,2028.046C874.016,2028.046 944.687,2032.329 946.754,2088.309" style="fill:none;stroke:black;stroke-width:4.17px;"/>
                <path d="M834.085,2092.762C834.085,2092.762 879.038,2111.337 946.754,2088.309C946.754,2088.309 1074.004,2041.88 1085.458,2036.596" style="fill:none;stroke:black;stroke-width:4.17px;"/>
            </g>
        </g>
    </g>
</svg>
