<?xml version='1.0' encoding='utf-8'?>
<svg xmlns="http://www.w3.org/2000/svg" xmlns:serif="http://www.serif.com/" width="100%" height="100%" viewBox="585.455 1893.45 521.435 254.208" version="1.1" xml:space="preserve" style="fill-rule:evenodd;clip-rule:evenodd;stroke-linecap:round;stroke-linejoin:round;stroke-miterlimit:1.5;">
    <g>
        <g id="l-shoe" serif:id="l shoe">
            <g>
                <path d="M778.086,1941.37C778.086,1941.37 767.209,1910.889 742.629,1927.454C718.049,1944.019 671.294,1973.675 665.683,1977.683C660.072,1981.69 642.439,1994.782 642.439,1994.782L624.004,2011.614C624.004,2011.614 604.767,2038.668 620.263,2057.034C620.263,2057.034 638.966,2075.666 704.156,2064.445C704.156,2064.445 824.652,2035.59 841.217,2033.186C841.217,2033.186 881.56,2024.903 884.232,2021.964C884.232,2021.964 889.656,2020.094 887.612,2002.995C887.612,2002.995 870.072,1935.132 868.736,1936.736C868.736,1936.736 839.062,1962.2 780.099,1943.531L778.086,1941.37Z" style="fill:rgb(93,53,0);" />
                <path d="M614.774,2041.392L631.558,2044.328C631.558,2044.328 642.411,2045.655 654.805,2047.215C672.85,2049.487 688.198,2048.311 710.04,2043.621L746.624,2035.482L825.12,2016.459L879.89,2002.784L887.612,2002.784L887.612,2019.077L883.15,2027.007C883.15,2027.007 857.562,2033.349 823.308,2040.862C818.975,2041.812 815.426,2036.121 811.186,2037.774C798.353,2042.778 785.204,2048.111 771.074,2051.604C744.704,2058.122 718.642,2060.593 713.173,2062.092C713.173,2062.092 619.157,2081.302 614.228,2044.328" style="fill:rgb(40,27,0);" />
            </g>
            <path d="M739.999,1930.091C739.999,1930.091 637.709,1991.159 623.206,2012.151C623.206,2012.151 605.648,2037.342 619.389,2055.663C619.389,2055.663 634.274,2074.747 708.32,2063.678C708.32,2063.678 775.936,2054.782 809.41,2038.791C813.298,2036.933 820.925,2041.134 823.587,2040.523C823.587,2040.523 876.64,2030.599 884.273,2026.019C884.273,2026.019 890.554,2020.167 885.887,1996.503C885.887,1996.503 871.678,1942.686 868.243,1936.961C868.243,1936.961 835.609,1962.104 779.216,1941.636" style="fill:none;stroke:black;stroke-width:4.17px;" />
            <path d="M739.999,1930.091C739.999,1930.091 771.889,1902.866 782.72,1957.573C782.72,1957.573 697.318,2031.707 626.298,2009.331" style="fill:none;stroke:black;stroke-width:4.17px;" />
            <path d="M705.564,1952.222C705.564,1952.222 742.749,1967.756 750.874,1980.528" style="fill:none;stroke:black;stroke-width:4.17px;" />
            <path d="M736.957,1932.852C736.957,1932.852 770.687,1946.211 777.033,1960.572" style="fill:none;stroke:black;stroke-width:4.17px;" />
            <path d="M614.135,2039.676C630.03,2046.36 687.925,2050.671 714.239,2043.537C714.239,2043.537 875.34,2002.863 885.474,2002.998" style="fill:none;stroke:black;stroke-width:4.17px;" />
        </g>
        <g id="r-shoe" serif:id="r shoe">
            <g>
                <path d="M1070.983,1960.957L1078.746,1999.803L1083.075,2031.931L1085.458,2042.618L1085.458,2049.743L1083.075,2055.383L1080.701,2057.758L1053.389,2069.039C1053.389,2069.039 971.243,2102.881 959.772,2106.74C959.772,2106.74 867.555,2134.942 838.165,2108.521C838.165,2108.521 833.27,2096.944 834.085,2088.335C834.085,2088.335 838.62,2058.055 874.016,2027.182C874.016,2027.182 942.363,1963.095 946.223,1953.43C946.223,1953.43 978.308,1928.921 1004.729,1977.012L1010.346,1976.552C1010.346,1976.552 1035.34,1983.469 1062.058,1966.102L1068.47,1958.622L1070.983,1960.957Z" style="fill:rgb(93,53,0);" />
                <path d="M852.968,2100.861L879.175,2103.307L904.557,2103.307L929.564,2099.81L950.2,2094.039L985.434,2078.864L1013.991,2067.322L1046.052,2051.719L1075.549,2039.963L1085.458,2036.596L1085.458,2055.352L1082.893,2062.619C1082.893,2062.619 1054.212,2073.748 1023.769,2085.652C1020.61,2086.887 1018.641,2081.36 1015.763,2083.171C989.576,2099.655 959.333,2110.972 953.717,2113.489C953.717,2113.489 863.946,2137.856 838.511,2109.215L833.994,2092.329L834.085,2092.671" style="fill:rgb(40,27,0);" />
            </g>
            <path d="M946.754,1953.43C946.754,1953.43 897.46,2007.532 874.016,2027.904C854.997,2044.431 829.296,2075.683 834.856,2096.699C836.15,2101.59 836.167,2108.003 841.324,2111.471C841.324,2111.471 866.779,2138.244 959.993,2110.933C959.993,2110.933 993.304,2100.436 1014.447,2083.718C1018.233,2080.724 1021.182,2087.52 1025.738,2085.719C1051.792,2075.416 1077.468,2064.497 1082.893,2062.248C1082.893,2062.248 1087.577,2050.818 1084.312,2037.757C1084.312,2037.757 1075.406,1970.072 1069.766,1957.604C1069.766,1957.604 1056.958,1982.244 1004.244,1977.07" style="fill:none;stroke:black;stroke-width:4.17px;" />
            <path d="M946.754,1953.43C946.754,1953.43 984.207,1923.25 1010.346,1989.207C1010.346,1989.207 940.978,2098.968 840.75,2069.952" style="fill:none;stroke:black;stroke-width:4.17px;" />
            <path d="M1004.729,1997.223C1004.729,1997.223 976.623,1948.641 934.798,1966.675" style="fill:none;stroke:black;stroke-width:4.17px;" />
            <g transform="matrix(1,0,0,1,-3.053425,2.789364)">
                <path d="M988.488,2015.435C988.488,2015.435 966.78,1975.692 918.02,1986.379" style="fill:none;stroke:black;stroke-width:4.17px;" />
            </g>
            <path d="M834.085,2092.607C845.355,2107.495 912.677,2105.65 948.662,2094.416C948.662,2094.416 1071.439,2041.88 1082.893,2036.596" style="fill:none;stroke:black;stroke-width:4.17px;" />
        </g>
    </g>
</svg>