<?xml version="1.0" encoding="UTF-8" standalone="no"?>
<!DOCTYPE svg PUBLIC "-//W3C//DTD SVG 1.1//EN" "http://www.w3.org/Graphics/SVG/1.1/DTD/svg11.dtd">
<svg width="100%" height="100%" viewBox="0 0 1749 2481" version="1.1" xmlns="http://www.w3.org/2000/svg" xmlns:xlink="http://www.w3.org/1999/xlink" xml:space="preserve" xmlns:serif="http://www.serif.com/" style="fill-rule:evenodd;clip-rule:evenodd;stroke-linecap:round;stroke-linejoin:round;stroke-miterlimit:1.5;">
    <g>
        <g id="l-shoe" serif:id="l shoe">
            <g>
                <path d="M780.437,1938.805C780.437,1938.805 767.209,1910.889 742.629,1927.454C718.049,1944.019 671.294,1973.675 665.683,1977.683C660.072,1981.69 642.439,1994.782 642.439,1994.782L624.004,2011.614C624.004,2011.614 604.767,2038.668 620.263,2057.034C620.263,2057.034 638.966,2075.666 704.156,2064.445C704.156,2064.445 824.652,2035.59 841.217,2033.186C841.217,2033.186 881.56,2024.903 884.232,2021.964C884.232,2021.964 889.656,2020.094 887.612,2002.995C887.612,2002.995 870.072,1935.132 868.736,1936.736C868.736,1936.736 829.657,1969.559 792.282,1946.828L780.437,1938.805Z" style="fill:rgb(59,59,59);"/>
                <path d="M614.774,2041.392L631.558,2044.328C631.558,2044.328 642.411,2045.655 654.805,2047.215C672.85,2049.487 688.198,2048.311 710.04,2043.621L746.624,2035.482L825.12,2016.459L879.89,2002.784L887.612,2002.784L887.612,2019.077L883.15,2027.007C883.15,2027.007 857.562,2033.349 823.308,2040.862C818.975,2041.812 815.426,2036.121 811.186,2037.774C798.353,2042.778 785.204,2048.111 771.074,2051.604C744.704,2058.122 718.642,2060.593 713.173,2062.092C713.173,2062.092 619.157,2081.302 614.228,2044.328" style="fill:rgb(22,22,22);"/>
            </g>
            <path d="M739.999,1930.091C739.999,1930.091 637.709,1991.159 623.206,2012.151C623.206,2012.151 605.648,2037.342 619.389,2055.663C619.389,2055.663 634.274,2074.747 708.32,2063.678C708.32,2063.678 775.936,2054.782 809.41,2038.791C813.298,2036.933 820.925,2041.134 823.587,2040.523C823.587,2040.523 876.64,2030.599 884.273,2026.019C884.273,2026.019 890.554,2020.167 885.887,1996.503C885.887,1996.503 871.678,1942.686 868.243,1936.961C868.243,1936.961 819.217,1981.285 772.176,1929.425" style="fill:none;stroke:black;stroke-width:4.17px;"/>
            <path d="M739.999,1930.091C739.999,1930.091 757.453,1914.588 772.579,1929.425C776.635,1933.404 768.272,1926.009 768.272,1926.009L697.774,1972.684C697.774,1972.684 707.125,1994.726 737.851,1988.047C737.851,1988.047 814.997,1957.823 813.661,2018.104" style="fill:none;stroke:black;stroke-width:4.17px;"/>
            <path d="M755.726,1923.105C755.726,1923.105 688.323,1969.831 687.432,1970.551L675.854,1970.551" style="fill:none;stroke:black;stroke-width:4.17px;"/>
            <path d="M614.135,2039.676C630.03,2046.36 687.925,2050.671 714.239,2043.537C714.239,2043.537 875.34,2002.863 885.474,2002.998" style="fill:none;stroke:black;stroke-width:4.17px;"/>
        </g>
        <g id="r-shoe" serif:id="r shoe">
            <g>
                <path d="M1070.983,1960.957L1078.746,1999.803L1083.075,2031.931L1085.458,2042.618L1085.458,2049.743L1083.075,2055.383L1080.701,2057.758L1053.389,2069.039C1053.389,2069.039 971.243,2102.881 959.772,2106.74C959.772,2106.74 867.555,2134.942 838.165,2108.521C838.165,2108.521 833.27,2096.944 834.085,2088.335C834.085,2088.335 838.62,2058.055 874.016,2027.182C874.016,2027.182 942.363,1963.095 946.223,1953.43C946.223,1953.43 969.224,1928.921 1007.401,1972.47L1016.491,1979.224C1016.491,1979.224 1045.226,1988.545 1062.058,1966.102L1068.47,1958.622L1070.983,1960.957Z" style="fill:rgb(59,59,59);"/>
                <path d="M852.968,2100.861L879.175,2103.307L904.557,2103.307L929.564,2099.81L950.2,2094.039L985.434,2078.864L1013.991,2067.322L1046.052,2051.719L1075.549,2039.963L1085.458,2036.596L1085.458,2055.352L1082.893,2062.619C1082.893,2062.619 1054.212,2073.748 1023.769,2085.652C1020.61,2086.887 1018.641,2081.36 1015.763,2083.171C989.576,2099.655 959.333,2110.972 953.717,2113.489C953.717,2113.489 863.946,2137.856 838.511,2109.215L833.994,2092.329L834.085,2092.671" style="fill:rgb(22,22,22);"/>
            </g>
            <path d="M946.754,1953.43C946.754,1953.43 897.46,2007.532 874.016,2027.904C854.997,2044.431 829.296,2075.683 834.856,2096.699C836.15,2101.59 836.167,2108.003 841.324,2111.471C841.324,2111.471 866.779,2138.244 959.993,2110.933C959.993,2110.933 993.304,2100.436 1014.447,2083.718C1018.233,2080.724 1021.182,2087.52 1025.738,2085.719C1051.792,2075.416 1077.468,2064.497 1082.893,2062.248C1082.893,2062.248 1087.577,2050.818 1084.312,2037.757C1084.312,2037.757 1075.406,1970.072 1069.766,1957.604C1069.766,1957.604 1037.874,2008.198 995.466,1961.039" style="fill:none;stroke:black;stroke-width:4.17px;"/>
            <path d="M946.754,1953.43C946.754,1953.43 972.735,1932.494 996.521,1963.604" style="fill:none;stroke:black;stroke-width:4.17px;"/>
            <path d="M979.241,1949.117L913.759,2027.546C913.759,2027.546 928.096,2043.21 946.754,2034.932C965.412,2026.655 1022.41,1996.821 1033.987,2054.708" style="fill:none;stroke:black;stroke-width:4.17px;"/>
            <path d="M965.858,1946.539L902.181,2021.312C902.181,2021.312 882.588,2025.931 882.922,2020.922" style="fill:none;stroke:black;stroke-width:4.17px;"/>
            <path d="M834.085,2092.607C845.355,2107.495 912.677,2105.65 948.662,2094.416C948.662,2094.416 1071.439,2041.88 1082.893,2036.596" style="fill:none;stroke:black;stroke-width:4.17px;"/>
        </g>
    </g>
</svg>
