<?xml version="1.0" encoding="UTF-8" standalone="no"?>
<!DOCTYPE svg PUBLIC "-//W3C//DTD SVG 1.1//EN" "http://www.w3.org/Graphics/SVG/1.1/DTD/svg11.dtd">
<svg width="100%" height="100%" viewBox="0 0 1749 2481" version="1.1" xmlns="http://www.w3.org/2000/svg" xmlns:xlink="http://www.w3.org/1999/xlink" xml:space="preserve" xmlns:serif="http://www.serif.com/" style="fill-rule:evenodd;clip-rule:evenodd;stroke-linecap:round;stroke-linejoin:round;stroke-miterlimit:1.5;">
    <g>
        <g id="l-shoe" serif:id="l shoe">
            <g>
                <path d="M621.316,2016.807C621.316,2016.807 617.845,2013.493 629.263,2005.402C644.341,1994.719 644.915,1991.432 666.491,1977.659C666.491,1977.659 722.216,1940.712 735.771,1933.098C746.189,1927.245 770.392,1963.238 770.392,1963.238L784.181,1988.003L794.697,1998.746L805.414,2004.563L820.31,2007.322L885.474,1995.861L887.612,2002.784L887.612,2019.077L882.295,2024.442C882.295,2024.442 729.738,2057.55 713.173,2062.092C713.173,2062.092 646.233,2077.158 618.326,2054.879C618.326,2054.879 613.43,2044.474 614.69,2032.302C614.69,2032.302 613.625,2033.736 616.86,2024.287C618.548,2019.355 619.435,2019.142 619.435,2019.142L621.316,2016.807Z" style="fill:rgb(220,220,220);"/>
            </g>
            <path d="M885.887,1996.503L827.824,2006.476C799.771,2010.15 784.742,1989.229 784.742,1989.229C753.063,1923.58 734.21,1933.653 734.21,1933.653C734.21,1933.653 637.709,1991.159 623.206,2012.151C623.206,2012.151 605.648,2037.342 619.389,2055.663C619.389,2055.663 634.274,2074.747 708.32,2063.678C708.32,2063.678 800.304,2042.304 823.587,2036.961C823.587,2036.961 876.64,2027.037 884.273,2022.457C884.273,2022.457 890.554,2020.167 885.887,1996.503Z" style="fill:none;stroke:black;stroke-width:4.17px;"/>
            <g transform="matrix(0.902095,-0.431538,0.431538,0.902095,-788.812331,526.439445)">
                <ellipse cx="765.791" cy="2001.649" rx="12.023" ry="9.945" style="fill:none;stroke:black;stroke-width:4.17px;"/>
            </g>
            <path d="M703.599,1953.113C703.599,1953.113 734.003,1956.972 754.127,1995.861" style="fill:none;stroke:black;stroke-width:4.17px;"/>
            <path d="M722.895,1940.644C722.895,1940.644 756.44,1949.9 770.392,1991.286" style="fill:none;stroke:black;stroke-width:4.17px;"/>
            <path d="M621.316,2018.589C621.316,2018.589 621.31,2020.704 638.784,2024.205C642.601,2024.97 642.671,2039.712 647.526,2041.754C663.421,2048.438 689.07,2045.709 715.384,2038.575C715.384,2038.575 875.34,2002.863 885.474,2002.998" style="fill:none;stroke:black;stroke-width:4.17px;"/>
        </g>
        <g id="r-shoe" serif:id="r shoe">
            <g>
                <path d="M833.994,2092.329L835.508,2081.647L837.739,2074.577L840.174,2069.69L844.888,2060.861L854.625,2047.799L876.784,2026.337L904.343,1999.152L929.054,1971.397C968.077,1964.063 994.499,1982.899 1010.144,2014.528L1016.259,2037.048L1026.186,2044.868L1040.519,2044.868L1082.489,2025.612L1085.458,2047.658L1083.029,2055.352L1080.678,2057.703C1080.678,2057.703 968.465,2101.947 956.068,2107.505C956.068,2107.505 868.007,2134.222 838.511,2109.215L833.994,2092.329Z" style="fill:rgb(220,220,220);"/>
            </g>
            <path d="M1084.312,2037.757C1084.312,2037.757 1083.862,2025.359 1082.861,2026.027C1081.859,2026.695 1043.786,2043.06 1043.786,2043.06C1023.748,2052.745 1016.624,2036.547 1016.624,2036.547C997.921,1953.723 929.655,1971.597 929.655,1971.597C929.655,1971.597 897.46,2007.532 874.016,2027.904C854.997,2044.431 829.296,2075.683 834.856,2096.699C836.15,2101.59 836.167,2108.003 841.324,2111.471C841.324,2111.471 866.713,2133.346 959.927,2106.034C959.927,2106.034 1070.656,2062.396 1082.828,2057.349C1082.828,2057.349 1087.577,2050.818 1084.312,2037.757Z" style="fill:none;stroke:black;stroke-width:4.17px;"/>
            <g transform="matrix(0.857217,-0.514955,0.514955,0.857217,-908.712378,804.118766)">
                <ellipse cx="995.695" cy="2040.722" rx="11.689" ry="10.019" style="fill:none;stroke:black;stroke-width:4.17px;"/>
            </g>
            <path d="M999.702,2030.234C999.702,2030.234 987.68,1973.594 921.888,1980.608" style="fill:none;stroke:black;stroke-width:4.17px;"/>
            <path d="M984.425,2037.048C984.425,2037.048 967.975,1992.964 908.863,1995.636" style="fill:none;stroke:black;stroke-width:4.17px;"/>
            <path d="M836.608,2080.323C836.608,2080.323 836.25,2082.891 861.488,2083.789C867.823,2084.014 870.677,2095.831 880.224,2098.284C899.175,2103.154 927.467,2094.868 946.754,2088.309C946.754,2088.309 1071.439,2041.88 1082.893,2036.596" style="fill:none;stroke:black;stroke-width:4.17px;"/>
        </g>
    </g>
</svg>
