<?xml version="1.0" encoding="UTF-8" standalone="no"?>
<!DOCTYPE svg PUBLIC "-//W3C//DTD SVG 1.1//EN" "http://www.w3.org/Graphics/SVG/1.1/DTD/svg11.dtd">
<svg width="100%" height="100%" viewBox="0 0 476 203" version="1.1" xmlns="http://www.w3.org/2000/svg" xmlns:xlink="http://www.w3.org/1999/xlink" xml:space="preserve" xmlns:serif="http://www.serif.com/" style="fill-rule:evenodd;clip-rule:evenodd;stroke-linecap:round;stroke-linejoin:round;stroke-miterlimit:1.5;">
    <g transform="matrix(1,0,0,1,-612.052107,-1919.078888)">
        <g>
            <g id="l-shoe" serif:id="l shoe">
                <g>
                    <path d="M778.086,1941.37C778.086,1941.37 767.209,1910.889 742.629,1927.454C718.049,1944.019 671.294,1973.675 665.683,1977.683C660.072,1981.69 642.439,1994.782 642.439,1994.782L624.004,2011.614C624.004,2011.614 604.767,2038.668 620.263,2057.034C620.263,2057.034 638.966,2075.666 704.156,2064.445C704.156,2064.445 824.652,2035.59 841.217,2033.186C841.217,2033.186 881.56,2024.903 884.232,2021.964C884.232,2021.964 889.656,2020.094 887.612,2002.995C887.612,2002.995 870.072,1935.132 868.736,1936.736C868.736,1936.736 840.843,1977.934 786.927,1937.297L778.086,1941.37Z" style="fill:rgb(107,135,181);"/>
                    <path d="M638.683,2024.287C638.683,2024.287 642.959,2041.379 654.378,2043.708C672.484,2047.401 693.541,2043.264 715.384,2038.575L744.7,2031.634L822.982,2014.535L879.89,2002.784L887.612,2002.784L887.612,2019.077L882.295,2024.442C882.295,2024.442 729.738,2057.55 713.173,2062.092C713.173,2062.092 646.233,2077.158 618.326,2054.879C618.326,2054.879 613.43,2044.474 614.69,2032.302C614.69,2032.302 613.625,2033.736 616.86,2024.287C618.548,2019.355 619.435,2019.142 619.435,2019.142L638.683,2024.287Z" style="fill:rgb(220,220,220);"/>
                </g>
                <path d="M739.999,1930.091C739.999,1930.091 637.709,1991.159 623.206,2012.151C623.206,2012.151 605.648,2037.342 619.389,2055.663C619.389,2055.663 634.274,2074.747 708.32,2063.678C708.32,2063.678 800.304,2042.304 823.587,2036.961C823.587,2036.961 876.64,2027.037 884.273,2022.457C884.273,2022.457 890.554,2020.167 885.887,1996.503C885.887,1996.503 871.678,1942.686 868.243,1936.961C868.243,1936.961 839.617,1977.8 786.564,1936.961" style="fill:none;stroke:black;stroke-width:4.17px;"/>
                <path d="M739.999,1930.091C739.999,1930.091 760.534,1904.87 777.71,1939.205" style="fill:none;stroke:black;stroke-width:4.17px;"/>
                <path d="M785.381,1936.045C785.381,1936.045 712.353,1976.418 702.26,1982.355C702.26,1982.355 720.368,1997.98 721.556,2002.784C721.556,2002.784 775.362,1975.36 786.568,2020.65" style="fill:none;stroke:black;stroke-width:4.17px;"/>
                <path d="M621.316,2018.589C621.316,2018.589 621.31,2020.704 638.784,2024.205C642.601,2024.97 642.671,2039.712 647.526,2041.754C663.421,2048.438 689.07,2045.709 715.384,2038.575C715.384,2038.575 875.34,2002.863 885.474,2002.998" style="fill:none;stroke:black;stroke-width:4.17px;"/>
            </g>
            <g id="r-shoe" serif:id="r shoe">
                <g>
                    <path d="M1070.983,1960.957L1078.746,1999.803L1083.075,2031.931L1085.458,2042.618L1085.458,2049.743L1083.075,2055.383L1080.701,2057.758L1053.389,2069.039C1053.389,2069.039 971.243,2102.881 959.772,2106.74C959.772,2106.74 867.555,2134.942 838.165,2108.521C838.165,2108.521 833.27,2096.944 834.085,2088.335C834.085,2088.335 838.62,2058.055 874.016,2027.182C874.016,2027.182 942.363,1963.095 946.223,1953.43C946.223,1953.43 970.565,1936.342 996.392,1973.45L1003.546,1970.912C1003.546,1970.912 1043.89,1996.293 1063.661,1969.041L1068.47,1958.622L1070.983,1960.957Z" style="fill:rgb(107,135,181);"/>
                    <path d="M833.994,2092.329L835.508,2081.647L858.816,2083.78L863.626,2085.424L877.839,2099.749L897.076,2099.749L927.213,2094.467L947.091,2086.986L983.427,2075.657L1011.213,2064.329L1046.052,2051.719L1075.549,2039.963L1085.458,2036.596L1085.458,2047.658L1083.029,2055.352L1080.678,2057.703C1080.678,2057.703 968.465,2101.947 956.068,2107.505C956.068,2107.505 868.007,2134.222 838.511,2109.215L833.994,2092.329Z" style="fill:rgb(220,220,220);"/>
                </g>
                <path d="M946.754,1953.43C946.754,1953.43 897.46,2007.532 874.016,2027.904C854.997,2044.431 829.296,2075.683 834.856,2096.699C836.15,2101.59 836.167,2108.003 841.324,2111.471C841.324,2111.471 866.713,2133.346 959.927,2106.034C959.927,2106.034 1070.656,2062.396 1082.828,2057.349C1082.828,2057.349 1087.577,2050.818 1084.312,2037.757C1084.312,2037.757 1075.406,1970.072 1069.766,1957.604C1069.766,1957.604 1055.813,2000.946 1003.863,1970.963" style="fill:none;stroke:black;stroke-width:4.17px;"/>
                <path d="M946.754,1953.43C946.754,1953.43 972.375,1933.937 997.369,1973.177" style="fill:none;stroke:black;stroke-width:4.17px;"/>
                <path d="M836.608,2080.323C836.608,2080.323 836.25,2082.891 861.488,2083.789C867.823,2084.014 870.677,2095.831 880.224,2098.284C899.175,2103.154 927.467,2094.868 946.754,2088.309C946.754,2088.309 1071.439,2041.88 1082.893,2036.596" style="fill:none;stroke:black;stroke-width:4.17px;"/>
                <path d="M1003.026,1969.926C1003.026,1969.926 929.405,2026.379 922.28,2031.846C922.28,2031.846 935.936,2043.844 938.904,2048.594C938.904,2048.594 996.283,2016.915 1018.76,2058.984" style="fill:none;stroke:black;stroke-width:4.17px;"/>
            </g>
        </g>
    </g>
</svg>
